M48
; DRILL file {KiCad (5.1.10)-1} date 09/09/21 11:23:59
; FORMAT={-:-/ absolute / inch / decimal}
; #@! TF.CreationDate,2021-09-09T11:23:59-04:00
; #@! TF.GenerationSoftware,Kicad,Pcbnew,(5.1.10)-1
; #@! TF.FileFunction,Plated,1,2,PTH
FMAT,2
INCH
T1C0.0157
T2C0.0300
T3C0.0394
%
G90
G05
T1
X5.1326Y-5.5674
X5.425Y-4.9669
X5.475Y-4.9669
X5.525Y-4.9669
X5.525Y-5.3331
X5.575Y-5.5669
X5.8Y-3.75
X5.8Y-4.45
X5.8Y-5.5674
T2
X4.73Y-2.94
X4.73Y-4.12
X4.85Y-2.94
X4.85Y-4.12
X4.9Y-6.45
X4.97Y-2.94
X4.97Y-4.12
X5.0Y-6.45
X5.1Y-6.45
X5.15Y-6.15
X5.2Y-4.75
X5.2Y-6.45
X5.25Y-6.15
X5.3Y-4.75
X5.35Y-6.15
X5.4Y-4.75
X5.45Y-6.15
X5.55Y-6.15
X5.65Y-6.15
T3
X4.35Y-4.65
X4.35Y-4.75
X4.35Y-4.85
X4.35Y-4.95
X4.35Y-5.05
X4.35Y-5.15
X4.35Y-5.25
X4.35Y-5.35
X4.35Y-5.45
X4.35Y-5.55
X4.35Y-5.65
X4.35Y-5.75
X4.35Y-5.85
X4.35Y-5.95
X4.35Y-6.05
X4.95Y-4.65
X4.95Y-4.75
X4.95Y-4.85
X4.95Y-4.95
X4.95Y-5.05
X4.95Y-5.15
X4.95Y-5.25
X4.95Y-5.35
X4.95Y-5.45
X4.95Y-5.55
X4.95Y-5.65
X4.95Y-5.75
X4.95Y-5.85
X4.95Y-5.95
X4.95Y-6.05
T0
M30
