%TF.GenerationSoftware,KiCad,Pcbnew,(5.1.10)-1*%
%TF.CreationDate,2021-09-08T13:12:46-04:00*%
%TF.ProjectId,Water_sensor,57617465-725f-4736-956e-736f722e6b69,rev?*%
%TF.SameCoordinates,Original*%
%TF.FileFunction,Copper,L1,Top*%
%TF.FilePolarity,Positive*%
%FSLAX46Y46*%
G04 Gerber Fmt 4.6, Leading zero omitted, Abs format (unit mm)*
G04 Created by KiCad (PCBNEW (5.1.10)-1) date 2021-09-08 13:12:46*
%MOMM*%
%LPD*%
G01*
G04 APERTURE LIST*
%TA.AperFunction,ComponentPad*%
%ADD10R,1.600000X1.600000*%
%TD*%
%TA.AperFunction,ComponentPad*%
%ADD11O,1.600000X1.600000*%
%TD*%
%TA.AperFunction,ComponentPad*%
%ADD12C,1.524000*%
%TD*%
%TA.AperFunction,SMDPad,CuDef*%
%ADD13R,1.524000X1.524000*%
%TD*%
%TA.AperFunction,SMDPad,CuDef*%
%ADD14C,1.524000*%
%TD*%
%TA.AperFunction,ViaPad*%
%ADD15C,0.800000*%
%TD*%
%TA.AperFunction,Conductor*%
%ADD16C,0.250000*%
%TD*%
G04 APERTURE END LIST*
%TO.P,10K1,2*%
%TO.N,Net-(10K1-Pad2)*%
%TA.AperFunction,SMDPad,CuDef*%
G36*
G01*
X147945001Y-141975000D02*
X146694999Y-141975000D01*
G75*
G02*
X146445000Y-141725001I0J249999D01*
G01*
X146445000Y-141099999D01*
G75*
G02*
X146694999Y-140850000I249999J0D01*
G01*
X147945001Y-140850000D01*
G75*
G02*
X148195000Y-141099999I0J-249999D01*
G01*
X148195000Y-141725001D01*
G75*
G02*
X147945001Y-141975000I-249999J0D01*
G01*
G37*
%TD.AperFunction*%
%TO.P,10K1,1*%
%TO.N,Net-(10K1-Pad1)*%
%TA.AperFunction,SMDPad,CuDef*%
G36*
G01*
X147945001Y-144900000D02*
X146694999Y-144900000D01*
G75*
G02*
X146445000Y-144650001I0J249999D01*
G01*
X146445000Y-144024999D01*
G75*
G02*
X146694999Y-143775000I249999J0D01*
G01*
X147945001Y-143775000D01*
G75*
G02*
X148195000Y-144024999I0J-249999D01*
G01*
X148195000Y-144650001D01*
G75*
G02*
X147945001Y-144900000I-249999J0D01*
G01*
G37*
%TD.AperFunction*%
%TD*%
%TO.P,4.7k1,1*%
%TO.N,Net-(10K1-Pad1)*%
%TA.AperFunction,SMDPad,CuDef*%
G36*
G01*
X137150001Y-144900000D02*
X135899999Y-144900000D01*
G75*
G02*
X135650000Y-144650001I0J249999D01*
G01*
X135650000Y-144024999D01*
G75*
G02*
X135899999Y-143775000I249999J0D01*
G01*
X137150001Y-143775000D01*
G75*
G02*
X137400000Y-144024999I0J-249999D01*
G01*
X137400000Y-144650001D01*
G75*
G02*
X137150001Y-144900000I-249999J0D01*
G01*
G37*
%TD.AperFunction*%
%TO.P,4.7k1,2*%
%TO.N,Net-(4.7k1-Pad2)*%
%TA.AperFunction,SMDPad,CuDef*%
G36*
G01*
X137150001Y-141975000D02*
X135899999Y-141975000D01*
G75*
G02*
X135650000Y-141725001I0J249999D01*
G01*
X135650000Y-141099999D01*
G75*
G02*
X135899999Y-140850000I249999J0D01*
G01*
X137150001Y-140850000D01*
G75*
G02*
X137400000Y-141099999I0J-249999D01*
G01*
X137400000Y-141725001D01*
G75*
G02*
X137150001Y-141975000I-249999J0D01*
G01*
G37*
%TD.AperFunction*%
%TD*%
D10*
%TO.P,A1,1*%
%TO.N,Net-(A1-Pad1)*%
X110490000Y-118110000D03*
D11*
%TO.P,A1,17*%
%TO.N,Net-(10K1-Pad1)*%
X125730000Y-151130000D03*
%TO.P,A1,2*%
%TO.N,Net-(A1-Pad2)*%
X110490000Y-120650000D03*
%TO.P,A1,18*%
%TO.N,Net-(A1-Pad18)*%
X125730000Y-148590000D03*
%TO.P,A1,3*%
%TO.N,Net-(A1-Pad3)*%
X110490000Y-123190000D03*
%TO.P,A1,19*%
%TO.N,Net-(A1-Pad19)*%
X125730000Y-146050000D03*
%TO.P,A1,4*%
%TO.N,GND*%
X110490000Y-125730000D03*
%TO.P,A1,20*%
%TO.N,Net-(A1-Pad20)*%
X125730000Y-143510000D03*
%TO.P,A1,5*%
%TO.N,Net-(A1-Pad5)*%
X110490000Y-128270000D03*
%TO.P,A1,21*%
%TO.N,Net-(A1-Pad21)*%
X125730000Y-140970000D03*
%TO.P,A1,6*%
%TO.N,Net-(A1-Pad6)*%
X110490000Y-130810000D03*
%TO.P,A1,22*%
%TO.N,Net-(A1-Pad22)*%
X125730000Y-138430000D03*
%TO.P,A1,7*%
%TO.N,Net-(A1-Pad7)*%
X110490000Y-133350000D03*
%TO.P,A1,23*%
%TO.N,Net-(10K1-Pad2)*%
X125730000Y-135890000D03*
%TO.P,A1,8*%
%TO.N,Net-(A1-Pad8)*%
X110490000Y-135890000D03*
%TO.P,A1,24*%
%TO.N,Net-(4.7k1-Pad2)*%
X125730000Y-133350000D03*
%TO.P,A1,9*%
%TO.N,Net-(A1-Pad9)*%
X110490000Y-138430000D03*
%TO.P,A1,25*%
%TO.N,Net-(A1-Pad25)*%
X125730000Y-130810000D03*
%TO.P,A1,10*%
%TO.N,Net-(A1-Pad10)*%
X110490000Y-140970000D03*
%TO.P,A1,26*%
%TO.N,Net-(A1-Pad26)*%
X125730000Y-128270000D03*
%TO.P,A1,11*%
%TO.N,Net-(A1-Pad11)*%
X110490000Y-143510000D03*
%TO.P,A1,27*%
%TO.N,Net-(A1-Pad27)*%
X125730000Y-125730000D03*
%TO.P,A1,12*%
%TO.N,Net-(A1-Pad12)*%
X110490000Y-146050000D03*
%TO.P,A1,28*%
%TO.N,Net-(A1-Pad28)*%
X125730000Y-123190000D03*
%TO.P,A1,13*%
%TO.N,Net-(A1-Pad13)*%
X110490000Y-148590000D03*
%TO.P,A1,29*%
%TO.N,GND*%
X125730000Y-120650000D03*
%TO.P,A1,14*%
%TO.N,Net-(A1-Pad14)*%
X110490000Y-151130000D03*
%TO.P,A1,30*%
%TO.N,Net-(A1-Pad30)*%
X125730000Y-118110000D03*
%TO.P,A1,15*%
%TO.N,Net-(A1-Pad15)*%
X110490000Y-153670000D03*
%TO.P,A1,16*%
%TO.N,Net-(A1-Pad16)*%
X125730000Y-153670000D03*
%TD*%
%TO.P,C1,1*%
%TO.N,Net-(10K1-Pad1)*%
%TA.AperFunction,SMDPad,CuDef*%
G36*
G01*
X142255001Y-144925000D02*
X140954999Y-144925000D01*
G75*
G02*
X140705000Y-144675001I0J249999D01*
G01*
X140705000Y-144024999D01*
G75*
G02*
X140954999Y-143775000I249999J0D01*
G01*
X142255001Y-143775000D01*
G75*
G02*
X142505000Y-144024999I0J-249999D01*
G01*
X142505000Y-144675001D01*
G75*
G02*
X142255001Y-144925000I-249999J0D01*
G01*
G37*
%TD.AperFunction*%
%TO.P,C1,2*%
%TO.N,GND*%
%TA.AperFunction,SMDPad,CuDef*%
G36*
G01*
X142255001Y-141975000D02*
X140954999Y-141975000D01*
G75*
G02*
X140705000Y-141725001I0J249999D01*
G01*
X140705000Y-141074999D01*
G75*
G02*
X140954999Y-140825000I249999J0D01*
G01*
X142255001Y-140825000D01*
G75*
G02*
X142505000Y-141074999I0J-249999D01*
G01*
X142505000Y-141725001D01*
G75*
G02*
X142255001Y-141975000I-249999J0D01*
G01*
G37*
%TD.AperFunction*%
%TD*%
%TO.P,R4,1*%
%TO.N,Net-(10K1-Pad1)*%
%TA.AperFunction,SMDPad,CuDef*%
G36*
G01*
X130992501Y-144900000D02*
X129742499Y-144900000D01*
G75*
G02*
X129492500Y-144650001I0J249999D01*
G01*
X129492500Y-144024999D01*
G75*
G02*
X129742499Y-143775000I249999J0D01*
G01*
X130992501Y-143775000D01*
G75*
G02*
X131242500Y-144024999I0J-249999D01*
G01*
X131242500Y-144650001D01*
G75*
G02*
X130992501Y-144900000I-249999J0D01*
G01*
G37*
%TD.AperFunction*%
%TO.P,R4,2*%
%TO.N,Net-(A1-Pad5)*%
%TA.AperFunction,SMDPad,CuDef*%
G36*
G01*
X130992501Y-141975000D02*
X129742499Y-141975000D01*
G75*
G02*
X129492500Y-141725001I0J249999D01*
G01*
X129492500Y-141099999D01*
G75*
G02*
X129742499Y-140850000I249999J0D01*
G01*
X130992501Y-140850000D01*
G75*
G02*
X131242500Y-141099999I0J-249999D01*
G01*
X131242500Y-141725001D01*
G75*
G02*
X130992501Y-141975000I-249999J0D01*
G01*
G37*
%TD.AperFunction*%
%TD*%
%TO.P,U1,1*%
%TO.N,Net-(U1-Pad1)*%
%TA.AperFunction,SMDPad,CuDef*%
G36*
G01*
X137945000Y-136485000D02*
X137645000Y-136485000D01*
G75*
G02*
X137495000Y-136335000I0J150000D01*
G01*
X137495000Y-134585000D01*
G75*
G02*
X137645000Y-134435000I150000J0D01*
G01*
X137945000Y-134435000D01*
G75*
G02*
X138095000Y-134585000I0J-150000D01*
G01*
X138095000Y-136335000D01*
G75*
G02*
X137945000Y-136485000I-150000J0D01*
G01*
G37*
%TD.AperFunction*%
%TO.P,U1,2*%
%TO.N,Net-(10K1-Pad1)*%
%TA.AperFunction,SMDPad,CuDef*%
G36*
G01*
X139215000Y-136485000D02*
X138915000Y-136485000D01*
G75*
G02*
X138765000Y-136335000I0J150000D01*
G01*
X138765000Y-134585000D01*
G75*
G02*
X138915000Y-134435000I150000J0D01*
G01*
X139215000Y-134435000D01*
G75*
G02*
X139365000Y-134585000I0J-150000D01*
G01*
X139365000Y-136335000D01*
G75*
G02*
X139215000Y-136485000I-150000J0D01*
G01*
G37*
%TD.AperFunction*%
%TO.P,U1,3*%
%TO.N,Net-(A1-Pad5)*%
%TA.AperFunction,SMDPad,CuDef*%
G36*
G01*
X140485000Y-136485000D02*
X140185000Y-136485000D01*
G75*
G02*
X140035000Y-136335000I0J150000D01*
G01*
X140035000Y-134585000D01*
G75*
G02*
X140185000Y-134435000I150000J0D01*
G01*
X140485000Y-134435000D01*
G75*
G02*
X140635000Y-134585000I0J-150000D01*
G01*
X140635000Y-136335000D01*
G75*
G02*
X140485000Y-136485000I-150000J0D01*
G01*
G37*
%TD.AperFunction*%
%TO.P,U1,4*%
%TO.N,Net-(U1-Pad4)*%
%TA.AperFunction,SMDPad,CuDef*%
G36*
G01*
X141755000Y-136485000D02*
X141455000Y-136485000D01*
G75*
G02*
X141305000Y-136335000I0J150000D01*
G01*
X141305000Y-134585000D01*
G75*
G02*
X141455000Y-134435000I150000J0D01*
G01*
X141755000Y-134435000D01*
G75*
G02*
X141905000Y-134585000I0J-150000D01*
G01*
X141905000Y-136335000D01*
G75*
G02*
X141755000Y-136485000I-150000J0D01*
G01*
G37*
%TD.AperFunction*%
%TO.P,U1,5*%
%TO.N,GND*%
%TA.AperFunction,SMDPad,CuDef*%
G36*
G01*
X143025000Y-136485000D02*
X142725000Y-136485000D01*
G75*
G02*
X142575000Y-136335000I0J150000D01*
G01*
X142575000Y-134585000D01*
G75*
G02*
X142725000Y-134435000I150000J0D01*
G01*
X143025000Y-134435000D01*
G75*
G02*
X143175000Y-134585000I0J-150000D01*
G01*
X143175000Y-136335000D01*
G75*
G02*
X143025000Y-136485000I-150000J0D01*
G01*
G37*
%TD.AperFunction*%
%TO.P,U1,6*%
%TA.AperFunction,SMDPad,CuDef*%
G36*
G01*
X144295000Y-136485000D02*
X143995000Y-136485000D01*
G75*
G02*
X143845000Y-136335000I0J150000D01*
G01*
X143845000Y-134585000D01*
G75*
G02*
X143995000Y-134435000I150000J0D01*
G01*
X144295000Y-134435000D01*
G75*
G02*
X144445000Y-134585000I0J-150000D01*
G01*
X144445000Y-136335000D01*
G75*
G02*
X144295000Y-136485000I-150000J0D01*
G01*
G37*
%TD.AperFunction*%
%TO.P,U1,7*%
%TA.AperFunction,SMDPad,CuDef*%
G36*
G01*
X145565000Y-136485000D02*
X145265000Y-136485000D01*
G75*
G02*
X145115000Y-136335000I0J150000D01*
G01*
X145115000Y-134585000D01*
G75*
G02*
X145265000Y-134435000I150000J0D01*
G01*
X145565000Y-134435000D01*
G75*
G02*
X145715000Y-134585000I0J-150000D01*
G01*
X145715000Y-136335000D01*
G75*
G02*
X145565000Y-136485000I-150000J0D01*
G01*
G37*
%TD.AperFunction*%
%TO.P,U1,8*%
%TA.AperFunction,SMDPad,CuDef*%
G36*
G01*
X146835000Y-136485000D02*
X146535000Y-136485000D01*
G75*
G02*
X146385000Y-136335000I0J150000D01*
G01*
X146385000Y-134585000D01*
G75*
G02*
X146535000Y-134435000I150000J0D01*
G01*
X146835000Y-134435000D01*
G75*
G02*
X146985000Y-134585000I0J-150000D01*
G01*
X146985000Y-136335000D01*
G75*
G02*
X146835000Y-136485000I-150000J0D01*
G01*
G37*
%TD.AperFunction*%
%TO.P,U1,9*%
%TA.AperFunction,SMDPad,CuDef*%
G36*
G01*
X146835000Y-127185000D02*
X146535000Y-127185000D01*
G75*
G02*
X146385000Y-127035000I0J150000D01*
G01*
X146385000Y-125285000D01*
G75*
G02*
X146535000Y-125135000I150000J0D01*
G01*
X146835000Y-125135000D01*
G75*
G02*
X146985000Y-125285000I0J-150000D01*
G01*
X146985000Y-127035000D01*
G75*
G02*
X146835000Y-127185000I-150000J0D01*
G01*
G37*
%TD.AperFunction*%
%TO.P,U1,10*%
%TA.AperFunction,SMDPad,CuDef*%
G36*
G01*
X145565000Y-127185000D02*
X145265000Y-127185000D01*
G75*
G02*
X145115000Y-127035000I0J150000D01*
G01*
X145115000Y-125285000D01*
G75*
G02*
X145265000Y-125135000I150000J0D01*
G01*
X145565000Y-125135000D01*
G75*
G02*
X145715000Y-125285000I0J-150000D01*
G01*
X145715000Y-127035000D01*
G75*
G02*
X145565000Y-127185000I-150000J0D01*
G01*
G37*
%TD.AperFunction*%
%TO.P,U1,11*%
%TA.AperFunction,SMDPad,CuDef*%
G36*
G01*
X144295000Y-127185000D02*
X143995000Y-127185000D01*
G75*
G02*
X143845000Y-127035000I0J150000D01*
G01*
X143845000Y-125285000D01*
G75*
G02*
X143995000Y-125135000I150000J0D01*
G01*
X144295000Y-125135000D01*
G75*
G02*
X144445000Y-125285000I0J-150000D01*
G01*
X144445000Y-127035000D01*
G75*
G02*
X144295000Y-127185000I-150000J0D01*
G01*
G37*
%TD.AperFunction*%
%TO.P,U1,12*%
%TA.AperFunction,SMDPad,CuDef*%
G36*
G01*
X143025000Y-127185000D02*
X142725000Y-127185000D01*
G75*
G02*
X142575000Y-127035000I0J150000D01*
G01*
X142575000Y-125285000D01*
G75*
G02*
X142725000Y-125135000I150000J0D01*
G01*
X143025000Y-125135000D01*
G75*
G02*
X143175000Y-125285000I0J-150000D01*
G01*
X143175000Y-127035000D01*
G75*
G02*
X143025000Y-127185000I-150000J0D01*
G01*
G37*
%TD.AperFunction*%
%TO.P,U1,13*%
%TA.AperFunction,SMDPad,CuDef*%
G36*
G01*
X141755000Y-127185000D02*
X141455000Y-127185000D01*
G75*
G02*
X141305000Y-127035000I0J150000D01*
G01*
X141305000Y-125285000D01*
G75*
G02*
X141455000Y-125135000I150000J0D01*
G01*
X141755000Y-125135000D01*
G75*
G02*
X141905000Y-125285000I0J-150000D01*
G01*
X141905000Y-127035000D01*
G75*
G02*
X141755000Y-127185000I-150000J0D01*
G01*
G37*
%TD.AperFunction*%
%TO.P,U1,14*%
%TO.N,Net-(U1-Pad14)*%
%TA.AperFunction,SMDPad,CuDef*%
G36*
G01*
X140485000Y-127185000D02*
X140185000Y-127185000D01*
G75*
G02*
X140035000Y-127035000I0J150000D01*
G01*
X140035000Y-125285000D01*
G75*
G02*
X140185000Y-125135000I150000J0D01*
G01*
X140485000Y-125135000D01*
G75*
G02*
X140635000Y-125285000I0J-150000D01*
G01*
X140635000Y-127035000D01*
G75*
G02*
X140485000Y-127185000I-150000J0D01*
G01*
G37*
%TD.AperFunction*%
%TO.P,U1,15*%
%TO.N,Net-(10K1-Pad2)*%
%TA.AperFunction,SMDPad,CuDef*%
G36*
G01*
X139215000Y-127185000D02*
X138915000Y-127185000D01*
G75*
G02*
X138765000Y-127035000I0J150000D01*
G01*
X138765000Y-125285000D01*
G75*
G02*
X138915000Y-125135000I150000J0D01*
G01*
X139215000Y-125135000D01*
G75*
G02*
X139365000Y-125285000I0J-150000D01*
G01*
X139365000Y-127035000D01*
G75*
G02*
X139215000Y-127185000I-150000J0D01*
G01*
G37*
%TD.AperFunction*%
%TO.P,U1,16*%
%TO.N,Net-(4.7k1-Pad2)*%
%TA.AperFunction,SMDPad,CuDef*%
G36*
G01*
X137945000Y-127185000D02*
X137645000Y-127185000D01*
G75*
G02*
X137495000Y-127035000I0J150000D01*
G01*
X137495000Y-125285000D01*
G75*
G02*
X137645000Y-125135000I150000J0D01*
G01*
X137945000Y-125135000D01*
G75*
G02*
X138095000Y-125285000I0J-150000D01*
G01*
X138095000Y-127035000D01*
G75*
G02*
X137945000Y-127185000I-150000J0D01*
G01*
G37*
%TD.AperFunction*%
%TD*%
D12*
%TO.P,U2,1*%
%TO.N,Net-(10K1-Pad1)*%
X130810000Y-156210000D03*
%TO.P,U2,2*%
%TO.N,Net-(A1-Pad13)*%
X133350000Y-156210000D03*
%TO.P,U2,3*%
%TO.N,Net-(A1-Pad14)*%
X135890000Y-156210000D03*
%TO.P,U2,4*%
%TO.N,Net-(A1-Pad16)*%
X138430000Y-156210000D03*
%TO.P,U2,5*%
%TO.N,Net-(A1-Pad15)*%
X140970000Y-156210000D03*
%TO.P,U2,6*%
%TO.N,GND*%
X143510000Y-156210000D03*
%TD*%
%TO.P,U3,1*%
%TO.N,Net-(A1-Pad21)*%
X120142000Y-104394000D03*
%TO.P,U3,2*%
%TO.N,Net-(A1-Pad30)*%
X123190000Y-104394000D03*
%TO.P,U3,3*%
%TO.N,GND*%
X126238000Y-104394000D03*
%TD*%
%TO.P,U4,1*%
%TO.N,Net-(A1-Pad22)*%
X132080000Y-120650000D03*
%TO.P,U4,2*%
%TO.N,Net-(10K1-Pad1)*%
X134620000Y-120650000D03*
%TO.P,U4,3*%
%TO.N,GND*%
X137160000Y-120650000D03*
%TD*%
%TO.P,U5,1*%
%TO.N,Net-(A1-Pad20)*%
X120142000Y-74676000D03*
%TO.P,U5,2*%
%TO.N,Net-(A1-Pad30)*%
X123190000Y-74676000D03*
%TO.P,U5,3*%
%TO.N,GND*%
X126238000Y-74676000D03*
%TD*%
%TO.P,U6,1*%
%TO.N,Net-(A1-Pad8)*%
X124460000Y-163830000D03*
%TO.P,U6,2*%
%TO.N,Net-(A1-Pad7)*%
X127000000Y-163830000D03*
%TO.P,U6,3*%
%TO.N,Net-(A1-Pad19)*%
X129540000Y-163830000D03*
%TO.P,U6,4*%
%TO.N,GND*%
X132080000Y-163830000D03*
%TD*%
D13*
%TO.P,U7,1*%
%TO.N,Net-(U1-Pad14)*%
X147320000Y-95250000D03*
%TO.P,U7,2*%
X147320000Y-113030000D03*
D14*
%TO.P,U7,3*%
%TO.N,GND*%
X147320000Y-103886000D03*
%TD*%
D15*
%TO.N,GND*%
X141605000Y-141400000D03*
%TO.N,Net-(A1-Pad5)*%
X130367500Y-141412500D03*
X140335000Y-135460000D03*
%TO.N,Net-(10K1-Pad2)*%
X139065000Y-126160000D03*
X147320000Y-141412500D03*
%TO.N,Net-(4.7k1-Pad2)*%
X137795000Y-126160000D03*
%TO.N,Net-(U1-Pad14)*%
X140335000Y-126160000D03*
X147320000Y-95250000D03*
X147320000Y-113030000D03*
%TD*%
D16*
%TO.N,Net-(10K1-Pad1)*%
X125730000Y-151130000D02*
X130810000Y-156210000D01*
X129982500Y-144337500D02*
X130367500Y-144337500D01*
X130367500Y-146492500D02*
X130367500Y-144337500D01*
X125730000Y-151130000D02*
X130367500Y-146492500D01*
X130367500Y-144337500D02*
X136525000Y-144337500D01*
X141592500Y-144337500D02*
X141605000Y-144350000D01*
X136525000Y-144337500D02*
X141592500Y-144337500D01*
X147307500Y-144350000D02*
X147320000Y-144337500D01*
X141605000Y-144350000D02*
X147307500Y-144350000D01*
X141605000Y-144350000D02*
X139700000Y-142445000D01*
X139700000Y-136095000D02*
X139065000Y-135460000D01*
X139700000Y-142445000D02*
X139700000Y-136095000D01*
X134620000Y-130588232D02*
X139065000Y-135033232D01*
X139065000Y-135033232D02*
X139065000Y-135460000D01*
X134620000Y-120650000D02*
X134620000Y-130588232D01*
%TO.N,GND*%
X126238000Y-104394000D02*
X126238000Y-74676000D01*
X126855001Y-105011001D02*
X126238000Y-104394000D01*
X126855001Y-119524999D02*
X126855001Y-105011001D01*
X125730000Y-120650000D02*
X126855001Y-119524999D01*
X126855001Y-119524999D02*
X136034999Y-119524999D01*
X132080000Y-163830000D02*
X137160000Y-163830000D01*
X143510000Y-157480000D02*
X143510000Y-156210000D01*
X137160000Y-163830000D02*
X143510000Y-157480000D01*
X142875000Y-140130000D02*
X142875000Y-135460000D01*
X141605000Y-141400000D02*
X142875000Y-140130000D01*
X142875000Y-135460000D02*
X144145000Y-135460000D01*
X144145000Y-135460000D02*
X145415000Y-135460000D01*
X145415000Y-135460000D02*
X146685000Y-135460000D01*
X142875000Y-135460000D02*
X142875000Y-126160000D01*
X142875000Y-126160000D02*
X141605000Y-126160000D01*
X142875000Y-126160000D02*
X144145000Y-126160000D01*
X144145000Y-126160000D02*
X145415000Y-126160000D01*
X145415000Y-126160000D02*
X146685000Y-126160000D01*
X137160000Y-120690000D02*
X137160000Y-120650000D01*
X141605000Y-125135000D02*
X137160000Y-120690000D01*
X141605000Y-126160000D02*
X141605000Y-125135000D01*
X137160000Y-120650000D02*
X136034999Y-119524999D01*
X136034999Y-115171001D02*
X147320000Y-103886000D01*
X136034999Y-119524999D02*
X136034999Y-115171001D01*
%TO.N,Net-(A1-Pad20)*%
X117659991Y-135439991D02*
X125730000Y-143510000D01*
X117659991Y-77158009D02*
X117659991Y-135439991D01*
X120142000Y-74676000D02*
X117659991Y-77158009D01*
%TO.N,Net-(A1-Pad21)*%
X120142000Y-104394000D02*
X120142000Y-113538000D01*
X120142000Y-113538000D02*
X118110000Y-115570000D01*
X118110000Y-133350000D02*
X125730000Y-140970000D01*
X118110000Y-115570000D02*
X118110000Y-133350000D01*
%TO.N,Net-(4.7k1-Pad2)*%
X133792500Y-141412500D02*
X125730000Y-133350000D01*
X136525000Y-141412500D02*
X133792500Y-141412500D01*
%TO.N,Net-(A1-Pad13)*%
X132080000Y-157480000D02*
X133350000Y-156210000D01*
X132080000Y-158750000D02*
X132080000Y-157480000D01*
X118110000Y-158750000D02*
X132080000Y-158750000D01*
X118110000Y-148590000D02*
X118110000Y-158750000D01*
X110490000Y-148590000D02*
X118110000Y-148590000D01*
%TO.N,Net-(A1-Pad14)*%
X110490000Y-151130000D02*
X116840000Y-151130000D01*
X116840000Y-151130000D02*
X116840000Y-160020000D01*
X116840000Y-160020000D02*
X134620000Y-160020000D01*
X134620000Y-157480000D02*
X135890000Y-156210000D01*
X134620000Y-160020000D02*
X134620000Y-157480000D01*
%TO.N,Net-(A1-Pad30)*%
X123190000Y-115570000D02*
X125730000Y-118110000D01*
X123190000Y-104394000D02*
X123190000Y-115570000D01*
X123190000Y-104394000D02*
X123190000Y-74676000D01*
%TO.N,Net-(A1-Pad15)*%
X110490000Y-153670000D02*
X115570000Y-153670000D01*
X115570000Y-153670000D02*
X115570000Y-161290000D01*
X115570000Y-161290000D02*
X138430000Y-161290000D01*
X138430000Y-158750000D02*
X140970000Y-156210000D01*
X138430000Y-161290000D02*
X138430000Y-158750000D01*
%TD*%
M02*
