%TF.GenerationSoftware,KiCad,Pcbnew,(5.1.10)-1*%
%TF.CreationDate,2021-10-20T12:04:40-04:00*%
%TF.ProjectId,mainboard,6d61696e-626f-4617-9264-2e6b69636164,rev?*%
%TF.SameCoordinates,Original*%
%TF.FileFunction,Paste,Bot*%
%TF.FilePolarity,Positive*%
%FSLAX46Y46*%
G04 Gerber Fmt 4.6, Leading zero omitted, Abs format (unit mm)*
G04 Created by KiCad (PCBNEW (5.1.10)-1) date 2021-10-20 12:04:40*
%MOMM*%
%LPD*%
G01*
G04 APERTURE LIST*
%ADD10R,1.524000X1.524000*%
%ADD11C,5.000000*%
G04 APERTURE END LIST*
D10*
%TO.C,U2*%
X121920000Y-72390000D03*
X121920000Y-54610000D03*
D11*
X121920000Y-63754000D03*
%TD*%
%TO.C,10K1*%
G36*
G01*
X125085003Y-87877000D02*
X123834997Y-87877000D01*
G75*
G02*
X123585000Y-87627003I0J249997D01*
G01*
X123585000Y-87001997D01*
G75*
G02*
X123834997Y-86752000I249997J0D01*
G01*
X125085003Y-86752000D01*
G75*
G02*
X125335000Y-87001997I0J-249997D01*
G01*
X125335000Y-87627003D01*
G75*
G02*
X125085003Y-87877000I-249997J0D01*
G01*
G37*
G36*
G01*
X125085003Y-84952000D02*
X123834997Y-84952000D01*
G75*
G02*
X123585000Y-84702003I0J249997D01*
G01*
X123585000Y-84076997D01*
G75*
G02*
X123834997Y-83827000I249997J0D01*
G01*
X125085003Y-83827000D01*
G75*
G02*
X125335000Y-84076997I0J-249997D01*
G01*
X125335000Y-84702003D01*
G75*
G02*
X125085003Y-84952000I-249997J0D01*
G01*
G37*
%TD*%
%TO.C,4.7k1*%
G36*
G01*
X116195003Y-87877000D02*
X114944997Y-87877000D01*
G75*
G02*
X114695000Y-87627003I0J249997D01*
G01*
X114695000Y-87001997D01*
G75*
G02*
X114944997Y-86752000I249997J0D01*
G01*
X116195003Y-86752000D01*
G75*
G02*
X116445000Y-87001997I0J-249997D01*
G01*
X116445000Y-87627003D01*
G75*
G02*
X116195003Y-87877000I-249997J0D01*
G01*
G37*
G36*
G01*
X116195003Y-84952000D02*
X114944997Y-84952000D01*
G75*
G02*
X114695000Y-84702003I0J249997D01*
G01*
X114695000Y-84076997D01*
G75*
G02*
X114944997Y-83827000I249997J0D01*
G01*
X116195003Y-83827000D01*
G75*
G02*
X116445000Y-84076997I0J-249997D01*
G01*
X116445000Y-84702003D01*
G75*
G02*
X116195003Y-84952000I-249997J0D01*
G01*
G37*
%TD*%
%TO.C,C1*%
G36*
G01*
X120792001Y-87902000D02*
X119491999Y-87902000D01*
G75*
G02*
X119242000Y-87652001I0J249999D01*
G01*
X119242000Y-87001999D01*
G75*
G02*
X119491999Y-86752000I249999J0D01*
G01*
X120792001Y-86752000D01*
G75*
G02*
X121042000Y-87001999I0J-249999D01*
G01*
X121042000Y-87652001D01*
G75*
G02*
X120792001Y-87902000I-249999J0D01*
G01*
G37*
G36*
G01*
X120792001Y-84952000D02*
X119491999Y-84952000D01*
G75*
G02*
X119242000Y-84702001I0J249999D01*
G01*
X119242000Y-84051999D01*
G75*
G02*
X119491999Y-83802000I249999J0D01*
G01*
X120792001Y-83802000D01*
G75*
G02*
X121042000Y-84051999I0J-249999D01*
G01*
X121042000Y-84702001D01*
G75*
G02*
X120792001Y-84952000I-249999J0D01*
G01*
G37*
%TD*%
%TO.C,R4*%
G36*
G01*
X112131003Y-84952000D02*
X110880997Y-84952000D01*
G75*
G02*
X110631000Y-84702003I0J249997D01*
G01*
X110631000Y-84076997D01*
G75*
G02*
X110880997Y-83827000I249997J0D01*
G01*
X112131003Y-83827000D01*
G75*
G02*
X112381000Y-84076997I0J-249997D01*
G01*
X112381000Y-84702003D01*
G75*
G02*
X112131003Y-84952000I-249997J0D01*
G01*
G37*
G36*
G01*
X112131003Y-87877000D02*
X110880997Y-87877000D01*
G75*
G02*
X110631000Y-87627003I0J249997D01*
G01*
X110631000Y-87001997D01*
G75*
G02*
X110880997Y-86752000I249997J0D01*
G01*
X112131003Y-86752000D01*
G75*
G02*
X112381000Y-87001997I0J-249997D01*
G01*
X112381000Y-87627003D01*
G75*
G02*
X112131003Y-87877000I-249997J0D01*
G01*
G37*
%TD*%
M02*
