%TF.GenerationSoftware,KiCad,Pcbnew,(5.1.12)-1*%
%TF.CreationDate,2023-05-17T18:58:12-04:00*%
%TF.ProjectId,Final_Design,46696e61-6c5f-4446-9573-69676e2e6b69,rev?*%
%TF.SameCoordinates,Original*%
%TF.FileFunction,Soldermask,Top*%
%TF.FilePolarity,Negative*%
%FSLAX46Y46*%
G04 Gerber Fmt 4.6, Leading zero omitted, Abs format (unit mm)*
G04 Created by KiCad (PCBNEW (5.1.12)-1) date 2023-05-17 18:58:12*
%MOMM*%
%LPD*%
G01*
G04 APERTURE LIST*
%ADD10C,2.000000*%
%ADD11R,2.000000X2.000000*%
%ADD12C,1.800000*%
%ADD13R,1.800000X1.800000*%
%ADD14C,1.324000*%
%ADD15O,1.424000X2.524000*%
%ADD16O,1.600000X1.600000*%
%ADD17R,1.600000X1.600000*%
%ADD18C,1.524000*%
G04 APERTURE END LIST*
D10*
%TO.C,U1*%
X109510000Y-30530000D03*
D11*
X104700000Y-30530000D03*
%TD*%
D12*
%TO.C,LED*%
X119760000Y-51300000D03*
D13*
X122300000Y-51300000D03*
%TD*%
D14*
%TO.C,U3*%
X124732000Y-30120000D03*
X122700000Y-30120000D03*
X120668000Y-30120000D03*
D15*
X126891000Y-30120000D03*
X118509000Y-30120000D03*
%TD*%
D16*
%TO.C,A1*%
X99360000Y-37040000D03*
X114600000Y-37040000D03*
X99360000Y-72600000D03*
X114600000Y-39580000D03*
X99360000Y-70060000D03*
X114600000Y-42120000D03*
X99360000Y-67520000D03*
X114600000Y-44660000D03*
X99360000Y-64980000D03*
X114600000Y-47200000D03*
X99360000Y-62440000D03*
X114600000Y-49740000D03*
X99360000Y-59900000D03*
X114600000Y-52280000D03*
X99360000Y-57360000D03*
X114600000Y-54820000D03*
X99360000Y-54820000D03*
X114600000Y-57360000D03*
X99360000Y-52280000D03*
X114600000Y-59900000D03*
X99360000Y-49740000D03*
X114600000Y-62440000D03*
X99360000Y-47200000D03*
X114600000Y-64980000D03*
X99360000Y-44660000D03*
X114600000Y-67520000D03*
X99360000Y-42120000D03*
X114600000Y-70060000D03*
X99360000Y-39580000D03*
D17*
X114600000Y-72600000D03*
%TD*%
D12*
%TO.C,U2*%
X119930000Y-92230000D03*
X117390000Y-92230000D03*
X114850000Y-92230000D03*
X112310000Y-92230000D03*
X109770000Y-92230000D03*
X107230000Y-92230000D03*
%TD*%
D18*
%TO.C,U4*%
X106900000Y-78610000D03*
X104360000Y-78610000D03*
X101820000Y-78610000D03*
%TD*%
%TO.C,U5*%
X125200000Y-78610000D03*
X122660000Y-78610000D03*
X120120000Y-78610000D03*
%TD*%
%TO.C,U7*%
X116000000Y-78610000D03*
X113460000Y-78610000D03*
X110920000Y-78610000D03*
%TD*%
%TO.C,U8*%
X115400000Y-121410000D03*
X112860000Y-121410000D03*
X110320000Y-121410000D03*
%TD*%
M02*
