%TF.GenerationSoftware,KiCad,Pcbnew,(5.1.10)-1*%
%TF.CreationDate,2021-09-08T13:17:32-04:00*%
%TF.ProjectId,water_sensor_turbidty,77617465-725f-4736-956e-736f725f7475,rev?*%
%TF.SameCoordinates,Original*%
%TF.FileFunction,Legend,Bot*%
%TF.FilePolarity,Positive*%
%FSLAX46Y46*%
G04 Gerber Fmt 4.6, Leading zero omitted, Abs format (unit mm)*
G04 Created by KiCad (PCBNEW (5.1.10)-1) date 2021-09-08 13:17:32*
%MOMM*%
%LPD*%
G01*
G04 APERTURE LIST*
%ADD10C,0.150000*%
G04 APERTURE END LIST*
D10*
X156862190Y-42266619D02*
X156862190Y-41457095D01*
X156909809Y-41361857D01*
X156957428Y-41314238D01*
X157052666Y-41266619D01*
X157243142Y-41266619D01*
X157338380Y-41314238D01*
X157386000Y-41361857D01*
X157433619Y-41457095D01*
X157433619Y-42266619D01*
X157909809Y-41933285D02*
X157909809Y-41266619D01*
X157909809Y-41838047D02*
X157957428Y-41885666D01*
X158052666Y-41933285D01*
X158195523Y-41933285D01*
X158290761Y-41885666D01*
X158338380Y-41790428D01*
X158338380Y-41266619D01*
X158814571Y-41266619D02*
X158814571Y-41933285D01*
X158814571Y-42266619D02*
X158766952Y-42219000D01*
X158814571Y-42171380D01*
X158862190Y-42219000D01*
X158814571Y-42266619D01*
X158814571Y-42171380D01*
X159195523Y-41933285D02*
X159433619Y-41266619D01*
X159671714Y-41933285D01*
X160433619Y-41314238D02*
X160338380Y-41266619D01*
X160147904Y-41266619D01*
X160052666Y-41314238D01*
X160005047Y-41409476D01*
X160005047Y-41790428D01*
X160052666Y-41885666D01*
X160147904Y-41933285D01*
X160338380Y-41933285D01*
X160433619Y-41885666D01*
X160481238Y-41790428D01*
X160481238Y-41695190D01*
X160005047Y-41599952D01*
X160909809Y-41266619D02*
X160909809Y-41933285D01*
X160909809Y-41742809D02*
X160957428Y-41838047D01*
X161005047Y-41885666D01*
X161100285Y-41933285D01*
X161195523Y-41933285D01*
X161481238Y-41314238D02*
X161576476Y-41266619D01*
X161766952Y-41266619D01*
X161862190Y-41314238D01*
X161909809Y-41409476D01*
X161909809Y-41457095D01*
X161862190Y-41552333D01*
X161766952Y-41599952D01*
X161624095Y-41599952D01*
X161528857Y-41647571D01*
X161481238Y-41742809D01*
X161481238Y-41790428D01*
X161528857Y-41885666D01*
X161624095Y-41933285D01*
X161766952Y-41933285D01*
X161862190Y-41885666D01*
X162338380Y-41266619D02*
X162338380Y-41933285D01*
X162338380Y-42266619D02*
X162290761Y-42219000D01*
X162338380Y-42171380D01*
X162386000Y-42219000D01*
X162338380Y-42266619D01*
X162338380Y-42171380D01*
X162671714Y-41933285D02*
X163052666Y-41933285D01*
X162814571Y-42266619D02*
X162814571Y-41409476D01*
X162862190Y-41314238D01*
X162957428Y-41266619D01*
X163052666Y-41266619D01*
X163290761Y-41933285D02*
X163528857Y-41266619D01*
X163766952Y-41933285D02*
X163528857Y-41266619D01*
X163433619Y-41028523D01*
X163386000Y-40980904D01*
X163290761Y-40933285D01*
X165052666Y-41266619D02*
X164957428Y-41314238D01*
X164909809Y-41361857D01*
X164862190Y-41457095D01*
X164862190Y-41742809D01*
X164909809Y-41838047D01*
X164957428Y-41885666D01*
X165052666Y-41933285D01*
X165195523Y-41933285D01*
X165290761Y-41885666D01*
X165338380Y-41838047D01*
X165386000Y-41742809D01*
X165386000Y-41457095D01*
X165338380Y-41361857D01*
X165290761Y-41314238D01*
X165195523Y-41266619D01*
X165052666Y-41266619D01*
X165671714Y-41933285D02*
X166052666Y-41933285D01*
X165814571Y-41266619D02*
X165814571Y-42123761D01*
X165862190Y-42219000D01*
X165957428Y-42266619D01*
X166052666Y-42266619D01*
X167100285Y-41314238D02*
X167243142Y-41266619D01*
X167481238Y-41266619D01*
X167576476Y-41314238D01*
X167624095Y-41361857D01*
X167671714Y-41457095D01*
X167671714Y-41552333D01*
X167624095Y-41647571D01*
X167576476Y-41695190D01*
X167481238Y-41742809D01*
X167290761Y-41790428D01*
X167195523Y-41838047D01*
X167147904Y-41885666D01*
X167100285Y-41980904D01*
X167100285Y-42076142D01*
X167147904Y-42171380D01*
X167195523Y-42219000D01*
X167290761Y-42266619D01*
X167528857Y-42266619D01*
X167671714Y-42219000D01*
X168243142Y-41266619D02*
X168147904Y-41314238D01*
X168100285Y-41361857D01*
X168052666Y-41457095D01*
X168052666Y-41742809D01*
X168100285Y-41838047D01*
X168147904Y-41885666D01*
X168243142Y-41933285D01*
X168386000Y-41933285D01*
X168481238Y-41885666D01*
X168528857Y-41838047D01*
X168576476Y-41742809D01*
X168576476Y-41457095D01*
X168528857Y-41361857D01*
X168481238Y-41314238D01*
X168386000Y-41266619D01*
X168243142Y-41266619D01*
X169433619Y-41933285D02*
X169433619Y-41266619D01*
X169005047Y-41933285D02*
X169005047Y-41409476D01*
X169052666Y-41314238D01*
X169147904Y-41266619D01*
X169290761Y-41266619D01*
X169386000Y-41314238D01*
X169433619Y-41361857D01*
X169766952Y-41933285D02*
X170147904Y-41933285D01*
X169909809Y-42266619D02*
X169909809Y-41409476D01*
X169957428Y-41314238D01*
X170052666Y-41266619D01*
X170147904Y-41266619D01*
X170481238Y-41266619D02*
X170481238Y-42266619D01*
X170909809Y-41266619D02*
X170909809Y-41790428D01*
X170862190Y-41885666D01*
X170766952Y-41933285D01*
X170624095Y-41933285D01*
X170528857Y-41885666D01*
X170481238Y-41838047D01*
X172719333Y-41361857D02*
X172671714Y-41314238D01*
X172528857Y-41266619D01*
X172433619Y-41266619D01*
X172290761Y-41314238D01*
X172195523Y-41409476D01*
X172147904Y-41504714D01*
X172100285Y-41695190D01*
X172100285Y-41838047D01*
X172147904Y-42028523D01*
X172195523Y-42123761D01*
X172290761Y-42219000D01*
X172433619Y-42266619D01*
X172528857Y-42266619D01*
X172671714Y-42219000D01*
X172719333Y-42171380D01*
X173576476Y-41266619D02*
X173576476Y-41790428D01*
X173528857Y-41885666D01*
X173433619Y-41933285D01*
X173243142Y-41933285D01*
X173147904Y-41885666D01*
X173576476Y-41314238D02*
X173481238Y-41266619D01*
X173243142Y-41266619D01*
X173147904Y-41314238D01*
X173100285Y-41409476D01*
X173100285Y-41504714D01*
X173147904Y-41599952D01*
X173243142Y-41647571D01*
X173481238Y-41647571D01*
X173576476Y-41695190D01*
X174052666Y-41266619D02*
X174052666Y-41933285D01*
X174052666Y-41742809D02*
X174100285Y-41838047D01*
X174147904Y-41885666D01*
X174243142Y-41933285D01*
X174338380Y-41933285D01*
X174814571Y-41266619D02*
X174719333Y-41314238D01*
X174671714Y-41361857D01*
X174624095Y-41457095D01*
X174624095Y-41742809D01*
X174671714Y-41838047D01*
X174719333Y-41885666D01*
X174814571Y-41933285D01*
X174957428Y-41933285D01*
X175052666Y-41885666D01*
X175100285Y-41838047D01*
X175147904Y-41742809D01*
X175147904Y-41457095D01*
X175100285Y-41361857D01*
X175052666Y-41314238D01*
X174957428Y-41266619D01*
X174814571Y-41266619D01*
X175719333Y-41266619D02*
X175624095Y-41314238D01*
X175576476Y-41409476D01*
X175576476Y-42266619D01*
X176100285Y-41266619D02*
X176100285Y-41933285D01*
X176100285Y-42266619D02*
X176052666Y-42219000D01*
X176100285Y-42171380D01*
X176147904Y-42219000D01*
X176100285Y-42266619D01*
X176100285Y-42171380D01*
X176576476Y-41933285D02*
X176576476Y-41266619D01*
X176576476Y-41838047D02*
X176624095Y-41885666D01*
X176719333Y-41933285D01*
X176862190Y-41933285D01*
X176957428Y-41885666D01*
X177005047Y-41790428D01*
X177005047Y-41266619D01*
X177909809Y-41266619D02*
X177909809Y-41790428D01*
X177862190Y-41885666D01*
X177766952Y-41933285D01*
X177576476Y-41933285D01*
X177481238Y-41885666D01*
X177909809Y-41314238D02*
X177814571Y-41266619D01*
X177576476Y-41266619D01*
X177481238Y-41314238D01*
X177433619Y-41409476D01*
X177433619Y-41504714D01*
X177481238Y-41599952D01*
X177576476Y-41647571D01*
X177814571Y-41647571D01*
X177909809Y-41695190D01*
X161171714Y-40569000D02*
X161076476Y-40616619D01*
X160933619Y-40616619D01*
X160790761Y-40569000D01*
X160695523Y-40473761D01*
X160647904Y-40378523D01*
X160600285Y-40188047D01*
X160600285Y-40045190D01*
X160647904Y-39854714D01*
X160695523Y-39759476D01*
X160790761Y-39664238D01*
X160933619Y-39616619D01*
X161028857Y-39616619D01*
X161171714Y-39664238D01*
X161219333Y-39711857D01*
X161219333Y-40045190D01*
X161028857Y-40045190D01*
X161647904Y-39616619D02*
X161647904Y-40283285D01*
X161647904Y-40616619D02*
X161600285Y-40569000D01*
X161647904Y-40521380D01*
X161695523Y-40569000D01*
X161647904Y-40616619D01*
X161647904Y-40521380D01*
X162124095Y-39616619D02*
X162124095Y-40616619D01*
X162124095Y-40235666D02*
X162219333Y-40283285D01*
X162409809Y-40283285D01*
X162505047Y-40235666D01*
X162552666Y-40188047D01*
X162600285Y-40092809D01*
X162600285Y-39807095D01*
X162552666Y-39711857D01*
X162505047Y-39664238D01*
X162409809Y-39616619D01*
X162219333Y-39616619D01*
X162124095Y-39664238D01*
X162981238Y-39664238D02*
X163076476Y-39616619D01*
X163266952Y-39616619D01*
X163362190Y-39664238D01*
X163409809Y-39759476D01*
X163409809Y-39807095D01*
X163362190Y-39902333D01*
X163266952Y-39949952D01*
X163124095Y-39949952D01*
X163028857Y-39997571D01*
X162981238Y-40092809D01*
X162981238Y-40140428D01*
X163028857Y-40235666D01*
X163124095Y-40283285D01*
X163266952Y-40283285D01*
X163362190Y-40235666D01*
X163981238Y-39616619D02*
X163886000Y-39664238D01*
X163838380Y-39711857D01*
X163790761Y-39807095D01*
X163790761Y-40092809D01*
X163838380Y-40188047D01*
X163886000Y-40235666D01*
X163981238Y-40283285D01*
X164124095Y-40283285D01*
X164219333Y-40235666D01*
X164266952Y-40188047D01*
X164314571Y-40092809D01*
X164314571Y-39807095D01*
X164266952Y-39711857D01*
X164219333Y-39664238D01*
X164124095Y-39616619D01*
X163981238Y-39616619D01*
X164743142Y-40283285D02*
X164743142Y-39616619D01*
X164743142Y-40188047D02*
X164790761Y-40235666D01*
X164886000Y-40283285D01*
X165028857Y-40283285D01*
X165124095Y-40235666D01*
X165171714Y-40140428D01*
X165171714Y-39616619D01*
X165695523Y-39664238D02*
X165695523Y-39616619D01*
X165647904Y-39521380D01*
X165600285Y-39473761D01*
X166886000Y-39616619D02*
X166886000Y-40616619D01*
X167124095Y-40616619D01*
X167266952Y-40569000D01*
X167362190Y-40473761D01*
X167409809Y-40378523D01*
X167457428Y-40188047D01*
X167457428Y-40045190D01*
X167409809Y-39854714D01*
X167362190Y-39759476D01*
X167266952Y-39664238D01*
X167124095Y-39616619D01*
X166886000Y-39616619D01*
X168314571Y-39616619D02*
X168314571Y-40140428D01*
X168266952Y-40235666D01*
X168171714Y-40283285D01*
X167981238Y-40283285D01*
X167886000Y-40235666D01*
X168314571Y-39664238D02*
X168219333Y-39616619D01*
X167981238Y-39616619D01*
X167886000Y-39664238D01*
X167838380Y-39759476D01*
X167838380Y-39854714D01*
X167886000Y-39949952D01*
X167981238Y-39997571D01*
X168219333Y-39997571D01*
X168314571Y-40045190D01*
X168790761Y-40283285D02*
X168790761Y-39616619D01*
X168790761Y-40188047D02*
X168838380Y-40235666D01*
X168933619Y-40283285D01*
X169076476Y-40283285D01*
X169171714Y-40235666D01*
X169219333Y-40140428D01*
X169219333Y-39616619D01*
X169695523Y-39616619D02*
X169695523Y-40283285D01*
X169695523Y-40616619D02*
X169647904Y-40569000D01*
X169695523Y-40521380D01*
X169743142Y-40569000D01*
X169695523Y-40616619D01*
X169695523Y-40521380D01*
X170552666Y-39664238D02*
X170457428Y-39616619D01*
X170266952Y-39616619D01*
X170171714Y-39664238D01*
X170124095Y-39759476D01*
X170124095Y-40140428D01*
X170171714Y-40235666D01*
X170266952Y-40283285D01*
X170457428Y-40283285D01*
X170552666Y-40235666D01*
X170600285Y-40140428D01*
X170600285Y-40045190D01*
X170124095Y-39949952D01*
X171171714Y-39616619D02*
X171076476Y-39664238D01*
X171028857Y-39759476D01*
X171028857Y-40616619D01*
X172171714Y-40616619D02*
X172505047Y-39616619D01*
X172838380Y-40616619D01*
X173171714Y-39711857D02*
X173219333Y-39664238D01*
X173171714Y-39616619D01*
X173124095Y-39664238D01*
X173171714Y-39711857D01*
X173171714Y-39616619D01*
X174171714Y-39616619D02*
X173600285Y-39616619D01*
X173886000Y-39616619D02*
X173886000Y-40616619D01*
X173790761Y-40473761D01*
X173695523Y-40378523D01*
X173600285Y-40330904D01*
M02*
