%TF.GenerationSoftware,KiCad,Pcbnew,8.0.8*%
%TF.CreationDate,2025-06-10T17:11:55-04:00*%
%TF.ProjectId,V0.5.0,56302e35-2e30-42e6-9b69-6361645f7063,rev?*%
%TF.SameCoordinates,Original*%
%TF.FileFunction,Legend,Bot*%
%TF.FilePolarity,Positive*%
%FSLAX46Y46*%
G04 Gerber Fmt 4.6, Leading zero omitted, Abs format (unit mm)*
G04 Created by KiCad (PCBNEW 8.0.8) date 2025-06-10 17:11:55*
%MOMM*%
%LPD*%
G01*
G04 APERTURE LIST*
%ADD10C,0.200000*%
%ADD11C,0.100000*%
%ADD12C,0.150000*%
%ADD13C,0.120000*%
G04 APERTURE END LIST*
D10*
X128930457Y-61885715D02*
X128987600Y-61828572D01*
X128987600Y-61828572D02*
X129044742Y-61657144D01*
X129044742Y-61657144D02*
X129044742Y-61542858D01*
X129044742Y-61542858D02*
X128987600Y-61371429D01*
X128987600Y-61371429D02*
X128873314Y-61257144D01*
X128873314Y-61257144D02*
X128759028Y-61200001D01*
X128759028Y-61200001D02*
X128530457Y-61142858D01*
X128530457Y-61142858D02*
X128359028Y-61142858D01*
X128359028Y-61142858D02*
X128130457Y-61200001D01*
X128130457Y-61200001D02*
X128016171Y-61257144D01*
X128016171Y-61257144D02*
X127901885Y-61371429D01*
X127901885Y-61371429D02*
X127844742Y-61542858D01*
X127844742Y-61542858D02*
X127844742Y-61657144D01*
X127844742Y-61657144D02*
X127901885Y-61828572D01*
X127901885Y-61828572D02*
X127959028Y-61885715D01*
X129044742Y-62571429D02*
X128987600Y-62457144D01*
X128987600Y-62457144D02*
X128930457Y-62400001D01*
X128930457Y-62400001D02*
X128816171Y-62342858D01*
X128816171Y-62342858D02*
X128473314Y-62342858D01*
X128473314Y-62342858D02*
X128359028Y-62400001D01*
X128359028Y-62400001D02*
X128301885Y-62457144D01*
X128301885Y-62457144D02*
X128244742Y-62571429D01*
X128244742Y-62571429D02*
X128244742Y-62742858D01*
X128244742Y-62742858D02*
X128301885Y-62857144D01*
X128301885Y-62857144D02*
X128359028Y-62914287D01*
X128359028Y-62914287D02*
X128473314Y-62971429D01*
X128473314Y-62971429D02*
X128816171Y-62971429D01*
X128816171Y-62971429D02*
X128930457Y-62914287D01*
X128930457Y-62914287D02*
X128987600Y-62857144D01*
X128987600Y-62857144D02*
X129044742Y-62742858D01*
X129044742Y-62742858D02*
X129044742Y-62571429D01*
X129044742Y-63485715D02*
X128244742Y-63485715D01*
X127844742Y-63485715D02*
X127901885Y-63428572D01*
X127901885Y-63428572D02*
X127959028Y-63485715D01*
X127959028Y-63485715D02*
X127901885Y-63542858D01*
X127901885Y-63542858D02*
X127844742Y-63485715D01*
X127844742Y-63485715D02*
X127959028Y-63485715D01*
X128244742Y-64057144D02*
X129044742Y-64057144D01*
X128359028Y-64057144D02*
X128301885Y-64114287D01*
X128301885Y-64114287D02*
X128244742Y-64228572D01*
X128244742Y-64228572D02*
X128244742Y-64400001D01*
X128244742Y-64400001D02*
X128301885Y-64514287D01*
X128301885Y-64514287D02*
X128416171Y-64571430D01*
X128416171Y-64571430D02*
X129044742Y-64571430D01*
X128987600Y-66571430D02*
X129044742Y-66457144D01*
X129044742Y-66457144D02*
X129044742Y-66228572D01*
X129044742Y-66228572D02*
X128987600Y-66114287D01*
X128987600Y-66114287D02*
X128930457Y-66057144D01*
X128930457Y-66057144D02*
X128816171Y-66000001D01*
X128816171Y-66000001D02*
X128473314Y-66000001D01*
X128473314Y-66000001D02*
X128359028Y-66057144D01*
X128359028Y-66057144D02*
X128301885Y-66114287D01*
X128301885Y-66114287D02*
X128244742Y-66228572D01*
X128244742Y-66228572D02*
X128244742Y-66457144D01*
X128244742Y-66457144D02*
X128301885Y-66571430D01*
X128987600Y-67542858D02*
X129044742Y-67428572D01*
X129044742Y-67428572D02*
X129044742Y-67200001D01*
X129044742Y-67200001D02*
X128987600Y-67085715D01*
X128987600Y-67085715D02*
X128873314Y-67028572D01*
X128873314Y-67028572D02*
X128416171Y-67028572D01*
X128416171Y-67028572D02*
X128301885Y-67085715D01*
X128301885Y-67085715D02*
X128244742Y-67200001D01*
X128244742Y-67200001D02*
X128244742Y-67428572D01*
X128244742Y-67428572D02*
X128301885Y-67542858D01*
X128301885Y-67542858D02*
X128416171Y-67600001D01*
X128416171Y-67600001D02*
X128530457Y-67600001D01*
X128530457Y-67600001D02*
X128644742Y-67028572D01*
X129044742Y-68285714D02*
X128987600Y-68171429D01*
X128987600Y-68171429D02*
X128873314Y-68114286D01*
X128873314Y-68114286D02*
X127844742Y-68114286D01*
X129044742Y-68914285D02*
X128987600Y-68800000D01*
X128987600Y-68800000D02*
X128873314Y-68742857D01*
X128873314Y-68742857D02*
X127844742Y-68742857D01*
X126171427Y-41544742D02*
X126171427Y-40344742D01*
X126171427Y-40344742D02*
X125885713Y-40344742D01*
X125885713Y-40344742D02*
X125714284Y-40401885D01*
X125714284Y-40401885D02*
X125599999Y-40516171D01*
X125599999Y-40516171D02*
X125542856Y-40630457D01*
X125542856Y-40630457D02*
X125485713Y-40859028D01*
X125485713Y-40859028D02*
X125485713Y-41030457D01*
X125485713Y-41030457D02*
X125542856Y-41259028D01*
X125542856Y-41259028D02*
X125599999Y-41373314D01*
X125599999Y-41373314D02*
X125714284Y-41487600D01*
X125714284Y-41487600D02*
X125885713Y-41544742D01*
X125885713Y-41544742D02*
X126171427Y-41544742D01*
X125028570Y-41487600D02*
X124857142Y-41544742D01*
X124857142Y-41544742D02*
X124571427Y-41544742D01*
X124571427Y-41544742D02*
X124457142Y-41487600D01*
X124457142Y-41487600D02*
X124399999Y-41430457D01*
X124399999Y-41430457D02*
X124342856Y-41316171D01*
X124342856Y-41316171D02*
X124342856Y-41201885D01*
X124342856Y-41201885D02*
X124399999Y-41087600D01*
X124399999Y-41087600D02*
X124457142Y-41030457D01*
X124457142Y-41030457D02*
X124571427Y-40973314D01*
X124571427Y-40973314D02*
X124799999Y-40916171D01*
X124799999Y-40916171D02*
X124914284Y-40859028D01*
X124914284Y-40859028D02*
X124971427Y-40801885D01*
X124971427Y-40801885D02*
X125028570Y-40687600D01*
X125028570Y-40687600D02*
X125028570Y-40573314D01*
X125028570Y-40573314D02*
X124971427Y-40459028D01*
X124971427Y-40459028D02*
X124914284Y-40401885D01*
X124914284Y-40401885D02*
X124799999Y-40344742D01*
X124799999Y-40344742D02*
X124514284Y-40344742D01*
X124514284Y-40344742D02*
X124342856Y-40401885D01*
X123942856Y-40344742D02*
X123199999Y-40344742D01*
X123199999Y-40344742D02*
X123599999Y-40801885D01*
X123599999Y-40801885D02*
X123428570Y-40801885D01*
X123428570Y-40801885D02*
X123314285Y-40859028D01*
X123314285Y-40859028D02*
X123257142Y-40916171D01*
X123257142Y-40916171D02*
X123199999Y-41030457D01*
X123199999Y-41030457D02*
X123199999Y-41316171D01*
X123199999Y-41316171D02*
X123257142Y-41430457D01*
X123257142Y-41430457D02*
X123314285Y-41487600D01*
X123314285Y-41487600D02*
X123428570Y-41544742D01*
X123428570Y-41544742D02*
X123771427Y-41544742D01*
X123771427Y-41544742D02*
X123885713Y-41487600D01*
X123885713Y-41487600D02*
X123942856Y-41430457D01*
X122742856Y-40459028D02*
X122685713Y-40401885D01*
X122685713Y-40401885D02*
X122571428Y-40344742D01*
X122571428Y-40344742D02*
X122285713Y-40344742D01*
X122285713Y-40344742D02*
X122171428Y-40401885D01*
X122171428Y-40401885D02*
X122114285Y-40459028D01*
X122114285Y-40459028D02*
X122057142Y-40573314D01*
X122057142Y-40573314D02*
X122057142Y-40687600D01*
X122057142Y-40687600D02*
X122114285Y-40859028D01*
X122114285Y-40859028D02*
X122799999Y-41544742D01*
X122799999Y-41544742D02*
X122057142Y-41544742D01*
X121657142Y-40344742D02*
X120914285Y-40344742D01*
X120914285Y-40344742D02*
X121314285Y-40801885D01*
X121314285Y-40801885D02*
X121142856Y-40801885D01*
X121142856Y-40801885D02*
X121028571Y-40859028D01*
X121028571Y-40859028D02*
X120971428Y-40916171D01*
X120971428Y-40916171D02*
X120914285Y-41030457D01*
X120914285Y-41030457D02*
X120914285Y-41316171D01*
X120914285Y-41316171D02*
X120971428Y-41430457D01*
X120971428Y-41430457D02*
X121028571Y-41487600D01*
X121028571Y-41487600D02*
X121142856Y-41544742D01*
X121142856Y-41544742D02*
X121485713Y-41544742D01*
X121485713Y-41544742D02*
X121599999Y-41487600D01*
X121599999Y-41487600D02*
X121657142Y-41430457D01*
X119771428Y-41544742D02*
X120457142Y-41544742D01*
X120114285Y-41544742D02*
X120114285Y-40344742D01*
X120114285Y-40344742D02*
X120228571Y-40516171D01*
X120228571Y-40516171D02*
X120342856Y-40630457D01*
X120342856Y-40630457D02*
X120457142Y-40687600D01*
X119671427Y-104144742D02*
X119671427Y-102944742D01*
X119671427Y-102944742D02*
X119271427Y-103801885D01*
X119271427Y-103801885D02*
X118871427Y-102944742D01*
X118871427Y-102944742D02*
X118871427Y-104144742D01*
X118299998Y-104144742D02*
X118299998Y-103344742D01*
X118299998Y-102944742D02*
X118357141Y-103001885D01*
X118357141Y-103001885D02*
X118299998Y-103059028D01*
X118299998Y-103059028D02*
X118242855Y-103001885D01*
X118242855Y-103001885D02*
X118299998Y-102944742D01*
X118299998Y-102944742D02*
X118299998Y-103059028D01*
X117214284Y-104087600D02*
X117328569Y-104144742D01*
X117328569Y-104144742D02*
X117557141Y-104144742D01*
X117557141Y-104144742D02*
X117671426Y-104087600D01*
X117671426Y-104087600D02*
X117728569Y-104030457D01*
X117728569Y-104030457D02*
X117785712Y-103916171D01*
X117785712Y-103916171D02*
X117785712Y-103573314D01*
X117785712Y-103573314D02*
X117728569Y-103459028D01*
X117728569Y-103459028D02*
X117671426Y-103401885D01*
X117671426Y-103401885D02*
X117557141Y-103344742D01*
X117557141Y-103344742D02*
X117328569Y-103344742D01*
X117328569Y-103344742D02*
X117214284Y-103401885D01*
X116699998Y-104144742D02*
X116699998Y-103344742D01*
X116699998Y-103573314D02*
X116642855Y-103459028D01*
X116642855Y-103459028D02*
X116585713Y-103401885D01*
X116585713Y-103401885D02*
X116471427Y-103344742D01*
X116471427Y-103344742D02*
X116357141Y-103344742D01*
X115785713Y-104144742D02*
X115899998Y-104087600D01*
X115899998Y-104087600D02*
X115957141Y-104030457D01*
X115957141Y-104030457D02*
X116014284Y-103916171D01*
X116014284Y-103916171D02*
X116014284Y-103573314D01*
X116014284Y-103573314D02*
X115957141Y-103459028D01*
X115957141Y-103459028D02*
X115899998Y-103401885D01*
X115899998Y-103401885D02*
X115785713Y-103344742D01*
X115785713Y-103344742D02*
X115614284Y-103344742D01*
X115614284Y-103344742D02*
X115499998Y-103401885D01*
X115499998Y-103401885D02*
X115442856Y-103459028D01*
X115442856Y-103459028D02*
X115385713Y-103573314D01*
X115385713Y-103573314D02*
X115385713Y-103916171D01*
X115385713Y-103916171D02*
X115442856Y-104030457D01*
X115442856Y-104030457D02*
X115499998Y-104087600D01*
X115499998Y-104087600D02*
X115614284Y-104144742D01*
X115614284Y-104144742D02*
X115785713Y-104144742D01*
X114014284Y-104087600D02*
X113842856Y-104144742D01*
X113842856Y-104144742D02*
X113557141Y-104144742D01*
X113557141Y-104144742D02*
X113442856Y-104087600D01*
X113442856Y-104087600D02*
X113385713Y-104030457D01*
X113385713Y-104030457D02*
X113328570Y-103916171D01*
X113328570Y-103916171D02*
X113328570Y-103801885D01*
X113328570Y-103801885D02*
X113385713Y-103687600D01*
X113385713Y-103687600D02*
X113442856Y-103630457D01*
X113442856Y-103630457D02*
X113557141Y-103573314D01*
X113557141Y-103573314D02*
X113785713Y-103516171D01*
X113785713Y-103516171D02*
X113899998Y-103459028D01*
X113899998Y-103459028D02*
X113957141Y-103401885D01*
X113957141Y-103401885D02*
X114014284Y-103287600D01*
X114014284Y-103287600D02*
X114014284Y-103173314D01*
X114014284Y-103173314D02*
X113957141Y-103059028D01*
X113957141Y-103059028D02*
X113899998Y-103001885D01*
X113899998Y-103001885D02*
X113785713Y-102944742D01*
X113785713Y-102944742D02*
X113499998Y-102944742D01*
X113499998Y-102944742D02*
X113328570Y-103001885D01*
X112814284Y-104144742D02*
X112814284Y-102944742D01*
X112814284Y-102944742D02*
X112528570Y-102944742D01*
X112528570Y-102944742D02*
X112357141Y-103001885D01*
X112357141Y-103001885D02*
X112242856Y-103116171D01*
X112242856Y-103116171D02*
X112185713Y-103230457D01*
X112185713Y-103230457D02*
X112128570Y-103459028D01*
X112128570Y-103459028D02*
X112128570Y-103630457D01*
X112128570Y-103630457D02*
X112185713Y-103859028D01*
X112185713Y-103859028D02*
X112242856Y-103973314D01*
X112242856Y-103973314D02*
X112357141Y-104087600D01*
X112357141Y-104087600D02*
X112528570Y-104144742D01*
X112528570Y-104144742D02*
X112814284Y-104144742D01*
X110185713Y-104087600D02*
X110299998Y-104144742D01*
X110299998Y-104144742D02*
X110528570Y-104144742D01*
X110528570Y-104144742D02*
X110642855Y-104087600D01*
X110642855Y-104087600D02*
X110699998Y-104030457D01*
X110699998Y-104030457D02*
X110757141Y-103916171D01*
X110757141Y-103916171D02*
X110757141Y-103573314D01*
X110757141Y-103573314D02*
X110699998Y-103459028D01*
X110699998Y-103459028D02*
X110642855Y-103401885D01*
X110642855Y-103401885D02*
X110528570Y-103344742D01*
X110528570Y-103344742D02*
X110299998Y-103344742D01*
X110299998Y-103344742D02*
X110185713Y-103401885D01*
X109157142Y-104144742D02*
X109157142Y-103516171D01*
X109157142Y-103516171D02*
X109214284Y-103401885D01*
X109214284Y-103401885D02*
X109328570Y-103344742D01*
X109328570Y-103344742D02*
X109557142Y-103344742D01*
X109557142Y-103344742D02*
X109671427Y-103401885D01*
X109157142Y-104087600D02*
X109271427Y-104144742D01*
X109271427Y-104144742D02*
X109557142Y-104144742D01*
X109557142Y-104144742D02*
X109671427Y-104087600D01*
X109671427Y-104087600D02*
X109728570Y-103973314D01*
X109728570Y-103973314D02*
X109728570Y-103859028D01*
X109728570Y-103859028D02*
X109671427Y-103744742D01*
X109671427Y-103744742D02*
X109557142Y-103687600D01*
X109557142Y-103687600D02*
X109271427Y-103687600D01*
X109271427Y-103687600D02*
X109157142Y-103630457D01*
X108585713Y-104144742D02*
X108585713Y-103344742D01*
X108585713Y-103573314D02*
X108528570Y-103459028D01*
X108528570Y-103459028D02*
X108471428Y-103401885D01*
X108471428Y-103401885D02*
X108357142Y-103344742D01*
X108357142Y-103344742D02*
X108242856Y-103344742D01*
X107328571Y-104144742D02*
X107328571Y-102944742D01*
X107328571Y-104087600D02*
X107442856Y-104144742D01*
X107442856Y-104144742D02*
X107671428Y-104144742D01*
X107671428Y-104144742D02*
X107785713Y-104087600D01*
X107785713Y-104087600D02*
X107842856Y-104030457D01*
X107842856Y-104030457D02*
X107899999Y-103916171D01*
X107899999Y-103916171D02*
X107899999Y-103573314D01*
X107899999Y-103573314D02*
X107842856Y-103459028D01*
X107842856Y-103459028D02*
X107785713Y-103401885D01*
X107785713Y-103401885D02*
X107671428Y-103344742D01*
X107671428Y-103344742D02*
X107442856Y-103344742D01*
X107442856Y-103344742D02*
X107328571Y-103401885D01*
D11*
X116745238Y-36607223D02*
X117102380Y-36607223D01*
X116888095Y-36821509D02*
X116745238Y-36178652D01*
X117054761Y-36392938D02*
X116697619Y-36392938D01*
X116911904Y-36178652D02*
X117054761Y-36821509D01*
D12*
X106566666Y-34359580D02*
X106614285Y-34407200D01*
X106614285Y-34407200D02*
X106757142Y-34454819D01*
X106757142Y-34454819D02*
X106852380Y-34454819D01*
X106852380Y-34454819D02*
X106995237Y-34407200D01*
X106995237Y-34407200D02*
X107090475Y-34311961D01*
X107090475Y-34311961D02*
X107138094Y-34216723D01*
X107138094Y-34216723D02*
X107185713Y-34026247D01*
X107185713Y-34026247D02*
X107185713Y-33883390D01*
X107185713Y-33883390D02*
X107138094Y-33692914D01*
X107138094Y-33692914D02*
X107090475Y-33597676D01*
X107090475Y-33597676D02*
X106995237Y-33502438D01*
X106995237Y-33502438D02*
X106852380Y-33454819D01*
X106852380Y-33454819D02*
X106757142Y-33454819D01*
X106757142Y-33454819D02*
X106614285Y-33502438D01*
X106614285Y-33502438D02*
X106566666Y-33550057D01*
X105614285Y-34454819D02*
X106185713Y-34454819D01*
X105899999Y-34454819D02*
X105899999Y-33454819D01*
X105899999Y-33454819D02*
X105995237Y-33597676D01*
X105995237Y-33597676D02*
X106090475Y-33692914D01*
X106090475Y-33692914D02*
X106185713Y-33740533D01*
X128854819Y-51533333D02*
X128378628Y-51200000D01*
X128854819Y-50961905D02*
X127854819Y-50961905D01*
X127854819Y-50961905D02*
X127854819Y-51342857D01*
X127854819Y-51342857D02*
X127902438Y-51438095D01*
X127902438Y-51438095D02*
X127950057Y-51485714D01*
X127950057Y-51485714D02*
X128045295Y-51533333D01*
X128045295Y-51533333D02*
X128188152Y-51533333D01*
X128188152Y-51533333D02*
X128283390Y-51485714D01*
X128283390Y-51485714D02*
X128331009Y-51438095D01*
X128331009Y-51438095D02*
X128378628Y-51342857D01*
X128378628Y-51342857D02*
X128378628Y-50961905D01*
X127950057Y-51914286D02*
X127902438Y-51961905D01*
X127902438Y-51961905D02*
X127854819Y-52057143D01*
X127854819Y-52057143D02*
X127854819Y-52295238D01*
X127854819Y-52295238D02*
X127902438Y-52390476D01*
X127902438Y-52390476D02*
X127950057Y-52438095D01*
X127950057Y-52438095D02*
X128045295Y-52485714D01*
X128045295Y-52485714D02*
X128140533Y-52485714D01*
X128140533Y-52485714D02*
X128283390Y-52438095D01*
X128283390Y-52438095D02*
X128854819Y-51866667D01*
X128854819Y-51866667D02*
X128854819Y-52485714D01*
X110308773Y-94568333D02*
X110369250Y-94507857D01*
X110369250Y-94507857D02*
X110429726Y-94326428D01*
X110429726Y-94326428D02*
X110429726Y-94205476D01*
X110429726Y-94205476D02*
X110369250Y-94024047D01*
X110369250Y-94024047D02*
X110248297Y-93903095D01*
X110248297Y-93903095D02*
X110127345Y-93842618D01*
X110127345Y-93842618D02*
X109885440Y-93782142D01*
X109885440Y-93782142D02*
X109704011Y-93782142D01*
X109704011Y-93782142D02*
X109462107Y-93842618D01*
X109462107Y-93842618D02*
X109341154Y-93903095D01*
X109341154Y-93903095D02*
X109220202Y-94024047D01*
X109220202Y-94024047D02*
X109159726Y-94205476D01*
X109159726Y-94205476D02*
X109159726Y-94326428D01*
X109159726Y-94326428D02*
X109220202Y-94507857D01*
X109220202Y-94507857D02*
X109280678Y-94568333D01*
X110369250Y-95052142D02*
X110429726Y-95233571D01*
X110429726Y-95233571D02*
X110429726Y-95535952D01*
X110429726Y-95535952D02*
X110369250Y-95656904D01*
X110369250Y-95656904D02*
X110308773Y-95717380D01*
X110308773Y-95717380D02*
X110187821Y-95777857D01*
X110187821Y-95777857D02*
X110066869Y-95777857D01*
X110066869Y-95777857D02*
X109945916Y-95717380D01*
X109945916Y-95717380D02*
X109885440Y-95656904D01*
X109885440Y-95656904D02*
X109824964Y-95535952D01*
X109824964Y-95535952D02*
X109764488Y-95294047D01*
X109764488Y-95294047D02*
X109704011Y-95173095D01*
X109704011Y-95173095D02*
X109643535Y-95112618D01*
X109643535Y-95112618D02*
X109522583Y-95052142D01*
X109522583Y-95052142D02*
X109401630Y-95052142D01*
X109401630Y-95052142D02*
X109280678Y-95112618D01*
X109280678Y-95112618D02*
X109220202Y-95173095D01*
X109220202Y-95173095D02*
X109159726Y-95294047D01*
X109159726Y-95294047D02*
X109159726Y-95596428D01*
X109159726Y-95596428D02*
X109220202Y-95777857D01*
X119220202Y-94272381D02*
X119159726Y-94151428D01*
X119159726Y-94151428D02*
X119159726Y-93970000D01*
X119159726Y-93970000D02*
X119220202Y-93788571D01*
X119220202Y-93788571D02*
X119341154Y-93667619D01*
X119341154Y-93667619D02*
X119462107Y-93607142D01*
X119462107Y-93607142D02*
X119704011Y-93546666D01*
X119704011Y-93546666D02*
X119885440Y-93546666D01*
X119885440Y-93546666D02*
X120127345Y-93607142D01*
X120127345Y-93607142D02*
X120248297Y-93667619D01*
X120248297Y-93667619D02*
X120369250Y-93788571D01*
X120369250Y-93788571D02*
X120429726Y-93970000D01*
X120429726Y-93970000D02*
X120429726Y-94090952D01*
X120429726Y-94090952D02*
X120369250Y-94272381D01*
X120369250Y-94272381D02*
X120308773Y-94332857D01*
X120308773Y-94332857D02*
X119885440Y-94332857D01*
X119885440Y-94332857D02*
X119885440Y-94090952D01*
X120429726Y-94877142D02*
X119159726Y-94877142D01*
X119159726Y-94877142D02*
X120429726Y-95602857D01*
X120429726Y-95602857D02*
X119159726Y-95602857D01*
X120429726Y-96207618D02*
X119159726Y-96207618D01*
X119159726Y-96207618D02*
X119159726Y-96509999D01*
X119159726Y-96509999D02*
X119220202Y-96691428D01*
X119220202Y-96691428D02*
X119341154Y-96812380D01*
X119341154Y-96812380D02*
X119462107Y-96872857D01*
X119462107Y-96872857D02*
X119704011Y-96933333D01*
X119704011Y-96933333D02*
X119885440Y-96933333D01*
X119885440Y-96933333D02*
X120127345Y-96872857D01*
X120127345Y-96872857D02*
X120248297Y-96812380D01*
X120248297Y-96812380D02*
X120369250Y-96691428D01*
X120369250Y-96691428D02*
X120429726Y-96509999D01*
X120429726Y-96509999D02*
X120429726Y-96207618D01*
X115238773Y-94454048D02*
X115299250Y-94393572D01*
X115299250Y-94393572D02*
X115359726Y-94212143D01*
X115359726Y-94212143D02*
X115359726Y-94091191D01*
X115359726Y-94091191D02*
X115299250Y-93909762D01*
X115299250Y-93909762D02*
X115178297Y-93788810D01*
X115178297Y-93788810D02*
X115057345Y-93728333D01*
X115057345Y-93728333D02*
X114815440Y-93667857D01*
X114815440Y-93667857D02*
X114634011Y-93667857D01*
X114634011Y-93667857D02*
X114392107Y-93728333D01*
X114392107Y-93728333D02*
X114271154Y-93788810D01*
X114271154Y-93788810D02*
X114150202Y-93909762D01*
X114150202Y-93909762D02*
X114089726Y-94091191D01*
X114089726Y-94091191D02*
X114089726Y-94212143D01*
X114089726Y-94212143D02*
X114150202Y-94393572D01*
X114150202Y-94393572D02*
X114210678Y-94454048D01*
X115359726Y-95603095D02*
X115359726Y-94998333D01*
X115359726Y-94998333D02*
X114089726Y-94998333D01*
X115359726Y-96026428D02*
X114089726Y-96026428D01*
X115359726Y-96752143D02*
X114634011Y-96207857D01*
X114089726Y-96752143D02*
X114815440Y-96026428D01*
X106539726Y-93717619D02*
X106539726Y-94503810D01*
X106539726Y-94503810D02*
X107023535Y-94080476D01*
X107023535Y-94080476D02*
X107023535Y-94261905D01*
X107023535Y-94261905D02*
X107084011Y-94382857D01*
X107084011Y-94382857D02*
X107144488Y-94443333D01*
X107144488Y-94443333D02*
X107265440Y-94503810D01*
X107265440Y-94503810D02*
X107567821Y-94503810D01*
X107567821Y-94503810D02*
X107688773Y-94443333D01*
X107688773Y-94443333D02*
X107749250Y-94382857D01*
X107749250Y-94382857D02*
X107809726Y-94261905D01*
X107809726Y-94261905D02*
X107809726Y-93899048D01*
X107809726Y-93899048D02*
X107749250Y-93778095D01*
X107749250Y-93778095D02*
X107688773Y-93717619D01*
X106539726Y-94866667D02*
X107809726Y-95290000D01*
X107809726Y-95290000D02*
X106539726Y-95713334D01*
X106539726Y-96015714D02*
X106539726Y-96801905D01*
X106539726Y-96801905D02*
X107023535Y-96378571D01*
X107023535Y-96378571D02*
X107023535Y-96560000D01*
X107023535Y-96560000D02*
X107084011Y-96680952D01*
X107084011Y-96680952D02*
X107144488Y-96741428D01*
X107144488Y-96741428D02*
X107265440Y-96801905D01*
X107265440Y-96801905D02*
X107567821Y-96801905D01*
X107567821Y-96801905D02*
X107688773Y-96741428D01*
X107688773Y-96741428D02*
X107749250Y-96680952D01*
X107749250Y-96680952D02*
X107809726Y-96560000D01*
X107809726Y-96560000D02*
X107809726Y-96197143D01*
X107809726Y-96197143D02*
X107749250Y-96076190D01*
X107749250Y-96076190D02*
X107688773Y-96015714D01*
X117979726Y-93614285D02*
X116709726Y-93614285D01*
X116709726Y-93614285D02*
X117616869Y-94037619D01*
X117616869Y-94037619D02*
X116709726Y-94460952D01*
X116709726Y-94460952D02*
X117979726Y-94460952D01*
X117979726Y-95065714D02*
X116709726Y-95065714D01*
X117919250Y-95610000D02*
X117979726Y-95791429D01*
X117979726Y-95791429D02*
X117979726Y-96093810D01*
X117979726Y-96093810D02*
X117919250Y-96214762D01*
X117919250Y-96214762D02*
X117858773Y-96275238D01*
X117858773Y-96275238D02*
X117737821Y-96335715D01*
X117737821Y-96335715D02*
X117616869Y-96335715D01*
X117616869Y-96335715D02*
X117495916Y-96275238D01*
X117495916Y-96275238D02*
X117435440Y-96214762D01*
X117435440Y-96214762D02*
X117374964Y-96093810D01*
X117374964Y-96093810D02*
X117314488Y-95851905D01*
X117314488Y-95851905D02*
X117254011Y-95730953D01*
X117254011Y-95730953D02*
X117193535Y-95670476D01*
X117193535Y-95670476D02*
X117072583Y-95610000D01*
X117072583Y-95610000D02*
X116951630Y-95610000D01*
X116951630Y-95610000D02*
X116830678Y-95670476D01*
X116830678Y-95670476D02*
X116770202Y-95730953D01*
X116770202Y-95730953D02*
X116709726Y-95851905D01*
X116709726Y-95851905D02*
X116709726Y-96154286D01*
X116709726Y-96154286D02*
X116770202Y-96335715D01*
X116709726Y-97121905D02*
X116709726Y-97363810D01*
X116709726Y-97363810D02*
X116770202Y-97484762D01*
X116770202Y-97484762D02*
X116891154Y-97605715D01*
X116891154Y-97605715D02*
X117133059Y-97666191D01*
X117133059Y-97666191D02*
X117556392Y-97666191D01*
X117556392Y-97666191D02*
X117798297Y-97605715D01*
X117798297Y-97605715D02*
X117919250Y-97484762D01*
X117919250Y-97484762D02*
X117979726Y-97363810D01*
X117979726Y-97363810D02*
X117979726Y-97121905D01*
X117979726Y-97121905D02*
X117919250Y-97000953D01*
X117919250Y-97000953D02*
X117798297Y-96880000D01*
X117798297Y-96880000D02*
X117556392Y-96819524D01*
X117556392Y-96819524D02*
X117133059Y-96819524D01*
X117133059Y-96819524D02*
X116891154Y-96880000D01*
X116891154Y-96880000D02*
X116770202Y-97000953D01*
X116770202Y-97000953D02*
X116709726Y-97121905D01*
X112849726Y-93614285D02*
X111579726Y-93614285D01*
X111579726Y-93614285D02*
X112486869Y-94037619D01*
X112486869Y-94037619D02*
X111579726Y-94460952D01*
X111579726Y-94460952D02*
X112849726Y-94460952D01*
X111579726Y-95307619D02*
X111579726Y-95549524D01*
X111579726Y-95549524D02*
X111640202Y-95670476D01*
X111640202Y-95670476D02*
X111761154Y-95791429D01*
X111761154Y-95791429D02*
X112003059Y-95851905D01*
X112003059Y-95851905D02*
X112426392Y-95851905D01*
X112426392Y-95851905D02*
X112668297Y-95791429D01*
X112668297Y-95791429D02*
X112789250Y-95670476D01*
X112789250Y-95670476D02*
X112849726Y-95549524D01*
X112849726Y-95549524D02*
X112849726Y-95307619D01*
X112849726Y-95307619D02*
X112789250Y-95186667D01*
X112789250Y-95186667D02*
X112668297Y-95065714D01*
X112668297Y-95065714D02*
X112426392Y-95005238D01*
X112426392Y-95005238D02*
X112003059Y-95005238D01*
X112003059Y-95005238D02*
X111761154Y-95065714D01*
X111761154Y-95065714D02*
X111640202Y-95186667D01*
X111640202Y-95186667D02*
X111579726Y-95307619D01*
X112789250Y-96335714D02*
X112849726Y-96517143D01*
X112849726Y-96517143D02*
X112849726Y-96819524D01*
X112849726Y-96819524D02*
X112789250Y-96940476D01*
X112789250Y-96940476D02*
X112728773Y-97000952D01*
X112728773Y-97000952D02*
X112607821Y-97061429D01*
X112607821Y-97061429D02*
X112486869Y-97061429D01*
X112486869Y-97061429D02*
X112365916Y-97000952D01*
X112365916Y-97000952D02*
X112305440Y-96940476D01*
X112305440Y-96940476D02*
X112244964Y-96819524D01*
X112244964Y-96819524D02*
X112184488Y-96577619D01*
X112184488Y-96577619D02*
X112124011Y-96456667D01*
X112124011Y-96456667D02*
X112063535Y-96396190D01*
X112063535Y-96396190D02*
X111942583Y-96335714D01*
X111942583Y-96335714D02*
X111821630Y-96335714D01*
X111821630Y-96335714D02*
X111700678Y-96396190D01*
X111700678Y-96396190D02*
X111640202Y-96456667D01*
X111640202Y-96456667D02*
X111579726Y-96577619D01*
X111579726Y-96577619D02*
X111579726Y-96880000D01*
X111579726Y-96880000D02*
X111640202Y-97061429D01*
X112849726Y-97605714D02*
X111579726Y-97605714D01*
X100766666Y-103254819D02*
X101099999Y-102778628D01*
X101338094Y-103254819D02*
X101338094Y-102254819D01*
X101338094Y-102254819D02*
X100957142Y-102254819D01*
X100957142Y-102254819D02*
X100861904Y-102302438D01*
X100861904Y-102302438D02*
X100814285Y-102350057D01*
X100814285Y-102350057D02*
X100766666Y-102445295D01*
X100766666Y-102445295D02*
X100766666Y-102588152D01*
X100766666Y-102588152D02*
X100814285Y-102683390D01*
X100814285Y-102683390D02*
X100861904Y-102731009D01*
X100861904Y-102731009D02*
X100957142Y-102778628D01*
X100957142Y-102778628D02*
X101338094Y-102778628D01*
X99814285Y-103254819D02*
X100385713Y-103254819D01*
X100099999Y-103254819D02*
X100099999Y-102254819D01*
X100099999Y-102254819D02*
X100195237Y-102397676D01*
X100195237Y-102397676D02*
X100290475Y-102492914D01*
X100290475Y-102492914D02*
X100385713Y-102540533D01*
X103080951Y-30603866D02*
X102319047Y-30603866D01*
X111580951Y-30473866D02*
X110819047Y-30473866D01*
X111199999Y-30854819D02*
X111199999Y-30092914D01*
D13*
%TO.C,C1*%
X107111252Y-34890000D02*
X105688748Y-34890000D01*
X107111252Y-36710000D02*
X105688748Y-36710000D01*
%TO.C,R2*%
X125490000Y-50972936D02*
X125490000Y-52427064D01*
X127310000Y-50972936D02*
X127310000Y-52427064D01*
%TO.C,U6*%
X117840000Y-37340000D02*
X118095000Y-37340000D01*
X117840000Y-41200000D02*
X117840000Y-37340000D01*
X117840000Y-41200000D02*
X117840000Y-45060000D01*
X117840000Y-45060000D02*
X118095000Y-45060000D01*
X118095000Y-37340000D02*
X118095000Y-35525000D01*
X128360000Y-37340000D02*
X128105000Y-37340000D01*
X128360000Y-41200000D02*
X128360000Y-37340000D01*
X128360000Y-41200000D02*
X128360000Y-45060000D01*
X128360000Y-45060000D02*
X128105000Y-45060000D01*
%TO.C,BT1*%
X116885000Y-62660000D02*
X120060000Y-59485000D01*
X116885000Y-65200000D02*
X116885000Y-67740000D01*
X116885000Y-67740000D02*
X116885000Y-62660000D01*
X116885000Y-67740000D02*
X120060000Y-70915000D01*
X120695000Y-55040000D02*
X120695000Y-55675000D01*
X120695000Y-55675000D02*
X120695000Y-59485000D01*
X120695000Y-74725000D02*
X120695000Y-70915000D01*
X120695000Y-75360000D02*
X120695000Y-74725000D01*
X122600000Y-70915000D02*
X120060000Y-70915000D01*
X122600000Y-70915000D02*
X128315000Y-70915000D01*
X124505000Y-55040000D02*
X120695000Y-55040000D01*
X124505000Y-55675000D02*
X124505000Y-55040000D01*
X124505000Y-59485000D02*
X124505000Y-55675000D01*
X124505000Y-70915000D02*
X124505000Y-74725000D01*
X124505000Y-74725000D02*
X124505000Y-75360000D01*
X124505000Y-75360000D02*
X120695000Y-75360000D01*
X128315000Y-59485000D02*
X120060000Y-59485000D01*
X128315000Y-59485000D02*
X128315000Y-60755000D01*
X128315000Y-70915000D02*
X128315000Y-69645000D01*
X128315001Y-69644999D02*
G75*
G02*
X128315001Y-60755001I4444999J4444999D01*
G01*
%TO.C,U2*%
X104670000Y-90830000D02*
X104670000Y-114960000D01*
X104670000Y-114960000D02*
X122450000Y-114960000D01*
X122450000Y-90830000D02*
X104670000Y-90830000D01*
X122450000Y-114960000D02*
X122450000Y-90830000D01*
%TO.C,R1*%
X99890000Y-106727064D02*
X99890000Y-105272936D01*
X101710000Y-106727064D02*
X101710000Y-105272936D01*
%TD*%
M02*
