%TF.GenerationSoftware,KiCad,Pcbnew,8.0.8*%
%TF.CreationDate,2025-06-09T14:52:27-04:00*%
%TF.ProjectId,V0.5.0,56302e35-2e30-42e6-9b69-6361645f7063,rev?*%
%TF.SameCoordinates,Original*%
%TF.FileFunction,Soldermask,Top*%
%TF.FilePolarity,Negative*%
%FSLAX46Y46*%
G04 Gerber Fmt 4.6, Leading zero omitted, Abs format (unit mm)*
G04 Created by KiCad (PCBNEW 8.0.8) date 2025-06-09 14:52:27*
%MOMM*%
%LPD*%
G01*
G04 APERTURE LIST*
%ADD10C,1.324000*%
%ADD11O,1.424000X2.524000*%
%ADD12R,1.600000X1.600000*%
%ADD13O,1.600000X1.600000*%
%ADD14C,1.524000*%
%ADD15R,1.800000X1.800000*%
%ADD16C,1.800000*%
%ADD17C,2.000000*%
%ADD18R,2.000000X2.000000*%
G04 APERTURE END LIST*
D10*
%TO.C,U3*%
X124732000Y-30120000D03*
X122700000Y-30120000D03*
X120668000Y-30120000D03*
D11*
X126891000Y-30120000D03*
X118509000Y-30120000D03*
%TD*%
D12*
%TO.C,A1*%
X114600000Y-72600000D03*
D13*
X114600000Y-70060000D03*
X114600000Y-67520000D03*
X114600000Y-64980000D03*
X114600000Y-62440000D03*
X114600000Y-59900000D03*
X114600000Y-57360000D03*
X114600000Y-54820000D03*
X114600000Y-52280000D03*
X114600000Y-49740000D03*
X114600000Y-47200000D03*
X114600000Y-44660000D03*
X114600000Y-42120000D03*
X114600000Y-39580000D03*
X114600000Y-37040000D03*
X99360000Y-37040000D03*
X99360000Y-39580000D03*
X99360000Y-42120000D03*
X99360000Y-44660000D03*
X99360000Y-47200000D03*
X99360000Y-49740000D03*
X99360000Y-52280000D03*
X99360000Y-54820000D03*
X99360000Y-57360000D03*
X99360000Y-59900000D03*
X99360000Y-62440000D03*
X99360000Y-64980000D03*
X99360000Y-67520000D03*
X99360000Y-70060000D03*
X99360000Y-72600000D03*
%TD*%
D14*
%TO.C,U7*%
X110920000Y-78610000D03*
X113460000Y-78610000D03*
X116000000Y-78610000D03*
%TD*%
%TO.C,U4*%
X101820000Y-78610000D03*
X104360000Y-78610000D03*
X106900000Y-78610000D03*
%TD*%
%TO.C,U5*%
X120120000Y-78610000D03*
X122660000Y-78610000D03*
X125200000Y-78610000D03*
%TD*%
%TO.C,U8*%
X110320000Y-121410000D03*
X112860000Y-121410000D03*
X115400000Y-121410000D03*
%TD*%
D15*
%TO.C,D1*%
X122300000Y-51300000D03*
D16*
X119760000Y-51300000D03*
%TD*%
D14*
%TO.C,U9*%
X125750000Y-116000000D03*
X125750000Y-112000000D03*
X125750000Y-110000000D03*
X125750000Y-108000000D03*
X125750000Y-106000000D03*
X125750000Y-104000000D03*
X125750000Y-102000000D03*
X125750000Y-100000000D03*
%TD*%
D16*
%TO.C,U2*%
X107230000Y-92230000D03*
X109770000Y-92230000D03*
X112310000Y-92230000D03*
X114850000Y-92230000D03*
X117390000Y-92230000D03*
X119930000Y-92230000D03*
%TD*%
D17*
%TO.C,U1*%
X109510000Y-30530000D03*
D18*
X104700000Y-30530000D03*
%TD*%
M02*
