M48
; DRILL file {KiCad 8.0.8} date 2025-06-16T13:33:36-0400
; FORMAT={-:-/ absolute / inch / decimal}
; #@! TF.CreationDate,2025-06-16T13:33:36-04:00
; #@! TF.GenerationSoftware,Kicad,Pcbnew,8.0.8
; #@! TF.FileFunction,Plated,1,2,PTH
FMAT,2
INCH
; #@! TA.AperFunction,Plated,PTH,ViaDrill
T1C0.0157
; #@! TA.AperFunction,Plated,PTH,ComponentDrill
T2C0.0300
; #@! TA.AperFunction,Plated,PTH,ComponentDrill
T3C0.0354
; #@! TA.AperFunction,Plated,PTH,ComponentDrill
T4C0.0360
; #@! TA.AperFunction,Plated,PTH,ComponentDrill
T5C0.0394
%
G90
G05
T1
X3.9134Y-4.6654
X3.9213Y-1.2638
X3.9724Y-3.2205
X3.9882Y-3.9567
X3.9961Y-1.3583
X4.0Y-2.1102
X4.0Y-3.7205
X4.0039Y-1.1417
X4.0039Y-1.7362
X4.0591Y-2.811
X4.0827Y-4.2008
X4.0866Y-2.0551
X4.0945Y-2.5591
X4.1063Y-2.2362
X4.1181Y-2.9882
X4.1378Y-2.3898
X4.1654Y-2.689
X4.1654Y-2.9173
X4.1929Y-2.1457
X4.1969Y-1.252
X4.2441Y-2.1693
X4.2441Y-3.3858
X4.2795Y-2.1181
X4.2835Y-2.2756
X4.2835Y-3.1772
X4.2874Y-2.7244
X4.2953Y-2.937
X4.3858Y-1.8661
X4.3898Y-1.9449
X4.4134Y-2.4252
X4.4331Y-1.7953
X4.4724Y-3.3386
X4.4882Y-1.1339
X4.4921Y-1.2283
X4.6496Y-2.8268
X4.6535Y-3.2953
X4.6772Y-4.2165
X4.752Y-4.7992
X4.8543Y-4.7047
X4.9646Y-2.9606
X4.9803Y-2.2598
X4.9921Y-4.6102
X5.0276Y-1.9016
T2
X4.9508Y-3.937
X4.9508Y-4.0157
X4.9508Y-4.0945
X4.9508Y-4.1732
X4.9508Y-4.252
X4.9508Y-4.3307
X4.9508Y-4.4094
X4.9508Y-4.4882
X4.9508Y-4.5669
T3
X4.715Y-2.0197
X4.815Y-2.0197
T4
X4.7507Y-1.1858
X4.8307Y-1.1858
X4.9107Y-1.1858
T5
X3.9118Y-1.4583
X3.9118Y-1.5583
X3.9118Y-1.6583
X3.9118Y-1.7583
X3.9118Y-1.8583
X3.9118Y-1.9583
X3.9118Y-2.0583
X3.9118Y-2.1583
X3.9118Y-2.2583
X3.9118Y-2.3583
X3.9118Y-2.4583
X3.9118Y-2.5583
X3.9118Y-2.6583
X3.9118Y-2.7583
X3.9118Y-2.8583
X4.0087Y-3.0949
X4.1087Y-3.0949
X4.122Y-1.202
X4.2087Y-3.0949
X4.2217Y-3.6311
X4.3114Y-1.202
X4.3217Y-3.6311
X4.3433Y-4.7799
X4.3669Y-3.0949
X4.4217Y-3.6311
X4.4433Y-4.7799
X4.4669Y-3.0949
X4.5118Y-1.4583
X4.5118Y-1.5583
X4.5118Y-1.6583
X4.5118Y-1.7583
X4.5118Y-1.8583
X4.5118Y-1.9583
X4.5118Y-2.0583
X4.5118Y-2.1583
X4.5118Y-2.2583
X4.5118Y-2.3583
X4.5118Y-2.4583
X4.5118Y-2.5583
X4.5118Y-2.6583
X4.5118Y-2.7583
X4.5118Y-2.8583
X4.5217Y-3.6311
X4.5433Y-4.7799
X4.5669Y-3.0949
X4.6217Y-3.6311
X4.7217Y-3.6311
X4.7291Y-3.0949
X4.8291Y-3.0949
X4.9291Y-3.0949
T4
X4.6657Y-1.1692G85X4.6657Y-1.2025
G05
X4.9957Y-1.1692G85X4.9957Y-1.2025
G05
M30
