%TF.GenerationSoftware,KiCad,Pcbnew,8.0.8*%
%TF.CreationDate,2025-06-09T14:52:16-04:00*%
%TF.ProjectId,V0.5.0,56302e35-2e30-42e6-9b69-6361645f7063,rev?*%
%TF.SameCoordinates,Original*%
%TF.FileFunction,Drillmap*%
%TF.FilePolarity,Positive*%
%FSLAX45Y45*%
G04 Gerber Fmt 4.5, Leading zero omitted, Abs format (unit mm)*
G04 Created by KiCad (PCBNEW 8.0.8) date 2025-06-09 14:52:16*
%MOMM*%
%LPD*%
G01*
G04 APERTURE LIST*
%ADD10C,0.050000*%
%ADD11C,0.200000*%
G04 APERTURE END LIST*
D10*
X9720000Y-12420000D02*
X12980000Y-12420000D01*
X10300000Y-8785000D02*
G75*
G02*
X10000000Y-8785000I-150000J0D01*
G01*
X10000000Y-8785000D02*
G75*
G02*
X10300000Y-8785000I150000J0D01*
G01*
X10300000Y-12185000D02*
G75*
G02*
X10000000Y-12185000I-150000J0D01*
G01*
X10000000Y-12185000D02*
G75*
G02*
X10300000Y-12185000I150000J0D01*
G01*
X12700000Y-12185000D02*
G75*
G02*
X12400000Y-12185000I-150000J0D01*
G01*
X12400000Y-12185000D02*
G75*
G02*
X12700000Y-12185000I150000J0D01*
G01*
X9720000Y-2980000D02*
X9720000Y-12420000D01*
X12980000Y-2980000D02*
X12980000Y-12420000D01*
X12700000Y-8785000D02*
G75*
G02*
X12400000Y-8785000I-150000J0D01*
G01*
X12400000Y-8785000D02*
G75*
G02*
X12700000Y-8785000I150000J0D01*
G01*
X9720000Y-2700000D02*
X9720000Y-2980000D01*
X12980000Y-2700000D02*
X9720000Y-2700000D01*
X12980000Y-2980000D02*
X12980000Y-2700000D01*
D11*
X9978277Y-12733984D02*
X9978277Y-12533984D01*
X9978277Y-12533984D02*
X10025896Y-12533984D01*
X10025896Y-12533984D02*
X10054467Y-12543508D01*
X10054467Y-12543508D02*
X10073515Y-12562555D01*
X10073515Y-12562555D02*
X10083039Y-12581603D01*
X10083039Y-12581603D02*
X10092563Y-12619698D01*
X10092563Y-12619698D02*
X10092563Y-12648269D01*
X10092563Y-12648269D02*
X10083039Y-12686365D01*
X10083039Y-12686365D02*
X10073515Y-12705412D01*
X10073515Y-12705412D02*
X10054467Y-12724460D01*
X10054467Y-12724460D02*
X10025896Y-12733984D01*
X10025896Y-12733984D02*
X9978277Y-12733984D01*
X10178277Y-12733984D02*
X10178277Y-12600650D01*
X10178277Y-12638746D02*
X10187801Y-12619698D01*
X10187801Y-12619698D02*
X10197324Y-12610174D01*
X10197324Y-12610174D02*
X10216372Y-12600650D01*
X10216372Y-12600650D02*
X10235420Y-12600650D01*
X10302086Y-12733984D02*
X10302086Y-12600650D01*
X10302086Y-12533984D02*
X10292563Y-12543508D01*
X10292563Y-12543508D02*
X10302086Y-12553031D01*
X10302086Y-12553031D02*
X10311610Y-12543508D01*
X10311610Y-12543508D02*
X10302086Y-12533984D01*
X10302086Y-12533984D02*
X10302086Y-12553031D01*
X10425896Y-12733984D02*
X10406848Y-12724460D01*
X10406848Y-12724460D02*
X10397324Y-12705412D01*
X10397324Y-12705412D02*
X10397324Y-12533984D01*
X10530658Y-12733984D02*
X10511610Y-12724460D01*
X10511610Y-12724460D02*
X10502086Y-12705412D01*
X10502086Y-12705412D02*
X10502086Y-12533984D01*
X10759229Y-12733984D02*
X10759229Y-12533984D01*
X10759229Y-12533984D02*
X10825896Y-12676841D01*
X10825896Y-12676841D02*
X10892563Y-12533984D01*
X10892563Y-12533984D02*
X10892563Y-12733984D01*
X11073515Y-12733984D02*
X11073515Y-12629222D01*
X11073515Y-12629222D02*
X11063991Y-12610174D01*
X11063991Y-12610174D02*
X11044944Y-12600650D01*
X11044944Y-12600650D02*
X11006848Y-12600650D01*
X11006848Y-12600650D02*
X10987801Y-12610174D01*
X11073515Y-12724460D02*
X11054467Y-12733984D01*
X11054467Y-12733984D02*
X11006848Y-12733984D01*
X11006848Y-12733984D02*
X10987801Y-12724460D01*
X10987801Y-12724460D02*
X10978277Y-12705412D01*
X10978277Y-12705412D02*
X10978277Y-12686365D01*
X10978277Y-12686365D02*
X10987801Y-12667317D01*
X10987801Y-12667317D02*
X11006848Y-12657793D01*
X11006848Y-12657793D02*
X11054467Y-12657793D01*
X11054467Y-12657793D02*
X11073515Y-12648269D01*
X11168753Y-12600650D02*
X11168753Y-12800650D01*
X11168753Y-12610174D02*
X11187801Y-12600650D01*
X11187801Y-12600650D02*
X11225896Y-12600650D01*
X11225896Y-12600650D02*
X11244943Y-12610174D01*
X11244943Y-12610174D02*
X11254467Y-12619698D01*
X11254467Y-12619698D02*
X11263991Y-12638746D01*
X11263991Y-12638746D02*
X11263991Y-12695888D01*
X11263991Y-12695888D02*
X11254467Y-12714936D01*
X11254467Y-12714936D02*
X11244943Y-12724460D01*
X11244943Y-12724460D02*
X11225896Y-12733984D01*
X11225896Y-12733984D02*
X11187801Y-12733984D01*
X11187801Y-12733984D02*
X11168753Y-12724460D01*
X11349705Y-12714936D02*
X11359229Y-12724460D01*
X11359229Y-12724460D02*
X11349705Y-12733984D01*
X11349705Y-12733984D02*
X11340182Y-12724460D01*
X11340182Y-12724460D02*
X11349705Y-12714936D01*
X11349705Y-12714936D02*
X11349705Y-12733984D01*
X11349705Y-12610174D02*
X11359229Y-12619698D01*
X11359229Y-12619698D02*
X11349705Y-12629222D01*
X11349705Y-12629222D02*
X11340182Y-12619698D01*
X11340182Y-12619698D02*
X11349705Y-12610174D01*
X11349705Y-12610174D02*
X11349705Y-12629222D01*
M02*
