%TF.GenerationSoftware,KiCad,Pcbnew,8.0.8*%
%TF.CreationDate,2025-06-16T13:33:29-04:00*%
%TF.ProjectId,V0.5.0,56302e35-2e30-42e6-9b69-6361645f7063,rev?*%
%TF.SameCoordinates,Original*%
%TF.FileFunction,Copper,L1,Top*%
%TF.FilePolarity,Positive*%
%FSLAX46Y46*%
G04 Gerber Fmt 4.6, Leading zero omitted, Abs format (unit mm)*
G04 Created by KiCad (PCBNEW 8.0.8) date 2025-06-16 13:33:29*
%MOMM*%
%LPD*%
G01*
G04 APERTURE LIST*
%TA.AperFunction,ComponentPad*%
%ADD10C,1.324000*%
%TD*%
%TA.AperFunction,ComponentPad*%
%ADD11O,1.424000X2.524000*%
%TD*%
%TA.AperFunction,ComponentPad*%
%ADD12R,1.600000X1.600000*%
%TD*%
%TA.AperFunction,ComponentPad*%
%ADD13O,1.600000X1.600000*%
%TD*%
%TA.AperFunction,ComponentPad*%
%ADD14C,1.524000*%
%TD*%
%TA.AperFunction,ComponentPad*%
%ADD15R,1.800000X1.800000*%
%TD*%
%TA.AperFunction,ComponentPad*%
%ADD16C,1.800000*%
%TD*%
%TA.AperFunction,ComponentPad*%
%ADD17C,2.000000*%
%TD*%
%TA.AperFunction,ComponentPad*%
%ADD18R,2.000000X2.000000*%
%TD*%
%TA.AperFunction,ViaPad*%
%ADD19C,0.800000*%
%TD*%
%TA.AperFunction,Conductor*%
%ADD20C,0.250000*%
%TD*%
G04 APERTURE END LIST*
D10*
%TO.P,U3,1,X*%
%TO.N,unconnected-(U3-X-Pad1)*%
X124732000Y-30120000D03*
%TO.P,U3,2,PI*%
%TO.N,Net-(U1-Power)*%
X122700000Y-30120000D03*
%TO.P,U3,3,PO*%
%TO.N,Net-(A1-VIN)*%
X120668000Y-30120000D03*
D11*
%TO.P,U3,4*%
%TO.N,N/C*%
X126891000Y-30120000D03*
%TO.P,U3,5*%
X118509000Y-30120000D03*
%TD*%
D12*
%TO.P,A1,1,D1/TX*%
%TO.N,unconnected-(A1-D1{slash}TX-Pad1)*%
X114600000Y-72600000D03*
D13*
%TO.P,A1,2,D0/RX*%
%TO.N,Net-(A1-D0{slash}RX)*%
X114600000Y-70060000D03*
%TO.P,A1,3,~{RESET}*%
%TO.N,unconnected-(A1-~{RESET}-Pad3)*%
X114600000Y-67520000D03*
%TO.P,A1,4,GND*%
%TO.N,GND*%
X114600000Y-64980000D03*
%TO.P,A1,5,D2*%
%TO.N,unconnected-(A1-D2-Pad5)*%
X114600000Y-62440000D03*
%TO.P,A1,6,D3*%
%TO.N,unconnected-(A1-D3-Pad6)*%
X114600000Y-59900000D03*
%TO.P,A1,7,D4*%
%TO.N,unconnected-(A1-D4-Pad7)*%
X114600000Y-57360000D03*
%TO.P,A1,8,D5*%
%TO.N,Net-(A1-D5)*%
X114600000Y-54820000D03*
%TO.P,A1,9,D6*%
%TO.N,unconnected-(A1-D6-Pad9)*%
X114600000Y-52280000D03*
%TO.P,A1,10,D7*%
%TO.N,Net-(A1-D7)*%
X114600000Y-49740000D03*
%TO.P,A1,11,D8*%
%TO.N,unconnected-(A1-D8-Pad11)*%
X114600000Y-47200000D03*
%TO.P,A1,12,D9*%
%TO.N,unconnected-(A1-D9-Pad12)*%
X114600000Y-44660000D03*
%TO.P,A1,13,D10*%
%TO.N,Net-(A1-D10)*%
X114600000Y-42120000D03*
%TO.P,A1,14,D11*%
%TO.N,Net-(A1-D11)*%
X114600000Y-39580000D03*
%TO.P,A1,15,D12*%
%TO.N,Net-(A1-D12)*%
X114600000Y-37040000D03*
%TO.P,A1,16,D13*%
%TO.N,Net-(A1-D13)*%
X99360000Y-37040000D03*
%TO.P,A1,17,3V3*%
%TO.N,Net-(A1-3V3)*%
X99360000Y-39580000D03*
%TO.P,A1,18,AREF*%
%TO.N,unconnected-(A1-AREF-Pad18)*%
X99360000Y-42120000D03*
%TO.P,A1,19,A0*%
%TO.N,Net-(A1-A0)*%
X99360000Y-44660000D03*
%TO.P,A1,20,A1*%
%TO.N,Net-(A1-A1)*%
X99360000Y-47200000D03*
%TO.P,A1,21,A2*%
%TO.N,unconnected-(A1-A2-Pad21)*%
X99360000Y-49740000D03*
%TO.P,A1,22,A3*%
%TO.N,unconnected-(A1-A3-Pad22)*%
X99360000Y-52280000D03*
%TO.P,A1,23,A4*%
%TO.N,Net-(A1-A4)*%
X99360000Y-54820000D03*
%TO.P,A1,24,A5*%
%TO.N,Net-(A1-A5)*%
X99360000Y-57360000D03*
%TO.P,A1,25,A6*%
%TO.N,unconnected-(A1-A6-Pad25)*%
X99360000Y-59900000D03*
%TO.P,A1,26,A7*%
%TO.N,Net-(A1-A7)*%
X99360000Y-62440000D03*
%TO.P,A1,27,+5V*%
%TO.N,Net-(A1-+5V)*%
X99360000Y-64980000D03*
%TO.P,A1,28,~{RESET}*%
%TO.N,unconnected-(A1-~{RESET}-Pad28)*%
X99360000Y-67520000D03*
%TO.P,A1,29,GND*%
%TO.N,GND*%
X99360000Y-70060000D03*
%TO.P,A1,30,VIN*%
%TO.N,Net-(A1-VIN)*%
X99360000Y-72600000D03*
%TD*%
D14*
%TO.P,U7,1,GND*%
%TO.N,GND*%
X110920000Y-78610000D03*
%TO.P,U7,2,+*%
%TO.N,Net-(A1-+5V)*%
X113460000Y-78610000D03*
%TO.P,U7,3,A*%
%TO.N,Net-(A1-A7)*%
X116000000Y-78610000D03*
%TD*%
%TO.P,U4,1,GND*%
%TO.N,GND*%
X101820000Y-78610000D03*
%TO.P,U4,2,+*%
%TO.N,Net-(A1-+5V)*%
X104360000Y-78610000D03*
%TO.P,U4,3,A*%
%TO.N,Net-(A1-A0)*%
X106900000Y-78610000D03*
%TD*%
%TO.P,U5,1,GND*%
%TO.N,GND*%
X120120000Y-78610000D03*
%TO.P,U5,2,+*%
%TO.N,Net-(A1-+5V)*%
X122660000Y-78610000D03*
%TO.P,U5,3,A*%
%TO.N,Net-(A1-A1)*%
X125200000Y-78610000D03*
%TD*%
%TO.P,U8,1,Gnd*%
%TO.N,GND*%
X110320000Y-121410000D03*
%TO.P,U8,2,5V*%
%TO.N,Net-(A1-+5V)*%
X112860000Y-121410000D03*
%TO.P,U8,3,D*%
%TO.N,Net-(A1-D7)*%
X115400000Y-121410000D03*
%TD*%
D15*
%TO.P,D1,1,K*%
%TO.N,Net-(D1-K)*%
X122300000Y-51300000D03*
D16*
%TO.P,D1,2,A*%
%TO.N,Net-(A1-D5)*%
X119760000Y-51300000D03*
%TD*%
D14*
%TO.P,U9,1,3.3v*%
%TO.N,unconnected-(U9-3.3v-Pad1)*%
X125750000Y-116000000D03*
%TO.P,U9,2,EN*%
%TO.N,unconnected-(U9-EN-Pad2)*%
X125750000Y-114000000D03*
%TO.P,U9,3,VBAT*%
%TO.N,unconnected-(U9-VBAT-Pad3)*%
X125750000Y-112000000D03*
%TO.P,U9,4,FIX*%
%TO.N,unconnected-(U9-FIX-Pad4)*%
X125750000Y-110000000D03*
%TO.P,U9,5,TX*%
%TO.N,Net-(A1-D0{slash}RX)*%
X125750000Y-108000000D03*
%TO.P,U9,6,RX*%
%TO.N,unconnected-(U9-RX-Pad6)*%
X125750000Y-106000000D03*
%TO.P,U9,7,GND*%
%TO.N,GND*%
X125750000Y-104000000D03*
%TO.P,U9,8,VIN*%
%TO.N,Net-(A1-+5V)*%
X125750000Y-102000000D03*
%TO.P,U9,9,PPS*%
%TO.N,unconnected-(U9-PPS-Pad9)*%
X125750000Y-100000000D03*
%TD*%
D16*
%TO.P,U2,1,3V*%
%TO.N,Net-(A1-3V3)*%
X107230000Y-92230000D03*
%TO.P,U2,2,CS*%
%TO.N,Net-(A1-D10)*%
X109770000Y-92230000D03*
%TO.P,U2,3,Mosi*%
%TO.N,Net-(A1-D11)*%
X112310000Y-92230000D03*
%TO.P,U2,4,CLK*%
%TO.N,Net-(A1-D13)*%
X114850000Y-92230000D03*
%TO.P,U2,5,Miso*%
%TO.N,Net-(A1-D12)*%
X117390000Y-92230000D03*
%TO.P,U2,6,GND*%
%TO.N,GND*%
X119930000Y-92230000D03*
%TD*%
D17*
%TO.P,U1,1,Power*%
%TO.N,Net-(U1-Power)*%
X109510000Y-30530000D03*
D18*
%TO.P,U1,2,Gnd*%
%TO.N,GND*%
X104700000Y-30530000D03*
%TD*%
D19*
%TO.N,Net-(A1-D13)*%
X101300000Y-100500000D03*
%TO.N,Net-(A1-D7)*%
X103700000Y-106700000D03*
%TO.N,GND*%
X101500000Y-34500000D03*
X106600000Y-31800000D03*
X114000000Y-28800000D03*
X126500000Y-57400000D03*
X120700000Y-121900000D03*
X101700000Y-29000000D03*
X123300000Y-119500000D03*
X107800000Y-86000000D03*
X118800000Y-107100000D03*
X113600000Y-84800000D03*
X114100000Y-31200000D03*
X99600000Y-32100000D03*
X112100000Y-61600000D03*
X127700000Y-48300000D03*
X126800000Y-117100000D03*
X101600000Y-94500000D03*
X109100000Y-74600000D03*
X118100000Y-71800000D03*
X101700000Y-44100000D03*
X99400000Y-118500000D03*
X126100000Y-75200000D03*
%TO.N,Net-(A1-A1)*%
X108700000Y-53800000D03*
X108800000Y-57800000D03*
X108900000Y-69200000D03*
%TO.N,Net-(A1-A5)*%
X111400000Y-47400000D03*
X104300000Y-56800000D03*
%TO.N,Net-(A1-A7)*%
X105800000Y-68300000D03*
X105800000Y-74100000D03*
%TO.N,Net-(A1-3V3)*%
X107800000Y-55100000D03*
X103100000Y-71400000D03*
X100900000Y-81800000D03*
%TO.N,Net-(A1-D11)*%
X104000000Y-65000000D03*
X104600000Y-75900000D03*
X101600000Y-53600000D03*
X103800000Y-52200000D03*
X108800000Y-80700000D03*
%TO.N,Net-(A1-D10)*%
X112600000Y-45600000D03*
X118200000Y-83700000D03*
%TO.N,Net-(A1-A0)*%
X105100000Y-60700000D03*
%TO.N,Net-(A1-A4)*%
X106500000Y-54500000D03*
X111500000Y-49400000D03*
%TD*%
D20*
%TO.N,Net-(A1-D13)*%
X99360000Y-37040000D02*
X97600000Y-38800000D01*
X97600000Y-38800000D02*
X97600000Y-96800000D01*
X97600000Y-96800000D02*
X98234999Y-97434999D01*
X98234999Y-97434999D02*
X101300000Y-100500000D01*
%TO.N,Net-(A1-D7)*%
X103700000Y-106700000D02*
X103700000Y-100300000D01*
X110000000Y-55400000D02*
X111800000Y-53600000D01*
X112760000Y-49740000D02*
X114600000Y-49740000D01*
X110000000Y-65900000D02*
X110000000Y-55400000D01*
X99644263Y-96244263D02*
X99644263Y-76255737D01*
X103700000Y-100300000D02*
X99644263Y-96244263D01*
X111800000Y-53600000D02*
X111800000Y-50700000D01*
X99644263Y-76255737D02*
X110000000Y-65900000D01*
X111800000Y-50700000D02*
X112760000Y-49740000D01*
%TO.N,Net-(A1-A1)*%
X121290000Y-74700000D02*
X111400000Y-74700000D01*
X125200000Y-78610000D02*
X121290000Y-74700000D01*
X108900000Y-72200000D02*
X108900000Y-69200000D01*
X108800000Y-53900000D02*
X108700000Y-53800000D01*
X108800000Y-57800000D02*
X108800000Y-53900000D01*
X111400000Y-74700000D02*
X108900000Y-72200000D01*
%TO.N,Net-(A1-A5)*%
X111400000Y-47400000D02*
X104300000Y-54500000D01*
X104300000Y-54500000D02*
X104300000Y-56800000D01*
%TO.N,Net-(A1-A7)*%
X115000000Y-75800000D02*
X116000000Y-76800000D01*
X106400000Y-75800000D02*
X115000000Y-75800000D01*
X102900000Y-68300000D02*
X105800000Y-68300000D01*
X105800000Y-74100000D02*
X105800000Y-75200000D01*
X101700000Y-67100000D02*
X102900000Y-68300000D01*
X105800000Y-75200000D02*
X106400000Y-75800000D01*
X116000000Y-76800000D02*
X116000000Y-78610000D01*
X99360000Y-62440000D02*
X101700000Y-64780000D01*
X101700000Y-64780000D02*
X101700000Y-67100000D01*
%TO.N,Net-(A1-D12)*%
X124000000Y-85600000D02*
X119800000Y-85600000D01*
X114600000Y-37040000D02*
X115740000Y-37040000D01*
X116900000Y-48000000D02*
X117400000Y-48500000D01*
X119800000Y-85600000D02*
X117390000Y-88010000D01*
X117400000Y-48500000D02*
X125400000Y-48500000D01*
X116900000Y-38200000D02*
X116900000Y-48000000D01*
X127700000Y-81900000D02*
X124000000Y-85600000D01*
X127700000Y-50800000D02*
X127700000Y-81900000D01*
X115740000Y-37040000D02*
X116900000Y-38200000D01*
X117390000Y-88010000D02*
X117390000Y-92230000D01*
X125400000Y-48500000D02*
X127700000Y-50800000D01*
%TO.N,Net-(A1-3V3)*%
X103773002Y-71400000D02*
X106900000Y-68273002D01*
X103100000Y-71400000D02*
X103773002Y-71400000D01*
X106900000Y-68273002D02*
X106900000Y-56000000D01*
X106900000Y-56000000D02*
X107800000Y-55100000D01*
X107230000Y-92230000D02*
X107230000Y-88130000D01*
X107230000Y-88130000D02*
X100900000Y-81800000D01*
%TO.N,Net-(A1-+5V)*%
X113460000Y-78610000D02*
X113460000Y-81740000D01*
X113300000Y-81900000D02*
X107650000Y-81900000D01*
X116650000Y-81800000D02*
X113460000Y-78610000D01*
X122660000Y-80140000D02*
X121000000Y-81800000D01*
X113460000Y-81740000D02*
X113300000Y-81900000D01*
X107650000Y-81900000D02*
X104360000Y-78610000D01*
X122660000Y-78610000D02*
X122660000Y-80140000D01*
X121000000Y-81800000D02*
X116650000Y-81800000D01*
%TO.N,Net-(A1-D11)*%
X101600000Y-53600000D02*
X102150009Y-54150009D01*
X108800000Y-77200000D02*
X108800000Y-80700000D01*
X108200000Y-76600000D02*
X108800000Y-77200000D01*
X102150009Y-63150009D02*
X104000000Y-65000000D01*
X103800000Y-41400000D02*
X105620000Y-39580000D01*
X103800000Y-52200000D02*
X103800000Y-41400000D01*
X105300000Y-76600000D02*
X108200000Y-76600000D01*
X102150009Y-54150009D02*
X102150009Y-63150009D01*
X105620000Y-39580000D02*
X114600000Y-39580000D01*
X104600000Y-75900000D02*
X105300000Y-76600000D01*
%TO.N,Net-(A1-D10)*%
X112600000Y-45600000D02*
X112600000Y-44120000D01*
X118200000Y-83800000D02*
X118200000Y-83700000D01*
X109770000Y-92230000D02*
X118200000Y-83800000D01*
X112600000Y-44120000D02*
X114600000Y-42120000D01*
%TO.N,Net-(A1-D5)*%
X116240000Y-54820000D02*
X119760000Y-51300000D01*
X114600000Y-54820000D02*
X116240000Y-54820000D01*
%TO.N,Net-(A1-A0)*%
X105100000Y-60700000D02*
X102800000Y-58400000D01*
X102800000Y-48100000D02*
X99360000Y-44660000D01*
X102800000Y-58400000D02*
X102800000Y-48100000D01*
%TO.N,Net-(A1-A4)*%
X111500000Y-49400000D02*
X106500000Y-54400000D01*
X106500000Y-54400000D02*
X106500000Y-54500000D01*
%TO.N,Net-(U1-Power)*%
X122700000Y-32400000D02*
X122700000Y-30120000D01*
X109200000Y-30200000D02*
X112500000Y-33500000D01*
X112500000Y-33500000D02*
X121600000Y-33500000D01*
X121600000Y-33500000D02*
X122700000Y-32400000D01*
%TD*%
%TA.AperFunction,Conductor*%
%TO.N,GND*%
G36*
X129716621Y-27045502D02*
G01*
X129763114Y-27099158D01*
X129774500Y-27151500D01*
X129774500Y-124048500D01*
X129754498Y-124116621D01*
X129700842Y-124163114D01*
X129648500Y-124174500D01*
X97351500Y-124174500D01*
X97283379Y-124154498D01*
X97236886Y-124100842D01*
X97225500Y-124048500D01*
X97225500Y-121850000D01*
X99969783Y-121850000D01*
X99988623Y-122089379D01*
X100006331Y-122163140D01*
X100044676Y-122322861D01*
X100044677Y-122322863D01*
X100136567Y-122544704D01*
X100136568Y-122544705D01*
X100262025Y-122749435D01*
X100262030Y-122749442D01*
X100417972Y-122932027D01*
X100596381Y-123084402D01*
X100600561Y-123087972D01*
X100805296Y-123213433D01*
X101027137Y-123305323D01*
X101260621Y-123361377D01*
X101500000Y-123380217D01*
X101739379Y-123361377D01*
X101972863Y-123305323D01*
X102194704Y-123213433D01*
X102399439Y-123087972D01*
X102582027Y-122932027D01*
X102737972Y-122749439D01*
X102863433Y-122544704D01*
X102955323Y-122322863D01*
X103011377Y-122089379D01*
X103030217Y-121850000D01*
X103011377Y-121610621D01*
X102963213Y-121410000D01*
X109045149Y-121410000D01*
X109064517Y-121631374D01*
X109122031Y-121846023D01*
X109122033Y-121846027D01*
X109215946Y-122047425D01*
X109260184Y-122110603D01*
X109260185Y-122110603D01*
X109835841Y-121534947D01*
X109854075Y-121602993D01*
X109919901Y-121717007D01*
X110012993Y-121810099D01*
X110127007Y-121875925D01*
X110195051Y-121894157D01*
X109619395Y-122469813D01*
X109619395Y-122469814D01*
X109682575Y-122514053D01*
X109682574Y-122514053D01*
X109883972Y-122607966D01*
X109883976Y-122607968D01*
X110098625Y-122665482D01*
X110320000Y-122684850D01*
X110541374Y-122665482D01*
X110756023Y-122607968D01*
X110756027Y-122607966D01*
X110957425Y-122514053D01*
X110957426Y-122514052D01*
X111020603Y-122469814D01*
X111020603Y-122469812D01*
X110444948Y-121894157D01*
X110512993Y-121875925D01*
X110627007Y-121810099D01*
X110720099Y-121717007D01*
X110785925Y-121602993D01*
X110804157Y-121534948D01*
X111379812Y-122110603D01*
X111379814Y-122110603D01*
X111424052Y-122047426D01*
X111424053Y-122047425D01*
X111475529Y-121937035D01*
X111522446Y-121883750D01*
X111590723Y-121864289D01*
X111658683Y-121884831D01*
X111703919Y-121937035D01*
X111755511Y-122047675D01*
X111755512Y-122047677D01*
X111883016Y-122229772D01*
X111883020Y-122229777D01*
X111883023Y-122229781D01*
X112040219Y-122386977D01*
X112040223Y-122386980D01*
X112040227Y-122386983D01*
X112144124Y-122459732D01*
X112222323Y-122514488D01*
X112423804Y-122608440D01*
X112638537Y-122665978D01*
X112860000Y-122685353D01*
X113081463Y-122665978D01*
X113296196Y-122608440D01*
X113497677Y-122514488D01*
X113679781Y-122386977D01*
X113836977Y-122229781D01*
X113964488Y-122047677D01*
X114015805Y-121937626D01*
X114062722Y-121884342D01*
X114130999Y-121864881D01*
X114198959Y-121885423D01*
X114244195Y-121937627D01*
X114295511Y-122047675D01*
X114295512Y-122047677D01*
X114423016Y-122229772D01*
X114423020Y-122229777D01*
X114423023Y-122229781D01*
X114580219Y-122386977D01*
X114580223Y-122386980D01*
X114580227Y-122386983D01*
X114684124Y-122459732D01*
X114762323Y-122514488D01*
X114963804Y-122608440D01*
X115178537Y-122665978D01*
X115400000Y-122685353D01*
X115621463Y-122665978D01*
X115836196Y-122608440D01*
X116037677Y-122514488D01*
X116219781Y-122386977D01*
X116376977Y-122229781D01*
X116504488Y-122047677D01*
X116596666Y-121850000D01*
X123969783Y-121850000D01*
X123988623Y-122089379D01*
X124006331Y-122163140D01*
X124044676Y-122322861D01*
X124044677Y-122322863D01*
X124136567Y-122544704D01*
X124136568Y-122544705D01*
X124262025Y-122749435D01*
X124262030Y-122749442D01*
X124417972Y-122932027D01*
X124596381Y-123084402D01*
X124600561Y-123087972D01*
X124805296Y-123213433D01*
X125027137Y-123305323D01*
X125260621Y-123361377D01*
X125500000Y-123380217D01*
X125739379Y-123361377D01*
X125972863Y-123305323D01*
X126194704Y-123213433D01*
X126399439Y-123087972D01*
X126582027Y-122932027D01*
X126737972Y-122749439D01*
X126863433Y-122544704D01*
X126955323Y-122322863D01*
X127011377Y-122089379D01*
X127030217Y-121850000D01*
X127011377Y-121610621D01*
X126955323Y-121377137D01*
X126863433Y-121155296D01*
X126752318Y-120973972D01*
X126737974Y-120950564D01*
X126737969Y-120950557D01*
X126582027Y-120767972D01*
X126399442Y-120612030D01*
X126399435Y-120612025D01*
X126216122Y-120499692D01*
X126194704Y-120486567D01*
X125972863Y-120394677D01*
X125972861Y-120394676D01*
X125813140Y-120356331D01*
X125739379Y-120338623D01*
X125500000Y-120319783D01*
X125260621Y-120338623D01*
X125027138Y-120394676D01*
X124805294Y-120486568D01*
X124600564Y-120612025D01*
X124600557Y-120612030D01*
X124417972Y-120767972D01*
X124262030Y-120950557D01*
X124262025Y-120950564D01*
X124136568Y-121155294D01*
X124044676Y-121377138D01*
X124022098Y-121471186D01*
X123988623Y-121610621D01*
X123969783Y-121850000D01*
X116596666Y-121850000D01*
X116598440Y-121846196D01*
X116655978Y-121631463D01*
X116675353Y-121410000D01*
X116655978Y-121188537D01*
X116598440Y-120973804D01*
X116504488Y-120772324D01*
X116376977Y-120590219D01*
X116219781Y-120433023D01*
X116219777Y-120433020D01*
X116219772Y-120433016D01*
X116037677Y-120305512D01*
X116037675Y-120305511D01*
X115836199Y-120211561D01*
X115836193Y-120211559D01*
X115794074Y-120200273D01*
X115621463Y-120154022D01*
X115400000Y-120134647D01*
X115178537Y-120154022D01*
X115063463Y-120184856D01*
X114963806Y-120211559D01*
X114963801Y-120211561D01*
X114762323Y-120305512D01*
X114580222Y-120433020D01*
X114580216Y-120433025D01*
X114423025Y-120590216D01*
X114423020Y-120590222D01*
X114295512Y-120772323D01*
X114244195Y-120882373D01*
X114197277Y-120935658D01*
X114129000Y-120955119D01*
X114061040Y-120934577D01*
X114015805Y-120882373D01*
X113964603Y-120772571D01*
X113964488Y-120772324D01*
X113836977Y-120590219D01*
X113679781Y-120433023D01*
X113679777Y-120433020D01*
X113679772Y-120433016D01*
X113497677Y-120305512D01*
X113497675Y-120305511D01*
X113296199Y-120211561D01*
X113296193Y-120211559D01*
X113254074Y-120200273D01*
X113081463Y-120154022D01*
X112860000Y-120134647D01*
X112638537Y-120154022D01*
X112523463Y-120184856D01*
X112423806Y-120211559D01*
X112423801Y-120211561D01*
X112222323Y-120305512D01*
X112040222Y-120433020D01*
X112040216Y-120433025D01*
X111883025Y-120590216D01*
X111883020Y-120590222D01*
X111755512Y-120772323D01*
X111703919Y-120882965D01*
X111657002Y-120936250D01*
X111588724Y-120955711D01*
X111520764Y-120935169D01*
X111475529Y-120882965D01*
X111424051Y-120772571D01*
X111379815Y-120709395D01*
X111379813Y-120709395D01*
X110804157Y-121285051D01*
X110785925Y-121217007D01*
X110720099Y-121102993D01*
X110627007Y-121009901D01*
X110512993Y-120944075D01*
X110444947Y-120925841D01*
X111020603Y-120350185D01*
X111020603Y-120350184D01*
X110957425Y-120305946D01*
X110756027Y-120212033D01*
X110756023Y-120212031D01*
X110541374Y-120154517D01*
X110320000Y-120135149D01*
X110098625Y-120154517D01*
X109883976Y-120212031D01*
X109883972Y-120212033D01*
X109682575Y-120305946D01*
X109619394Y-120350185D01*
X110195051Y-120925842D01*
X110127007Y-120944075D01*
X110012993Y-121009901D01*
X109919901Y-121102993D01*
X109854075Y-121217007D01*
X109835842Y-121285051D01*
X109260185Y-120709394D01*
X109215946Y-120772575D01*
X109122033Y-120973972D01*
X109122031Y-120973976D01*
X109064517Y-121188625D01*
X109045149Y-121410000D01*
X102963213Y-121410000D01*
X102955323Y-121377137D01*
X102863433Y-121155296D01*
X102752318Y-120973972D01*
X102737974Y-120950564D01*
X102737969Y-120950557D01*
X102582027Y-120767972D01*
X102399442Y-120612030D01*
X102399435Y-120612025D01*
X102216122Y-120499692D01*
X102194704Y-120486567D01*
X101972863Y-120394677D01*
X101972861Y-120394676D01*
X101813140Y-120356331D01*
X101739379Y-120338623D01*
X101500000Y-120319783D01*
X101260621Y-120338623D01*
X101027138Y-120394676D01*
X100805294Y-120486568D01*
X100600564Y-120612025D01*
X100600557Y-120612030D01*
X100417972Y-120767972D01*
X100262030Y-120950557D01*
X100262025Y-120950564D01*
X100136568Y-121155294D01*
X100044676Y-121377138D01*
X100022098Y-121471186D01*
X99988623Y-121610621D01*
X99969783Y-121850000D01*
X97225500Y-121850000D01*
X97225500Y-97625594D01*
X97245502Y-97557473D01*
X97299158Y-97510980D01*
X97369432Y-97500876D01*
X97434012Y-97530370D01*
X97440595Y-97536499D01*
X100352877Y-100448781D01*
X100386903Y-100511093D01*
X100389092Y-100524705D01*
X100406457Y-100689927D01*
X100436526Y-100782470D01*
X100465473Y-100871556D01*
X100465476Y-100871561D01*
X100560958Y-101036941D01*
X100560965Y-101036951D01*
X100688744Y-101178864D01*
X100688747Y-101178866D01*
X100843248Y-101291118D01*
X101017712Y-101368794D01*
X101204513Y-101408500D01*
X101395487Y-101408500D01*
X101582288Y-101368794D01*
X101756752Y-101291118D01*
X101911253Y-101178866D01*
X102039040Y-101036944D01*
X102134527Y-100871556D01*
X102193542Y-100689928D01*
X102213504Y-100500000D01*
X102193542Y-100310072D01*
X102134527Y-100128444D01*
X102039040Y-99963056D01*
X102039038Y-99963054D01*
X102039034Y-99963048D01*
X101911255Y-99821135D01*
X101756752Y-99708882D01*
X101582288Y-99631206D01*
X101395487Y-99591500D01*
X101339594Y-99591500D01*
X101271473Y-99571498D01*
X101250499Y-99554595D01*
X98270405Y-96574501D01*
X98236379Y-96512189D01*
X98233500Y-96485406D01*
X98233500Y-73628188D01*
X98253502Y-73560067D01*
X98307158Y-73513574D01*
X98377432Y-73503470D01*
X98442012Y-73532964D01*
X98448595Y-73539093D01*
X98515700Y-73606198D01*
X98703251Y-73737523D01*
X98910757Y-73834284D01*
X99131913Y-73893543D01*
X99360000Y-73913498D01*
X99588087Y-73893543D01*
X99809243Y-73834284D01*
X100016749Y-73737523D01*
X100204300Y-73606198D01*
X100366198Y-73444300D01*
X100497523Y-73256749D01*
X100594284Y-73049243D01*
X100653543Y-72828087D01*
X100673498Y-72600000D01*
X100653543Y-72371913D01*
X100594284Y-72150757D01*
X100497523Y-71943251D01*
X100366198Y-71755700D01*
X100204300Y-71593802D01*
X100198767Y-71589928D01*
X100016749Y-71462477D01*
X99976951Y-71443919D01*
X99923666Y-71397002D01*
X99904205Y-71328725D01*
X99924747Y-71260765D01*
X99976951Y-71215529D01*
X100016498Y-71197087D01*
X100203974Y-71065815D01*
X100203980Y-71065810D01*
X100365810Y-70903980D01*
X100365815Y-70903974D01*
X100497087Y-70716498D01*
X100593811Y-70509073D01*
X100593813Y-70509068D01*
X100646082Y-70314000D01*
X99790703Y-70314000D01*
X99825925Y-70252993D01*
X99860000Y-70125826D01*
X99860000Y-69994174D01*
X99825925Y-69867007D01*
X99790703Y-69806000D01*
X100646082Y-69806000D01*
X100593813Y-69610931D01*
X100593811Y-69610926D01*
X100497087Y-69403501D01*
X100365815Y-69216025D01*
X100365810Y-69216019D01*
X100203980Y-69054189D01*
X100203974Y-69054184D01*
X100016497Y-68922911D01*
X99976949Y-68904469D01*
X99923665Y-68857551D01*
X99904205Y-68789273D01*
X99924748Y-68721314D01*
X99976950Y-68676081D01*
X100016749Y-68657523D01*
X100204300Y-68526198D01*
X100366198Y-68364300D01*
X100497523Y-68176749D01*
X100594284Y-67969243D01*
X100653543Y-67748087D01*
X100673498Y-67520000D01*
X100653543Y-67291913D01*
X100594284Y-67070757D01*
X100497523Y-66863251D01*
X100366198Y-66675700D01*
X100204300Y-66513802D01*
X100016749Y-66382477D01*
X99977543Y-66364195D01*
X99924258Y-66317279D01*
X99904796Y-66249002D01*
X99925337Y-66181042D01*
X99977543Y-66135805D01*
X99979997Y-66134660D01*
X100016749Y-66117523D01*
X100204300Y-65986198D01*
X100366198Y-65824300D01*
X100497523Y-65636749D01*
X100594284Y-65429243D01*
X100653543Y-65208087D01*
X100673498Y-64980000D01*
X100671973Y-64962570D01*
X100685960Y-64892966D01*
X100735358Y-64841973D01*
X100804484Y-64825781D01*
X100871390Y-64849532D01*
X100886588Y-64862492D01*
X101029595Y-65005499D01*
X101063621Y-65067811D01*
X101066500Y-65094594D01*
X101066500Y-67162396D01*
X101069086Y-67175394D01*
X101090845Y-67284785D01*
X101138600Y-67400075D01*
X101207929Y-67503833D01*
X102496167Y-68792071D01*
X102599925Y-68861400D01*
X102715215Y-68909155D01*
X102837606Y-68933500D01*
X102962393Y-68933500D01*
X105039407Y-68933500D01*
X105107528Y-68953502D01*
X105154021Y-69007158D01*
X105164125Y-69077432D01*
X105134631Y-69142012D01*
X105128502Y-69148595D01*
X103695110Y-70581986D01*
X103632798Y-70616012D01*
X103561982Y-70610947D01*
X103554766Y-70607998D01*
X103382288Y-70531206D01*
X103195487Y-70491500D01*
X103004513Y-70491500D01*
X102817711Y-70531206D01*
X102643247Y-70608882D01*
X102488744Y-70721135D01*
X102360965Y-70863048D01*
X102360958Y-70863058D01*
X102265476Y-71028438D01*
X102265473Y-71028445D01*
X102206457Y-71210072D01*
X102186496Y-71400000D01*
X102206457Y-71589927D01*
X102229521Y-71660907D01*
X102265473Y-71771556D01*
X102265476Y-71771561D01*
X102360958Y-71936941D01*
X102360965Y-71936951D01*
X102488744Y-72078864D01*
X102622202Y-72175827D01*
X102665556Y-72232049D01*
X102671631Y-72302785D01*
X102638500Y-72365577D01*
X102637236Y-72366858D01*
X99240430Y-75763666D01*
X99152194Y-75851901D01*
X99152189Y-75851908D01*
X99109414Y-75915926D01*
X99082863Y-75955662D01*
X99035108Y-76070952D01*
X99025291Y-76120305D01*
X99010763Y-76193340D01*
X99010763Y-76193343D01*
X99010763Y-96181869D01*
X99010763Y-96306657D01*
X99035108Y-96429048D01*
X99082863Y-96544338D01*
X99152192Y-96648096D01*
X99152194Y-96648098D01*
X103029595Y-100525499D01*
X103063621Y-100587811D01*
X103066500Y-100614594D01*
X103066500Y-105997474D01*
X103046498Y-106065595D01*
X103034137Y-106081784D01*
X102960957Y-106163059D01*
X102865476Y-106328438D01*
X102865473Y-106328445D01*
X102806457Y-106510072D01*
X102786496Y-106700000D01*
X102806457Y-106889927D01*
X102827916Y-106955968D01*
X102865473Y-107071556D01*
X102865476Y-107071561D01*
X102960958Y-107236941D01*
X102960965Y-107236951D01*
X103088744Y-107378864D01*
X103088747Y-107378866D01*
X103243248Y-107491118D01*
X103417712Y-107568794D01*
X103604513Y-107608500D01*
X103795487Y-107608500D01*
X103982288Y-107568794D01*
X104156752Y-107491118D01*
X104311253Y-107378866D01*
X104311255Y-107378864D01*
X104439034Y-107236951D01*
X104439035Y-107236949D01*
X104439040Y-107236944D01*
X104534527Y-107071556D01*
X104593542Y-106889928D01*
X104613504Y-106700000D01*
X104593542Y-106510072D01*
X104534527Y-106328444D01*
X104439040Y-106163056D01*
X104365863Y-106081784D01*
X104335146Y-106017776D01*
X104333500Y-105997474D01*
X104333500Y-100237607D01*
X104333499Y-100237603D01*
X104309155Y-100115215D01*
X104261431Y-100000000D01*
X124474647Y-100000000D01*
X124494022Y-100221463D01*
X124517765Y-100310072D01*
X124551559Y-100436193D01*
X124551561Y-100436199D01*
X124645511Y-100637675D01*
X124645512Y-100637677D01*
X124773016Y-100819772D01*
X124773020Y-100819777D01*
X124773023Y-100819781D01*
X124824796Y-100871554D01*
X124864147Y-100910905D01*
X124898172Y-100973217D01*
X124893106Y-101044033D01*
X124864147Y-101089095D01*
X124773020Y-101180222D01*
X124645512Y-101362323D01*
X124551561Y-101563801D01*
X124551560Y-101563804D01*
X124494022Y-101778537D01*
X124474647Y-102000000D01*
X124494022Y-102221463D01*
X124540273Y-102394074D01*
X124551559Y-102436193D01*
X124551561Y-102436199D01*
X124645511Y-102637675D01*
X124645512Y-102637677D01*
X124773016Y-102819772D01*
X124773020Y-102819777D01*
X124773023Y-102819781D01*
X124930219Y-102976977D01*
X124930222Y-102976979D01*
X124930227Y-102976983D01*
X125034124Y-103049732D01*
X125112323Y-103104488D01*
X125282140Y-103183675D01*
X125317985Y-103208774D01*
X125728210Y-103619000D01*
X125699840Y-103619000D01*
X125602939Y-103644964D01*
X125516060Y-103695124D01*
X125445124Y-103766060D01*
X125394964Y-103852939D01*
X125369000Y-103949840D01*
X125369000Y-103978209D01*
X124690185Y-103299394D01*
X124645946Y-103362575D01*
X124552033Y-103563972D01*
X124552031Y-103563976D01*
X124494517Y-103778625D01*
X124475149Y-104000000D01*
X124494517Y-104221374D01*
X124552031Y-104436023D01*
X124552033Y-104436027D01*
X124645946Y-104637425D01*
X124690184Y-104700603D01*
X124690185Y-104700603D01*
X125369000Y-104021788D01*
X125369000Y-104050160D01*
X125394964Y-104147061D01*
X125445124Y-104233940D01*
X125516060Y-104304876D01*
X125602939Y-104355036D01*
X125699840Y-104381000D01*
X125728210Y-104381000D01*
X125317981Y-104791227D01*
X125282137Y-104816325D01*
X125112325Y-104895510D01*
X124930222Y-105023020D01*
X124930216Y-105023025D01*
X124773025Y-105180216D01*
X124773020Y-105180222D01*
X124645512Y-105362323D01*
X124645512Y-105362324D01*
X124551560Y-105563804D01*
X124494022Y-105778537D01*
X124474647Y-106000000D01*
X124494022Y-106221463D01*
X124522686Y-106328438D01*
X124551559Y-106436193D01*
X124551561Y-106436199D01*
X124645511Y-106637675D01*
X124645512Y-106637677D01*
X124773016Y-106819772D01*
X124773020Y-106819777D01*
X124773023Y-106819781D01*
X124843169Y-106889927D01*
X124864147Y-106910905D01*
X124898172Y-106973217D01*
X124893106Y-107044033D01*
X124864147Y-107089095D01*
X124773020Y-107180222D01*
X124645512Y-107362323D01*
X124551561Y-107563801D01*
X124551559Y-107563806D01*
X124524856Y-107663463D01*
X124494022Y-107778537D01*
X124474647Y-108000000D01*
X124494022Y-108221463D01*
X124540273Y-108394074D01*
X124551559Y-108436193D01*
X124551561Y-108436199D01*
X124645511Y-108637675D01*
X124645512Y-108637677D01*
X124773016Y-108819772D01*
X124773020Y-108819777D01*
X124773023Y-108819781D01*
X124864147Y-108910905D01*
X124898172Y-108973217D01*
X124893106Y-109044033D01*
X124864147Y-109089095D01*
X124773020Y-109180222D01*
X124645512Y-109362323D01*
X124645512Y-109362324D01*
X124551560Y-109563804D01*
X124494022Y-109778537D01*
X124474647Y-110000000D01*
X124494022Y-110221463D01*
X124540273Y-110394074D01*
X124551559Y-110436193D01*
X124551561Y-110436199D01*
X124645511Y-110637675D01*
X124645512Y-110637677D01*
X124773016Y-110819772D01*
X124773020Y-110819777D01*
X124773023Y-110819781D01*
X124864147Y-110910905D01*
X124898172Y-110973217D01*
X124893106Y-111044033D01*
X124864147Y-111089095D01*
X124773020Y-111180222D01*
X124645512Y-111362323D01*
X124645512Y-111362324D01*
X124551560Y-111563804D01*
X124494022Y-111778537D01*
X124474647Y-112000000D01*
X124494022Y-112221463D01*
X124540273Y-112394074D01*
X124551559Y-112436193D01*
X124551561Y-112436199D01*
X124645511Y-112637675D01*
X124645512Y-112637677D01*
X124773016Y-112819772D01*
X124773020Y-112819777D01*
X124773023Y-112819781D01*
X124864147Y-112910905D01*
X124898172Y-112973217D01*
X124893106Y-113044033D01*
X124864147Y-113089095D01*
X124773020Y-113180222D01*
X124645512Y-113362323D01*
X124645512Y-113362324D01*
X124551560Y-113563804D01*
X124494022Y-113778537D01*
X124474647Y-114000000D01*
X124494022Y-114221463D01*
X124540273Y-114394074D01*
X124551559Y-114436193D01*
X124551561Y-114436199D01*
X124645511Y-114637675D01*
X124645512Y-114637677D01*
X124773016Y-114819772D01*
X124773020Y-114819777D01*
X124773023Y-114819781D01*
X124864147Y-114910905D01*
X124898172Y-114973217D01*
X124893106Y-115044033D01*
X124864147Y-115089095D01*
X124773020Y-115180222D01*
X124645512Y-115362323D01*
X124645512Y-115362324D01*
X124551560Y-115563804D01*
X124494022Y-115778537D01*
X124474647Y-116000000D01*
X124494022Y-116221463D01*
X124540273Y-116394074D01*
X124551559Y-116436193D01*
X124551561Y-116436199D01*
X124645511Y-116637675D01*
X124645512Y-116637677D01*
X124773016Y-116819772D01*
X124773020Y-116819777D01*
X124773023Y-116819781D01*
X124930219Y-116976977D01*
X124930223Y-116976980D01*
X124930227Y-116976983D01*
X125034124Y-117049732D01*
X125112323Y-117104488D01*
X125313804Y-117198440D01*
X125528537Y-117255978D01*
X125750000Y-117275353D01*
X125971463Y-117255978D01*
X126186196Y-117198440D01*
X126387677Y-117104488D01*
X126569781Y-116976977D01*
X126726977Y-116819781D01*
X126854488Y-116637677D01*
X126948440Y-116436196D01*
X127005978Y-116221463D01*
X127025353Y-116000000D01*
X127005978Y-115778537D01*
X126948440Y-115563804D01*
X126854488Y-115362324D01*
X126726977Y-115180219D01*
X126635853Y-115089095D01*
X126601827Y-115026783D01*
X126606892Y-114955968D01*
X126635853Y-114910905D01*
X126726977Y-114819781D01*
X126854488Y-114637677D01*
X126948440Y-114436196D01*
X127005978Y-114221463D01*
X127025353Y-114000000D01*
X127005978Y-113778537D01*
X126948440Y-113563804D01*
X126854488Y-113362324D01*
X126726977Y-113180219D01*
X126635853Y-113089095D01*
X126601827Y-113026783D01*
X126606892Y-112955968D01*
X126635853Y-112910905D01*
X126726977Y-112819781D01*
X126854488Y-112637677D01*
X126948440Y-112436196D01*
X127005978Y-112221463D01*
X127025353Y-112000000D01*
X127005978Y-111778537D01*
X126948440Y-111563804D01*
X126854488Y-111362324D01*
X126726977Y-111180219D01*
X126635853Y-111089095D01*
X126601827Y-111026783D01*
X126606892Y-110955968D01*
X126635853Y-110910905D01*
X126726977Y-110819781D01*
X126854488Y-110637677D01*
X126948440Y-110436196D01*
X127005978Y-110221463D01*
X127025353Y-110000000D01*
X127005978Y-109778537D01*
X126948440Y-109563804D01*
X126854488Y-109362324D01*
X126726977Y-109180219D01*
X126635853Y-109089095D01*
X126601827Y-109026783D01*
X126606892Y-108955968D01*
X126635853Y-108910905D01*
X126726977Y-108819781D01*
X126854488Y-108637677D01*
X126948440Y-108436196D01*
X127005978Y-108221463D01*
X127025353Y-108000000D01*
X127005978Y-107778537D01*
X126948440Y-107563804D01*
X126854488Y-107362324D01*
X126726977Y-107180219D01*
X126635853Y-107089095D01*
X126601827Y-107026783D01*
X126606892Y-106955968D01*
X126635853Y-106910905D01*
X126656831Y-106889927D01*
X126726977Y-106819781D01*
X126854488Y-106637677D01*
X126948440Y-106436196D01*
X127005978Y-106221463D01*
X127025353Y-106000000D01*
X127005978Y-105778537D01*
X126948440Y-105563804D01*
X126854488Y-105362324D01*
X126726977Y-105180219D01*
X126569781Y-105023023D01*
X126569777Y-105023020D01*
X126569772Y-105023016D01*
X126387677Y-104895512D01*
X126324795Y-104866189D01*
X126217859Y-104816324D01*
X126182013Y-104791224D01*
X125771790Y-104381000D01*
X125800160Y-104381000D01*
X125897061Y-104355036D01*
X125983940Y-104304876D01*
X126054876Y-104233940D01*
X126105036Y-104147061D01*
X126131000Y-104050160D01*
X126131000Y-104021791D01*
X126809812Y-104700603D01*
X126809814Y-104700603D01*
X126854052Y-104637426D01*
X126854053Y-104637425D01*
X126947966Y-104436027D01*
X126947968Y-104436023D01*
X127005482Y-104221374D01*
X127024850Y-104000000D01*
X127005482Y-103778625D01*
X126947968Y-103563976D01*
X126947966Y-103563972D01*
X126854051Y-103362571D01*
X126809815Y-103299395D01*
X126809813Y-103299395D01*
X126131000Y-103978208D01*
X126131000Y-103949840D01*
X126105036Y-103852939D01*
X126054876Y-103766060D01*
X125983940Y-103695124D01*
X125897061Y-103644964D01*
X125800160Y-103619000D01*
X125771788Y-103619000D01*
X126182015Y-103208773D01*
X126217858Y-103183675D01*
X126387677Y-103104488D01*
X126569781Y-102976977D01*
X126726977Y-102819781D01*
X126854488Y-102637677D01*
X126948440Y-102436196D01*
X127005978Y-102221463D01*
X127025353Y-102000000D01*
X127005978Y-101778537D01*
X126948440Y-101563804D01*
X126854488Y-101362324D01*
X126726977Y-101180219D01*
X126635853Y-101089095D01*
X126601827Y-101026783D01*
X126606892Y-100955968D01*
X126635853Y-100910905D01*
X126675204Y-100871554D01*
X126726977Y-100819781D01*
X126854488Y-100637677D01*
X126948440Y-100436196D01*
X127005978Y-100221463D01*
X127025353Y-100000000D01*
X127005978Y-99778537D01*
X126948440Y-99563804D01*
X126854488Y-99362324D01*
X126726977Y-99180219D01*
X126569781Y-99023023D01*
X126569777Y-99023020D01*
X126569772Y-99023016D01*
X126387677Y-98895512D01*
X126387675Y-98895511D01*
X126186199Y-98801561D01*
X126186193Y-98801559D01*
X126144074Y-98790273D01*
X125971463Y-98744022D01*
X125750000Y-98724647D01*
X125528537Y-98744022D01*
X125413463Y-98774856D01*
X125313806Y-98801559D01*
X125313801Y-98801561D01*
X125112323Y-98895512D01*
X124930222Y-99023020D01*
X124930216Y-99023025D01*
X124773025Y-99180216D01*
X124773020Y-99180222D01*
X124645512Y-99362323D01*
X124551561Y-99563801D01*
X124551559Y-99563806D01*
X124524856Y-99663463D01*
X124494022Y-99778537D01*
X124474647Y-100000000D01*
X104261431Y-100000000D01*
X104261400Y-99999925D01*
X104192071Y-99896167D01*
X104103833Y-99807929D01*
X100314668Y-96018764D01*
X100280642Y-95956452D01*
X100277763Y-95929669D01*
X100277763Y-87735591D01*
X100297765Y-87667470D01*
X100351421Y-87620977D01*
X100421695Y-87610873D01*
X100485591Y-87639779D01*
X100600561Y-87737972D01*
X100805296Y-87863433D01*
X101027137Y-87955323D01*
X101260621Y-88011377D01*
X101500000Y-88030217D01*
X101739379Y-88011377D01*
X101972863Y-87955323D01*
X102194704Y-87863433D01*
X102399439Y-87737972D01*
X102582027Y-87582027D01*
X102737972Y-87399439D01*
X102863433Y-87194704D01*
X102955323Y-86972863D01*
X103011377Y-86739379D01*
X103030217Y-86500000D01*
X103011377Y-86260621D01*
X102955323Y-86027137D01*
X102863433Y-85805296D01*
X102737972Y-85600561D01*
X102737969Y-85600557D01*
X102582027Y-85417972D01*
X102399442Y-85262030D01*
X102399435Y-85262025D01*
X102216122Y-85149692D01*
X102194704Y-85136567D01*
X101972863Y-85044677D01*
X101972861Y-85044676D01*
X101806887Y-85004830D01*
X101739379Y-84988623D01*
X101500000Y-84969783D01*
X101260621Y-84988623D01*
X101027138Y-85044676D01*
X100805294Y-85136568D01*
X100600564Y-85262025D01*
X100600557Y-85262030D01*
X100485593Y-85360219D01*
X100420803Y-85389250D01*
X100350603Y-85378645D01*
X100297281Y-85331770D01*
X100277763Y-85264408D01*
X100277763Y-82711462D01*
X100297765Y-82643341D01*
X100351421Y-82596848D01*
X100421695Y-82586744D01*
X100455007Y-82596353D01*
X100617712Y-82668794D01*
X100804513Y-82708500D01*
X100860406Y-82708500D01*
X100928527Y-82728502D01*
X100949501Y-82745405D01*
X106559595Y-88355499D01*
X106593621Y-88417811D01*
X106596500Y-88444594D01*
X106596500Y-90896227D01*
X106576498Y-90964348D01*
X106530470Y-91007040D01*
X106456989Y-91046806D01*
X106456983Y-91046810D01*
X106272778Y-91190182D01*
X106272774Y-91190186D01*
X106114685Y-91361916D01*
X105987015Y-91557331D01*
X105893252Y-91771089D01*
X105893249Y-91771096D01*
X105835950Y-91997366D01*
X105816673Y-92230000D01*
X105835950Y-92462633D01*
X105893249Y-92688903D01*
X105893252Y-92688910D01*
X105987015Y-92902668D01*
X106114685Y-93098083D01*
X106272774Y-93269813D01*
X106272778Y-93269817D01*
X106338650Y-93321087D01*
X106456983Y-93413190D01*
X106662273Y-93524287D01*
X106883049Y-93600080D01*
X107113288Y-93638500D01*
X107113292Y-93638500D01*
X107346708Y-93638500D01*
X107346712Y-93638500D01*
X107576951Y-93600080D01*
X107797727Y-93524287D01*
X108003017Y-93413190D01*
X108187220Y-93269818D01*
X108345314Y-93098083D01*
X108394517Y-93022771D01*
X108448520Y-92976683D01*
X108518868Y-92967108D01*
X108583225Y-92997085D01*
X108605483Y-93022772D01*
X108654685Y-93098083D01*
X108812774Y-93269813D01*
X108812778Y-93269817D01*
X108878650Y-93321087D01*
X108996983Y-93413190D01*
X109202273Y-93524287D01*
X109423049Y-93600080D01*
X109653288Y-93638500D01*
X109653292Y-93638500D01*
X109886708Y-93638500D01*
X109886712Y-93638500D01*
X110116951Y-93600080D01*
X110337727Y-93524287D01*
X110543017Y-93413190D01*
X110727220Y-93269818D01*
X110885314Y-93098083D01*
X110934517Y-93022771D01*
X110988520Y-92976683D01*
X111058868Y-92967108D01*
X111123225Y-92997085D01*
X111145483Y-93022772D01*
X111194685Y-93098083D01*
X111352774Y-93269813D01*
X111352778Y-93269817D01*
X111418650Y-93321087D01*
X111536983Y-93413190D01*
X111742273Y-93524287D01*
X111963049Y-93600080D01*
X112193288Y-93638500D01*
X112193292Y-93638500D01*
X112426708Y-93638500D01*
X112426712Y-93638500D01*
X112656951Y-93600080D01*
X112877727Y-93524287D01*
X113083017Y-93413190D01*
X113267220Y-93269818D01*
X113425314Y-93098083D01*
X113474517Y-93022771D01*
X113528520Y-92976683D01*
X113598868Y-92967108D01*
X113663225Y-92997085D01*
X113685483Y-93022772D01*
X113734685Y-93098083D01*
X113892774Y-93269813D01*
X113892778Y-93269817D01*
X113958650Y-93321087D01*
X114076983Y-93413190D01*
X114282273Y-93524287D01*
X114503049Y-93600080D01*
X114733288Y-93638500D01*
X114733292Y-93638500D01*
X114966708Y-93638500D01*
X114966712Y-93638500D01*
X115196951Y-93600080D01*
X115417727Y-93524287D01*
X115623017Y-93413190D01*
X115807220Y-93269818D01*
X115965314Y-93098083D01*
X116014517Y-93022771D01*
X116068520Y-92976683D01*
X116138868Y-92967108D01*
X116203225Y-92997085D01*
X116225483Y-93022772D01*
X116274685Y-93098083D01*
X116432774Y-93269813D01*
X116432778Y-93269817D01*
X116498650Y-93321087D01*
X116616983Y-93413190D01*
X116822273Y-93524287D01*
X117043049Y-93600080D01*
X117273288Y-93638500D01*
X117273292Y-93638500D01*
X117506708Y-93638500D01*
X117506712Y-93638500D01*
X117736951Y-93600080D01*
X117957727Y-93524287D01*
X118163017Y-93413190D01*
X118347220Y-93269818D01*
X118505314Y-93098083D01*
X118554815Y-93022314D01*
X118608816Y-92976228D01*
X118679164Y-92966652D01*
X118743522Y-92996628D01*
X118765780Y-93022315D01*
X118770795Y-93029991D01*
X118770796Y-93029991D01*
X119445841Y-92354946D01*
X119464075Y-92422993D01*
X119529901Y-92537007D01*
X119622993Y-92630099D01*
X119737007Y-92695925D01*
X119805051Y-92714157D01*
X119128680Y-93390528D01*
X119128681Y-93390529D01*
X119157249Y-93412765D01*
X119157258Y-93412771D01*
X119362474Y-93523827D01*
X119362477Y-93523829D01*
X119583167Y-93599592D01*
X119583176Y-93599594D01*
X119813334Y-93638000D01*
X120046666Y-93638000D01*
X120276823Y-93599594D01*
X120276832Y-93599592D01*
X120497522Y-93523829D01*
X120497525Y-93523827D01*
X120702738Y-93412772D01*
X120731317Y-93390528D01*
X120054947Y-92714158D01*
X120122993Y-92695925D01*
X120237007Y-92630099D01*
X120330099Y-92537007D01*
X120395925Y-92422993D01*
X120414158Y-92354947D01*
X121089203Y-93029991D01*
X121172544Y-92902427D01*
X121266273Y-92688747D01*
X121266275Y-92688743D01*
X121323555Y-92462549D01*
X121342825Y-92230000D01*
X121323555Y-91997450D01*
X121266275Y-91771256D01*
X121266273Y-91771252D01*
X121172547Y-91557578D01*
X121172540Y-91557566D01*
X121089202Y-91430007D01*
X120414157Y-92105051D01*
X120395925Y-92037007D01*
X120330099Y-91922993D01*
X120237007Y-91829901D01*
X120122993Y-91764075D01*
X120054947Y-91745841D01*
X120731318Y-91069470D01*
X120702743Y-91047229D01*
X120702741Y-91047228D01*
X120497525Y-90936172D01*
X120497522Y-90936170D01*
X120276832Y-90860407D01*
X120276823Y-90860405D01*
X120046666Y-90822000D01*
X119813334Y-90822000D01*
X119583176Y-90860405D01*
X119583167Y-90860407D01*
X119362477Y-90936170D01*
X119362474Y-90936172D01*
X119157259Y-91047227D01*
X119128681Y-91069470D01*
X119128680Y-91069470D01*
X119805052Y-91745842D01*
X119737007Y-91764075D01*
X119622993Y-91829901D01*
X119529901Y-91922993D01*
X119464075Y-92037007D01*
X119445842Y-92105052D01*
X118770796Y-91430006D01*
X118770795Y-91430007D01*
X118765780Y-91437684D01*
X118711776Y-91483772D01*
X118641428Y-91493347D01*
X118577071Y-91463370D01*
X118554818Y-91437688D01*
X118505314Y-91361917D01*
X118505311Y-91361914D01*
X118505310Y-91361912D01*
X118347225Y-91190186D01*
X118347221Y-91190182D01*
X118192130Y-91069470D01*
X118163017Y-91046810D01*
X118163010Y-91046806D01*
X118089530Y-91007040D01*
X118039140Y-90957027D01*
X118023500Y-90896227D01*
X118023500Y-88324594D01*
X118043502Y-88256473D01*
X118060405Y-88235499D01*
X120025500Y-86270405D01*
X120087812Y-86236379D01*
X120114595Y-86233500D01*
X123854451Y-86233500D01*
X123922572Y-86253502D01*
X123969065Y-86307158D01*
X123980063Y-86369386D01*
X123969783Y-86499999D01*
X123988623Y-86739378D01*
X124044676Y-86972861D01*
X124044677Y-86972863D01*
X124136567Y-87194704D01*
X124136568Y-87194705D01*
X124262025Y-87399435D01*
X124262030Y-87399442D01*
X124417972Y-87582027D01*
X124596381Y-87734402D01*
X124600561Y-87737972D01*
X124805296Y-87863433D01*
X125027137Y-87955323D01*
X125260621Y-88011377D01*
X125500000Y-88030217D01*
X125739379Y-88011377D01*
X125972863Y-87955323D01*
X126194704Y-87863433D01*
X126399439Y-87737972D01*
X126582027Y-87582027D01*
X126737972Y-87399439D01*
X126863433Y-87194704D01*
X126955323Y-86972863D01*
X127011377Y-86739379D01*
X127030217Y-86500000D01*
X127011377Y-86260621D01*
X126955323Y-86027137D01*
X126863433Y-85805296D01*
X126737972Y-85600561D01*
X126737969Y-85600557D01*
X126582027Y-85417972D01*
X126399442Y-85262030D01*
X126399435Y-85262025D01*
X126216122Y-85149692D01*
X126194704Y-85136567D01*
X125972863Y-85044677D01*
X125972861Y-85044676D01*
X125972860Y-85044676D01*
X125770986Y-84996211D01*
X125709417Y-84960859D01*
X125676734Y-84897832D01*
X125683314Y-84827141D01*
X125711301Y-84784602D01*
X128192071Y-82303833D01*
X128261400Y-82200075D01*
X128309155Y-82084785D01*
X128333500Y-81962394D01*
X128333500Y-81837606D01*
X128333500Y-50737606D01*
X128309155Y-50615215D01*
X128261400Y-50499925D01*
X128192071Y-50396167D01*
X128103833Y-50307929D01*
X125803833Y-48007929D01*
X125700075Y-47938600D01*
X125584785Y-47890845D01*
X125511086Y-47876185D01*
X125462396Y-47866500D01*
X125462394Y-47866500D01*
X117714595Y-47866500D01*
X117646474Y-47846498D01*
X117625500Y-47829595D01*
X117570405Y-47774500D01*
X117536379Y-47712188D01*
X117533500Y-47685405D01*
X117533500Y-38137607D01*
X117533499Y-38137603D01*
X117525527Y-38097524D01*
X117509155Y-38015215D01*
X117475399Y-37933721D01*
X117461401Y-37899925D01*
X117392072Y-37796167D01*
X116143833Y-36547929D01*
X116040075Y-36478600D01*
X115924785Y-36430845D01*
X115829332Y-36411858D01*
X115796322Y-36405292D01*
X115796856Y-36402602D01*
X115742002Y-36380446D01*
X115716981Y-36353914D01*
X115606200Y-36195703D01*
X115606195Y-36195697D01*
X115444302Y-36033804D01*
X115444296Y-36033799D01*
X115256749Y-35902477D01*
X115049246Y-35805717D01*
X115049240Y-35805715D01*
X114955771Y-35780670D01*
X114828087Y-35746457D01*
X114600000Y-35726502D01*
X114371913Y-35746457D01*
X114150759Y-35805715D01*
X114150753Y-35805717D01*
X113943250Y-35902477D01*
X113755703Y-36033799D01*
X113755697Y-36033804D01*
X113593804Y-36195697D01*
X113593799Y-36195703D01*
X113462477Y-36383250D01*
X113365717Y-36590753D01*
X113365715Y-36590759D01*
X113306457Y-36811913D01*
X113286502Y-37040000D01*
X113306457Y-37268086D01*
X113356070Y-37453246D01*
X113365716Y-37489243D01*
X113462477Y-37696749D01*
X113593802Y-37884300D01*
X113755700Y-38046198D01*
X113943251Y-38177523D01*
X113978359Y-38193894D01*
X113982457Y-38195805D01*
X114035742Y-38242722D01*
X114055203Y-38310999D01*
X114034661Y-38378959D01*
X113982457Y-38424195D01*
X113943250Y-38442477D01*
X113755703Y-38573799D01*
X113755697Y-38573804D01*
X113593804Y-38735697D01*
X113593799Y-38735703D01*
X113483819Y-38892771D01*
X113428362Y-38937099D01*
X113380606Y-38946500D01*
X105557603Y-38946500D01*
X105435214Y-38970845D01*
X105435213Y-38970845D01*
X105401561Y-38984785D01*
X105319923Y-39018600D01*
X105216167Y-39087927D01*
X104724095Y-39580000D01*
X103396167Y-40907929D01*
X103307931Y-40996164D01*
X103307926Y-40996171D01*
X103238601Y-41099923D01*
X103190846Y-41215212D01*
X103166500Y-41337603D01*
X103166500Y-47266405D01*
X103146498Y-47334526D01*
X103092842Y-47381019D01*
X103022568Y-47391123D01*
X102957988Y-47361629D01*
X102951405Y-47355500D01*
X100669151Y-45073247D01*
X100635126Y-45010935D01*
X100636539Y-44951542D01*
X100653543Y-44888087D01*
X100673498Y-44660000D01*
X100653543Y-44431913D01*
X100594284Y-44210757D01*
X100497523Y-44003251D01*
X100366198Y-43815700D01*
X100204300Y-43653802D01*
X100016749Y-43522477D01*
X99977543Y-43504195D01*
X99924258Y-43457279D01*
X99904796Y-43389002D01*
X99925337Y-43321042D01*
X99977543Y-43275805D01*
X99979997Y-43274660D01*
X100016749Y-43257523D01*
X100204300Y-43126198D01*
X100366198Y-42964300D01*
X100497523Y-42776749D01*
X100594284Y-42569243D01*
X100653543Y-42348087D01*
X100673498Y-42120000D01*
X100653543Y-41891913D01*
X100594284Y-41670757D01*
X100497523Y-41463251D01*
X100366198Y-41275700D01*
X100204300Y-41113802D01*
X100016749Y-40982477D01*
X99977543Y-40964195D01*
X99924258Y-40917279D01*
X99904796Y-40849002D01*
X99925337Y-40781042D01*
X99977543Y-40735805D01*
X99979997Y-40734660D01*
X100016749Y-40717523D01*
X100204300Y-40586198D01*
X100366198Y-40424300D01*
X100497523Y-40236749D01*
X100594284Y-40029243D01*
X100653543Y-39808087D01*
X100673498Y-39580000D01*
X100653543Y-39351913D01*
X100594284Y-39130757D01*
X100497523Y-38923251D01*
X100366198Y-38735700D01*
X100204300Y-38573802D01*
X100016749Y-38442477D01*
X99977543Y-38424195D01*
X99924258Y-38377279D01*
X99904796Y-38309002D01*
X99925337Y-38241042D01*
X99977543Y-38195805D01*
X99979997Y-38194660D01*
X100016749Y-38177523D01*
X100204300Y-38046198D01*
X100366198Y-37884300D01*
X100497523Y-37696749D01*
X100594284Y-37489243D01*
X100653543Y-37268087D01*
X100673498Y-37040000D01*
X100653543Y-36811913D01*
X100594284Y-36590757D01*
X100497523Y-36383251D01*
X100366198Y-36195700D01*
X100204300Y-36033802D01*
X100016749Y-35902477D01*
X99809246Y-35805717D01*
X99809240Y-35805715D01*
X99715771Y-35780670D01*
X99588087Y-35746457D01*
X99360000Y-35726502D01*
X99131913Y-35746457D01*
X98910759Y-35805715D01*
X98910753Y-35805717D01*
X98703250Y-35902477D01*
X98515703Y-36033799D01*
X98515697Y-36033804D01*
X98353804Y-36195697D01*
X98353799Y-36195703D01*
X98222477Y-36383250D01*
X98125717Y-36590753D01*
X98125715Y-36590759D01*
X98066457Y-36811913D01*
X98046502Y-37040000D01*
X98066457Y-37268090D01*
X98083459Y-37331540D01*
X98081769Y-37402516D01*
X98050848Y-37453246D01*
X97440596Y-38063499D01*
X97378283Y-38097524D01*
X97307468Y-38092460D01*
X97250632Y-38049913D01*
X97225821Y-37983393D01*
X97225500Y-37974404D01*
X97225500Y-29481402D01*
X103192000Y-29481402D01*
X103192000Y-30276000D01*
X104269297Y-30276000D01*
X104234075Y-30337007D01*
X104200000Y-30464174D01*
X104200000Y-30595826D01*
X104234075Y-30722993D01*
X104269297Y-30784000D01*
X103192000Y-30784000D01*
X103192000Y-31578597D01*
X103198505Y-31639093D01*
X103249555Y-31775964D01*
X103249555Y-31775965D01*
X103337095Y-31892904D01*
X103454034Y-31980444D01*
X103590906Y-32031494D01*
X103651402Y-32037999D01*
X103651415Y-32038000D01*
X104446000Y-32038000D01*
X104446000Y-30960702D01*
X104507007Y-30995925D01*
X104634174Y-31030000D01*
X104765826Y-31030000D01*
X104892993Y-30995925D01*
X104954000Y-30960702D01*
X104954000Y-32038000D01*
X105748585Y-32038000D01*
X105748597Y-32037999D01*
X105809093Y-32031494D01*
X105945964Y-31980444D01*
X105945965Y-31980444D01*
X106062904Y-31892904D01*
X106150444Y-31775965D01*
X106150444Y-31775964D01*
X106201494Y-31639093D01*
X106207999Y-31578597D01*
X106208000Y-31578585D01*
X106208000Y-30784000D01*
X105130703Y-30784000D01*
X105165925Y-30722993D01*
X105200000Y-30595826D01*
X105200000Y-30530000D01*
X107996835Y-30530000D01*
X108015465Y-30766710D01*
X108070894Y-30997592D01*
X108129264Y-31138509D01*
X108161760Y-31216963D01*
X108182397Y-31250640D01*
X108285825Y-31419417D01*
X108285826Y-31419419D01*
X108440030Y-31599969D01*
X108620580Y-31754173D01*
X108620584Y-31754176D01*
X108823037Y-31878240D01*
X109042406Y-31969105D01*
X109273289Y-32024535D01*
X109510000Y-32043165D01*
X109746711Y-32024535D01*
X109977594Y-31969105D01*
X109977595Y-31969104D01*
X109982408Y-31967949D01*
X109982742Y-31969341D01*
X110047260Y-31967483D01*
X110104352Y-32000256D01*
X112096161Y-33992067D01*
X112096166Y-33992071D01*
X112096167Y-33992072D01*
X112199925Y-34061401D01*
X112315215Y-34109155D01*
X112437606Y-34133500D01*
X112437607Y-34133500D01*
X121662393Y-34133500D01*
X121662394Y-34133500D01*
X121784785Y-34109155D01*
X121900075Y-34061400D01*
X122003833Y-33992071D01*
X123192071Y-32803833D01*
X123261400Y-32700075D01*
X123309155Y-32584785D01*
X123333500Y-32462394D01*
X123333500Y-32337606D01*
X123333500Y-31174642D01*
X123353502Y-31106521D01*
X123393168Y-31067515D01*
X123408406Y-31058081D01*
X123568716Y-30911939D01*
X123615450Y-30850054D01*
X123672464Y-30807747D01*
X123743300Y-30802979D01*
X123805469Y-30837265D01*
X123816550Y-30850054D01*
X123863282Y-30911938D01*
X124023592Y-31058080D01*
X124208021Y-31172274D01*
X124208022Y-31172274D01*
X124208028Y-31172278D01*
X124410305Y-31250640D01*
X124623537Y-31290500D01*
X124623539Y-31290500D01*
X124840461Y-31290500D01*
X124840463Y-31290500D01*
X125053695Y-31250640D01*
X125255972Y-31172278D01*
X125440406Y-31058081D01*
X125522387Y-30983344D01*
X125586204Y-30952234D01*
X125656710Y-30960564D01*
X125711520Y-31005689D01*
X125727106Y-31037524D01*
X125754027Y-31120380D01*
X125759918Y-31138509D01*
X125847135Y-31309681D01*
X125960055Y-31465102D01*
X125960057Y-31465104D01*
X125960059Y-31465107D01*
X126095892Y-31600940D01*
X126095895Y-31600942D01*
X126095898Y-31600945D01*
X126251319Y-31713865D01*
X126422491Y-31801082D01*
X126605193Y-31860445D01*
X126605194Y-31860445D01*
X126605199Y-31860447D01*
X126794945Y-31890500D01*
X126794948Y-31890500D01*
X126987052Y-31890500D01*
X126987055Y-31890500D01*
X127176801Y-31860447D01*
X127359509Y-31801082D01*
X127530681Y-31713865D01*
X127686102Y-31600945D01*
X127821945Y-31465102D01*
X127934865Y-31309681D01*
X128022082Y-31138509D01*
X128081447Y-30955801D01*
X128111500Y-30766055D01*
X128111500Y-29473945D01*
X128081447Y-29284199D01*
X128022082Y-29101491D01*
X127934865Y-28930319D01*
X127821945Y-28774898D01*
X127821942Y-28774895D01*
X127821940Y-28774892D01*
X127686107Y-28639059D01*
X127686104Y-28639057D01*
X127686102Y-28639055D01*
X127530681Y-28526135D01*
X127359509Y-28438918D01*
X127359506Y-28438917D01*
X127359504Y-28438916D01*
X127176804Y-28379554D01*
X127176808Y-28379554D01*
X127141480Y-28373958D01*
X126987055Y-28349500D01*
X126794945Y-28349500D01*
X126605199Y-28379553D01*
X126605193Y-28379554D01*
X126422495Y-28438916D01*
X126422489Y-28438919D01*
X126251315Y-28526137D01*
X126095895Y-28639057D01*
X126095892Y-28639059D01*
X125960059Y-28774892D01*
X125960057Y-28774895D01*
X125847137Y-28930315D01*
X125759919Y-29101489D01*
X125759918Y-29101492D01*
X125727106Y-29202476D01*
X125687032Y-29261081D01*
X125621635Y-29288718D01*
X125551679Y-29276611D01*
X125522387Y-29256654D01*
X125440407Y-29181919D01*
X125255978Y-29067725D01*
X125255974Y-29067723D01*
X125255972Y-29067722D01*
X125053695Y-28989360D01*
X124840463Y-28949500D01*
X124623537Y-28949500D01*
X124481382Y-28976073D01*
X124410304Y-28989360D01*
X124339383Y-29016835D01*
X124208028Y-29067722D01*
X124208027Y-29067722D01*
X124208026Y-29067723D01*
X124208021Y-29067725D01*
X124023592Y-29181919D01*
X123863285Y-29328059D01*
X123816550Y-29389946D01*
X123759536Y-29432253D01*
X123688699Y-29437020D01*
X123626531Y-29402733D01*
X123615450Y-29389946D01*
X123568714Y-29328059D01*
X123408407Y-29181919D01*
X123223978Y-29067725D01*
X123223974Y-29067723D01*
X123223972Y-29067722D01*
X123021695Y-28989360D01*
X122808463Y-28949500D01*
X122591537Y-28949500D01*
X122449382Y-28976073D01*
X122378304Y-28989360D01*
X122307383Y-29016835D01*
X122176028Y-29067722D01*
X122176027Y-29067722D01*
X122176026Y-29067723D01*
X122176021Y-29067725D01*
X121991592Y-29181919D01*
X121831285Y-29328059D01*
X121784550Y-29389946D01*
X121727536Y-29432253D01*
X121656699Y-29437020D01*
X121594531Y-29402733D01*
X121583450Y-29389946D01*
X121536714Y-29328059D01*
X121376407Y-29181919D01*
X121191978Y-29067725D01*
X121191974Y-29067723D01*
X121191972Y-29067722D01*
X120989695Y-28989360D01*
X120776463Y-28949500D01*
X120559537Y-28949500D01*
X120417382Y-28976073D01*
X120346304Y-28989360D01*
X120275383Y-29016835D01*
X120144028Y-29067722D01*
X120144027Y-29067722D01*
X120144026Y-29067723D01*
X120144021Y-29067725D01*
X119959593Y-29181919D01*
X119877611Y-29256655D01*
X119813794Y-29287765D01*
X119743288Y-29279435D01*
X119688478Y-29234308D01*
X119672894Y-29202477D01*
X119640082Y-29101491D01*
X119552865Y-28930319D01*
X119439945Y-28774898D01*
X119439942Y-28774895D01*
X119439940Y-28774892D01*
X119304107Y-28639059D01*
X119304104Y-28639057D01*
X119304102Y-28639055D01*
X119148681Y-28526135D01*
X118977509Y-28438918D01*
X118977506Y-28438917D01*
X118977504Y-28438916D01*
X118794804Y-28379554D01*
X118794808Y-28379554D01*
X118759480Y-28373958D01*
X118605055Y-28349500D01*
X118412945Y-28349500D01*
X118223199Y-28379553D01*
X118223193Y-28379554D01*
X118040495Y-28438916D01*
X118040489Y-28438919D01*
X117869315Y-28526137D01*
X117713895Y-28639057D01*
X117713892Y-28639059D01*
X117578059Y-28774892D01*
X117578057Y-28774895D01*
X117465137Y-28930315D01*
X117377919Y-29101489D01*
X117377916Y-29101495D01*
X117318554Y-29284193D01*
X117318553Y-29284198D01*
X117318553Y-29284199D01*
X117288500Y-29473945D01*
X117288500Y-30766055D01*
X117311606Y-30911938D01*
X117318554Y-30955806D01*
X117377915Y-31138501D01*
X117377918Y-31138509D01*
X117465135Y-31309681D01*
X117578055Y-31465102D01*
X117578057Y-31465104D01*
X117578059Y-31465107D01*
X117713892Y-31600940D01*
X117713895Y-31600942D01*
X117713898Y-31600945D01*
X117869319Y-31713865D01*
X118040491Y-31801082D01*
X118223193Y-31860445D01*
X118223194Y-31860445D01*
X118223199Y-31860447D01*
X118412945Y-31890500D01*
X118412948Y-31890500D01*
X118605052Y-31890500D01*
X118605055Y-31890500D01*
X118794801Y-31860447D01*
X118977509Y-31801082D01*
X119148681Y-31713865D01*
X119304102Y-31600945D01*
X119439945Y-31465102D01*
X119552865Y-31309681D01*
X119640082Y-31138509D01*
X119672893Y-31037523D01*
X119712966Y-30978919D01*
X119778362Y-30951281D01*
X119848319Y-30963387D01*
X119877612Y-30983345D01*
X119959592Y-31058080D01*
X120144021Y-31172274D01*
X120144022Y-31172274D01*
X120144028Y-31172278D01*
X120346305Y-31250640D01*
X120559537Y-31290500D01*
X120559539Y-31290500D01*
X120776461Y-31290500D01*
X120776463Y-31290500D01*
X120989695Y-31250640D01*
X121191972Y-31172278D01*
X121376406Y-31058081D01*
X121536716Y-30911939D01*
X121583450Y-30850054D01*
X121640464Y-30807747D01*
X121711300Y-30802979D01*
X121773469Y-30837265D01*
X121784550Y-30850054D01*
X121831282Y-30911938D01*
X121991589Y-31058077D01*
X121991590Y-31058078D01*
X121991594Y-31058081D01*
X122006830Y-31067515D01*
X122054217Y-31120380D01*
X122066500Y-31174642D01*
X122066500Y-32085406D01*
X122046498Y-32153527D01*
X122029595Y-32174501D01*
X121374501Y-32829595D01*
X121312189Y-32863621D01*
X121285406Y-32866500D01*
X112814595Y-32866500D01*
X112746474Y-32846498D01*
X112725500Y-32829595D01*
X110988235Y-31092330D01*
X110954209Y-31030018D01*
X110954810Y-30973827D01*
X111004535Y-30766711D01*
X111023165Y-30530000D01*
X111004535Y-30293289D01*
X110949105Y-30062406D01*
X110858240Y-29843037D01*
X110734176Y-29640584D01*
X110734173Y-29640580D01*
X110579969Y-29460030D01*
X110399419Y-29305826D01*
X110399417Y-29305825D01*
X110399416Y-29305824D01*
X110196963Y-29181760D01*
X110161559Y-29167095D01*
X109977592Y-29090894D01*
X109819651Y-29052976D01*
X109746711Y-29035465D01*
X109510000Y-29016835D01*
X109273289Y-29035465D01*
X109042407Y-29090894D01*
X108823038Y-29181759D01*
X108620582Y-29305825D01*
X108620580Y-29305826D01*
X108440030Y-29460030D01*
X108285826Y-29640580D01*
X108285825Y-29640582D01*
X108161759Y-29843038D01*
X108070894Y-30062407D01*
X108015465Y-30293289D01*
X107996835Y-30530000D01*
X105200000Y-30530000D01*
X105200000Y-30464174D01*
X105165925Y-30337007D01*
X105130703Y-30276000D01*
X106208000Y-30276000D01*
X106208000Y-29481414D01*
X106207999Y-29481402D01*
X106201494Y-29420906D01*
X106150444Y-29284035D01*
X106150444Y-29284034D01*
X106062904Y-29167095D01*
X105945965Y-29079555D01*
X105809093Y-29028505D01*
X105748597Y-29022000D01*
X104954000Y-29022000D01*
X104954000Y-30099297D01*
X104892993Y-30064075D01*
X104765826Y-30030000D01*
X104634174Y-30030000D01*
X104507007Y-30064075D01*
X104446000Y-30099297D01*
X104446000Y-29022000D01*
X103651402Y-29022000D01*
X103590906Y-29028505D01*
X103454035Y-29079555D01*
X103454034Y-29079555D01*
X103337095Y-29167095D01*
X103249555Y-29284034D01*
X103249555Y-29284035D01*
X103198505Y-29420906D01*
X103192000Y-29481402D01*
X97225500Y-29481402D01*
X97225500Y-27151500D01*
X97245502Y-27083379D01*
X97299158Y-27036886D01*
X97351500Y-27025500D01*
X129648500Y-27025500D01*
X129716621Y-27045502D01*
G37*
%TD.AperFunction*%
%TA.AperFunction,Conductor*%
G36*
X115691329Y-37903335D02*
G01*
X115736392Y-37932296D01*
X116229595Y-38425499D01*
X116263621Y-38487811D01*
X116266500Y-38514594D01*
X116266500Y-47937606D01*
X116266500Y-48062394D01*
X116290845Y-48184785D01*
X116338600Y-48300075D01*
X116407929Y-48403833D01*
X116867143Y-48863048D01*
X116996167Y-48992072D01*
X117099925Y-49061401D01*
X117099927Y-49061402D01*
X117137423Y-49076933D01*
X117208805Y-49106500D01*
X117215215Y-49109155D01*
X117337606Y-49133500D01*
X125085406Y-49133500D01*
X125153527Y-49153502D01*
X125174501Y-49170405D01*
X127029595Y-51025499D01*
X127063621Y-51087811D01*
X127066500Y-51114594D01*
X127066500Y-81585406D01*
X127046498Y-81653527D01*
X127029595Y-81674501D01*
X123774501Y-84929595D01*
X123712189Y-84963621D01*
X123685406Y-84966500D01*
X119737600Y-84966500D01*
X119615217Y-84990844D01*
X119615209Y-84990846D01*
X119581447Y-85004830D01*
X119581447Y-85004831D01*
X119519391Y-85030536D01*
X119499925Y-85038599D01*
X119396167Y-85107927D01*
X119396161Y-85107932D01*
X116986167Y-87517929D01*
X116897931Y-87606164D01*
X116897926Y-87606171D01*
X116856968Y-87667470D01*
X116828600Y-87709925D01*
X116816982Y-87737974D01*
X116780846Y-87825212D01*
X116756500Y-87947603D01*
X116756500Y-90896227D01*
X116736498Y-90964348D01*
X116690470Y-91007040D01*
X116616989Y-91046806D01*
X116616983Y-91046810D01*
X116432778Y-91190182D01*
X116432774Y-91190186D01*
X116274685Y-91361916D01*
X116225483Y-91437227D01*
X116171479Y-91483316D01*
X116101131Y-91492891D01*
X116036774Y-91462914D01*
X116014517Y-91437227D01*
X115965314Y-91361916D01*
X115807225Y-91190186D01*
X115807221Y-91190182D01*
X115652130Y-91069470D01*
X115623017Y-91046810D01*
X115417727Y-90935713D01*
X115417724Y-90935712D01*
X115417723Y-90935711D01*
X115196955Y-90859921D01*
X115196948Y-90859919D01*
X115098411Y-90843476D01*
X114966712Y-90821500D01*
X114733288Y-90821500D01*
X114618066Y-90840727D01*
X114503051Y-90859919D01*
X114503044Y-90859921D01*
X114282276Y-90935711D01*
X114282273Y-90935713D01*
X114076991Y-91046806D01*
X114076985Y-91046809D01*
X114076983Y-91046810D01*
X113892778Y-91190182D01*
X113892774Y-91190186D01*
X113734685Y-91361916D01*
X113685483Y-91437227D01*
X113631479Y-91483316D01*
X113561131Y-91492891D01*
X113496774Y-91462914D01*
X113474517Y-91437227D01*
X113425314Y-91361916D01*
X113267225Y-91190186D01*
X113267221Y-91190182D01*
X113112130Y-91069470D01*
X113083017Y-91046810D01*
X112877727Y-90935713D01*
X112877724Y-90935712D01*
X112877723Y-90935711D01*
X112656955Y-90859921D01*
X112656948Y-90859919D01*
X112558411Y-90843476D01*
X112426712Y-90821500D01*
X112378593Y-90821500D01*
X112310472Y-90801498D01*
X112263979Y-90747842D01*
X112253875Y-90677568D01*
X112283369Y-90612988D01*
X112289498Y-90606405D01*
X115161501Y-87734402D01*
X118258831Y-84637072D01*
X118321141Y-84603048D01*
X118321529Y-84602964D01*
X118482288Y-84568794D01*
X118656752Y-84491118D01*
X118811253Y-84378866D01*
X118939040Y-84236944D01*
X119034527Y-84071556D01*
X119093542Y-83889928D01*
X119113504Y-83700000D01*
X119093542Y-83510072D01*
X119034527Y-83328444D01*
X118939040Y-83163056D01*
X118939038Y-83163054D01*
X118939034Y-83163048D01*
X118811255Y-83021135D01*
X118656752Y-82908882D01*
X118482288Y-82831206D01*
X118295487Y-82791500D01*
X118104513Y-82791500D01*
X117917711Y-82831206D01*
X117743247Y-82908882D01*
X117588744Y-83021135D01*
X117460965Y-83163048D01*
X117460958Y-83163058D01*
X117365476Y-83328438D01*
X117365473Y-83328445D01*
X117306457Y-83510072D01*
X117286496Y-83700001D01*
X117291398Y-83746648D01*
X117278625Y-83816486D01*
X117255183Y-83848911D01*
X110267277Y-90836817D01*
X110204965Y-90870843D01*
X110137273Y-90866896D01*
X110116957Y-90859922D01*
X110116948Y-90859919D01*
X110018411Y-90843476D01*
X109886712Y-90821500D01*
X109653288Y-90821500D01*
X109538066Y-90840727D01*
X109423051Y-90859919D01*
X109423044Y-90859921D01*
X109202276Y-90935711D01*
X109202273Y-90935713D01*
X108996991Y-91046806D01*
X108996985Y-91046809D01*
X108996983Y-91046810D01*
X108812778Y-91190182D01*
X108812774Y-91190186D01*
X108654685Y-91361916D01*
X108605483Y-91437227D01*
X108551479Y-91483316D01*
X108481131Y-91492891D01*
X108416774Y-91462914D01*
X108394517Y-91437227D01*
X108345314Y-91361916D01*
X108187225Y-91190186D01*
X108187221Y-91190182D01*
X108032130Y-91069470D01*
X108003017Y-91046810D01*
X108003010Y-91046806D01*
X107929530Y-91007040D01*
X107879140Y-90957027D01*
X107863500Y-90896227D01*
X107863500Y-88067607D01*
X107863499Y-88067603D01*
X107839155Y-87945215D01*
X107791400Y-87829925D01*
X107722071Y-87726167D01*
X107633833Y-87637929D01*
X101847122Y-81851218D01*
X101813096Y-81788906D01*
X101810907Y-81775293D01*
X101793542Y-81610072D01*
X101785527Y-81585406D01*
X101734527Y-81428444D01*
X101639040Y-81263056D01*
X101639038Y-81263054D01*
X101639034Y-81263048D01*
X101511255Y-81121135D01*
X101356752Y-81008882D01*
X101182288Y-80931206D01*
X100995487Y-80891500D01*
X100804513Y-80891500D01*
X100617709Y-80931206D01*
X100455011Y-81003644D01*
X100384644Y-81013078D01*
X100320347Y-80982971D01*
X100282534Y-80922882D01*
X100277763Y-80888537D01*
X100277763Y-76570331D01*
X100297765Y-76502210D01*
X100314668Y-76481236D01*
X103967818Y-72828086D01*
X107780775Y-69015128D01*
X107843084Y-68981105D01*
X107913899Y-68986170D01*
X107970735Y-69028717D01*
X107995546Y-69095237D01*
X107995177Y-69117395D01*
X107986496Y-69199999D01*
X108006457Y-69389927D01*
X108010868Y-69403501D01*
X108065473Y-69571556D01*
X108160960Y-69736944D01*
X108234137Y-69818215D01*
X108264853Y-69882220D01*
X108266500Y-69902524D01*
X108266500Y-72137606D01*
X108266500Y-72262394D01*
X108290845Y-72384785D01*
X108338600Y-72500075D01*
X108407929Y-72603833D01*
X108407931Y-72603835D01*
X110755501Y-74951405D01*
X110789527Y-75013717D01*
X110784462Y-75084532D01*
X110741915Y-75141368D01*
X110675395Y-75166179D01*
X110666406Y-75166500D01*
X106714594Y-75166500D01*
X106646473Y-75146498D01*
X106625499Y-75129595D01*
X106470405Y-74974501D01*
X106436379Y-74912189D01*
X106433500Y-74885406D01*
X106433500Y-74802524D01*
X106453502Y-74734403D01*
X106465858Y-74718220D01*
X106539040Y-74636944D01*
X106634527Y-74471556D01*
X106693542Y-74289928D01*
X106713504Y-74100000D01*
X106693542Y-73910072D01*
X106634527Y-73728444D01*
X106539040Y-73563056D01*
X106539038Y-73563054D01*
X106539034Y-73563048D01*
X106411255Y-73421135D01*
X106256752Y-73308882D01*
X106082288Y-73231206D01*
X105895487Y-73191500D01*
X105704513Y-73191500D01*
X105517711Y-73231206D01*
X105343247Y-73308882D01*
X105188744Y-73421135D01*
X105060965Y-73563048D01*
X105060958Y-73563058D01*
X104965476Y-73728438D01*
X104965473Y-73728444D01*
X104962523Y-73737523D01*
X104906457Y-73910072D01*
X104886496Y-74100000D01*
X104906457Y-74289927D01*
X104936526Y-74382470D01*
X104965473Y-74471556D01*
X105060960Y-74636944D01*
X105134137Y-74718215D01*
X105164853Y-74782220D01*
X105166500Y-74802524D01*
X105166500Y-74963722D01*
X105146498Y-75031843D01*
X105092842Y-75078336D01*
X105022568Y-75088440D01*
X104989252Y-75078829D01*
X104882288Y-75031206D01*
X104695487Y-74991500D01*
X104504513Y-74991500D01*
X104317711Y-75031206D01*
X104143247Y-75108882D01*
X103988744Y-75221135D01*
X103860965Y-75363048D01*
X103860958Y-75363058D01*
X103765476Y-75528438D01*
X103765473Y-75528445D01*
X103706457Y-75710072D01*
X103686496Y-75900000D01*
X103706457Y-76089927D01*
X103736526Y-76182470D01*
X103765473Y-76271556D01*
X103765476Y-76271561D01*
X103860958Y-76436941D01*
X103860965Y-76436951D01*
X103988744Y-76578864D01*
X104038770Y-76615210D01*
X104143248Y-76691118D01*
X104317712Y-76768794D01*
X104504513Y-76808500D01*
X104560406Y-76808500D01*
X104628527Y-76828502D01*
X104649501Y-76845405D01*
X104807929Y-77003833D01*
X104896167Y-77092071D01*
X104999925Y-77161400D01*
X105115215Y-77209155D01*
X105237606Y-77233500D01*
X106277306Y-77233500D01*
X106345427Y-77253502D01*
X106391920Y-77307158D01*
X106402024Y-77377432D01*
X106372530Y-77442012D01*
X106330556Y-77473695D01*
X106262323Y-77505512D01*
X106080222Y-77633020D01*
X106080216Y-77633025D01*
X105923025Y-77790216D01*
X105923020Y-77790222D01*
X105795512Y-77972323D01*
X105744195Y-78082373D01*
X105697277Y-78135658D01*
X105629000Y-78155119D01*
X105561040Y-78134577D01*
X105515805Y-78082373D01*
X105464603Y-77972571D01*
X105464488Y-77972324D01*
X105336977Y-77790219D01*
X105179781Y-77633023D01*
X105179777Y-77633020D01*
X105179772Y-77633016D01*
X104997677Y-77505512D01*
X104997675Y-77505511D01*
X104796199Y-77411561D01*
X104796193Y-77411559D01*
X104754074Y-77400273D01*
X104581463Y-77354022D01*
X104360000Y-77334647D01*
X104138537Y-77354022D01*
X104029219Y-77383314D01*
X103923806Y-77411559D01*
X103923801Y-77411561D01*
X103722323Y-77505512D01*
X103540222Y-77633020D01*
X103540216Y-77633025D01*
X103383025Y-77790216D01*
X103383020Y-77790222D01*
X103255512Y-77972323D01*
X103203919Y-78082965D01*
X103157002Y-78136250D01*
X103088724Y-78155711D01*
X103020764Y-78135169D01*
X102975529Y-78082965D01*
X102924051Y-77972571D01*
X102879815Y-77909395D01*
X102879813Y-77909395D01*
X102304157Y-78485051D01*
X102285925Y-78417007D01*
X102220099Y-78302993D01*
X102127007Y-78209901D01*
X102012993Y-78144075D01*
X101944947Y-78125841D01*
X102520603Y-77550185D01*
X102520603Y-77550184D01*
X102457425Y-77505946D01*
X102256027Y-77412033D01*
X102256023Y-77412031D01*
X102041374Y-77354517D01*
X101820000Y-77335149D01*
X101598625Y-77354517D01*
X101383976Y-77412031D01*
X101383972Y-77412033D01*
X101182575Y-77505946D01*
X101119394Y-77550185D01*
X101695051Y-78125842D01*
X101627007Y-78144075D01*
X101512993Y-78209901D01*
X101419901Y-78302993D01*
X101354075Y-78417007D01*
X101335842Y-78485051D01*
X100760185Y-77909394D01*
X100715946Y-77972575D01*
X100622033Y-78173972D01*
X100622031Y-78173976D01*
X100564517Y-78388625D01*
X100545149Y-78610000D01*
X100564517Y-78831374D01*
X100622031Y-79046023D01*
X100622033Y-79046027D01*
X100715946Y-79247425D01*
X100760184Y-79310603D01*
X100760185Y-79310603D01*
X101335841Y-78734947D01*
X101354075Y-78802993D01*
X101419901Y-78917007D01*
X101512993Y-79010099D01*
X101627007Y-79075925D01*
X101695051Y-79094157D01*
X101119395Y-79669813D01*
X101119395Y-79669814D01*
X101182575Y-79714053D01*
X101182574Y-79714053D01*
X101383972Y-79807966D01*
X101383976Y-79807968D01*
X101598625Y-79865482D01*
X101820000Y-79884850D01*
X102041374Y-79865482D01*
X102256023Y-79807968D01*
X102256027Y-79807966D01*
X102457425Y-79714053D01*
X102457426Y-79714052D01*
X102520603Y-79669814D01*
X102520603Y-79669812D01*
X101944948Y-79094157D01*
X102012993Y-79075925D01*
X102127007Y-79010099D01*
X102220099Y-78917007D01*
X102285925Y-78802993D01*
X102304157Y-78734948D01*
X102879812Y-79310603D01*
X102879814Y-79310603D01*
X102924052Y-79247426D01*
X102924053Y-79247425D01*
X102975529Y-79137035D01*
X103022446Y-79083750D01*
X103090723Y-79064289D01*
X103158683Y-79084831D01*
X103203919Y-79137035D01*
X103255511Y-79247675D01*
X103255512Y-79247677D01*
X103383016Y-79429772D01*
X103383020Y-79429777D01*
X103383023Y-79429781D01*
X103540219Y-79586977D01*
X103540223Y-79586980D01*
X103540227Y-79586983D01*
X103644124Y-79659732D01*
X103722323Y-79714488D01*
X103923804Y-79808440D01*
X104138537Y-79865978D01*
X104360000Y-79885353D01*
X104581463Y-79865978D01*
X104620513Y-79855514D01*
X104691486Y-79857201D01*
X104742220Y-79888124D01*
X107246161Y-82392067D01*
X107246166Y-82392071D01*
X107246167Y-82392072D01*
X107349925Y-82461401D01*
X107431447Y-82495168D01*
X107465215Y-82509155D01*
X107587606Y-82533500D01*
X107587607Y-82533500D01*
X113362393Y-82533500D01*
X113362394Y-82533500D01*
X113484785Y-82509155D01*
X113600075Y-82461400D01*
X113703833Y-82392071D01*
X113952071Y-82143833D01*
X114021400Y-82040075D01*
X114069155Y-81924785D01*
X114093500Y-81802394D01*
X114093500Y-81677606D01*
X114093500Y-80443594D01*
X114113502Y-80375473D01*
X114167158Y-80328980D01*
X114237432Y-80318876D01*
X114302012Y-80348370D01*
X114308595Y-80354499D01*
X116157929Y-82203833D01*
X116246167Y-82292071D01*
X116349925Y-82361400D01*
X116465215Y-82409155D01*
X116587606Y-82433500D01*
X116587607Y-82433500D01*
X121062393Y-82433500D01*
X121062394Y-82433500D01*
X121184785Y-82409155D01*
X121300075Y-82361400D01*
X121403833Y-82292071D01*
X123152072Y-80543833D01*
X123221401Y-80440075D01*
X123269155Y-80324784D01*
X123293500Y-80202393D01*
X123293500Y-80077606D01*
X123293500Y-79783003D01*
X123313502Y-79714882D01*
X123347225Y-79679793D01*
X123479781Y-79586977D01*
X123636977Y-79429781D01*
X123764488Y-79247677D01*
X123815805Y-79137626D01*
X123862722Y-79084342D01*
X123930999Y-79064881D01*
X123998959Y-79085423D01*
X124044195Y-79137627D01*
X124095511Y-79247675D01*
X124095512Y-79247677D01*
X124223016Y-79429772D01*
X124223020Y-79429777D01*
X124223023Y-79429781D01*
X124380219Y-79586977D01*
X124380223Y-79586980D01*
X124380227Y-79586983D01*
X124484124Y-79659732D01*
X124562323Y-79714488D01*
X124763804Y-79808440D01*
X124978537Y-79865978D01*
X125200000Y-79885353D01*
X125421463Y-79865978D01*
X125636196Y-79808440D01*
X125837677Y-79714488D01*
X126019781Y-79586977D01*
X126176977Y-79429781D01*
X126304488Y-79247677D01*
X126398440Y-79046196D01*
X126455978Y-78831463D01*
X126475353Y-78610000D01*
X126455978Y-78388537D01*
X126398440Y-78173804D01*
X126304488Y-77972324D01*
X126176977Y-77790219D01*
X126019781Y-77633023D01*
X126019777Y-77633020D01*
X126019772Y-77633016D01*
X125837677Y-77505512D01*
X125837675Y-77505511D01*
X125636199Y-77411561D01*
X125636193Y-77411559D01*
X125594074Y-77400273D01*
X125421463Y-77354022D01*
X125200000Y-77334647D01*
X124978536Y-77354022D01*
X124978531Y-77354023D01*
X124939481Y-77364486D01*
X124868505Y-77362795D01*
X124817778Y-77331874D01*
X121693835Y-74207931D01*
X121693833Y-74207929D01*
X121590075Y-74138600D01*
X121474785Y-74090845D01*
X121401086Y-74076185D01*
X121352396Y-74066500D01*
X121352394Y-74066500D01*
X115736751Y-74066500D01*
X115668630Y-74046498D01*
X115622137Y-73992842D01*
X115612033Y-73922568D01*
X115641527Y-73857988D01*
X115661242Y-73839632D01*
X115763261Y-73763261D01*
X115850887Y-73646207D01*
X115850887Y-73646206D01*
X115850889Y-73646204D01*
X115901989Y-73509201D01*
X115902606Y-73503470D01*
X115908499Y-73448649D01*
X115908500Y-73448632D01*
X115908500Y-71751367D01*
X115908499Y-71751350D01*
X115901990Y-71690803D01*
X115901988Y-71690795D01*
X115865811Y-71593804D01*
X115850889Y-71553796D01*
X115850888Y-71553794D01*
X115850887Y-71553792D01*
X115763261Y-71436738D01*
X115646207Y-71349112D01*
X115646202Y-71349110D01*
X115509204Y-71298011D01*
X115509196Y-71298009D01*
X115499802Y-71297000D01*
X115434210Y-71269832D01*
X115393718Y-71211514D01*
X115391184Y-71140563D01*
X115427410Y-71079504D01*
X115441004Y-71068506D01*
X115441278Y-71068313D01*
X115444300Y-71066198D01*
X115606198Y-70904300D01*
X115737523Y-70716749D01*
X115834284Y-70509243D01*
X115893543Y-70288087D01*
X115913498Y-70060000D01*
X115893543Y-69831913D01*
X115834284Y-69610757D01*
X115737523Y-69403251D01*
X115606198Y-69215700D01*
X115444300Y-69053802D01*
X115413903Y-69032518D01*
X115340478Y-68981105D01*
X115256749Y-68922477D01*
X115228175Y-68909153D01*
X115217543Y-68904195D01*
X115164258Y-68857279D01*
X115144796Y-68789002D01*
X115165337Y-68721042D01*
X115217543Y-68675805D01*
X115219997Y-68674660D01*
X115256749Y-68657523D01*
X115444300Y-68526198D01*
X115606198Y-68364300D01*
X115737523Y-68176749D01*
X115834284Y-67969243D01*
X115893543Y-67748087D01*
X115913498Y-67520000D01*
X115893543Y-67291913D01*
X115834284Y-67070757D01*
X115737523Y-66863251D01*
X115606198Y-66675700D01*
X115444300Y-66513802D01*
X115256749Y-66382477D01*
X115216951Y-66363919D01*
X115163666Y-66317002D01*
X115144205Y-66248725D01*
X115164747Y-66180765D01*
X115216951Y-66135529D01*
X115256498Y-66117087D01*
X115443974Y-65985815D01*
X115443980Y-65985810D01*
X115605810Y-65823980D01*
X115605815Y-65823974D01*
X115737087Y-65636498D01*
X115833811Y-65429073D01*
X115833813Y-65429068D01*
X115886082Y-65234000D01*
X115030703Y-65234000D01*
X115065925Y-65172993D01*
X115100000Y-65045826D01*
X115100000Y-64914174D01*
X115065925Y-64787007D01*
X115030703Y-64726000D01*
X115886082Y-64726000D01*
X115833813Y-64530931D01*
X115833811Y-64530926D01*
X115737087Y-64323501D01*
X115605815Y-64136025D01*
X115605810Y-64136019D01*
X115443980Y-63974189D01*
X115443974Y-63974184D01*
X115256497Y-63842911D01*
X115216949Y-63824469D01*
X115163665Y-63777551D01*
X115144205Y-63709273D01*
X115164748Y-63641314D01*
X115216950Y-63596081D01*
X115256749Y-63577523D01*
X115444300Y-63446198D01*
X115606198Y-63284300D01*
X115737523Y-63096749D01*
X115834284Y-62889243D01*
X115893543Y-62668087D01*
X115913498Y-62440000D01*
X115893543Y-62211913D01*
X115834284Y-61990757D01*
X115737523Y-61783251D01*
X115606198Y-61595700D01*
X115444300Y-61433802D01*
X115256749Y-61302477D01*
X115217543Y-61284195D01*
X115164258Y-61237279D01*
X115144796Y-61169002D01*
X115165337Y-61101042D01*
X115217543Y-61055805D01*
X115219997Y-61054660D01*
X115256749Y-61037523D01*
X115444300Y-60906198D01*
X115606198Y-60744300D01*
X115737523Y-60556749D01*
X115834284Y-60349243D01*
X115893543Y-60128087D01*
X115913498Y-59900000D01*
X115893543Y-59671913D01*
X115834284Y-59450757D01*
X115737523Y-59243251D01*
X115606198Y-59055700D01*
X115444300Y-58893802D01*
X115256749Y-58762477D01*
X115217543Y-58744195D01*
X115164258Y-58697279D01*
X115144796Y-58629002D01*
X115165337Y-58561042D01*
X115217543Y-58515805D01*
X115227030Y-58511381D01*
X115256749Y-58497523D01*
X115444300Y-58366198D01*
X115606198Y-58204300D01*
X115737523Y-58016749D01*
X115834284Y-57809243D01*
X115893543Y-57588087D01*
X115913498Y-57360000D01*
X115893543Y-57131913D01*
X115834284Y-56910757D01*
X115737523Y-56703251D01*
X115606198Y-56515700D01*
X115444300Y-56353802D01*
X115256749Y-56222477D01*
X115217543Y-56204195D01*
X115164258Y-56157279D01*
X115144796Y-56089002D01*
X115165337Y-56021042D01*
X115217543Y-55975805D01*
X115219997Y-55974660D01*
X115256749Y-55957523D01*
X115444300Y-55826198D01*
X115606198Y-55664300D01*
X115680357Y-55558390D01*
X115716181Y-55507229D01*
X115771638Y-55462901D01*
X115819394Y-55453500D01*
X116302393Y-55453500D01*
X116302394Y-55453500D01*
X116424785Y-55429155D01*
X116540075Y-55381400D01*
X116643833Y-55312071D01*
X119262724Y-52693178D01*
X119325033Y-52659156D01*
X119392728Y-52663103D01*
X119413049Y-52670080D01*
X119643288Y-52708500D01*
X119643292Y-52708500D01*
X119876708Y-52708500D01*
X119876712Y-52708500D01*
X120106951Y-52670080D01*
X120327727Y-52594287D01*
X120533017Y-52483190D01*
X120717220Y-52339818D01*
X120717221Y-52339817D01*
X120721054Y-52336289D01*
X120722431Y-52337785D01*
X120775780Y-52305690D01*
X120846745Y-52307790D01*
X120905310Y-52347924D01*
X120925741Y-52383549D01*
X120949111Y-52446204D01*
X120949112Y-52446207D01*
X121036738Y-52563261D01*
X121153792Y-52650887D01*
X121153794Y-52650888D01*
X121153796Y-52650889D01*
X121205243Y-52670078D01*
X121290795Y-52701988D01*
X121290803Y-52701990D01*
X121351350Y-52708499D01*
X121351355Y-52708499D01*
X121351362Y-52708500D01*
X121351368Y-52708500D01*
X123248632Y-52708500D01*
X123248638Y-52708500D01*
X123248645Y-52708499D01*
X123248649Y-52708499D01*
X123309196Y-52701990D01*
X123309199Y-52701989D01*
X123309201Y-52701989D01*
X123446204Y-52650889D01*
X123563261Y-52563261D01*
X123650889Y-52446204D01*
X123701989Y-52309201D01*
X123702367Y-52305690D01*
X123708499Y-52248649D01*
X123708500Y-52248632D01*
X123708500Y-50351367D01*
X123708499Y-50351350D01*
X123701990Y-50290803D01*
X123701988Y-50290795D01*
X123650889Y-50153797D01*
X123650887Y-50153792D01*
X123563261Y-50036738D01*
X123446207Y-49949112D01*
X123446202Y-49949110D01*
X123309204Y-49898011D01*
X123309196Y-49898009D01*
X123248649Y-49891500D01*
X123248638Y-49891500D01*
X121351362Y-49891500D01*
X121351350Y-49891500D01*
X121290803Y-49898009D01*
X121290795Y-49898011D01*
X121153797Y-49949110D01*
X121153792Y-49949112D01*
X121036738Y-50036738D01*
X120949112Y-50153792D01*
X120949112Y-50153793D01*
X120925741Y-50216451D01*
X120883193Y-50273286D01*
X120816672Y-50298095D01*
X120747298Y-50283002D01*
X120721705Y-50263002D01*
X120721054Y-50263711D01*
X120717221Y-50260182D01*
X120625118Y-50188496D01*
X120533017Y-50116810D01*
X120327727Y-50005713D01*
X120327724Y-50005712D01*
X120327723Y-50005711D01*
X120106955Y-49929921D01*
X120106948Y-49929919D01*
X120008411Y-49913476D01*
X119876712Y-49891500D01*
X119643288Y-49891500D01*
X119528066Y-49910727D01*
X119413051Y-49929919D01*
X119413044Y-49929921D01*
X119192276Y-50005711D01*
X119192273Y-50005713D01*
X118986985Y-50116809D01*
X118986983Y-50116810D01*
X118802778Y-50260182D01*
X118802774Y-50260186D01*
X118644685Y-50431916D01*
X118517015Y-50627331D01*
X118423252Y-50841089D01*
X118423249Y-50841096D01*
X118365950Y-51067366D01*
X118365949Y-51067372D01*
X118365949Y-51067374D01*
X118364989Y-51078959D01*
X118346673Y-51300000D01*
X118365949Y-51532627D01*
X118402026Y-51675092D01*
X118399358Y-51746039D01*
X118368976Y-51795118D01*
X116014501Y-54149595D01*
X115952189Y-54183620D01*
X115925406Y-54186500D01*
X115819394Y-54186500D01*
X115751273Y-54166498D01*
X115716181Y-54132771D01*
X115606200Y-53975703D01*
X115606195Y-53975697D01*
X115444302Y-53813804D01*
X115444296Y-53813799D01*
X115294459Y-53708882D01*
X115256749Y-53682477D01*
X115217543Y-53664195D01*
X115164258Y-53617279D01*
X115144796Y-53549002D01*
X115165337Y-53481042D01*
X115217543Y-53435805D01*
X115219997Y-53434660D01*
X115256749Y-53417523D01*
X115444300Y-53286198D01*
X115606198Y-53124300D01*
X115737523Y-52936749D01*
X115834284Y-52729243D01*
X115893543Y-52508087D01*
X115913498Y-52280000D01*
X115893543Y-52051913D01*
X115834284Y-51830757D01*
X115737523Y-51623251D01*
X115606198Y-51435700D01*
X115444300Y-51273802D01*
X115256749Y-51142477D01*
X115217543Y-51124195D01*
X115164258Y-51077279D01*
X115144796Y-51009002D01*
X115165337Y-50941042D01*
X115217543Y-50895805D01*
X115219997Y-50894660D01*
X115256749Y-50877523D01*
X115444300Y-50746198D01*
X115606198Y-50584300D01*
X115737523Y-50396749D01*
X115834284Y-50189243D01*
X115893543Y-49968087D01*
X115913498Y-49740000D01*
X115893543Y-49511913D01*
X115834284Y-49290757D01*
X115737523Y-49083251D01*
X115606198Y-48895700D01*
X115444300Y-48733802D01*
X115256749Y-48602477D01*
X115217543Y-48584195D01*
X115164258Y-48537279D01*
X115144796Y-48469002D01*
X115165337Y-48401042D01*
X115217543Y-48355805D01*
X115219997Y-48354660D01*
X115256749Y-48337523D01*
X115444300Y-48206198D01*
X115606198Y-48044300D01*
X115737523Y-47856749D01*
X115834284Y-47649243D01*
X115893543Y-47428087D01*
X115913498Y-47200000D01*
X115893543Y-46971913D01*
X115834284Y-46750757D01*
X115737523Y-46543251D01*
X115606198Y-46355700D01*
X115444300Y-46193802D01*
X115256749Y-46062477D01*
X115217543Y-46044195D01*
X115164258Y-45997279D01*
X115144796Y-45929002D01*
X115165337Y-45861042D01*
X115217543Y-45815805D01*
X115219997Y-45814660D01*
X115256749Y-45797523D01*
X115444300Y-45666198D01*
X115606198Y-45504300D01*
X115737523Y-45316749D01*
X115834284Y-45109243D01*
X115893543Y-44888087D01*
X115913498Y-44660000D01*
X115893543Y-44431913D01*
X115834284Y-44210757D01*
X115737523Y-44003251D01*
X115606198Y-43815700D01*
X115444300Y-43653802D01*
X115256749Y-43522477D01*
X115217543Y-43504195D01*
X115164258Y-43457279D01*
X115144796Y-43389002D01*
X115165337Y-43321042D01*
X115217543Y-43275805D01*
X115219997Y-43274660D01*
X115256749Y-43257523D01*
X115444300Y-43126198D01*
X115606198Y-42964300D01*
X115737523Y-42776749D01*
X115834284Y-42569243D01*
X115893543Y-42348087D01*
X115913498Y-42120000D01*
X115893543Y-41891913D01*
X115834284Y-41670757D01*
X115737523Y-41463251D01*
X115606198Y-41275700D01*
X115444300Y-41113802D01*
X115256749Y-40982477D01*
X115217543Y-40964195D01*
X115164258Y-40917279D01*
X115144796Y-40849002D01*
X115165337Y-40781042D01*
X115217543Y-40735805D01*
X115219997Y-40734660D01*
X115256749Y-40717523D01*
X115444300Y-40586198D01*
X115606198Y-40424300D01*
X115737523Y-40236749D01*
X115834284Y-40029243D01*
X115893543Y-39808087D01*
X115913498Y-39580000D01*
X115893543Y-39351913D01*
X115834284Y-39130757D01*
X115737523Y-38923251D01*
X115606198Y-38735700D01*
X115444300Y-38573802D01*
X115256749Y-38442477D01*
X115217543Y-38424195D01*
X115164258Y-38377279D01*
X115144796Y-38309002D01*
X115165337Y-38241042D01*
X115217543Y-38195805D01*
X115219997Y-38194660D01*
X115256749Y-38177523D01*
X115444300Y-38046198D01*
X115558202Y-37932296D01*
X115620514Y-37898270D01*
X115691329Y-37903335D01*
G37*
%TD.AperFunction*%
%TA.AperFunction,Conductor*%
G36*
X110454075Y-78802993D02*
G01*
X110519901Y-78917007D01*
X110612993Y-79010099D01*
X110727007Y-79075925D01*
X110795051Y-79094157D01*
X110219395Y-79669813D01*
X110219395Y-79669814D01*
X110282575Y-79714053D01*
X110282574Y-79714053D01*
X110483972Y-79807966D01*
X110483976Y-79807968D01*
X110698625Y-79865482D01*
X110920000Y-79884850D01*
X111141374Y-79865482D01*
X111356023Y-79807968D01*
X111356027Y-79807966D01*
X111557425Y-79714053D01*
X111557426Y-79714052D01*
X111620603Y-79669814D01*
X111620603Y-79669812D01*
X111044948Y-79094157D01*
X111112993Y-79075925D01*
X111227007Y-79010099D01*
X111320099Y-78917007D01*
X111385925Y-78802993D01*
X111404157Y-78734948D01*
X111979812Y-79310603D01*
X111979814Y-79310603D01*
X112024052Y-79247426D01*
X112024053Y-79247425D01*
X112075529Y-79137035D01*
X112122446Y-79083750D01*
X112190723Y-79064289D01*
X112258683Y-79084831D01*
X112303919Y-79137035D01*
X112355511Y-79247675D01*
X112355512Y-79247677D01*
X112483016Y-79429772D01*
X112483020Y-79429777D01*
X112483023Y-79429781D01*
X112640219Y-79586977D01*
X112772772Y-79679792D01*
X112817099Y-79735246D01*
X112826500Y-79783003D01*
X112826500Y-81140500D01*
X112806498Y-81208621D01*
X112752842Y-81255114D01*
X112700500Y-81266500D01*
X109740214Y-81266500D01*
X109672093Y-81246498D01*
X109625600Y-81192842D01*
X109615496Y-81122568D01*
X109631094Y-81077501D01*
X109634527Y-81071556D01*
X109693542Y-80889928D01*
X109713504Y-80700000D01*
X109693542Y-80510072D01*
X109634527Y-80328444D01*
X109570869Y-80218185D01*
X109539042Y-80163059D01*
X109539041Y-80163058D01*
X109539040Y-80163056D01*
X109465863Y-80081784D01*
X109435146Y-80017776D01*
X109433500Y-79997474D01*
X109433500Y-78926272D01*
X109453502Y-78858151D01*
X109507158Y-78811658D01*
X109577432Y-78801554D01*
X109642012Y-78831048D01*
X109680396Y-78890774D01*
X109681207Y-78893661D01*
X109722031Y-79046023D01*
X109722033Y-79046027D01*
X109815946Y-79247425D01*
X109860184Y-79310603D01*
X109860185Y-79310603D01*
X110435841Y-78734947D01*
X110454075Y-78802993D01*
G37*
%TD.AperFunction*%
%TA.AperFunction,Conductor*%
G36*
X121043527Y-75353502D02*
G01*
X121064501Y-75370405D01*
X122819309Y-77125213D01*
X122853335Y-77187525D01*
X122848270Y-77258340D01*
X122805723Y-77315176D01*
X122739203Y-77339987D01*
X122719234Y-77339829D01*
X122660000Y-77334647D01*
X122438537Y-77354022D01*
X122329219Y-77383314D01*
X122223806Y-77411559D01*
X122223801Y-77411561D01*
X122022323Y-77505512D01*
X121840222Y-77633020D01*
X121840216Y-77633025D01*
X121683025Y-77790216D01*
X121683020Y-77790222D01*
X121555512Y-77972323D01*
X121503919Y-78082965D01*
X121457002Y-78136250D01*
X121388724Y-78155711D01*
X121320764Y-78135169D01*
X121275529Y-78082965D01*
X121224051Y-77972571D01*
X121179815Y-77909395D01*
X121179813Y-77909395D01*
X120604157Y-78485051D01*
X120585925Y-78417007D01*
X120520099Y-78302993D01*
X120427007Y-78209901D01*
X120312993Y-78144075D01*
X120244947Y-78125841D01*
X120820603Y-77550185D01*
X120820603Y-77550184D01*
X120757425Y-77505946D01*
X120556027Y-77412033D01*
X120556023Y-77412031D01*
X120341374Y-77354517D01*
X120120000Y-77335149D01*
X119898625Y-77354517D01*
X119683976Y-77412031D01*
X119683972Y-77412033D01*
X119482575Y-77505946D01*
X119419394Y-77550185D01*
X119995051Y-78125842D01*
X119927007Y-78144075D01*
X119812993Y-78209901D01*
X119719901Y-78302993D01*
X119654075Y-78417007D01*
X119635842Y-78485051D01*
X119060185Y-77909394D01*
X119015946Y-77972575D01*
X118922033Y-78173972D01*
X118922031Y-78173976D01*
X118864517Y-78388625D01*
X118845149Y-78610000D01*
X118864517Y-78831374D01*
X118922031Y-79046023D01*
X118922033Y-79046027D01*
X119015946Y-79247425D01*
X119060184Y-79310603D01*
X119060185Y-79310603D01*
X119635841Y-78734947D01*
X119654075Y-78802993D01*
X119719901Y-78917007D01*
X119812993Y-79010099D01*
X119927007Y-79075925D01*
X119995051Y-79094157D01*
X119419395Y-79669813D01*
X119419395Y-79669814D01*
X119482575Y-79714053D01*
X119482574Y-79714053D01*
X119683972Y-79807966D01*
X119683976Y-79807968D01*
X119898625Y-79865482D01*
X120120000Y-79884850D01*
X120341374Y-79865482D01*
X120556023Y-79807968D01*
X120556027Y-79807966D01*
X120757425Y-79714053D01*
X120757426Y-79714052D01*
X120820603Y-79669814D01*
X120820603Y-79669812D01*
X120244948Y-79094157D01*
X120312993Y-79075925D01*
X120427007Y-79010099D01*
X120520099Y-78917007D01*
X120585925Y-78802993D01*
X120604157Y-78734948D01*
X121179812Y-79310603D01*
X121179814Y-79310603D01*
X121224052Y-79247426D01*
X121224053Y-79247425D01*
X121275529Y-79137035D01*
X121322446Y-79083750D01*
X121390723Y-79064289D01*
X121458683Y-79084831D01*
X121503919Y-79137035D01*
X121555511Y-79247675D01*
X121555512Y-79247677D01*
X121683016Y-79429772D01*
X121683020Y-79429777D01*
X121683023Y-79429781D01*
X121840219Y-79586977D01*
X121972772Y-79679792D01*
X122017099Y-79735246D01*
X122026500Y-79783003D01*
X122026500Y-79825405D01*
X122006498Y-79893526D01*
X121989595Y-79914500D01*
X120774501Y-81129595D01*
X120712189Y-81163620D01*
X120685406Y-81166500D01*
X116964594Y-81166500D01*
X116896473Y-81146498D01*
X116875499Y-81129595D01*
X115840690Y-80094786D01*
X115806664Y-80032474D01*
X115811729Y-79961659D01*
X115854276Y-79904823D01*
X115920796Y-79880012D01*
X115940767Y-79880171D01*
X115999994Y-79885353D01*
X115999996Y-79885352D01*
X116000000Y-79885353D01*
X116221463Y-79865978D01*
X116436196Y-79808440D01*
X116637677Y-79714488D01*
X116819781Y-79586977D01*
X116976977Y-79429781D01*
X117104488Y-79247677D01*
X117198440Y-79046196D01*
X117255978Y-78831463D01*
X117275353Y-78610000D01*
X117255978Y-78388537D01*
X117198440Y-78173804D01*
X117104488Y-77972324D01*
X116976977Y-77790219D01*
X116819781Y-77633023D01*
X116819771Y-77633016D01*
X116687229Y-77540208D01*
X116642901Y-77484750D01*
X116633500Y-77436995D01*
X116633500Y-76737607D01*
X116633499Y-76737603D01*
X116609155Y-76615215D01*
X116594098Y-76578864D01*
X116589340Y-76567376D01*
X116589316Y-76567321D01*
X116561402Y-76499927D01*
X116492072Y-76396167D01*
X116289245Y-76193340D01*
X115644497Y-75548593D01*
X115610474Y-75486283D01*
X115615538Y-75415468D01*
X115658085Y-75358632D01*
X115724605Y-75333821D01*
X115733594Y-75333500D01*
X120975406Y-75333500D01*
X121043527Y-75353502D01*
G37*
%TD.AperFunction*%
%TA.AperFunction,Conductor*%
G36*
X114753527Y-76453502D02*
G01*
X114774501Y-76470405D01*
X115329595Y-77025499D01*
X115363621Y-77087811D01*
X115366500Y-77114594D01*
X115366500Y-77436996D01*
X115346498Y-77505117D01*
X115312771Y-77540209D01*
X115180222Y-77633020D01*
X115180216Y-77633025D01*
X115023025Y-77790216D01*
X115023020Y-77790222D01*
X114895512Y-77972323D01*
X114844195Y-78082373D01*
X114797277Y-78135658D01*
X114729000Y-78155119D01*
X114661040Y-78134577D01*
X114615805Y-78082373D01*
X114564603Y-77972571D01*
X114564488Y-77972324D01*
X114436977Y-77790219D01*
X114279781Y-77633023D01*
X114279777Y-77633020D01*
X114279772Y-77633016D01*
X114097677Y-77505512D01*
X114097675Y-77505511D01*
X113896199Y-77411561D01*
X113896193Y-77411559D01*
X113854074Y-77400273D01*
X113681463Y-77354022D01*
X113460000Y-77334647D01*
X113238537Y-77354022D01*
X113129219Y-77383314D01*
X113023806Y-77411559D01*
X113023801Y-77411561D01*
X112822323Y-77505512D01*
X112640222Y-77633020D01*
X112640216Y-77633025D01*
X112483025Y-77790216D01*
X112483020Y-77790222D01*
X112355512Y-77972323D01*
X112303919Y-78082965D01*
X112257002Y-78136250D01*
X112188724Y-78155711D01*
X112120764Y-78135169D01*
X112075529Y-78082965D01*
X112024051Y-77972571D01*
X111979815Y-77909395D01*
X111979813Y-77909395D01*
X111404157Y-78485051D01*
X111385925Y-78417007D01*
X111320099Y-78302993D01*
X111227007Y-78209901D01*
X111112993Y-78144075D01*
X111044947Y-78125841D01*
X111620603Y-77550185D01*
X111620603Y-77550184D01*
X111557425Y-77505946D01*
X111356027Y-77412033D01*
X111356023Y-77412031D01*
X111141374Y-77354517D01*
X110920000Y-77335149D01*
X110698625Y-77354517D01*
X110483976Y-77412031D01*
X110483972Y-77412033D01*
X110282575Y-77505946D01*
X110219394Y-77550185D01*
X110795051Y-78125842D01*
X110727007Y-78144075D01*
X110612993Y-78209901D01*
X110519901Y-78302993D01*
X110454075Y-78417007D01*
X110435842Y-78485051D01*
X109860185Y-77909394D01*
X109815946Y-77972575D01*
X109722033Y-78173972D01*
X109722031Y-78173976D01*
X109681207Y-78326338D01*
X109644255Y-78386961D01*
X109580395Y-78417982D01*
X109509900Y-78409554D01*
X109455153Y-78364351D01*
X109433536Y-78296726D01*
X109433500Y-78293727D01*
X109433500Y-77137607D01*
X109433499Y-77137603D01*
X109409155Y-77015215D01*
X109361400Y-76899925D01*
X109292071Y-76796167D01*
X109203833Y-76707929D01*
X109144499Y-76648595D01*
X109110473Y-76586283D01*
X109115538Y-76515468D01*
X109158085Y-76458632D01*
X109224605Y-76433821D01*
X109233594Y-76433500D01*
X114685406Y-76433500D01*
X114753527Y-76453502D01*
G37*
%TD.AperFunction*%
%TA.AperFunction,Conductor*%
G36*
X113448727Y-50393502D02*
G01*
X113483819Y-50427229D01*
X113593802Y-50584300D01*
X113755700Y-50746198D01*
X113943251Y-50877523D01*
X113978359Y-50893894D01*
X113982457Y-50895805D01*
X114035742Y-50942722D01*
X114055203Y-51010999D01*
X114034661Y-51078959D01*
X113982457Y-51124195D01*
X113943250Y-51142477D01*
X113755703Y-51273799D01*
X113755697Y-51273804D01*
X113593804Y-51435697D01*
X113593799Y-51435703D01*
X113462477Y-51623250D01*
X113365717Y-51830753D01*
X113365715Y-51830759D01*
X113306457Y-52051913D01*
X113286502Y-52280000D01*
X113306457Y-52508086D01*
X113365715Y-52729240D01*
X113365717Y-52729246D01*
X113462477Y-52936749D01*
X113528682Y-53031300D01*
X113593802Y-53124300D01*
X113755700Y-53286198D01*
X113943251Y-53417523D01*
X113978359Y-53433894D01*
X113982457Y-53435805D01*
X114035742Y-53482722D01*
X114055203Y-53550999D01*
X114034661Y-53618959D01*
X113982457Y-53664195D01*
X113943250Y-53682477D01*
X113755703Y-53813799D01*
X113755697Y-53813804D01*
X113593804Y-53975697D01*
X113593799Y-53975703D01*
X113462477Y-54163250D01*
X113365717Y-54370753D01*
X113365715Y-54370759D01*
X113306457Y-54591913D01*
X113286502Y-54820000D01*
X113306457Y-55048086D01*
X113365715Y-55269240D01*
X113365717Y-55269246D01*
X113462477Y-55476749D01*
X113546094Y-55596167D01*
X113593802Y-55664300D01*
X113755700Y-55826198D01*
X113943251Y-55957523D01*
X113967422Y-55968794D01*
X113982457Y-55975805D01*
X114035742Y-56022722D01*
X114055203Y-56090999D01*
X114034661Y-56158959D01*
X113982457Y-56204195D01*
X113943250Y-56222477D01*
X113755703Y-56353799D01*
X113755697Y-56353804D01*
X113593804Y-56515697D01*
X113593799Y-56515703D01*
X113462477Y-56703250D01*
X113365717Y-56910753D01*
X113365715Y-56910759D01*
X113315685Y-57097474D01*
X113306457Y-57131913D01*
X113286502Y-57360000D01*
X113306457Y-57588087D01*
X113365716Y-57809243D01*
X113462477Y-58016749D01*
X113593802Y-58204300D01*
X113755700Y-58366198D01*
X113943251Y-58497523D01*
X113972970Y-58511381D01*
X113982457Y-58515805D01*
X114035742Y-58562722D01*
X114055203Y-58630999D01*
X114034661Y-58698959D01*
X113982457Y-58744195D01*
X113943250Y-58762477D01*
X113755703Y-58893799D01*
X113755697Y-58893804D01*
X113593804Y-59055697D01*
X113593799Y-59055703D01*
X113462477Y-59243250D01*
X113365717Y-59450753D01*
X113365715Y-59450759D01*
X113348373Y-59515482D01*
X113306457Y-59671913D01*
X113286502Y-59900000D01*
X113306457Y-60128087D01*
X113365716Y-60349243D01*
X113462477Y-60556749D01*
X113593802Y-60744300D01*
X113755700Y-60906198D01*
X113943251Y-61037523D01*
X113978359Y-61053894D01*
X113982457Y-61055805D01*
X114035742Y-61102722D01*
X114055203Y-61170999D01*
X114034661Y-61238959D01*
X113982457Y-61284195D01*
X113943250Y-61302477D01*
X113755703Y-61433799D01*
X113755697Y-61433804D01*
X113593804Y-61595697D01*
X113593799Y-61595703D01*
X113462477Y-61783250D01*
X113365717Y-61990753D01*
X113365716Y-61990757D01*
X113306457Y-62211913D01*
X113286502Y-62440000D01*
X113306457Y-62668087D01*
X113323459Y-62731538D01*
X113356070Y-62853246D01*
X113365716Y-62889243D01*
X113462477Y-63096749D01*
X113593802Y-63284300D01*
X113755700Y-63446198D01*
X113943251Y-63577523D01*
X113982457Y-63595805D01*
X113983047Y-63596080D01*
X114036332Y-63642996D01*
X114055794Y-63711273D01*
X114035253Y-63779233D01*
X113983051Y-63824468D01*
X113943504Y-63842910D01*
X113756025Y-63974184D01*
X113756019Y-63974189D01*
X113594189Y-64136019D01*
X113594184Y-64136025D01*
X113462912Y-64323501D01*
X113366188Y-64530926D01*
X113366186Y-64530931D01*
X113313917Y-64726000D01*
X114169297Y-64726000D01*
X114134075Y-64787007D01*
X114100000Y-64914174D01*
X114100000Y-65045826D01*
X114134075Y-65172993D01*
X114169297Y-65234000D01*
X113313918Y-65234000D01*
X113366186Y-65429068D01*
X113366188Y-65429073D01*
X113462912Y-65636498D01*
X113594184Y-65823974D01*
X113594189Y-65823980D01*
X113756019Y-65985810D01*
X113756025Y-65985815D01*
X113943503Y-66117089D01*
X113983049Y-66135530D01*
X114036334Y-66182447D01*
X114055794Y-66250724D01*
X114035252Y-66318684D01*
X113983049Y-66363918D01*
X113943252Y-66382475D01*
X113755703Y-66513799D01*
X113755697Y-66513804D01*
X113593804Y-66675697D01*
X113593799Y-66675703D01*
X113462477Y-66863250D01*
X113365717Y-67070753D01*
X113365715Y-67070759D01*
X113341161Y-67162396D01*
X113306457Y-67291913D01*
X113286502Y-67520000D01*
X113306457Y-67748087D01*
X113365716Y-67969243D01*
X113462477Y-68176749D01*
X113593802Y-68364300D01*
X113755700Y-68526198D01*
X113943251Y-68657523D01*
X113978359Y-68673894D01*
X113982457Y-68675805D01*
X114035742Y-68722722D01*
X114055203Y-68790999D01*
X114034661Y-68858959D01*
X113982457Y-68904195D01*
X113943250Y-68922477D01*
X113755703Y-69053799D01*
X113755697Y-69053804D01*
X113593804Y-69215697D01*
X113593799Y-69215703D01*
X113462477Y-69403250D01*
X113365717Y-69610753D01*
X113365715Y-69610759D01*
X113310128Y-69818213D01*
X113306457Y-69831913D01*
X113286502Y-70060000D01*
X113306457Y-70288087D01*
X113327604Y-70367007D01*
X113365715Y-70509240D01*
X113365717Y-70509246D01*
X113462477Y-70716749D01*
X113593799Y-70904296D01*
X113593804Y-70904302D01*
X113755697Y-71066195D01*
X113755706Y-71066203D01*
X113759001Y-71068510D01*
X113803329Y-71123968D01*
X113810637Y-71194587D01*
X113778605Y-71257947D01*
X113717403Y-71293931D01*
X113700197Y-71297000D01*
X113690803Y-71298009D01*
X113690795Y-71298011D01*
X113553797Y-71349110D01*
X113553792Y-71349112D01*
X113436738Y-71436738D01*
X113349112Y-71553792D01*
X113349110Y-71553797D01*
X113298011Y-71690795D01*
X113298009Y-71690803D01*
X113291500Y-71751350D01*
X113291500Y-73448649D01*
X113298009Y-73509196D01*
X113298011Y-73509204D01*
X113349110Y-73646202D01*
X113349112Y-73646207D01*
X113436738Y-73763261D01*
X113538758Y-73839632D01*
X113581305Y-73896468D01*
X113586369Y-73967283D01*
X113552344Y-74029596D01*
X113490032Y-74063621D01*
X113463249Y-74066500D01*
X111714594Y-74066500D01*
X111646473Y-74046498D01*
X111625499Y-74029595D01*
X109570405Y-71974501D01*
X109536379Y-71912189D01*
X109533500Y-71885406D01*
X109533500Y-69902524D01*
X109553502Y-69834403D01*
X109565858Y-69818220D01*
X109639040Y-69736944D01*
X109734527Y-69571556D01*
X109793542Y-69389928D01*
X109813504Y-69200000D01*
X109793542Y-69010072D01*
X109734527Y-68828444D01*
X109639040Y-68663056D01*
X109639038Y-68663054D01*
X109639034Y-68663048D01*
X109511255Y-68521135D01*
X109356752Y-68408882D01*
X109182288Y-68331206D01*
X108995487Y-68291500D01*
X108808595Y-68291500D01*
X108740474Y-68271498D01*
X108693981Y-68217842D01*
X108683877Y-68147568D01*
X108713371Y-68082988D01*
X108719500Y-68076405D01*
X109553991Y-67241914D01*
X110492072Y-66303833D01*
X110561401Y-66200075D01*
X110609155Y-66084784D01*
X110633500Y-65962393D01*
X110633500Y-65837606D01*
X110633500Y-55714594D01*
X110653502Y-55646473D01*
X110670405Y-55625499D01*
X111475904Y-54820000D01*
X112292071Y-54003833D01*
X112361400Y-53900075D01*
X112409155Y-53784785D01*
X112433500Y-53662394D01*
X112433500Y-53537607D01*
X112433500Y-53537606D01*
X112433500Y-51014594D01*
X112453502Y-50946473D01*
X112470405Y-50925499D01*
X112985499Y-50410405D01*
X113047811Y-50376379D01*
X113074594Y-50373500D01*
X113380606Y-50373500D01*
X113448727Y-50393502D01*
G37*
%TD.AperFunction*%
%TD*%
M02*
