%TF.GenerationSoftware,KiCad,Pcbnew,8.0.4*%
%TF.CreationDate,2024-10-26T03:03:05+06:00*%
%TF.ProjectId,PCB V0.6.3,50434220-5630-42e3-962e-332e6b696361,rev?*%
%TF.SameCoordinates,Original*%
%TF.FileFunction,Soldermask,Bot*%
%TF.FilePolarity,Negative*%
%FSLAX46Y46*%
G04 Gerber Fmt 4.6, Leading zero omitted, Abs format (unit mm)*
G04 Created by KiCad (PCBNEW 8.0.4) date 2024-10-26 03:03:05*
%MOMM*%
%LPD*%
G01*
G04 APERTURE LIST*
G04 Aperture macros list*
%AMRoundRect*
0 Rectangle with rounded corners*
0 $1 Rounding radius*
0 $2 $3 $4 $5 $6 $7 $8 $9 X,Y pos of 4 corners*
0 Add a 4 corners polygon primitive as box body*
4,1,4,$2,$3,$4,$5,$6,$7,$8,$9,$2,$3,0*
0 Add four circle primitives for the rounded corners*
1,1,$1+$1,$2,$3*
1,1,$1+$1,$4,$5*
1,1,$1+$1,$6,$7*
1,1,$1+$1,$8,$9*
0 Add four rect primitives between the rounded corners*
20,1,$1+$1,$2,$3,$4,$5,0*
20,1,$1+$1,$4,$5,$6,$7,0*
20,1,$1+$1,$6,$7,$8,$9,0*
20,1,$1+$1,$8,$9,$2,$3,0*%
G04 Aperture macros list end*
%ADD10C,1.524000*%
%ADD11R,1.800000X1.800000*%
%ADD12C,1.800000*%
%ADD13C,1.400000*%
%ADD14O,1.400000X1.400000*%
%ADD15R,2.540000X2.540000*%
%ADD16C,2.540000*%
%ADD17RoundRect,0.200100X0.949900X0.949900X-0.949900X0.949900X-0.949900X-0.949900X0.949900X-0.949900X0*%
%ADD18C,2.500000*%
%ADD19R,1.500000X1.500000*%
%ADD20O,1.500000X1.500000*%
%ADD21C,0.900000*%
%ADD22R,1.600000X1.600000*%
%ADD23C,1.600000*%
%ADD24R,1.200000X1.200000*%
%ADD25C,1.200000*%
%ADD26RoundRect,0.102000X-0.649000X0.649000X-0.649000X-0.649000X0.649000X-0.649000X0.649000X0.649000X0*%
%ADD27C,1.502000*%
%ADD28RoundRect,0.102000X-0.787500X-0.787500X0.787500X-0.787500X0.787500X0.787500X-0.787500X0.787500X0*%
%ADD29C,1.779000*%
%ADD30RoundRect,0.102000X-0.754000X-0.754000X0.754000X-0.754000X0.754000X0.754000X-0.754000X0.754000X0*%
%ADD31C,1.712000*%
%ADD32RoundRect,0.050800X0.762000X-0.762000X0.762000X0.762000X-0.762000X0.762000X-0.762000X-0.762000X0*%
%ADD33O,1.625600X1.625600*%
%ADD34RoundRect,0.102000X0.754000X-0.754000X0.754000X0.754000X-0.754000X0.754000X-0.754000X-0.754000X0*%
%ADD35C,1.728000*%
%ADD36RoundRect,0.102000X0.762000X0.762000X-0.762000X0.762000X-0.762000X-0.762000X0.762000X-0.762000X0*%
%ADD37RoundRect,0.102000X0.787500X-0.787500X0.787500X0.787500X-0.787500X0.787500X-0.787500X-0.787500X0*%
G04 APERTURE END LIST*
D10*
%TO.C,U3*%
X86405000Y-114320000D03*
X88945000Y-114320000D03*
X91485000Y-114320000D03*
X86445000Y-132180000D03*
X88985000Y-132180000D03*
X91525000Y-132180000D03*
%TD*%
D11*
%TO.C,D2*%
X101900000Y-79140000D03*
D12*
X101900000Y-76600000D03*
%TD*%
D13*
%TO.C,R3*%
X104700000Y-87310000D03*
D14*
X104700000Y-79690000D03*
%TD*%
D15*
%TO.C,U5*%
X82230000Y-177300000D03*
D16*
X100010000Y-177300000D03*
X100030000Y-137300000D03*
X82250000Y-137300000D03*
%TD*%
D13*
%TO.C,R2*%
X104750000Y-76720000D03*
D14*
X104750000Y-69100000D03*
%TD*%
D13*
%TO.C,R6*%
X95100000Y-75500000D03*
D14*
X95100000Y-83120000D03*
%TD*%
D11*
%TO.C,D3*%
X101600000Y-67300000D03*
D12*
X101600000Y-69840000D03*
%TD*%
D13*
%TO.C,R7*%
X86800000Y-160500000D03*
D14*
X86800000Y-155420000D03*
%TD*%
D17*
%TO.C,J6*%
X107500000Y-147650000D03*
D18*
X110040000Y-150190000D03*
X110040000Y-145110000D03*
X104960000Y-150190000D03*
X104960000Y-145110000D03*
%TD*%
D10*
%TO.C,U4*%
X102320000Y-107800000D03*
X104860000Y-107800000D03*
X107400000Y-107800000D03*
X102360000Y-125560000D03*
X104900000Y-125560000D03*
X107440000Y-125560000D03*
%TD*%
D19*
%TO.C,D1*%
X108925000Y-171325000D03*
D20*
X108925000Y-178945000D03*
%TD*%
D13*
%TO.C,R8*%
X89900000Y-155400000D03*
D14*
X89900000Y-160480000D03*
%TD*%
D21*
%TO.C,P1*%
X83600000Y-118600000D03*
X83600000Y-126600000D03*
%TD*%
D22*
%TO.C,U2*%
X98400000Y-95060000D03*
D23*
X98400000Y-92520000D03*
X98400000Y-89980000D03*
X98400000Y-87440000D03*
X98400000Y-84900000D03*
X98400000Y-82360000D03*
X98400000Y-79820000D03*
X98400000Y-77280000D03*
X98400000Y-74740000D03*
X98400000Y-72200000D03*
X98400000Y-69660000D03*
X98400000Y-67120000D03*
X83160000Y-67120000D03*
X83160000Y-69660000D03*
X83160000Y-72200000D03*
X83160000Y-74740000D03*
X83160000Y-77280000D03*
X83160000Y-79820000D03*
X83160000Y-82360000D03*
X83160000Y-84900000D03*
X83160000Y-87440000D03*
X83160000Y-89980000D03*
X83160000Y-92520000D03*
X83160000Y-95060000D03*
%TD*%
D24*
%TO.C,C1*%
X99400000Y-102200000D03*
D25*
X101400000Y-102200000D03*
%TD*%
D13*
%TO.C,R4*%
X91430000Y-84675000D03*
D14*
X86350000Y-84675000D03*
%TD*%
D26*
%TO.C,Q1*%
X104250000Y-174200000D03*
D27*
X104250000Y-176740000D03*
X104250000Y-179280000D03*
%TD*%
D13*
%TO.C,R1*%
X99775000Y-171625000D03*
D14*
X104855000Y-171625000D03*
%TD*%
D13*
%TO.C,R5*%
X101800000Y-82200000D03*
D14*
X101800000Y-89820000D03*
%TD*%
D24*
%TO.C,C2*%
X108172600Y-102200000D03*
D25*
X106172600Y-102200000D03*
%TD*%
D28*
%TO.C,J5*%
X103300000Y-182800000D03*
D29*
X100800000Y-182800000D03*
%TD*%
D10*
%TO.C,M8N_GPS1*%
X88720000Y-88500000D03*
X91260000Y-88500000D03*
X93800000Y-88500000D03*
X96340000Y-88500000D03*
%TD*%
D30*
%TO.C,J3*%
X93100000Y-182800000D03*
D31*
X90600000Y-182800000D03*
X88100000Y-182800000D03*
%TD*%
D32*
%TO.C,U1*%
X107610000Y-131443500D03*
D33*
X107610000Y-128903500D03*
X105070000Y-131443500D03*
X105070000Y-128903500D03*
X102530000Y-131443500D03*
X102530000Y-128903500D03*
X99990000Y-131443500D03*
X99990000Y-128903500D03*
%TD*%
D34*
%TO.C,J4*%
X108600000Y-80200000D03*
D31*
X108600000Y-82700000D03*
X108600000Y-85200000D03*
%TD*%
D34*
%TO.C,J2*%
X108700000Y-69000000D03*
D31*
X108700000Y-71500000D03*
X108700000Y-74000000D03*
%TD*%
D10*
%TO.C,U6*%
X96800000Y-177800000D03*
X92800000Y-177800000D03*
X95780000Y-141420000D03*
X85600000Y-178700000D03*
X85620000Y-141420000D03*
%TD*%
D35*
%TO.C,U7*%
X82520000Y-105870000D03*
X92680000Y-105870000D03*
X82520000Y-103330000D03*
D36*
X82520000Y-98250000D03*
D35*
X82520000Y-100790000D03*
X82520000Y-108410000D03*
X82520000Y-110950000D03*
X92680000Y-103330000D03*
D36*
X92680000Y-98250000D03*
D35*
X92680000Y-100790000D03*
X92680000Y-108410000D03*
X92680000Y-110950000D03*
%TD*%
D37*
%TO.C,J1*%
X107675000Y-137682500D03*
D29*
X107675000Y-140182500D03*
%TD*%
M02*
