%TF.GenerationSoftware,KiCad,Pcbnew,8.0.4*%
%TF.CreationDate,2024-10-26T03:03:05+06:00*%
%TF.ProjectId,PCB V0.6.3,50434220-5630-42e3-962e-332e6b696361,rev?*%
%TF.SameCoordinates,Original*%
%TF.FileFunction,Copper,L2,Bot*%
%TF.FilePolarity,Positive*%
%FSLAX46Y46*%
G04 Gerber Fmt 4.6, Leading zero omitted, Abs format (unit mm)*
G04 Created by KiCad (PCBNEW 8.0.4) date 2024-10-26 03:03:05*
%MOMM*%
%LPD*%
G01*
G04 APERTURE LIST*
G04 Aperture macros list*
%AMRoundRect*
0 Rectangle with rounded corners*
0 $1 Rounding radius*
0 $2 $3 $4 $5 $6 $7 $8 $9 X,Y pos of 4 corners*
0 Add a 4 corners polygon primitive as box body*
4,1,4,$2,$3,$4,$5,$6,$7,$8,$9,$2,$3,0*
0 Add four circle primitives for the rounded corners*
1,1,$1+$1,$2,$3*
1,1,$1+$1,$4,$5*
1,1,$1+$1,$6,$7*
1,1,$1+$1,$8,$9*
0 Add four rect primitives between the rounded corners*
20,1,$1+$1,$2,$3,$4,$5,0*
20,1,$1+$1,$4,$5,$6,$7,0*
20,1,$1+$1,$6,$7,$8,$9,0*
20,1,$1+$1,$8,$9,$2,$3,0*%
G04 Aperture macros list end*
%TA.AperFunction,ComponentPad*%
%ADD10C,1.524000*%
%TD*%
%TA.AperFunction,ComponentPad*%
%ADD11R,1.800000X1.800000*%
%TD*%
%TA.AperFunction,ComponentPad*%
%ADD12C,1.800000*%
%TD*%
%TA.AperFunction,ComponentPad*%
%ADD13C,1.400000*%
%TD*%
%TA.AperFunction,ComponentPad*%
%ADD14O,1.400000X1.400000*%
%TD*%
%TA.AperFunction,ComponentPad*%
%ADD15R,2.540000X2.540000*%
%TD*%
%TA.AperFunction,ComponentPad*%
%ADD16C,2.540000*%
%TD*%
%TA.AperFunction,ComponentPad*%
%ADD17RoundRect,0.200100X0.949900X0.949900X-0.949900X0.949900X-0.949900X-0.949900X0.949900X-0.949900X0*%
%TD*%
%TA.AperFunction,ComponentPad*%
%ADD18C,2.500000*%
%TD*%
%TA.AperFunction,ComponentPad*%
%ADD19R,1.500000X1.500000*%
%TD*%
%TA.AperFunction,ComponentPad*%
%ADD20O,1.500000X1.500000*%
%TD*%
%TA.AperFunction,ComponentPad*%
%ADD21R,1.600000X1.600000*%
%TD*%
%TA.AperFunction,ComponentPad*%
%ADD22C,1.600000*%
%TD*%
%TA.AperFunction,ComponentPad*%
%ADD23R,1.200000X1.200000*%
%TD*%
%TA.AperFunction,ComponentPad*%
%ADD24C,1.200000*%
%TD*%
%TA.AperFunction,ComponentPad*%
%ADD25R,1.298000X1.298000*%
%TD*%
%TA.AperFunction,ComponentPad*%
%ADD26C,1.298000*%
%TD*%
%TA.AperFunction,ComponentPad*%
%ADD27R,1.575000X1.575000*%
%TD*%
%TA.AperFunction,ComponentPad*%
%ADD28C,1.575000*%
%TD*%
%TA.AperFunction,ComponentPad*%
%ADD29R,1.508000X1.508000*%
%TD*%
%TA.AperFunction,ComponentPad*%
%ADD30C,1.508000*%
%TD*%
%TA.AperFunction,ComponentPad*%
%ADD31R,1.524000X1.524000*%
%TD*%
%TA.AperFunction,ComponentPad*%
%ADD32O,1.524000X1.524000*%
%TD*%
%TA.AperFunction,ViaPad*%
%ADD33C,0.600000*%
%TD*%
%TA.AperFunction,Conductor*%
%ADD34C,0.200000*%
%TD*%
%TA.AperFunction,Conductor*%
%ADD35C,1.500000*%
%TD*%
%TA.AperFunction,Conductor*%
%ADD36C,1.000000*%
%TD*%
%TA.AperFunction,Conductor*%
%ADD37C,0.800000*%
%TD*%
G04 APERTURE END LIST*
D10*
%TO.P,U3,1,GND*%
%TO.N,V GND*%
X86405000Y-114320000D03*
%TO.P,U3,2,Tx/SDA*%
%TO.N,SDA*%
X88945000Y-114320000D03*
%TO.P,U3,3,Rx/SCL*%
%TO.N,SCL*%
X91485000Y-114320000D03*
%TO.P,U3,4,Vcc*%
%TO.N,5V*%
X86445000Y-132180000D03*
%TO.P,U3,5,PRB*%
%TO.N,Net-(J6-In)*%
X88985000Y-132180000D03*
%TO.P,U3,6,PRBG*%
%TO.N,Net-(J6-Ext)*%
X91525000Y-132180000D03*
%TD*%
D11*
%TO.P,D2,1,K*%
%TO.N,Net-(D2-K)*%
X101900000Y-79140000D03*
D12*
%TO.P,D2,2,A*%
%TO.N,Net-(D2-A)*%
X101900000Y-76600000D03*
%TD*%
D13*
%TO.P,R3,1*%
%TO.N,Net-(J4-Pad3)*%
X104700000Y-87310000D03*
D14*
%TO.P,R3,2*%
%TO.N,V GND*%
X104700000Y-79690000D03*
%TD*%
D15*
%TO.P,U5,1,Vin*%
%TO.N,CHRG rectified*%
X82230000Y-177300000D03*
D16*
%TO.P,U5,2,GND*%
%TO.N,GND*%
X100010000Y-177300000D03*
%TO.P,U5,3,GND*%
X100030000Y-137300000D03*
%TO.P,U5,4,Vout*%
%TO.N,5V*%
X82250000Y-137300000D03*
%TD*%
D13*
%TO.P,R2,1*%
%TO.N,V GND*%
X104750000Y-76720000D03*
D14*
%TO.P,R2,2*%
%TO.N,Net-(U2-D7)*%
X104750000Y-69100000D03*
%TD*%
D13*
%TO.P,R6,1*%
%TO.N,Net-(D3-K)*%
X95100000Y-75500000D03*
D14*
%TO.P,R6,2*%
%TO.N,GND*%
X95100000Y-83120000D03*
%TD*%
D11*
%TO.P,D3,1,K*%
%TO.N,Net-(D3-K)*%
X101600000Y-67300000D03*
D12*
%TO.P,D3,2,A*%
%TO.N,Net-(D3-A)*%
X101600000Y-69840000D03*
%TD*%
D13*
%TO.P,R7,1*%
%TO.N,CHRG rectified*%
X86800000Y-160500000D03*
D14*
%TO.P,R7,2*%
%TO.N,V_sense*%
X86800000Y-155420000D03*
%TD*%
D17*
%TO.P,J6,1,In*%
%TO.N,Net-(J6-In)*%
X107500000Y-147650000D03*
D18*
%TO.P,J6,2,Ext*%
%TO.N,Net-(J6-Ext)*%
X110040000Y-150190000D03*
X110040000Y-145110000D03*
X104960000Y-150190000D03*
X104960000Y-145110000D03*
%TD*%
D10*
%TO.P,U4,1,GND*%
%TO.N,V GND*%
X102320000Y-107800000D03*
%TO.P,U4,2,Tx/SDA*%
%TO.N,SDA*%
X104860000Y-107800000D03*
%TO.P,U4,3,Rx/SCL*%
%TO.N,SCL*%
X107400000Y-107800000D03*
%TO.P,U4,4,Vcc*%
%TO.N,5V*%
X102360000Y-125560000D03*
%TO.P,U4,5,PRB*%
%TO.N,Net-(J1-Pad2)*%
X104900000Y-125560000D03*
%TO.P,U4,6,PRB*%
%TO.N,Net-(J1-Pad1)*%
X107440000Y-125560000D03*
%TD*%
D19*
%TO.P,D1,1,K*%
%TO.N,CHRG rectified*%
X108925000Y-171325000D03*
D20*
%TO.P,D1,2,A*%
%TO.N,CHRG IN*%
X108925000Y-178945000D03*
%TD*%
D13*
%TO.P,R8,1*%
%TO.N,V_sense*%
X89900000Y-155400000D03*
D14*
%TO.P,R8,2*%
%TO.N,GND*%
X89900000Y-160480000D03*
%TD*%
D21*
%TO.P,U2,1,TX*%
%TO.N,TX*%
X98400000Y-95060000D03*
D22*
%TO.P,U2,2,RX*%
%TO.N,RX*%
X98400000Y-92520000D03*
%TO.P,U2,3,GND*%
%TO.N,GND*%
X98400000Y-89980000D03*
%TO.P,U2,4,GND*%
X98400000Y-87440000D03*
%TO.P,U2,5,SDA*%
%TO.N,SDA*%
X98400000Y-84900000D03*
%TO.P,U2,6,SCL*%
%TO.N,SCL*%
X98400000Y-82360000D03*
%TO.P,U2,7,D4*%
%TO.N,Net-(D2-A)*%
X98400000Y-79820000D03*
%TO.P,U2,8,C6*%
%TO.N,Net-(U2-C6)*%
X98400000Y-77280000D03*
%TO.P,U2,9,D7*%
%TO.N,Net-(U2-D7)*%
X98400000Y-74740000D03*
%TO.P,U2,10,E6*%
%TO.N,P_EN*%
X98400000Y-72200000D03*
%TO.P,U2,11,B4*%
%TO.N,Net-(D3-A)*%
X98400000Y-69660000D03*
%TO.P,U2,12,B5*%
%TO.N,V_sense*%
X98400000Y-67120000D03*
%TO.P,U2,13,B6*%
%TO.N,unconnected-(U2-B6-Pad13)*%
X83160000Y-67120000D03*
%TO.P,U2,14,B2*%
%TO.N,MOSI*%
X83160000Y-69660000D03*
%TO.P,U2,15,B3*%
%TO.N,MISO*%
X83160000Y-72200000D03*
%TO.P,U2,16,B1*%
%TO.N,SCLK*%
X83160000Y-74740000D03*
%TO.P,U2,17,F7*%
%TO.N,NRF CS*%
X83160000Y-77280000D03*
%TO.P,U2,18,F6*%
%TO.N,NRF CE*%
X83160000Y-79820000D03*
%TO.P,U2,19,F5*%
%TO.N,SD CS*%
X83160000Y-82360000D03*
%TO.P,U2,20,F4*%
%TO.N,unconnected-(U2-F4-Pad20)*%
X83160000Y-84900000D03*
%TO.P,U2,21,VCC*%
%TO.N,5V*%
X83160000Y-87440000D03*
%TO.P,U2,22,RST*%
%TO.N,unconnected-(U2-RST-Pad22)*%
X83160000Y-89980000D03*
%TO.P,U2,23,GND*%
%TO.N,GND*%
X83160000Y-92520000D03*
%TO.P,U2,24,RAW*%
%TO.N,unconnected-(U2-RAW-Pad24)*%
X83160000Y-95060000D03*
%TD*%
D23*
%TO.P,C1,1*%
%TO.N,3.3V*%
X99400000Y-102200000D03*
D24*
%TO.P,C1,2*%
%TO.N,V GND*%
X101400000Y-102200000D03*
%TD*%
D13*
%TO.P,R4,1*%
%TO.N,Net-(U2-C6)*%
X91430000Y-84675000D03*
D14*
%TO.P,R4,2*%
%TO.N,5V*%
X86350000Y-84675000D03*
%TD*%
D25*
%TO.P,Q1,1*%
%TO.N,GND*%
X104250000Y-174200000D03*
D26*
%TO.P,Q1,2*%
%TO.N,Net-(Q1-Pad2)*%
X104250000Y-176740000D03*
%TO.P,Q1,3*%
%TO.N,V GND*%
X104250000Y-179280000D03*
%TD*%
D13*
%TO.P,R1,1*%
%TO.N,P_EN*%
X99775000Y-171625000D03*
D14*
%TO.P,R1,2*%
%TO.N,Net-(Q1-Pad2)*%
X104855000Y-171625000D03*
%TD*%
D13*
%TO.P,R5,1*%
%TO.N,Net-(D2-K)*%
X101800000Y-82200000D03*
D14*
%TO.P,R5,2*%
%TO.N,GND*%
X101800000Y-89820000D03*
%TD*%
D23*
%TO.P,C2,1*%
%TO.N,5V*%
X108172600Y-102200000D03*
D24*
%TO.P,C2,2*%
%TO.N,V GND*%
X106172600Y-102200000D03*
%TD*%
D27*
%TO.P,J5,1,1*%
%TO.N,CHRG IN*%
X103300000Y-182800000D03*
D28*
%TO.P,J5,2,2*%
%TO.N,GND*%
X100800000Y-182800000D03*
%TD*%
D10*
%TO.P,M8N_GPS1,1,Vcc*%
%TO.N,5V*%
X88720000Y-88500000D03*
%TO.P,M8N_GPS1,2,RX*%
%TO.N,TX*%
X91260000Y-88500000D03*
%TO.P,M8N_GPS1,3,TX*%
%TO.N,RX*%
X93800000Y-88500000D03*
%TO.P,M8N_GPS1,4,GND*%
%TO.N,GND*%
X96340000Y-88500000D03*
%TD*%
D29*
%TO.P,J3,1,1*%
%TO.N,BAT+*%
X93100000Y-182800000D03*
D30*
%TO.P,J3,2,2*%
%TO.N,BAT M*%
X90600000Y-182800000D03*
%TO.P,J3,3,3*%
%TO.N,BAT -*%
X88100000Y-182800000D03*
%TD*%
D31*
%TO.P,U1,1,GND*%
%TO.N,V GND*%
X107610000Y-131443500D03*
D32*
%TO.P,U1,2,VCC*%
%TO.N,3.3V*%
X107610000Y-128903500D03*
%TO.P,U1,3,CE*%
%TO.N,Net-(U1-CE)*%
X105070000Y-131443500D03*
%TO.P,U1,4,~{CSN}*%
%TO.N,NRF CS*%
X105070000Y-128903500D03*
%TO.P,U1,5,SCK*%
%TO.N,Net-(P1-CLK{slash}SCK)*%
X102530000Y-131443500D03*
%TO.P,U1,6,MOSI*%
%TO.N,Net-(P1-CMD{slash}MOSI)*%
X102530000Y-128903500D03*
%TO.P,U1,7,MISO*%
%TO.N,MISO*%
X99990000Y-131443500D03*
%TO.P,U1,8,IRQ*%
%TO.N,unconnected-(U1-IRQ-Pad8)*%
X99990000Y-128903500D03*
%TD*%
D29*
%TO.P,J4,1,1*%
%TO.N,5V*%
X108600000Y-80200000D03*
D30*
%TO.P,J4,2,2*%
%TO.N,Net-(U2-D7)*%
X108600000Y-82700000D03*
%TO.P,J4,3,3*%
%TO.N,Net-(J4-Pad3)*%
X108600000Y-85200000D03*
%TD*%
D29*
%TO.P,J2,1,1*%
%TO.N,5V*%
X108700000Y-69000000D03*
D30*
%TO.P,J2,2,2*%
%TO.N,Net-(U2-C6)*%
X108700000Y-71500000D03*
%TO.P,J2,3,3*%
%TO.N,V GND*%
X108700000Y-74000000D03*
%TD*%
D10*
%TO.P,U6,1,P-*%
%TO.N,GND*%
X96800000Y-177800000D03*
%TO.P,U6,2,P+*%
%TO.N,CHRG rectified*%
X92800000Y-177800000D03*
%TO.P,U6,3,B-*%
%TO.N,BAT -*%
X95780000Y-141420000D03*
%TO.P,U6,4,BM*%
%TO.N,BAT M*%
X85600000Y-178700000D03*
%TO.P,U6,5,B+*%
%TO.N,BAT+*%
X85620000Y-141420000D03*
%TD*%
%TO.P,U7,GND_1,GND*%
%TO.N,V GND*%
X82520000Y-105870000D03*
%TO.P,U7,GND_2,GND*%
X92680000Y-105870000D03*
%TO.P,U7,HV,HV*%
%TO.N,5V*%
X82520000Y-103330000D03*
D31*
%TO.P,U7,HV1,HV1*%
%TO.N,SCLK*%
X82520000Y-98250000D03*
D10*
%TO.P,U7,HV2,HV2*%
%TO.N,MOSI*%
X82520000Y-100790000D03*
%TO.P,U7,HV3,HV3*%
%TO.N,NRF CE*%
X82520000Y-108410000D03*
%TO.P,U7,HV4,HV4*%
%TO.N,SD CS*%
X82520000Y-110950000D03*
%TO.P,U7,LV,LV*%
%TO.N,3.3V*%
X92680000Y-103330000D03*
D31*
%TO.P,U7,LV1,LV1*%
%TO.N,Net-(P1-CLK{slash}SCK)*%
X92680000Y-98250000D03*
D10*
%TO.P,U7,LV2,LV2*%
%TO.N,Net-(P1-CMD{slash}MOSI)*%
X92680000Y-100790000D03*
%TO.P,U7,LV3,LV3*%
%TO.N,Net-(U1-CE)*%
X92680000Y-108410000D03*
%TO.P,U7,LV4,LV4*%
%TO.N,Net-(P1-DAT3{slash}CS)*%
X92680000Y-110950000D03*
%TD*%
D27*
%TO.P,J1,1,1*%
%TO.N,Net-(J1-Pad1)*%
X107675000Y-137682500D03*
D28*
%TO.P,J1,2,2*%
%TO.N,Net-(J1-Pad2)*%
X107675000Y-140182500D03*
%TD*%
D33*
%TO.N,Net-(P1-DAT3{slash}CS)*%
X99896000Y-113769500D03*
%TO.N,Net-(U1-CE)*%
X101517500Y-112851200D03*
%TO.N,NRF CS*%
X89652600Y-111253500D03*
X86063700Y-80393100D03*
%TO.N,SD CS*%
X80470500Y-86844500D03*
%TO.N,Net-(J6-In)*%
X103051000Y-137720400D03*
%TO.N,Net-(J6-Ext)*%
X102298800Y-142478900D03*
%TO.N,GND*%
X88800000Y-86500000D03*
X86525000Y-88875000D03*
%TO.N,3.3V*%
X99342400Y-120053700D03*
X104099300Y-100410200D03*
%TO.N,Net-(P1-CLK{slash}SCK)*%
X96779900Y-121750300D03*
%TO.N,Net-(P1-CMD{slash}MOSI)*%
X100477000Y-104585100D03*
X95624500Y-123353200D03*
%TO.N,MISO*%
X91933400Y-120364600D03*
%TD*%
D34*
%TO.N,Net-(U2-C6)*%
X91430000Y-84250000D02*
X98400000Y-77280000D01*
X104180000Y-71500000D02*
X98400000Y-77280000D01*
X91430000Y-84675000D02*
X91430000Y-84250000D01*
X108700000Y-71500000D02*
X104180000Y-71500000D01*
%TO.N,Net-(J4-Pad3)*%
X106810000Y-85200000D02*
X104700000Y-87310000D01*
X108600000Y-85200000D02*
X106810000Y-85200000D01*
%TO.N,Net-(U2-D7)*%
X103748300Y-69100000D02*
X103748300Y-69391700D01*
X104750000Y-69100000D02*
X103748300Y-69100000D01*
X103748300Y-69391700D02*
X98400000Y-74740000D01*
%TO.N,Net-(P1-DAT3{slash}CS)*%
X92680000Y-110950000D02*
X95499500Y-113769500D01*
X95499500Y-113769500D02*
X99896000Y-113769500D01*
%TO.N,Net-(D2-A)*%
X98400000Y-79820000D02*
X101620000Y-76600000D01*
X101620000Y-76600000D02*
X101900000Y-76600000D01*
%TO.N,Net-(U1-CE)*%
X92680000Y-108410000D02*
X97121200Y-112851200D01*
X97121200Y-112851200D02*
X101517500Y-112851200D01*
%TO.N,NRF CS*%
X83160000Y-77489400D02*
X83160000Y-77280000D01*
X90152600Y-111753500D02*
X89652600Y-111253500D01*
X86063700Y-80393100D02*
X83160000Y-77489400D01*
X103602500Y-125239500D02*
X94370200Y-116007200D01*
X105070000Y-128903500D02*
X105070000Y-127839800D01*
X103602500Y-126372300D02*
X103602500Y-125239500D01*
X91658700Y-116007200D02*
X90152600Y-114501100D01*
X105070000Y-127839800D02*
X103602500Y-126372300D01*
X94370200Y-116007200D02*
X91658700Y-116007200D01*
X90152600Y-114501100D02*
X90152600Y-111753500D01*
%TO.N,SD CS*%
X80470500Y-86844500D02*
X80470500Y-85049500D01*
X80470500Y-85049500D02*
X83160000Y-82360000D01*
%TO.N,Net-(J6-In)*%
X96432400Y-131101800D02*
X90063200Y-131101800D01*
X103051000Y-137720400D02*
X96432400Y-131101800D01*
X90063200Y-131101800D02*
X88985000Y-132180000D01*
%TO.N,Net-(J6-Ext)*%
X104960000Y-150190000D02*
X110040000Y-150190000D01*
X91999900Y-132180000D02*
X91525000Y-132180000D01*
X104960000Y-145110000D02*
X110040000Y-145110000D01*
X102298800Y-142478900D02*
X91999900Y-132180000D01*
D35*
%TO.N,CHRG rectified*%
X92800000Y-166500000D02*
X86800000Y-160500000D01*
X92800000Y-177800000D02*
X92800000Y-166500000D01*
%TO.N,BAT+*%
X84998300Y-142041700D02*
X85620000Y-141420000D01*
X93100000Y-182800000D02*
X93100000Y-180994300D01*
X84998300Y-172892600D02*
X84998300Y-142041700D01*
X93100000Y-180994300D02*
X84998300Y-172892600D01*
%TO.N,BAT M*%
X85600000Y-178700000D02*
X86610000Y-178700000D01*
X90600000Y-182690000D02*
X90600000Y-182800000D01*
X86610000Y-178700000D02*
X90600000Y-182690000D01*
D34*
%TO.N,3.3V*%
X99400000Y-102200000D02*
X98949200Y-102200000D01*
X92680000Y-103330000D02*
X97368300Y-103330000D01*
X97368300Y-103330000D02*
X98498300Y-102200000D01*
X98949200Y-102200000D02*
X98498300Y-102200000D01*
X98949200Y-102200000D02*
X100739000Y-100410200D01*
X106170000Y-125283300D02*
X106170000Y-126399800D01*
X100940400Y-120053700D02*
X106170000Y-125283300D01*
X100739000Y-100410200D02*
X104099300Y-100410200D01*
X106170000Y-126399800D02*
X107610000Y-127839800D01*
X107610000Y-128903500D02*
X107610000Y-127839800D01*
X99342400Y-120053700D02*
X100940400Y-120053700D01*
D36*
%TO.N,V GND*%
X101651700Y-102451700D02*
X105920900Y-102451700D01*
X100608700Y-106088700D02*
X102320000Y-107800000D01*
X105920900Y-102451700D02*
X106172600Y-102200000D01*
X107610000Y-131443500D02*
X107610000Y-132907200D01*
X104700000Y-79690000D02*
X104700000Y-78288300D01*
X106184600Y-134332600D02*
X107610000Y-132907200D01*
X101651700Y-102451700D02*
X101400000Y-102200000D01*
X101651700Y-104827000D02*
X101651700Y-102451700D01*
X107470000Y-74000000D02*
X104750000Y-76720000D01*
X100608700Y-105870000D02*
X101651700Y-104827000D01*
X86405000Y-105870000D02*
X86405000Y-114320000D01*
X102857100Y-177887100D02*
X102857100Y-143337200D01*
X92680000Y-105870000D02*
X100608700Y-105870000D01*
X100608700Y-105870000D02*
X100608700Y-106088700D01*
X104750000Y-78238300D02*
X104750000Y-76720000D01*
X108700000Y-74000000D02*
X107470000Y-74000000D01*
X102857100Y-143337200D02*
X106184600Y-140009700D01*
X82520000Y-105870000D02*
X86405000Y-105870000D01*
X104250000Y-179280000D02*
X102857100Y-177887100D01*
X104700000Y-78288300D02*
X104750000Y-78238300D01*
X86405000Y-105870000D02*
X92680000Y-105870000D01*
X106184600Y-140009700D02*
X106184600Y-134332600D01*
D37*
%TO.N,5V*%
X87535000Y-87315000D02*
X86350000Y-87315000D01*
X82250000Y-137300000D02*
X82250000Y-136375000D01*
X86350000Y-87315000D02*
X83285000Y-87315000D01*
X96253300Y-119453300D02*
X102360000Y-125560000D01*
X82250000Y-136375000D02*
X86445000Y-132180000D01*
X83285000Y-87315000D02*
X83160000Y-87440000D01*
X88720000Y-97130000D02*
X82520000Y-103330000D01*
X86350000Y-87315000D02*
X86350000Y-84675000D01*
X88720000Y-88500000D02*
X87535000Y-87315000D01*
X86445000Y-132180000D02*
X86445000Y-119961900D01*
X86445000Y-119961900D02*
X86953600Y-119453300D01*
X86445000Y-119961900D02*
X83053700Y-119961900D01*
X108172600Y-102200000D02*
X102852000Y-96879400D01*
X102852000Y-96879400D02*
X88720000Y-96879400D01*
X88720000Y-88500000D02*
X88720000Y-96879400D01*
X81151400Y-104698600D02*
X82520000Y-103330000D01*
X86953600Y-119453300D02*
X96253300Y-119453300D01*
X83053700Y-119961900D02*
X81151400Y-118059600D01*
X81151400Y-118059600D02*
X81151400Y-104698600D01*
X88720000Y-96879400D02*
X88720000Y-97130000D01*
D34*
%TO.N,Net-(Q1-Pad2)*%
X105200700Y-172972400D02*
X105200700Y-175789300D01*
X104855000Y-171625000D02*
X104855000Y-172626700D01*
X105200700Y-175789300D02*
X104250000Y-176740000D01*
X104855000Y-172626700D02*
X105200700Y-172972400D01*
%TO.N,Net-(J1-Pad1)*%
X108689100Y-135579200D02*
X108689100Y-126809100D01*
X107675000Y-137682500D02*
X107675000Y-136593300D01*
X107675000Y-136593300D02*
X108689100Y-135579200D01*
X108689100Y-126809100D02*
X107440000Y-125560000D01*
%TO.N,Net-(P1-CLK{slash}SCK)*%
X102640200Y-130379800D02*
X102530000Y-130379800D01*
X103593700Y-129426300D02*
X102640200Y-130379800D01*
X96940300Y-121750300D02*
X103593700Y-128403700D01*
X102530000Y-131443500D02*
X102530000Y-130379800D01*
X103593700Y-128403700D02*
X103593700Y-129426300D01*
X96779900Y-121750300D02*
X96940300Y-121750300D01*
%TO.N,Net-(P1-CMD{slash}MOSI)*%
X102530000Y-128903500D02*
X101466300Y-128903500D01*
X91605200Y-101864800D02*
X91605200Y-103770300D01*
X96049000Y-123353200D02*
X95624500Y-123353200D01*
X92420000Y-104585100D02*
X100477000Y-104585100D01*
X101466300Y-128903500D02*
X101466300Y-128770500D01*
X91605200Y-103770300D02*
X92420000Y-104585100D01*
X92680000Y-100790000D02*
X91605200Y-101864800D01*
X101466300Y-128770500D02*
X96049000Y-123353200D01*
%TO.N,SDA*%
X104860000Y-107800000D02*
X103796300Y-108863700D01*
X88945000Y-110619000D02*
X88945000Y-114320000D01*
X109075800Y-103584200D02*
X104860000Y-107800000D01*
X98400000Y-84900000D02*
X109075800Y-95575800D01*
X92264100Y-107299900D02*
X88945000Y-110619000D01*
X109075800Y-95575800D02*
X109075800Y-103584200D01*
X96609700Y-108863700D02*
X95045900Y-107299900D01*
X95045900Y-107299900D02*
X92264100Y-107299900D01*
X103796300Y-108863700D02*
X96609700Y-108863700D01*
%TO.N,TX*%
X91260000Y-88500000D02*
X97298300Y-94538300D01*
X97298300Y-94538300D02*
X97298300Y-95060000D01*
X98400000Y-95060000D02*
X97298300Y-95060000D01*
%TO.N,RX*%
X93800000Y-88500000D02*
X97820000Y-92520000D01*
X97820000Y-92520000D02*
X98400000Y-92520000D01*
%TO.N,SCL*%
X107400000Y-107819600D02*
X107400000Y-107800000D01*
X109530600Y-93601700D02*
X109530600Y-105669400D01*
X91538200Y-114373200D02*
X100846400Y-114373200D01*
X109530600Y-105669400D02*
X107400000Y-107800000D01*
X98400000Y-82360000D02*
X98400000Y-82471100D01*
X98400000Y-82471100D02*
X109530600Y-93601700D01*
X100846400Y-114373200D02*
X107400000Y-107819600D01*
X91485000Y-114320000D02*
X91538200Y-114373200D01*
%TO.N,MISO*%
X99857000Y-130379800D02*
X91933400Y-122456200D01*
X99990000Y-131443500D02*
X99990000Y-130379800D01*
X91933400Y-122456200D02*
X91933400Y-120364600D01*
X99990000Y-130379800D02*
X99857000Y-130379800D01*
%TO.N,Net-(D3-A)*%
X101420000Y-69660000D02*
X101600000Y-69840000D01*
X98400000Y-69660000D02*
X101420000Y-69660000D01*
%TO.N,V_sense*%
X89900000Y-155400000D02*
X87821700Y-155400000D01*
X98400000Y-67120000D02*
X88617300Y-76902700D01*
X87821700Y-155400000D02*
X87801700Y-155420000D01*
X88617300Y-76902700D02*
X88617300Y-78764600D01*
X81456300Y-85040700D02*
X81456300Y-99542500D01*
X82698700Y-83798300D02*
X81456300Y-85040700D01*
X88617300Y-78764600D02*
X83583600Y-83798300D01*
X80437100Y-100561700D02*
X80437100Y-137728400D01*
X81777900Y-139069200D02*
X84938800Y-139069200D01*
X86800000Y-155420000D02*
X87801700Y-155420000D01*
X84938800Y-139069200D02*
X86800000Y-140930400D01*
X80437100Y-137728400D02*
X81777900Y-139069200D01*
X83583600Y-83798300D02*
X82698700Y-83798300D01*
X81456300Y-99542500D02*
X80437100Y-100561700D01*
X86800000Y-140930400D02*
X86800000Y-155420000D01*
%TD*%
%TA.AperFunction,Conductor*%
%TO.N,GND*%
G36*
X112042539Y-65420185D02*
G01*
X112088294Y-65472989D01*
X112099500Y-65524500D01*
X112099500Y-186375500D01*
X112079815Y-186442539D01*
X112027011Y-186488294D01*
X111975500Y-186499500D01*
X80224500Y-186499500D01*
X80157461Y-186479815D01*
X80111706Y-186427011D01*
X80100500Y-186375500D01*
X80100500Y-182999998D01*
X81080395Y-182999998D01*
X81080395Y-183000001D01*
X81099934Y-183273188D01*
X81099935Y-183273195D01*
X81155919Y-183530550D01*
X81158152Y-183540815D01*
X81253866Y-183797433D01*
X81253868Y-183797438D01*
X81385122Y-184037811D01*
X81385127Y-184037819D01*
X81549252Y-184257066D01*
X81549268Y-184257084D01*
X81742915Y-184450731D01*
X81742933Y-184450747D01*
X81962180Y-184614872D01*
X81962188Y-184614877D01*
X82202561Y-184746131D01*
X82202560Y-184746131D01*
X82202564Y-184746132D01*
X82202567Y-184746134D01*
X82459185Y-184841848D01*
X82726812Y-184900066D01*
X82980460Y-184918207D01*
X82999999Y-184919605D01*
X83000000Y-184919605D01*
X83000001Y-184919605D01*
X83018235Y-184918300D01*
X83273188Y-184900066D01*
X83540815Y-184841848D01*
X83797433Y-184746134D01*
X84037817Y-184614874D01*
X84257074Y-184450741D01*
X84450741Y-184257074D01*
X84614874Y-184037817D01*
X84746134Y-183797433D01*
X84841848Y-183540815D01*
X84900066Y-183273188D01*
X84919605Y-183000000D01*
X84900066Y-182726812D01*
X84841848Y-182459185D01*
X84746134Y-182202567D01*
X84728544Y-182170354D01*
X84614877Y-181962188D01*
X84614872Y-181962180D01*
X84450747Y-181742933D01*
X84450731Y-181742915D01*
X84257084Y-181549268D01*
X84257066Y-181549252D01*
X84037819Y-181385127D01*
X84037811Y-181385122D01*
X83797438Y-181253868D01*
X83797439Y-181253868D01*
X83747468Y-181235230D01*
X83540815Y-181158152D01*
X83540808Y-181158150D01*
X83540807Y-181158150D01*
X83273195Y-181099935D01*
X83273188Y-181099934D01*
X83000001Y-181080395D01*
X82999999Y-181080395D01*
X82726811Y-181099934D01*
X82726804Y-181099935D01*
X82459192Y-181158150D01*
X82459188Y-181158151D01*
X82459185Y-181158152D01*
X82274489Y-181227040D01*
X82202561Y-181253868D01*
X81962188Y-181385122D01*
X81962180Y-181385127D01*
X81742933Y-181549252D01*
X81742915Y-181549268D01*
X81549268Y-181742915D01*
X81549252Y-181742933D01*
X81385127Y-181962180D01*
X81385122Y-181962188D01*
X81253868Y-182202561D01*
X81253866Y-182202567D01*
X81158152Y-182459185D01*
X81158151Y-182459188D01*
X81158150Y-182459192D01*
X81099935Y-182726804D01*
X81099934Y-182726811D01*
X81080395Y-182999998D01*
X80100500Y-182999998D01*
X80100500Y-175982135D01*
X80459500Y-175982135D01*
X80459500Y-178617870D01*
X80459501Y-178617876D01*
X80465908Y-178677483D01*
X80516202Y-178812328D01*
X80516206Y-178812335D01*
X80602452Y-178927544D01*
X80602455Y-178927547D01*
X80717664Y-179013793D01*
X80717671Y-179013797D01*
X80852517Y-179064091D01*
X80852516Y-179064091D01*
X80859444Y-179064835D01*
X80912127Y-179070500D01*
X83547872Y-179070499D01*
X83607483Y-179064091D01*
X83742331Y-179013796D01*
X83857546Y-178927546D01*
X83943796Y-178812331D01*
X83994091Y-178677483D01*
X84000500Y-178617873D01*
X84000499Y-175982128D01*
X83994091Y-175922517D01*
X83943796Y-175787669D01*
X83943795Y-175787668D01*
X83943793Y-175787664D01*
X83857547Y-175672455D01*
X83857544Y-175672452D01*
X83742335Y-175586206D01*
X83742328Y-175586202D01*
X83607482Y-175535908D01*
X83607483Y-175535908D01*
X83547883Y-175529501D01*
X83547881Y-175529500D01*
X83547873Y-175529500D01*
X83547864Y-175529500D01*
X80912129Y-175529500D01*
X80912123Y-175529501D01*
X80852516Y-175535908D01*
X80717671Y-175586202D01*
X80717664Y-175586206D01*
X80602455Y-175672452D01*
X80602452Y-175672455D01*
X80516206Y-175787664D01*
X80516202Y-175787671D01*
X80465908Y-175922517D01*
X80459501Y-175982116D01*
X80459501Y-175982123D01*
X80459500Y-175982135D01*
X80100500Y-175982135D01*
X80100500Y-138540397D01*
X80120185Y-138473358D01*
X80172989Y-138427603D01*
X80242147Y-138417659D01*
X80305703Y-138446684D01*
X80312178Y-138452713D01*
X81409184Y-139549720D01*
X81409186Y-139549721D01*
X81409190Y-139549724D01*
X81488095Y-139595279D01*
X81546116Y-139628777D01*
X81698843Y-139669701D01*
X81698845Y-139669701D01*
X81864554Y-139669701D01*
X81864570Y-139669700D01*
X84638703Y-139669700D01*
X84705742Y-139689385D01*
X84726384Y-139706019D01*
X85104239Y-140083874D01*
X85137724Y-140145197D01*
X85132740Y-140214889D01*
X85090868Y-140270822D01*
X85068964Y-140283937D01*
X84986337Y-140322467D01*
X84805381Y-140449172D01*
X84649172Y-140605382D01*
X84615756Y-140653105D01*
X84601863Y-140669661D01*
X84044474Y-141227050D01*
X84044474Y-141227051D01*
X84044472Y-141227054D01*
X83994785Y-141295441D01*
X83928776Y-141386294D01*
X83838969Y-141562551D01*
X83837908Y-141566312D01*
X83778591Y-141748869D01*
X83778591Y-141748872D01*
X83747800Y-141943277D01*
X83747800Y-172991022D01*
X83778590Y-173185426D01*
X83839417Y-173372630D01*
X83928776Y-173548005D01*
X84044472Y-173707246D01*
X84044474Y-173707248D01*
X91813181Y-181475955D01*
X91846666Y-181537278D01*
X91849500Y-181563636D01*
X91849500Y-181900678D01*
X91829815Y-181967717D01*
X91777011Y-182013472D01*
X91707853Y-182023416D01*
X91644297Y-181994391D01*
X91625182Y-181973564D01*
X91611169Y-181954277D01*
X91553828Y-181875354D01*
X87424646Y-177746172D01*
X87265405Y-177630476D01*
X87231307Y-177613102D01*
X87090030Y-177541117D01*
X86902826Y-177480290D01*
X86708422Y-177449500D01*
X86708417Y-177449500D01*
X85797704Y-177449500D01*
X85786897Y-177449028D01*
X85600002Y-177432677D01*
X85599998Y-177432677D01*
X85379937Y-177451929D01*
X85379929Y-177451930D01*
X85166554Y-177509104D01*
X85166548Y-177509107D01*
X84966340Y-177602465D01*
X84966338Y-177602466D01*
X84785377Y-177729175D01*
X84629175Y-177885377D01*
X84502466Y-178066338D01*
X84502465Y-178066340D01*
X84409107Y-178266548D01*
X84409104Y-178266554D01*
X84351930Y-178479929D01*
X84351929Y-178479937D01*
X84332677Y-178699997D01*
X84332677Y-178700002D01*
X84351929Y-178920062D01*
X84351930Y-178920070D01*
X84409104Y-179133445D01*
X84409105Y-179133447D01*
X84409106Y-179133450D01*
X84477443Y-179279999D01*
X84502466Y-179333662D01*
X84502468Y-179333666D01*
X84629170Y-179514615D01*
X84629175Y-179514621D01*
X84785378Y-179670824D01*
X84785384Y-179670829D01*
X84966333Y-179797531D01*
X84966335Y-179797532D01*
X84966338Y-179797534D01*
X85166550Y-179890894D01*
X85379932Y-179948070D01*
X85537123Y-179961822D01*
X85599998Y-179967323D01*
X85600000Y-179967323D01*
X85600002Y-179967323D01*
X85786897Y-179950972D01*
X85797704Y-179950500D01*
X86040664Y-179950500D01*
X86107703Y-179970185D01*
X86128345Y-179986819D01*
X87604691Y-181463165D01*
X87638176Y-181524488D01*
X87633192Y-181594180D01*
X87591320Y-181650113D01*
X87569415Y-181663228D01*
X87470353Y-181709421D01*
X87470349Y-181709423D01*
X87290547Y-181835322D01*
X87290541Y-181835327D01*
X87135327Y-181990541D01*
X87135322Y-181990547D01*
X87009423Y-182170349D01*
X87009419Y-182170357D01*
X86916655Y-182369291D01*
X86916653Y-182369295D01*
X86916653Y-182369297D01*
X86895980Y-182446447D01*
X86859839Y-182581324D01*
X86859838Y-182581331D01*
X86840708Y-182799997D01*
X86840708Y-182800002D01*
X86859838Y-183018668D01*
X86859839Y-183018675D01*
X86876240Y-183079885D01*
X86916653Y-183230703D01*
X86916654Y-183230706D01*
X86916655Y-183230708D01*
X87009419Y-183429642D01*
X87009423Y-183429650D01*
X87135322Y-183609452D01*
X87135327Y-183609458D01*
X87290541Y-183764672D01*
X87290547Y-183764677D01*
X87470349Y-183890576D01*
X87470351Y-183890577D01*
X87470354Y-183890579D01*
X87669297Y-183983347D01*
X87881326Y-184040161D01*
X88037521Y-184053826D01*
X88099998Y-184059292D01*
X88100000Y-184059292D01*
X88100002Y-184059292D01*
X88154797Y-184054498D01*
X88318674Y-184040161D01*
X88530703Y-183983347D01*
X88729646Y-183890579D01*
X88909457Y-183764674D01*
X89064674Y-183609457D01*
X89190579Y-183429646D01*
X89236773Y-183330581D01*
X89282942Y-183278146D01*
X89350136Y-183258993D01*
X89417017Y-183279208D01*
X89436834Y-183295308D01*
X89440005Y-183298479D01*
X89464706Y-183333755D01*
X89509419Y-183429642D01*
X89509421Y-183429645D01*
X89509423Y-183429650D01*
X89635322Y-183609452D01*
X89635327Y-183609458D01*
X89790541Y-183764672D01*
X89790547Y-183764677D01*
X89970349Y-183890576D01*
X89970351Y-183890577D01*
X89970354Y-183890579D01*
X90169297Y-183983347D01*
X90381326Y-184040161D01*
X90537521Y-184053826D01*
X90599998Y-184059292D01*
X90600000Y-184059292D01*
X90600002Y-184059292D01*
X90654797Y-184054498D01*
X90818674Y-184040161D01*
X91030703Y-183983347D01*
X91229646Y-183890579D01*
X91409457Y-183764674D01*
X91564674Y-183609457D01*
X91619926Y-183530547D01*
X91674501Y-183486924D01*
X91743999Y-183479730D01*
X91806354Y-183511252D01*
X91841769Y-183571481D01*
X91845120Y-183598573D01*
X91845146Y-183598571D01*
X91845146Y-183598573D01*
X91845324Y-183598564D01*
X91845479Y-183601473D01*
X91845500Y-183601637D01*
X91845500Y-183601852D01*
X91845501Y-183601876D01*
X91851908Y-183661483D01*
X91902202Y-183796328D01*
X91902206Y-183796335D01*
X91988452Y-183911544D01*
X91988455Y-183911547D01*
X92103664Y-183997793D01*
X92103671Y-183997797D01*
X92238517Y-184048091D01*
X92238516Y-184048091D01*
X92245444Y-184048835D01*
X92298127Y-184054500D01*
X93901872Y-184054499D01*
X93961483Y-184048091D01*
X94096331Y-183997796D01*
X94211546Y-183911546D01*
X94297796Y-183796331D01*
X94348091Y-183661483D01*
X94354500Y-183601873D01*
X94354499Y-182799999D01*
X99507582Y-182799999D01*
X99507582Y-182800000D01*
X99527216Y-183024421D01*
X99527218Y-183024431D01*
X99585521Y-183242025D01*
X99585525Y-183242034D01*
X99680732Y-183446207D01*
X99680733Y-183446209D01*
X99729949Y-183516497D01*
X100296624Y-182949822D01*
X100310778Y-183002642D01*
X100379896Y-183122357D01*
X100477643Y-183220104D01*
X100597358Y-183289222D01*
X100650177Y-183303375D01*
X100083501Y-183870049D01*
X100153791Y-183919267D01*
X100357965Y-184014474D01*
X100357974Y-184014478D01*
X100575568Y-184072781D01*
X100575578Y-184072783D01*
X100799999Y-184092418D01*
X100800001Y-184092418D01*
X101024421Y-184072783D01*
X101024431Y-184072781D01*
X101242025Y-184014478D01*
X101242034Y-184014474D01*
X101446208Y-183919267D01*
X101446212Y-183919265D01*
X101516497Y-183870050D01*
X100949822Y-183303375D01*
X101002642Y-183289222D01*
X101122357Y-183220104D01*
X101220104Y-183122357D01*
X101289222Y-183002642D01*
X101303375Y-182949822D01*
X101870049Y-183516496D01*
X101877230Y-183515868D01*
X101945730Y-183529634D01*
X101995913Y-183578250D01*
X102011860Y-183632754D01*
X102012000Y-183635364D01*
X102018408Y-183694983D01*
X102068702Y-183829828D01*
X102068706Y-183829835D01*
X102154952Y-183945044D01*
X102154955Y-183945047D01*
X102270164Y-184031293D01*
X102270171Y-184031297D01*
X102405017Y-184081591D01*
X102405016Y-184081591D01*
X102411944Y-184082335D01*
X102464627Y-184088000D01*
X104135372Y-184087999D01*
X104194983Y-184081591D01*
X104329831Y-184031296D01*
X104445046Y-183945046D01*
X104531296Y-183829831D01*
X104581591Y-183694983D01*
X104588000Y-183635373D01*
X104588000Y-182999998D01*
X107080395Y-182999998D01*
X107080395Y-183000001D01*
X107099934Y-183273188D01*
X107099935Y-183273195D01*
X107155919Y-183530550D01*
X107158152Y-183540815D01*
X107253866Y-183797433D01*
X107253868Y-183797438D01*
X107385122Y-184037811D01*
X107385127Y-184037819D01*
X107549252Y-184257066D01*
X107549268Y-184257084D01*
X107742915Y-184450731D01*
X107742933Y-184450747D01*
X107962180Y-184614872D01*
X107962188Y-184614877D01*
X108202561Y-184746131D01*
X108202560Y-184746131D01*
X108202564Y-184746132D01*
X108202567Y-184746134D01*
X108459185Y-184841848D01*
X108726812Y-184900066D01*
X108980460Y-184918207D01*
X108999999Y-184919605D01*
X109000000Y-184919605D01*
X109000001Y-184919605D01*
X109018235Y-184918300D01*
X109273188Y-184900066D01*
X109540815Y-184841848D01*
X109797433Y-184746134D01*
X110037817Y-184614874D01*
X110257074Y-184450741D01*
X110450741Y-184257074D01*
X110614874Y-184037817D01*
X110746134Y-183797433D01*
X110841848Y-183540815D01*
X110900066Y-183273188D01*
X110919605Y-183000000D01*
X110900066Y-182726812D01*
X110841848Y-182459185D01*
X110746134Y-182202567D01*
X110728544Y-182170354D01*
X110614877Y-181962188D01*
X110614872Y-181962180D01*
X110450747Y-181742933D01*
X110450731Y-181742915D01*
X110257084Y-181549268D01*
X110257066Y-181549252D01*
X110037819Y-181385127D01*
X110037811Y-181385122D01*
X109797438Y-181253868D01*
X109797439Y-181253868D01*
X109747468Y-181235230D01*
X109540815Y-181158152D01*
X109540808Y-181158150D01*
X109540807Y-181158150D01*
X109273195Y-181099935D01*
X109273188Y-181099934D01*
X109000001Y-181080395D01*
X108999999Y-181080395D01*
X108726811Y-181099934D01*
X108726804Y-181099935D01*
X108459192Y-181158150D01*
X108459188Y-181158151D01*
X108459185Y-181158152D01*
X108274489Y-181227040D01*
X108202561Y-181253868D01*
X107962188Y-181385122D01*
X107962180Y-181385127D01*
X107742933Y-181549252D01*
X107742915Y-181549268D01*
X107549268Y-181742915D01*
X107549252Y-181742933D01*
X107385127Y-181962180D01*
X107385122Y-181962188D01*
X107253868Y-182202561D01*
X107253866Y-182202567D01*
X107158152Y-182459185D01*
X107158151Y-182459188D01*
X107158150Y-182459192D01*
X107099935Y-182726804D01*
X107099934Y-182726811D01*
X107080395Y-182999998D01*
X104588000Y-182999998D01*
X104587999Y-181964628D01*
X104581591Y-181905017D01*
X104570527Y-181875354D01*
X104531297Y-181770171D01*
X104531293Y-181770164D01*
X104445047Y-181654955D01*
X104445044Y-181654952D01*
X104329835Y-181568706D01*
X104329828Y-181568702D01*
X104194982Y-181518408D01*
X104194983Y-181518408D01*
X104135383Y-181512001D01*
X104135381Y-181512000D01*
X104135373Y-181512000D01*
X104135364Y-181512000D01*
X102464629Y-181512000D01*
X102464623Y-181512001D01*
X102405016Y-181518408D01*
X102270171Y-181568702D01*
X102270164Y-181568706D01*
X102154955Y-181654952D01*
X102154952Y-181654955D01*
X102068706Y-181770164D01*
X102068702Y-181770171D01*
X102018408Y-181905017D01*
X102011999Y-181964626D01*
X102011858Y-181967264D01*
X102011654Y-181967840D01*
X102011645Y-181967928D01*
X102011624Y-181967925D01*
X101988599Y-182033149D01*
X101933413Y-182076000D01*
X101877231Y-182084129D01*
X101870050Y-182083500D01*
X101303374Y-182650176D01*
X101289222Y-182597358D01*
X101220104Y-182477643D01*
X101122357Y-182379896D01*
X101002642Y-182310778D01*
X100949822Y-182296624D01*
X101516497Y-181729949D01*
X101516497Y-181729948D01*
X101446209Y-181680733D01*
X101446207Y-181680732D01*
X101242034Y-181585525D01*
X101242025Y-181585521D01*
X101024431Y-181527218D01*
X101024421Y-181527216D01*
X100800001Y-181507582D01*
X100799999Y-181507582D01*
X100575578Y-181527216D01*
X100575568Y-181527218D01*
X100357974Y-181585521D01*
X100357965Y-181585525D01*
X100153787Y-181680735D01*
X100083502Y-181729948D01*
X100083501Y-181729949D01*
X100650177Y-182296624D01*
X100597358Y-182310778D01*
X100477643Y-182379896D01*
X100379896Y-182477643D01*
X100310778Y-182597358D01*
X100296625Y-182650177D01*
X99729949Y-182083501D01*
X99729948Y-182083502D01*
X99680735Y-182153787D01*
X99585525Y-182357965D01*
X99585521Y-182357974D01*
X99527218Y-182575568D01*
X99527216Y-182575578D01*
X99507582Y-182799999D01*
X94354499Y-182799999D01*
X94354499Y-181998128D01*
X94351210Y-181967530D01*
X94350500Y-181954277D01*
X94350500Y-180895877D01*
X94332586Y-180782783D01*
X94319709Y-180701474D01*
X94319708Y-180701470D01*
X94319708Y-180701469D01*
X94260391Y-180518912D01*
X94259329Y-180515147D01*
X94234771Y-180466950D01*
X94169524Y-180338895D01*
X94053828Y-180179654D01*
X93094784Y-179220610D01*
X93061299Y-179159287D01*
X93066283Y-179089595D01*
X93108155Y-179033662D01*
X93150370Y-179013155D01*
X93204400Y-178998677D01*
X93233440Y-178990897D01*
X93233441Y-178990896D01*
X93233450Y-178990894D01*
X93433662Y-178897534D01*
X93614620Y-178770826D01*
X93770826Y-178614620D01*
X93897534Y-178433662D01*
X93990894Y-178233450D01*
X94048070Y-178020068D01*
X94065531Y-177820486D01*
X94067323Y-177800002D01*
X94067323Y-177799997D01*
X94050972Y-177613102D01*
X94050500Y-177602295D01*
X94050500Y-171624999D01*
X98569357Y-171624999D01*
X98569357Y-171625000D01*
X98589884Y-171846535D01*
X98589885Y-171846537D01*
X98650769Y-172060523D01*
X98650775Y-172060538D01*
X98749938Y-172259683D01*
X98749943Y-172259691D01*
X98884020Y-172437238D01*
X99048437Y-172587123D01*
X99048439Y-172587125D01*
X99237595Y-172704245D01*
X99237596Y-172704245D01*
X99237599Y-172704247D01*
X99445060Y-172784618D01*
X99663757Y-172825500D01*
X99663759Y-172825500D01*
X99886241Y-172825500D01*
X99886243Y-172825500D01*
X100104940Y-172784618D01*
X100312401Y-172704247D01*
X100501562Y-172587124D01*
X100665981Y-172437236D01*
X100800058Y-172259689D01*
X100899229Y-172060528D01*
X100960115Y-171846536D01*
X100980643Y-171625000D01*
X100960115Y-171403464D01*
X100899229Y-171189472D01*
X100899224Y-171189461D01*
X100800061Y-170990316D01*
X100800056Y-170990308D01*
X100665979Y-170812761D01*
X100501562Y-170662876D01*
X100501560Y-170662874D01*
X100312404Y-170545754D01*
X100312398Y-170545752D01*
X100104940Y-170465382D01*
X99886243Y-170424500D01*
X99663757Y-170424500D01*
X99445060Y-170465382D01*
X99313864Y-170516207D01*
X99237601Y-170545752D01*
X99237595Y-170545754D01*
X99048439Y-170662874D01*
X99048437Y-170662876D01*
X98884020Y-170812761D01*
X98749943Y-170990308D01*
X98749938Y-170990316D01*
X98650775Y-171189461D01*
X98650769Y-171189476D01*
X98589885Y-171403462D01*
X98589884Y-171403464D01*
X98569357Y-171624999D01*
X94050500Y-171624999D01*
X94050500Y-166401577D01*
X94019709Y-166207173D01*
X93958882Y-166019970D01*
X93869523Y-165844594D01*
X93753828Y-165685354D01*
X93614646Y-165546172D01*
X89956193Y-161887719D01*
X89922708Y-161826396D01*
X89927692Y-161756704D01*
X89969564Y-161700771D01*
X90021090Y-161678149D01*
X90229804Y-161639135D01*
X90437177Y-161558798D01*
X90437179Y-161558797D01*
X90626261Y-161441721D01*
X90790608Y-161291900D01*
X90924631Y-161114425D01*
X91023760Y-160915349D01*
X91076495Y-160730000D01*
X90144975Y-160730000D01*
X90180070Y-160694905D01*
X90226148Y-160615095D01*
X90250000Y-160526078D01*
X90250000Y-160433922D01*
X90226148Y-160344905D01*
X90180070Y-160265095D01*
X90144975Y-160230000D01*
X90150000Y-160230000D01*
X91076495Y-160230000D01*
X91023760Y-160044650D01*
X90924631Y-159845574D01*
X90790608Y-159668099D01*
X90626261Y-159518278D01*
X90437179Y-159401202D01*
X90437177Y-159401201D01*
X90229799Y-159320864D01*
X90150000Y-159305946D01*
X90150000Y-160230000D01*
X90144975Y-160230000D01*
X90114905Y-160199930D01*
X90035095Y-160153852D01*
X89946078Y-160130000D01*
X89853922Y-160130000D01*
X89764905Y-160153852D01*
X89685095Y-160199930D01*
X89650000Y-160235025D01*
X89650000Y-159305946D01*
X89570200Y-159320864D01*
X89362822Y-159401201D01*
X89362820Y-159401202D01*
X89173738Y-159518278D01*
X89009391Y-159668099D01*
X88875368Y-159845574D01*
X88776240Y-160044649D01*
X88715378Y-160258560D01*
X88706817Y-160350952D01*
X88681031Y-160415889D01*
X88624230Y-160456576D01*
X88554449Y-160460096D01*
X88495665Y-160427191D01*
X87614648Y-159546174D01*
X87614646Y-159546172D01*
X87455405Y-159430476D01*
X87280030Y-159341117D01*
X87092826Y-159280290D01*
X86898422Y-159249500D01*
X86898417Y-159249500D01*
X86701583Y-159249500D01*
X86701578Y-159249500D01*
X86507172Y-159280291D01*
X86507169Y-159280291D01*
X86411118Y-159311501D01*
X86341277Y-159313496D01*
X86281444Y-159277416D01*
X86250616Y-159214715D01*
X86248800Y-159193570D01*
X86248800Y-156674918D01*
X86268485Y-156607879D01*
X86321289Y-156562124D01*
X86390447Y-156552180D01*
X86417587Y-156559290D01*
X86470060Y-156579618D01*
X86688757Y-156620500D01*
X86688759Y-156620500D01*
X86911241Y-156620500D01*
X86911243Y-156620500D01*
X87129940Y-156579618D01*
X87337401Y-156499247D01*
X87526562Y-156382124D01*
X87690981Y-156232236D01*
X87817608Y-156064553D01*
X87873716Y-156022917D01*
X87884434Y-156019515D01*
X87939637Y-156004723D01*
X87971727Y-156000500D01*
X88787379Y-156000500D01*
X88854418Y-156020185D01*
X88886333Y-156049773D01*
X89009020Y-156212238D01*
X89173437Y-156362123D01*
X89173439Y-156362125D01*
X89362595Y-156479245D01*
X89362596Y-156479245D01*
X89362599Y-156479247D01*
X89570060Y-156559618D01*
X89788757Y-156600500D01*
X89788759Y-156600500D01*
X90011241Y-156600500D01*
X90011243Y-156600500D01*
X90229940Y-156559618D01*
X90437401Y-156479247D01*
X90626562Y-156362124D01*
X90790981Y-156212236D01*
X90925058Y-156034689D01*
X91024229Y-155835528D01*
X91085115Y-155621536D01*
X91105643Y-155400000D01*
X91085115Y-155178464D01*
X91024229Y-154964472D01*
X91024224Y-154964461D01*
X90925061Y-154765316D01*
X90925056Y-154765308D01*
X90790979Y-154587761D01*
X90626562Y-154437876D01*
X90626560Y-154437874D01*
X90437404Y-154320754D01*
X90437398Y-154320752D01*
X90229940Y-154240382D01*
X90011243Y-154199500D01*
X89788757Y-154199500D01*
X89570060Y-154240382D01*
X89438864Y-154291207D01*
X89362601Y-154320752D01*
X89362595Y-154320754D01*
X89173439Y-154437874D01*
X89173437Y-154437876D01*
X89009020Y-154587761D01*
X88886333Y-154750227D01*
X88830224Y-154791863D01*
X88787379Y-154799500D01*
X87897517Y-154799500D01*
X87830478Y-154779815D01*
X87798563Y-154750226D01*
X87690982Y-154607765D01*
X87690980Y-154607762D01*
X87526563Y-154457877D01*
X87526562Y-154457876D01*
X87459221Y-154416180D01*
X87412587Y-154364153D01*
X87400500Y-154310754D01*
X87400500Y-141419997D01*
X94512677Y-141419997D01*
X94512677Y-141420002D01*
X94531929Y-141640062D01*
X94531930Y-141640070D01*
X94589104Y-141853445D01*
X94589105Y-141853447D01*
X94589106Y-141853450D01*
X94617201Y-141913700D01*
X94682466Y-142053662D01*
X94682468Y-142053666D01*
X94809170Y-142234615D01*
X94809175Y-142234621D01*
X94965378Y-142390824D01*
X94965384Y-142390829D01*
X95146333Y-142517531D01*
X95146335Y-142517532D01*
X95146338Y-142517534D01*
X95346550Y-142610894D01*
X95559932Y-142668070D01*
X95717123Y-142681822D01*
X95779998Y-142687323D01*
X95780000Y-142687323D01*
X95780002Y-142687323D01*
X95835017Y-142682509D01*
X96000068Y-142668070D01*
X96213450Y-142610894D01*
X96413662Y-142517534D01*
X96594620Y-142390826D01*
X96750826Y-142234620D01*
X96877534Y-142053662D01*
X96970894Y-141853450D01*
X97028070Y-141640068D01*
X97047323Y-141420000D01*
X97028070Y-141199932D01*
X96970894Y-140986550D01*
X96877534Y-140786339D01*
X96764358Y-140624706D01*
X96750827Y-140605381D01*
X96707130Y-140561684D01*
X96594620Y-140449174D01*
X96594616Y-140449171D01*
X96594615Y-140449170D01*
X96413666Y-140322468D01*
X96413662Y-140322466D01*
X96413660Y-140322465D01*
X96213450Y-140229106D01*
X96213447Y-140229105D01*
X96213445Y-140229104D01*
X96000070Y-140171930D01*
X96000062Y-140171929D01*
X95780002Y-140152677D01*
X95779998Y-140152677D01*
X95559937Y-140171929D01*
X95559929Y-140171930D01*
X95346554Y-140229104D01*
X95346548Y-140229107D01*
X95146340Y-140322465D01*
X95146338Y-140322466D01*
X94965377Y-140449175D01*
X94809175Y-140605377D01*
X94682466Y-140786338D01*
X94682465Y-140786340D01*
X94589107Y-140986548D01*
X94589104Y-140986554D01*
X94531930Y-141199929D01*
X94531929Y-141199937D01*
X94512677Y-141419997D01*
X87400500Y-141419997D01*
X87400500Y-140851344D01*
X87400500Y-140851343D01*
X87396448Y-140836218D01*
X87359577Y-140698615D01*
X87316905Y-140624705D01*
X87280520Y-140561684D01*
X87168716Y-140449880D01*
X87168715Y-140449879D01*
X87164385Y-140445549D01*
X87164374Y-140445539D01*
X85426390Y-138707555D01*
X85426388Y-138707552D01*
X85307517Y-138588681D01*
X85307516Y-138588680D01*
X85220704Y-138538560D01*
X85220704Y-138538559D01*
X85220700Y-138538558D01*
X85170585Y-138509623D01*
X85017857Y-138468699D01*
X84859743Y-138468699D01*
X84852147Y-138468699D01*
X84852131Y-138468700D01*
X83834422Y-138468700D01*
X83767383Y-138449015D01*
X83721628Y-138396211D01*
X83711684Y-138327053D01*
X83727034Y-138282702D01*
X83849639Y-138070345D01*
X83946586Y-137823327D01*
X84005635Y-137564619D01*
X84011003Y-137492993D01*
X84025465Y-137300004D01*
X84025465Y-137299995D01*
X84005636Y-137035390D01*
X84005635Y-137035385D01*
X84005635Y-137035381D01*
X83946586Y-136776673D01*
X83849639Y-136529655D01*
X83721228Y-136307241D01*
X83704756Y-136239344D01*
X83727608Y-136173317D01*
X83740929Y-136157569D01*
X86419857Y-133478641D01*
X86481178Y-133445158D01*
X86496719Y-133442797D01*
X86665068Y-133428070D01*
X86878450Y-133370894D01*
X87078662Y-133277534D01*
X87259620Y-133150826D01*
X87415826Y-132994620D01*
X87542534Y-132813662D01*
X87602618Y-132684811D01*
X87648790Y-132632371D01*
X87715983Y-132613219D01*
X87782865Y-132633435D01*
X87827382Y-132684811D01*
X87887464Y-132813658D01*
X87887468Y-132813666D01*
X88014170Y-132994615D01*
X88014175Y-132994621D01*
X88170378Y-133150824D01*
X88170384Y-133150829D01*
X88351333Y-133277531D01*
X88351335Y-133277532D01*
X88351338Y-133277534D01*
X88551550Y-133370894D01*
X88764932Y-133428070D01*
X88922123Y-133441822D01*
X88984998Y-133447323D01*
X88985000Y-133447323D01*
X88985002Y-133447323D01*
X89040017Y-133442509D01*
X89205068Y-133428070D01*
X89418450Y-133370894D01*
X89618662Y-133277534D01*
X89799620Y-133150826D01*
X89955826Y-132994620D01*
X90082534Y-132813662D01*
X90142618Y-132684811D01*
X90188790Y-132632371D01*
X90255983Y-132613219D01*
X90322865Y-132633435D01*
X90367382Y-132684811D01*
X90427464Y-132813658D01*
X90427468Y-132813666D01*
X90554170Y-132994615D01*
X90554175Y-132994621D01*
X90710378Y-133150824D01*
X90710384Y-133150829D01*
X90891333Y-133277531D01*
X90891335Y-133277532D01*
X90891338Y-133277534D01*
X91091550Y-133370894D01*
X91304932Y-133428070D01*
X91462123Y-133441822D01*
X91524998Y-133447323D01*
X91525000Y-133447323D01*
X91525002Y-133447323D01*
X91580017Y-133442509D01*
X91745068Y-133428070D01*
X91958450Y-133370894D01*
X92141037Y-133285752D01*
X92210110Y-133275261D01*
X92273894Y-133303780D01*
X92281119Y-133310454D01*
X101468098Y-142497433D01*
X101501583Y-142558756D01*
X101503637Y-142571230D01*
X101513430Y-142658149D01*
X101573010Y-142828421D01*
X101668984Y-142981162D01*
X101796538Y-143108716D01*
X101800599Y-143111268D01*
X101846889Y-143163604D01*
X101857536Y-143232657D01*
X101856686Y-143237777D01*
X101856600Y-143238657D01*
X101856600Y-176504917D01*
X101836915Y-176571956D01*
X101784111Y-176617711D01*
X101714953Y-176627655D01*
X101651397Y-176598630D01*
X101617172Y-176550221D01*
X101609183Y-176529867D01*
X101476543Y-176300129D01*
X101476536Y-176300118D01*
X101426356Y-176237196D01*
X101426355Y-176237195D01*
X100492962Y-177170589D01*
X100475925Y-177107007D01*
X100410099Y-176992993D01*
X100317007Y-176899901D01*
X100202993Y-176834075D01*
X100139410Y-176817037D01*
X101073560Y-175882886D01*
X100897484Y-175762839D01*
X100897474Y-175762832D01*
X100658469Y-175647735D01*
X100658471Y-175647735D01*
X100404974Y-175569541D01*
X100404968Y-175569540D01*
X100142648Y-175530000D01*
X99877351Y-175530000D01*
X99615031Y-175569540D01*
X99615025Y-175569541D01*
X99361529Y-175647735D01*
X99122526Y-175762832D01*
X99122518Y-175762837D01*
X98946438Y-175882886D01*
X99880590Y-176817037D01*
X99817007Y-176834075D01*
X99702993Y-176899901D01*
X99609901Y-176992993D01*
X99544075Y-177107007D01*
X99527037Y-177170590D01*
X98593643Y-176237196D01*
X98543456Y-176300128D01*
X98410814Y-176529871D01*
X98313896Y-176776814D01*
X98313890Y-176776833D01*
X98254861Y-177035459D01*
X98254860Y-177035464D01*
X98235037Y-177299995D01*
X98235037Y-177300007D01*
X98238135Y-177341358D01*
X98223514Y-177409681D01*
X98174277Y-177459253D01*
X98106054Y-177474335D01*
X98040508Y-177450140D01*
X97998447Y-177394348D01*
X97994706Y-177382712D01*
X97990423Y-177366725D01*
X97990420Y-177366720D01*
X97897096Y-177166586D01*
X97851741Y-177101811D01*
X97851740Y-177101810D01*
X97181000Y-177772551D01*
X97181000Y-177749840D01*
X97155036Y-177652939D01*
X97104876Y-177566060D01*
X97033940Y-177495124D01*
X96947061Y-177444964D01*
X96850160Y-177419000D01*
X96827448Y-177419000D01*
X97498188Y-176748259D01*
X97498187Y-176748258D01*
X97433411Y-176702901D01*
X97433405Y-176702898D01*
X97233284Y-176609580D01*
X97233270Y-176609575D01*
X97019986Y-176552426D01*
X97019976Y-176552424D01*
X96800001Y-176533179D01*
X96799999Y-176533179D01*
X96580023Y-176552424D01*
X96580013Y-176552426D01*
X96366729Y-176609575D01*
X96366720Y-176609579D01*
X96166590Y-176702901D01*
X96101811Y-176748258D01*
X96772553Y-177419000D01*
X96749840Y-177419000D01*
X96652939Y-177444964D01*
X96566060Y-177495124D01*
X96495124Y-177566060D01*
X96444964Y-177652939D01*
X96419000Y-177749840D01*
X96419000Y-177772553D01*
X95748258Y-177101811D01*
X95702901Y-177166590D01*
X95609579Y-177366720D01*
X95609575Y-177366729D01*
X95552426Y-177580013D01*
X95552424Y-177580023D01*
X95533179Y-177799999D01*
X95533179Y-177800000D01*
X95552424Y-178019976D01*
X95552426Y-178019986D01*
X95609575Y-178233270D01*
X95609580Y-178233284D01*
X95702898Y-178433405D01*
X95702901Y-178433411D01*
X95748258Y-178498187D01*
X95748259Y-178498188D01*
X96419000Y-177827447D01*
X96419000Y-177850160D01*
X96444964Y-177947061D01*
X96495124Y-178033940D01*
X96566060Y-178104876D01*
X96652939Y-178155036D01*
X96749840Y-178181000D01*
X96772553Y-178181000D01*
X96101810Y-178851740D01*
X96166590Y-178897099D01*
X96166592Y-178897100D01*
X96366715Y-178990419D01*
X96366729Y-178990424D01*
X96580013Y-179047573D01*
X96580023Y-179047575D01*
X96799999Y-179066821D01*
X96800001Y-179066821D01*
X97019976Y-179047575D01*
X97019986Y-179047573D01*
X97233270Y-178990424D01*
X97233284Y-178990419D01*
X97433407Y-178897100D01*
X97433417Y-178897094D01*
X97498188Y-178851741D01*
X96827448Y-178181000D01*
X96850160Y-178181000D01*
X96947061Y-178155036D01*
X97033940Y-178104876D01*
X97104876Y-178033940D01*
X97155036Y-177947061D01*
X97181000Y-177850160D01*
X97181000Y-177827447D01*
X97851741Y-178498188D01*
X97897094Y-178433417D01*
X97897100Y-178433407D01*
X97990419Y-178233284D01*
X97990424Y-178233270D01*
X98047573Y-178019986D01*
X98047575Y-178019975D01*
X98065028Y-177820486D01*
X98090480Y-177755417D01*
X98147071Y-177714438D01*
X98216833Y-177710560D01*
X98277617Y-177745014D01*
X98309447Y-177803698D01*
X98313892Y-177823173D01*
X98313896Y-177823185D01*
X98410814Y-178070128D01*
X98410813Y-178070128D01*
X98543457Y-178299871D01*
X98593642Y-178362803D01*
X98593643Y-178362803D01*
X99527037Y-177429409D01*
X99544075Y-177492993D01*
X99609901Y-177607007D01*
X99702993Y-177700099D01*
X99817007Y-177765925D01*
X99880590Y-177782962D01*
X98946438Y-178717112D01*
X99122525Y-178837166D01*
X99122526Y-178837167D01*
X99361530Y-178952264D01*
X99361528Y-178952264D01*
X99615025Y-179030458D01*
X99615031Y-179030459D01*
X99877351Y-179069999D01*
X99877358Y-179070000D01*
X100142642Y-179070000D01*
X100142648Y-179069999D01*
X100404968Y-179030459D01*
X100404974Y-179030458D01*
X100658470Y-178952264D01*
X100897479Y-178837164D01*
X101073560Y-178717112D01*
X100139409Y-177782962D01*
X100202993Y-177765925D01*
X100317007Y-177700099D01*
X100410099Y-177607007D01*
X100475925Y-177492993D01*
X100492962Y-177429409D01*
X101426355Y-178362803D01*
X101426356Y-178362802D01*
X101476545Y-178299869D01*
X101609183Y-178070132D01*
X101630006Y-178017077D01*
X101672822Y-177961863D01*
X101738692Y-177938561D01*
X101806703Y-177954571D01*
X101855261Y-178004809D01*
X101867052Y-178038187D01*
X101885414Y-178130500D01*
X101895047Y-178178929D01*
X101895049Y-178178937D01*
X101970464Y-178361007D01*
X101970471Y-178361020D01*
X102079960Y-178524881D01*
X102079963Y-178524885D01*
X102223637Y-178668559D01*
X102223659Y-178668579D01*
X103119511Y-179564431D01*
X103151096Y-179618177D01*
X103173531Y-179697029D01*
X103268488Y-179887726D01*
X103396871Y-180057733D01*
X103530610Y-180179651D01*
X103554304Y-180201251D01*
X103735428Y-180313399D01*
X103934077Y-180390356D01*
X104143483Y-180429500D01*
X104143486Y-180429500D01*
X104356514Y-180429500D01*
X104356517Y-180429500D01*
X104565923Y-180390356D01*
X104764572Y-180313399D01*
X104945696Y-180201251D01*
X105103130Y-180057731D01*
X105231512Y-179887726D01*
X105326469Y-179697026D01*
X105384769Y-179492125D01*
X105404425Y-179280000D01*
X105384769Y-179067875D01*
X105349807Y-178944997D01*
X107669723Y-178944997D01*
X107669723Y-178945002D01*
X107688793Y-179162975D01*
X107688793Y-179162979D01*
X107745422Y-179374322D01*
X107745424Y-179374326D01*
X107745425Y-179374330D01*
X107791661Y-179473484D01*
X107837897Y-179572638D01*
X107837898Y-179572639D01*
X107963402Y-179751877D01*
X108118123Y-179906598D01*
X108297361Y-180032102D01*
X108495670Y-180124575D01*
X108707023Y-180181207D01*
X108889926Y-180197208D01*
X108924998Y-180200277D01*
X108925000Y-180200277D01*
X108925002Y-180200277D01*
X108953254Y-180197805D01*
X109142977Y-180181207D01*
X109354330Y-180124575D01*
X109552639Y-180032102D01*
X109731877Y-179906598D01*
X109886598Y-179751877D01*
X110012102Y-179572639D01*
X110104575Y-179374330D01*
X110161207Y-179162977D01*
X110177805Y-178973254D01*
X110180277Y-178945002D01*
X110180277Y-178944997D01*
X110170843Y-178837166D01*
X110161207Y-178727023D01*
X110104575Y-178515670D01*
X110012102Y-178317362D01*
X110012100Y-178317359D01*
X110012099Y-178317357D01*
X109886599Y-178138124D01*
X109814813Y-178066338D01*
X109731877Y-177983402D01*
X109552639Y-177857898D01*
X109552640Y-177857898D01*
X109552638Y-177857897D01*
X109436407Y-177803698D01*
X109354330Y-177765425D01*
X109354326Y-177765424D01*
X109354322Y-177765422D01*
X109142977Y-177708793D01*
X108925002Y-177689723D01*
X108924998Y-177689723D01*
X108779682Y-177702436D01*
X108707023Y-177708793D01*
X108707020Y-177708793D01*
X108495677Y-177765422D01*
X108495668Y-177765426D01*
X108297361Y-177857898D01*
X108297357Y-177857900D01*
X108118121Y-177983402D01*
X107963402Y-178138121D01*
X107837900Y-178317357D01*
X107837898Y-178317361D01*
X107816709Y-178362802D01*
X107753578Y-178498187D01*
X107745426Y-178515668D01*
X107745422Y-178515677D01*
X107688793Y-178727020D01*
X107688793Y-178727024D01*
X107669723Y-178944997D01*
X105349807Y-178944997D01*
X105326469Y-178862974D01*
X105320875Y-178851740D01*
X105258774Y-178727024D01*
X105231512Y-178672274D01*
X105113250Y-178515670D01*
X105103128Y-178502266D01*
X104945697Y-178358750D01*
X104945696Y-178358749D01*
X104764572Y-178246601D01*
X104764571Y-178246600D01*
X104655843Y-178204479D01*
X104571769Y-178171908D01*
X104528884Y-178143964D01*
X104453693Y-178068773D01*
X104420208Y-178007450D01*
X104425192Y-177937758D01*
X104467064Y-177881825D01*
X104518586Y-177859204D01*
X104565923Y-177850356D01*
X104764572Y-177773399D01*
X104945696Y-177661251D01*
X105103130Y-177517731D01*
X105231512Y-177347726D01*
X105326469Y-177157026D01*
X105384769Y-176952125D01*
X105404425Y-176740000D01*
X105384769Y-176527875D01*
X105384240Y-176522166D01*
X105386055Y-176521997D01*
X105392247Y-176460762D01*
X105419423Y-176419810D01*
X105559206Y-176280028D01*
X105559211Y-176280024D01*
X105569414Y-176269820D01*
X105569416Y-176269820D01*
X105681220Y-176158016D01*
X105746802Y-176044422D01*
X105746804Y-176044421D01*
X105752271Y-176034950D01*
X105760277Y-176021085D01*
X105801201Y-175868357D01*
X105801201Y-175710243D01*
X105801201Y-175702648D01*
X105801200Y-175702630D01*
X105801200Y-173061460D01*
X105801201Y-173061447D01*
X105801201Y-172893344D01*
X105801201Y-172893343D01*
X105760277Y-172740616D01*
X105690480Y-172619724D01*
X105674008Y-172551825D01*
X105696861Y-172485798D01*
X105714325Y-172466093D01*
X105745981Y-172437236D01*
X105880058Y-172259689D01*
X105979229Y-172060528D01*
X106040115Y-171846536D01*
X106060643Y-171625000D01*
X106040115Y-171403464D01*
X105979229Y-171189472D01*
X105979224Y-171189461D01*
X105880061Y-170990316D01*
X105880056Y-170990308D01*
X105745979Y-170812761D01*
X105581562Y-170662876D01*
X105581560Y-170662874D01*
X105392404Y-170545754D01*
X105392398Y-170545752D01*
X105344342Y-170527135D01*
X107674500Y-170527135D01*
X107674500Y-172122870D01*
X107674501Y-172122876D01*
X107680908Y-172182483D01*
X107731202Y-172317328D01*
X107731206Y-172317335D01*
X107817452Y-172432544D01*
X107817455Y-172432547D01*
X107932664Y-172518793D01*
X107932671Y-172518797D01*
X108067517Y-172569091D01*
X108067516Y-172569091D01*
X108074444Y-172569835D01*
X108127127Y-172575500D01*
X109722872Y-172575499D01*
X109782483Y-172569091D01*
X109917331Y-172518796D01*
X110032546Y-172432546D01*
X110118796Y-172317331D01*
X110169091Y-172182483D01*
X110175500Y-172122873D01*
X110175499Y-170527128D01*
X110169091Y-170467517D01*
X110118796Y-170332669D01*
X110118795Y-170332668D01*
X110118793Y-170332664D01*
X110032547Y-170217455D01*
X110032544Y-170217452D01*
X109917335Y-170131206D01*
X109917328Y-170131202D01*
X109782482Y-170080908D01*
X109782483Y-170080908D01*
X109722883Y-170074501D01*
X109722881Y-170074500D01*
X109722873Y-170074500D01*
X109722864Y-170074500D01*
X108127129Y-170074500D01*
X108127123Y-170074501D01*
X108067516Y-170080908D01*
X107932671Y-170131202D01*
X107932664Y-170131206D01*
X107817455Y-170217452D01*
X107817452Y-170217455D01*
X107731206Y-170332664D01*
X107731202Y-170332671D01*
X107680908Y-170467517D01*
X107674501Y-170527116D01*
X107674501Y-170527123D01*
X107674500Y-170527135D01*
X105344342Y-170527135D01*
X105184940Y-170465382D01*
X104966243Y-170424500D01*
X104743757Y-170424500D01*
X104525060Y-170465382D01*
X104393864Y-170516207D01*
X104317601Y-170545752D01*
X104317595Y-170545754D01*
X104128439Y-170662874D01*
X104128437Y-170662876D01*
X104065138Y-170720581D01*
X104002334Y-170751198D01*
X103932947Y-170743000D01*
X103879007Y-170698590D01*
X103857639Y-170632068D01*
X103857600Y-170628944D01*
X103857600Y-151791651D01*
X103877285Y-151724612D01*
X103930089Y-151678857D01*
X103999247Y-151668913D01*
X104051449Y-151689197D01*
X104082296Y-151710228D01*
X104082299Y-151710229D01*
X104082303Y-151710232D01*
X104207843Y-151770688D01*
X104318673Y-151824061D01*
X104318674Y-151824061D01*
X104318677Y-151824063D01*
X104569385Y-151901396D01*
X104828818Y-151940500D01*
X105091182Y-151940500D01*
X105350615Y-151901396D01*
X105601323Y-151824063D01*
X105837704Y-151710228D01*
X106054479Y-151562433D01*
X106246805Y-151383981D01*
X106410386Y-151178857D01*
X106541568Y-150951643D01*
X106573926Y-150869194D01*
X106616740Y-150813984D01*
X106682610Y-150790683D01*
X106689353Y-150790500D01*
X108310647Y-150790500D01*
X108377686Y-150810185D01*
X108423441Y-150862989D01*
X108426058Y-150869157D01*
X108458432Y-150951643D01*
X108589614Y-151178857D01*
X108721736Y-151344533D01*
X108753198Y-151383985D01*
X108934753Y-151552441D01*
X108945521Y-151562433D01*
X109162296Y-151710228D01*
X109162301Y-151710230D01*
X109162302Y-151710231D01*
X109162303Y-151710232D01*
X109287843Y-151770688D01*
X109398673Y-151824061D01*
X109398674Y-151824061D01*
X109398677Y-151824063D01*
X109649385Y-151901396D01*
X109908818Y-151940500D01*
X110171182Y-151940500D01*
X110430615Y-151901396D01*
X110681323Y-151824063D01*
X110917704Y-151710228D01*
X111134479Y-151562433D01*
X111326805Y-151383981D01*
X111490386Y-151178857D01*
X111621568Y-150951643D01*
X111717420Y-150707416D01*
X111775802Y-150451630D01*
X111795408Y-150190000D01*
X111775802Y-149928370D01*
X111717420Y-149672584D01*
X111621568Y-149428357D01*
X111490386Y-149201143D01*
X111326805Y-148996019D01*
X111326804Y-148996018D01*
X111326801Y-148996014D01*
X111134479Y-148817567D01*
X110917704Y-148669772D01*
X110917700Y-148669770D01*
X110917697Y-148669768D01*
X110917696Y-148669767D01*
X110681325Y-148555938D01*
X110681327Y-148555938D01*
X110430623Y-148478606D01*
X110430619Y-148478605D01*
X110430615Y-148478604D01*
X110305823Y-148459794D01*
X110171187Y-148439500D01*
X110171182Y-148439500D01*
X109908818Y-148439500D01*
X109908812Y-148439500D01*
X109747247Y-148463853D01*
X109649385Y-148478604D01*
X109649382Y-148478605D01*
X109649376Y-148478606D01*
X109398673Y-148555938D01*
X109328301Y-148589828D01*
X109259360Y-148601180D01*
X109195225Y-148573458D01*
X109156260Y-148515462D01*
X109150500Y-148478108D01*
X109150500Y-146821892D01*
X109170185Y-146754853D01*
X109222989Y-146709098D01*
X109292147Y-146699154D01*
X109328301Y-146710172D01*
X109351243Y-146721220D01*
X109398673Y-146744061D01*
X109398674Y-146744061D01*
X109398677Y-146744063D01*
X109649385Y-146821396D01*
X109908818Y-146860500D01*
X110171182Y-146860500D01*
X110430615Y-146821396D01*
X110681323Y-146744063D01*
X110917704Y-146630228D01*
X111134479Y-146482433D01*
X111326805Y-146303981D01*
X111490386Y-146098857D01*
X111621568Y-145871643D01*
X111717420Y-145627416D01*
X111775802Y-145371630D01*
X111795408Y-145110000D01*
X111775802Y-144848370D01*
X111717420Y-144592584D01*
X111621568Y-144348357D01*
X111490386Y-144121143D01*
X111326805Y-143916019D01*
X111326804Y-143916018D01*
X111326801Y-143916014D01*
X111134479Y-143737567D01*
X111115208Y-143724428D01*
X110917704Y-143589772D01*
X110917700Y-143589770D01*
X110917697Y-143589768D01*
X110917696Y-143589767D01*
X110681325Y-143475938D01*
X110681327Y-143475938D01*
X110430623Y-143398606D01*
X110430619Y-143398605D01*
X110430615Y-143398604D01*
X110305823Y-143379794D01*
X110171187Y-143359500D01*
X110171182Y-143359500D01*
X109908818Y-143359500D01*
X109908812Y-143359500D01*
X109747247Y-143383853D01*
X109649385Y-143398604D01*
X109649382Y-143398605D01*
X109649376Y-143398606D01*
X109398673Y-143475938D01*
X109162303Y-143589767D01*
X109162302Y-143589768D01*
X108945520Y-143737567D01*
X108753198Y-143916014D01*
X108589614Y-144121143D01*
X108458435Y-144348350D01*
X108458432Y-144348355D01*
X108458432Y-144348357D01*
X108426073Y-144430805D01*
X108383260Y-144486016D01*
X108317390Y-144509317D01*
X108310647Y-144509500D01*
X106689353Y-144509500D01*
X106622314Y-144489815D01*
X106576559Y-144437011D01*
X106573941Y-144430842D01*
X106541568Y-144348357D01*
X106410386Y-144121143D01*
X106246805Y-143916019D01*
X106246804Y-143916018D01*
X106246801Y-143916014D01*
X106054479Y-143737567D01*
X106035208Y-143724428D01*
X105837704Y-143589772D01*
X105837700Y-143589770D01*
X105837697Y-143589768D01*
X105837696Y-143589767D01*
X105601325Y-143475938D01*
X105601327Y-143475938D01*
X105350623Y-143398606D01*
X105350619Y-143398605D01*
X105350615Y-143398604D01*
X105225823Y-143379794D01*
X105091187Y-143359500D01*
X105091182Y-143359500D01*
X104828818Y-143359500D01*
X104828812Y-143359500D01*
X104667247Y-143383853D01*
X104569385Y-143398604D01*
X104569382Y-143398605D01*
X104569380Y-143398605D01*
X104528363Y-143411257D01*
X104458500Y-143412206D01*
X104399214Y-143375233D01*
X104369328Y-143312078D01*
X104378331Y-143242791D01*
X104404131Y-143205087D01*
X106552427Y-141056792D01*
X106613748Y-141023309D01*
X106683440Y-141028293D01*
X106727787Y-141056794D01*
X106843927Y-141172934D01*
X107028540Y-141302202D01*
X107151424Y-141359503D01*
X107232788Y-141397444D01*
X107232790Y-141397444D01*
X107232795Y-141397447D01*
X107450487Y-141455778D01*
X107610853Y-141469808D01*
X107674998Y-141475420D01*
X107675000Y-141475420D01*
X107675002Y-141475420D01*
X107731128Y-141470509D01*
X107899513Y-141455778D01*
X108117205Y-141397447D01*
X108321460Y-141302202D01*
X108506073Y-141172934D01*
X108665434Y-141013573D01*
X108794702Y-140828960D01*
X108889947Y-140624705D01*
X108948278Y-140407013D01*
X108963009Y-140238628D01*
X108967920Y-140182502D01*
X108967920Y-140182497D01*
X108948278Y-139957992D01*
X108948278Y-139957987D01*
X108889947Y-139740295D01*
X108866207Y-139689385D01*
X108801080Y-139549718D01*
X108794702Y-139536040D01*
X108665434Y-139351427D01*
X108506073Y-139192066D01*
X108503019Y-139189927D01*
X108501989Y-139188639D01*
X108501928Y-139188588D01*
X108501938Y-139188575D01*
X108459398Y-139135351D01*
X108452207Y-139065853D01*
X108483732Y-139003499D01*
X108543963Y-138968087D01*
X108560885Y-138965068D01*
X108569983Y-138964091D01*
X108704831Y-138913796D01*
X108820046Y-138827546D01*
X108906296Y-138712331D01*
X108956591Y-138577483D01*
X108963000Y-138517873D01*
X108962999Y-136847128D01*
X108956591Y-136787517D01*
X108952551Y-136776686D01*
X108906297Y-136652671D01*
X108906293Y-136652664D01*
X108820047Y-136537455D01*
X108820044Y-136537452D01*
X108797371Y-136520479D01*
X108755500Y-136464545D01*
X108750516Y-136394854D01*
X108783999Y-136333534D01*
X109057813Y-136059721D01*
X109057816Y-136059720D01*
X109169620Y-135947916D01*
X109219739Y-135861104D01*
X109248677Y-135810985D01*
X109289601Y-135658257D01*
X109289601Y-135500143D01*
X109289601Y-135492548D01*
X109289600Y-135492530D01*
X109289600Y-126730045D01*
X109289600Y-126730043D01*
X109255850Y-126604085D01*
X109248677Y-126577315D01*
X109191832Y-126478857D01*
X109169620Y-126440384D01*
X109057816Y-126328580D01*
X109057815Y-126328579D01*
X109053485Y-126324249D01*
X109053474Y-126324239D01*
X108700914Y-125971679D01*
X108667429Y-125910356D01*
X108668821Y-125851902D01*
X108688069Y-125780072D01*
X108688069Y-125780071D01*
X108688070Y-125780068D01*
X108707323Y-125560000D01*
X108688070Y-125339932D01*
X108630894Y-125126550D01*
X108537534Y-124926339D01*
X108410826Y-124745380D01*
X108254620Y-124589174D01*
X108254616Y-124589171D01*
X108254615Y-124589170D01*
X108073666Y-124462468D01*
X108073662Y-124462466D01*
X108046727Y-124449906D01*
X107873450Y-124369106D01*
X107873447Y-124369105D01*
X107873445Y-124369104D01*
X107660070Y-124311930D01*
X107660062Y-124311929D01*
X107440002Y-124292677D01*
X107439998Y-124292677D01*
X107219937Y-124311929D01*
X107219929Y-124311930D01*
X107006554Y-124369104D01*
X107006548Y-124369107D01*
X106806340Y-124462465D01*
X106806338Y-124462466D01*
X106625380Y-124589172D01*
X106562923Y-124651629D01*
X106501599Y-124685113D01*
X106431908Y-124680127D01*
X106387562Y-124651627D01*
X101427990Y-119692055D01*
X101427988Y-119692052D01*
X101309117Y-119573181D01*
X101309109Y-119573175D01*
X101207336Y-119514417D01*
X101207334Y-119514416D01*
X101172190Y-119494125D01*
X101172189Y-119494124D01*
X101159663Y-119490767D01*
X101019457Y-119453199D01*
X100861343Y-119453199D01*
X100853747Y-119453199D01*
X100853731Y-119453200D01*
X99924812Y-119453200D01*
X99857773Y-119433515D01*
X99847497Y-119426145D01*
X99844663Y-119423885D01*
X99844662Y-119423884D01*
X99787896Y-119388215D01*
X99691923Y-119327911D01*
X99521654Y-119268331D01*
X99521649Y-119268330D01*
X99342404Y-119248135D01*
X99342396Y-119248135D01*
X99163150Y-119268330D01*
X99163145Y-119268331D01*
X98992876Y-119327911D01*
X98840135Y-119423885D01*
X98825804Y-119438216D01*
X98764479Y-119471698D01*
X98694787Y-119466710D01*
X98650446Y-119438211D01*
X94857790Y-115645555D01*
X94857788Y-115645552D01*
X94738917Y-115526681D01*
X94738916Y-115526680D01*
X94652104Y-115476560D01*
X94652104Y-115476559D01*
X94652100Y-115476558D01*
X94601985Y-115447623D01*
X94449257Y-115406699D01*
X94291143Y-115406699D01*
X94283547Y-115406699D01*
X94283531Y-115406700D01*
X92483109Y-115406700D01*
X92416070Y-115387015D01*
X92370315Y-115334211D01*
X92360371Y-115265053D01*
X92389396Y-115201497D01*
X92395428Y-115195019D01*
X92455824Y-115134622D01*
X92455825Y-115134621D01*
X92455826Y-115134620D01*
X92531478Y-115026576D01*
X92586054Y-114982952D01*
X92633053Y-114973700D01*
X100759731Y-114973700D01*
X100759747Y-114973701D01*
X100767343Y-114973701D01*
X100925454Y-114973701D01*
X100925457Y-114973701D01*
X101078185Y-114932777D01*
X101128304Y-114903839D01*
X101215116Y-114853720D01*
X101326920Y-114741916D01*
X101326920Y-114741914D01*
X101337128Y-114731707D01*
X101337130Y-114731704D01*
X107003779Y-109065054D01*
X107065100Y-109031571D01*
X107123553Y-109032963D01*
X107179924Y-109048068D01*
X107179925Y-109048068D01*
X107179932Y-109048070D01*
X107367226Y-109064455D01*
X107399998Y-109067323D01*
X107400000Y-109067323D01*
X107400002Y-109067323D01*
X107455017Y-109062509D01*
X107620068Y-109048070D01*
X107833450Y-108990894D01*
X108033662Y-108897534D01*
X108214620Y-108770826D01*
X108370826Y-108614620D01*
X108497534Y-108433662D01*
X108590894Y-108233450D01*
X108648070Y-108020068D01*
X108667323Y-107800000D01*
X108648070Y-107579932D01*
X108628821Y-107508095D01*
X108630482Y-107438245D01*
X108660912Y-107388321D01*
X109889106Y-106160128D01*
X109889111Y-106160124D01*
X109899314Y-106149920D01*
X109899316Y-106149920D01*
X110011120Y-106038116D01*
X110090177Y-105901184D01*
X110131100Y-105748457D01*
X110131100Y-93522643D01*
X110130404Y-93520047D01*
X110120134Y-93481719D01*
X110090177Y-93369916D01*
X110061941Y-93321009D01*
X110011124Y-93232990D01*
X110011121Y-93232986D01*
X110011120Y-93232984D01*
X109899316Y-93121180D01*
X109899315Y-93121179D01*
X109894985Y-93116849D01*
X109894974Y-93116839D01*
X105304853Y-88526718D01*
X105271368Y-88465395D01*
X105276352Y-88395703D01*
X105318224Y-88339770D01*
X105327239Y-88333621D01*
X105426562Y-88272124D01*
X105590981Y-88122236D01*
X105725058Y-87944689D01*
X105824229Y-87745528D01*
X105885115Y-87531536D01*
X105905643Y-87310000D01*
X105885115Y-87088464D01*
X105879729Y-87069534D01*
X105880315Y-86999669D01*
X105911312Y-86947921D01*
X107022417Y-85836819D01*
X107083740Y-85803334D01*
X107110098Y-85800500D01*
X107424462Y-85800500D01*
X107491501Y-85820185D01*
X107526036Y-85853375D01*
X107635326Y-86009457D01*
X107635327Y-86009458D01*
X107790541Y-86164672D01*
X107790547Y-86164677D01*
X107970349Y-86290576D01*
X107970351Y-86290577D01*
X107970354Y-86290579D01*
X108169297Y-86383347D01*
X108381326Y-86440161D01*
X108537521Y-86453826D01*
X108599998Y-86459292D01*
X108600000Y-86459292D01*
X108600002Y-86459292D01*
X108654668Y-86454509D01*
X108818674Y-86440161D01*
X109030703Y-86383347D01*
X109229646Y-86290579D01*
X109409457Y-86164674D01*
X109564674Y-86009457D01*
X109690579Y-85829646D01*
X109783347Y-85630703D01*
X109840161Y-85418674D01*
X109859292Y-85200000D01*
X109840161Y-84981326D01*
X109783347Y-84769297D01*
X109690579Y-84570354D01*
X109690577Y-84570351D01*
X109690576Y-84570349D01*
X109564677Y-84390547D01*
X109564672Y-84390541D01*
X109409458Y-84235327D01*
X109409452Y-84235322D01*
X109229650Y-84109423D01*
X109229642Y-84109419D01*
X109128770Y-84062382D01*
X109076330Y-84016210D01*
X109057178Y-83949017D01*
X109077393Y-83882135D01*
X109128770Y-83837618D01*
X109136860Y-83833845D01*
X109229646Y-83790579D01*
X109409457Y-83664674D01*
X109564674Y-83509457D01*
X109690579Y-83329646D01*
X109783347Y-83130703D01*
X109840161Y-82918674D01*
X109859292Y-82700000D01*
X109853652Y-82635538D01*
X109852117Y-82617997D01*
X109840161Y-82481326D01*
X109783347Y-82269297D01*
X109690579Y-82070354D01*
X109690577Y-82070351D01*
X109690576Y-82070349D01*
X109564677Y-81890547D01*
X109564672Y-81890541D01*
X109409458Y-81735327D01*
X109409452Y-81735322D01*
X109330549Y-81680074D01*
X109286924Y-81625497D01*
X109279730Y-81555999D01*
X109311253Y-81493644D01*
X109371482Y-81458230D01*
X109398573Y-81454881D01*
X109398571Y-81454854D01*
X109398573Y-81454853D01*
X109398564Y-81454676D01*
X109401520Y-81454517D01*
X109401672Y-81454499D01*
X109401871Y-81454499D01*
X109401872Y-81454499D01*
X109461483Y-81448091D01*
X109596331Y-81397796D01*
X109711546Y-81311546D01*
X109797796Y-81196331D01*
X109848091Y-81061483D01*
X109854500Y-81001873D01*
X109854499Y-79398128D01*
X109848091Y-79338517D01*
X109816744Y-79254472D01*
X109797797Y-79203671D01*
X109797793Y-79203664D01*
X109711547Y-79088455D01*
X109711544Y-79088452D01*
X109596335Y-79002206D01*
X109596328Y-79002202D01*
X109461482Y-78951908D01*
X109461483Y-78951908D01*
X109401883Y-78945501D01*
X109401881Y-78945500D01*
X109401873Y-78945500D01*
X109401864Y-78945500D01*
X107798129Y-78945500D01*
X107798123Y-78945501D01*
X107738516Y-78951908D01*
X107603671Y-79002202D01*
X107603664Y-79002206D01*
X107488455Y-79088452D01*
X107488452Y-79088455D01*
X107402206Y-79203664D01*
X107402202Y-79203671D01*
X107351908Y-79338517D01*
X107347740Y-79377292D01*
X107345501Y-79398123D01*
X107345500Y-79398135D01*
X107345500Y-81001870D01*
X107345501Y-81001876D01*
X107351908Y-81061483D01*
X107402202Y-81196328D01*
X107402206Y-81196335D01*
X107488452Y-81311544D01*
X107488455Y-81311547D01*
X107603664Y-81397793D01*
X107603671Y-81397797D01*
X107648618Y-81414561D01*
X107738517Y-81448091D01*
X107798127Y-81454500D01*
X107798294Y-81454499D01*
X107798329Y-81454510D01*
X107801453Y-81454678D01*
X107801413Y-81455414D01*
X107865336Y-81474165D01*
X107911106Y-81526955D01*
X107921069Y-81596111D01*
X107892062Y-81659675D01*
X107869450Y-81680073D01*
X107790550Y-81735319D01*
X107790541Y-81735327D01*
X107635327Y-81890541D01*
X107635322Y-81890547D01*
X107509423Y-82070349D01*
X107509419Y-82070357D01*
X107416655Y-82269291D01*
X107359839Y-82481324D01*
X107359838Y-82481331D01*
X107340708Y-82699997D01*
X107340708Y-82700002D01*
X107355580Y-82870000D01*
X107359839Y-82918674D01*
X107416653Y-83130703D01*
X107416654Y-83130706D01*
X107416655Y-83130708D01*
X107509419Y-83329642D01*
X107509423Y-83329650D01*
X107635322Y-83509452D01*
X107635327Y-83509458D01*
X107790541Y-83664672D01*
X107790547Y-83664677D01*
X107970349Y-83790576D01*
X107970351Y-83790577D01*
X107970354Y-83790579D01*
X108058736Y-83831791D01*
X108071230Y-83837618D01*
X108123669Y-83883790D01*
X108142821Y-83950984D01*
X108122605Y-84017865D01*
X108071230Y-84062382D01*
X107970353Y-84109421D01*
X107970349Y-84109423D01*
X107790547Y-84235322D01*
X107790541Y-84235327D01*
X107635327Y-84390541D01*
X107635326Y-84390543D01*
X107526037Y-84546624D01*
X107471460Y-84590248D01*
X107424462Y-84599500D01*
X106896670Y-84599500D01*
X106896654Y-84599499D01*
X106889058Y-84599499D01*
X106730943Y-84599499D01*
X106654579Y-84619961D01*
X106578214Y-84640423D01*
X106578209Y-84640426D01*
X106441290Y-84719475D01*
X106441282Y-84719481D01*
X105059679Y-86101083D01*
X104998356Y-86134568D01*
X104949213Y-86135290D01*
X104811243Y-86109500D01*
X104588757Y-86109500D01*
X104370060Y-86150382D01*
X104279062Y-86185635D01*
X104162601Y-86230752D01*
X104162595Y-86230754D01*
X103973439Y-86347874D01*
X103973437Y-86347876D01*
X103809020Y-86497761D01*
X103674939Y-86675313D01*
X103672649Y-86679013D01*
X103620619Y-86725645D01*
X103551636Y-86736745D01*
X103487604Y-86708788D01*
X103479545Y-86701410D01*
X99668463Y-82890328D01*
X99634978Y-82829005D01*
X99636368Y-82770556D01*
X99685635Y-82586692D01*
X99705468Y-82360000D01*
X99691470Y-82199999D01*
X100594357Y-82199999D01*
X100594357Y-82200000D01*
X100614884Y-82421535D01*
X100614885Y-82421537D01*
X100675769Y-82635523D01*
X100675775Y-82635538D01*
X100774938Y-82834683D01*
X100774943Y-82834691D01*
X100909020Y-83012238D01*
X101073437Y-83162123D01*
X101073439Y-83162125D01*
X101262595Y-83279245D01*
X101262596Y-83279245D01*
X101262599Y-83279247D01*
X101470060Y-83359618D01*
X101688757Y-83400500D01*
X101688759Y-83400500D01*
X101911241Y-83400500D01*
X101911243Y-83400500D01*
X102129940Y-83359618D01*
X102337401Y-83279247D01*
X102526562Y-83162124D01*
X102690981Y-83012236D01*
X102825058Y-82834689D01*
X102924229Y-82635528D01*
X102985115Y-82421536D01*
X103005643Y-82200000D01*
X102985115Y-81978464D01*
X102924229Y-81764472D01*
X102924224Y-81764461D01*
X102825061Y-81565316D01*
X102825056Y-81565308D01*
X102690979Y-81387761D01*
X102526562Y-81237876D01*
X102526560Y-81237874D01*
X102337404Y-81120754D01*
X102337398Y-81120752D01*
X102129940Y-81040382D01*
X101911243Y-80999500D01*
X101688757Y-80999500D01*
X101470060Y-81040382D01*
X101355528Y-81084752D01*
X101262601Y-81120752D01*
X101262595Y-81120754D01*
X101073439Y-81237874D01*
X101073437Y-81237876D01*
X100909020Y-81387761D01*
X100774943Y-81565308D01*
X100774938Y-81565316D01*
X100675775Y-81764461D01*
X100675769Y-81764476D01*
X100614885Y-81978462D01*
X100614884Y-81978464D01*
X100594357Y-82199999D01*
X99691470Y-82199999D01*
X99685635Y-82133308D01*
X99635432Y-81945946D01*
X99626741Y-81913511D01*
X99626738Y-81913502D01*
X99598931Y-81853871D01*
X99530568Y-81707266D01*
X99400047Y-81520861D01*
X99400045Y-81520858D01*
X99239141Y-81359954D01*
X99052734Y-81229432D01*
X99052728Y-81229429D01*
X98994725Y-81202382D01*
X98942285Y-81156210D01*
X98923133Y-81089017D01*
X98943348Y-81022135D01*
X98994725Y-80977618D01*
X99052734Y-80950568D01*
X99239139Y-80820047D01*
X99400047Y-80659139D01*
X99530568Y-80472734D01*
X99626739Y-80266496D01*
X99685635Y-80046692D01*
X99705468Y-79820000D01*
X99705215Y-79817113D01*
X99688603Y-79627238D01*
X99685635Y-79593308D01*
X99659847Y-79497066D01*
X99661510Y-79427217D01*
X99691939Y-79377294D01*
X100287820Y-78781414D01*
X100349142Y-78747930D01*
X100418834Y-78752914D01*
X100474767Y-78794786D01*
X100499184Y-78860250D01*
X100499500Y-78869096D01*
X100499500Y-80087870D01*
X100499501Y-80087876D01*
X100505908Y-80147483D01*
X100556202Y-80282328D01*
X100556206Y-80282335D01*
X100642452Y-80397544D01*
X100642455Y-80397547D01*
X100757664Y-80483793D01*
X100757671Y-80483797D01*
X100892517Y-80534091D01*
X100892516Y-80534091D01*
X100899444Y-80534835D01*
X100952127Y-80540500D01*
X102847872Y-80540499D01*
X102907483Y-80534091D01*
X103042331Y-80483796D01*
X103157546Y-80397546D01*
X103243796Y-80282331D01*
X103294091Y-80147483D01*
X103300500Y-80087873D01*
X103300499Y-80046975D01*
X103320182Y-79979939D01*
X103372985Y-79934183D01*
X103442143Y-79924238D01*
X103505700Y-79953261D01*
X103543475Y-80012038D01*
X103543765Y-80013041D01*
X103575770Y-80125525D01*
X103575775Y-80125538D01*
X103674938Y-80324683D01*
X103674943Y-80324691D01*
X103809020Y-80502238D01*
X103973437Y-80652123D01*
X103973439Y-80652125D01*
X104162595Y-80769245D01*
X104162596Y-80769245D01*
X104162599Y-80769247D01*
X104370060Y-80849618D01*
X104588757Y-80890500D01*
X104588759Y-80890500D01*
X104811241Y-80890500D01*
X104811243Y-80890500D01*
X105029940Y-80849618D01*
X105237401Y-80769247D01*
X105426562Y-80652124D01*
X105590981Y-80502236D01*
X105725058Y-80324689D01*
X105824229Y-80125528D01*
X105885115Y-79911536D01*
X105905643Y-79690000D01*
X105903540Y-79667310D01*
X105885115Y-79468464D01*
X105885114Y-79468462D01*
X105881457Y-79455610D01*
X105824229Y-79254472D01*
X105819572Y-79245120D01*
X105725055Y-79055305D01*
X105722038Y-79050432D01*
X105723187Y-79049720D01*
X105700853Y-78990583D01*
X105700500Y-78981229D01*
X105700500Y-78582688D01*
X105709942Y-78535229D01*
X105710337Y-78534274D01*
X105712052Y-78530135D01*
X105750500Y-78336840D01*
X105750500Y-78139759D01*
X105750500Y-77428769D01*
X105770185Y-77361730D01*
X105774761Y-77355167D01*
X105775053Y-77354694D01*
X105775058Y-77354689D01*
X105874229Y-77155528D01*
X105923013Y-76984064D01*
X105954596Y-76930322D01*
X107834441Y-75050478D01*
X107895762Y-75016995D01*
X107965454Y-75021979D01*
X107993243Y-75036586D01*
X108070349Y-75090576D01*
X108070351Y-75090577D01*
X108070354Y-75090579D01*
X108269297Y-75183347D01*
X108481326Y-75240161D01*
X108637521Y-75253826D01*
X108699998Y-75259292D01*
X108700000Y-75259292D01*
X108700002Y-75259292D01*
X108754668Y-75254509D01*
X108918674Y-75240161D01*
X109130703Y-75183347D01*
X109329646Y-75090579D01*
X109509457Y-74964674D01*
X109664674Y-74809457D01*
X109790579Y-74629646D01*
X109883347Y-74430703D01*
X109940161Y-74218674D01*
X109959292Y-74000000D01*
X109940161Y-73781326D01*
X109883347Y-73569297D01*
X109790579Y-73370354D01*
X109790577Y-73370351D01*
X109790576Y-73370349D01*
X109664677Y-73190547D01*
X109664672Y-73190541D01*
X109509458Y-73035327D01*
X109509452Y-73035322D01*
X109329650Y-72909423D01*
X109329642Y-72909419D01*
X109228770Y-72862382D01*
X109176330Y-72816210D01*
X109157178Y-72749017D01*
X109177393Y-72682135D01*
X109228770Y-72637618D01*
X109236860Y-72633845D01*
X109329646Y-72590579D01*
X109509457Y-72464674D01*
X109664674Y-72309457D01*
X109790579Y-72129646D01*
X109883347Y-71930703D01*
X109940161Y-71718674D01*
X109959292Y-71500000D01*
X109940161Y-71281326D01*
X109883347Y-71069297D01*
X109790579Y-70870354D01*
X109790577Y-70870351D01*
X109790576Y-70870349D01*
X109664677Y-70690547D01*
X109664672Y-70690541D01*
X109509458Y-70535327D01*
X109509452Y-70535322D01*
X109430549Y-70480074D01*
X109386924Y-70425497D01*
X109379730Y-70355999D01*
X109411253Y-70293644D01*
X109471482Y-70258230D01*
X109498573Y-70254881D01*
X109498571Y-70254854D01*
X109498573Y-70254853D01*
X109498564Y-70254676D01*
X109501520Y-70254517D01*
X109501672Y-70254499D01*
X109501871Y-70254499D01*
X109501872Y-70254499D01*
X109561483Y-70248091D01*
X109696331Y-70197796D01*
X109811546Y-70111546D01*
X109897796Y-69996331D01*
X109948091Y-69861483D01*
X109954500Y-69801873D01*
X109954499Y-68198128D01*
X109948091Y-68138517D01*
X109947851Y-68137874D01*
X109897797Y-68003671D01*
X109897793Y-68003664D01*
X109811547Y-67888455D01*
X109811544Y-67888452D01*
X109696335Y-67802206D01*
X109696328Y-67802202D01*
X109561482Y-67751908D01*
X109561483Y-67751908D01*
X109501883Y-67745501D01*
X109501881Y-67745500D01*
X109501873Y-67745500D01*
X109501864Y-67745500D01*
X107898129Y-67745500D01*
X107898123Y-67745501D01*
X107838516Y-67751908D01*
X107703671Y-67802202D01*
X107703664Y-67802206D01*
X107588455Y-67888452D01*
X107588452Y-67888455D01*
X107502206Y-68003664D01*
X107502202Y-68003671D01*
X107451908Y-68138517D01*
X107445501Y-68198116D01*
X107445501Y-68198123D01*
X107445500Y-68198135D01*
X107445500Y-69801870D01*
X107445501Y-69801876D01*
X107451908Y-69861483D01*
X107502202Y-69996328D01*
X107502206Y-69996335D01*
X107588452Y-70111544D01*
X107588455Y-70111547D01*
X107703664Y-70197793D01*
X107703671Y-70197797D01*
X107748618Y-70214561D01*
X107838517Y-70248091D01*
X107898127Y-70254500D01*
X107898294Y-70254499D01*
X107898329Y-70254510D01*
X107901453Y-70254678D01*
X107901413Y-70255414D01*
X107965336Y-70274165D01*
X108011106Y-70326955D01*
X108021069Y-70396111D01*
X107992062Y-70459675D01*
X107969450Y-70480073D01*
X107890550Y-70535319D01*
X107890541Y-70535327D01*
X107735327Y-70690541D01*
X107735326Y-70690543D01*
X107665289Y-70790567D01*
X107626037Y-70846624D01*
X107571460Y-70890248D01*
X107524462Y-70899500D01*
X104100940Y-70899500D01*
X104060019Y-70910464D01*
X104060019Y-70910465D01*
X104022751Y-70920451D01*
X103948214Y-70940423D01*
X103948209Y-70940426D01*
X103811290Y-71019475D01*
X103811282Y-71019481D01*
X103699478Y-71131286D01*
X99909428Y-74921335D01*
X99848105Y-74954820D01*
X99778413Y-74949836D01*
X99722480Y-74907964D01*
X99698063Y-74842500D01*
X99698218Y-74822857D01*
X99705468Y-74740000D01*
X99685635Y-74513308D01*
X99659847Y-74417066D01*
X99661510Y-74347217D01*
X99691939Y-74297294D01*
X103894496Y-70094737D01*
X103955817Y-70061254D01*
X104025509Y-70066238D01*
X104047452Y-70076993D01*
X104212595Y-70179245D01*
X104212596Y-70179245D01*
X104212599Y-70179247D01*
X104420060Y-70259618D01*
X104638757Y-70300500D01*
X104638759Y-70300500D01*
X104861241Y-70300500D01*
X104861243Y-70300500D01*
X105079940Y-70259618D01*
X105287401Y-70179247D01*
X105476562Y-70062124D01*
X105640981Y-69912236D01*
X105775058Y-69734689D01*
X105874229Y-69535528D01*
X105935115Y-69321536D01*
X105955643Y-69100000D01*
X105950887Y-69048679D01*
X105935115Y-68878464D01*
X105935114Y-68878462D01*
X105933812Y-68873887D01*
X105874229Y-68664472D01*
X105874224Y-68664461D01*
X105775061Y-68465316D01*
X105775056Y-68465308D01*
X105640979Y-68287761D01*
X105476562Y-68137876D01*
X105476560Y-68137874D01*
X105287404Y-68020754D01*
X105287398Y-68020752D01*
X105079940Y-67940382D01*
X104861243Y-67899500D01*
X104638757Y-67899500D01*
X104420060Y-67940382D01*
X104371643Y-67959139D01*
X104212601Y-68020752D01*
X104212595Y-68020754D01*
X104023439Y-68137874D01*
X104023437Y-68137876D01*
X103859020Y-68287761D01*
X103732390Y-68455447D01*
X103676281Y-68497083D01*
X103665530Y-68500495D01*
X103516514Y-68540423D01*
X103516509Y-68540426D01*
X103379590Y-68619475D01*
X103379582Y-68619481D01*
X103267781Y-68731282D01*
X103267775Y-68731290D01*
X103188726Y-68868209D01*
X103188723Y-68868216D01*
X103147800Y-69020943D01*
X103147800Y-69091602D01*
X103128115Y-69158641D01*
X103111481Y-69179283D01*
X103050754Y-69240010D01*
X102989431Y-69273495D01*
X102919739Y-69268511D01*
X102863806Y-69226639D01*
X102849517Y-69202140D01*
X102835923Y-69171149D01*
X102708983Y-68976852D01*
X102708980Y-68976849D01*
X102708979Y-68976847D01*
X102614195Y-68873884D01*
X102583275Y-68811232D01*
X102591135Y-68741806D01*
X102635283Y-68687651D01*
X102662095Y-68673722D01*
X102742326Y-68643798D01*
X102742326Y-68643797D01*
X102742331Y-68643796D01*
X102857546Y-68557546D01*
X102943796Y-68442331D01*
X102994091Y-68307483D01*
X103000500Y-68247873D01*
X103000499Y-66352128D01*
X102994091Y-66292517D01*
X102989742Y-66280858D01*
X102943797Y-66157671D01*
X102943793Y-66157664D01*
X102857547Y-66042455D01*
X102857544Y-66042452D01*
X102742335Y-65956206D01*
X102742328Y-65956202D01*
X102607482Y-65905908D01*
X102607483Y-65905908D01*
X102547883Y-65899501D01*
X102547881Y-65899500D01*
X102547873Y-65899500D01*
X102547864Y-65899500D01*
X100652129Y-65899500D01*
X100652123Y-65899501D01*
X100592516Y-65905908D01*
X100457671Y-65956202D01*
X100457664Y-65956206D01*
X100342455Y-66042452D01*
X100342452Y-66042455D01*
X100256206Y-66157664D01*
X100256202Y-66157671D01*
X100205908Y-66292517D01*
X100199501Y-66352116D01*
X100199501Y-66352123D01*
X100199500Y-66352135D01*
X100199501Y-68247862D01*
X100199501Y-68247876D01*
X100205908Y-68307483D01*
X100256202Y-68442328D01*
X100256206Y-68442335D01*
X100342452Y-68557544D01*
X100342455Y-68557547D01*
X100457664Y-68643793D01*
X100457673Y-68643798D01*
X100537904Y-68673722D01*
X100593838Y-68715593D01*
X100618256Y-68781057D01*
X100603405Y-68849330D01*
X100585802Y-68873886D01*
X100491017Y-68976850D01*
X100473723Y-69003322D01*
X100420577Y-69048679D01*
X100369915Y-69059500D01*
X99631692Y-69059500D01*
X99564653Y-69039815D01*
X99530119Y-69006625D01*
X99400047Y-68820861D01*
X99400045Y-68820858D01*
X99239141Y-68659954D01*
X99052734Y-68529432D01*
X99052728Y-68529429D01*
X98994725Y-68502382D01*
X98942285Y-68456210D01*
X98923133Y-68389017D01*
X98943348Y-68322135D01*
X98994725Y-68277618D01*
X99052734Y-68250568D01*
X99239139Y-68120047D01*
X99400047Y-67959139D01*
X99530568Y-67772734D01*
X99626739Y-67566496D01*
X99685635Y-67346692D01*
X99705468Y-67120000D01*
X99685635Y-66893308D01*
X99626739Y-66673504D01*
X99530568Y-66467266D01*
X99400047Y-66280861D01*
X99400045Y-66280858D01*
X99239141Y-66119954D01*
X99052734Y-65989432D01*
X99052732Y-65989431D01*
X98846497Y-65893261D01*
X98846488Y-65893258D01*
X98626697Y-65834366D01*
X98626693Y-65834365D01*
X98626692Y-65834365D01*
X98626691Y-65834364D01*
X98626686Y-65834364D01*
X98400002Y-65814532D01*
X98399998Y-65814532D01*
X98173313Y-65834364D01*
X98173302Y-65834366D01*
X97953511Y-65893258D01*
X97953502Y-65893261D01*
X97747267Y-65989431D01*
X97747265Y-65989432D01*
X97560858Y-66119954D01*
X97399954Y-66280858D01*
X97269432Y-66467265D01*
X97269431Y-66467267D01*
X97173261Y-66673502D01*
X97173258Y-66673511D01*
X97114366Y-66893302D01*
X97114364Y-66893313D01*
X97094532Y-67119998D01*
X97094532Y-67120001D01*
X97114364Y-67346686D01*
X97114366Y-67346697D01*
X97140152Y-67442931D01*
X97138489Y-67512781D01*
X97108058Y-67562705D01*
X88248586Y-76422178D01*
X88136781Y-76533982D01*
X88136777Y-76533987D01*
X88110649Y-76579245D01*
X88110648Y-76579247D01*
X88057723Y-76670915D01*
X88016799Y-76823643D01*
X88016799Y-76823645D01*
X88016799Y-76991746D01*
X88016800Y-76991759D01*
X88016800Y-78464502D01*
X87997115Y-78531541D01*
X87980481Y-78552183D01*
X86755352Y-79777312D01*
X86694029Y-79810797D01*
X86624337Y-79805813D01*
X86579990Y-79777312D01*
X86565962Y-79763284D01*
X86413221Y-79667310D01*
X86265549Y-79615638D01*
X86242955Y-79607732D01*
X86242954Y-79607731D01*
X86242949Y-79607730D01*
X86156030Y-79597937D01*
X86091616Y-79570870D01*
X86082233Y-79562398D01*
X84403482Y-77883647D01*
X84369997Y-77822324D01*
X84374981Y-77752632D01*
X84378777Y-77743569D01*
X84386739Y-77726496D01*
X84445635Y-77506692D01*
X84465468Y-77280000D01*
X84464492Y-77268849D01*
X84459801Y-77215230D01*
X84445635Y-77053308D01*
X84386739Y-76833504D01*
X84290568Y-76627266D01*
X84160047Y-76440861D01*
X84160045Y-76440858D01*
X83999141Y-76279954D01*
X83812734Y-76149432D01*
X83812728Y-76149429D01*
X83754725Y-76122382D01*
X83702285Y-76076210D01*
X83683133Y-76009017D01*
X83703348Y-75942135D01*
X83754725Y-75897618D01*
X83812734Y-75870568D01*
X83999139Y-75740047D01*
X84160047Y-75579139D01*
X84290568Y-75392734D01*
X84386739Y-75186496D01*
X84445635Y-74966692D01*
X84465468Y-74740000D01*
X84445635Y-74513308D01*
X84386739Y-74293504D01*
X84290568Y-74087266D01*
X84160047Y-73900861D01*
X84160045Y-73900858D01*
X83999141Y-73739954D01*
X83812734Y-73609432D01*
X83812728Y-73609429D01*
X83754725Y-73582382D01*
X83702285Y-73536210D01*
X83683133Y-73469017D01*
X83703348Y-73402135D01*
X83754725Y-73357618D01*
X83812734Y-73330568D01*
X83999139Y-73200047D01*
X84160047Y-73039139D01*
X84290568Y-72852734D01*
X84386739Y-72646496D01*
X84445635Y-72426692D01*
X84465468Y-72200000D01*
X84445635Y-71973308D01*
X84386739Y-71753504D01*
X84290568Y-71547266D01*
X84160047Y-71360861D01*
X84160045Y-71360858D01*
X83999141Y-71199954D01*
X83812734Y-71069432D01*
X83812728Y-71069429D01*
X83754725Y-71042382D01*
X83702285Y-70996210D01*
X83683133Y-70929017D01*
X83703348Y-70862135D01*
X83754725Y-70817618D01*
X83812734Y-70790568D01*
X83999139Y-70660047D01*
X84160047Y-70499139D01*
X84290568Y-70312734D01*
X84386739Y-70106496D01*
X84445635Y-69886692D01*
X84465468Y-69660000D01*
X84445635Y-69433308D01*
X84393841Y-69240010D01*
X84386741Y-69213511D01*
X84386738Y-69213502D01*
X84333810Y-69099999D01*
X84290568Y-69007266D01*
X84160047Y-68820861D01*
X84160045Y-68820858D01*
X83999141Y-68659954D01*
X83812734Y-68529432D01*
X83812728Y-68529429D01*
X83754725Y-68502382D01*
X83702285Y-68456210D01*
X83683133Y-68389017D01*
X83703348Y-68322135D01*
X83754725Y-68277618D01*
X83812734Y-68250568D01*
X83999139Y-68120047D01*
X84160047Y-67959139D01*
X84290568Y-67772734D01*
X84386739Y-67566496D01*
X84445635Y-67346692D01*
X84465468Y-67120000D01*
X84445635Y-66893308D01*
X84386739Y-66673504D01*
X84290568Y-66467266D01*
X84160047Y-66280861D01*
X84160045Y-66280858D01*
X83999141Y-66119954D01*
X83812734Y-65989432D01*
X83812732Y-65989431D01*
X83606497Y-65893261D01*
X83606488Y-65893258D01*
X83386697Y-65834366D01*
X83386693Y-65834365D01*
X83386692Y-65834365D01*
X83386691Y-65834364D01*
X83386686Y-65834364D01*
X83160002Y-65814532D01*
X83159998Y-65814532D01*
X82933313Y-65834364D01*
X82933302Y-65834366D01*
X82713511Y-65893258D01*
X82713502Y-65893261D01*
X82507267Y-65989431D01*
X82507265Y-65989432D01*
X82320858Y-66119954D01*
X82159954Y-66280858D01*
X82029432Y-66467265D01*
X82029431Y-66467267D01*
X81933261Y-66673502D01*
X81933258Y-66673511D01*
X81874366Y-66893302D01*
X81874364Y-66893313D01*
X81854532Y-67119998D01*
X81854532Y-67120001D01*
X81874364Y-67346686D01*
X81874366Y-67346697D01*
X81933258Y-67566488D01*
X81933261Y-67566497D01*
X82029431Y-67772732D01*
X82029432Y-67772734D01*
X82159954Y-67959141D01*
X82320858Y-68120045D01*
X82320861Y-68120047D01*
X82507266Y-68250568D01*
X82565275Y-68277618D01*
X82617714Y-68323791D01*
X82636866Y-68390984D01*
X82616650Y-68457865D01*
X82565275Y-68502382D01*
X82507267Y-68529431D01*
X82507265Y-68529432D01*
X82320858Y-68659954D01*
X82159954Y-68820858D01*
X82029432Y-69007265D01*
X82029431Y-69007267D01*
X81933261Y-69213502D01*
X81933258Y-69213511D01*
X81874366Y-69433302D01*
X81874364Y-69433313D01*
X81854532Y-69659998D01*
X81854532Y-69660001D01*
X81874364Y-69886686D01*
X81874366Y-69886697D01*
X81933258Y-70106488D01*
X81933261Y-70106497D01*
X82029431Y-70312732D01*
X82029432Y-70312734D01*
X82159954Y-70499141D01*
X82320858Y-70660045D01*
X82320861Y-70660047D01*
X82507266Y-70790568D01*
X82565275Y-70817618D01*
X82617714Y-70863791D01*
X82636866Y-70930984D01*
X82616650Y-70997865D01*
X82565275Y-71042382D01*
X82507267Y-71069431D01*
X82507265Y-71069432D01*
X82320858Y-71199954D01*
X82159954Y-71360858D01*
X82029432Y-71547265D01*
X82029431Y-71547267D01*
X81933261Y-71753502D01*
X81933258Y-71753511D01*
X81874366Y-71973302D01*
X81874364Y-71973313D01*
X81854532Y-72199998D01*
X81854532Y-72200001D01*
X81874364Y-72426686D01*
X81874366Y-72426697D01*
X81933258Y-72646488D01*
X81933261Y-72646497D01*
X82029431Y-72852732D01*
X82029432Y-72852734D01*
X82159954Y-73039141D01*
X82320858Y-73200045D01*
X82320861Y-73200047D01*
X82507266Y-73330568D01*
X82565275Y-73357618D01*
X82617714Y-73403791D01*
X82636866Y-73470984D01*
X82616650Y-73537865D01*
X82565275Y-73582382D01*
X82507267Y-73609431D01*
X82507265Y-73609432D01*
X82320858Y-73739954D01*
X82159954Y-73900858D01*
X82029432Y-74087265D01*
X82029431Y-74087267D01*
X81933261Y-74293502D01*
X81933258Y-74293511D01*
X81874366Y-74513302D01*
X81874364Y-74513313D01*
X81854532Y-74739998D01*
X81854532Y-74740001D01*
X81874364Y-74966686D01*
X81874366Y-74966697D01*
X81933258Y-75186488D01*
X81933261Y-75186497D01*
X82029431Y-75392732D01*
X82029432Y-75392734D01*
X82159954Y-75579141D01*
X82320858Y-75740045D01*
X82320861Y-75740047D01*
X82507266Y-75870568D01*
X82565275Y-75897618D01*
X82617714Y-75943791D01*
X82636866Y-76010984D01*
X82616650Y-76077865D01*
X82565275Y-76122382D01*
X82507267Y-76149431D01*
X82507265Y-76149432D01*
X82320858Y-76279954D01*
X82159954Y-76440858D01*
X82029432Y-76627265D01*
X82029431Y-76627267D01*
X81933261Y-76833502D01*
X81933258Y-76833511D01*
X81874366Y-77053302D01*
X81874364Y-77053313D01*
X81854532Y-77279998D01*
X81854532Y-77280001D01*
X81874364Y-77506686D01*
X81874366Y-77506697D01*
X81933258Y-77726488D01*
X81933261Y-77726497D01*
X82029431Y-77932732D01*
X82029432Y-77932734D01*
X82159954Y-78119141D01*
X82320858Y-78280045D01*
X82320861Y-78280047D01*
X82507266Y-78410568D01*
X82565275Y-78437618D01*
X82617714Y-78483791D01*
X82636866Y-78550984D01*
X82616650Y-78617865D01*
X82565275Y-78662382D01*
X82507267Y-78689431D01*
X82507265Y-78689432D01*
X82320858Y-78819954D01*
X82159954Y-78980858D01*
X82029432Y-79167265D01*
X82029431Y-79167267D01*
X81933261Y-79373502D01*
X81933258Y-79373511D01*
X81874366Y-79593302D01*
X81874364Y-79593313D01*
X81854532Y-79819998D01*
X81854532Y-79820001D01*
X81874364Y-80046686D01*
X81874366Y-80046697D01*
X81933258Y-80266488D01*
X81933261Y-80266497D01*
X82029431Y-80472732D01*
X82029432Y-80472734D01*
X82159954Y-80659141D01*
X82320858Y-80820045D01*
X82320861Y-80820047D01*
X82507266Y-80950568D01*
X82550467Y-80970713D01*
X82565275Y-80977618D01*
X82617714Y-81023791D01*
X82636866Y-81090984D01*
X82616650Y-81157865D01*
X82565275Y-81202382D01*
X82507267Y-81229431D01*
X82507265Y-81229432D01*
X82320858Y-81359954D01*
X82159954Y-81520858D01*
X82029432Y-81707265D01*
X82029431Y-81707267D01*
X81933261Y-81913502D01*
X81933258Y-81913511D01*
X81874366Y-82133302D01*
X81874364Y-82133313D01*
X81854532Y-82359998D01*
X81854532Y-82360001D01*
X81874364Y-82586686D01*
X81874366Y-82586697D01*
X81900152Y-82682931D01*
X81898489Y-82752781D01*
X81868058Y-82802705D01*
X80312181Y-84358583D01*
X80250858Y-84392068D01*
X80181166Y-84387084D01*
X80125233Y-84345212D01*
X80100816Y-84279748D01*
X80100500Y-84270902D01*
X80100500Y-65524500D01*
X80120185Y-65457461D01*
X80172989Y-65411706D01*
X80224500Y-65400500D01*
X111975500Y-65400500D01*
X112042539Y-65420185D01*
G37*
%TD.AperFunction*%
%TA.AperFunction,Conductor*%
G36*
X104062803Y-172527342D02*
G01*
X104065085Y-172529370D01*
X104128438Y-172587124D01*
X104128440Y-172587125D01*
X104128441Y-172587126D01*
X104199683Y-172631237D01*
X104246319Y-172683264D01*
X104254181Y-172704570D01*
X104254499Y-172705756D01*
X104254499Y-172705757D01*
X104295423Y-172858485D01*
X104315549Y-172893344D01*
X104324358Y-172908600D01*
X104324359Y-172908604D01*
X104324360Y-172908604D01*
X104374479Y-172995414D01*
X104374481Y-172995417D01*
X104463681Y-173084617D01*
X104497166Y-173145940D01*
X104500000Y-173172298D01*
X104500000Y-173891387D01*
X104492535Y-173883922D01*
X104402464Y-173831919D01*
X104302003Y-173805000D01*
X104197997Y-173805000D01*
X104097536Y-173831919D01*
X104007465Y-173883922D01*
X104000000Y-173891387D01*
X104000000Y-173051000D01*
X103981600Y-173051000D01*
X103914561Y-173031315D01*
X103868806Y-172978511D01*
X103857600Y-172927000D01*
X103857600Y-172621055D01*
X103877285Y-172554016D01*
X103930089Y-172508261D01*
X103999247Y-172498317D01*
X104062803Y-172527342D01*
G37*
%TD.AperFunction*%
%TA.AperFunction,Conductor*%
G36*
X91082844Y-120373485D02*
G01*
X91128599Y-120426289D01*
X91139025Y-120463917D01*
X91148030Y-120543849D01*
X91148031Y-120543854D01*
X91207611Y-120714123D01*
X91220645Y-120734866D01*
X91300780Y-120862400D01*
X91303585Y-120866863D01*
X91305845Y-120869697D01*
X91306734Y-120871875D01*
X91307289Y-120872758D01*
X91307134Y-120872855D01*
X91332255Y-120934383D01*
X91332900Y-120947012D01*
X91332900Y-122369530D01*
X91332899Y-122369548D01*
X91332899Y-122535254D01*
X91332898Y-122535254D01*
X91336216Y-122547635D01*
X91373823Y-122687985D01*
X91373824Y-122687987D01*
X91373823Y-122687987D01*
X91382319Y-122702701D01*
X91382320Y-122702702D01*
X91452877Y-122824912D01*
X91452881Y-122824917D01*
X91571749Y-122943785D01*
X91571755Y-122943790D01*
X99050327Y-130422362D01*
X99083812Y-130483685D01*
X99078828Y-130553377D01*
X99050330Y-130597722D01*
X99019173Y-130628880D01*
X98892466Y-130809838D01*
X98892465Y-130809840D01*
X98799107Y-131010048D01*
X98799104Y-131010054D01*
X98741930Y-131223429D01*
X98741929Y-131223437D01*
X98722677Y-131443497D01*
X98722677Y-131443502D01*
X98741929Y-131663562D01*
X98741930Y-131663570D01*
X98799104Y-131876945D01*
X98799105Y-131876947D01*
X98799106Y-131876950D01*
X98832382Y-131948311D01*
X98892466Y-132077162D01*
X98892468Y-132077166D01*
X99019170Y-132258115D01*
X99019175Y-132258121D01*
X99175378Y-132414324D01*
X99175384Y-132414329D01*
X99356333Y-132541031D01*
X99356335Y-132541032D01*
X99356338Y-132541034D01*
X99556550Y-132634394D01*
X99769932Y-132691570D01*
X99927123Y-132705322D01*
X99989998Y-132710823D01*
X99990000Y-132710823D01*
X99990002Y-132710823D01*
X100045017Y-132706009D01*
X100210068Y-132691570D01*
X100423450Y-132634394D01*
X100623662Y-132541034D01*
X100804620Y-132414326D01*
X100960826Y-132258120D01*
X101087534Y-132077162D01*
X101147618Y-131948311D01*
X101193790Y-131895871D01*
X101260983Y-131876719D01*
X101327865Y-131896935D01*
X101372382Y-131948311D01*
X101432464Y-132077158D01*
X101432468Y-132077166D01*
X101559170Y-132258115D01*
X101559175Y-132258121D01*
X101715378Y-132414324D01*
X101715384Y-132414329D01*
X101896333Y-132541031D01*
X101896335Y-132541032D01*
X101896338Y-132541034D01*
X102096550Y-132634394D01*
X102309932Y-132691570D01*
X102467123Y-132705322D01*
X102529998Y-132710823D01*
X102530000Y-132710823D01*
X102530002Y-132710823D01*
X102585017Y-132706009D01*
X102750068Y-132691570D01*
X102963450Y-132634394D01*
X103163662Y-132541034D01*
X103344620Y-132414326D01*
X103500826Y-132258120D01*
X103627534Y-132077162D01*
X103687618Y-131948311D01*
X103733790Y-131895871D01*
X103800983Y-131876719D01*
X103867865Y-131896935D01*
X103912382Y-131948311D01*
X103972464Y-132077158D01*
X103972468Y-132077166D01*
X104099170Y-132258115D01*
X104099175Y-132258121D01*
X104255378Y-132414324D01*
X104255384Y-132414329D01*
X104436333Y-132541031D01*
X104436335Y-132541032D01*
X104436338Y-132541034D01*
X104636550Y-132634394D01*
X104849932Y-132691570D01*
X105007123Y-132705322D01*
X105069998Y-132710823D01*
X105070000Y-132710823D01*
X105070002Y-132710823D01*
X105125017Y-132706009D01*
X105290068Y-132691570D01*
X105503450Y-132634394D01*
X105703662Y-132541034D01*
X105884620Y-132414326D01*
X106040826Y-132258120D01*
X106121927Y-132142295D01*
X106176501Y-132098672D01*
X106245999Y-132091478D01*
X106308354Y-132123000D01*
X106343769Y-132183230D01*
X106347500Y-132213417D01*
X106347500Y-132253368D01*
X106347501Y-132253376D01*
X106353908Y-132312983D01*
X106404202Y-132447828D01*
X106404204Y-132447831D01*
X106446945Y-132504925D01*
X106471363Y-132570389D01*
X106456512Y-132638663D01*
X106435360Y-132666918D01*
X105951455Y-133150824D01*
X105546821Y-133555458D01*
X105546818Y-133555461D01*
X105477138Y-133625140D01*
X105407459Y-133694819D01*
X105297971Y-133858679D01*
X105297964Y-133858692D01*
X105222550Y-134040760D01*
X105222547Y-134040770D01*
X105184100Y-134234056D01*
X105184100Y-139543916D01*
X105164415Y-139610955D01*
X105147781Y-139631597D01*
X102950349Y-141829028D01*
X102889026Y-141862513D01*
X102819334Y-141857529D01*
X102796698Y-141846342D01*
X102725548Y-141801635D01*
X102648321Y-141753110D01*
X102478049Y-141693530D01*
X102391130Y-141683737D01*
X102326716Y-141656670D01*
X102317333Y-141648198D01*
X99950816Y-139281681D01*
X99917331Y-139220358D01*
X99922315Y-139150666D01*
X99964187Y-139094733D01*
X100029651Y-139070316D01*
X100038497Y-139070000D01*
X100162642Y-139070000D01*
X100162648Y-139069999D01*
X100424968Y-139030459D01*
X100424974Y-139030458D01*
X100678470Y-138952264D01*
X100917479Y-138837164D01*
X101093560Y-138717112D01*
X100159409Y-137782962D01*
X100222993Y-137765925D01*
X100337007Y-137700099D01*
X100430099Y-137607007D01*
X100495925Y-137492993D01*
X100512962Y-137429409D01*
X101446355Y-138362803D01*
X101446356Y-138362802D01*
X101496545Y-138299869D01*
X101629185Y-138070128D01*
X101726103Y-137823185D01*
X101726109Y-137823166D01*
X101783672Y-137570968D01*
X101817781Y-137509989D01*
X101879442Y-137477131D01*
X101949079Y-137482826D01*
X101992244Y-137510879D01*
X102220298Y-137738933D01*
X102253783Y-137800256D01*
X102255837Y-137812730D01*
X102265630Y-137899649D01*
X102325210Y-138069921D01*
X102421184Y-138222662D01*
X102548738Y-138350216D01*
X102621939Y-138396211D01*
X102671898Y-138427603D01*
X102701478Y-138446189D01*
X102765808Y-138468699D01*
X102871745Y-138505768D01*
X102871750Y-138505769D01*
X103050996Y-138525965D01*
X103051000Y-138525965D01*
X103051004Y-138525965D01*
X103230249Y-138505769D01*
X103230252Y-138505768D01*
X103230255Y-138505768D01*
X103400522Y-138446189D01*
X103553262Y-138350216D01*
X103680816Y-138222662D01*
X103776789Y-138069922D01*
X103836368Y-137899655D01*
X103836369Y-137899649D01*
X103856565Y-137720403D01*
X103856565Y-137720396D01*
X103836369Y-137541150D01*
X103836368Y-137541145D01*
X103815961Y-137482826D01*
X103776789Y-137370878D01*
X103680816Y-137218138D01*
X103553262Y-137090584D01*
X103465531Y-137035459D01*
X103400521Y-136994610D01*
X103230249Y-136935030D01*
X103143330Y-136925237D01*
X103078916Y-136898170D01*
X103069533Y-136889698D01*
X96919990Y-130740155D01*
X96919988Y-130740152D01*
X96801117Y-130621281D01*
X96801116Y-130621280D01*
X96714304Y-130571160D01*
X96714304Y-130571159D01*
X96714300Y-130571158D01*
X96664185Y-130542223D01*
X96511457Y-130501299D01*
X96353343Y-130501299D01*
X96345747Y-130501299D01*
X96345731Y-130501300D01*
X90142257Y-130501300D01*
X89984143Y-130501300D01*
X89831415Y-130542223D01*
X89831414Y-130542223D01*
X89831412Y-130542224D01*
X89831409Y-130542225D01*
X89781296Y-130571159D01*
X89781295Y-130571160D01*
X89755030Y-130586324D01*
X89694485Y-130621279D01*
X89694482Y-130621281D01*
X89582678Y-130733086D01*
X89396679Y-130919084D01*
X89335356Y-130952569D01*
X89276906Y-130951178D01*
X89205076Y-130931932D01*
X89205073Y-130931931D01*
X89205068Y-130931930D01*
X89205065Y-130931929D01*
X89205062Y-130931929D01*
X88985002Y-130912677D01*
X88984998Y-130912677D01*
X88764937Y-130931929D01*
X88764929Y-130931930D01*
X88551554Y-130989104D01*
X88551548Y-130989107D01*
X88351340Y-131082465D01*
X88351338Y-131082466D01*
X88170377Y-131209175D01*
X88014175Y-131365377D01*
X87887466Y-131546338D01*
X87887465Y-131546340D01*
X87827382Y-131675189D01*
X87781209Y-131727628D01*
X87714016Y-131746780D01*
X87647135Y-131726564D01*
X87602618Y-131675189D01*
X87542534Y-131546340D01*
X87542533Y-131546338D01*
X87415824Y-131365377D01*
X87381819Y-131331372D01*
X87348334Y-131270049D01*
X87345500Y-131243691D01*
X87345500Y-120477800D01*
X87365185Y-120410761D01*
X87417989Y-120365006D01*
X87469500Y-120353800D01*
X91015805Y-120353800D01*
X91082844Y-120373485D01*
G37*
%TD.AperFunction*%
%TA.AperFunction,Conductor*%
G36*
X96199342Y-131721985D02*
G01*
X96219984Y-131738619D01*
X99822745Y-135341380D01*
X99856230Y-135402703D01*
X99851246Y-135472395D01*
X99809374Y-135528328D01*
X99753546Y-135551676D01*
X99635031Y-135569540D01*
X99635025Y-135569541D01*
X99381529Y-135647735D01*
X99142526Y-135762832D01*
X99142518Y-135762837D01*
X98966438Y-135882886D01*
X99900590Y-136817037D01*
X99837007Y-136834075D01*
X99722993Y-136899901D01*
X99629901Y-136992993D01*
X99564075Y-137107007D01*
X99547037Y-137170590D01*
X98613643Y-136237196D01*
X98563456Y-136300128D01*
X98430814Y-136529871D01*
X98333896Y-136776814D01*
X98333890Y-136776833D01*
X98274861Y-137035459D01*
X98274860Y-137035463D01*
X98255304Y-137296421D01*
X98230665Y-137361802D01*
X98174589Y-137403483D01*
X98104881Y-137408230D01*
X98043970Y-137374835D01*
X92818789Y-132149654D01*
X92785304Y-132088331D01*
X92782943Y-132072788D01*
X92773070Y-131959932D01*
X92755905Y-131895871D01*
X92745863Y-131858393D01*
X92747526Y-131788543D01*
X92786689Y-131730681D01*
X92850917Y-131703177D01*
X92865638Y-131702300D01*
X96132303Y-131702300D01*
X96199342Y-131721985D01*
G37*
%TD.AperFunction*%
%TA.AperFunction,Conductor*%
G36*
X99893922Y-87245360D02*
G01*
X99908878Y-87258113D01*
X101231885Y-88581120D01*
X101265370Y-88642443D01*
X101260386Y-88712135D01*
X101218514Y-88768068D01*
X101209482Y-88774228D01*
X101073738Y-88858278D01*
X100909391Y-89008099D01*
X100775368Y-89185574D01*
X100676239Y-89384650D01*
X100623505Y-89570000D01*
X101555025Y-89570000D01*
X101519930Y-89605095D01*
X101473852Y-89684905D01*
X101450000Y-89773922D01*
X101450000Y-89866078D01*
X101473852Y-89955095D01*
X101519930Y-90034905D01*
X101585095Y-90100070D01*
X101664905Y-90146148D01*
X101753922Y-90170000D01*
X101846078Y-90170000D01*
X101935095Y-90146148D01*
X102014905Y-90100070D01*
X102050000Y-90064975D01*
X102050000Y-90994052D01*
X102129804Y-90979135D01*
X102337177Y-90898798D01*
X102337179Y-90898797D01*
X102526261Y-90781721D01*
X102690608Y-90631900D01*
X102824631Y-90454426D01*
X102841073Y-90421404D01*
X102888575Y-90370165D01*
X102956237Y-90352742D01*
X103022578Y-90374665D01*
X103039756Y-90388991D01*
X108438981Y-95788216D01*
X108472466Y-95849539D01*
X108475300Y-95875897D01*
X108475300Y-100929838D01*
X108455615Y-100996877D01*
X108402811Y-101042632D01*
X108333653Y-101052576D01*
X108270097Y-101023551D01*
X108263619Y-101017519D01*
X103426039Y-96179938D01*
X103426038Y-96179937D01*
X103399881Y-96162460D01*
X103322117Y-96110500D01*
X103322115Y-96110499D01*
X103322115Y-96110498D01*
X103278544Y-96081385D01*
X103278542Y-96081384D01*
X103196607Y-96047446D01*
X103196606Y-96047446D01*
X103114666Y-96013505D01*
X103114658Y-96013503D01*
X102940696Y-95978900D01*
X102940692Y-95978900D01*
X102940691Y-95978900D01*
X99824500Y-95978900D01*
X99757461Y-95959215D01*
X99711706Y-95906411D01*
X99700500Y-95854900D01*
X99700499Y-94212129D01*
X99700498Y-94212123D01*
X99694091Y-94152516D01*
X99643797Y-94017671D01*
X99643793Y-94017664D01*
X99557547Y-93902455D01*
X99557544Y-93902452D01*
X99442335Y-93816206D01*
X99442328Y-93816202D01*
X99307482Y-93765908D01*
X99307483Y-93765908D01*
X99272404Y-93762137D01*
X99207853Y-93735399D01*
X99168005Y-93678006D01*
X99165512Y-93608181D01*
X99201165Y-93548092D01*
X99214539Y-93537272D01*
X99239140Y-93520046D01*
X99400045Y-93359141D01*
X99400047Y-93359139D01*
X99530568Y-93172734D01*
X99626739Y-92966496D01*
X99685635Y-92746692D01*
X99705468Y-92520000D01*
X99685635Y-92293308D01*
X99626739Y-92073504D01*
X99530568Y-91867266D01*
X99400047Y-91680861D01*
X99400045Y-91680858D01*
X99239141Y-91519954D01*
X99070349Y-91401766D01*
X99052734Y-91389432D01*
X98994132Y-91362105D01*
X98941694Y-91315933D01*
X98922543Y-91248739D01*
X98942759Y-91181858D01*
X98994135Y-91137341D01*
X99052482Y-91110133D01*
X99125471Y-91059024D01*
X98570234Y-90503787D01*
X98612292Y-90492518D01*
X98737708Y-90420110D01*
X98840110Y-90317708D01*
X98912518Y-90192292D01*
X98923787Y-90150234D01*
X99479024Y-90705471D01*
X99530136Y-90632478D01*
X99626264Y-90426331D01*
X99626269Y-90426317D01*
X99685139Y-90206610D01*
X99685141Y-90206599D01*
X99697092Y-90070000D01*
X100623505Y-90070000D01*
X100676239Y-90255349D01*
X100775368Y-90454425D01*
X100909391Y-90631900D01*
X101073738Y-90781721D01*
X101262820Y-90898797D01*
X101262822Y-90898798D01*
X101470195Y-90979135D01*
X101550000Y-90994052D01*
X101550000Y-90070000D01*
X100623505Y-90070000D01*
X99697092Y-90070000D01*
X99704966Y-89980002D01*
X99704966Y-89979997D01*
X99685141Y-89753400D01*
X99685139Y-89753389D01*
X99626269Y-89533682D01*
X99626264Y-89533668D01*
X99530136Y-89327521D01*
X99530132Y-89327513D01*
X99479025Y-89254526D01*
X98923787Y-89809764D01*
X98912518Y-89767708D01*
X98840110Y-89642292D01*
X98737708Y-89539890D01*
X98612292Y-89467482D01*
X98570233Y-89456212D01*
X99125472Y-88900974D01*
X99052478Y-88849863D01*
X98993544Y-88822382D01*
X98941104Y-88776210D01*
X98921952Y-88709017D01*
X98942167Y-88642136D01*
X98993544Y-88597618D01*
X99052478Y-88570136D01*
X99125471Y-88519024D01*
X98570234Y-87963787D01*
X98612292Y-87952518D01*
X98737708Y-87880110D01*
X98840110Y-87777708D01*
X98912518Y-87652292D01*
X98923787Y-87610234D01*
X99479024Y-88165471D01*
X99530136Y-88092478D01*
X99626264Y-87886331D01*
X99626269Y-87886317D01*
X99685139Y-87666610D01*
X99685141Y-87666599D01*
X99704966Y-87440002D01*
X99704966Y-87439999D01*
X99697669Y-87356602D01*
X99711435Y-87288102D01*
X99760050Y-87237919D01*
X99828079Y-87221985D01*
X99893922Y-87245360D01*
G37*
%TD.AperFunction*%
%TA.AperFunction,Conductor*%
G36*
X87177677Y-88235185D02*
G01*
X87198319Y-88251819D01*
X87421355Y-88474855D01*
X87454840Y-88536178D01*
X87457202Y-88551728D01*
X87471929Y-88720063D01*
X87471930Y-88720070D01*
X87529104Y-88933445D01*
X87529105Y-88933447D01*
X87529106Y-88933450D01*
X87622464Y-89133658D01*
X87622466Y-89133662D01*
X87622468Y-89133666D01*
X87749170Y-89314615D01*
X87749175Y-89314621D01*
X87783181Y-89348627D01*
X87816666Y-89409950D01*
X87819500Y-89436308D01*
X87819500Y-96705637D01*
X87799815Y-96772676D01*
X87783181Y-96793318D01*
X83970338Y-100606160D01*
X83909015Y-100639645D01*
X83839323Y-100634661D01*
X83783390Y-100592789D01*
X83762882Y-100550572D01*
X83744598Y-100482336D01*
X83716740Y-100378366D01*
X83710896Y-100356557D01*
X83710895Y-100356554D01*
X83710894Y-100356550D01*
X83617534Y-100156339D01*
X83490826Y-99975380D01*
X83334620Y-99819174D01*
X83218796Y-99738073D01*
X83175173Y-99683497D01*
X83167980Y-99613998D01*
X83199502Y-99551644D01*
X83259732Y-99516230D01*
X83289921Y-99512499D01*
X83329871Y-99512499D01*
X83329872Y-99512499D01*
X83389483Y-99506091D01*
X83524331Y-99455796D01*
X83639546Y-99369546D01*
X83725796Y-99254331D01*
X83776091Y-99119483D01*
X83782500Y-99059873D01*
X83782499Y-97440128D01*
X83776091Y-97380517D01*
X83725796Y-97245669D01*
X83725795Y-97245668D01*
X83725793Y-97245664D01*
X83639547Y-97130455D01*
X83639544Y-97130452D01*
X83524335Y-97044206D01*
X83524328Y-97044202D01*
X83389482Y-96993908D01*
X83389483Y-96993908D01*
X83329883Y-96987501D01*
X83329881Y-96987500D01*
X83329873Y-96987500D01*
X83329865Y-96987500D01*
X82180800Y-96987500D01*
X82113761Y-96967815D01*
X82068006Y-96915011D01*
X82056800Y-96863500D01*
X82056800Y-96095349D01*
X82076485Y-96028310D01*
X82129289Y-95982555D01*
X82198447Y-95972611D01*
X82262003Y-96001636D01*
X82268481Y-96007668D01*
X82320858Y-96060045D01*
X82320861Y-96060047D01*
X82507266Y-96190568D01*
X82713504Y-96286739D01*
X82933308Y-96345635D01*
X83095230Y-96359801D01*
X83159998Y-96365468D01*
X83160000Y-96365468D01*
X83160002Y-96365468D01*
X83216673Y-96360509D01*
X83386692Y-96345635D01*
X83606496Y-96286739D01*
X83812734Y-96190568D01*
X83999139Y-96060047D01*
X84160047Y-95899139D01*
X84290568Y-95712734D01*
X84386739Y-95506496D01*
X84445635Y-95286692D01*
X84465468Y-95060000D01*
X84445635Y-94833308D01*
X84386739Y-94613504D01*
X84290568Y-94407266D01*
X84160047Y-94220861D01*
X84160045Y-94220858D01*
X83999141Y-94059954D01*
X83812735Y-93929433D01*
X83812736Y-93929433D01*
X83812734Y-93929432D01*
X83754132Y-93902105D01*
X83701694Y-93855933D01*
X83682543Y-93788739D01*
X83702759Y-93721858D01*
X83754135Y-93677341D01*
X83812482Y-93650133D01*
X83885471Y-93599024D01*
X83330234Y-93043787D01*
X83372292Y-93032518D01*
X83497708Y-92960110D01*
X83600110Y-92857708D01*
X83672518Y-92732292D01*
X83683787Y-92690234D01*
X84239024Y-93245471D01*
X84290136Y-93172478D01*
X84386264Y-92966331D01*
X84386269Y-92966317D01*
X84445139Y-92746610D01*
X84445141Y-92746599D01*
X84464966Y-92520002D01*
X84464966Y-92519997D01*
X84445141Y-92293400D01*
X84445139Y-92293389D01*
X84386269Y-92073682D01*
X84386264Y-92073668D01*
X84290136Y-91867521D01*
X84290132Y-91867513D01*
X84239025Y-91794526D01*
X83683787Y-92349764D01*
X83672518Y-92307708D01*
X83600110Y-92182292D01*
X83497708Y-92079890D01*
X83372292Y-92007482D01*
X83330234Y-91996212D01*
X83885472Y-91440974D01*
X83812480Y-91389864D01*
X83754134Y-91362657D01*
X83701695Y-91316484D01*
X83682543Y-91249291D01*
X83702759Y-91182410D01*
X83754134Y-91137893D01*
X83812734Y-91110568D01*
X83999139Y-90980047D01*
X84160047Y-90819139D01*
X84290568Y-90632734D01*
X84386739Y-90426496D01*
X84445635Y-90206692D01*
X84465468Y-89980000D01*
X84464385Y-89967626D01*
X84452875Y-89836061D01*
X84445635Y-89753308D01*
X84386739Y-89533504D01*
X84290568Y-89327266D01*
X84160047Y-89140861D01*
X84160045Y-89140858D01*
X83999141Y-88979954D01*
X83812734Y-88849432D01*
X83812728Y-88849429D01*
X83754725Y-88822382D01*
X83702285Y-88776210D01*
X83683133Y-88709017D01*
X83703348Y-88642135D01*
X83754725Y-88597618D01*
X83812734Y-88570568D01*
X83999139Y-88440047D01*
X84160047Y-88279139D01*
X84167583Y-88268377D01*
X84222160Y-88224752D01*
X84269158Y-88215500D01*
X86261309Y-88215500D01*
X86438691Y-88215500D01*
X87110638Y-88215500D01*
X87177677Y-88235185D01*
G37*
%TD.AperFunction*%
%TA.AperFunction,Conductor*%
G36*
X82647482Y-92732292D02*
G01*
X82719890Y-92857708D01*
X82822292Y-92960110D01*
X82947708Y-93032518D01*
X82989765Y-93043787D01*
X82434526Y-93599025D01*
X82507513Y-93650132D01*
X82507521Y-93650136D01*
X82565864Y-93677342D01*
X82618304Y-93723514D01*
X82637456Y-93790707D01*
X82617241Y-93857589D01*
X82565866Y-93902105D01*
X82507272Y-93929428D01*
X82507265Y-93929432D01*
X82320858Y-94059954D01*
X82268481Y-94112332D01*
X82207158Y-94145817D01*
X82137466Y-94140833D01*
X82081533Y-94098961D01*
X82057116Y-94033497D01*
X82056800Y-94024651D01*
X82056800Y-93321009D01*
X82076485Y-93253970D01*
X82093119Y-93233328D01*
X82636212Y-92690234D01*
X82647482Y-92732292D01*
G37*
%TD.AperFunction*%
%TA.AperFunction,Conductor*%
G36*
X82262003Y-90921636D02*
G01*
X82268481Y-90927668D01*
X82320858Y-90980045D01*
X82320861Y-90980047D01*
X82507266Y-91110568D01*
X82565865Y-91137893D01*
X82618305Y-91184065D01*
X82637457Y-91251258D01*
X82617242Y-91318139D01*
X82565867Y-91362657D01*
X82507513Y-91389868D01*
X82507512Y-91389868D01*
X82434526Y-91440973D01*
X82434526Y-91440974D01*
X82989765Y-91996212D01*
X82947708Y-92007482D01*
X82822292Y-92079890D01*
X82719890Y-92182292D01*
X82647482Y-92307708D01*
X82636212Y-92349764D01*
X82093119Y-91806671D01*
X82059634Y-91745348D01*
X82056800Y-91718990D01*
X82056800Y-91015349D01*
X82076485Y-90948310D01*
X82129289Y-90902555D01*
X82198447Y-90892611D01*
X82262003Y-90921636D01*
G37*
%TD.AperFunction*%
%TA.AperFunction,Conductor*%
G36*
X97074772Y-89629815D02*
G01*
X97113011Y-89688291D01*
X97113964Y-89747737D01*
X97115800Y-89748061D01*
X97114858Y-89753400D01*
X97095034Y-89979997D01*
X97095034Y-89980002D01*
X97114858Y-90206599D01*
X97114860Y-90206610D01*
X97173730Y-90426317D01*
X97173735Y-90426331D01*
X97269863Y-90632478D01*
X97320974Y-90705472D01*
X97876212Y-90150233D01*
X97887482Y-90192292D01*
X97959890Y-90317708D01*
X98062292Y-90420110D01*
X98187708Y-90492518D01*
X98229765Y-90503787D01*
X97674526Y-91059025D01*
X97747513Y-91110132D01*
X97747521Y-91110136D01*
X97805864Y-91137342D01*
X97858304Y-91183514D01*
X97877456Y-91250707D01*
X97857241Y-91317589D01*
X97805866Y-91362105D01*
X97747266Y-91389431D01*
X97747264Y-91389432D01*
X97709805Y-91415661D01*
X97643598Y-91437988D01*
X97575831Y-91420976D01*
X97551002Y-91401766D01*
X96854707Y-90705471D01*
X96116310Y-89967075D01*
X96082826Y-89905753D01*
X96087810Y-89836061D01*
X96129682Y-89780128D01*
X96195146Y-89755711D01*
X96214800Y-89755867D01*
X96339999Y-89766821D01*
X96340001Y-89766821D01*
X96559976Y-89747575D01*
X96559986Y-89747573D01*
X96773270Y-89690424D01*
X96773279Y-89690420D01*
X96941910Y-89611787D01*
X97010988Y-89601295D01*
X97074772Y-89629815D01*
G37*
%TD.AperFunction*%
%TA.AperFunction,Conductor*%
G36*
X97021586Y-69450161D02*
G01*
X97077519Y-69492033D01*
X97101936Y-69557497D01*
X97101780Y-69577150D01*
X97094532Y-69659997D01*
X97094532Y-69660001D01*
X97114364Y-69886686D01*
X97114366Y-69886697D01*
X97173258Y-70106488D01*
X97173261Y-70106497D01*
X97269431Y-70312732D01*
X97269432Y-70312734D01*
X97399954Y-70499141D01*
X97560858Y-70660045D01*
X97560861Y-70660047D01*
X97747266Y-70790568D01*
X97805275Y-70817618D01*
X97857714Y-70863791D01*
X97876866Y-70930984D01*
X97856650Y-70997865D01*
X97805275Y-71042382D01*
X97747267Y-71069431D01*
X97747265Y-71069432D01*
X97560858Y-71199954D01*
X97399954Y-71360858D01*
X97269432Y-71547265D01*
X97269431Y-71547267D01*
X97173261Y-71753502D01*
X97173258Y-71753511D01*
X97114366Y-71973302D01*
X97114364Y-71973313D01*
X97094532Y-72199998D01*
X97094532Y-72200001D01*
X97114364Y-72426686D01*
X97114366Y-72426697D01*
X97173258Y-72646488D01*
X97173261Y-72646497D01*
X97269431Y-72852732D01*
X97269432Y-72852734D01*
X97399954Y-73039141D01*
X97560858Y-73200045D01*
X97560861Y-73200047D01*
X97747266Y-73330568D01*
X97805275Y-73357618D01*
X97857714Y-73403791D01*
X97876866Y-73470984D01*
X97856650Y-73537865D01*
X97805275Y-73582382D01*
X97747267Y-73609431D01*
X97747265Y-73609432D01*
X97560858Y-73739954D01*
X97399954Y-73900858D01*
X97269432Y-74087265D01*
X97269431Y-74087267D01*
X97173261Y-74293502D01*
X97173258Y-74293511D01*
X97114366Y-74513302D01*
X97114364Y-74513313D01*
X97094532Y-74739998D01*
X97094532Y-74740001D01*
X97114364Y-74966686D01*
X97114366Y-74966697D01*
X97173258Y-75186488D01*
X97173261Y-75186497D01*
X97269431Y-75392732D01*
X97269432Y-75392734D01*
X97399954Y-75579141D01*
X97560858Y-75740045D01*
X97560861Y-75740047D01*
X97747266Y-75870568D01*
X97805275Y-75897618D01*
X97857714Y-75943791D01*
X97876866Y-76010984D01*
X97856650Y-76077865D01*
X97805275Y-76122382D01*
X97747267Y-76149431D01*
X97747265Y-76149432D01*
X97560858Y-76279954D01*
X97399954Y-76440858D01*
X97269432Y-76627265D01*
X97269431Y-76627267D01*
X97173261Y-76833502D01*
X97173258Y-76833511D01*
X97114366Y-77053302D01*
X97114364Y-77053313D01*
X97094532Y-77279998D01*
X97094532Y-77280001D01*
X97114364Y-77506686D01*
X97114365Y-77506694D01*
X97114366Y-77506697D01*
X97136866Y-77590668D01*
X97140152Y-77602929D01*
X97138489Y-77672779D01*
X97108058Y-77722704D01*
X91391754Y-83439010D01*
X91330431Y-83472495D01*
X91324388Y-83473429D01*
X91324392Y-83473447D01*
X91318759Y-83474500D01*
X91318757Y-83474500D01*
X91100060Y-83515382D01*
X90996894Y-83555349D01*
X90892601Y-83595752D01*
X90892595Y-83595754D01*
X90703439Y-83712874D01*
X90703437Y-83712876D01*
X90539020Y-83862761D01*
X90404943Y-84040308D01*
X90404938Y-84040316D01*
X90305775Y-84239461D01*
X90305769Y-84239476D01*
X90244885Y-84453462D01*
X90244884Y-84453464D01*
X90224357Y-84674999D01*
X90224357Y-84675000D01*
X90244884Y-84896535D01*
X90244885Y-84896537D01*
X90305769Y-85110523D01*
X90305775Y-85110538D01*
X90404938Y-85309683D01*
X90404943Y-85309691D01*
X90539020Y-85487238D01*
X90703437Y-85637123D01*
X90703439Y-85637125D01*
X90892595Y-85754245D01*
X90892596Y-85754245D01*
X90892599Y-85754247D01*
X91100060Y-85834618D01*
X91318757Y-85875500D01*
X91318759Y-85875500D01*
X91541241Y-85875500D01*
X91541243Y-85875500D01*
X91759940Y-85834618D01*
X91967401Y-85754247D01*
X92156562Y-85637124D01*
X92320981Y-85487236D01*
X92455058Y-85309689D01*
X92554229Y-85110528D01*
X92615115Y-84896536D01*
X92635643Y-84675000D01*
X92615115Y-84453464D01*
X92554229Y-84239472D01*
X92506082Y-84142782D01*
X92493822Y-84073999D01*
X92520695Y-84009504D01*
X92529392Y-83999841D01*
X93159233Y-83370000D01*
X93923505Y-83370000D01*
X93976239Y-83555349D01*
X94075368Y-83754425D01*
X94209391Y-83931900D01*
X94373738Y-84081721D01*
X94562820Y-84198797D01*
X94562822Y-84198798D01*
X94770195Y-84279135D01*
X94850000Y-84294052D01*
X95350000Y-84294052D01*
X95429804Y-84279135D01*
X95637177Y-84198798D01*
X95637179Y-84198797D01*
X95826261Y-84081721D01*
X95990608Y-83931900D01*
X96124631Y-83754425D01*
X96223760Y-83555349D01*
X96276495Y-83370000D01*
X95350000Y-83370000D01*
X95350000Y-84294052D01*
X94850000Y-84294052D01*
X94850000Y-83370000D01*
X93923505Y-83370000D01*
X93159233Y-83370000D01*
X93455311Y-83073922D01*
X94750000Y-83073922D01*
X94750000Y-83166078D01*
X94773852Y-83255095D01*
X94819930Y-83334905D01*
X94885095Y-83400070D01*
X94964905Y-83446148D01*
X95053922Y-83470000D01*
X95146078Y-83470000D01*
X95235095Y-83446148D01*
X95314905Y-83400070D01*
X95380070Y-83334905D01*
X95426148Y-83255095D01*
X95450000Y-83166078D01*
X95450000Y-83073922D01*
X95426148Y-82984905D01*
X95380070Y-82905095D01*
X95344975Y-82870000D01*
X95350000Y-82870000D01*
X96276495Y-82870000D01*
X96223760Y-82684650D01*
X96124631Y-82485574D01*
X95990608Y-82308099D01*
X95826261Y-82158278D01*
X95637179Y-82041202D01*
X95637177Y-82041201D01*
X95429799Y-81960864D01*
X95350000Y-81945946D01*
X95350000Y-82870000D01*
X95344975Y-82870000D01*
X95314905Y-82839930D01*
X95235095Y-82793852D01*
X95146078Y-82770000D01*
X95053922Y-82770000D01*
X94964905Y-82793852D01*
X94885095Y-82839930D01*
X94819930Y-82905095D01*
X94773852Y-82984905D01*
X94750000Y-83073922D01*
X93455311Y-83073922D01*
X93709041Y-82820192D01*
X93770362Y-82786709D01*
X93840054Y-82791693D01*
X93895674Y-82833148D01*
X93923504Y-82870000D01*
X94850000Y-82870000D01*
X94850000Y-81945945D01*
X94808932Y-81911843D01*
X94769932Y-81853871D01*
X94768465Y-81784017D01*
X94800465Y-81728768D01*
X96890573Y-79638661D01*
X96951894Y-79605178D01*
X97021586Y-79610162D01*
X97077519Y-79652034D01*
X97101936Y-79717498D01*
X97101780Y-79737151D01*
X97094532Y-79819997D01*
X97094532Y-79820001D01*
X97114364Y-80046686D01*
X97114366Y-80046697D01*
X97173258Y-80266488D01*
X97173261Y-80266497D01*
X97269431Y-80472732D01*
X97269432Y-80472734D01*
X97399954Y-80659141D01*
X97560858Y-80820045D01*
X97560861Y-80820047D01*
X97747266Y-80950568D01*
X97790467Y-80970713D01*
X97805275Y-80977618D01*
X97857714Y-81023791D01*
X97876866Y-81090984D01*
X97856650Y-81157865D01*
X97805275Y-81202382D01*
X97747267Y-81229431D01*
X97747265Y-81229432D01*
X97560858Y-81359954D01*
X97399954Y-81520858D01*
X97269432Y-81707265D01*
X97269431Y-81707267D01*
X97173261Y-81913502D01*
X97173258Y-81913511D01*
X97114366Y-82133302D01*
X97114364Y-82133313D01*
X97094532Y-82359998D01*
X97094532Y-82360001D01*
X97114364Y-82586686D01*
X97114366Y-82586697D01*
X97173258Y-82806488D01*
X97173261Y-82806497D01*
X97269431Y-83012732D01*
X97269432Y-83012734D01*
X97399954Y-83199141D01*
X97560858Y-83360045D01*
X97560861Y-83360047D01*
X97747266Y-83490568D01*
X97805275Y-83517618D01*
X97857714Y-83563791D01*
X97876866Y-83630984D01*
X97856650Y-83697865D01*
X97805275Y-83742382D01*
X97747267Y-83769431D01*
X97747265Y-83769432D01*
X97560858Y-83899954D01*
X97399954Y-84060858D01*
X97269432Y-84247265D01*
X97269431Y-84247267D01*
X97173261Y-84453502D01*
X97173258Y-84453511D01*
X97114366Y-84673302D01*
X97114364Y-84673313D01*
X97094532Y-84899998D01*
X97094532Y-84900001D01*
X97114364Y-85126686D01*
X97114366Y-85126697D01*
X97173258Y-85346488D01*
X97173261Y-85346497D01*
X97269431Y-85552732D01*
X97269432Y-85552734D01*
X97399954Y-85739141D01*
X97560858Y-85900045D01*
X97560861Y-85900047D01*
X97747266Y-86030568D01*
X97805865Y-86057893D01*
X97858305Y-86104065D01*
X97877457Y-86171258D01*
X97857242Y-86238139D01*
X97805867Y-86282657D01*
X97747513Y-86309868D01*
X97747512Y-86309868D01*
X97674526Y-86360973D01*
X97674526Y-86360974D01*
X98229765Y-86916212D01*
X98187708Y-86927482D01*
X98062292Y-86999890D01*
X97959890Y-87102292D01*
X97887482Y-87227708D01*
X97876212Y-87269765D01*
X97320974Y-86714526D01*
X97320973Y-86714526D01*
X97269868Y-86787512D01*
X97269866Y-86787516D01*
X97173734Y-86993673D01*
X97173730Y-86993682D01*
X97114860Y-87213389D01*
X97114858Y-87213399D01*
X97108819Y-87282430D01*
X97083366Y-87347499D01*
X97026775Y-87388477D01*
X96957013Y-87392355D01*
X96932887Y-87384004D01*
X96773284Y-87309580D01*
X96773270Y-87309575D01*
X96559986Y-87252426D01*
X96559976Y-87252424D01*
X96340001Y-87233179D01*
X96339999Y-87233179D01*
X96120023Y-87252424D01*
X96120013Y-87252426D01*
X95906729Y-87309575D01*
X95906720Y-87309579D01*
X95706590Y-87402901D01*
X95641811Y-87448258D01*
X96312553Y-88119000D01*
X96289840Y-88119000D01*
X96192939Y-88144964D01*
X96106060Y-88195124D01*
X96035124Y-88266060D01*
X95984964Y-88352939D01*
X95959000Y-88449840D01*
X95959000Y-88472553D01*
X95288258Y-87801811D01*
X95242901Y-87866590D01*
X95182658Y-87995781D01*
X95136485Y-88048220D01*
X95069292Y-88067372D01*
X95002411Y-88047156D01*
X94957894Y-87995781D01*
X94906850Y-87886317D01*
X94897534Y-87866339D01*
X94803841Y-87732531D01*
X94770827Y-87685381D01*
X94697373Y-87611927D01*
X94614620Y-87529174D01*
X94614616Y-87529171D01*
X94614615Y-87529170D01*
X94433666Y-87402468D01*
X94433662Y-87402466D01*
X94358872Y-87367591D01*
X94233450Y-87309106D01*
X94233447Y-87309105D01*
X94233445Y-87309104D01*
X94020070Y-87251930D01*
X94020062Y-87251929D01*
X93800002Y-87232677D01*
X93799998Y-87232677D01*
X93579937Y-87251929D01*
X93579929Y-87251930D01*
X93366554Y-87309104D01*
X93366548Y-87309107D01*
X93166340Y-87402465D01*
X93166338Y-87402466D01*
X92985377Y-87529175D01*
X92829175Y-87685377D01*
X92702466Y-87866338D01*
X92702465Y-87866340D01*
X92642382Y-87995189D01*
X92596209Y-88047628D01*
X92529016Y-88066780D01*
X92462135Y-88046564D01*
X92417618Y-87995189D01*
X92366850Y-87886317D01*
X92357534Y-87866339D01*
X92263841Y-87732531D01*
X92230827Y-87685381D01*
X92157373Y-87611927D01*
X92074620Y-87529174D01*
X92074616Y-87529171D01*
X92074615Y-87529170D01*
X91893666Y-87402468D01*
X91893662Y-87402466D01*
X91818872Y-87367591D01*
X91693450Y-87309106D01*
X91693447Y-87309105D01*
X91693445Y-87309104D01*
X91480070Y-87251930D01*
X91480062Y-87251929D01*
X91260002Y-87232677D01*
X91259998Y-87232677D01*
X91039937Y-87251929D01*
X91039929Y-87251930D01*
X90826554Y-87309104D01*
X90826548Y-87309107D01*
X90626340Y-87402465D01*
X90626338Y-87402466D01*
X90445377Y-87529175D01*
X90289175Y-87685377D01*
X90162466Y-87866338D01*
X90162465Y-87866340D01*
X90102382Y-87995189D01*
X90056209Y-88047628D01*
X89989016Y-88066780D01*
X89922135Y-88046564D01*
X89877618Y-87995189D01*
X89826850Y-87886317D01*
X89817534Y-87866339D01*
X89723841Y-87732531D01*
X89690827Y-87685381D01*
X89617373Y-87611927D01*
X89534620Y-87529174D01*
X89534616Y-87529171D01*
X89534615Y-87529170D01*
X89353666Y-87402468D01*
X89353662Y-87402466D01*
X89278872Y-87367591D01*
X89153450Y-87309106D01*
X89153447Y-87309105D01*
X89153445Y-87309104D01*
X88940070Y-87251930D01*
X88940063Y-87251929D01*
X88771728Y-87237202D01*
X88706660Y-87211749D01*
X88694855Y-87201355D01*
X88109039Y-86615538D01*
X88109038Y-86615537D01*
X88086722Y-86600627D01*
X88020378Y-86556297D01*
X88020376Y-86556296D01*
X88020376Y-86556295D01*
X87961544Y-86516985D01*
X87961542Y-86516984D01*
X87879607Y-86483046D01*
X87879606Y-86483046D01*
X87797666Y-86449105D01*
X87797658Y-86449103D01*
X87623696Y-86414500D01*
X87623692Y-86414500D01*
X87623691Y-86414500D01*
X87374500Y-86414500D01*
X87307461Y-86394815D01*
X87261706Y-86342011D01*
X87250500Y-86290500D01*
X87250500Y-85516190D01*
X87270185Y-85449151D01*
X87275538Y-85441473D01*
X87375058Y-85309689D01*
X87474229Y-85110528D01*
X87535115Y-84896536D01*
X87555643Y-84675000D01*
X87535115Y-84453464D01*
X87474229Y-84239472D01*
X87474224Y-84239461D01*
X87375061Y-84040316D01*
X87375056Y-84040308D01*
X87240979Y-83862761D01*
X87076562Y-83712876D01*
X87076560Y-83712874D01*
X86887404Y-83595754D01*
X86887398Y-83595752D01*
X86864133Y-83586739D01*
X86679940Y-83515382D01*
X86461243Y-83474500D01*
X86238757Y-83474500D01*
X86020060Y-83515382D01*
X85916894Y-83555349D01*
X85812601Y-83595752D01*
X85812595Y-83595754D01*
X85623439Y-83712874D01*
X85623437Y-83712876D01*
X85459020Y-83862761D01*
X85324943Y-84040308D01*
X85324938Y-84040316D01*
X85225775Y-84239461D01*
X85225769Y-84239476D01*
X85164885Y-84453462D01*
X85164884Y-84453464D01*
X85144357Y-84674999D01*
X85144357Y-84675000D01*
X85164884Y-84896535D01*
X85164885Y-84896537D01*
X85225769Y-85110523D01*
X85225775Y-85110538D01*
X85324938Y-85309683D01*
X85324943Y-85309691D01*
X85349875Y-85342706D01*
X85424454Y-85441464D01*
X85449146Y-85506824D01*
X85449500Y-85516190D01*
X85449500Y-86290500D01*
X85429815Y-86357539D01*
X85377011Y-86403294D01*
X85325500Y-86414500D01*
X84001884Y-86414500D01*
X83934845Y-86394815D01*
X83930761Y-86392075D01*
X83918296Y-86383347D01*
X83812734Y-86309432D01*
X83754724Y-86282381D01*
X83702285Y-86236210D01*
X83683133Y-86169017D01*
X83703348Y-86102135D01*
X83754725Y-86057618D01*
X83812734Y-86030568D01*
X83999139Y-85900047D01*
X84160047Y-85739139D01*
X84290568Y-85552734D01*
X84386739Y-85346496D01*
X84445635Y-85126692D01*
X84465468Y-84900000D01*
X84445635Y-84673308D01*
X84386739Y-84453504D01*
X84290568Y-84247266D01*
X84290567Y-84247264D01*
X84223937Y-84152106D01*
X84201610Y-84085900D01*
X84218620Y-84018133D01*
X84237827Y-83993306D01*
X88975806Y-79255328D01*
X88975811Y-79255324D01*
X88986014Y-79245120D01*
X88986016Y-79245120D01*
X89097820Y-79133316D01*
X89101184Y-79127488D01*
X89148010Y-79046385D01*
X89148010Y-79046384D01*
X89176877Y-78996385D01*
X89217801Y-78843657D01*
X89217801Y-78685542D01*
X89217801Y-78677947D01*
X89217800Y-78677929D01*
X89217800Y-77202796D01*
X89237485Y-77135757D01*
X89254114Y-77115120D01*
X90869235Y-75499999D01*
X93894357Y-75499999D01*
X93894357Y-75500000D01*
X93914884Y-75721535D01*
X93914885Y-75721537D01*
X93975769Y-75935523D01*
X93975775Y-75935538D01*
X94074938Y-76134683D01*
X94074943Y-76134691D01*
X94209020Y-76312238D01*
X94373437Y-76462123D01*
X94373439Y-76462125D01*
X94562595Y-76579245D01*
X94562596Y-76579245D01*
X94562599Y-76579247D01*
X94770060Y-76659618D01*
X94988757Y-76700500D01*
X94988759Y-76700500D01*
X95211241Y-76700500D01*
X95211243Y-76700500D01*
X95429940Y-76659618D01*
X95637401Y-76579247D01*
X95826562Y-76462124D01*
X95990981Y-76312236D01*
X96125058Y-76134689D01*
X96224229Y-75935528D01*
X96285115Y-75721536D01*
X96305643Y-75500000D01*
X96285115Y-75278464D01*
X96224229Y-75064472D01*
X96217262Y-75050480D01*
X96125061Y-74865316D01*
X96125056Y-74865308D01*
X95990979Y-74687761D01*
X95826562Y-74537876D01*
X95826560Y-74537874D01*
X95637404Y-74420754D01*
X95637398Y-74420752D01*
X95429940Y-74340382D01*
X95211243Y-74299500D01*
X94988757Y-74299500D01*
X94770060Y-74340382D01*
X94750613Y-74347916D01*
X94562601Y-74420752D01*
X94562595Y-74420754D01*
X94373439Y-74537874D01*
X94373437Y-74537876D01*
X94209020Y-74687761D01*
X94074943Y-74865308D01*
X94074938Y-74865316D01*
X93975775Y-75064461D01*
X93975769Y-75064476D01*
X93914885Y-75278462D01*
X93914884Y-75278464D01*
X93894357Y-75499999D01*
X90869235Y-75499999D01*
X96890573Y-69478660D01*
X96951894Y-69445177D01*
X97021586Y-69450161D01*
G37*
%TD.AperFunction*%
%TD*%
M02*
