%TF.GenerationSoftware,KiCad,Pcbnew,8.0.4*%
%TF.CreationDate,2024-10-23T23:59:55+06:00*%
%TF.ProjectId,PCB V0.6.3,50434220-5630-42e3-962e-332e6b696361,rev?*%
%TF.SameCoordinates,Original*%
%TF.FileFunction,Legend,Bot*%
%TF.FilePolarity,Positive*%
%FSLAX46Y46*%
G04 Gerber Fmt 4.6, Leading zero omitted, Abs format (unit mm)*
G04 Created by KiCad (PCBNEW 8.0.4) date 2024-10-23 23:59:55*
%MOMM*%
%LPD*%
G01*
G04 APERTURE LIST*
%ADD10C,0.100000*%
%ADD11C,0.150000*%
%ADD12C,0.300000*%
%ADD13C,0.127000*%
%ADD14C,0.200000*%
%ADD15C,0.254000*%
%ADD16C,0.000000*%
G04 APERTURE END LIST*
D10*
X96227693Y-86279961D02*
X96132455Y-86327580D01*
X96132455Y-86327580D02*
X95989598Y-86327580D01*
X95989598Y-86327580D02*
X95846741Y-86279961D01*
X95846741Y-86279961D02*
X95751503Y-86184723D01*
X95751503Y-86184723D02*
X95703884Y-86089485D01*
X95703884Y-86089485D02*
X95656265Y-85899009D01*
X95656265Y-85899009D02*
X95656265Y-85756152D01*
X95656265Y-85756152D02*
X95703884Y-85565676D01*
X95703884Y-85565676D02*
X95751503Y-85470438D01*
X95751503Y-85470438D02*
X95846741Y-85375200D01*
X95846741Y-85375200D02*
X95989598Y-85327580D01*
X95989598Y-85327580D02*
X96084836Y-85327580D01*
X96084836Y-85327580D02*
X96227693Y-85375200D01*
X96227693Y-85375200D02*
X96275312Y-85422819D01*
X96275312Y-85422819D02*
X96275312Y-85756152D01*
X96275312Y-85756152D02*
X96084836Y-85756152D01*
X96703884Y-85327580D02*
X96703884Y-86327580D01*
X96703884Y-86327580D02*
X97275312Y-85327580D01*
X97275312Y-85327580D02*
X97275312Y-86327580D01*
X97751503Y-85327580D02*
X97751503Y-86327580D01*
X97751503Y-86327580D02*
X97989598Y-86327580D01*
X97989598Y-86327580D02*
X98132455Y-86279961D01*
X98132455Y-86279961D02*
X98227693Y-86184723D01*
X98227693Y-86184723D02*
X98275312Y-86089485D01*
X98275312Y-86089485D02*
X98322931Y-85899009D01*
X98322931Y-85899009D02*
X98322931Y-85756152D01*
X98322931Y-85756152D02*
X98275312Y-85565676D01*
X98275312Y-85565676D02*
X98227693Y-85470438D01*
X98227693Y-85470438D02*
X98132455Y-85375200D01*
X98132455Y-85375200D02*
X97989598Y-85327580D01*
X97989598Y-85327580D02*
X97751503Y-85327580D01*
D11*
X89709524Y-82145180D02*
X89709524Y-83145180D01*
X89709524Y-83145180D02*
X90042857Y-82430895D01*
X90042857Y-82430895D02*
X90376190Y-83145180D01*
X90376190Y-83145180D02*
X90376190Y-82145180D01*
X90995238Y-82716609D02*
X90900000Y-82764228D01*
X90900000Y-82764228D02*
X90852381Y-82811847D01*
X90852381Y-82811847D02*
X90804762Y-82907085D01*
X90804762Y-82907085D02*
X90804762Y-82954704D01*
X90804762Y-82954704D02*
X90852381Y-83049942D01*
X90852381Y-83049942D02*
X90900000Y-83097561D01*
X90900000Y-83097561D02*
X90995238Y-83145180D01*
X90995238Y-83145180D02*
X91185714Y-83145180D01*
X91185714Y-83145180D02*
X91280952Y-83097561D01*
X91280952Y-83097561D02*
X91328571Y-83049942D01*
X91328571Y-83049942D02*
X91376190Y-82954704D01*
X91376190Y-82954704D02*
X91376190Y-82907085D01*
X91376190Y-82907085D02*
X91328571Y-82811847D01*
X91328571Y-82811847D02*
X91280952Y-82764228D01*
X91280952Y-82764228D02*
X91185714Y-82716609D01*
X91185714Y-82716609D02*
X90995238Y-82716609D01*
X90995238Y-82716609D02*
X90900000Y-82668990D01*
X90900000Y-82668990D02*
X90852381Y-82621371D01*
X90852381Y-82621371D02*
X90804762Y-82526133D01*
X90804762Y-82526133D02*
X90804762Y-82335657D01*
X90804762Y-82335657D02*
X90852381Y-82240419D01*
X90852381Y-82240419D02*
X90900000Y-82192800D01*
X90900000Y-82192800D02*
X90995238Y-82145180D01*
X90995238Y-82145180D02*
X91185714Y-82145180D01*
X91185714Y-82145180D02*
X91280952Y-82192800D01*
X91280952Y-82192800D02*
X91328571Y-82240419D01*
X91328571Y-82240419D02*
X91376190Y-82335657D01*
X91376190Y-82335657D02*
X91376190Y-82526133D01*
X91376190Y-82526133D02*
X91328571Y-82621371D01*
X91328571Y-82621371D02*
X91280952Y-82668990D01*
X91280952Y-82668990D02*
X91185714Y-82716609D01*
X91804762Y-82145180D02*
X91804762Y-83145180D01*
X91804762Y-83145180D02*
X92376190Y-82145180D01*
X92376190Y-82145180D02*
X92376190Y-83145180D01*
X94138095Y-83097561D02*
X94042857Y-83145180D01*
X94042857Y-83145180D02*
X93900000Y-83145180D01*
X93900000Y-83145180D02*
X93757143Y-83097561D01*
X93757143Y-83097561D02*
X93661905Y-83002323D01*
X93661905Y-83002323D02*
X93614286Y-82907085D01*
X93614286Y-82907085D02*
X93566667Y-82716609D01*
X93566667Y-82716609D02*
X93566667Y-82573752D01*
X93566667Y-82573752D02*
X93614286Y-82383276D01*
X93614286Y-82383276D02*
X93661905Y-82288038D01*
X93661905Y-82288038D02*
X93757143Y-82192800D01*
X93757143Y-82192800D02*
X93900000Y-82145180D01*
X93900000Y-82145180D02*
X93995238Y-82145180D01*
X93995238Y-82145180D02*
X94138095Y-82192800D01*
X94138095Y-82192800D02*
X94185714Y-82240419D01*
X94185714Y-82240419D02*
X94185714Y-82573752D01*
X94185714Y-82573752D02*
X93995238Y-82573752D01*
X94614286Y-82145180D02*
X94614286Y-83145180D01*
X94614286Y-83145180D02*
X94995238Y-83145180D01*
X94995238Y-83145180D02*
X95090476Y-83097561D01*
X95090476Y-83097561D02*
X95138095Y-83049942D01*
X95138095Y-83049942D02*
X95185714Y-82954704D01*
X95185714Y-82954704D02*
X95185714Y-82811847D01*
X95185714Y-82811847D02*
X95138095Y-82716609D01*
X95138095Y-82716609D02*
X95090476Y-82668990D01*
X95090476Y-82668990D02*
X94995238Y-82621371D01*
X94995238Y-82621371D02*
X94614286Y-82621371D01*
X95566667Y-82192800D02*
X95709524Y-82145180D01*
X95709524Y-82145180D02*
X95947619Y-82145180D01*
X95947619Y-82145180D02*
X96042857Y-82192800D01*
X96042857Y-82192800D02*
X96090476Y-82240419D01*
X96090476Y-82240419D02*
X96138095Y-82335657D01*
X96138095Y-82335657D02*
X96138095Y-82430895D01*
X96138095Y-82430895D02*
X96090476Y-82526133D01*
X96090476Y-82526133D02*
X96042857Y-82573752D01*
X96042857Y-82573752D02*
X95947619Y-82621371D01*
X95947619Y-82621371D02*
X95757143Y-82668990D01*
X95757143Y-82668990D02*
X95661905Y-82716609D01*
X95661905Y-82716609D02*
X95614286Y-82764228D01*
X95614286Y-82764228D02*
X95566667Y-82859466D01*
X95566667Y-82859466D02*
X95566667Y-82954704D01*
X95566667Y-82954704D02*
X95614286Y-83049942D01*
X95614286Y-83049942D02*
X95661905Y-83097561D01*
X95661905Y-83097561D02*
X95757143Y-83145180D01*
X95757143Y-83145180D02*
X95995238Y-83145180D01*
X95995238Y-83145180D02*
X96138095Y-83097561D01*
D10*
X93261027Y-86327580D02*
X93832455Y-86327580D01*
X93546741Y-85327580D02*
X93546741Y-86327580D01*
X94070551Y-86327580D02*
X94737217Y-85327580D01*
X94737217Y-86327580D02*
X94070551Y-85327580D01*
X91175312Y-85327580D02*
X90841979Y-85803771D01*
X90603884Y-85327580D02*
X90603884Y-86327580D01*
X90603884Y-86327580D02*
X90984836Y-86327580D01*
X90984836Y-86327580D02*
X91080074Y-86279961D01*
X91080074Y-86279961D02*
X91127693Y-86232342D01*
X91127693Y-86232342D02*
X91175312Y-86137104D01*
X91175312Y-86137104D02*
X91175312Y-85994247D01*
X91175312Y-85994247D02*
X91127693Y-85899009D01*
X91127693Y-85899009D02*
X91080074Y-85851390D01*
X91080074Y-85851390D02*
X90984836Y-85803771D01*
X90984836Y-85803771D02*
X90603884Y-85803771D01*
X91508646Y-86327580D02*
X92175312Y-85327580D01*
X92175312Y-86327580D02*
X91508646Y-85327580D01*
D11*
X91404761Y-125944875D02*
X91404761Y-126754398D01*
X91404761Y-126754398D02*
X91357142Y-126849636D01*
X91357142Y-126849636D02*
X91309523Y-126897256D01*
X91309523Y-126897256D02*
X91214285Y-126944875D01*
X91214285Y-126944875D02*
X91023809Y-126944875D01*
X91023809Y-126944875D02*
X90928571Y-126897256D01*
X90928571Y-126897256D02*
X90880952Y-126849636D01*
X90880952Y-126849636D02*
X90833333Y-126754398D01*
X90833333Y-126754398D02*
X90833333Y-125944875D01*
X90357142Y-126278208D02*
X90357142Y-126944875D01*
X90357142Y-126373446D02*
X90309523Y-126325827D01*
X90309523Y-126325827D02*
X90214285Y-126278208D01*
X90214285Y-126278208D02*
X90071428Y-126278208D01*
X90071428Y-126278208D02*
X89976190Y-126325827D01*
X89976190Y-126325827D02*
X89928571Y-126421065D01*
X89928571Y-126421065D02*
X89928571Y-126944875D01*
X89452380Y-126944875D02*
X89452380Y-126278208D01*
X89452380Y-125944875D02*
X89499999Y-125992494D01*
X89499999Y-125992494D02*
X89452380Y-126040113D01*
X89452380Y-126040113D02*
X89404761Y-125992494D01*
X89404761Y-125992494D02*
X89452380Y-125944875D01*
X89452380Y-125944875D02*
X89452380Y-126040113D01*
X89071428Y-126278208D02*
X88833333Y-126944875D01*
X88833333Y-126944875D02*
X88595238Y-126278208D01*
X87833333Y-126897256D02*
X87928571Y-126944875D01*
X87928571Y-126944875D02*
X88119047Y-126944875D01*
X88119047Y-126944875D02*
X88214285Y-126897256D01*
X88214285Y-126897256D02*
X88261904Y-126802017D01*
X88261904Y-126802017D02*
X88261904Y-126421065D01*
X88261904Y-126421065D02*
X88214285Y-126325827D01*
X88214285Y-126325827D02*
X88119047Y-126278208D01*
X88119047Y-126278208D02*
X87928571Y-126278208D01*
X87928571Y-126278208D02*
X87833333Y-126325827D01*
X87833333Y-126325827D02*
X87785714Y-126421065D01*
X87785714Y-126421065D02*
X87785714Y-126516303D01*
X87785714Y-126516303D02*
X88261904Y-126611541D01*
X87357142Y-126944875D02*
X87357142Y-126278208D01*
X87357142Y-126468684D02*
X87309523Y-126373446D01*
X87309523Y-126373446D02*
X87261904Y-126325827D01*
X87261904Y-126325827D02*
X87166666Y-126278208D01*
X87166666Y-126278208D02*
X87071428Y-126278208D01*
X86785713Y-126897256D02*
X86690475Y-126944875D01*
X86690475Y-126944875D02*
X86499999Y-126944875D01*
X86499999Y-126944875D02*
X86404761Y-126897256D01*
X86404761Y-126897256D02*
X86357142Y-126802017D01*
X86357142Y-126802017D02*
X86357142Y-126754398D01*
X86357142Y-126754398D02*
X86404761Y-126659160D01*
X86404761Y-126659160D02*
X86499999Y-126611541D01*
X86499999Y-126611541D02*
X86642856Y-126611541D01*
X86642856Y-126611541D02*
X86738094Y-126563922D01*
X86738094Y-126563922D02*
X86785713Y-126468684D01*
X86785713Y-126468684D02*
X86785713Y-126421065D01*
X86785713Y-126421065D02*
X86738094Y-126325827D01*
X86738094Y-126325827D02*
X86642856Y-126278208D01*
X86642856Y-126278208D02*
X86499999Y-126278208D01*
X86499999Y-126278208D02*
X86404761Y-126325827D01*
X85928570Y-126944875D02*
X85928570Y-126278208D01*
X85928570Y-125944875D02*
X85976189Y-125992494D01*
X85976189Y-125992494D02*
X85928570Y-126040113D01*
X85928570Y-126040113D02*
X85880951Y-125992494D01*
X85880951Y-125992494D02*
X85928570Y-125944875D01*
X85928570Y-125944875D02*
X85928570Y-126040113D01*
X85595237Y-126278208D02*
X85214285Y-126278208D01*
X85452380Y-125944875D02*
X85452380Y-126802017D01*
X85452380Y-126802017D02*
X85404761Y-126897256D01*
X85404761Y-126897256D02*
X85309523Y-126944875D01*
X85309523Y-126944875D02*
X85214285Y-126944875D01*
X84976189Y-126278208D02*
X84738094Y-126944875D01*
X84499999Y-126278208D02*
X84738094Y-126944875D01*
X84738094Y-126944875D02*
X84833332Y-127182970D01*
X84833332Y-127182970D02*
X84880951Y-127230589D01*
X84880951Y-127230589D02*
X84976189Y-127278208D01*
X88738095Y-128554819D02*
X88833333Y-128507200D01*
X88833333Y-128507200D02*
X88880952Y-128459580D01*
X88880952Y-128459580D02*
X88928571Y-128364342D01*
X88928571Y-128364342D02*
X88928571Y-128078628D01*
X88928571Y-128078628D02*
X88880952Y-127983390D01*
X88880952Y-127983390D02*
X88833333Y-127935771D01*
X88833333Y-127935771D02*
X88738095Y-127888152D01*
X88738095Y-127888152D02*
X88595238Y-127888152D01*
X88595238Y-127888152D02*
X88500000Y-127935771D01*
X88500000Y-127935771D02*
X88452381Y-127983390D01*
X88452381Y-127983390D02*
X88404762Y-128078628D01*
X88404762Y-128078628D02*
X88404762Y-128364342D01*
X88404762Y-128364342D02*
X88452381Y-128459580D01*
X88452381Y-128459580D02*
X88500000Y-128507200D01*
X88500000Y-128507200D02*
X88595238Y-128554819D01*
X88595238Y-128554819D02*
X88738095Y-128554819D01*
X88119047Y-127888152D02*
X87738095Y-127888152D01*
X87976190Y-128554819D02*
X87976190Y-127697676D01*
X87976190Y-127697676D02*
X87928571Y-127602438D01*
X87928571Y-127602438D02*
X87833333Y-127554819D01*
X87833333Y-127554819D02*
X87738095Y-127554819D01*
X93428571Y-130117144D02*
X93285714Y-130164763D01*
X93285714Y-130164763D02*
X93047619Y-130164763D01*
X93047619Y-130164763D02*
X92952381Y-130117144D01*
X92952381Y-130117144D02*
X92904762Y-130069524D01*
X92904762Y-130069524D02*
X92857143Y-129974286D01*
X92857143Y-129974286D02*
X92857143Y-129879048D01*
X92857143Y-129879048D02*
X92904762Y-129783810D01*
X92904762Y-129783810D02*
X92952381Y-129736191D01*
X92952381Y-129736191D02*
X93047619Y-129688572D01*
X93047619Y-129688572D02*
X93238095Y-129640953D01*
X93238095Y-129640953D02*
X93333333Y-129593334D01*
X93333333Y-129593334D02*
X93380952Y-129545715D01*
X93380952Y-129545715D02*
X93428571Y-129450477D01*
X93428571Y-129450477D02*
X93428571Y-129355239D01*
X93428571Y-129355239D02*
X93380952Y-129260001D01*
X93380952Y-129260001D02*
X93333333Y-129212382D01*
X93333333Y-129212382D02*
X93238095Y-129164763D01*
X93238095Y-129164763D02*
X93000000Y-129164763D01*
X93000000Y-129164763D02*
X92857143Y-129212382D01*
X92285714Y-130164763D02*
X92380952Y-130117144D01*
X92380952Y-130117144D02*
X92428571Y-130069524D01*
X92428571Y-130069524D02*
X92476190Y-129974286D01*
X92476190Y-129974286D02*
X92476190Y-129688572D01*
X92476190Y-129688572D02*
X92428571Y-129593334D01*
X92428571Y-129593334D02*
X92380952Y-129545715D01*
X92380952Y-129545715D02*
X92285714Y-129498096D01*
X92285714Y-129498096D02*
X92142857Y-129498096D01*
X92142857Y-129498096D02*
X92047619Y-129545715D01*
X92047619Y-129545715D02*
X92000000Y-129593334D01*
X92000000Y-129593334D02*
X91952381Y-129688572D01*
X91952381Y-129688572D02*
X91952381Y-129974286D01*
X91952381Y-129974286D02*
X92000000Y-130069524D01*
X92000000Y-130069524D02*
X92047619Y-130117144D01*
X92047619Y-130117144D02*
X92142857Y-130164763D01*
X92142857Y-130164763D02*
X92285714Y-130164763D01*
X91095238Y-129498096D02*
X91095238Y-130164763D01*
X91523809Y-129498096D02*
X91523809Y-130021905D01*
X91523809Y-130021905D02*
X91476190Y-130117144D01*
X91476190Y-130117144D02*
X91380952Y-130164763D01*
X91380952Y-130164763D02*
X91238095Y-130164763D01*
X91238095Y-130164763D02*
X91142857Y-130117144D01*
X91142857Y-130117144D02*
X91095238Y-130069524D01*
X90761904Y-129498096D02*
X90380952Y-129498096D01*
X90619047Y-129164763D02*
X90619047Y-130021905D01*
X90619047Y-130021905D02*
X90571428Y-130117144D01*
X90571428Y-130117144D02*
X90476190Y-130164763D01*
X90476190Y-130164763D02*
X90380952Y-130164763D01*
X90047618Y-130164763D02*
X90047618Y-129164763D01*
X89619047Y-130164763D02*
X89619047Y-129640953D01*
X89619047Y-129640953D02*
X89666666Y-129545715D01*
X89666666Y-129545715D02*
X89761904Y-129498096D01*
X89761904Y-129498096D02*
X89904761Y-129498096D01*
X89904761Y-129498096D02*
X89999999Y-129545715D01*
X89999999Y-129545715D02*
X90047618Y-129593334D01*
X87809523Y-130069524D02*
X87857142Y-130117144D01*
X87857142Y-130117144D02*
X87999999Y-130164763D01*
X87999999Y-130164763D02*
X88095237Y-130164763D01*
X88095237Y-130164763D02*
X88238094Y-130117144D01*
X88238094Y-130117144D02*
X88333332Y-130021905D01*
X88333332Y-130021905D02*
X88380951Y-129926667D01*
X88380951Y-129926667D02*
X88428570Y-129736191D01*
X88428570Y-129736191D02*
X88428570Y-129593334D01*
X88428570Y-129593334D02*
X88380951Y-129402858D01*
X88380951Y-129402858D02*
X88333332Y-129307620D01*
X88333332Y-129307620D02*
X88238094Y-129212382D01*
X88238094Y-129212382D02*
X88095237Y-129164763D01*
X88095237Y-129164763D02*
X87999999Y-129164763D01*
X87999999Y-129164763D02*
X87857142Y-129212382D01*
X87857142Y-129212382D02*
X87809523Y-129260001D01*
X86952380Y-130164763D02*
X86952380Y-129640953D01*
X86952380Y-129640953D02*
X86999999Y-129545715D01*
X86999999Y-129545715D02*
X87095237Y-129498096D01*
X87095237Y-129498096D02*
X87285713Y-129498096D01*
X87285713Y-129498096D02*
X87380951Y-129545715D01*
X86952380Y-130117144D02*
X87047618Y-130164763D01*
X87047618Y-130164763D02*
X87285713Y-130164763D01*
X87285713Y-130164763D02*
X87380951Y-130117144D01*
X87380951Y-130117144D02*
X87428570Y-130021905D01*
X87428570Y-130021905D02*
X87428570Y-129926667D01*
X87428570Y-129926667D02*
X87380951Y-129831429D01*
X87380951Y-129831429D02*
X87285713Y-129783810D01*
X87285713Y-129783810D02*
X87047618Y-129783810D01*
X87047618Y-129783810D02*
X86952380Y-129736191D01*
X86476189Y-130164763D02*
X86476189Y-129498096D01*
X86476189Y-129688572D02*
X86428570Y-129593334D01*
X86428570Y-129593334D02*
X86380951Y-129545715D01*
X86380951Y-129545715D02*
X86285713Y-129498096D01*
X86285713Y-129498096D02*
X86190475Y-129498096D01*
X85714284Y-130164763D02*
X85809522Y-130117144D01*
X85809522Y-130117144D02*
X85857141Y-130069524D01*
X85857141Y-130069524D02*
X85904760Y-129974286D01*
X85904760Y-129974286D02*
X85904760Y-129688572D01*
X85904760Y-129688572D02*
X85857141Y-129593334D01*
X85857141Y-129593334D02*
X85809522Y-129545715D01*
X85809522Y-129545715D02*
X85714284Y-129498096D01*
X85714284Y-129498096D02*
X85571427Y-129498096D01*
X85571427Y-129498096D02*
X85476189Y-129545715D01*
X85476189Y-129545715D02*
X85428570Y-129593334D01*
X85428570Y-129593334D02*
X85380951Y-129688572D01*
X85380951Y-129688572D02*
X85380951Y-129974286D01*
X85380951Y-129974286D02*
X85428570Y-130069524D01*
X85428570Y-130069524D02*
X85476189Y-130117144D01*
X85476189Y-130117144D02*
X85571427Y-130164763D01*
X85571427Y-130164763D02*
X85714284Y-130164763D01*
X84809522Y-130164763D02*
X84904760Y-130117144D01*
X84904760Y-130117144D02*
X84952379Y-130021905D01*
X84952379Y-130021905D02*
X84952379Y-129164763D01*
X84428569Y-130164763D02*
X84428569Y-129498096D01*
X84428569Y-129164763D02*
X84476188Y-129212382D01*
X84476188Y-129212382D02*
X84428569Y-129260001D01*
X84428569Y-129260001D02*
X84380950Y-129212382D01*
X84380950Y-129212382D02*
X84428569Y-129164763D01*
X84428569Y-129164763D02*
X84428569Y-129260001D01*
X83952379Y-129498096D02*
X83952379Y-130164763D01*
X83952379Y-129593334D02*
X83904760Y-129545715D01*
X83904760Y-129545715D02*
X83809522Y-129498096D01*
X83809522Y-129498096D02*
X83666665Y-129498096D01*
X83666665Y-129498096D02*
X83571427Y-129545715D01*
X83571427Y-129545715D02*
X83523808Y-129640953D01*
X83523808Y-129640953D02*
X83523808Y-130164763D01*
X82619046Y-130164763D02*
X82619046Y-129640953D01*
X82619046Y-129640953D02*
X82666665Y-129545715D01*
X82666665Y-129545715D02*
X82761903Y-129498096D01*
X82761903Y-129498096D02*
X82952379Y-129498096D01*
X82952379Y-129498096D02*
X83047617Y-129545715D01*
X82619046Y-130117144D02*
X82714284Y-130164763D01*
X82714284Y-130164763D02*
X82952379Y-130164763D01*
X82952379Y-130164763D02*
X83047617Y-130117144D01*
X83047617Y-130117144D02*
X83095236Y-130021905D01*
X83095236Y-130021905D02*
X83095236Y-129926667D01*
X83095236Y-129926667D02*
X83047617Y-129831429D01*
X83047617Y-129831429D02*
X82952379Y-129783810D01*
X82952379Y-129783810D02*
X82714284Y-129783810D01*
X82714284Y-129783810D02*
X82619046Y-129736191D01*
D10*
X86861027Y-86427580D02*
X87194360Y-85427580D01*
X87194360Y-85427580D02*
X87527693Y-86427580D01*
X88289598Y-85475200D02*
X88194360Y-85427580D01*
X88194360Y-85427580D02*
X88003884Y-85427580D01*
X88003884Y-85427580D02*
X87908646Y-85475200D01*
X87908646Y-85475200D02*
X87861027Y-85522819D01*
X87861027Y-85522819D02*
X87813408Y-85618057D01*
X87813408Y-85618057D02*
X87813408Y-85903771D01*
X87813408Y-85903771D02*
X87861027Y-85999009D01*
X87861027Y-85999009D02*
X87908646Y-86046628D01*
X87908646Y-86046628D02*
X88003884Y-86094247D01*
X88003884Y-86094247D02*
X88194360Y-86094247D01*
X88194360Y-86094247D02*
X88289598Y-86046628D01*
X89146741Y-85475200D02*
X89051503Y-85427580D01*
X89051503Y-85427580D02*
X88861027Y-85427580D01*
X88861027Y-85427580D02*
X88765789Y-85475200D01*
X88765789Y-85475200D02*
X88718170Y-85522819D01*
X88718170Y-85522819D02*
X88670551Y-85618057D01*
X88670551Y-85618057D02*
X88670551Y-85903771D01*
X88670551Y-85903771D02*
X88718170Y-85999009D01*
X88718170Y-85999009D02*
X88765789Y-86046628D01*
X88765789Y-86046628D02*
X88861027Y-86094247D01*
X88861027Y-86094247D02*
X89051503Y-86094247D01*
X89051503Y-86094247D02*
X89146741Y-86046628D01*
D11*
X107315833Y-183979819D02*
X107315833Y-184694104D01*
X107315833Y-184694104D02*
X107363452Y-184836961D01*
X107363452Y-184836961D02*
X107458690Y-184932200D01*
X107458690Y-184932200D02*
X107601547Y-184979819D01*
X107601547Y-184979819D02*
X107696785Y-184979819D01*
X106363452Y-183979819D02*
X106839642Y-183979819D01*
X106839642Y-183979819D02*
X106887261Y-184456009D01*
X106887261Y-184456009D02*
X106839642Y-184408390D01*
X106839642Y-184408390D02*
X106744404Y-184360771D01*
X106744404Y-184360771D02*
X106506309Y-184360771D01*
X106506309Y-184360771D02*
X106411071Y-184408390D01*
X106411071Y-184408390D02*
X106363452Y-184456009D01*
X106363452Y-184456009D02*
X106315833Y-184551247D01*
X106315833Y-184551247D02*
X106315833Y-184789342D01*
X106315833Y-184789342D02*
X106363452Y-184884580D01*
X106363452Y-184884580D02*
X106411071Y-184932200D01*
X106411071Y-184932200D02*
X106506309Y-184979819D01*
X106506309Y-184979819D02*
X106744404Y-184979819D01*
X106744404Y-184979819D02*
X106839642Y-184932200D01*
X106839642Y-184932200D02*
X106887261Y-184884580D01*
D10*
X93261027Y-86327580D02*
X93832455Y-86327580D01*
X93546741Y-85327580D02*
X93546741Y-86327580D01*
X94070551Y-86327580D02*
X94737217Y-85327580D01*
X94737217Y-86327580D02*
X94070551Y-85327580D01*
X91175312Y-85327580D02*
X90841979Y-85803771D01*
X90603884Y-85327580D02*
X90603884Y-86327580D01*
X90603884Y-86327580D02*
X90984836Y-86327580D01*
X90984836Y-86327580D02*
X91080074Y-86279961D01*
X91080074Y-86279961D02*
X91127693Y-86232342D01*
X91127693Y-86232342D02*
X91175312Y-86137104D01*
X91175312Y-86137104D02*
X91175312Y-85994247D01*
X91175312Y-85994247D02*
X91127693Y-85899009D01*
X91127693Y-85899009D02*
X91080074Y-85851390D01*
X91080074Y-85851390D02*
X90984836Y-85803771D01*
X90984836Y-85803771D02*
X90603884Y-85803771D01*
X91508646Y-86327580D02*
X92175312Y-85327580D01*
X92175312Y-86327580D02*
X91508646Y-85327580D01*
X96227693Y-86279961D02*
X96132455Y-86327580D01*
X96132455Y-86327580D02*
X95989598Y-86327580D01*
X95989598Y-86327580D02*
X95846741Y-86279961D01*
X95846741Y-86279961D02*
X95751503Y-86184723D01*
X95751503Y-86184723D02*
X95703884Y-86089485D01*
X95703884Y-86089485D02*
X95656265Y-85899009D01*
X95656265Y-85899009D02*
X95656265Y-85756152D01*
X95656265Y-85756152D02*
X95703884Y-85565676D01*
X95703884Y-85565676D02*
X95751503Y-85470438D01*
X95751503Y-85470438D02*
X95846741Y-85375200D01*
X95846741Y-85375200D02*
X95989598Y-85327580D01*
X95989598Y-85327580D02*
X96084836Y-85327580D01*
X96084836Y-85327580D02*
X96227693Y-85375200D01*
X96227693Y-85375200D02*
X96275312Y-85422819D01*
X96275312Y-85422819D02*
X96275312Y-85756152D01*
X96275312Y-85756152D02*
X96084836Y-85756152D01*
X96703884Y-85327580D02*
X96703884Y-86327580D01*
X96703884Y-86327580D02*
X97275312Y-85327580D01*
X97275312Y-85327580D02*
X97275312Y-86327580D01*
X97751503Y-85327580D02*
X97751503Y-86327580D01*
X97751503Y-86327580D02*
X97989598Y-86327580D01*
X97989598Y-86327580D02*
X98132455Y-86279961D01*
X98132455Y-86279961D02*
X98227693Y-86184723D01*
X98227693Y-86184723D02*
X98275312Y-86089485D01*
X98275312Y-86089485D02*
X98322931Y-85899009D01*
X98322931Y-85899009D02*
X98322931Y-85756152D01*
X98322931Y-85756152D02*
X98275312Y-85565676D01*
X98275312Y-85565676D02*
X98227693Y-85470438D01*
X98227693Y-85470438D02*
X98132455Y-85375200D01*
X98132455Y-85375200D02*
X97989598Y-85327580D01*
X97989598Y-85327580D02*
X97751503Y-85327580D01*
X86861027Y-86427580D02*
X87194360Y-85427580D01*
X87194360Y-85427580D02*
X87527693Y-86427580D01*
X88289598Y-85475200D02*
X88194360Y-85427580D01*
X88194360Y-85427580D02*
X88003884Y-85427580D01*
X88003884Y-85427580D02*
X87908646Y-85475200D01*
X87908646Y-85475200D02*
X87861027Y-85522819D01*
X87861027Y-85522819D02*
X87813408Y-85618057D01*
X87813408Y-85618057D02*
X87813408Y-85903771D01*
X87813408Y-85903771D02*
X87861027Y-85999009D01*
X87861027Y-85999009D02*
X87908646Y-86046628D01*
X87908646Y-86046628D02*
X88003884Y-86094247D01*
X88003884Y-86094247D02*
X88194360Y-86094247D01*
X88194360Y-86094247D02*
X88289598Y-86046628D01*
X89146741Y-85475200D02*
X89051503Y-85427580D01*
X89051503Y-85427580D02*
X88861027Y-85427580D01*
X88861027Y-85427580D02*
X88765789Y-85475200D01*
X88765789Y-85475200D02*
X88718170Y-85522819D01*
X88718170Y-85522819D02*
X88670551Y-85618057D01*
X88670551Y-85618057D02*
X88670551Y-85903771D01*
X88670551Y-85903771D02*
X88718170Y-85999009D01*
X88718170Y-85999009D02*
X88765789Y-86046628D01*
X88765789Y-86046628D02*
X88861027Y-86094247D01*
X88861027Y-86094247D02*
X89051503Y-86094247D01*
X89051503Y-86094247D02*
X89146741Y-86046628D01*
D11*
X89709524Y-82145180D02*
X89709524Y-83145180D01*
X89709524Y-83145180D02*
X90042857Y-82430895D01*
X90042857Y-82430895D02*
X90376190Y-83145180D01*
X90376190Y-83145180D02*
X90376190Y-82145180D01*
X90995238Y-82716609D02*
X90900000Y-82764228D01*
X90900000Y-82764228D02*
X90852381Y-82811847D01*
X90852381Y-82811847D02*
X90804762Y-82907085D01*
X90804762Y-82907085D02*
X90804762Y-82954704D01*
X90804762Y-82954704D02*
X90852381Y-83049942D01*
X90852381Y-83049942D02*
X90900000Y-83097561D01*
X90900000Y-83097561D02*
X90995238Y-83145180D01*
X90995238Y-83145180D02*
X91185714Y-83145180D01*
X91185714Y-83145180D02*
X91280952Y-83097561D01*
X91280952Y-83097561D02*
X91328571Y-83049942D01*
X91328571Y-83049942D02*
X91376190Y-82954704D01*
X91376190Y-82954704D02*
X91376190Y-82907085D01*
X91376190Y-82907085D02*
X91328571Y-82811847D01*
X91328571Y-82811847D02*
X91280952Y-82764228D01*
X91280952Y-82764228D02*
X91185714Y-82716609D01*
X91185714Y-82716609D02*
X90995238Y-82716609D01*
X90995238Y-82716609D02*
X90900000Y-82668990D01*
X90900000Y-82668990D02*
X90852381Y-82621371D01*
X90852381Y-82621371D02*
X90804762Y-82526133D01*
X90804762Y-82526133D02*
X90804762Y-82335657D01*
X90804762Y-82335657D02*
X90852381Y-82240419D01*
X90852381Y-82240419D02*
X90900000Y-82192800D01*
X90900000Y-82192800D02*
X90995238Y-82145180D01*
X90995238Y-82145180D02*
X91185714Y-82145180D01*
X91185714Y-82145180D02*
X91280952Y-82192800D01*
X91280952Y-82192800D02*
X91328571Y-82240419D01*
X91328571Y-82240419D02*
X91376190Y-82335657D01*
X91376190Y-82335657D02*
X91376190Y-82526133D01*
X91376190Y-82526133D02*
X91328571Y-82621371D01*
X91328571Y-82621371D02*
X91280952Y-82668990D01*
X91280952Y-82668990D02*
X91185714Y-82716609D01*
X91804762Y-82145180D02*
X91804762Y-83145180D01*
X91804762Y-83145180D02*
X92376190Y-82145180D01*
X92376190Y-82145180D02*
X92376190Y-83145180D01*
X94138095Y-83097561D02*
X94042857Y-83145180D01*
X94042857Y-83145180D02*
X93900000Y-83145180D01*
X93900000Y-83145180D02*
X93757143Y-83097561D01*
X93757143Y-83097561D02*
X93661905Y-83002323D01*
X93661905Y-83002323D02*
X93614286Y-82907085D01*
X93614286Y-82907085D02*
X93566667Y-82716609D01*
X93566667Y-82716609D02*
X93566667Y-82573752D01*
X93566667Y-82573752D02*
X93614286Y-82383276D01*
X93614286Y-82383276D02*
X93661905Y-82288038D01*
X93661905Y-82288038D02*
X93757143Y-82192800D01*
X93757143Y-82192800D02*
X93900000Y-82145180D01*
X93900000Y-82145180D02*
X93995238Y-82145180D01*
X93995238Y-82145180D02*
X94138095Y-82192800D01*
X94138095Y-82192800D02*
X94185714Y-82240419D01*
X94185714Y-82240419D02*
X94185714Y-82573752D01*
X94185714Y-82573752D02*
X93995238Y-82573752D01*
X94614286Y-82145180D02*
X94614286Y-83145180D01*
X94614286Y-83145180D02*
X94995238Y-83145180D01*
X94995238Y-83145180D02*
X95090476Y-83097561D01*
X95090476Y-83097561D02*
X95138095Y-83049942D01*
X95138095Y-83049942D02*
X95185714Y-82954704D01*
X95185714Y-82954704D02*
X95185714Y-82811847D01*
X95185714Y-82811847D02*
X95138095Y-82716609D01*
X95138095Y-82716609D02*
X95090476Y-82668990D01*
X95090476Y-82668990D02*
X94995238Y-82621371D01*
X94995238Y-82621371D02*
X94614286Y-82621371D01*
X95566667Y-82192800D02*
X95709524Y-82145180D01*
X95709524Y-82145180D02*
X95947619Y-82145180D01*
X95947619Y-82145180D02*
X96042857Y-82192800D01*
X96042857Y-82192800D02*
X96090476Y-82240419D01*
X96090476Y-82240419D02*
X96138095Y-82335657D01*
X96138095Y-82335657D02*
X96138095Y-82430895D01*
X96138095Y-82430895D02*
X96090476Y-82526133D01*
X96090476Y-82526133D02*
X96042857Y-82573752D01*
X96042857Y-82573752D02*
X95947619Y-82621371D01*
X95947619Y-82621371D02*
X95757143Y-82668990D01*
X95757143Y-82668990D02*
X95661905Y-82716609D01*
X95661905Y-82716609D02*
X95614286Y-82764228D01*
X95614286Y-82764228D02*
X95566667Y-82859466D01*
X95566667Y-82859466D02*
X95566667Y-82954704D01*
X95566667Y-82954704D02*
X95614286Y-83049942D01*
X95614286Y-83049942D02*
X95661905Y-83097561D01*
X95661905Y-83097561D02*
X95757143Y-83145180D01*
X95757143Y-83145180D02*
X95995238Y-83145180D01*
X95995238Y-83145180D02*
X96138095Y-83097561D01*
X97214960Y-184009439D02*
X97214960Y-184684355D01*
X97214960Y-184684355D02*
X97259955Y-184819338D01*
X97259955Y-184819338D02*
X97349943Y-184909327D01*
X97349943Y-184909327D02*
X97484927Y-184954321D01*
X97484927Y-184954321D02*
X97574915Y-184954321D01*
X96855005Y-184009439D02*
X96270078Y-184009439D01*
X96270078Y-184009439D02*
X96585039Y-184369394D01*
X96585039Y-184369394D02*
X96450056Y-184369394D01*
X96450056Y-184369394D02*
X96360067Y-184414388D01*
X96360067Y-184414388D02*
X96315073Y-184459383D01*
X96315073Y-184459383D02*
X96270078Y-184549371D01*
X96270078Y-184549371D02*
X96270078Y-184774343D01*
X96270078Y-184774343D02*
X96315073Y-184864332D01*
X96315073Y-184864332D02*
X96360067Y-184909327D01*
X96360067Y-184909327D02*
X96450056Y-184954321D01*
X96450056Y-184954321D02*
X96720022Y-184954321D01*
X96720022Y-184954321D02*
X96810011Y-184909327D01*
X96810011Y-184909327D02*
X96855005Y-184864332D01*
X104767619Y-133309726D02*
X104767619Y-134337821D01*
X104767619Y-134337821D02*
X104707142Y-134458773D01*
X104707142Y-134458773D02*
X104646666Y-134519250D01*
X104646666Y-134519250D02*
X104525714Y-134579726D01*
X104525714Y-134579726D02*
X104283809Y-134579726D01*
X104283809Y-134579726D02*
X104162857Y-134519250D01*
X104162857Y-134519250D02*
X104102380Y-134458773D01*
X104102380Y-134458773D02*
X104041904Y-134337821D01*
X104041904Y-134337821D02*
X104041904Y-133309726D01*
X102771904Y-134579726D02*
X103497619Y-134579726D01*
X103134762Y-134579726D02*
X103134762Y-133309726D01*
X103134762Y-133309726D02*
X103255714Y-133491154D01*
X103255714Y-133491154D02*
X103376666Y-133612107D01*
X103376666Y-133612107D02*
X103497619Y-133672583D01*
X104484439Y-86485039D02*
X105159355Y-86485039D01*
X105159355Y-86485039D02*
X105294338Y-86440044D01*
X105294338Y-86440044D02*
X105384327Y-86350056D01*
X105384327Y-86350056D02*
X105429321Y-86215072D01*
X105429321Y-86215072D02*
X105429321Y-86125084D01*
X104799400Y-87339932D02*
X105429321Y-87339932D01*
X104439445Y-87114960D02*
X105114360Y-86889988D01*
X105114360Y-86889988D02*
X105114360Y-87474915D01*
X105084439Y-73485039D02*
X105759355Y-73485039D01*
X105759355Y-73485039D02*
X105894338Y-73440044D01*
X105894338Y-73440044D02*
X105984327Y-73350056D01*
X105984327Y-73350056D02*
X106029321Y-73215072D01*
X106029321Y-73215072D02*
X106029321Y-73125084D01*
X105174428Y-73889988D02*
X105129433Y-73934982D01*
X105129433Y-73934982D02*
X105084439Y-74024971D01*
X105084439Y-74024971D02*
X105084439Y-74249943D01*
X105084439Y-74249943D02*
X105129433Y-74339932D01*
X105129433Y-74339932D02*
X105174428Y-74384926D01*
X105174428Y-74384926D02*
X105264416Y-74429921D01*
X105264416Y-74429921D02*
X105354405Y-74429921D01*
X105354405Y-74429921D02*
X105489388Y-74384926D01*
X105489388Y-74384926D02*
X106029321Y-73844994D01*
X106029321Y-73844994D02*
X106029321Y-74429921D01*
X87614819Y-158438095D02*
X88424342Y-158438095D01*
X88424342Y-158438095D02*
X88519580Y-158485714D01*
X88519580Y-158485714D02*
X88567200Y-158533333D01*
X88567200Y-158533333D02*
X88614819Y-158628571D01*
X88614819Y-158628571D02*
X88614819Y-158819047D01*
X88614819Y-158819047D02*
X88567200Y-158914285D01*
X88567200Y-158914285D02*
X88519580Y-158961904D01*
X88519580Y-158961904D02*
X88424342Y-159009523D01*
X88424342Y-159009523D02*
X87614819Y-159009523D01*
X87614819Y-159914285D02*
X87614819Y-159723809D01*
X87614819Y-159723809D02*
X87662438Y-159628571D01*
X87662438Y-159628571D02*
X87710057Y-159580952D01*
X87710057Y-159580952D02*
X87852914Y-159485714D01*
X87852914Y-159485714D02*
X88043390Y-159438095D01*
X88043390Y-159438095D02*
X88424342Y-159438095D01*
X88424342Y-159438095D02*
X88519580Y-159485714D01*
X88519580Y-159485714D02*
X88567200Y-159533333D01*
X88567200Y-159533333D02*
X88614819Y-159628571D01*
X88614819Y-159628571D02*
X88614819Y-159819047D01*
X88614819Y-159819047D02*
X88567200Y-159914285D01*
X88567200Y-159914285D02*
X88519580Y-159961904D01*
X88519580Y-159961904D02*
X88424342Y-160009523D01*
X88424342Y-160009523D02*
X88186247Y-160009523D01*
X88186247Y-160009523D02*
X88091009Y-159961904D01*
X88091009Y-159961904D02*
X88043390Y-159914285D01*
X88043390Y-159914285D02*
X87995771Y-159819047D01*
X87995771Y-159819047D02*
X87995771Y-159628571D01*
X87995771Y-159628571D02*
X88043390Y-159533333D01*
X88043390Y-159533333D02*
X88091009Y-159485714D01*
X88091009Y-159485714D02*
X88186247Y-159438095D01*
X88161904Y-102454819D02*
X88161904Y-103264342D01*
X88161904Y-103264342D02*
X88114285Y-103359580D01*
X88114285Y-103359580D02*
X88066666Y-103407200D01*
X88066666Y-103407200D02*
X87971428Y-103454819D01*
X87971428Y-103454819D02*
X87780952Y-103454819D01*
X87780952Y-103454819D02*
X87685714Y-103407200D01*
X87685714Y-103407200D02*
X87638095Y-103359580D01*
X87638095Y-103359580D02*
X87590476Y-103264342D01*
X87590476Y-103264342D02*
X87590476Y-102454819D01*
X87209523Y-102454819D02*
X86542857Y-102454819D01*
X86542857Y-102454819D02*
X86971428Y-103454819D01*
D12*
X89221427Y-119949757D02*
X89364285Y-119878328D01*
X89364285Y-119878328D02*
X89578570Y-119878328D01*
X89578570Y-119878328D02*
X89792856Y-119949757D01*
X89792856Y-119949757D02*
X89935713Y-120092614D01*
X89935713Y-120092614D02*
X90007142Y-120235471D01*
X90007142Y-120235471D02*
X90078570Y-120521185D01*
X90078570Y-120521185D02*
X90078570Y-120735471D01*
X90078570Y-120735471D02*
X90007142Y-121021185D01*
X90007142Y-121021185D02*
X89935713Y-121164042D01*
X89935713Y-121164042D02*
X89792856Y-121306900D01*
X89792856Y-121306900D02*
X89578570Y-121378328D01*
X89578570Y-121378328D02*
X89435713Y-121378328D01*
X89435713Y-121378328D02*
X89221427Y-121306900D01*
X89221427Y-121306900D02*
X89149999Y-121235471D01*
X89149999Y-121235471D02*
X89149999Y-120735471D01*
X89149999Y-120735471D02*
X89435713Y-120735471D01*
X88292856Y-119878328D02*
X88292856Y-120235471D01*
X88649999Y-120092614D02*
X88292856Y-120235471D01*
X88292856Y-120235471D02*
X87935713Y-120092614D01*
X88507142Y-120521185D02*
X88292856Y-120235471D01*
X88292856Y-120235471D02*
X88078570Y-120521185D01*
X87149999Y-119878328D02*
X87149999Y-120235471D01*
X87507142Y-120092614D02*
X87149999Y-120235471D01*
X87149999Y-120235471D02*
X86792856Y-120092614D01*
X87364285Y-120521185D02*
X87149999Y-120235471D01*
X87149999Y-120235471D02*
X86935713Y-120521185D01*
X86007142Y-119878328D02*
X86007142Y-120235471D01*
X86364285Y-120092614D02*
X86007142Y-120235471D01*
X86007142Y-120235471D02*
X85649999Y-120092614D01*
X86221428Y-120521185D02*
X86007142Y-120235471D01*
X86007142Y-120235471D02*
X85792856Y-120521185D01*
D11*
X103454819Y-138266666D02*
X104169104Y-138266666D01*
X104169104Y-138266666D02*
X104311961Y-138219047D01*
X104311961Y-138219047D02*
X104407200Y-138123809D01*
X104407200Y-138123809D02*
X104454819Y-137980952D01*
X104454819Y-137980952D02*
X104454819Y-137885714D01*
X104454819Y-139266666D02*
X104454819Y-138695238D01*
X104454819Y-138980952D02*
X103454819Y-138980952D01*
X103454819Y-138980952D02*
X103597676Y-138885714D01*
X103597676Y-138885714D02*
X103692914Y-138790476D01*
X103692914Y-138790476D02*
X103740533Y-138695238D01*
%TO.C,U2*%
X81890000Y-65850000D02*
X99670000Y-65850000D01*
X81890000Y-96330000D02*
X81890000Y-65850000D01*
X86970000Y-96330000D02*
X81890000Y-96330000D01*
X86970000Y-98870000D02*
X86970000Y-96330000D01*
X94590000Y-96330000D02*
X94590000Y-98870000D01*
X94590000Y-98870000D02*
X86970000Y-98870000D01*
X99670000Y-65850000D02*
X99670000Y-96330000D01*
X99670000Y-96330000D02*
X94590000Y-96330000D01*
D13*
%TO.C,J5*%
X98350000Y-180450000D02*
X105750000Y-180450000D01*
X98350000Y-186200000D02*
X98350000Y-180450000D01*
X105750000Y-180450000D02*
X105750000Y-186200000D01*
X105750000Y-186200000D02*
X98350000Y-186200000D01*
D14*
X106590000Y-182800000D02*
G75*
G02*
X106390000Y-182800000I-100000J0D01*
G01*
X106390000Y-182800000D02*
G75*
G02*
X106590000Y-182800000I100000J0D01*
G01*
%TO.C,M8N_GPS1*%
D10*
X105600000Y-55500000D02*
X79600000Y-55500000D01*
X79600000Y-91500000D01*
X105600000Y-91500000D01*
X105600000Y-55500000D01*
D13*
%TO.C,J3*%
X85650000Y-180450000D02*
X95550000Y-180450000D01*
X85650000Y-186200000D02*
X85650000Y-180450000D01*
X95550000Y-180450000D02*
X95550000Y-186200000D01*
X95550000Y-186200000D02*
X85650000Y-186200000D01*
D14*
X96450000Y-182800000D02*
G75*
G02*
X96250000Y-182800000I-100000J0D01*
G01*
X96250000Y-182800000D02*
G75*
G02*
X96450000Y-182800000I100000J0D01*
G01*
D15*
%TO.C,U1*%
X95926000Y-93216500D02*
X95926000Y-133983500D01*
X95926000Y-133983500D02*
X111674000Y-133983500D01*
X98720000Y-127633500D02*
X108880000Y-127633500D01*
X98720000Y-132713500D02*
X98720000Y-127633500D01*
X108880000Y-127633500D02*
X108880000Y-132713500D01*
X108880000Y-132713500D02*
X98720000Y-132713500D01*
X111674000Y-93216500D02*
X95926000Y-93216500D01*
X111674000Y-133983500D02*
X111674000Y-93216500D01*
D13*
%TO.C,J4*%
X106250000Y-77750000D02*
X112000000Y-77750000D01*
X106250000Y-87650000D02*
X106250000Y-77750000D01*
X112000000Y-77750000D02*
X112000000Y-87650000D01*
X112000000Y-87650000D02*
X106250000Y-87650000D01*
D14*
X108700000Y-76950000D02*
G75*
G02*
X108500000Y-76950000I-100000J0D01*
G01*
X108500000Y-76950000D02*
G75*
G02*
X108700000Y-76950000I100000J0D01*
G01*
D13*
%TO.C,J2*%
X106650000Y-66550000D02*
X112400000Y-66550000D01*
X106650000Y-76450000D02*
X106650000Y-66550000D01*
X112400000Y-66550000D02*
X112400000Y-76450000D01*
X112400000Y-76450000D02*
X106650000Y-76450000D01*
D14*
X109100000Y-65750000D02*
G75*
G02*
X108900000Y-65750000I-100000J0D01*
G01*
X108900000Y-65750000D02*
G75*
G02*
X109100000Y-65750000I100000J0D01*
G01*
D11*
%TO.C,U6*%
X83080000Y-179520000D02*
X83080000Y-138880000D01*
X83080000Y-179520000D02*
X98320000Y-179520000D01*
X90700000Y-151580000D02*
X95780000Y-151580000D01*
X90700000Y-156660000D02*
X90700000Y-151580000D01*
X90700000Y-161740000D02*
X95780000Y-161740000D01*
X90700000Y-166820000D02*
X90700000Y-161740000D01*
X95780000Y-151580000D02*
X95780000Y-156660000D01*
X95780000Y-156660000D02*
X90700000Y-156660000D01*
X95780000Y-161740000D02*
X95780000Y-166820000D01*
X95780000Y-166820000D02*
X90700000Y-166820000D01*
X98320000Y-138880000D02*
X83080000Y-138880000D01*
X98320000Y-179520000D02*
X98320000Y-138880000D01*
D13*
%TO.C,U7*%
X80935000Y-96575000D02*
X94265000Y-96575000D01*
X80935000Y-112625000D02*
X80935000Y-96575000D01*
X94265000Y-96575000D02*
X94265000Y-112625000D01*
X94265000Y-112625000D02*
X80935000Y-112625000D01*
D16*
%TO.C,G\u002A\u002A\u002A*%
G36*
X87242610Y-123992774D02*
G01*
X87283789Y-124010434D01*
X87322088Y-124046273D01*
X87344723Y-124085093D01*
X87338911Y-124111697D01*
X87325521Y-124123414D01*
X87287625Y-124176781D01*
X87248972Y-124250462D01*
X87218919Y-124325300D01*
X87206822Y-124382138D01*
X87205093Y-124412401D01*
X87191538Y-124433020D01*
X87155866Y-124426115D01*
X87087991Y-124392569D01*
X87006295Y-124349007D01*
X87053500Y-124288393D01*
X87070127Y-124264654D01*
X87112267Y-124192198D01*
X87152372Y-124110185D01*
X87173801Y-124066967D01*
X87209871Y-124013484D01*
X87238728Y-123992593D01*
X87242610Y-123992774D01*
G37*
G36*
X89612226Y-120873570D02*
G01*
X89783795Y-120875433D01*
X89927804Y-120878879D01*
X90038765Y-120883705D01*
X90111193Y-120889706D01*
X90139601Y-120896681D01*
X90138042Y-120919870D01*
X90115936Y-120974720D01*
X90077048Y-121045219D01*
X90000041Y-121170371D01*
X89509162Y-121170371D01*
X89018282Y-121170371D01*
X88941275Y-121045219D01*
X88908832Y-120987666D01*
X88882991Y-120928660D01*
X88878722Y-120896681D01*
X88888403Y-120892774D01*
X88941463Y-120886304D01*
X89035556Y-120880918D01*
X89165194Y-120876818D01*
X89324891Y-120874209D01*
X89509162Y-120873295D01*
X89612226Y-120873570D01*
G37*
G36*
X88709752Y-124014472D02*
G01*
X88731617Y-124042106D01*
X88732414Y-124049516D01*
X88747640Y-124104230D01*
X88775919Y-124173323D01*
X88809805Y-124241550D01*
X88841853Y-124293666D01*
X88864617Y-124314425D01*
X88875050Y-124315323D01*
X88890546Y-124332604D01*
X88871196Y-124364041D01*
X88822173Y-124399291D01*
X88759541Y-124428050D01*
X88708998Y-124433289D01*
X88692203Y-124402704D01*
X88683971Y-124366565D01*
X88660284Y-124298682D01*
X88626557Y-124215835D01*
X88614214Y-124186811D01*
X88585301Y-124104934D01*
X88583338Y-124054659D01*
X88610120Y-124027082D01*
X88667446Y-124013300D01*
X88709752Y-124014472D01*
G37*
G36*
X87924377Y-124368330D02*
G01*
X87920612Y-124439342D01*
X87901678Y-124492637D01*
X87859527Y-124535435D01*
X87782308Y-124573180D01*
X87681767Y-124584900D01*
X87579024Y-124568914D01*
X87489937Y-124527850D01*
X87430363Y-124464334D01*
X87404649Y-124392619D01*
X87579922Y-124392619D01*
X87593194Y-124473317D01*
X87624112Y-124504891D01*
X87674978Y-124509335D01*
X87721684Y-124481392D01*
X87751331Y-124431427D01*
X87769429Y-124358508D01*
X87766466Y-124288600D01*
X87743524Y-124236099D01*
X87701685Y-124215400D01*
X87685038Y-124217203D01*
X87631922Y-124250112D01*
X87594858Y-124313401D01*
X87579922Y-124392619D01*
X87404649Y-124392619D01*
X87404462Y-124392097D01*
X87407314Y-124301000D01*
X87446219Y-124222319D01*
X87513479Y-124162315D01*
X87601394Y-124127248D01*
X87702265Y-124123377D01*
X87808393Y-124156963D01*
X87861068Y-124186698D01*
X87902130Y-124225871D01*
X87920169Y-124280830D01*
X87923905Y-124358508D01*
X87924377Y-124368330D01*
G37*
G36*
X86571509Y-120873190D02*
G01*
X86716033Y-120875103D01*
X86843897Y-120878459D01*
X86946894Y-120883271D01*
X87016817Y-120889555D01*
X87045457Y-120897324D01*
X87045805Y-120897926D01*
X87043984Y-120935956D01*
X87020823Y-120997563D01*
X86983717Y-121066631D01*
X86940059Y-121127047D01*
X86929613Y-121137044D01*
X86905991Y-121149685D01*
X86867777Y-121158683D01*
X86807990Y-121164626D01*
X86719645Y-121168100D01*
X86595760Y-121169693D01*
X86429350Y-121169992D01*
X86422005Y-121169983D01*
X86273690Y-121168867D01*
X86142387Y-121166150D01*
X86036222Y-121162135D01*
X85963318Y-121157125D01*
X85931801Y-121151424D01*
X85931588Y-121151268D01*
X85894168Y-121112382D01*
X85851682Y-121052818D01*
X85812991Y-120987522D01*
X85786955Y-120931436D01*
X85782435Y-120899505D01*
X85782833Y-120899002D01*
X85814156Y-120891213D01*
X85886273Y-120884768D01*
X85990978Y-120879680D01*
X86120061Y-120875965D01*
X86265316Y-120873635D01*
X86418535Y-120872705D01*
X86571509Y-120873190D01*
G37*
G36*
X88679732Y-119634140D02*
G01*
X88805560Y-119641950D01*
X88920914Y-119657889D01*
X89016348Y-119682331D01*
X89123168Y-119724087D01*
X89339602Y-119842481D01*
X89527729Y-119998009D01*
X89577976Y-120048572D01*
X89624031Y-120101490D01*
X89647702Y-120147731D01*
X89656442Y-120203817D01*
X89657700Y-120286275D01*
X89658807Y-120354986D01*
X89664570Y-120482588D01*
X89673604Y-120597343D01*
X89677616Y-120691090D01*
X89666652Y-120744726D01*
X89643254Y-120751151D01*
X89610653Y-120709658D01*
X89572078Y-120619542D01*
X89485244Y-120433627D01*
X89353603Y-120246000D01*
X89190915Y-120078648D01*
X89006694Y-119941267D01*
X88810453Y-119843548D01*
X88801177Y-119840115D01*
X88677028Y-119800700D01*
X88541913Y-119767277D01*
X88414803Y-119743999D01*
X88314668Y-119735019D01*
X88297974Y-119734587D01*
X88243716Y-119727207D01*
X88221832Y-119713721D01*
X88224194Y-119703964D01*
X88260661Y-119676727D01*
X88333897Y-119655753D01*
X88434453Y-119641414D01*
X88552881Y-119634086D01*
X88679732Y-119634140D01*
G37*
G36*
X87360741Y-119637782D02*
G01*
X87473870Y-119647562D01*
X87566634Y-119662880D01*
X87629376Y-119683267D01*
X87652436Y-119708252D01*
X87651217Y-119710561D01*
X87619063Y-119722232D01*
X87552098Y-119734447D01*
X87462240Y-119744909D01*
X87459481Y-119745163D01*
X87350695Y-119760116D01*
X87247308Y-119782391D01*
X87171353Y-119807265D01*
X87149615Y-119816815D01*
X87071028Y-119848879D01*
X87008772Y-119870979D01*
X86979800Y-119881477D01*
X86882533Y-119933039D01*
X86772022Y-120009520D01*
X86661645Y-120101069D01*
X86564781Y-120197838D01*
X86535595Y-120232103D01*
X86465972Y-120324258D01*
X86399751Y-120424221D01*
X86343866Y-120520414D01*
X86305251Y-120601263D01*
X86290838Y-120655191D01*
X86287106Y-120675499D01*
X86259893Y-120721116D01*
X86249155Y-120726488D01*
X86238635Y-120710454D01*
X86231155Y-120662929D01*
X86225877Y-120577908D01*
X86221961Y-120449384D01*
X86221944Y-120448658D01*
X86219396Y-120321754D01*
X86219815Y-120233703D01*
X86224927Y-120173911D01*
X86236457Y-120131785D01*
X86256130Y-120096733D01*
X86285672Y-120058160D01*
X86329341Y-120011761D01*
X86422077Y-119933495D01*
X86536718Y-119851003D01*
X86659319Y-119773498D01*
X86775932Y-119710197D01*
X86872612Y-119670315D01*
X86897762Y-119663446D01*
X86995759Y-119646373D01*
X87112027Y-119636718D01*
X87236908Y-119634011D01*
X87360741Y-119637782D01*
G37*
G36*
X88581041Y-115958811D02*
G01*
X88590965Y-116030608D01*
X88593177Y-116144331D01*
X88593177Y-116366635D01*
X88500341Y-116414482D01*
X88449108Y-116445015D01*
X88327815Y-116549656D01*
X88216694Y-116688659D01*
X88122397Y-116851291D01*
X88051572Y-117026816D01*
X88010872Y-117204502D01*
X88005917Y-117239735D01*
X87994545Y-117309801D01*
X87985576Y-117351706D01*
X87978176Y-117369095D01*
X87955086Y-117383392D01*
X87933986Y-117359899D01*
X87924756Y-117306036D01*
X87924191Y-117291272D01*
X87910780Y-117206426D01*
X87883330Y-117097100D01*
X87846918Y-116979990D01*
X87806622Y-116871786D01*
X87767521Y-116789182D01*
X87704493Y-116688767D01*
X87581679Y-116541804D01*
X87438016Y-116428047D01*
X87303856Y-116342226D01*
X87311041Y-116138590D01*
X87316804Y-116039757D01*
X87330775Y-115963834D01*
X87357164Y-115930671D01*
X87400869Y-115939021D01*
X87466789Y-115987636D01*
X87559821Y-116075271D01*
X87687216Y-116221966D01*
X87793562Y-116386220D01*
X87871010Y-116554181D01*
X87912128Y-116712413D01*
X87919726Y-116759011D01*
X87933549Y-116815830D01*
X87945977Y-116838012D01*
X87954948Y-116827630D01*
X87973293Y-116780921D01*
X87993112Y-116709361D01*
X88065702Y-116490331D01*
X88182216Y-116282833D01*
X88343497Y-116092319D01*
X88365632Y-116070349D01*
X88455701Y-115984709D01*
X88518339Y-115936888D01*
X88558476Y-115927913D01*
X88581041Y-115958811D01*
G37*
G36*
X88414946Y-124188525D02*
G01*
X88413821Y-124206364D01*
X88423200Y-124273583D01*
X88463206Y-124322411D01*
X88469571Y-124327827D01*
X88513459Y-124395144D01*
X88516164Y-124472313D01*
X88511320Y-124482360D01*
X88480056Y-124547200D01*
X88407505Y-124607671D01*
X88386892Y-124617066D01*
X88298786Y-124633910D01*
X88204083Y-124627157D01*
X88128315Y-124597719D01*
X88093425Y-124553024D01*
X88073349Y-124478793D01*
X88073995Y-124461509D01*
X88207049Y-124461509D01*
X88220730Y-124510416D01*
X88259535Y-124553495D01*
X88304470Y-124559934D01*
X88342985Y-124533706D01*
X88364388Y-124482360D01*
X88357992Y-124413451D01*
X88333430Y-124373949D01*
X88290281Y-124369910D01*
X88236074Y-124411391D01*
X88232008Y-124415971D01*
X88207049Y-124461509D01*
X88073995Y-124461509D01*
X88076250Y-124401191D01*
X88104240Y-124342591D01*
X88104604Y-124342222D01*
X88120330Y-124312577D01*
X88091861Y-124286897D01*
X88063591Y-124255527D01*
X88048538Y-124189984D01*
X88051425Y-124165887D01*
X88184698Y-124165887D01*
X88191475Y-124204127D01*
X88215630Y-124233963D01*
X88219566Y-124235002D01*
X88250835Y-124221479D01*
X88267481Y-124179231D01*
X88261602Y-124126694D01*
X88254370Y-124112482D01*
X88225301Y-124096411D01*
X88197258Y-124116669D01*
X88184698Y-124165887D01*
X88051425Y-124165887D01*
X88052081Y-124160411D01*
X88090617Y-124094316D01*
X88163315Y-124049014D01*
X88259864Y-124032203D01*
X88277841Y-124032626D01*
X88360856Y-124052685D01*
X88405973Y-124104063D01*
X88413959Y-124179231D01*
X88414946Y-124188525D01*
G37*
G36*
X84671591Y-123735210D02*
G01*
X84685293Y-123772125D01*
X84699302Y-123826797D01*
X84693850Y-123862208D01*
X84692712Y-123869596D01*
X84664688Y-123923335D01*
X84660215Y-123930702D01*
X84660161Y-123930791D01*
X84610032Y-123993239D01*
X84556539Y-124035496D01*
X84513232Y-124054030D01*
X84429364Y-124063238D01*
X84338678Y-124031584D01*
X84293531Y-124000943D01*
X84270399Y-123969861D01*
X84409356Y-123969861D01*
X84413530Y-123980300D01*
X84446491Y-123992593D01*
X84470713Y-123980479D01*
X84483626Y-123930702D01*
X84479275Y-123898421D01*
X84538518Y-123898421D01*
X84552358Y-123918324D01*
X84575071Y-123908945D01*
X84590195Y-123862208D01*
X84580956Y-123782164D01*
X84577569Y-123768271D01*
X84566270Y-123738574D01*
X84560486Y-123757408D01*
X84556109Y-123794554D01*
X84550218Y-123823572D01*
X84542291Y-123862622D01*
X84538518Y-123898421D01*
X84479275Y-123898421D01*
X84478142Y-123890013D01*
X84461518Y-123868811D01*
X84444007Y-123878610D01*
X84420019Y-123919094D01*
X84409356Y-123969861D01*
X84270399Y-123969861D01*
X84234966Y-123922252D01*
X84212520Y-123827527D01*
X84216818Y-123800731D01*
X84312071Y-123800731D01*
X84312166Y-123817559D01*
X84319590Y-123871726D01*
X84335087Y-123893567D01*
X84354701Y-123873912D01*
X84354842Y-123823572D01*
X84335087Y-123757408D01*
X84434113Y-123757408D01*
X84446491Y-123769786D01*
X84458869Y-123757408D01*
X84446491Y-123745029D01*
X84434113Y-123757408D01*
X84335087Y-123757408D01*
X84323083Y-123735384D01*
X84315151Y-123745667D01*
X84312071Y-123800731D01*
X84216818Y-123800731D01*
X84228115Y-123730300D01*
X84276127Y-123655804D01*
X84416061Y-123655804D01*
X84416445Y-123664254D01*
X84448554Y-123668806D01*
X84472888Y-123664842D01*
X84463511Y-123653849D01*
X84449195Y-123649894D01*
X84416061Y-123655804D01*
X84276127Y-123655804D01*
X84283670Y-123644100D01*
X84347882Y-123595940D01*
X84441947Y-123569154D01*
X84534117Y-123585049D01*
X84614097Y-123641207D01*
X84628553Y-123664842D01*
X84671591Y-123735210D01*
G37*
G36*
X86633182Y-124269057D02*
G01*
X86687467Y-124296682D01*
X86751615Y-124341681D01*
X86794977Y-124374410D01*
X86929079Y-124457612D01*
X87096675Y-124538336D01*
X87305623Y-124620538D01*
X87319392Y-124625526D01*
X87393501Y-124651509D01*
X87456726Y-124670267D01*
X87519131Y-124682962D01*
X87590785Y-124690758D01*
X87681751Y-124694819D01*
X87802098Y-124696308D01*
X87961891Y-124696388D01*
X88101448Y-124695931D01*
X88229087Y-124694120D01*
X88325830Y-124689907D01*
X88401764Y-124682212D01*
X88466973Y-124669953D01*
X88531541Y-124652051D01*
X88605555Y-124627424D01*
X88660313Y-124607605D01*
X88815263Y-124542988D01*
X88965652Y-124469245D01*
X89097085Y-124393782D01*
X89195166Y-124324008D01*
X89236191Y-124293202D01*
X89303751Y-124267057D01*
X89358034Y-124287023D01*
X89403803Y-124353780D01*
X89446181Y-124442648D01*
X89360078Y-124514031D01*
X89341835Y-124528566D01*
X89231083Y-124602771D01*
X89091787Y-124679804D01*
X88939864Y-124751405D01*
X88791228Y-124809313D01*
X88707098Y-124838602D01*
X88629199Y-124866897D01*
X88580799Y-124885868D01*
X88558952Y-124893905D01*
X88490143Y-124913216D01*
X88407505Y-124931619D01*
X88384567Y-124935141D01*
X88298926Y-124942285D01*
X88181327Y-124947025D01*
X88044207Y-124948965D01*
X87900000Y-124947713D01*
X87888524Y-124947472D01*
X87739145Y-124943514D01*
X87625468Y-124937689D01*
X87534539Y-124928188D01*
X87453405Y-124913202D01*
X87369114Y-124890922D01*
X87268713Y-124859538D01*
X87191910Y-124834127D01*
X87098020Y-124801447D01*
X87029143Y-124775500D01*
X86996394Y-124760335D01*
X86967445Y-124744297D01*
X86911358Y-124722814D01*
X86871033Y-124703785D01*
X86801150Y-124663332D01*
X86716352Y-124610320D01*
X86629711Y-124553162D01*
X86554299Y-124500274D01*
X86503189Y-124460070D01*
X86496604Y-124436863D01*
X86510540Y-124386889D01*
X86541325Y-124330349D01*
X86579323Y-124284078D01*
X86614896Y-124264913D01*
X86633182Y-124269057D01*
G37*
G36*
X86659638Y-116184004D02*
G01*
X86732228Y-116216949D01*
X86743255Y-116222811D01*
X86828784Y-116277690D01*
X86935676Y-116357675D01*
X87052931Y-116453498D01*
X87169550Y-116555890D01*
X87274531Y-116655582D01*
X87356876Y-116743304D01*
X87424426Y-116825438D01*
X87537396Y-116976303D01*
X87645207Y-117135667D01*
X87742373Y-117294374D01*
X87823409Y-117443270D01*
X87882829Y-117573199D01*
X87915147Y-117675006D01*
X87916265Y-117680384D01*
X87932452Y-117732551D01*
X87949244Y-117753996D01*
X87958820Y-117746018D01*
X87983066Y-117703437D01*
X88011292Y-117636404D01*
X88044749Y-117551677D01*
X88189890Y-117257773D01*
X88376109Y-116969708D01*
X88597239Y-116697366D01*
X88613249Y-116679879D01*
X88728367Y-116563588D01*
X88850524Y-116454177D01*
X88972876Y-116356495D01*
X89088581Y-116275391D01*
X89190795Y-116215714D01*
X89272675Y-116182313D01*
X89327377Y-116180035D01*
X89331026Y-116182215D01*
X89347495Y-116219841D01*
X89356771Y-116290483D01*
X89359306Y-116380614D01*
X89355555Y-116476707D01*
X89345969Y-116565234D01*
X89331004Y-116632668D01*
X89311111Y-116665482D01*
X89283017Y-116678604D01*
X89218303Y-116707553D01*
X89138620Y-116742373D01*
X88950615Y-116841505D01*
X88749281Y-116982647D01*
X88554655Y-117152320D01*
X88377699Y-117340922D01*
X88229375Y-117538850D01*
X88227598Y-117541573D01*
X88159943Y-117651124D01*
X88097903Y-117761953D01*
X88046857Y-117863386D01*
X88012185Y-117944750D01*
X87999267Y-117995371D01*
X87988950Y-118025728D01*
X87961920Y-118020875D01*
X87926316Y-117983920D01*
X87890286Y-117920463D01*
X87839423Y-117817834D01*
X87756495Y-117672634D01*
X87661504Y-117523029D01*
X87565081Y-117385612D01*
X87477859Y-117276971D01*
X87320663Y-117119347D01*
X87076596Y-116927297D01*
X86803081Y-116763755D01*
X86575536Y-116646559D01*
X86568412Y-116420035D01*
X86566939Y-116360719D01*
X86569098Y-116259563D01*
X86582390Y-116199959D01*
X86611131Y-116176557D01*
X86659638Y-116184004D01*
G37*
G36*
X90388011Y-117543567D02*
G01*
X90383006Y-117812641D01*
X90380784Y-117903501D01*
X90377114Y-117997978D01*
X90372910Y-118063986D01*
X90368710Y-118091004D01*
X90360721Y-118091832D01*
X90314215Y-118086042D01*
X90236394Y-118071940D01*
X90138530Y-118051463D01*
X90012156Y-118028689D01*
X89806510Y-118007960D01*
X89593978Y-118002778D01*
X89392448Y-118013370D01*
X89219811Y-118039957D01*
X89066560Y-118084307D01*
X88826701Y-118188170D01*
X88584666Y-118332091D01*
X88347641Y-118511602D01*
X88122807Y-118722236D01*
X88106221Y-118739310D01*
X88041488Y-118802956D01*
X87990926Y-118848089D01*
X87964319Y-118865845D01*
X87962554Y-118865574D01*
X87932598Y-118845327D01*
X87875990Y-118797664D01*
X87800116Y-118729035D01*
X87712362Y-118645887D01*
X87605283Y-118545898D01*
X87392475Y-118371488D01*
X87181512Y-118234306D01*
X86962132Y-118128131D01*
X86724074Y-118046742D01*
X86617432Y-118022855D01*
X86422899Y-118001024D01*
X86208516Y-117998139D01*
X85990066Y-118014159D01*
X85783333Y-118049046D01*
X85732169Y-118060534D01*
X85640072Y-118080648D01*
X85572434Y-118094655D01*
X85541148Y-118100049D01*
X85534638Y-118081431D01*
X85529695Y-118022471D01*
X85527593Y-117932738D01*
X85528770Y-117822076D01*
X85535770Y-117543567D01*
X85783333Y-117546144D01*
X85886360Y-117551038D01*
X86108277Y-117580929D01*
X86348214Y-117634399D01*
X86591910Y-117707452D01*
X86825102Y-117796094D01*
X87033528Y-117896330D01*
X87205777Y-118001905D01*
X87437380Y-118177567D01*
X87653266Y-118378899D01*
X87838341Y-118592837D01*
X87887700Y-118653283D01*
X87933477Y-118700704D01*
X87960789Y-118718498D01*
X87963201Y-118717947D01*
X87993102Y-118693583D01*
X88041045Y-118640410D01*
X88097854Y-118568473D01*
X88265679Y-118370162D01*
X88506709Y-118149932D01*
X88780219Y-117959300D01*
X89079479Y-117802839D01*
X89397758Y-117685124D01*
X89408488Y-117681941D01*
X89660580Y-117612693D01*
X89874079Y-117565920D01*
X90053833Y-117540726D01*
X90204692Y-117536216D01*
X90388011Y-117543567D01*
G37*
G36*
X86481133Y-118281825D02*
G01*
X86804980Y-118364102D01*
X87132553Y-118495750D01*
X87298418Y-118580133D01*
X87584589Y-118758958D01*
X87827510Y-118959696D01*
X87874101Y-119001736D01*
X87939011Y-119046160D01*
X87982237Y-119051970D01*
X88004012Y-119040958D01*
X88023781Y-119018243D01*
X88033500Y-119001442D01*
X88076875Y-118958829D01*
X88147359Y-118900053D01*
X88236524Y-118831528D01*
X88335941Y-118759669D01*
X88437183Y-118690889D01*
X88531820Y-118631604D01*
X88612674Y-118586120D01*
X88798642Y-118494201D01*
X88999039Y-118408862D01*
X89195670Y-118337566D01*
X89370340Y-118287772D01*
X89391420Y-118283068D01*
X89636729Y-118251361D01*
X89904947Y-118254601D01*
X90185664Y-118292076D01*
X90468470Y-118363071D01*
X90672709Y-118426822D01*
X90672709Y-118696939D01*
X90672194Y-118762413D01*
X90667805Y-118873492D01*
X90659246Y-118943013D01*
X90646891Y-118967057D01*
X90618659Y-118955208D01*
X90562385Y-118920434D01*
X90492164Y-118870760D01*
X90480485Y-118862110D01*
X90234387Y-118711446D01*
X89966096Y-118604951D01*
X89940479Y-118597871D01*
X89810983Y-118574603D01*
X89654749Y-118561014D01*
X89486834Y-118557124D01*
X89322292Y-118562950D01*
X89176178Y-118578512D01*
X89063548Y-118603829D01*
X88754780Y-118716392D01*
X88489121Y-118835260D01*
X88270585Y-118959293D01*
X88098050Y-119089053D01*
X88046191Y-119132593D01*
X87991141Y-119172859D01*
X87958998Y-119188808D01*
X87950361Y-119186408D01*
X87907033Y-119161311D01*
X87840406Y-119114660D01*
X87760947Y-119053601D01*
X87664282Y-118981694D01*
X87453585Y-118852107D01*
X87222062Y-118739086D01*
X86982854Y-118647990D01*
X86749099Y-118584180D01*
X86533937Y-118553016D01*
X86327106Y-118551572D01*
X86074849Y-118581376D01*
X85836199Y-118643609D01*
X85621002Y-118735558D01*
X85439103Y-118854513D01*
X85412339Y-118876350D01*
X85340214Y-118934363D01*
X85293500Y-118963745D01*
X85266712Y-118960327D01*
X85254367Y-118919942D01*
X85250982Y-118838420D01*
X85251072Y-118711595D01*
X85251072Y-118428454D01*
X85393421Y-118376612D01*
X85531943Y-118331228D01*
X85844615Y-118265389D01*
X86161012Y-118248921D01*
X86481133Y-118281825D01*
G37*
G36*
X89470618Y-124649113D02*
G01*
X89516394Y-124689471D01*
X89574981Y-124747767D01*
X89623156Y-124794323D01*
X89720176Y-124876103D01*
X89814912Y-124944411D01*
X89872274Y-124982734D01*
X89923315Y-125026682D01*
X89950298Y-125072259D01*
X89964699Y-125133993D01*
X89967613Y-125155503D01*
X89969020Y-125223675D01*
X89957038Y-125262806D01*
X89938744Y-125268268D01*
X89883739Y-125256077D01*
X89806328Y-125222808D01*
X89717030Y-125173876D01*
X89626368Y-125114696D01*
X89544864Y-125050683D01*
X89437266Y-124955971D01*
X89339323Y-125017799D01*
X89309314Y-125035794D01*
X89171927Y-125103756D01*
X89000155Y-125171980D01*
X88805658Y-125236504D01*
X88600096Y-125293368D01*
X88395126Y-125338609D01*
X88360106Y-125341590D01*
X88280995Y-125343951D01*
X88169663Y-125345015D01*
X88035432Y-125344702D01*
X87887622Y-125342934D01*
X87747320Y-125340064D01*
X87608692Y-125335140D01*
X87501536Y-125327800D01*
X87415834Y-125317047D01*
X87341567Y-125301883D01*
X87268713Y-125281311D01*
X87228249Y-125268608D01*
X87040390Y-125207926D01*
X86891897Y-125156361D01*
X86775566Y-125111147D01*
X86684188Y-125069517D01*
X86610558Y-125028707D01*
X86489160Y-124954010D01*
X86418095Y-125024130D01*
X86376895Y-125060019D01*
X86291242Y-125122128D01*
X86192621Y-125184324D01*
X86098089Y-125236082D01*
X86024707Y-125266875D01*
X86000292Y-125272674D01*
X85979199Y-125265963D01*
X85970626Y-125231459D01*
X85969006Y-125158312D01*
X85970178Y-125096314D01*
X85980849Y-125046960D01*
X86011887Y-125014246D01*
X86074159Y-124979720D01*
X86080846Y-124976174D01*
X86152846Y-124928175D01*
X86238644Y-124858579D01*
X86321105Y-124781166D01*
X86342640Y-124759313D01*
X86406415Y-124696552D01*
X86453924Y-124652732D01*
X86476173Y-124636258D01*
X86476464Y-124636276D01*
X86503373Y-124650038D01*
X86558941Y-124684471D01*
X86631518Y-124732367D01*
X86682351Y-124766187D01*
X86797762Y-124836804D01*
X86910611Y-124894389D01*
X87037821Y-124947048D01*
X87196318Y-125002887D01*
X87199441Y-125003929D01*
X87506195Y-125083257D01*
X87821985Y-125122288D01*
X88139439Y-125121938D01*
X88451182Y-125083118D01*
X88749841Y-125006743D01*
X89028043Y-124893726D01*
X89278413Y-124744980D01*
X89291933Y-124735421D01*
X89365715Y-124685105D01*
X89422088Y-124649663D01*
X89449761Y-124636258D01*
X89470618Y-124649113D01*
G37*
G36*
X87240272Y-119283305D02*
G01*
X87450926Y-119330411D01*
X87548342Y-119370847D01*
X87670295Y-119435008D01*
X87786404Y-119507732D01*
X87876055Y-119577060D01*
X87938757Y-119634437D01*
X88061727Y-119545560D01*
X88075608Y-119535619D01*
X88288028Y-119405884D01*
X88497053Y-119319608D01*
X88697672Y-119278892D01*
X88861605Y-119275265D01*
X89083475Y-119296194D01*
X89311146Y-119342347D01*
X89526337Y-119410815D01*
X89666220Y-119475182D01*
X89828755Y-119568259D01*
X89990856Y-119676729D01*
X90137031Y-119790185D01*
X90251786Y-119898216D01*
X90350877Y-120005717D01*
X90350877Y-120290968D01*
X90349818Y-120383422D01*
X90345097Y-120486116D01*
X90337112Y-120552589D01*
X90326431Y-120576219D01*
X90317460Y-120572648D01*
X90283812Y-120539680D01*
X90243004Y-120483382D01*
X90211441Y-120436460D01*
X90102373Y-120297916D01*
X89967433Y-120150781D01*
X89817259Y-120005031D01*
X89662491Y-119870641D01*
X89513770Y-119757588D01*
X89381735Y-119675848D01*
X89241876Y-119609599D01*
X88994816Y-119527015D01*
X88755849Y-119492050D01*
X88526331Y-119504709D01*
X88307618Y-119564994D01*
X88101064Y-119672909D01*
X88037041Y-119713419D01*
X87979016Y-119746546D01*
X87948593Y-119759259D01*
X87929355Y-119752221D01*
X87878033Y-119723686D01*
X87810833Y-119680698D01*
X87763398Y-119649788D01*
X87586866Y-119557076D01*
X87412410Y-119504474D01*
X87226554Y-119487527D01*
X87214736Y-119487534D01*
X87115283Y-119490773D01*
X87030978Y-119498633D01*
X86978991Y-119509585D01*
X86975766Y-119510846D01*
X86920785Y-119530159D01*
X86836833Y-119557570D01*
X86740721Y-119587576D01*
X86638642Y-119624578D01*
X86515865Y-119680139D01*
X86412670Y-119737704D01*
X86345670Y-119786604D01*
X86247359Y-119869055D01*
X86135400Y-119970839D01*
X86018395Y-120083437D01*
X85904945Y-120198326D01*
X85803650Y-120306987D01*
X85723111Y-120400898D01*
X85671930Y-120471540D01*
X85631062Y-120534685D01*
X85596543Y-120571094D01*
X85572744Y-120568002D01*
X85557912Y-120522943D01*
X85550297Y-120433447D01*
X85548148Y-120297046D01*
X85548148Y-120017873D01*
X85715253Y-119854821D01*
X85744083Y-119827154D01*
X85835594Y-119744090D01*
X85924063Y-119669737D01*
X85993762Y-119617498D01*
X86030012Y-119593888D01*
X86266407Y-119464194D01*
X86513607Y-119366718D01*
X86763636Y-119303030D01*
X87008516Y-119274702D01*
X87240272Y-119283305D01*
G37*
G36*
X90029045Y-117030225D02*
G01*
X90028545Y-117131154D01*
X90023426Y-117217698D01*
X90007967Y-117270165D01*
X89976444Y-117297082D01*
X89923133Y-117306979D01*
X89842306Y-117308382D01*
X89799626Y-117310612D01*
X89693978Y-117324702D01*
X89564759Y-117348957D01*
X89427134Y-117380098D01*
X89296269Y-117414848D01*
X89187329Y-117449929D01*
X89082697Y-117492412D01*
X88953154Y-117553674D01*
X88822367Y-117623171D01*
X88698053Y-117696113D01*
X88587930Y-117767705D01*
X88499716Y-117833157D01*
X88441127Y-117887676D01*
X88419883Y-117926469D01*
X88416560Y-117939344D01*
X88385477Y-117966804D01*
X88370894Y-117976372D01*
X88325828Y-118021401D01*
X88264786Y-118093501D01*
X88195203Y-118183269D01*
X88124516Y-118281300D01*
X88060163Y-118378190D01*
X88028104Y-118425623D01*
X87987302Y-118475902D01*
X87960952Y-118495782D01*
X87958544Y-118495352D01*
X87930107Y-118470915D01*
X87885344Y-118416358D01*
X87832813Y-118341959D01*
X87761843Y-118239892D01*
X87618220Y-118058041D01*
X87469002Y-117897301D01*
X87325464Y-117770378D01*
X87185637Y-117673934D01*
X86948962Y-117547599D01*
X86685816Y-117443407D01*
X86408651Y-117366047D01*
X86129922Y-117320208D01*
X86035619Y-117309899D01*
X85953872Y-117294566D01*
X85904728Y-117267681D01*
X85879894Y-117219753D01*
X85871076Y-117141293D01*
X85869980Y-117022813D01*
X85870582Y-116923427D01*
X85873819Y-116850635D01*
X85881586Y-116809999D01*
X85895774Y-116792345D01*
X85918274Y-116788499D01*
X85952301Y-116790798D01*
X86034326Y-116802971D01*
X86129970Y-116821847D01*
X86218320Y-116843128D01*
X86278460Y-116862516D01*
X86288240Y-116866582D01*
X86351065Y-116889396D01*
X86426998Y-116913774D01*
X86505099Y-116941212D01*
X86660407Y-117011774D01*
X86833401Y-117106073D01*
X87013022Y-117217112D01*
X87188211Y-117337895D01*
X87347911Y-117461424D01*
X87481063Y-117580702D01*
X87485772Y-117585369D01*
X87638527Y-117754884D01*
X87768422Y-117940469D01*
X87887201Y-118158842D01*
X87957823Y-118303747D01*
X88025928Y-118153716D01*
X88044302Y-118114630D01*
X88185673Y-117875936D01*
X88372228Y-117648956D01*
X88604877Y-117432830D01*
X88884527Y-117226697D01*
X89212086Y-117029698D01*
X89251112Y-117009268D01*
X89405750Y-116940660D01*
X89579442Y-116878203D01*
X89751894Y-116828678D01*
X89902813Y-116798866D01*
X90029045Y-116782121D01*
X90029045Y-117030225D01*
G37*
G36*
X89397758Y-118805060D02*
G01*
X89509320Y-118819369D01*
X89712038Y-118861008D01*
X89922755Y-118920671D01*
X90127096Y-118993556D01*
X90310686Y-119074859D01*
X90459153Y-119159775D01*
X90517523Y-119201862D01*
X90616180Y-119280888D01*
X90703655Y-119359068D01*
X90821247Y-119472700D01*
X90821247Y-119814031D01*
X90821102Y-119854494D01*
X90818871Y-119972736D01*
X90814362Y-120068244D01*
X90808112Y-120132094D01*
X90800660Y-120155361D01*
X90781700Y-120140448D01*
X90744023Y-120093402D01*
X90698023Y-120025390D01*
X90611486Y-119905296D01*
X90481842Y-119756412D01*
X90330754Y-119605681D01*
X90170058Y-119464115D01*
X90011591Y-119342725D01*
X89867191Y-119252520D01*
X89731532Y-119187592D01*
X89525910Y-119117946D01*
X89304860Y-119078513D01*
X89054385Y-119066082D01*
X88819252Y-119076359D01*
X88616699Y-119110034D01*
X88436242Y-119171088D01*
X88266131Y-119263502D01*
X88094615Y-119391257D01*
X88060492Y-119419386D01*
X87998399Y-119465463D01*
X87956492Y-119481908D01*
X87923040Y-119471239D01*
X87886308Y-119435976D01*
X87864884Y-119414853D01*
X87783351Y-119352165D01*
X87674480Y-119283338D01*
X87552068Y-119216148D01*
X87429912Y-119158374D01*
X87321807Y-119117791D01*
X87244621Y-119096976D01*
X87140416Y-119078617D01*
X87018753Y-119068917D01*
X86863736Y-119066082D01*
X86835709Y-119066209D01*
X86586354Y-119081191D01*
X86364776Y-119124118D01*
X86158918Y-119199277D01*
X85956723Y-119310954D01*
X85746135Y-119463436D01*
X85735972Y-119471559D01*
X85527538Y-119653120D01*
X85356379Y-119835432D01*
X85211939Y-120029684D01*
X85176768Y-120081516D01*
X85138021Y-120129998D01*
X85110894Y-120145534D01*
X85093346Y-120124815D01*
X85083337Y-120064532D01*
X85078827Y-119961375D01*
X85077778Y-119812035D01*
X85077778Y-119464582D01*
X85257261Y-119312855D01*
X85365244Y-119229558D01*
X85587495Y-119093040D01*
X85841798Y-118973919D01*
X86117544Y-118877566D01*
X86201047Y-118854024D01*
X86301875Y-118830720D01*
X86398320Y-118817175D01*
X86508318Y-118811121D01*
X86649805Y-118810291D01*
X86744969Y-118811538D01*
X86862324Y-118816793D01*
X86956439Y-118828003D01*
X87043269Y-118847343D01*
X87138769Y-118876989D01*
X87223898Y-118906947D01*
X87457518Y-119005153D01*
X87649681Y-119113787D01*
X87806173Y-119235962D01*
X87949747Y-119368708D01*
X88047868Y-119280061D01*
X88163220Y-119185137D01*
X88389069Y-119040139D01*
X88635649Y-118926042D01*
X88892758Y-118846437D01*
X89150195Y-118804913D01*
X89397758Y-118805060D01*
G37*
G36*
X87412265Y-120022897D02*
G01*
X87436056Y-120042567D01*
X87485524Y-120093780D01*
X87548924Y-120165312D01*
X87618415Y-120247640D01*
X87686159Y-120331242D01*
X87744314Y-120406596D01*
X87785042Y-120464178D01*
X87800503Y-120494467D01*
X87796217Y-120503736D01*
X87754545Y-120521393D01*
X87675084Y-120531601D01*
X87549194Y-120539084D01*
X87662706Y-120708127D01*
X87679310Y-120733098D01*
X87728717Y-120810714D01*
X87763235Y-120870089D01*
X87776218Y-120899988D01*
X87773697Y-120905100D01*
X87739209Y-120917745D01*
X87677193Y-120922807D01*
X87655028Y-120923323D01*
X87600140Y-120930393D01*
X87578167Y-120943107D01*
X87592393Y-120965532D01*
X87634884Y-121011395D01*
X87695760Y-121069022D01*
X87813353Y-121174638D01*
X87826689Y-121946140D01*
X87840026Y-122717642D01*
X87727664Y-122890519D01*
X87718388Y-122904701D01*
X87654652Y-122998295D01*
X87592665Y-123083806D01*
X87544657Y-123144271D01*
X87537593Y-123152273D01*
X87487217Y-123199276D01*
X87433777Y-123220308D01*
X87354257Y-123225146D01*
X87314411Y-123223924D01*
X87251576Y-123215926D01*
X87220772Y-123202933D01*
X87219126Y-123196045D01*
X87230814Y-123161292D01*
X87267513Y-123099529D01*
X87331519Y-123007137D01*
X87425126Y-122880495D01*
X87482514Y-122804289D01*
X87397275Y-122804289D01*
X87317519Y-122800004D01*
X87233413Y-122788564D01*
X87213246Y-122784293D01*
X87174106Y-122768631D01*
X87160380Y-122736270D01*
X87162239Y-122670971D01*
X87169688Y-122569104D01*
X87361549Y-122561873D01*
X87553411Y-122554643D01*
X87552717Y-121930587D01*
X87552023Y-121306530D01*
X87366511Y-121113168D01*
X87305281Y-121047133D01*
X87244398Y-120975659D01*
X87205599Y-120922728D01*
X87195372Y-120896550D01*
X87203357Y-120890260D01*
X87249736Y-120878117D01*
X87319348Y-120873295D01*
X87428952Y-120873295D01*
X87305509Y-120694664D01*
X87281389Y-120659411D01*
X87230549Y-120582455D01*
X87195272Y-120525184D01*
X87182066Y-120497969D01*
X87187061Y-120492282D01*
X87226730Y-120480472D01*
X87293038Y-120472361D01*
X87404011Y-120464815D01*
X87318674Y-120357228D01*
X87233337Y-120249640D01*
X87110968Y-120377269D01*
X87041040Y-120459805D01*
X86962452Y-120569806D01*
X86898310Y-120676718D01*
X86887567Y-120696845D01*
X86842901Y-120773999D01*
X86805932Y-120828124D01*
X86783777Y-120848538D01*
X86777487Y-120841174D01*
X86769278Y-120792906D01*
X86765502Y-120704905D01*
X86766560Y-120583377D01*
X86773587Y-120318216D01*
X86897368Y-120224693D01*
X86901347Y-120221715D01*
X86986523Y-120166921D01*
X87087157Y-120114730D01*
X87191648Y-120069685D01*
X87288396Y-120036334D01*
X87365802Y-120019223D01*
X87412265Y-120022897D01*
G37*
G36*
X88580401Y-120009349D02*
G01*
X88651041Y-120030533D01*
X88744881Y-120068282D01*
X88848621Y-120116580D01*
X88948961Y-120169414D01*
X89032602Y-120220768D01*
X89162573Y-120309928D01*
X89162573Y-120566855D01*
X89161519Y-120647297D01*
X89157201Y-120738487D01*
X89150319Y-120800744D01*
X89141709Y-120823782D01*
X89130526Y-120816472D01*
X89100181Y-120776253D01*
X89063682Y-120712639D01*
X89042459Y-120674814D01*
X88989350Y-120593679D01*
X88924764Y-120505896D01*
X88856527Y-120421007D01*
X88792467Y-120348556D01*
X88740408Y-120298086D01*
X88708180Y-120279143D01*
X88691482Y-120285607D01*
X88647639Y-120321435D01*
X88596154Y-120378168D01*
X88516575Y-120477193D01*
X88629145Y-120477193D01*
X88658405Y-120477976D01*
X88719001Y-120487313D01*
X88741715Y-120504984D01*
X88738089Y-120514851D01*
X88708651Y-120557447D01*
X88656040Y-120621336D01*
X88588004Y-120696845D01*
X88434294Y-120860916D01*
X88538492Y-120868529D01*
X88597996Y-120877193D01*
X88634392Y-120898883D01*
X88636089Y-120938543D01*
X88603002Y-121001869D01*
X88535043Y-121094561D01*
X88523511Y-121109278D01*
X88475270Y-121171230D01*
X88438269Y-121223674D01*
X88411188Y-121273986D01*
X88392711Y-121329543D01*
X88381518Y-121397722D01*
X88376292Y-121485901D01*
X88375715Y-121601456D01*
X88378468Y-121751765D01*
X88383234Y-121944205D01*
X88398052Y-122544347D01*
X88588451Y-122556725D01*
X88778850Y-122569104D01*
X88786752Y-122665609D01*
X88787206Y-122671488D01*
X88784301Y-122742214D01*
X88757646Y-122782201D01*
X88699406Y-122796770D01*
X88601745Y-122791242D01*
X88553546Y-122787274D01*
X88491185Y-122788082D01*
X88461447Y-122797122D01*
X88461234Y-122803020D01*
X88480100Y-122841009D01*
X88522423Y-122902716D01*
X88581532Y-122978090D01*
X88601591Y-123002799D01*
X88659329Y-123079976D01*
X88699938Y-123143589D01*
X88715641Y-123181823D01*
X88714256Y-123196358D01*
X88697176Y-123214456D01*
X88652139Y-123223000D01*
X88568421Y-123225146D01*
X88500838Y-123223104D01*
X88442156Y-123216376D01*
X88419384Y-123206579D01*
X88409375Y-123186506D01*
X88375460Y-123133262D01*
X88323253Y-123056521D01*
X88258694Y-122965205D01*
X88098502Y-122742398D01*
X88098276Y-121974117D01*
X88098050Y-121205835D01*
X88185424Y-121070510D01*
X88272798Y-120935185D01*
X88173046Y-120927573D01*
X88150293Y-120925144D01*
X88095295Y-120911803D01*
X88073294Y-120893752D01*
X88077175Y-120883478D01*
X88106369Y-120840127D01*
X88157925Y-120774773D01*
X88224382Y-120697125D01*
X88375469Y-120526706D01*
X88262977Y-120526706D01*
X88230039Y-120525745D01*
X88167633Y-120517665D01*
X88136480Y-120504046D01*
X88135659Y-120501847D01*
X88146285Y-120468628D01*
X88178936Y-120414974D01*
X88223909Y-120355269D01*
X88271499Y-120303899D01*
X88272922Y-120302481D01*
X88298373Y-120273902D01*
X88345339Y-120219341D01*
X88404875Y-120149172D01*
X88414007Y-120138460D01*
X88475787Y-120071736D01*
X88527780Y-120024653D01*
X88559542Y-120006823D01*
X88580401Y-120009349D01*
G37*
G36*
X86903854Y-122197699D02*
G01*
X86904176Y-122248120D01*
X86905162Y-122459821D01*
X86905497Y-122655231D01*
X86905209Y-122828814D01*
X86904330Y-122975033D01*
X86902889Y-123088352D01*
X86900916Y-123163234D01*
X86898442Y-123194142D01*
X86893738Y-123200870D01*
X86850259Y-123218541D01*
X86774363Y-123225146D01*
X86662183Y-123225146D01*
X86662183Y-122345430D01*
X86662183Y-121465715D01*
X86408431Y-121472770D01*
X86154678Y-121479825D01*
X86142300Y-122346297D01*
X86129922Y-123212768D01*
X86030896Y-123212768D01*
X85931871Y-123212768D01*
X85925180Y-122699074D01*
X85918488Y-122185380D01*
X85819965Y-122185380D01*
X85721442Y-122185380D01*
X85721442Y-122706758D01*
X85721442Y-123228135D01*
X85628606Y-123220452D01*
X85535770Y-123212768D01*
X85529078Y-122699074D01*
X85522387Y-122185380D01*
X85424366Y-122185380D01*
X85326345Y-122185380D01*
X85319654Y-122699074D01*
X85312963Y-123212768D01*
X85226316Y-123212768D01*
X85139668Y-123212768D01*
X85132977Y-122699074D01*
X85126286Y-122185380D01*
X85015887Y-122185380D01*
X84905488Y-122185380D01*
X84898796Y-122699074D01*
X84892105Y-123212768D01*
X84822528Y-123220746D01*
X84780782Y-123223912D01*
X84745445Y-123218805D01*
X84719680Y-123199069D01*
X84701979Y-123158890D01*
X84690836Y-123092454D01*
X84684742Y-122993949D01*
X84682192Y-122857561D01*
X84681676Y-122677476D01*
X84681676Y-122185380D01*
X84595531Y-122185380D01*
X84509386Y-122185380D01*
X84502695Y-122699074D01*
X84496004Y-123212768D01*
X84396978Y-123212768D01*
X84297953Y-123212768D01*
X84291356Y-122564712D01*
X84289908Y-122418039D01*
X84288676Y-122254753D01*
X84288681Y-122131087D01*
X84290312Y-122041310D01*
X84293958Y-121979694D01*
X84300007Y-121940509D01*
X84308849Y-121918025D01*
X84320872Y-121906514D01*
X84336467Y-121900245D01*
X84364039Y-121893790D01*
X84433417Y-121895612D01*
X84486937Y-121919684D01*
X84508382Y-121960337D01*
X84509269Y-121971343D01*
X84532229Y-122001511D01*
X84593855Y-122016648D01*
X84621782Y-122019639D01*
X84662362Y-122016814D01*
X84679628Y-121990017D01*
X84686691Y-121926520D01*
X84689899Y-121888653D01*
X84701622Y-121844658D01*
X84733140Y-121826100D01*
X84799269Y-121818801D01*
X84904483Y-121811188D01*
X84904483Y-121909037D01*
X84904755Y-121941322D01*
X84912292Y-121987667D01*
X84940929Y-122007667D01*
X85004795Y-122016452D01*
X85027151Y-122018285D01*
X85086862Y-122019755D01*
X85116198Y-122014926D01*
X85121446Y-121990901D01*
X85125670Y-121930001D01*
X85127290Y-121847044D01*
X85127327Y-121815448D01*
X85129387Y-121743640D01*
X85138273Y-121706409D01*
X85159006Y-121692400D01*
X85196608Y-121690254D01*
X85243207Y-121694578D01*
X85292372Y-121721977D01*
X85317983Y-121781459D01*
X85325341Y-121880877D01*
X85325341Y-122012086D01*
X85423500Y-122012086D01*
X85521659Y-122012086D01*
X85528715Y-121758334D01*
X85535770Y-121504581D01*
X85622417Y-121504581D01*
X85709064Y-121504581D01*
X85716119Y-121758334D01*
X85723174Y-122012086D01*
X85820705Y-122012086D01*
X85918236Y-122012086D01*
X85925053Y-121622174D01*
X85931871Y-121232261D01*
X86414620Y-121232261D01*
X86897368Y-121232261D01*
X86903854Y-122197699D01*
G37*
G36*
X90023484Y-121622174D02*
G01*
X90030302Y-122012086D01*
X90116320Y-122012086D01*
X90202339Y-122012086D01*
X90202339Y-121764994D01*
X90202381Y-121707259D01*
X90203618Y-121614644D01*
X90208397Y-121557405D01*
X90219126Y-121525889D01*
X90238212Y-121510441D01*
X90268061Y-121501407D01*
X90281549Y-121498231D01*
X90337406Y-121493391D01*
X90375540Y-121511989D01*
X90399577Y-121560519D01*
X90413140Y-121645471D01*
X90419853Y-121773339D01*
X90426939Y-122012086D01*
X90523886Y-122012086D01*
X90620834Y-122012086D01*
X90628204Y-121857359D01*
X90635575Y-121702632D01*
X90722222Y-121702632D01*
X90808869Y-121702632D01*
X90816240Y-121857359D01*
X90823610Y-122012086D01*
X90919960Y-122012086D01*
X90943905Y-122011944D01*
X90994342Y-122005544D01*
X91015814Y-121979308D01*
X91023993Y-121919250D01*
X91025088Y-121906600D01*
X91035417Y-121851708D01*
X91063221Y-121827756D01*
X91124512Y-121818730D01*
X91154254Y-121816445D01*
X91198607Y-121819480D01*
X91214988Y-121845369D01*
X91217349Y-121907440D01*
X91217553Y-121925639D01*
X91221526Y-121985498D01*
X91228970Y-122015455D01*
X91239475Y-122021141D01*
X91285502Y-122023427D01*
X91343916Y-122013061D01*
X91394091Y-121994728D01*
X91415399Y-121973114D01*
X91418787Y-121957000D01*
X91454320Y-121920123D01*
X91513760Y-121898009D01*
X91578621Y-121899049D01*
X91638206Y-121914004D01*
X91638206Y-122553071D01*
X91637721Y-122707233D01*
X91636108Y-122866040D01*
X91633530Y-123002334D01*
X91630157Y-123109366D01*
X91626157Y-123180385D01*
X91621702Y-123208642D01*
X91581395Y-123224571D01*
X91520373Y-123224807D01*
X91462437Y-123211044D01*
X91430426Y-123185987D01*
X91430029Y-123184786D01*
X91425404Y-123145036D01*
X91421388Y-123064799D01*
X91418221Y-122952420D01*
X91416145Y-122816242D01*
X91415399Y-122664610D01*
X91415399Y-122182392D01*
X91322563Y-122190075D01*
X91229727Y-122197759D01*
X91239093Y-122657186D01*
X91241109Y-122797886D01*
X91241309Y-122934057D01*
X91239639Y-123047578D01*
X91236236Y-123129501D01*
X91231236Y-123170880D01*
X91219117Y-123196970D01*
X91184351Y-123219344D01*
X91116655Y-123225146D01*
X91019298Y-123225146D01*
X91019298Y-122703769D01*
X91019298Y-122182392D01*
X90926462Y-122190075D01*
X90833626Y-122197759D01*
X90826934Y-122711452D01*
X90820243Y-123225146D01*
X90722222Y-123225146D01*
X90624201Y-123225146D01*
X90617510Y-122711452D01*
X90610818Y-122197759D01*
X90517982Y-122190075D01*
X90425146Y-122182392D01*
X90424767Y-122672824D01*
X90424732Y-122693720D01*
X90423347Y-122844459D01*
X90420213Y-122978185D01*
X90415659Y-123086773D01*
X90410013Y-123162098D01*
X90403604Y-123196038D01*
X90367285Y-123217172D01*
X90298768Y-123220794D01*
X90214717Y-123212768D01*
X90208026Y-122699074D01*
X90201334Y-122185380D01*
X90115692Y-122185380D01*
X90030049Y-122185380D01*
X90023358Y-122699074D01*
X90016666Y-123212768D01*
X89905263Y-123212768D01*
X89793859Y-123212768D01*
X89787354Y-122340107D01*
X89780848Y-121467447D01*
X89533918Y-121467447D01*
X89286988Y-121467447D01*
X89280482Y-122340107D01*
X89273976Y-123212768D01*
X89162573Y-123212768D01*
X89051169Y-123212768D01*
X89051169Y-122222515D01*
X89051169Y-121232261D01*
X89533918Y-121232261D01*
X90016666Y-121232261D01*
X90023484Y-121622174D01*
G37*
G36*
X87411096Y-123640127D02*
G01*
X87620065Y-123709196D01*
X87848609Y-123737598D01*
X88104041Y-123727767D01*
X88335606Y-123688943D01*
X88570577Y-123610731D01*
X88711450Y-123530862D01*
X89311111Y-123530862D01*
X89321646Y-123555216D01*
X89353957Y-123613116D01*
X89402316Y-123694580D01*
X89460888Y-123790285D01*
X89523833Y-123890908D01*
X89585316Y-123987128D01*
X89639499Y-124069622D01*
X89680545Y-124129066D01*
X89702617Y-124156138D01*
X89743438Y-124175472D01*
X89817628Y-124200492D01*
X89907654Y-124224940D01*
X89910546Y-124225638D01*
X89993887Y-124245074D01*
X90055452Y-124258226D01*
X90082099Y-124262279D01*
X90105648Y-124253519D01*
X90155559Y-124233959D01*
X90220182Y-124208273D01*
X90071133Y-123945706D01*
X90011476Y-123842156D01*
X89956279Y-123749246D01*
X89912961Y-123679374D01*
X89887640Y-123642643D01*
X89853097Y-123620700D01*
X89770665Y-123595289D01*
X89650233Y-123573474D01*
X89627628Y-123570274D01*
X89524301Y-123555500D01*
X89435785Y-123542625D01*
X89379191Y-123534131D01*
X89332220Y-123528825D01*
X89311111Y-123530862D01*
X88711450Y-123530862D01*
X88772227Y-123496404D01*
X88941121Y-123345703D01*
X89029123Y-123248324D01*
X89262953Y-123273490D01*
X89316783Y-123279555D01*
X89462381Y-123297631D01*
X89619682Y-123318918D01*
X89762918Y-123339987D01*
X90029053Y-123381319D01*
X90121885Y-123542668D01*
X90191626Y-123663624D01*
X90271550Y-123800890D01*
X90332699Y-123903296D01*
X90378324Y-123975679D01*
X90411674Y-124022878D01*
X90435999Y-124049730D01*
X90454550Y-124061072D01*
X90470575Y-124061743D01*
X90471086Y-124061641D01*
X90513407Y-124032367D01*
X90561642Y-123968843D01*
X90608447Y-123884309D01*
X90646475Y-123792005D01*
X90668382Y-123705173D01*
X90668979Y-123701043D01*
X90681348Y-123634874D01*
X90697674Y-123594083D01*
X90720927Y-123581173D01*
X90754077Y-123598644D01*
X90800093Y-123648997D01*
X90861946Y-123734732D01*
X90942606Y-123858351D01*
X91045041Y-124022354D01*
X91072073Y-124066099D01*
X91155323Y-124200692D01*
X91230275Y-124321687D01*
X91292501Y-124421948D01*
X91329938Y-124482076D01*
X91337576Y-124494343D01*
X91361074Y-124531736D01*
X91378016Y-124563262D01*
X91377389Y-124592882D01*
X91351132Y-124629724D01*
X91293626Y-124686701D01*
X91195246Y-124767579D01*
X91010877Y-124872828D01*
X90802119Y-124944351D01*
X90777762Y-124949973D01*
X90562137Y-124977435D01*
X90344159Y-124968699D01*
X90134665Y-124925873D01*
X89944491Y-124851064D01*
X89784476Y-124746382D01*
X89776234Y-124739301D01*
X89736093Y-124700122D01*
X89693013Y-124648964D01*
X89643536Y-124580576D01*
X89584205Y-124489708D01*
X89571615Y-124469154D01*
X89877692Y-124469154D01*
X89933432Y-124528487D01*
X89965568Y-124556674D01*
X90038117Y-124606276D01*
X90121471Y-124652547D01*
X90272495Y-124704095D01*
X90448704Y-124726438D01*
X90631036Y-124718589D01*
X90803856Y-124681253D01*
X90951529Y-124615134D01*
X90978583Y-124597130D01*
X91031700Y-124541718D01*
X91037982Y-124482076D01*
X90999202Y-124410600D01*
X90977639Y-124379982D01*
X90931866Y-124308344D01*
X90884176Y-124227778D01*
X90853677Y-124174401D01*
X90821684Y-124119577D01*
X90806160Y-124094595D01*
X90788631Y-124104192D01*
X90746115Y-124141407D01*
X90688620Y-124198066D01*
X90677460Y-124208273D01*
X90588099Y-124290001D01*
X90445775Y-124379971D01*
X90285871Y-124434141D01*
X90095717Y-124458066D01*
X89877692Y-124469154D01*
X89571615Y-124469154D01*
X89511561Y-124371111D01*
X89422147Y-124219534D01*
X89312507Y-124029727D01*
X89242409Y-123908385D01*
X89175778Y-123794662D01*
X89120617Y-123702211D01*
X89081258Y-123638289D01*
X89062034Y-123610156D01*
X89056079Y-123606438D01*
X89017368Y-123616662D01*
X88958381Y-123663295D01*
X88937179Y-123682011D01*
X88842098Y-123748975D01*
X88722433Y-123816451D01*
X88596038Y-123875020D01*
X88480769Y-123915261D01*
X88432780Y-123925327D01*
X88339057Y-123939766D01*
X88222418Y-123954211D01*
X88097671Y-123966675D01*
X88003154Y-123974284D01*
X87888862Y-123979779D01*
X87793932Y-123977306D01*
X87700460Y-123966115D01*
X87590546Y-123945458D01*
X87376353Y-123888758D01*
X87159810Y-123796762D01*
X86984782Y-123678051D01*
X86941103Y-123644014D01*
X86889911Y-123614256D01*
X86861995Y-123611736D01*
X86860428Y-123613780D01*
X86839198Y-123647552D01*
X86799294Y-123714321D01*
X86745566Y-123805711D01*
X86682864Y-123913342D01*
X86616040Y-124028837D01*
X86549943Y-124143817D01*
X86489426Y-124249904D01*
X86439337Y-124338719D01*
X86404529Y-124401886D01*
X86385805Y-124434327D01*
X86341997Y-124499070D01*
X86323643Y-124526195D01*
X86248773Y-124622529D01*
X86173835Y-124707637D01*
X86111465Y-124765823D01*
X86086940Y-124783842D01*
X85902495Y-124885839D01*
X85696808Y-124949644D01*
X85478426Y-124975598D01*
X85255900Y-124964041D01*
X85037776Y-124915311D01*
X84832605Y-124829749D01*
X84648933Y-124707695D01*
X84628534Y-124690053D01*
X84572315Y-124620685D01*
X84562185Y-124553174D01*
X84575478Y-124524751D01*
X84879896Y-124524751D01*
X84892599Y-124551121D01*
X84942841Y-124592872D01*
X85020328Y-124636210D01*
X85113262Y-124674789D01*
X85209844Y-124702260D01*
X85336451Y-124722975D01*
X85536608Y-124726468D01*
X85716898Y-124688190D01*
X85882722Y-124607378D01*
X85919473Y-124583643D01*
X85990757Y-124532865D01*
X86018712Y-124499070D01*
X86001795Y-124478101D01*
X85938458Y-124465804D01*
X85827155Y-124458023D01*
X85692567Y-124444464D01*
X85523233Y-124399616D01*
X85375853Y-124320314D01*
X85255445Y-124216124D01*
X85737020Y-124216124D01*
X85779744Y-124237979D01*
X85861149Y-124247143D01*
X85961774Y-124239400D01*
X86067573Y-124216970D01*
X86164494Y-124182072D01*
X86238490Y-124136924D01*
X86249938Y-124124195D01*
X86286138Y-124074344D01*
X86336904Y-123998395D01*
X86396260Y-123905979D01*
X86458228Y-123806727D01*
X86516830Y-123710272D01*
X86566090Y-123626245D01*
X86600029Y-123564277D01*
X86612670Y-123534000D01*
X86612558Y-123533226D01*
X86599687Y-123528986D01*
X86561361Y-123530446D01*
X86491738Y-123538247D01*
X86384979Y-123553031D01*
X86235242Y-123575438D01*
X86210782Y-123579142D01*
X86149253Y-123589695D01*
X86101664Y-123604242D01*
X86061522Y-123629240D01*
X86022333Y-123671143D01*
X85977603Y-123736406D01*
X85920841Y-123831486D01*
X85845552Y-123962836D01*
X85814773Y-124017959D01*
X85764819Y-124116331D01*
X85738157Y-124184123D01*
X85737020Y-124216124D01*
X85255445Y-124216124D01*
X85238264Y-124201257D01*
X85131667Y-124091577D01*
X85005697Y-124295734D01*
X84973139Y-124349357D01*
X84925119Y-124432184D01*
X84892121Y-124494138D01*
X84879896Y-124524751D01*
X84575478Y-124524751D01*
X84596408Y-124479998D01*
X84616724Y-124449743D01*
X84660417Y-124381811D01*
X84717236Y-124291685D01*
X84780026Y-124190644D01*
X84817058Y-124130620D01*
X84897351Y-124000482D01*
X84977261Y-123870962D01*
X85043982Y-123762820D01*
X85062010Y-123733995D01*
X85127248Y-123639594D01*
X85176363Y-123589657D01*
X85212098Y-123583342D01*
X85237196Y-123619806D01*
X85254402Y-123698207D01*
X85262665Y-123742364D01*
X85293879Y-123841912D01*
X85337478Y-123933438D01*
X85387237Y-124006972D01*
X85436934Y-124052543D01*
X85480343Y-124060179D01*
X85490168Y-124052172D01*
X85524892Y-124007565D01*
X85575561Y-123931377D01*
X85637031Y-123831523D01*
X85704156Y-123715915D01*
X85890413Y-123386063D01*
X86171084Y-123342751D01*
X86250608Y-123330751D01*
X86401780Y-123309031D01*
X86550098Y-123288872D01*
X86672552Y-123273455D01*
X86893349Y-123247471D01*
X87019140Y-123366954D01*
X87022631Y-123370262D01*
X87214389Y-123527960D01*
X87224981Y-123534000D01*
X87411096Y-123640127D01*
G37*
D13*
%TO.C,J1*%
X105325000Y-135232500D02*
X111075000Y-135232500D01*
X105325000Y-142632500D02*
X105325000Y-135232500D01*
X111075000Y-135232500D02*
X111075000Y-142632500D01*
X111075000Y-142632500D02*
X105325000Y-142632500D01*
D14*
X107775000Y-134492500D02*
G75*
G02*
X107575000Y-134492500I-100000J0D01*
G01*
X107575000Y-134492500D02*
G75*
G02*
X107775000Y-134492500I100000J0D01*
G01*
%TD*%
M02*
