%TF.GenerationSoftware,KiCad,Pcbnew,8.0.4*%
%TF.CreationDate,2024-10-23T23:59:55+06:00*%
%TF.ProjectId,PCB V0.6.3,50434220-5630-42e3-962e-332e6b696361,rev?*%
%TF.SameCoordinates,Original*%
%TF.FileFunction,Copper,L2,Bot*%
%TF.FilePolarity,Positive*%
%FSLAX46Y46*%
G04 Gerber Fmt 4.6, Leading zero omitted, Abs format (unit mm)*
G04 Created by KiCad (PCBNEW 8.0.4) date 2024-10-23 23:59:55*
%MOMM*%
%LPD*%
G01*
G04 APERTURE LIST*
G04 Aperture macros list*
%AMRoundRect*
0 Rectangle with rounded corners*
0 $1 Rounding radius*
0 $2 $3 $4 $5 $6 $7 $8 $9 X,Y pos of 4 corners*
0 Add a 4 corners polygon primitive as box body*
4,1,4,$2,$3,$4,$5,$6,$7,$8,$9,$2,$3,0*
0 Add four circle primitives for the rounded corners*
1,1,$1+$1,$2,$3*
1,1,$1+$1,$4,$5*
1,1,$1+$1,$6,$7*
1,1,$1+$1,$8,$9*
0 Add four rect primitives between the rounded corners*
20,1,$1+$1,$2,$3,$4,$5,0*
20,1,$1+$1,$4,$5,$6,$7,0*
20,1,$1+$1,$6,$7,$8,$9,0*
20,1,$1+$1,$8,$9,$2,$3,0*%
G04 Aperture macros list end*
%TA.AperFunction,ComponentPad*%
%ADD10C,1.524000*%
%TD*%
%TA.AperFunction,ComponentPad*%
%ADD11R,1.800000X1.800000*%
%TD*%
%TA.AperFunction,ComponentPad*%
%ADD12C,1.800000*%
%TD*%
%TA.AperFunction,ComponentPad*%
%ADD13C,1.400000*%
%TD*%
%TA.AperFunction,ComponentPad*%
%ADD14O,1.400000X1.400000*%
%TD*%
%TA.AperFunction,ComponentPad*%
%ADD15R,2.540000X2.540000*%
%TD*%
%TA.AperFunction,ComponentPad*%
%ADD16C,2.540000*%
%TD*%
%TA.AperFunction,ComponentPad*%
%ADD17RoundRect,0.200100X0.949900X0.949900X-0.949900X0.949900X-0.949900X-0.949900X0.949900X-0.949900X0*%
%TD*%
%TA.AperFunction,ComponentPad*%
%ADD18C,2.500000*%
%TD*%
%TA.AperFunction,ComponentPad*%
%ADD19R,1.500000X1.500000*%
%TD*%
%TA.AperFunction,ComponentPad*%
%ADD20O,1.500000X1.500000*%
%TD*%
%TA.AperFunction,ComponentPad*%
%ADD21R,1.600000X1.600000*%
%TD*%
%TA.AperFunction,ComponentPad*%
%ADD22C,1.600000*%
%TD*%
%TA.AperFunction,ComponentPad*%
%ADD23R,1.200000X1.200000*%
%TD*%
%TA.AperFunction,ComponentPad*%
%ADD24C,1.200000*%
%TD*%
%TA.AperFunction,ComponentPad*%
%ADD25R,1.298000X1.298000*%
%TD*%
%TA.AperFunction,ComponentPad*%
%ADD26C,1.298000*%
%TD*%
%TA.AperFunction,ComponentPad*%
%ADD27R,1.575000X1.575000*%
%TD*%
%TA.AperFunction,ComponentPad*%
%ADD28C,1.575000*%
%TD*%
%TA.AperFunction,ComponentPad*%
%ADD29R,1.508000X1.508000*%
%TD*%
%TA.AperFunction,ComponentPad*%
%ADD30C,1.508000*%
%TD*%
%TA.AperFunction,ComponentPad*%
%ADD31R,1.524000X1.524000*%
%TD*%
%TA.AperFunction,ComponentPad*%
%ADD32O,1.524000X1.524000*%
%TD*%
%TA.AperFunction,ViaPad*%
%ADD33C,0.600000*%
%TD*%
%TA.AperFunction,Conductor*%
%ADD34C,0.200000*%
%TD*%
%TA.AperFunction,Conductor*%
%ADD35C,2.000000*%
%TD*%
%TA.AperFunction,Conductor*%
%ADD36C,1.000000*%
%TD*%
G04 APERTURE END LIST*
D10*
%TO.P,U3,1,GND*%
%TO.N,V GND*%
X86405000Y-114320000D03*
%TO.P,U3,2,Tx/SDA*%
%TO.N,SDA*%
X88945000Y-114320000D03*
%TO.P,U3,3,Rx/SCL*%
%TO.N,SCL*%
X91485000Y-114320000D03*
%TO.P,U3,4,Vcc*%
%TO.N,5V*%
X86445000Y-132180000D03*
%TO.P,U3,5,PRB*%
%TO.N,Net-(J6-In)*%
X88985000Y-132180000D03*
%TO.P,U3,6,PRBG*%
%TO.N,Net-(J6-Ext)*%
X91525000Y-132180000D03*
%TD*%
D11*
%TO.P,D2,1,K*%
%TO.N,Net-(D2-K)*%
X101900000Y-79140000D03*
D12*
%TO.P,D2,2,A*%
%TO.N,Net-(D2-A)*%
X101900000Y-76600000D03*
%TD*%
D13*
%TO.P,R3,1*%
%TO.N,Net-(J4-Pad3)*%
X104200000Y-87310000D03*
D14*
%TO.P,R3,2*%
%TO.N,V GND*%
X104200000Y-79690000D03*
%TD*%
D15*
%TO.P,U5,1,Vin*%
%TO.N,CHRG rectified*%
X82230000Y-177300000D03*
D16*
%TO.P,U5,2,GND*%
%TO.N,GND*%
X100010000Y-177300000D03*
%TO.P,U5,3,GND*%
X100030000Y-137300000D03*
%TO.P,U5,4,Vout*%
%TO.N,5V*%
X82250000Y-137300000D03*
%TD*%
D13*
%TO.P,R2,1*%
%TO.N,V GND*%
X104200000Y-75810000D03*
D14*
%TO.P,R2,2*%
%TO.N,Net-(U2-D7)*%
X104200000Y-68190000D03*
%TD*%
D13*
%TO.P,R6,1*%
%TO.N,Net-(D3-K)*%
X95100000Y-75500000D03*
D14*
%TO.P,R6,2*%
%TO.N,GND*%
X95100000Y-83120000D03*
%TD*%
D11*
%TO.P,D3,1,K*%
%TO.N,Net-(D3-K)*%
X101600000Y-67300000D03*
D12*
%TO.P,D3,2,A*%
%TO.N,Net-(D3-A)*%
X101600000Y-69840000D03*
%TD*%
D13*
%TO.P,R7,1*%
%TO.N,CHRG rectified*%
X86800000Y-160500000D03*
D14*
%TO.P,R7,2*%
%TO.N,V_sense*%
X86800000Y-155420000D03*
%TD*%
D17*
%TO.P,J6,1,In*%
%TO.N,Net-(J6-In)*%
X107400000Y-150050000D03*
D18*
%TO.P,J6,2,Ext*%
%TO.N,Net-(J6-Ext)*%
X109940000Y-152590000D03*
X109940000Y-147510000D03*
X104860000Y-152590000D03*
X104860000Y-147510000D03*
%TD*%
D10*
%TO.P,U4,1,GND*%
%TO.N,V GND*%
X102320000Y-107800000D03*
%TO.P,U4,2,Tx/SDA*%
%TO.N,SDA*%
X104860000Y-107800000D03*
%TO.P,U4,3,Rx/SCL*%
%TO.N,SCL*%
X107400000Y-107800000D03*
%TO.P,U4,4,Vcc*%
%TO.N,5V*%
X102360000Y-125560000D03*
%TO.P,U4,5,PRB*%
%TO.N,Net-(J1-Pad2)*%
X104900000Y-125560000D03*
%TO.P,U4,6,PRB*%
%TO.N,Net-(J1-Pad1)*%
X107440000Y-125560000D03*
%TD*%
D19*
%TO.P,D1,1,K*%
%TO.N,CHRG rectified*%
X104400000Y-170400000D03*
D20*
%TO.P,D1,2,A*%
%TO.N,CHRG IN*%
X104400000Y-178020000D03*
%TD*%
D13*
%TO.P,R8,1*%
%TO.N,V_sense*%
X89900000Y-155400000D03*
D14*
%TO.P,R8,2*%
%TO.N,GND*%
X89900000Y-160480000D03*
%TD*%
D21*
%TO.P,U2,1,TX*%
%TO.N,TX*%
X98400000Y-95060000D03*
D22*
%TO.P,U2,2,RX*%
%TO.N,RX*%
X98400000Y-92520000D03*
%TO.P,U2,3,GND*%
%TO.N,GND*%
X98400000Y-89980000D03*
%TO.P,U2,4,GND*%
X98400000Y-87440000D03*
%TO.P,U2,5,SDA*%
%TO.N,SDA*%
X98400000Y-84900000D03*
%TO.P,U2,6,SCL*%
%TO.N,SCL*%
X98400000Y-82360000D03*
%TO.P,U2,7,D4*%
%TO.N,Net-(D2-A)*%
X98400000Y-79820000D03*
%TO.P,U2,8,C6*%
%TO.N,Net-(U2-C6)*%
X98400000Y-77280000D03*
%TO.P,U2,9,D7*%
%TO.N,Net-(U2-D7)*%
X98400000Y-74740000D03*
%TO.P,U2,10,E6*%
%TO.N,P_EN*%
X98400000Y-72200000D03*
%TO.P,U2,11,B4*%
%TO.N,Net-(D3-A)*%
X98400000Y-69660000D03*
%TO.P,U2,12,B5*%
%TO.N,V_sense*%
X98400000Y-67120000D03*
%TO.P,U2,13,B6*%
%TO.N,unconnected-(U2-B6-Pad13)*%
X83160000Y-67120000D03*
%TO.P,U2,14,B2*%
%TO.N,MOSI*%
X83160000Y-69660000D03*
%TO.P,U2,15,B3*%
%TO.N,MISO*%
X83160000Y-72200000D03*
%TO.P,U2,16,B1*%
%TO.N,SCLK*%
X83160000Y-74740000D03*
%TO.P,U2,17,F7*%
%TO.N,NRF CS*%
X83160000Y-77280000D03*
%TO.P,U2,18,F6*%
%TO.N,NRF CE*%
X83160000Y-79820000D03*
%TO.P,U2,19,F5*%
%TO.N,SD CS*%
X83160000Y-82360000D03*
%TO.P,U2,20,F4*%
%TO.N,unconnected-(U2-F4-Pad20)*%
X83160000Y-84900000D03*
%TO.P,U2,21,VCC*%
%TO.N,5V*%
X83160000Y-87440000D03*
%TO.P,U2,22,RST*%
%TO.N,unconnected-(U2-RST-Pad22)*%
X83160000Y-89980000D03*
%TO.P,U2,23,GND*%
%TO.N,GND*%
X83160000Y-92520000D03*
%TO.P,U2,24,RAW*%
%TO.N,unconnected-(U2-RAW-Pad24)*%
X83160000Y-95060000D03*
%TD*%
D23*
%TO.P,C1,1*%
%TO.N,3.3V*%
X99400000Y-102200000D03*
D24*
%TO.P,C1,2*%
%TO.N,V GND*%
X101400000Y-102200000D03*
%TD*%
D13*
%TO.P,R4,1*%
%TO.N,Net-(U2-C6)*%
X92240000Y-79100000D03*
D14*
%TO.P,R4,2*%
%TO.N,5V*%
X87160000Y-79100000D03*
%TD*%
D25*
%TO.P,Q1,1*%
%TO.N,GND*%
X110070000Y-171860000D03*
D26*
%TO.P,Q1,2*%
%TO.N,Net-(Q1-Pad2)*%
X110070000Y-174400000D03*
%TO.P,Q1,3*%
%TO.N,V GND*%
X110070000Y-176940000D03*
%TD*%
D13*
%TO.P,R1,1*%
%TO.N,P_EN*%
X105460000Y-166800000D03*
D14*
%TO.P,R1,2*%
%TO.N,Net-(Q1-Pad2)*%
X110540000Y-166800000D03*
%TD*%
D13*
%TO.P,R5,1*%
%TO.N,Net-(D2-K)*%
X101800000Y-82200000D03*
D14*
%TO.P,R5,2*%
%TO.N,GND*%
X101800000Y-89820000D03*
%TD*%
D23*
%TO.P,C2,1*%
%TO.N,5V*%
X108172600Y-102200000D03*
D24*
%TO.P,C2,2*%
%TO.N,V GND*%
X106172600Y-102200000D03*
%TD*%
D27*
%TO.P,J5,1,1*%
%TO.N,CHRG IN*%
X103300000Y-182800000D03*
D28*
%TO.P,J5,2,2*%
%TO.N,GND*%
X100800000Y-182800000D03*
%TD*%
D10*
%TO.P,M8N_GPS1,1,Vcc*%
%TO.N,5V*%
X88720000Y-88500000D03*
%TO.P,M8N_GPS1,2,RX*%
%TO.N,TX*%
X91260000Y-88500000D03*
%TO.P,M8N_GPS1,3,TX*%
%TO.N,RX*%
X93800000Y-88500000D03*
%TO.P,M8N_GPS1,4,GND*%
%TO.N,GND*%
X96340000Y-88500000D03*
%TD*%
D29*
%TO.P,J3,1,1*%
%TO.N,BAT+*%
X93100000Y-182800000D03*
D30*
%TO.P,J3,2,2*%
%TO.N,BAT M*%
X90600000Y-182800000D03*
%TO.P,J3,3,3*%
%TO.N,BAT -*%
X88100000Y-182800000D03*
%TD*%
D31*
%TO.P,U1,1,GND*%
%TO.N,V GND*%
X107610000Y-131443500D03*
D32*
%TO.P,U1,2,VCC*%
%TO.N,3.3V*%
X107610000Y-128903500D03*
%TO.P,U1,3,CE*%
%TO.N,Net-(U1-CE)*%
X105070000Y-131443500D03*
%TO.P,U1,4,~{CSN}*%
%TO.N,NRF CS*%
X105070000Y-128903500D03*
%TO.P,U1,5,SCK*%
%TO.N,Net-(P1-CLK{slash}SCK)*%
X102530000Y-131443500D03*
%TO.P,U1,6,MOSI*%
%TO.N,Net-(P1-CMD{slash}MOSI)*%
X102530000Y-128903500D03*
%TO.P,U1,7,MISO*%
%TO.N,MISO*%
X99990000Y-131443500D03*
%TO.P,U1,8,IRQ*%
%TO.N,unconnected-(U1-IRQ-Pad8)*%
X99990000Y-128903500D03*
%TD*%
D29*
%TO.P,J4,1,1*%
%TO.N,5V*%
X108600000Y-80200000D03*
D30*
%TO.P,J4,2,2*%
%TO.N,Net-(U2-D7)*%
X108600000Y-82700000D03*
%TO.P,J4,3,3*%
%TO.N,Net-(J4-Pad3)*%
X108600000Y-85200000D03*
%TD*%
D29*
%TO.P,J2,1,1*%
%TO.N,5V*%
X109000000Y-69000000D03*
D30*
%TO.P,J2,2,2*%
%TO.N,Net-(U2-C6)*%
X109000000Y-71500000D03*
%TO.P,J2,3,3*%
%TO.N,V GND*%
X109000000Y-74000000D03*
%TD*%
D10*
%TO.P,U6,1,P-*%
%TO.N,GND*%
X96800000Y-177800000D03*
%TO.P,U6,2,P+*%
%TO.N,CHRG rectified*%
X92800000Y-177800000D03*
%TO.P,U6,3,B-*%
%TO.N,BAT -*%
X95780000Y-141420000D03*
%TO.P,U6,4,BM*%
%TO.N,BAT M*%
X85600000Y-178700000D03*
%TO.P,U6,5,B+*%
%TO.N,BAT+*%
X85620000Y-141420000D03*
%TD*%
%TO.P,U7,GND_1,GND*%
%TO.N,V GND*%
X82520000Y-105870000D03*
%TO.P,U7,GND_2,GND*%
X92680000Y-105870000D03*
%TO.P,U7,HV,HV*%
%TO.N,5V*%
X82520000Y-103330000D03*
D31*
%TO.P,U7,HV1,HV1*%
%TO.N,SCLK*%
X82520000Y-98250000D03*
D10*
%TO.P,U7,HV2,HV2*%
%TO.N,MOSI*%
X82520000Y-100790000D03*
%TO.P,U7,HV3,HV3*%
%TO.N,NRF CE*%
X82520000Y-108410000D03*
%TO.P,U7,HV4,HV4*%
%TO.N,SD CS*%
X82520000Y-110950000D03*
%TO.P,U7,LV,LV*%
%TO.N,3.3V*%
X92680000Y-103330000D03*
D31*
%TO.P,U7,LV1,LV1*%
%TO.N,Net-(P1-CLK{slash}SCK)*%
X92680000Y-98250000D03*
D10*
%TO.P,U7,LV2,LV2*%
%TO.N,Net-(P1-CMD{slash}MOSI)*%
X92680000Y-100790000D03*
%TO.P,U7,LV3,LV3*%
%TO.N,Net-(U1-CE)*%
X92680000Y-108410000D03*
%TO.P,U7,LV4,LV4*%
%TO.N,Net-(P1-DAT3{slash}CS)*%
X92680000Y-110950000D03*
%TD*%
D27*
%TO.P,J1,1,1*%
%TO.N,Net-(J1-Pad1)*%
X107675000Y-137682500D03*
D28*
%TO.P,J1,2,2*%
%TO.N,Net-(J1-Pad2)*%
X107675000Y-140182500D03*
%TD*%
D33*
%TO.N,Net-(P1-DAT3{slash}CS)*%
X99787200Y-113251200D03*
%TO.N,Net-(U1-CE)*%
X97931600Y-118682900D03*
X97584400Y-109538000D03*
%TO.N,NRF CS*%
X101066800Y-95300500D03*
%TO.N,Net-(J6-In)*%
X102884000Y-142814900D03*
%TO.N,Net-(J6-Ext)*%
X102680000Y-144519800D03*
%TO.N,GND*%
X87400000Y-95200000D03*
%TO.N,3.3V*%
X106689200Y-101088500D03*
%TO.N,5V*%
X102600000Y-115000000D03*
%TO.N,Net-(P1-CLK{slash}SCK)*%
X96711600Y-119609400D03*
%TO.N,Net-(P1-CMD{slash}MOSI)*%
X92956300Y-126738500D03*
X101011200Y-105144500D03*
%TO.N,MISO*%
X97818800Y-123092200D03*
X91931600Y-117663400D03*
%TD*%
D34*
%TO.N,Net-(J4-Pad3)*%
X108600000Y-85200000D02*
X106310000Y-85200000D01*
X106310000Y-85200000D02*
X104200000Y-87310000D01*
%TO.N,Net-(U2-D7)*%
X107154200Y-81254200D02*
X108600000Y-82700000D01*
X99994200Y-73145800D02*
X100245800Y-73145800D01*
X103101700Y-76195500D02*
X107154200Y-80248000D01*
X103101700Y-76001700D02*
X103101700Y-76195500D01*
X100245900Y-73145800D02*
X103101700Y-76001700D01*
X104200000Y-68190000D02*
X104200000Y-69191700D01*
X107154200Y-80248000D02*
X107154200Y-81254200D01*
X100245900Y-73145800D02*
X104200000Y-69191700D01*
X98400000Y-74740000D02*
X99994200Y-73145800D01*
X100245800Y-73145800D02*
X100245900Y-73145800D01*
%TO.N,Net-(P1-DAT3{slash}CS)*%
X99787200Y-113251200D02*
X94981200Y-113251200D01*
X94981200Y-113251200D02*
X92680000Y-110950000D01*
%TO.N,Net-(D2-A)*%
X101620000Y-76600000D02*
X101900000Y-76600000D01*
X98400000Y-79820000D02*
X101620000Y-76600000D01*
%TO.N,Net-(U1-CE)*%
X97931600Y-118682900D02*
X99573900Y-118682900D01*
X106150300Y-125259300D02*
X106150300Y-129409700D01*
X106150300Y-129409700D02*
X105180200Y-130379800D01*
X105070000Y-131443500D02*
X105070000Y-130379800D01*
X96456400Y-108410000D02*
X97584400Y-109538000D01*
X105180200Y-130379800D02*
X105070000Y-130379800D01*
X92680000Y-108410000D02*
X96456400Y-108410000D01*
X99573900Y-118682900D02*
X106150300Y-125259300D01*
%TO.N,NRF CS*%
X92530000Y-88750000D02*
X92530000Y-86650000D01*
X97456700Y-93676700D02*
X92530000Y-88750000D01*
X101066800Y-95300500D02*
X99443000Y-93676700D01*
X99443000Y-93676700D02*
X97456700Y-93676700D01*
X92530000Y-86650000D02*
X83160000Y-77280000D01*
%TO.N,Net-(D3-K)*%
X100398300Y-67300000D02*
X99308300Y-68390000D01*
X101600000Y-67300000D02*
X100398300Y-67300000D01*
X95100000Y-71392300D02*
X95100000Y-75500000D01*
X98102300Y-68390000D02*
X95100000Y-71392300D01*
X99308300Y-68390000D02*
X98102300Y-68390000D01*
%TO.N,SD CS*%
X82520000Y-110950000D02*
X81425500Y-109855500D01*
X81425500Y-84094500D02*
X83160000Y-82360000D01*
X81425500Y-109855500D02*
X81425500Y-84094500D01*
%TO.N,Net-(J6-In)*%
X90055500Y-131109500D02*
X91979600Y-131109500D01*
X88985000Y-132180000D02*
X90055500Y-131109500D01*
X91979600Y-131109500D02*
X92858300Y-131988200D01*
X92858300Y-132789200D02*
X102884000Y-142814900D01*
X92858300Y-131988200D02*
X92858300Y-132789200D01*
%TO.N,Net-(J6-Ext)*%
X104860000Y-152590000D02*
X109940000Y-152590000D01*
X104860000Y-147510000D02*
X109940000Y-147510000D01*
X102680000Y-144519800D02*
X91525000Y-133364800D01*
X91525000Y-133364800D02*
X91525000Y-132180000D01*
D35*
%TO.N,CHRG IN*%
X103300000Y-180710800D02*
X103939100Y-180071700D01*
X104400000Y-178020000D02*
X104400000Y-180071700D01*
X103300000Y-182800000D02*
X103300000Y-180710800D01*
X103939100Y-180071700D02*
X104400000Y-180071700D01*
%TO.N,CHRG rectified*%
X91372100Y-176372100D02*
X86800000Y-176372100D01*
X92800000Y-177800000D02*
X91372100Y-176372100D01*
X86800000Y-160500000D02*
X86800000Y-176372100D01*
X92800000Y-177800000D02*
X100200000Y-170400000D01*
X104400000Y-170400000D02*
X102348300Y-170400000D01*
X83157900Y-176372100D02*
X82230000Y-177300000D01*
X100200000Y-170400000D02*
X102348300Y-170400000D01*
X86800000Y-176372100D02*
X83157900Y-176372100D01*
%TO.N,BAT M*%
X90600000Y-182340000D02*
X90600000Y-182800000D01*
X85600000Y-178700000D02*
X86960000Y-178700000D01*
X86960000Y-178700000D02*
X90600000Y-182340000D01*
D36*
%TO.N,GND*%
X84720000Y-92520000D02*
X87400000Y-95200000D01*
X83160000Y-92520000D02*
X84720000Y-92520000D01*
D34*
%TO.N,3.3V*%
X93810000Y-102200000D02*
X92680000Y-103330000D01*
X99343700Y-102200000D02*
X93810000Y-102200000D01*
X100455200Y-101088500D02*
X99343700Y-102200000D01*
X106689200Y-101088500D02*
X100455200Y-101088500D01*
X99400000Y-102200000D02*
X99343700Y-102200000D01*
D36*
%TO.N,V GND*%
X106146300Y-134370900D02*
X107610000Y-132907200D01*
X86405000Y-114320000D02*
X88061500Y-115976500D01*
X102012800Y-106193100D02*
X102320000Y-106500300D01*
X109103700Y-129949800D02*
X107610000Y-131443500D01*
X99951000Y-115976500D02*
X109103700Y-125129200D01*
X102012800Y-106193100D02*
X102013000Y-106192900D01*
X86405000Y-105870000D02*
X92680000Y-105870000D01*
X86405000Y-105870000D02*
X86405000Y-114320000D01*
X93003100Y-106193100D02*
X102012800Y-106193100D01*
X106172600Y-102200000D02*
X102626000Y-102200000D01*
X108667400Y-167733700D02*
X102894600Y-161960900D01*
X109000000Y-74000000D02*
X106010000Y-74000000D01*
X102894600Y-161960900D02*
X102894600Y-145721800D01*
X108667400Y-175537400D02*
X108667400Y-167733700D01*
X106010000Y-74000000D02*
X104200000Y-75810000D01*
X102626000Y-102200000D02*
X102013000Y-102813000D01*
X106146300Y-142470100D02*
X106146300Y-134370900D01*
X102013000Y-102813000D02*
X101400000Y-102200000D01*
X82520000Y-105870000D02*
X86405000Y-105870000D01*
X88061500Y-115976500D02*
X99951000Y-115976500D01*
X102013000Y-106192900D02*
X102013000Y-102813000D01*
X110070000Y-176940000D02*
X108667400Y-175537400D01*
X102320000Y-106500300D02*
X102320000Y-107800000D01*
X92680000Y-105870000D02*
X93003100Y-106193100D01*
X107610000Y-131443500D02*
X107610000Y-132907200D01*
X109103700Y-125129200D02*
X109103700Y-129949800D01*
X102894600Y-145721800D02*
X106146300Y-142470100D01*
%TO.N,5V*%
X108172600Y-100898300D02*
X104049100Y-96774800D01*
X86445000Y-131820300D02*
X86445000Y-132180000D01*
X110460500Y-76883800D02*
X108600000Y-78744300D01*
X88720000Y-97130000D02*
X82520000Y-103330000D01*
X110460500Y-70460500D02*
X110460500Y-76883800D01*
X108600000Y-80200000D02*
X108600000Y-78744300D01*
X87660000Y-87440000D02*
X83160000Y-87440000D01*
X109000000Y-69000000D02*
X110460500Y-70460500D01*
X110454000Y-107146000D02*
X110454000Y-82054000D01*
X88720000Y-88500000D02*
X88720000Y-96774800D01*
X88720000Y-96774800D02*
X88720000Y-97130000D01*
X82250000Y-136375000D02*
X82250000Y-137300000D01*
X102600000Y-115000000D02*
X110454000Y-107146000D01*
X104049100Y-96774800D02*
X88720000Y-96774800D01*
X110454000Y-82054000D02*
X108600000Y-80200000D01*
X108172600Y-102200000D02*
X108172600Y-100898300D01*
X92705300Y-125560000D02*
X86445000Y-131820300D01*
X88720000Y-88500000D02*
X87660000Y-87440000D01*
X86445000Y-132180000D02*
X82250000Y-136375000D01*
X102360000Y-125560000D02*
X92705300Y-125560000D01*
D34*
%TO.N,Net-(Q1-Pad2)*%
X111020700Y-173449300D02*
X110070000Y-174400000D01*
X110540000Y-166800000D02*
X110540000Y-167801700D01*
X111020700Y-168282400D02*
X111020700Y-173449300D01*
X110540000Y-167801700D02*
X111020700Y-168282400D01*
%TO.N,Net-(P1-CLK{slash}SCK)*%
X103611100Y-129408900D02*
X102640200Y-130379800D01*
X102530000Y-131443500D02*
X102530000Y-130379800D01*
X97917400Y-119609400D02*
X103611100Y-125303100D01*
X103611100Y-125303100D02*
X103611100Y-129408900D01*
X102640200Y-130379800D02*
X102530000Y-130379800D01*
X96711600Y-119609400D02*
X97917400Y-119609400D01*
%TO.N,Net-(P1-CMD{slash}MOSI)*%
X100389100Y-104522400D02*
X101011200Y-105144500D01*
X101466300Y-128770500D02*
X99434300Y-126738500D01*
X101466300Y-128903500D02*
X101466300Y-128770500D01*
X92680000Y-100790000D02*
X91562100Y-101907900D01*
X99434300Y-126738500D02*
X92956300Y-126738500D01*
X91562100Y-103730700D02*
X92353800Y-104522400D01*
X102530000Y-128903500D02*
X101466300Y-128903500D01*
X91562100Y-101907900D02*
X91562100Y-103730700D01*
X92353800Y-104522400D02*
X100389100Y-104522400D01*
%TO.N,SDA*%
X88945000Y-114320000D02*
X90175500Y-113089500D01*
X102520300Y-110139700D02*
X104860000Y-107800000D01*
X109080600Y-95580600D02*
X109080600Y-103579400D01*
X98400000Y-84900000D02*
X109080600Y-95580600D01*
X90175500Y-113089500D02*
X90175600Y-113089500D01*
X92239400Y-109886300D02*
X97081900Y-109886300D01*
X97081900Y-109886300D02*
X97335300Y-110139700D01*
X97335300Y-110139700D02*
X102520300Y-110139700D01*
X90175600Y-111950100D02*
X92239400Y-109886300D01*
X90175600Y-113089500D02*
X90175600Y-111950100D01*
X109080600Y-103579400D02*
X104860000Y-107800000D01*
%TO.N,TX*%
X98400000Y-95060000D02*
X97298300Y-95060000D01*
X91260000Y-88500000D02*
X97298300Y-94538300D01*
X97298300Y-94538300D02*
X97298300Y-95060000D01*
%TO.N,RX*%
X93800000Y-88500000D02*
X97820000Y-92520000D01*
X97820000Y-92520000D02*
X98400000Y-92520000D01*
%TO.N,SCL*%
X109506000Y-105694000D02*
X107400000Y-107800000D01*
X98400000Y-82360000D02*
X98400000Y-82959800D01*
X109506000Y-94065800D02*
X109506000Y-105694000D01*
X100880000Y-114320000D02*
X107400000Y-107800000D01*
X91485000Y-114320000D02*
X100880000Y-114320000D01*
X98400000Y-82959800D02*
X109506000Y-94065800D01*
%TO.N,MISO*%
X97360400Y-123092200D02*
X91931600Y-117663400D01*
X97818800Y-123092200D02*
X97360400Y-123092200D01*
%TO.N,Net-(D3-A)*%
X101420000Y-69660000D02*
X101600000Y-69840000D01*
X98400000Y-69660000D02*
X101420000Y-69660000D01*
%TO.N,V_sense*%
X82846300Y-76010000D02*
X80647100Y-78209200D01*
X86800000Y-155420000D02*
X86800000Y-154418300D01*
X80647100Y-78209200D02*
X80647100Y-148265400D01*
X87300900Y-155420000D02*
X86800000Y-155420000D01*
X87821700Y-155400000D02*
X87801700Y-155420000D01*
X89510000Y-76010000D02*
X82846300Y-76010000D01*
X87300900Y-155420000D02*
X87801700Y-155420000D01*
X98400000Y-67120000D02*
X89510000Y-76010000D01*
X89900000Y-155400000D02*
X87821700Y-155400000D01*
X80647100Y-148265400D02*
X86800000Y-154418300D01*
%TD*%
%TA.AperFunction,Conductor*%
%TO.N,GND*%
G36*
X112042539Y-65020185D02*
G01*
X112088294Y-65072989D01*
X112099500Y-65124500D01*
X112099500Y-186375500D01*
X112079815Y-186442539D01*
X112027011Y-186488294D01*
X111975500Y-186499500D01*
X80224500Y-186499500D01*
X80157461Y-186479815D01*
X80111706Y-186427011D01*
X80100500Y-186375500D01*
X80100500Y-182999998D01*
X81080395Y-182999998D01*
X81080395Y-183000001D01*
X81099934Y-183273188D01*
X81099935Y-183273195D01*
X81157337Y-183537068D01*
X81158152Y-183540815D01*
X81253547Y-183796577D01*
X81253868Y-183797438D01*
X81385122Y-184037811D01*
X81385127Y-184037819D01*
X81549252Y-184257066D01*
X81549268Y-184257084D01*
X81742915Y-184450731D01*
X81742933Y-184450747D01*
X81962180Y-184614872D01*
X81962188Y-184614877D01*
X82202561Y-184746131D01*
X82202560Y-184746131D01*
X82202564Y-184746132D01*
X82202567Y-184746134D01*
X82459185Y-184841848D01*
X82726812Y-184900066D01*
X82980460Y-184918207D01*
X82999999Y-184919605D01*
X83000000Y-184919605D01*
X83000001Y-184919605D01*
X83018235Y-184918300D01*
X83273188Y-184900066D01*
X83540815Y-184841848D01*
X83797433Y-184746134D01*
X84037817Y-184614874D01*
X84257074Y-184450741D01*
X84450741Y-184257074D01*
X84614874Y-184037817D01*
X84746134Y-183797433D01*
X84841848Y-183540815D01*
X84900066Y-183273188D01*
X84919605Y-183000000D01*
X84900066Y-182726812D01*
X84841848Y-182459185D01*
X84746134Y-182202567D01*
X84728544Y-182170354D01*
X84614877Y-181962188D01*
X84614872Y-181962180D01*
X84450747Y-181742933D01*
X84450731Y-181742915D01*
X84257084Y-181549268D01*
X84257066Y-181549252D01*
X84037819Y-181385127D01*
X84037811Y-181385122D01*
X83797438Y-181253868D01*
X83797439Y-181253868D01*
X83747468Y-181235230D01*
X83540815Y-181158152D01*
X83540808Y-181158150D01*
X83540807Y-181158150D01*
X83273195Y-181099935D01*
X83273188Y-181099934D01*
X83000001Y-181080395D01*
X82999999Y-181080395D01*
X82726811Y-181099934D01*
X82726804Y-181099935D01*
X82459192Y-181158150D01*
X82459188Y-181158151D01*
X82459185Y-181158152D01*
X82274489Y-181227040D01*
X82202561Y-181253868D01*
X81962188Y-181385122D01*
X81962180Y-181385127D01*
X81742933Y-181549252D01*
X81742915Y-181549268D01*
X81549268Y-181742915D01*
X81549252Y-181742933D01*
X81385127Y-181962180D01*
X81385122Y-181962188D01*
X81253868Y-182202561D01*
X81253866Y-182202567D01*
X81158152Y-182459185D01*
X81158151Y-182459188D01*
X81158150Y-182459192D01*
X81099935Y-182726804D01*
X81099934Y-182726811D01*
X81080395Y-182999998D01*
X80100500Y-182999998D01*
X80100500Y-175982135D01*
X80459500Y-175982135D01*
X80459500Y-178617870D01*
X80459501Y-178617876D01*
X80465908Y-178677483D01*
X80516202Y-178812328D01*
X80516206Y-178812335D01*
X80602452Y-178927544D01*
X80602455Y-178927547D01*
X80717664Y-179013793D01*
X80717671Y-179013797D01*
X80852517Y-179064091D01*
X80852516Y-179064091D01*
X80859444Y-179064835D01*
X80912127Y-179070500D01*
X83547872Y-179070499D01*
X83607483Y-179064091D01*
X83742331Y-179013796D01*
X83857546Y-178927546D01*
X83895718Y-178876554D01*
X83951650Y-178834685D01*
X84021341Y-178829701D01*
X84082664Y-178863186D01*
X84116149Y-178924509D01*
X84117456Y-178931468D01*
X84136447Y-179051369D01*
X84209433Y-179275996D01*
X84221919Y-179300500D01*
X84316657Y-179486433D01*
X84455483Y-179677510D01*
X84622490Y-179844517D01*
X84813567Y-179983343D01*
X84912991Y-180034002D01*
X85024003Y-180090566D01*
X85024005Y-180090566D01*
X85024008Y-180090568D01*
X85144412Y-180129689D01*
X85248631Y-180163553D01*
X85481903Y-180200500D01*
X85481908Y-180200500D01*
X86287111Y-180200500D01*
X86354150Y-180220185D01*
X86374792Y-180236819D01*
X87602268Y-181464295D01*
X87635753Y-181525618D01*
X87630769Y-181595310D01*
X87588897Y-181651243D01*
X87566992Y-181664358D01*
X87470353Y-181709421D01*
X87470349Y-181709423D01*
X87290547Y-181835322D01*
X87290541Y-181835327D01*
X87135327Y-181990541D01*
X87135322Y-181990547D01*
X87009423Y-182170349D01*
X87009419Y-182170357D01*
X86916655Y-182369291D01*
X86859839Y-182581324D01*
X86859838Y-182581331D01*
X86840708Y-182799997D01*
X86840708Y-182800002D01*
X86859838Y-183018668D01*
X86859839Y-183018675D01*
X86876240Y-183079885D01*
X86916653Y-183230703D01*
X86916654Y-183230706D01*
X86916655Y-183230708D01*
X87009419Y-183429642D01*
X87009423Y-183429650D01*
X87135322Y-183609452D01*
X87135327Y-183609458D01*
X87290541Y-183764672D01*
X87290547Y-183764677D01*
X87470349Y-183890576D01*
X87470351Y-183890577D01*
X87470354Y-183890579D01*
X87669297Y-183983347D01*
X87881326Y-184040161D01*
X88037521Y-184053826D01*
X88099998Y-184059292D01*
X88100000Y-184059292D01*
X88100002Y-184059292D01*
X88154797Y-184054498D01*
X88318674Y-184040161D01*
X88530703Y-183983347D01*
X88729646Y-183890579D01*
X88909457Y-183764674D01*
X89064674Y-183609457D01*
X89098946Y-183560511D01*
X89153520Y-183516887D01*
X89223019Y-183509693D01*
X89285374Y-183541215D01*
X89311004Y-183575339D01*
X89316657Y-183586433D01*
X89455483Y-183777510D01*
X89622490Y-183944517D01*
X89813567Y-184083343D01*
X89831378Y-184092418D01*
X90024003Y-184190566D01*
X90024005Y-184190566D01*
X90024008Y-184190568D01*
X90144412Y-184229689D01*
X90248631Y-184263553D01*
X90481903Y-184300500D01*
X90481908Y-184300500D01*
X90718097Y-184300500D01*
X90951368Y-184263553D01*
X90971333Y-184257066D01*
X91175992Y-184190568D01*
X91386433Y-184083343D01*
X91577510Y-183944517D01*
X91725452Y-183796574D01*
X91786772Y-183763092D01*
X91856463Y-183768076D01*
X91912396Y-183809947D01*
X91988452Y-183911544D01*
X91988455Y-183911547D01*
X92103664Y-183997793D01*
X92103671Y-183997797D01*
X92238517Y-184048091D01*
X92238516Y-184048091D01*
X92245444Y-184048835D01*
X92298127Y-184054500D01*
X93901872Y-184054499D01*
X93961483Y-184048091D01*
X94096331Y-183997796D01*
X94211546Y-183911546D01*
X94297796Y-183796331D01*
X94348091Y-183661483D01*
X94354500Y-183601873D01*
X94354499Y-182799999D01*
X99507582Y-182799999D01*
X99507582Y-182800000D01*
X99527216Y-183024421D01*
X99527218Y-183024431D01*
X99585521Y-183242025D01*
X99585525Y-183242034D01*
X99680732Y-183446207D01*
X99680733Y-183446209D01*
X99729949Y-183516497D01*
X100296624Y-182949822D01*
X100310778Y-183002642D01*
X100379896Y-183122357D01*
X100477643Y-183220104D01*
X100597358Y-183289222D01*
X100650177Y-183303375D01*
X100083501Y-183870049D01*
X100153791Y-183919267D01*
X100357965Y-184014474D01*
X100357974Y-184014478D01*
X100575568Y-184072781D01*
X100575578Y-184072783D01*
X100799999Y-184092418D01*
X100800001Y-184092418D01*
X101024421Y-184072783D01*
X101024431Y-184072781D01*
X101242025Y-184014478D01*
X101242034Y-184014474D01*
X101446208Y-183919267D01*
X101446212Y-183919265D01*
X101516497Y-183870050D01*
X100949822Y-183303375D01*
X101002642Y-183289222D01*
X101122357Y-183220104D01*
X101220104Y-183122357D01*
X101289222Y-183002642D01*
X101303375Y-182949822D01*
X101870049Y-183516496D01*
X101877230Y-183515868D01*
X101945730Y-183529634D01*
X101995913Y-183578250D01*
X102011860Y-183632754D01*
X102012000Y-183635364D01*
X102018408Y-183694983D01*
X102068702Y-183829828D01*
X102068706Y-183829835D01*
X102154952Y-183945044D01*
X102154955Y-183945047D01*
X102270164Y-184031293D01*
X102270171Y-184031297D01*
X102405016Y-184081591D01*
X102421303Y-184083342D01*
X102464627Y-184088000D01*
X102492934Y-184087999D01*
X102549231Y-184101514D01*
X102724003Y-184190566D01*
X102724005Y-184190566D01*
X102724008Y-184190568D01*
X102844412Y-184229689D01*
X102948631Y-184263553D01*
X103181903Y-184300500D01*
X103181908Y-184300500D01*
X103418097Y-184300500D01*
X103651368Y-184263553D01*
X103671333Y-184257066D01*
X103875992Y-184190568D01*
X104050770Y-184101513D01*
X104107065Y-184087999D01*
X104135371Y-184087999D01*
X104135372Y-184087999D01*
X104194983Y-184081591D01*
X104329831Y-184031296D01*
X104445046Y-183945046D01*
X104531296Y-183829831D01*
X104581591Y-183694983D01*
X104588000Y-183635373D01*
X104587999Y-183607063D01*
X104601513Y-183550769D01*
X104690568Y-183375992D01*
X104763553Y-183151368D01*
X104783658Y-183024431D01*
X104787528Y-182999998D01*
X107080395Y-182999998D01*
X107080395Y-183000001D01*
X107099934Y-183273188D01*
X107099935Y-183273195D01*
X107157337Y-183537068D01*
X107158152Y-183540815D01*
X107253547Y-183796577D01*
X107253868Y-183797438D01*
X107385122Y-184037811D01*
X107385127Y-184037819D01*
X107549252Y-184257066D01*
X107549268Y-184257084D01*
X107742915Y-184450731D01*
X107742933Y-184450747D01*
X107962180Y-184614872D01*
X107962188Y-184614877D01*
X108202561Y-184746131D01*
X108202560Y-184746131D01*
X108202564Y-184746132D01*
X108202567Y-184746134D01*
X108459185Y-184841848D01*
X108726812Y-184900066D01*
X108980460Y-184918207D01*
X108999999Y-184919605D01*
X109000000Y-184919605D01*
X109000001Y-184919605D01*
X109018235Y-184918300D01*
X109273188Y-184900066D01*
X109540815Y-184841848D01*
X109797433Y-184746134D01*
X110037817Y-184614874D01*
X110257074Y-184450741D01*
X110450741Y-184257074D01*
X110614874Y-184037817D01*
X110746134Y-183797433D01*
X110841848Y-183540815D01*
X110900066Y-183273188D01*
X110919605Y-183000000D01*
X110900066Y-182726812D01*
X110841848Y-182459185D01*
X110746134Y-182202567D01*
X110728544Y-182170354D01*
X110614877Y-181962188D01*
X110614872Y-181962180D01*
X110450747Y-181742933D01*
X110450731Y-181742915D01*
X110257084Y-181549268D01*
X110257066Y-181549252D01*
X110037819Y-181385127D01*
X110037811Y-181385122D01*
X109797438Y-181253868D01*
X109797439Y-181253868D01*
X109747468Y-181235230D01*
X109540815Y-181158152D01*
X109540808Y-181158150D01*
X109540807Y-181158150D01*
X109273195Y-181099935D01*
X109273188Y-181099934D01*
X109000001Y-181080395D01*
X108999999Y-181080395D01*
X108726811Y-181099934D01*
X108726804Y-181099935D01*
X108459192Y-181158150D01*
X108459188Y-181158151D01*
X108459185Y-181158152D01*
X108274489Y-181227040D01*
X108202561Y-181253868D01*
X107962188Y-181385122D01*
X107962180Y-181385127D01*
X107742933Y-181549252D01*
X107742915Y-181549268D01*
X107549268Y-181742915D01*
X107549252Y-181742933D01*
X107385127Y-181962180D01*
X107385122Y-181962188D01*
X107253868Y-182202561D01*
X107253866Y-182202567D01*
X107158152Y-182459185D01*
X107158151Y-182459188D01*
X107158150Y-182459192D01*
X107099935Y-182726804D01*
X107099934Y-182726811D01*
X107080395Y-182999998D01*
X104787528Y-182999998D01*
X104800500Y-182918097D01*
X104800500Y-181609379D01*
X104820185Y-181542340D01*
X104872989Y-181496585D01*
X104886162Y-181491454D01*
X104975992Y-181462268D01*
X105186433Y-181355043D01*
X105377510Y-181216217D01*
X105544517Y-181049210D01*
X105683343Y-180858133D01*
X105790568Y-180647692D01*
X105863553Y-180423068D01*
X105893052Y-180236819D01*
X105900500Y-180189797D01*
X105900500Y-177901902D01*
X105863553Y-177668631D01*
X105824268Y-177547726D01*
X105790568Y-177444008D01*
X105790566Y-177444005D01*
X105790566Y-177444003D01*
X105706073Y-177278177D01*
X105683343Y-177233567D01*
X105544517Y-177042490D01*
X105377510Y-176875483D01*
X105186433Y-176736657D01*
X104975996Y-176629433D01*
X104751368Y-176556446D01*
X104518097Y-176519500D01*
X104518092Y-176519500D01*
X104281908Y-176519500D01*
X104281903Y-176519500D01*
X104048631Y-176556446D01*
X103824003Y-176629433D01*
X103613566Y-176736657D01*
X103526383Y-176800000D01*
X103422490Y-176875483D01*
X103422488Y-176875485D01*
X103422487Y-176875485D01*
X103255485Y-177042487D01*
X103255485Y-177042488D01*
X103255483Y-177042490D01*
X103212384Y-177101811D01*
X103116657Y-177233566D01*
X103009433Y-177444003D01*
X102936446Y-177668631D01*
X102899500Y-177901902D01*
X102899500Y-178937911D01*
X102879815Y-179004950D01*
X102863181Y-179025592D01*
X102155485Y-179733287D01*
X102155484Y-179733288D01*
X102016657Y-179924365D01*
X101986607Y-179983343D01*
X101909433Y-180134803D01*
X101836446Y-180359431D01*
X101799500Y-180592702D01*
X101799500Y-181689908D01*
X101779815Y-181756947D01*
X101727011Y-181802702D01*
X101657853Y-181812646D01*
X101604377Y-181791483D01*
X101446213Y-181680735D01*
X101446209Y-181680733D01*
X101242034Y-181585525D01*
X101242025Y-181585521D01*
X101024431Y-181527218D01*
X101024421Y-181527216D01*
X100800001Y-181507582D01*
X100799999Y-181507582D01*
X100575578Y-181527216D01*
X100575568Y-181527218D01*
X100357974Y-181585521D01*
X100357965Y-181585525D01*
X100153787Y-181680735D01*
X100083502Y-181729948D01*
X100083501Y-181729949D01*
X100650177Y-182296624D01*
X100597358Y-182310778D01*
X100477643Y-182379896D01*
X100379896Y-182477643D01*
X100310778Y-182597358D01*
X100296625Y-182650177D01*
X99729949Y-182083501D01*
X99729948Y-182083502D01*
X99680735Y-182153787D01*
X99585525Y-182357965D01*
X99585521Y-182357974D01*
X99527218Y-182575568D01*
X99527216Y-182575578D01*
X99507582Y-182799999D01*
X94354499Y-182799999D01*
X94354499Y-181998128D01*
X94348091Y-181938517D01*
X94309603Y-181835326D01*
X94297797Y-181803671D01*
X94297793Y-181803664D01*
X94211547Y-181688455D01*
X94211544Y-181688452D01*
X94096335Y-181602206D01*
X94096328Y-181602202D01*
X93961482Y-181551908D01*
X93961483Y-181551908D01*
X93901883Y-181545501D01*
X93901881Y-181545500D01*
X93901873Y-181545500D01*
X93901864Y-181545500D01*
X92298129Y-181545500D01*
X92298123Y-181545501D01*
X92238516Y-181551908D01*
X92103671Y-181602202D01*
X92103664Y-181602206D01*
X92080038Y-181619893D01*
X92014574Y-181644310D01*
X91946301Y-181629458D01*
X91896896Y-181580052D01*
X91895243Y-181576921D01*
X91883342Y-181553565D01*
X91880220Y-181549268D01*
X91744517Y-181362490D01*
X88466308Y-178084281D01*
X88432823Y-178022958D01*
X88437807Y-177953266D01*
X88479679Y-177897333D01*
X88545143Y-177872916D01*
X88553989Y-177872600D01*
X90699211Y-177872600D01*
X90766250Y-177892285D01*
X90786891Y-177908918D01*
X91822490Y-178944518D01*
X91933159Y-179024924D01*
X92013566Y-179083343D01*
X92112992Y-179134003D01*
X92224003Y-179190566D01*
X92224005Y-179190566D01*
X92224008Y-179190568D01*
X92344412Y-179229689D01*
X92448631Y-179263553D01*
X92681903Y-179300500D01*
X92681908Y-179300500D01*
X92918097Y-179300500D01*
X93151369Y-179263553D01*
X93375993Y-179190568D01*
X93586434Y-179083343D01*
X93777510Y-178944518D01*
X93944518Y-178777510D01*
X93944519Y-178777508D01*
X93951579Y-178770448D01*
X93951584Y-178770441D01*
X95375419Y-177346606D01*
X95436740Y-177313123D01*
X95506432Y-177318107D01*
X95562365Y-177359979D01*
X95586782Y-177425443D01*
X95582873Y-177466382D01*
X95552426Y-177580013D01*
X95552424Y-177580023D01*
X95533179Y-177799999D01*
X95533179Y-177800000D01*
X95552424Y-178019976D01*
X95552426Y-178019986D01*
X95609575Y-178233270D01*
X95609580Y-178233284D01*
X95702898Y-178433405D01*
X95702901Y-178433411D01*
X95748258Y-178498187D01*
X95748258Y-178498188D01*
X96419000Y-177827446D01*
X96419000Y-177850160D01*
X96444964Y-177947061D01*
X96495124Y-178033940D01*
X96566060Y-178104876D01*
X96652939Y-178155036D01*
X96749840Y-178181000D01*
X96772553Y-178181000D01*
X96101810Y-178851740D01*
X96166590Y-178897099D01*
X96166592Y-178897100D01*
X96366715Y-178990419D01*
X96366729Y-178990424D01*
X96580013Y-179047573D01*
X96580023Y-179047575D01*
X96799999Y-179066821D01*
X96800001Y-179066821D01*
X97019976Y-179047575D01*
X97019986Y-179047573D01*
X97233270Y-178990424D01*
X97233284Y-178990419D01*
X97433407Y-178897100D01*
X97433417Y-178897094D01*
X97498188Y-178851741D01*
X96827448Y-178181000D01*
X96850160Y-178181000D01*
X96947061Y-178155036D01*
X97033940Y-178104876D01*
X97104876Y-178033940D01*
X97155036Y-177947061D01*
X97181000Y-177850160D01*
X97181000Y-177827447D01*
X97851741Y-178498188D01*
X97897094Y-178433417D01*
X97897100Y-178433407D01*
X97990419Y-178233284D01*
X97990424Y-178233270D01*
X98047573Y-178019986D01*
X98047575Y-178019975D01*
X98065028Y-177820486D01*
X98090480Y-177755417D01*
X98147071Y-177714438D01*
X98216833Y-177710560D01*
X98277617Y-177745014D01*
X98309447Y-177803698D01*
X98313892Y-177823173D01*
X98313896Y-177823185D01*
X98410814Y-178070128D01*
X98410813Y-178070128D01*
X98543457Y-178299871D01*
X98593642Y-178362803D01*
X98593643Y-178362803D01*
X99527037Y-177429409D01*
X99544075Y-177492993D01*
X99609901Y-177607007D01*
X99702993Y-177700099D01*
X99817007Y-177765925D01*
X99880590Y-177782962D01*
X98946438Y-178717112D01*
X99122525Y-178837166D01*
X99122526Y-178837167D01*
X99361530Y-178952264D01*
X99361528Y-178952264D01*
X99615025Y-179030458D01*
X99615031Y-179030459D01*
X99877351Y-179069999D01*
X99877358Y-179070000D01*
X100142642Y-179070000D01*
X100142648Y-179069999D01*
X100404968Y-179030459D01*
X100404974Y-179030458D01*
X100658470Y-178952264D01*
X100897479Y-178837164D01*
X101073560Y-178717112D01*
X100139409Y-177782962D01*
X100202993Y-177765925D01*
X100317007Y-177700099D01*
X100410099Y-177607007D01*
X100475925Y-177492993D01*
X100492962Y-177429409D01*
X101426355Y-178362803D01*
X101426356Y-178362802D01*
X101476545Y-178299869D01*
X101609185Y-178070128D01*
X101706103Y-177823185D01*
X101706109Y-177823166D01*
X101765138Y-177564540D01*
X101765139Y-177564535D01*
X101784963Y-177300004D01*
X101784963Y-177299995D01*
X101765139Y-177035464D01*
X101765138Y-177035459D01*
X101706109Y-176776833D01*
X101706103Y-176776814D01*
X101609185Y-176529871D01*
X101609186Y-176529871D01*
X101476543Y-176300129D01*
X101476536Y-176300118D01*
X101426356Y-176237196D01*
X101426355Y-176237195D01*
X100492962Y-177170589D01*
X100475925Y-177107007D01*
X100410099Y-176992993D01*
X100317007Y-176899901D01*
X100202993Y-176834075D01*
X100139410Y-176817037D01*
X101073560Y-175882886D01*
X100897484Y-175762839D01*
X100897474Y-175762832D01*
X100658469Y-175647735D01*
X100658471Y-175647735D01*
X100404974Y-175569541D01*
X100404968Y-175569540D01*
X100142648Y-175530000D01*
X99877351Y-175530000D01*
X99615031Y-175569540D01*
X99615025Y-175569541D01*
X99361529Y-175647735D01*
X99122526Y-175762832D01*
X99122518Y-175762837D01*
X98946438Y-175882886D01*
X99880590Y-176817037D01*
X99817007Y-176834075D01*
X99702993Y-176899901D01*
X99609901Y-176992993D01*
X99544075Y-177107007D01*
X99527037Y-177170590D01*
X98593643Y-176237196D01*
X98543456Y-176300128D01*
X98410814Y-176529871D01*
X98313896Y-176776814D01*
X98313890Y-176776833D01*
X98254861Y-177035459D01*
X98254860Y-177035464D01*
X98235037Y-177299995D01*
X98235037Y-177300007D01*
X98238135Y-177341358D01*
X98223514Y-177409681D01*
X98174277Y-177459253D01*
X98106054Y-177474335D01*
X98040508Y-177450140D01*
X97998447Y-177394348D01*
X97994706Y-177382712D01*
X97990423Y-177366725D01*
X97990420Y-177366720D01*
X97897096Y-177166586D01*
X97851741Y-177101811D01*
X97851740Y-177101810D01*
X97181000Y-177772551D01*
X97181000Y-177749840D01*
X97155036Y-177652939D01*
X97104876Y-177566060D01*
X97033940Y-177495124D01*
X96947061Y-177444964D01*
X96850160Y-177419000D01*
X96827446Y-177419000D01*
X97498188Y-176748258D01*
X97433411Y-176702901D01*
X97433405Y-176702898D01*
X97233284Y-176609580D01*
X97233270Y-176609575D01*
X97019986Y-176552426D01*
X97019976Y-176552424D01*
X96800001Y-176533179D01*
X96799999Y-176533179D01*
X96580023Y-176552424D01*
X96580013Y-176552426D01*
X96466382Y-176582873D01*
X96396532Y-176581210D01*
X96338670Y-176542047D01*
X96311166Y-176477818D01*
X96322753Y-176408916D01*
X96346604Y-176375421D01*
X100785208Y-171936819D01*
X100846531Y-171903334D01*
X100872889Y-171900500D01*
X104518097Y-171900500D01*
X104751368Y-171863553D01*
X104975992Y-171790568D01*
X105186433Y-171683343D01*
X105212109Y-171664687D01*
X105250341Y-171647145D01*
X105250214Y-171646802D01*
X105254892Y-171645056D01*
X105256488Y-171644325D01*
X105257470Y-171644092D01*
X105257483Y-171644091D01*
X105392331Y-171593796D01*
X105507546Y-171507546D01*
X105593796Y-171392331D01*
X105644091Y-171257483D01*
X105644092Y-171257472D01*
X105644324Y-171256493D01*
X105645053Y-171254902D01*
X105646802Y-171250215D01*
X105647145Y-171250343D01*
X105664686Y-171212111D01*
X105683343Y-171186433D01*
X105790568Y-170975992D01*
X105863553Y-170751368D01*
X105870995Y-170704382D01*
X105900500Y-170518097D01*
X105900500Y-170281902D01*
X105863553Y-170048631D01*
X105790566Y-169824003D01*
X105737872Y-169720587D01*
X105683343Y-169613567D01*
X105664686Y-169587888D01*
X105647145Y-169549658D01*
X105646802Y-169549786D01*
X105645056Y-169545106D01*
X105644326Y-169543514D01*
X105644091Y-169542525D01*
X105644091Y-169542517D01*
X105593796Y-169407669D01*
X105593795Y-169407668D01*
X105593793Y-169407664D01*
X105507547Y-169292455D01*
X105507544Y-169292452D01*
X105392335Y-169206206D01*
X105392326Y-169206201D01*
X105257479Y-169155907D01*
X105256466Y-169155668D01*
X105254856Y-169154929D01*
X105250217Y-169153199D01*
X105250344Y-169152858D01*
X105212112Y-169135313D01*
X105186436Y-169116659D01*
X105186435Y-169116658D01*
X105186433Y-169116657D01*
X105120715Y-169083172D01*
X104975996Y-169009433D01*
X104751368Y-168936446D01*
X104518097Y-168899500D01*
X104518092Y-168899500D01*
X102466392Y-168899500D01*
X100081908Y-168899500D01*
X100081903Y-168899500D01*
X99848631Y-168936446D01*
X99624003Y-169009433D01*
X99413565Y-169116657D01*
X99222488Y-169255484D01*
X99222487Y-169255485D01*
X92887680Y-175590291D01*
X92826357Y-175623776D01*
X92756665Y-175618792D01*
X92712320Y-175590292D01*
X92349610Y-175227583D01*
X92158534Y-175088757D01*
X91948096Y-174981533D01*
X91723468Y-174908546D01*
X91490197Y-174871600D01*
X91490192Y-174871600D01*
X88424500Y-174871600D01*
X88357461Y-174851915D01*
X88311706Y-174799111D01*
X88300500Y-174747600D01*
X88300500Y-160730000D01*
X88723505Y-160730000D01*
X88776239Y-160915349D01*
X88875368Y-161114425D01*
X89009391Y-161291900D01*
X89173738Y-161441721D01*
X89362820Y-161558797D01*
X89362822Y-161558798D01*
X89570195Y-161639135D01*
X89650000Y-161654052D01*
X90150000Y-161654052D01*
X90229804Y-161639135D01*
X90437177Y-161558798D01*
X90437179Y-161558797D01*
X90626261Y-161441721D01*
X90790608Y-161291900D01*
X90924631Y-161114425D01*
X91023760Y-160915349D01*
X91076495Y-160730000D01*
X90150000Y-160730000D01*
X90150000Y-161654052D01*
X89650000Y-161654052D01*
X89650000Y-160730000D01*
X88723505Y-160730000D01*
X88300500Y-160730000D01*
X88300500Y-160433922D01*
X89550000Y-160433922D01*
X89550000Y-160526078D01*
X89573852Y-160615095D01*
X89619930Y-160694905D01*
X89685095Y-160760070D01*
X89764905Y-160806148D01*
X89853922Y-160830000D01*
X89946078Y-160830000D01*
X90035095Y-160806148D01*
X90114905Y-160760070D01*
X90180070Y-160694905D01*
X90226148Y-160615095D01*
X90250000Y-160526078D01*
X90250000Y-160433922D01*
X90226148Y-160344905D01*
X90180070Y-160265095D01*
X90144975Y-160230000D01*
X90150000Y-160230000D01*
X91076495Y-160230000D01*
X91023760Y-160044650D01*
X90924631Y-159845574D01*
X90790608Y-159668099D01*
X90626261Y-159518278D01*
X90437179Y-159401202D01*
X90437177Y-159401201D01*
X90229799Y-159320864D01*
X90150000Y-159305946D01*
X90150000Y-160230000D01*
X90144975Y-160230000D01*
X90114905Y-160199930D01*
X90035095Y-160153852D01*
X89946078Y-160130000D01*
X89853922Y-160130000D01*
X89764905Y-160153852D01*
X89685095Y-160199930D01*
X89619930Y-160265095D01*
X89573852Y-160344905D01*
X89550000Y-160433922D01*
X88300500Y-160433922D01*
X88300500Y-160381902D01*
X88276441Y-160230000D01*
X88723505Y-160230000D01*
X89650000Y-160230000D01*
X89650000Y-159305946D01*
X89570200Y-159320864D01*
X89362822Y-159401201D01*
X89362820Y-159401202D01*
X89173738Y-159518278D01*
X89009391Y-159668099D01*
X88875368Y-159845574D01*
X88776239Y-160044650D01*
X88723505Y-160230000D01*
X88276441Y-160230000D01*
X88263553Y-160148631D01*
X88190566Y-159924003D01*
X88083342Y-159713566D01*
X88050308Y-159668099D01*
X87944517Y-159522490D01*
X87777510Y-159355483D01*
X87586433Y-159216657D01*
X87375996Y-159109433D01*
X87151368Y-159036446D01*
X86918097Y-158999500D01*
X86918092Y-158999500D01*
X86681908Y-158999500D01*
X86681903Y-158999500D01*
X86448631Y-159036446D01*
X86224003Y-159109433D01*
X86013566Y-159216657D01*
X85904550Y-159295862D01*
X85822490Y-159355483D01*
X85822488Y-159355485D01*
X85822487Y-159355485D01*
X85655485Y-159522487D01*
X85655485Y-159522488D01*
X85655483Y-159522490D01*
X85595862Y-159604550D01*
X85516657Y-159713566D01*
X85409433Y-159924003D01*
X85336446Y-160148631D01*
X85299500Y-160381902D01*
X85299500Y-174747600D01*
X85279815Y-174814639D01*
X85227011Y-174860394D01*
X85175500Y-174871600D01*
X83039803Y-174871600D01*
X82806531Y-174908546D01*
X82581903Y-174981533D01*
X82371463Y-175088759D01*
X82180396Y-175227576D01*
X82180391Y-175227580D01*
X81914790Y-175493181D01*
X81853467Y-175526666D01*
X81827109Y-175529500D01*
X80912129Y-175529500D01*
X80912123Y-175529501D01*
X80852516Y-175535908D01*
X80717671Y-175586202D01*
X80717664Y-175586206D01*
X80602455Y-175672452D01*
X80602452Y-175672455D01*
X80516206Y-175787664D01*
X80516202Y-175787671D01*
X80465908Y-175922517D01*
X80459501Y-175982116D01*
X80459500Y-175982135D01*
X80100500Y-175982135D01*
X80100500Y-148867397D01*
X80120185Y-148800358D01*
X80172989Y-148754603D01*
X80242147Y-148744659D01*
X80305703Y-148773684D01*
X80312181Y-148779716D01*
X85938139Y-154405675D01*
X85971624Y-154466998D01*
X85966640Y-154536690D01*
X85933998Y-154584992D01*
X85909019Y-154607764D01*
X85774943Y-154785308D01*
X85774938Y-154785316D01*
X85675775Y-154984461D01*
X85675769Y-154984476D01*
X85614885Y-155198462D01*
X85614884Y-155198464D01*
X85594357Y-155419999D01*
X85594357Y-155420000D01*
X85614884Y-155641535D01*
X85614885Y-155641537D01*
X85675769Y-155855523D01*
X85675775Y-155855538D01*
X85774938Y-156054683D01*
X85774943Y-156054691D01*
X85909020Y-156232238D01*
X86073437Y-156382123D01*
X86073439Y-156382125D01*
X86262595Y-156499245D01*
X86262596Y-156499245D01*
X86262599Y-156499247D01*
X86470060Y-156579618D01*
X86688757Y-156620500D01*
X86688759Y-156620500D01*
X86911241Y-156620500D01*
X86911243Y-156620500D01*
X87129940Y-156579618D01*
X87337401Y-156499247D01*
X87526562Y-156382124D01*
X87690981Y-156232236D01*
X87817608Y-156064553D01*
X87873716Y-156022917D01*
X87884434Y-156019515D01*
X87939637Y-156004723D01*
X87971727Y-156000500D01*
X88787379Y-156000500D01*
X88854418Y-156020185D01*
X88886333Y-156049773D01*
X89009020Y-156212238D01*
X89173437Y-156362123D01*
X89173439Y-156362125D01*
X89362595Y-156479245D01*
X89362596Y-156479245D01*
X89362599Y-156479247D01*
X89570060Y-156559618D01*
X89788757Y-156600500D01*
X89788759Y-156600500D01*
X90011241Y-156600500D01*
X90011243Y-156600500D01*
X90229940Y-156559618D01*
X90437401Y-156479247D01*
X90626562Y-156362124D01*
X90790981Y-156212236D01*
X90925058Y-156034689D01*
X91024229Y-155835528D01*
X91085115Y-155621536D01*
X91105643Y-155400000D01*
X91085115Y-155178464D01*
X91024229Y-154964472D01*
X91024224Y-154964461D01*
X90925061Y-154765316D01*
X90925056Y-154765308D01*
X90790979Y-154587761D01*
X90626562Y-154437876D01*
X90626560Y-154437874D01*
X90437404Y-154320754D01*
X90437398Y-154320752D01*
X90229940Y-154240382D01*
X90011243Y-154199500D01*
X89788757Y-154199500D01*
X89570060Y-154240382D01*
X89438864Y-154291207D01*
X89362601Y-154320752D01*
X89362595Y-154320754D01*
X89173439Y-154437874D01*
X89173437Y-154437876D01*
X89009020Y-154587761D01*
X88886333Y-154750227D01*
X88830224Y-154791863D01*
X88787379Y-154799500D01*
X87897517Y-154799500D01*
X87830478Y-154779815D01*
X87798563Y-154750226D01*
X87690982Y-154607765D01*
X87690980Y-154607762D01*
X87526562Y-154457876D01*
X87526557Y-154457872D01*
X87455315Y-154413760D01*
X87408679Y-154361732D01*
X87400818Y-154340428D01*
X87400501Y-154339244D01*
X87400501Y-154339243D01*
X87359577Y-154186516D01*
X87315535Y-154110232D01*
X87280524Y-154049590D01*
X87280518Y-154049582D01*
X81283919Y-148052983D01*
X81250434Y-147991660D01*
X81247600Y-147965302D01*
X81247600Y-141419997D01*
X84352677Y-141419997D01*
X84352677Y-141420002D01*
X84371929Y-141640062D01*
X84371930Y-141640070D01*
X84429104Y-141853445D01*
X84429105Y-141853447D01*
X84429106Y-141853450D01*
X84490075Y-141984198D01*
X84522466Y-142053662D01*
X84522468Y-142053666D01*
X84649170Y-142234615D01*
X84649175Y-142234621D01*
X84805378Y-142390824D01*
X84805384Y-142390829D01*
X84986333Y-142517531D01*
X84986335Y-142517532D01*
X84986338Y-142517534D01*
X85186550Y-142610894D01*
X85399932Y-142668070D01*
X85557123Y-142681822D01*
X85619998Y-142687323D01*
X85620000Y-142687323D01*
X85620002Y-142687323D01*
X85675017Y-142682509D01*
X85840068Y-142668070D01*
X86053450Y-142610894D01*
X86253662Y-142517534D01*
X86434620Y-142390826D01*
X86590826Y-142234620D01*
X86717534Y-142053662D01*
X86810894Y-141853450D01*
X86868070Y-141640068D01*
X86887323Y-141420000D01*
X86887323Y-141419997D01*
X94512677Y-141419997D01*
X94512677Y-141420002D01*
X94531929Y-141640062D01*
X94531930Y-141640070D01*
X94589104Y-141853445D01*
X94589105Y-141853447D01*
X94589106Y-141853450D01*
X94650075Y-141984198D01*
X94682466Y-142053662D01*
X94682468Y-142053666D01*
X94809170Y-142234615D01*
X94809175Y-142234621D01*
X94965378Y-142390824D01*
X94965384Y-142390829D01*
X95146333Y-142517531D01*
X95146335Y-142517532D01*
X95146338Y-142517534D01*
X95346550Y-142610894D01*
X95559932Y-142668070D01*
X95717123Y-142681822D01*
X95779998Y-142687323D01*
X95780000Y-142687323D01*
X95780002Y-142687323D01*
X95835017Y-142682509D01*
X96000068Y-142668070D01*
X96213450Y-142610894D01*
X96413662Y-142517534D01*
X96594620Y-142390826D01*
X96750826Y-142234620D01*
X96877534Y-142053662D01*
X96970894Y-141853450D01*
X97028070Y-141640068D01*
X97047323Y-141420000D01*
X97028070Y-141199932D01*
X96970894Y-140986550D01*
X96877534Y-140786339D01*
X96764362Y-140624711D01*
X96750827Y-140605381D01*
X96750823Y-140605377D01*
X96594620Y-140449174D01*
X96594616Y-140449171D01*
X96594615Y-140449170D01*
X96413666Y-140322468D01*
X96413662Y-140322466D01*
X96413660Y-140322465D01*
X96213450Y-140229106D01*
X96213447Y-140229105D01*
X96213445Y-140229104D01*
X96000070Y-140171930D01*
X96000062Y-140171929D01*
X95780002Y-140152677D01*
X95779998Y-140152677D01*
X95559937Y-140171929D01*
X95559929Y-140171930D01*
X95346554Y-140229104D01*
X95346548Y-140229107D01*
X95146340Y-140322465D01*
X95146338Y-140322466D01*
X94965377Y-140449175D01*
X94809175Y-140605377D01*
X94682466Y-140786338D01*
X94682465Y-140786340D01*
X94589107Y-140986548D01*
X94589104Y-140986554D01*
X94531930Y-141199929D01*
X94531929Y-141199937D01*
X94512677Y-141419997D01*
X86887323Y-141419997D01*
X86868070Y-141199932D01*
X86810894Y-140986550D01*
X86717534Y-140786339D01*
X86604362Y-140624711D01*
X86590827Y-140605381D01*
X86590823Y-140605377D01*
X86434620Y-140449174D01*
X86434616Y-140449171D01*
X86434615Y-140449170D01*
X86253666Y-140322468D01*
X86253662Y-140322466D01*
X86253660Y-140322465D01*
X86053450Y-140229106D01*
X86053447Y-140229105D01*
X86053445Y-140229104D01*
X85840070Y-140171930D01*
X85840062Y-140171929D01*
X85620002Y-140152677D01*
X85619998Y-140152677D01*
X85399937Y-140171929D01*
X85399929Y-140171930D01*
X85186554Y-140229104D01*
X85186548Y-140229107D01*
X84986340Y-140322465D01*
X84986338Y-140322466D01*
X84805377Y-140449175D01*
X84649175Y-140605377D01*
X84522466Y-140786338D01*
X84522465Y-140786340D01*
X84429107Y-140986548D01*
X84429104Y-140986554D01*
X84371930Y-141199929D01*
X84371929Y-141199937D01*
X84352677Y-141419997D01*
X81247600Y-141419997D01*
X81247600Y-138979721D01*
X81267285Y-138912682D01*
X81320089Y-138866927D01*
X81389247Y-138856983D01*
X81425397Y-138867999D01*
X81601350Y-138952734D01*
X81854922Y-139030950D01*
X81854923Y-139030950D01*
X81854926Y-139030951D01*
X82117311Y-139070499D01*
X82117316Y-139070499D01*
X82117319Y-139070500D01*
X82117320Y-139070500D01*
X82382680Y-139070500D01*
X82382681Y-139070500D01*
X82413512Y-139065853D01*
X82645073Y-139030951D01*
X82645074Y-139030950D01*
X82645078Y-139030950D01*
X82898650Y-138952734D01*
X83137733Y-138837598D01*
X83356984Y-138688114D01*
X83551508Y-138507623D01*
X83716958Y-138300155D01*
X83849639Y-138070345D01*
X83946586Y-137823327D01*
X84005635Y-137564619D01*
X84005641Y-137564540D01*
X84025465Y-137300004D01*
X84025465Y-137299995D01*
X84005636Y-137035390D01*
X84005635Y-137035385D01*
X84005635Y-137035381D01*
X83946586Y-136776673D01*
X83849639Y-136529655D01*
X83802194Y-136447478D01*
X83772993Y-136396900D01*
X83756520Y-136329000D01*
X83779373Y-136262973D01*
X83792693Y-136247225D01*
X86574835Y-133465083D01*
X86636156Y-133431600D01*
X86651690Y-133429240D01*
X86665068Y-133428070D01*
X86878450Y-133370894D01*
X87078662Y-133277534D01*
X87259620Y-133150826D01*
X87415826Y-132994620D01*
X87542534Y-132813662D01*
X87602618Y-132684811D01*
X87648790Y-132632371D01*
X87715983Y-132613219D01*
X87782865Y-132633435D01*
X87827382Y-132684811D01*
X87887464Y-132813658D01*
X87887468Y-132813666D01*
X88014170Y-132994615D01*
X88014174Y-132994620D01*
X88170380Y-133150826D01*
X88170382Y-133150827D01*
X88170384Y-133150829D01*
X88351333Y-133277531D01*
X88351335Y-133277532D01*
X88351338Y-133277534D01*
X88551550Y-133370894D01*
X88764932Y-133428070D01*
X88922123Y-133441822D01*
X88984998Y-133447323D01*
X88985000Y-133447323D01*
X88985002Y-133447323D01*
X89040017Y-133442509D01*
X89205068Y-133428070D01*
X89418450Y-133370894D01*
X89618662Y-133277534D01*
X89799620Y-133150826D01*
X89955826Y-132994620D01*
X90082534Y-132813662D01*
X90142618Y-132684811D01*
X90188790Y-132632371D01*
X90255983Y-132613219D01*
X90322865Y-132633435D01*
X90367382Y-132684811D01*
X90427464Y-132813658D01*
X90427468Y-132813666D01*
X90554170Y-132994615D01*
X90554174Y-132994620D01*
X90710380Y-133150826D01*
X90710382Y-133150827D01*
X90710384Y-133150829D01*
X90745127Y-133175156D01*
X90871623Y-133263729D01*
X90915247Y-133318304D01*
X90924499Y-133365303D01*
X90924499Y-133443854D01*
X90924498Y-133443854D01*
X90965423Y-133596585D01*
X90994358Y-133646700D01*
X90994359Y-133646704D01*
X90994360Y-133646704D01*
X91044479Y-133733514D01*
X91044481Y-133733517D01*
X91163349Y-133852385D01*
X91163355Y-133852390D01*
X101849298Y-144538333D01*
X101882783Y-144599656D01*
X101884837Y-144612130D01*
X101894630Y-144699049D01*
X101954210Y-144869321D01*
X102050183Y-145022061D01*
X102052812Y-145025357D01*
X102053845Y-145027889D01*
X102053889Y-145027958D01*
X102053876Y-145027965D01*
X102079220Y-145090044D01*
X102066463Y-145158739D01*
X102058967Y-145171558D01*
X102007973Y-145247877D01*
X102007964Y-145247893D01*
X101932550Y-145429960D01*
X101932547Y-145429970D01*
X101894100Y-145623256D01*
X101894100Y-145623259D01*
X101894100Y-162059441D01*
X101894100Y-162059443D01*
X101894099Y-162059443D01*
X101932547Y-162252729D01*
X101932550Y-162252739D01*
X102007964Y-162434807D01*
X102007971Y-162434820D01*
X102117460Y-162598681D01*
X102117463Y-162598685D01*
X102261137Y-162742359D01*
X102261159Y-162742379D01*
X105016472Y-165497692D01*
X105049957Y-165559015D01*
X105044973Y-165628707D01*
X105003101Y-165684640D01*
X104973587Y-165700999D01*
X104922604Y-165720750D01*
X104922595Y-165720754D01*
X104733439Y-165837874D01*
X104733437Y-165837876D01*
X104569020Y-165987761D01*
X104434943Y-166165308D01*
X104434938Y-166165316D01*
X104335775Y-166364461D01*
X104335769Y-166364476D01*
X104274885Y-166578462D01*
X104274884Y-166578464D01*
X104254357Y-166799999D01*
X104254357Y-166800000D01*
X104274884Y-167021535D01*
X104274885Y-167021537D01*
X104335769Y-167235523D01*
X104335775Y-167235538D01*
X104434938Y-167434683D01*
X104434943Y-167434691D01*
X104569020Y-167612238D01*
X104733437Y-167762123D01*
X104733439Y-167762125D01*
X104922595Y-167879245D01*
X104922596Y-167879245D01*
X104922599Y-167879247D01*
X105130060Y-167959618D01*
X105348757Y-168000500D01*
X105348759Y-168000500D01*
X105571241Y-168000500D01*
X105571243Y-168000500D01*
X105789940Y-167959618D01*
X105997401Y-167879247D01*
X106186562Y-167762124D01*
X106350981Y-167612236D01*
X106485058Y-167434689D01*
X106563948Y-167276258D01*
X106611451Y-167225021D01*
X106679114Y-167207600D01*
X106745454Y-167229526D01*
X106762629Y-167243849D01*
X107630581Y-168111801D01*
X107664066Y-168173124D01*
X107666900Y-168199482D01*
X107666900Y-175635944D01*
X107698759Y-175796108D01*
X107705347Y-175829229D01*
X107705349Y-175829237D01*
X107780764Y-176011307D01*
X107780771Y-176011320D01*
X107890260Y-176175181D01*
X107890263Y-176175185D01*
X108033937Y-176318859D01*
X108033959Y-176318879D01*
X108939511Y-177224431D01*
X108971096Y-177278177D01*
X108993531Y-177357029D01*
X109088488Y-177547726D01*
X109216871Y-177717733D01*
X109352306Y-177841197D01*
X109374304Y-177861251D01*
X109555428Y-177973399D01*
X109754077Y-178050356D01*
X109963483Y-178089500D01*
X109963486Y-178089500D01*
X110176514Y-178089500D01*
X110176517Y-178089500D01*
X110385923Y-178050356D01*
X110584572Y-177973399D01*
X110765696Y-177861251D01*
X110923130Y-177717731D01*
X111051512Y-177547726D01*
X111146469Y-177357026D01*
X111204769Y-177152125D01*
X111224425Y-176940000D01*
X111204769Y-176727875D01*
X111146469Y-176522974D01*
X111144739Y-176519500D01*
X111089675Y-176408916D01*
X111051512Y-176332274D01*
X110932884Y-176175185D01*
X110923128Y-176162266D01*
X110765697Y-176018750D01*
X110765696Y-176018749D01*
X110584572Y-175906601D01*
X110584571Y-175906600D01*
X110475843Y-175864479D01*
X110391769Y-175831908D01*
X110348884Y-175803964D01*
X110273693Y-175728773D01*
X110240208Y-175667450D01*
X110245192Y-175597758D01*
X110287064Y-175541825D01*
X110338586Y-175519204D01*
X110385923Y-175510356D01*
X110584572Y-175433399D01*
X110765696Y-175321251D01*
X110923130Y-175177731D01*
X111051512Y-175007726D01*
X111146469Y-174817026D01*
X111204769Y-174612125D01*
X111224425Y-174400000D01*
X111204769Y-174187875D01*
X111204240Y-174182166D01*
X111206055Y-174181997D01*
X111212247Y-174120762D01*
X111239423Y-174079810D01*
X111379206Y-173940028D01*
X111379211Y-173940024D01*
X111389414Y-173929820D01*
X111389416Y-173929820D01*
X111501220Y-173818016D01*
X111566802Y-173704422D01*
X111566804Y-173704421D01*
X111572271Y-173694950D01*
X111580277Y-173681085D01*
X111621201Y-173528357D01*
X111621201Y-173370243D01*
X111621201Y-173362648D01*
X111621200Y-173362630D01*
X111621200Y-168203345D01*
X111621200Y-168203343D01*
X111580277Y-168050616D01*
X111527740Y-167959618D01*
X111501224Y-167913690D01*
X111501221Y-167913686D01*
X111501220Y-167913684D01*
X111401859Y-167814323D01*
X111368375Y-167753000D01*
X111373359Y-167683308D01*
X111406003Y-167635006D01*
X111430981Y-167612236D01*
X111565058Y-167434689D01*
X111664229Y-167235528D01*
X111725115Y-167021536D01*
X111745643Y-166800000D01*
X111743039Y-166771903D01*
X111725115Y-166578464D01*
X111725114Y-166578462D01*
X111664230Y-166364476D01*
X111664229Y-166364472D01*
X111664224Y-166364461D01*
X111565061Y-166165316D01*
X111565056Y-166165308D01*
X111430979Y-165987761D01*
X111266562Y-165837876D01*
X111266560Y-165837874D01*
X111077404Y-165720754D01*
X111077398Y-165720752D01*
X111077393Y-165720750D01*
X110869940Y-165640382D01*
X110651243Y-165599500D01*
X110428757Y-165599500D01*
X110210060Y-165640382D01*
X110095817Y-165684640D01*
X110002601Y-165720752D01*
X110002595Y-165720754D01*
X109813439Y-165837874D01*
X109813437Y-165837876D01*
X109649020Y-165987761D01*
X109514943Y-166165308D01*
X109514938Y-166165316D01*
X109415775Y-166364461D01*
X109415769Y-166364476D01*
X109354885Y-166578462D01*
X109354885Y-166578464D01*
X109342977Y-166706966D01*
X109317190Y-166771903D01*
X109260390Y-166812590D01*
X109190609Y-166816110D01*
X109131825Y-166783205D01*
X103931419Y-161582799D01*
X103897934Y-161521476D01*
X103895100Y-161495118D01*
X103895100Y-154265581D01*
X103914785Y-154198542D01*
X103967589Y-154152787D01*
X104036747Y-154142843D01*
X104072899Y-154153860D01*
X104218677Y-154224063D01*
X104469385Y-154301396D01*
X104728818Y-154340500D01*
X104991182Y-154340500D01*
X105250615Y-154301396D01*
X105501323Y-154224063D01*
X105737704Y-154110228D01*
X105954479Y-153962433D01*
X106146805Y-153783981D01*
X106310386Y-153578857D01*
X106441568Y-153351643D01*
X106473926Y-153269194D01*
X106516740Y-153213984D01*
X106582610Y-153190683D01*
X106589353Y-153190500D01*
X108210647Y-153190500D01*
X108277686Y-153210185D01*
X108323441Y-153262989D01*
X108326058Y-153269157D01*
X108358432Y-153351643D01*
X108489614Y-153578857D01*
X108621736Y-153744533D01*
X108653198Y-153783985D01*
X108834753Y-153952441D01*
X108845521Y-153962433D01*
X109062296Y-154110228D01*
X109062301Y-154110230D01*
X109062302Y-154110231D01*
X109062303Y-154110232D01*
X109152901Y-154153861D01*
X109298673Y-154224061D01*
X109298674Y-154224061D01*
X109298677Y-154224063D01*
X109549385Y-154301396D01*
X109808818Y-154340500D01*
X110071182Y-154340500D01*
X110330615Y-154301396D01*
X110581323Y-154224063D01*
X110817704Y-154110228D01*
X111034479Y-153962433D01*
X111226805Y-153783981D01*
X111390386Y-153578857D01*
X111521568Y-153351643D01*
X111617420Y-153107416D01*
X111675802Y-152851630D01*
X111695408Y-152590000D01*
X111675802Y-152328370D01*
X111617420Y-152072584D01*
X111521568Y-151828357D01*
X111390386Y-151601143D01*
X111226805Y-151396019D01*
X111226804Y-151396018D01*
X111226801Y-151396014D01*
X111034479Y-151217567D01*
X110904899Y-151129221D01*
X110817704Y-151069772D01*
X110817700Y-151069770D01*
X110817697Y-151069768D01*
X110817696Y-151069767D01*
X110581325Y-150955938D01*
X110581327Y-150955938D01*
X110330623Y-150878606D01*
X110330619Y-150878605D01*
X110330615Y-150878604D01*
X110205823Y-150859794D01*
X110071187Y-150839500D01*
X110071182Y-150839500D01*
X109808818Y-150839500D01*
X109808812Y-150839500D01*
X109647247Y-150863853D01*
X109549385Y-150878604D01*
X109549382Y-150878605D01*
X109549376Y-150878606D01*
X109298673Y-150955938D01*
X109228301Y-150989828D01*
X109159360Y-151001180D01*
X109095225Y-150973458D01*
X109056260Y-150915462D01*
X109050500Y-150878108D01*
X109050500Y-149221892D01*
X109070185Y-149154853D01*
X109122989Y-149109098D01*
X109192147Y-149099154D01*
X109228301Y-149110172D01*
X109245682Y-149118542D01*
X109298673Y-149144061D01*
X109298674Y-149144061D01*
X109298677Y-149144063D01*
X109549385Y-149221396D01*
X109808818Y-149260500D01*
X110071182Y-149260500D01*
X110330615Y-149221396D01*
X110581323Y-149144063D01*
X110817704Y-149030228D01*
X111034479Y-148882433D01*
X111226805Y-148703981D01*
X111390386Y-148498857D01*
X111521568Y-148271643D01*
X111617420Y-148027416D01*
X111675802Y-147771630D01*
X111695408Y-147510000D01*
X111675802Y-147248370D01*
X111617420Y-146992584D01*
X111521568Y-146748357D01*
X111390386Y-146521143D01*
X111226805Y-146316019D01*
X111226804Y-146316018D01*
X111226801Y-146316014D01*
X111034479Y-146137567D01*
X110817704Y-145989772D01*
X110817700Y-145989770D01*
X110817697Y-145989768D01*
X110817696Y-145989767D01*
X110581325Y-145875938D01*
X110581327Y-145875938D01*
X110330623Y-145798606D01*
X110330619Y-145798605D01*
X110330615Y-145798604D01*
X110205823Y-145779794D01*
X110071187Y-145759500D01*
X110071182Y-145759500D01*
X109808818Y-145759500D01*
X109808812Y-145759500D01*
X109647247Y-145783853D01*
X109549385Y-145798604D01*
X109549382Y-145798605D01*
X109549376Y-145798606D01*
X109298673Y-145875938D01*
X109062303Y-145989767D01*
X109062302Y-145989768D01*
X108845520Y-146137567D01*
X108653198Y-146316014D01*
X108489614Y-146521143D01*
X108358435Y-146748350D01*
X108358432Y-146748355D01*
X108358432Y-146748357D01*
X108326073Y-146830805D01*
X108283260Y-146886016D01*
X108217390Y-146909317D01*
X108210647Y-146909500D01*
X106589353Y-146909500D01*
X106522314Y-146889815D01*
X106476559Y-146837011D01*
X106473941Y-146830842D01*
X106441568Y-146748357D01*
X106310386Y-146521143D01*
X106146805Y-146316019D01*
X106146804Y-146316018D01*
X106146801Y-146316014D01*
X105954479Y-146137567D01*
X105737704Y-145989772D01*
X105737700Y-145989770D01*
X105737697Y-145989768D01*
X105737696Y-145989767D01*
X105501325Y-145875938D01*
X105501327Y-145875938D01*
X105250623Y-145798606D01*
X105250619Y-145798605D01*
X105250615Y-145798604D01*
X105125823Y-145779794D01*
X104991187Y-145759500D01*
X104991182Y-145759500D01*
X104728818Y-145759500D01*
X104728812Y-145759500D01*
X104563334Y-145784443D01*
X104494109Y-145774970D01*
X104440995Y-145729576D01*
X104420855Y-145662672D01*
X104440083Y-145595500D01*
X104457166Y-145574152D01*
X106784078Y-143247241D01*
X106784082Y-143247239D01*
X106923439Y-143107882D01*
X107032932Y-142944014D01*
X107108351Y-142761935D01*
X107138395Y-142610895D01*
X107146800Y-142568643D01*
X107146800Y-141536005D01*
X107166485Y-141468966D01*
X107219289Y-141423211D01*
X107288447Y-141413267D01*
X107302891Y-141416229D01*
X107450487Y-141455778D01*
X107601229Y-141468966D01*
X107674998Y-141475420D01*
X107675000Y-141475420D01*
X107675002Y-141475420D01*
X107731128Y-141470509D01*
X107899513Y-141455778D01*
X108117205Y-141397447D01*
X108321460Y-141302202D01*
X108506073Y-141172934D01*
X108665434Y-141013573D01*
X108794702Y-140828960D01*
X108889947Y-140624705D01*
X108948278Y-140407013D01*
X108963009Y-140238628D01*
X108967920Y-140182502D01*
X108967920Y-140182497D01*
X108948278Y-139957992D01*
X108948278Y-139957987D01*
X108889947Y-139740295D01*
X108794702Y-139536040D01*
X108665434Y-139351427D01*
X108506073Y-139192066D01*
X108503019Y-139189927D01*
X108501989Y-139188639D01*
X108501928Y-139188588D01*
X108501938Y-139188575D01*
X108459398Y-139135351D01*
X108452207Y-139065853D01*
X108483732Y-139003499D01*
X108543963Y-138968087D01*
X108560885Y-138965068D01*
X108569983Y-138964091D01*
X108600436Y-138952733D01*
X108704828Y-138913797D01*
X108704827Y-138913797D01*
X108704831Y-138913796D01*
X108820046Y-138827546D01*
X108906296Y-138712331D01*
X108956591Y-138577483D01*
X108963000Y-138517873D01*
X108962999Y-136847128D01*
X108956591Y-136787517D01*
X108952551Y-136776686D01*
X108906297Y-136652671D01*
X108906293Y-136652664D01*
X108820047Y-136537455D01*
X108820044Y-136537452D01*
X108704835Y-136451206D01*
X108704828Y-136451202D01*
X108569982Y-136400908D01*
X108569983Y-136400908D01*
X108510383Y-136394501D01*
X108510381Y-136394500D01*
X108510373Y-136394500D01*
X108510365Y-136394500D01*
X107270800Y-136394500D01*
X107203761Y-136374815D01*
X107158006Y-136322011D01*
X107146800Y-136270500D01*
X107146800Y-134836682D01*
X107166485Y-134769643D01*
X107183119Y-134749001D01*
X108387136Y-133544985D01*
X108387139Y-133544982D01*
X108427707Y-133484268D01*
X108496632Y-133381114D01*
X108572051Y-133199035D01*
X108581641Y-133150829D01*
X108581641Y-133150827D01*
X108610499Y-133005744D01*
X108610500Y-133005742D01*
X108610500Y-132714232D01*
X108630185Y-132647193D01*
X108660187Y-132614968D01*
X108729546Y-132563046D01*
X108815796Y-132447831D01*
X108866091Y-132312983D01*
X108872500Y-132253373D01*
X108872499Y-131647280D01*
X108892183Y-131580242D01*
X108908813Y-131559605D01*
X109741478Y-130726941D01*
X109741482Y-130726939D01*
X109880839Y-130587582D01*
X109990332Y-130423714D01*
X110065751Y-130241635D01*
X110092474Y-130107290D01*
X110104200Y-130048343D01*
X110104200Y-125030658D01*
X110097719Y-124998079D01*
X110097719Y-124998077D01*
X110082630Y-124922221D01*
X110065751Y-124837364D01*
X109997822Y-124673369D01*
X109990332Y-124655286D01*
X109952019Y-124597947D01*
X109880840Y-124491419D01*
X109837959Y-124448538D01*
X109741482Y-124352061D01*
X109741481Y-124352060D01*
X100735208Y-115345788D01*
X100735206Y-115345785D01*
X100735206Y-115345786D01*
X100728139Y-115338719D01*
X100728139Y-115338718D01*
X100588782Y-115199361D01*
X100588781Y-115199360D01*
X100588780Y-115199359D01*
X100511320Y-115147602D01*
X100466515Y-115093990D01*
X100457808Y-115024665D01*
X100487963Y-114961637D01*
X100547406Y-114924918D01*
X100580211Y-114920500D01*
X100793331Y-114920500D01*
X100793347Y-114920501D01*
X100800943Y-114920501D01*
X100959054Y-114920501D01*
X100959057Y-114920501D01*
X101111785Y-114879577D01*
X101161904Y-114850639D01*
X101248716Y-114800520D01*
X101360520Y-114688716D01*
X101360520Y-114688714D01*
X101370728Y-114678507D01*
X101370730Y-114678504D01*
X101422620Y-114626613D01*
X101483941Y-114593130D01*
X101553633Y-114598114D01*
X101609566Y-114639986D01*
X101633983Y-114705450D01*
X101631916Y-114738487D01*
X101599500Y-114901455D01*
X101599500Y-115098544D01*
X101637947Y-115291828D01*
X101637949Y-115291836D01*
X101713367Y-115473910D01*
X101713372Y-115473920D01*
X101822860Y-115637780D01*
X101822863Y-115637784D01*
X101962215Y-115777136D01*
X101962219Y-115777139D01*
X102126079Y-115886627D01*
X102126083Y-115886629D01*
X102126086Y-115886631D01*
X102308164Y-115962051D01*
X102501455Y-116000499D01*
X102501458Y-116000500D01*
X102501460Y-116000500D01*
X102698542Y-116000500D01*
X102698543Y-116000499D01*
X102891836Y-115962051D01*
X103073914Y-115886631D01*
X103237781Y-115777139D01*
X111231139Y-107783782D01*
X111340631Y-107619915D01*
X111340632Y-107619914D01*
X111405896Y-107462351D01*
X111416051Y-107437836D01*
X111454500Y-107244541D01*
X111454500Y-107047460D01*
X111454500Y-81955459D01*
X111454500Y-81955456D01*
X111423661Y-81800423D01*
X111416051Y-81762164D01*
X111405227Y-81736035D01*
X111393322Y-81707291D01*
X111393311Y-81707266D01*
X111340632Y-81580086D01*
X111301059Y-81520861D01*
X111231139Y-81416217D01*
X111088686Y-81273764D01*
X111088655Y-81273735D01*
X109890818Y-80075898D01*
X109857333Y-80014575D01*
X109854499Y-79988217D01*
X109854499Y-79398129D01*
X109854498Y-79398123D01*
X109848091Y-79338516D01*
X109797797Y-79203671D01*
X109797795Y-79203668D01*
X109770545Y-79167267D01*
X109758477Y-79151145D01*
X109734060Y-79085684D01*
X109748911Y-79017411D01*
X109770059Y-78989159D01*
X111237639Y-77521582D01*
X111290599Y-77442322D01*
X111347132Y-77357714D01*
X111412252Y-77200500D01*
X111422551Y-77175636D01*
X111461000Y-76982341D01*
X111461000Y-76785260D01*
X111461000Y-70361959D01*
X111461000Y-70361956D01*
X111422552Y-70168670D01*
X111422551Y-70168669D01*
X111422551Y-70168665D01*
X111398891Y-70111544D01*
X111347135Y-69986592D01*
X111347128Y-69986579D01*
X111237639Y-69822718D01*
X111237636Y-69822714D01*
X111095186Y-69680264D01*
X111095155Y-69680235D01*
X110290818Y-68875898D01*
X110257333Y-68814575D01*
X110254499Y-68788217D01*
X110254499Y-68198129D01*
X110254498Y-68198123D01*
X110254497Y-68198116D01*
X110248091Y-68138517D01*
X110241201Y-68120045D01*
X110197797Y-68003671D01*
X110197793Y-68003664D01*
X110111547Y-67888455D01*
X110111544Y-67888452D01*
X109996335Y-67802206D01*
X109996328Y-67802202D01*
X109861482Y-67751908D01*
X109861483Y-67751908D01*
X109801883Y-67745501D01*
X109801881Y-67745500D01*
X109801873Y-67745500D01*
X109801864Y-67745500D01*
X108198129Y-67745500D01*
X108198123Y-67745501D01*
X108138516Y-67751908D01*
X108003671Y-67802202D01*
X108003664Y-67802206D01*
X107888455Y-67888452D01*
X107888452Y-67888455D01*
X107802206Y-68003664D01*
X107802202Y-68003671D01*
X107751908Y-68138517D01*
X107745501Y-68198116D01*
X107745501Y-68198123D01*
X107745500Y-68198135D01*
X107745500Y-69801870D01*
X107745501Y-69801876D01*
X107751908Y-69861483D01*
X107802202Y-69996328D01*
X107802206Y-69996335D01*
X107888452Y-70111544D01*
X107888455Y-70111547D01*
X108003664Y-70197793D01*
X108003671Y-70197797D01*
X108048618Y-70214561D01*
X108138517Y-70248091D01*
X108198127Y-70254500D01*
X108198294Y-70254499D01*
X108198329Y-70254510D01*
X108201453Y-70254678D01*
X108201413Y-70255414D01*
X108265336Y-70274165D01*
X108311106Y-70326955D01*
X108321069Y-70396111D01*
X108292062Y-70459675D01*
X108269450Y-70480073D01*
X108190550Y-70535319D01*
X108190541Y-70535327D01*
X108035327Y-70690541D01*
X108035322Y-70690547D01*
X107909423Y-70870349D01*
X107909419Y-70870357D01*
X107816655Y-71069291D01*
X107816653Y-71069295D01*
X107816653Y-71069297D01*
X107801208Y-71126938D01*
X107759839Y-71281324D01*
X107759838Y-71281331D01*
X107740708Y-71499997D01*
X107740708Y-71500002D01*
X107753046Y-71641035D01*
X107759839Y-71718674D01*
X107816653Y-71930703D01*
X107816654Y-71930706D01*
X107816655Y-71930708D01*
X107909419Y-72129642D01*
X107909423Y-72129650D01*
X108035322Y-72309452D01*
X108035327Y-72309458D01*
X108190541Y-72464672D01*
X108190547Y-72464677D01*
X108370349Y-72590576D01*
X108370351Y-72590577D01*
X108370354Y-72590579D01*
X108458736Y-72631791D01*
X108471230Y-72637618D01*
X108523669Y-72683790D01*
X108542821Y-72750984D01*
X108522605Y-72817865D01*
X108471230Y-72862382D01*
X108370353Y-72909421D01*
X108370349Y-72909423D01*
X108273733Y-72977075D01*
X108207527Y-72999402D01*
X108202610Y-72999500D01*
X106114675Y-72999500D01*
X106114655Y-72999499D01*
X106108541Y-72999499D01*
X105911460Y-72999499D01*
X105911457Y-72999499D01*
X105718172Y-73037946D01*
X105718164Y-73037948D01*
X105536088Y-73113366D01*
X105536079Y-73113371D01*
X105372219Y-73222859D01*
X105372215Y-73222862D01*
X103989008Y-74606069D01*
X103927685Y-74639554D01*
X103924115Y-74640276D01*
X103870067Y-74650380D01*
X103870060Y-74650382D01*
X103662601Y-74730751D01*
X103662595Y-74730754D01*
X103473439Y-74847874D01*
X103473437Y-74847876D01*
X103309020Y-74997762D01*
X103239140Y-75090298D01*
X103183031Y-75131934D01*
X103113319Y-75136625D01*
X103052503Y-75103251D01*
X102393428Y-74444153D01*
X101182802Y-73233485D01*
X101149320Y-73172164D01*
X101154306Y-73102472D01*
X101182804Y-73058129D01*
X104558506Y-69682428D01*
X104558511Y-69682424D01*
X104568714Y-69672220D01*
X104568716Y-69672220D01*
X104680520Y-69560416D01*
X104738495Y-69460000D01*
X104748041Y-69443467D01*
X104759574Y-69423490D01*
X104759575Y-69423489D01*
X104759575Y-69423487D01*
X104759577Y-69423485D01*
X104800501Y-69270757D01*
X104800501Y-69270753D01*
X104800818Y-69269570D01*
X104837183Y-69209910D01*
X104855312Y-69196239D01*
X104926562Y-69152124D01*
X105085462Y-69007267D01*
X105090979Y-69002238D01*
X105110152Y-68976850D01*
X105225058Y-68824689D01*
X105324229Y-68625528D01*
X105385115Y-68411536D01*
X105405643Y-68190000D01*
X105400872Y-68138517D01*
X105385115Y-67968464D01*
X105385114Y-67968462D01*
X105382461Y-67959139D01*
X105324229Y-67754472D01*
X105322953Y-67751909D01*
X105225061Y-67555316D01*
X105225056Y-67555308D01*
X105090979Y-67377761D01*
X104926562Y-67227876D01*
X104926560Y-67227874D01*
X104737404Y-67110754D01*
X104737398Y-67110752D01*
X104529940Y-67030382D01*
X104311243Y-66989500D01*
X104088757Y-66989500D01*
X103870060Y-67030382D01*
X103738864Y-67081207D01*
X103662601Y-67110752D01*
X103662595Y-67110754D01*
X103473439Y-67227874D01*
X103473437Y-67227876D01*
X103309020Y-67377761D01*
X103223453Y-67491071D01*
X103167344Y-67532707D01*
X103097632Y-67537398D01*
X103036450Y-67503656D01*
X103003223Y-67442193D01*
X103000499Y-67416344D01*
X103000499Y-66352129D01*
X103000498Y-66352123D01*
X103000497Y-66352116D01*
X102994091Y-66292517D01*
X102989742Y-66280858D01*
X102943797Y-66157671D01*
X102943793Y-66157664D01*
X102857547Y-66042455D01*
X102857544Y-66042452D01*
X102742335Y-65956206D01*
X102742328Y-65956202D01*
X102607482Y-65905908D01*
X102607483Y-65905908D01*
X102547883Y-65899501D01*
X102547881Y-65899500D01*
X102547873Y-65899500D01*
X102547864Y-65899500D01*
X100652129Y-65899500D01*
X100652123Y-65899501D01*
X100592516Y-65905908D01*
X100457671Y-65956202D01*
X100457664Y-65956206D01*
X100342455Y-66042452D01*
X100342452Y-66042455D01*
X100256206Y-66157664D01*
X100256202Y-66157671D01*
X100205908Y-66292517D01*
X100199501Y-66352116D01*
X100199501Y-66352123D01*
X100199500Y-66352135D01*
X100199500Y-66649787D01*
X100179815Y-66716826D01*
X100137500Y-66757174D01*
X100029587Y-66819477D01*
X100029586Y-66819478D01*
X99894558Y-66954505D01*
X99833234Y-66987989D01*
X99763543Y-66983004D01*
X99707609Y-66941133D01*
X99688995Y-66898012D01*
X99687036Y-66898537D01*
X99626741Y-66673511D01*
X99626738Y-66673502D01*
X99530568Y-66467266D01*
X99400047Y-66280861D01*
X99400045Y-66280858D01*
X99239141Y-66119954D01*
X99052734Y-65989432D01*
X99052732Y-65989431D01*
X98846497Y-65893261D01*
X98846488Y-65893258D01*
X98626697Y-65834366D01*
X98626693Y-65834365D01*
X98626692Y-65834365D01*
X98626691Y-65834364D01*
X98626686Y-65834364D01*
X98400002Y-65814532D01*
X98399998Y-65814532D01*
X98173313Y-65834364D01*
X98173302Y-65834366D01*
X97953511Y-65893258D01*
X97953502Y-65893261D01*
X97747267Y-65989431D01*
X97747265Y-65989432D01*
X97560858Y-66119954D01*
X97399954Y-66280858D01*
X97269432Y-66467265D01*
X97269431Y-66467267D01*
X97173261Y-66673502D01*
X97173258Y-66673511D01*
X97114366Y-66893302D01*
X97114364Y-66893313D01*
X97094532Y-67119998D01*
X97094532Y-67120001D01*
X97114364Y-67346686D01*
X97114365Y-67346694D01*
X97128502Y-67399452D01*
X97139954Y-67442193D01*
X97140152Y-67442929D01*
X97138489Y-67512779D01*
X97108058Y-67562704D01*
X89297584Y-75373181D01*
X89236261Y-75406666D01*
X89209903Y-75409500D01*
X84477391Y-75409500D01*
X84410352Y-75389815D01*
X84364597Y-75337011D01*
X84354653Y-75267853D01*
X84365009Y-75233095D01*
X84371589Y-75218985D01*
X84386739Y-75186496D01*
X84445635Y-74966692D01*
X84465468Y-74740000D01*
X84445635Y-74513308D01*
X84386739Y-74293504D01*
X84290568Y-74087266D01*
X84160047Y-73900861D01*
X84160045Y-73900858D01*
X83999141Y-73739954D01*
X83812734Y-73609432D01*
X83812728Y-73609429D01*
X83754725Y-73582382D01*
X83702285Y-73536210D01*
X83683133Y-73469017D01*
X83703348Y-73402135D01*
X83754725Y-73357618D01*
X83812734Y-73330568D01*
X83999139Y-73200047D01*
X84160047Y-73039139D01*
X84290568Y-72852734D01*
X84386739Y-72646496D01*
X84445635Y-72426692D01*
X84465468Y-72200000D01*
X84445635Y-71973308D01*
X84386739Y-71753504D01*
X84290568Y-71547266D01*
X84160047Y-71360861D01*
X84160045Y-71360858D01*
X83999141Y-71199954D01*
X83812734Y-71069432D01*
X83812728Y-71069429D01*
X83754725Y-71042382D01*
X83702285Y-70996210D01*
X83683133Y-70929017D01*
X83703348Y-70862135D01*
X83754725Y-70817618D01*
X83812734Y-70790568D01*
X83999139Y-70660047D01*
X84160047Y-70499139D01*
X84290568Y-70312734D01*
X84386739Y-70106496D01*
X84445635Y-69886692D01*
X84465468Y-69660000D01*
X84445635Y-69433308D01*
X84400916Y-69266415D01*
X84386741Y-69213511D01*
X84386738Y-69213502D01*
X84366989Y-69171151D01*
X84290568Y-69007266D01*
X84160047Y-68820861D01*
X84160045Y-68820858D01*
X83999141Y-68659954D01*
X83812734Y-68529432D01*
X83812728Y-68529429D01*
X83754725Y-68502382D01*
X83702285Y-68456210D01*
X83683133Y-68389017D01*
X83703348Y-68322135D01*
X83754725Y-68277618D01*
X83812734Y-68250568D01*
X83999139Y-68120047D01*
X84160047Y-67959139D01*
X84290568Y-67772734D01*
X84386739Y-67566496D01*
X84445635Y-67346692D01*
X84465468Y-67120000D01*
X84445635Y-66893308D01*
X84386739Y-66673504D01*
X84290568Y-66467266D01*
X84160047Y-66280861D01*
X84160045Y-66280858D01*
X83999141Y-66119954D01*
X83812734Y-65989432D01*
X83812732Y-65989431D01*
X83606497Y-65893261D01*
X83606488Y-65893258D01*
X83386697Y-65834366D01*
X83386693Y-65834365D01*
X83386692Y-65834365D01*
X83386691Y-65834364D01*
X83386686Y-65834364D01*
X83160002Y-65814532D01*
X83159998Y-65814532D01*
X82933313Y-65834364D01*
X82933302Y-65834366D01*
X82713511Y-65893258D01*
X82713502Y-65893261D01*
X82507267Y-65989431D01*
X82507265Y-65989432D01*
X82320858Y-66119954D01*
X82159954Y-66280858D01*
X82029432Y-66467265D01*
X82029431Y-66467267D01*
X81933261Y-66673502D01*
X81933258Y-66673511D01*
X81874366Y-66893302D01*
X81874364Y-66893313D01*
X81854532Y-67119998D01*
X81854532Y-67120001D01*
X81874364Y-67346686D01*
X81874366Y-67346697D01*
X81933258Y-67566488D01*
X81933261Y-67566497D01*
X82029431Y-67772732D01*
X82029432Y-67772734D01*
X82159954Y-67959141D01*
X82320858Y-68120045D01*
X82320861Y-68120047D01*
X82507266Y-68250568D01*
X82565275Y-68277618D01*
X82617714Y-68323791D01*
X82636866Y-68390984D01*
X82616650Y-68457865D01*
X82565275Y-68502382D01*
X82507267Y-68529431D01*
X82507265Y-68529432D01*
X82320858Y-68659954D01*
X82159954Y-68820858D01*
X82029432Y-69007265D01*
X82029431Y-69007267D01*
X81933261Y-69213502D01*
X81933258Y-69213511D01*
X81874366Y-69433302D01*
X81874364Y-69433313D01*
X81854532Y-69659998D01*
X81854532Y-69660001D01*
X81874364Y-69886686D01*
X81874366Y-69886697D01*
X81933258Y-70106488D01*
X81933261Y-70106497D01*
X82029431Y-70312732D01*
X82029432Y-70312734D01*
X82159954Y-70499141D01*
X82320858Y-70660045D01*
X82320861Y-70660047D01*
X82507266Y-70790568D01*
X82565275Y-70817618D01*
X82617714Y-70863791D01*
X82636866Y-70930984D01*
X82616650Y-70997865D01*
X82565275Y-71042382D01*
X82507267Y-71069431D01*
X82507265Y-71069432D01*
X82320858Y-71199954D01*
X82159954Y-71360858D01*
X82029432Y-71547265D01*
X82029431Y-71547267D01*
X81933261Y-71753502D01*
X81933258Y-71753511D01*
X81874366Y-71973302D01*
X81874364Y-71973313D01*
X81854532Y-72199998D01*
X81854532Y-72200001D01*
X81874364Y-72426686D01*
X81874366Y-72426697D01*
X81933258Y-72646488D01*
X81933261Y-72646497D01*
X82029431Y-72852732D01*
X82029432Y-72852734D01*
X82159954Y-73039141D01*
X82320858Y-73200045D01*
X82320861Y-73200047D01*
X82507266Y-73330568D01*
X82565275Y-73357618D01*
X82617714Y-73403791D01*
X82636866Y-73470984D01*
X82616650Y-73537865D01*
X82565275Y-73582382D01*
X82507267Y-73609431D01*
X82507265Y-73609432D01*
X82320858Y-73739954D01*
X82159954Y-73900858D01*
X82029432Y-74087265D01*
X82029431Y-74087267D01*
X81933261Y-74293502D01*
X81933258Y-74293511D01*
X81874366Y-74513302D01*
X81874364Y-74513313D01*
X81854532Y-74739998D01*
X81854532Y-74740001D01*
X81874364Y-74966686D01*
X81874366Y-74966697D01*
X81933258Y-75186488D01*
X81933261Y-75186497D01*
X82029431Y-75392732D01*
X82029432Y-75392734D01*
X82159954Y-75579141D01*
X82206257Y-75625444D01*
X82239742Y-75686767D01*
X82234758Y-75756459D01*
X82206257Y-75800806D01*
X80312181Y-77694883D01*
X80250858Y-77728368D01*
X80181166Y-77723384D01*
X80125233Y-77681512D01*
X80100816Y-77616048D01*
X80100500Y-77607202D01*
X80100500Y-65124500D01*
X80120185Y-65057461D01*
X80172989Y-65011706D01*
X80224500Y-65000500D01*
X111975500Y-65000500D01*
X112042539Y-65020185D01*
G37*
%TD.AperFunction*%
%TA.AperFunction,Conductor*%
G36*
X109857176Y-167789205D02*
G01*
X109877647Y-167801880D01*
X109884684Y-167806237D01*
X109931319Y-167858265D01*
X109939181Y-167879570D01*
X109939499Y-167880756D01*
X109939499Y-167880757D01*
X109948322Y-167913686D01*
X109980424Y-168033487D01*
X109990312Y-168050613D01*
X109990313Y-168050615D01*
X110059477Y-168170412D01*
X110059481Y-168170417D01*
X110178349Y-168289285D01*
X110178355Y-168289290D01*
X110383881Y-168494816D01*
X110417366Y-168556139D01*
X110420200Y-168582497D01*
X110420200Y-170587000D01*
X110400515Y-170654039D01*
X110347711Y-170699794D01*
X110326617Y-170704382D01*
X110320000Y-170711000D01*
X110320000Y-171551387D01*
X110312535Y-171543922D01*
X110222464Y-171491919D01*
X110122003Y-171465000D01*
X110017997Y-171465000D01*
X109917536Y-171491919D01*
X109827465Y-171543922D01*
X109820000Y-171551387D01*
X109820000Y-170711000D01*
X109791900Y-170711000D01*
X109724861Y-170691315D01*
X109679106Y-170638511D01*
X109667900Y-170587000D01*
X109667900Y-167894633D01*
X109687585Y-167827594D01*
X109740389Y-167781839D01*
X109809547Y-167771895D01*
X109857176Y-167789205D01*
G37*
%TD.AperFunction*%
%TA.AperFunction,Conductor*%
G36*
X99201242Y-127358685D02*
G01*
X99221884Y-127375319D01*
X99433116Y-127586551D01*
X99466601Y-127647874D01*
X99461617Y-127717566D01*
X99419745Y-127773499D01*
X99397841Y-127786612D01*
X99384595Y-127792789D01*
X99356340Y-127805965D01*
X99356338Y-127805966D01*
X99175377Y-127932675D01*
X99019175Y-128088877D01*
X98892466Y-128269838D01*
X98892465Y-128269840D01*
X98799107Y-128470048D01*
X98799104Y-128470054D01*
X98741930Y-128683429D01*
X98741929Y-128683437D01*
X98722677Y-128903497D01*
X98722677Y-128903502D01*
X98741929Y-129123562D01*
X98741930Y-129123570D01*
X98799104Y-129336945D01*
X98799105Y-129336947D01*
X98799106Y-129336950D01*
X98857920Y-129463077D01*
X98892466Y-129537162D01*
X98892468Y-129537166D01*
X99019170Y-129718115D01*
X99019175Y-129718121D01*
X99175378Y-129874324D01*
X99175384Y-129874329D01*
X99356333Y-130001031D01*
X99356335Y-130001032D01*
X99356338Y-130001034D01*
X99457789Y-130048341D01*
X99485189Y-130061118D01*
X99537628Y-130107290D01*
X99556780Y-130174484D01*
X99536564Y-130241365D01*
X99485189Y-130285882D01*
X99356340Y-130345965D01*
X99356338Y-130345966D01*
X99175377Y-130472675D01*
X99019175Y-130628877D01*
X98892466Y-130809838D01*
X98892465Y-130809840D01*
X98799107Y-131010048D01*
X98799104Y-131010054D01*
X98741930Y-131223429D01*
X98741929Y-131223437D01*
X98722677Y-131443497D01*
X98722677Y-131443502D01*
X98741929Y-131663562D01*
X98741930Y-131663570D01*
X98799104Y-131876945D01*
X98799105Y-131876947D01*
X98799106Y-131876950D01*
X98812970Y-131906681D01*
X98892466Y-132077162D01*
X98892468Y-132077166D01*
X99019170Y-132258115D01*
X99019175Y-132258121D01*
X99175378Y-132414324D01*
X99175384Y-132414329D01*
X99356333Y-132541031D01*
X99356335Y-132541032D01*
X99356338Y-132541034D01*
X99556550Y-132634394D01*
X99769932Y-132691570D01*
X99927123Y-132705322D01*
X99989998Y-132710823D01*
X99990000Y-132710823D01*
X99990002Y-132710823D01*
X100045017Y-132706009D01*
X100210068Y-132691570D01*
X100423450Y-132634394D01*
X100623662Y-132541034D01*
X100804620Y-132414326D01*
X100960826Y-132258120D01*
X101087534Y-132077162D01*
X101147618Y-131948311D01*
X101193790Y-131895871D01*
X101260983Y-131876719D01*
X101327865Y-131896935D01*
X101372382Y-131948311D01*
X101432464Y-132077158D01*
X101432468Y-132077166D01*
X101559170Y-132258115D01*
X101559175Y-132258121D01*
X101715378Y-132414324D01*
X101715384Y-132414329D01*
X101896333Y-132541031D01*
X101896335Y-132541032D01*
X101896338Y-132541034D01*
X102096550Y-132634394D01*
X102309932Y-132691570D01*
X102467123Y-132705322D01*
X102529998Y-132710823D01*
X102530000Y-132710823D01*
X102530002Y-132710823D01*
X102585017Y-132706009D01*
X102750068Y-132691570D01*
X102963450Y-132634394D01*
X103163662Y-132541034D01*
X103344620Y-132414326D01*
X103500826Y-132258120D01*
X103627534Y-132077162D01*
X103687618Y-131948311D01*
X103733790Y-131895871D01*
X103800983Y-131876719D01*
X103867865Y-131896935D01*
X103912382Y-131948311D01*
X103972464Y-132077158D01*
X103972468Y-132077166D01*
X104099170Y-132258115D01*
X104099175Y-132258121D01*
X104255378Y-132414324D01*
X104255384Y-132414329D01*
X104436333Y-132541031D01*
X104436335Y-132541032D01*
X104436338Y-132541034D01*
X104636550Y-132634394D01*
X104849932Y-132691570D01*
X105007123Y-132705322D01*
X105069998Y-132710823D01*
X105070000Y-132710823D01*
X105070002Y-132710823D01*
X105125017Y-132706009D01*
X105290068Y-132691570D01*
X105503450Y-132634394D01*
X105703662Y-132541034D01*
X105884620Y-132414326D01*
X106040826Y-132258120D01*
X106121927Y-132142295D01*
X106176501Y-132098672D01*
X106245999Y-132091478D01*
X106308354Y-132123000D01*
X106343769Y-132183230D01*
X106347500Y-132213417D01*
X106347500Y-132253368D01*
X106347501Y-132253376D01*
X106353908Y-132312983D01*
X106404202Y-132447828D01*
X106404204Y-132447831D01*
X106435100Y-132489103D01*
X106446945Y-132504925D01*
X106471363Y-132570389D01*
X106456512Y-132638663D01*
X106435360Y-132666918D01*
X105951455Y-133150824D01*
X105508520Y-133593759D01*
X105508518Y-133593761D01*
X105455579Y-133646700D01*
X105369159Y-133733119D01*
X105259671Y-133896979D01*
X105259664Y-133896992D01*
X105184250Y-134079060D01*
X105184247Y-134079070D01*
X105145800Y-134272356D01*
X105145800Y-142004318D01*
X105126115Y-142071357D01*
X105109481Y-142091999D01*
X103331550Y-143869929D01*
X103270227Y-143903414D01*
X103200535Y-143898430D01*
X103177898Y-143887242D01*
X103143920Y-143865892D01*
X103061560Y-143814141D01*
X103015270Y-143761806D01*
X103004622Y-143692753D01*
X103032997Y-143628905D01*
X103086577Y-143592107D01*
X103233522Y-143540689D01*
X103386262Y-143444716D01*
X103513816Y-143317162D01*
X103609789Y-143164422D01*
X103669368Y-142994155D01*
X103675017Y-142944020D01*
X103689565Y-142814903D01*
X103689565Y-142814896D01*
X103669369Y-142635650D01*
X103669368Y-142635645D01*
X103609788Y-142465376D01*
X103513815Y-142312637D01*
X103386262Y-142185084D01*
X103233521Y-142089110D01*
X103063249Y-142029530D01*
X102976330Y-142019737D01*
X102911916Y-141992670D01*
X102902533Y-141984198D01*
X100184853Y-139266518D01*
X100151368Y-139205195D01*
X100156352Y-139135503D01*
X100198224Y-139079570D01*
X100254052Y-139056222D01*
X100424968Y-139030459D01*
X100424974Y-139030458D01*
X100678470Y-138952264D01*
X100917479Y-138837164D01*
X101093560Y-138717112D01*
X100159409Y-137782962D01*
X100222993Y-137765925D01*
X100337007Y-137700099D01*
X100430099Y-137607007D01*
X100495925Y-137492993D01*
X100512962Y-137429409D01*
X101446355Y-138362803D01*
X101446356Y-138362802D01*
X101496545Y-138299869D01*
X101629185Y-138070128D01*
X101726103Y-137823185D01*
X101726109Y-137823166D01*
X101785138Y-137564540D01*
X101785139Y-137564535D01*
X101804963Y-137300004D01*
X101804963Y-137299995D01*
X101785139Y-137035464D01*
X101785138Y-137035459D01*
X101726109Y-136776833D01*
X101726103Y-136776814D01*
X101629185Y-136529871D01*
X101629186Y-136529871D01*
X101496543Y-136300129D01*
X101496536Y-136300118D01*
X101446356Y-136237196D01*
X101446355Y-136237195D01*
X100512962Y-137170589D01*
X100495925Y-137107007D01*
X100430099Y-136992993D01*
X100337007Y-136899901D01*
X100222993Y-136834075D01*
X100159410Y-136817037D01*
X101093560Y-135882886D01*
X100917484Y-135762839D01*
X100917474Y-135762832D01*
X100678469Y-135647735D01*
X100678471Y-135647735D01*
X100424974Y-135569541D01*
X100424968Y-135569540D01*
X100162648Y-135530000D01*
X99897351Y-135530000D01*
X99635031Y-135569540D01*
X99635025Y-135569541D01*
X99381529Y-135647735D01*
X99142526Y-135762832D01*
X99142518Y-135762837D01*
X98966438Y-135882886D01*
X99900590Y-136817037D01*
X99837007Y-136834075D01*
X99722993Y-136899901D01*
X99629901Y-136992993D01*
X99564075Y-137107007D01*
X99547037Y-137170590D01*
X98613643Y-136237196D01*
X98563456Y-136300128D01*
X98430814Y-136529871D01*
X98333896Y-136776814D01*
X98333890Y-136776833D01*
X98274861Y-137035459D01*
X98274860Y-137035462D01*
X98272677Y-137064596D01*
X98248036Y-137129976D01*
X98191960Y-137171656D01*
X98122252Y-137176402D01*
X98061343Y-137143008D01*
X93495119Y-132576784D01*
X93461634Y-132515461D01*
X93458800Y-132489103D01*
X93458800Y-131909143D01*
X93458145Y-131906700D01*
X93458140Y-131906681D01*
X93447834Y-131868219D01*
X93417876Y-131756414D01*
X93417873Y-131756409D01*
X93338824Y-131619490D01*
X93338821Y-131619486D01*
X93338820Y-131619484D01*
X93227016Y-131507680D01*
X93227015Y-131507679D01*
X93222685Y-131503349D01*
X93222674Y-131503339D01*
X92467190Y-130747855D01*
X92467188Y-130747852D01*
X92348317Y-130628981D01*
X92348316Y-130628980D01*
X92261504Y-130578860D01*
X92261504Y-130578859D01*
X92261500Y-130578858D01*
X92211385Y-130549923D01*
X92058657Y-130508999D01*
X91900543Y-130508999D01*
X91892947Y-130508999D01*
X91892931Y-130509000D01*
X90142170Y-130509000D01*
X90142154Y-130508999D01*
X90134558Y-130508999D01*
X89976443Y-130508999D01*
X89900079Y-130529461D01*
X89823714Y-130549923D01*
X89823709Y-130549926D01*
X89686790Y-130628975D01*
X89686782Y-130628981D01*
X89396679Y-130919084D01*
X89335356Y-130952569D01*
X89276906Y-130951178D01*
X89205076Y-130931932D01*
X89205072Y-130931931D01*
X89205068Y-130931930D01*
X89205066Y-130931929D01*
X89205063Y-130931929D01*
X89049942Y-130918358D01*
X88984874Y-130892905D01*
X88943895Y-130836314D01*
X88940017Y-130766552D01*
X88973067Y-130707151D01*
X92296828Y-127383391D01*
X92358149Y-127349908D01*
X92427841Y-127354892D01*
X92450479Y-127366080D01*
X92606776Y-127464288D01*
X92606778Y-127464289D01*
X92777045Y-127523868D01*
X92777050Y-127523869D01*
X92956296Y-127544065D01*
X92956300Y-127544065D01*
X92956304Y-127544065D01*
X93135549Y-127523869D01*
X93135552Y-127523868D01*
X93135555Y-127523868D01*
X93305822Y-127464289D01*
X93458562Y-127368316D01*
X93458567Y-127368310D01*
X93461397Y-127366055D01*
X93463575Y-127365165D01*
X93464458Y-127364611D01*
X93464555Y-127364765D01*
X93526083Y-127339645D01*
X93538712Y-127339000D01*
X99134203Y-127339000D01*
X99201242Y-127358685D01*
G37*
%TD.AperFunction*%
%TA.AperFunction,Conductor*%
G36*
X87261257Y-88460185D02*
G01*
X87281894Y-88476814D01*
X87434915Y-88629835D01*
X87468398Y-88691157D01*
X87470759Y-88706700D01*
X87471928Y-88720056D01*
X87471930Y-88720070D01*
X87529104Y-88933445D01*
X87529105Y-88933447D01*
X87529106Y-88933450D01*
X87622466Y-89133662D01*
X87697076Y-89240216D01*
X87719402Y-89306419D01*
X87719500Y-89311337D01*
X87719500Y-96664217D01*
X87699815Y-96731256D01*
X87683181Y-96751898D01*
X83940452Y-100494626D01*
X83879129Y-100528111D01*
X83809437Y-100523127D01*
X83753504Y-100481255D01*
X83732997Y-100439039D01*
X83722790Y-100400946D01*
X83710897Y-100356559D01*
X83710895Y-100356554D01*
X83710894Y-100356550D01*
X83617534Y-100156339D01*
X83490826Y-99975380D01*
X83334620Y-99819174D01*
X83218796Y-99738073D01*
X83175173Y-99683497D01*
X83167980Y-99613998D01*
X83199502Y-99551644D01*
X83259732Y-99516230D01*
X83289921Y-99512499D01*
X83329871Y-99512499D01*
X83329872Y-99512499D01*
X83389483Y-99506091D01*
X83524331Y-99455796D01*
X83639546Y-99369546D01*
X83725796Y-99254331D01*
X83776091Y-99119483D01*
X83782500Y-99059873D01*
X83782499Y-97440128D01*
X83776091Y-97380517D01*
X83725796Y-97245669D01*
X83725795Y-97245668D01*
X83725793Y-97245664D01*
X83639547Y-97130455D01*
X83639544Y-97130452D01*
X83524335Y-97044206D01*
X83524328Y-97044202D01*
X83389482Y-96993908D01*
X83389483Y-96993908D01*
X83329883Y-96987501D01*
X83329881Y-96987500D01*
X83329873Y-96987500D01*
X83329865Y-96987500D01*
X82150000Y-96987500D01*
X82082961Y-96967815D01*
X82037206Y-96915011D01*
X82026000Y-96863500D01*
X82026000Y-96064549D01*
X82045685Y-95997510D01*
X82098489Y-95951755D01*
X82167647Y-95941811D01*
X82231203Y-95970836D01*
X82237681Y-95976868D01*
X82320858Y-96060045D01*
X82367693Y-96092839D01*
X82507266Y-96190568D01*
X82713504Y-96286739D01*
X82933308Y-96345635D01*
X83095230Y-96359801D01*
X83159998Y-96365468D01*
X83160000Y-96365468D01*
X83160002Y-96365468D01*
X83216673Y-96360509D01*
X83386692Y-96345635D01*
X83606496Y-96286739D01*
X83812734Y-96190568D01*
X83999139Y-96060047D01*
X84160047Y-95899139D01*
X84290568Y-95712734D01*
X84386739Y-95506496D01*
X84445635Y-95286692D01*
X84465468Y-95060000D01*
X84445635Y-94833308D01*
X84386739Y-94613504D01*
X84290568Y-94407266D01*
X84160047Y-94220861D01*
X84160045Y-94220858D01*
X83999141Y-94059954D01*
X83812735Y-93929433D01*
X83812736Y-93929433D01*
X83812734Y-93929432D01*
X83754132Y-93902105D01*
X83701694Y-93855933D01*
X83682543Y-93788739D01*
X83702759Y-93721858D01*
X83754135Y-93677341D01*
X83812482Y-93650133D01*
X83885471Y-93599024D01*
X83330234Y-93043787D01*
X83372292Y-93032518D01*
X83497708Y-92960110D01*
X83600110Y-92857708D01*
X83672518Y-92732292D01*
X83683787Y-92690234D01*
X84239024Y-93245471D01*
X84290136Y-93172478D01*
X84386264Y-92966331D01*
X84386269Y-92966317D01*
X84445139Y-92746610D01*
X84445141Y-92746599D01*
X84464966Y-92520002D01*
X84464966Y-92519997D01*
X84445141Y-92293400D01*
X84445139Y-92293389D01*
X84386269Y-92073682D01*
X84386264Y-92073668D01*
X84290136Y-91867521D01*
X84290132Y-91867513D01*
X84239025Y-91794526D01*
X83683787Y-92349764D01*
X83672518Y-92307708D01*
X83600110Y-92182292D01*
X83497708Y-92079890D01*
X83372292Y-92007482D01*
X83330234Y-91996212D01*
X83885472Y-91440974D01*
X83812480Y-91389864D01*
X83754134Y-91362657D01*
X83701695Y-91316484D01*
X83682543Y-91249291D01*
X83702759Y-91182410D01*
X83754134Y-91137893D01*
X83812734Y-91110568D01*
X83999139Y-90980047D01*
X84160047Y-90819139D01*
X84290568Y-90632734D01*
X84386739Y-90426496D01*
X84445635Y-90206692D01*
X84465468Y-89980000D01*
X84445635Y-89753308D01*
X84386739Y-89533504D01*
X84290568Y-89327266D01*
X84160047Y-89140861D01*
X84160045Y-89140858D01*
X83999141Y-88979954D01*
X83812734Y-88849432D01*
X83812728Y-88849429D01*
X83754725Y-88822382D01*
X83702285Y-88776210D01*
X83683133Y-88709017D01*
X83703348Y-88642135D01*
X83754725Y-88597618D01*
X83812734Y-88570568D01*
X83966465Y-88462924D01*
X84032671Y-88440598D01*
X84037588Y-88440500D01*
X87194218Y-88440500D01*
X87261257Y-88460185D01*
G37*
%TD.AperFunction*%
%TA.AperFunction,Conductor*%
G36*
X99893922Y-87245360D02*
G01*
X99908878Y-87258113D01*
X101231885Y-88581120D01*
X101265370Y-88642443D01*
X101260386Y-88712135D01*
X101218514Y-88768068D01*
X101209482Y-88774228D01*
X101073738Y-88858278D01*
X100909391Y-89008099D01*
X100775368Y-89185574D01*
X100676239Y-89384650D01*
X100623505Y-89570000D01*
X101555025Y-89570000D01*
X101519930Y-89605095D01*
X101473852Y-89684905D01*
X101450000Y-89773922D01*
X101450000Y-89866078D01*
X101473852Y-89955095D01*
X101519930Y-90034905D01*
X101585095Y-90100070D01*
X101664905Y-90146148D01*
X101753922Y-90170000D01*
X101846078Y-90170000D01*
X101935095Y-90146148D01*
X102014905Y-90100070D01*
X102050000Y-90064975D01*
X102050000Y-90994052D01*
X102129804Y-90979135D01*
X102337177Y-90898798D01*
X102337179Y-90898797D01*
X102526261Y-90781721D01*
X102690608Y-90631900D01*
X102824631Y-90454426D01*
X102841073Y-90421404D01*
X102888575Y-90370165D01*
X102956237Y-90352742D01*
X103022578Y-90374665D01*
X103039756Y-90388991D01*
X108443781Y-95793016D01*
X108477266Y-95854339D01*
X108480100Y-95880697D01*
X108480100Y-99491517D01*
X108460415Y-99558556D01*
X108407611Y-99604311D01*
X108338453Y-99614255D01*
X108274897Y-99585230D01*
X108268419Y-99579198D01*
X104833309Y-96144089D01*
X104833306Y-96144085D01*
X104833306Y-96144086D01*
X104826239Y-96137019D01*
X104826239Y-96137018D01*
X104686882Y-95997661D01*
X104686881Y-95997660D01*
X104686880Y-95997659D01*
X104523020Y-95888171D01*
X104523011Y-95888166D01*
X104439783Y-95853692D01*
X104394265Y-95834838D01*
X104367600Y-95823793D01*
X104340937Y-95812749D01*
X104340933Y-95812747D01*
X104181419Y-95781019D01*
X104181418Y-95781018D01*
X104164530Y-95777659D01*
X104147642Y-95774300D01*
X104147641Y-95774300D01*
X101923864Y-95774300D01*
X101856825Y-95754615D01*
X101811070Y-95701811D01*
X101801126Y-95632653D01*
X101806823Y-95609345D01*
X101852166Y-95479762D01*
X101852169Y-95479749D01*
X101872365Y-95300503D01*
X101872365Y-95300496D01*
X101852169Y-95121250D01*
X101852168Y-95121245D01*
X101808033Y-94995115D01*
X101792589Y-94950978D01*
X101696616Y-94798238D01*
X101569062Y-94670684D01*
X101478061Y-94613504D01*
X101416321Y-94574710D01*
X101246049Y-94515130D01*
X101159130Y-94505337D01*
X101094716Y-94478270D01*
X101085333Y-94469798D01*
X99930590Y-93315055D01*
X99930588Y-93315052D01*
X99811717Y-93196181D01*
X99811716Y-93196180D01*
X99724904Y-93146060D01*
X99724904Y-93146059D01*
X99724900Y-93146058D01*
X99679883Y-93120066D01*
X99631669Y-93069499D01*
X99618448Y-93000892D01*
X99625370Y-92970253D01*
X99626729Y-92966516D01*
X99626739Y-92966496D01*
X99685635Y-92746692D01*
X99705468Y-92520000D01*
X99685635Y-92293308D01*
X99626739Y-92073504D01*
X99530568Y-91867266D01*
X99400047Y-91680861D01*
X99400045Y-91680858D01*
X99239141Y-91519954D01*
X99070349Y-91401766D01*
X99052734Y-91389432D01*
X98994132Y-91362105D01*
X98941694Y-91315933D01*
X98922543Y-91248739D01*
X98942759Y-91181858D01*
X98994135Y-91137341D01*
X99052482Y-91110133D01*
X99125471Y-91059024D01*
X98570234Y-90503787D01*
X98612292Y-90492518D01*
X98737708Y-90420110D01*
X98840110Y-90317708D01*
X98912518Y-90192292D01*
X98923787Y-90150234D01*
X99479024Y-90705471D01*
X99530136Y-90632478D01*
X99626264Y-90426331D01*
X99626269Y-90426317D01*
X99685139Y-90206610D01*
X99685141Y-90206599D01*
X99697092Y-90070000D01*
X100623505Y-90070000D01*
X100676239Y-90255349D01*
X100775368Y-90454425D01*
X100909391Y-90631900D01*
X101073738Y-90781721D01*
X101262820Y-90898797D01*
X101262822Y-90898798D01*
X101470195Y-90979135D01*
X101550000Y-90994052D01*
X101550000Y-90070000D01*
X100623505Y-90070000D01*
X99697092Y-90070000D01*
X99704966Y-89980002D01*
X99704966Y-89979997D01*
X99685141Y-89753400D01*
X99685139Y-89753389D01*
X99626269Y-89533682D01*
X99626264Y-89533668D01*
X99530136Y-89327521D01*
X99530132Y-89327513D01*
X99479025Y-89254526D01*
X98923787Y-89809764D01*
X98912518Y-89767708D01*
X98840110Y-89642292D01*
X98737708Y-89539890D01*
X98612292Y-89467482D01*
X98570233Y-89456212D01*
X99125472Y-88900974D01*
X99052478Y-88849863D01*
X98993544Y-88822382D01*
X98941104Y-88776210D01*
X98921952Y-88709017D01*
X98942167Y-88642136D01*
X98993544Y-88597618D01*
X99052478Y-88570136D01*
X99125471Y-88519024D01*
X98570234Y-87963787D01*
X98612292Y-87952518D01*
X98737708Y-87880110D01*
X98840110Y-87777708D01*
X98912518Y-87652292D01*
X98923787Y-87610234D01*
X99479024Y-88165471D01*
X99530136Y-88092478D01*
X99626264Y-87886331D01*
X99626269Y-87886317D01*
X99685139Y-87666610D01*
X99685141Y-87666599D01*
X99704966Y-87440002D01*
X99704966Y-87439999D01*
X99697669Y-87356602D01*
X99711435Y-87288102D01*
X99760050Y-87237919D01*
X99828079Y-87221985D01*
X99893922Y-87245360D01*
G37*
%TD.AperFunction*%
%TA.AperFunction,Conductor*%
G36*
X82647482Y-92732292D02*
G01*
X82719890Y-92857708D01*
X82822292Y-92960110D01*
X82947708Y-93032518D01*
X82989765Y-93043787D01*
X82434526Y-93599025D01*
X82507513Y-93650132D01*
X82507521Y-93650136D01*
X82565864Y-93677342D01*
X82618304Y-93723514D01*
X82637456Y-93790707D01*
X82617241Y-93857589D01*
X82565866Y-93902105D01*
X82507272Y-93929428D01*
X82507265Y-93929432D01*
X82320858Y-94059954D01*
X82237681Y-94143132D01*
X82176358Y-94176617D01*
X82106666Y-94171633D01*
X82050733Y-94129761D01*
X82026316Y-94064297D01*
X82026000Y-94055451D01*
X82026000Y-93351809D01*
X82045685Y-93284770D01*
X82062319Y-93264128D01*
X82636212Y-92690234D01*
X82647482Y-92732292D01*
G37*
%TD.AperFunction*%
%TA.AperFunction,Conductor*%
G36*
X82231203Y-90890836D02*
G01*
X82237681Y-90896868D01*
X82320858Y-90980045D01*
X82340862Y-90994052D01*
X82507266Y-91110568D01*
X82565865Y-91137893D01*
X82618305Y-91184065D01*
X82637457Y-91251258D01*
X82617242Y-91318139D01*
X82565867Y-91362657D01*
X82507513Y-91389868D01*
X82507512Y-91389868D01*
X82434526Y-91440973D01*
X82434526Y-91440974D01*
X82989765Y-91996212D01*
X82947708Y-92007482D01*
X82822292Y-92079890D01*
X82719890Y-92182292D01*
X82647482Y-92307708D01*
X82636212Y-92349764D01*
X82062319Y-91775871D01*
X82028834Y-91714548D01*
X82026000Y-91688190D01*
X82026000Y-90984549D01*
X82045685Y-90917510D01*
X82098489Y-90871755D01*
X82167647Y-90861811D01*
X82231203Y-90890836D01*
G37*
%TD.AperFunction*%
%TA.AperFunction,Conductor*%
G36*
X97074772Y-89629815D02*
G01*
X97113011Y-89688291D01*
X97113964Y-89747737D01*
X97115800Y-89748061D01*
X97114858Y-89753400D01*
X97095034Y-89979997D01*
X97095034Y-89980002D01*
X97114858Y-90206599D01*
X97114860Y-90206610D01*
X97173730Y-90426317D01*
X97173735Y-90426331D01*
X97269863Y-90632478D01*
X97320974Y-90705472D01*
X97876212Y-90150233D01*
X97887482Y-90192292D01*
X97959890Y-90317708D01*
X98062292Y-90420110D01*
X98187708Y-90492518D01*
X98229765Y-90503787D01*
X97674526Y-91059025D01*
X97747513Y-91110132D01*
X97747521Y-91110136D01*
X97805864Y-91137342D01*
X97858304Y-91183514D01*
X97877456Y-91250707D01*
X97857241Y-91317589D01*
X97805866Y-91362105D01*
X97747266Y-91389431D01*
X97747264Y-91389432D01*
X97709805Y-91415661D01*
X97643598Y-91437988D01*
X97575831Y-91420976D01*
X97551002Y-91401766D01*
X96854707Y-90705471D01*
X96116310Y-89967075D01*
X96082826Y-89905753D01*
X96087810Y-89836061D01*
X96129682Y-89780128D01*
X96195146Y-89755711D01*
X96214800Y-89755867D01*
X96339999Y-89766821D01*
X96340001Y-89766821D01*
X96559976Y-89747575D01*
X96559986Y-89747573D01*
X96773270Y-89690424D01*
X96773279Y-89690420D01*
X96941910Y-89611787D01*
X97010988Y-89601295D01*
X97074772Y-89629815D01*
G37*
%TD.AperFunction*%
%TA.AperFunction,Conductor*%
G36*
X97198700Y-70245347D02*
G01*
X97254633Y-70287219D01*
X97267746Y-70309119D01*
X97269430Y-70312731D01*
X97399954Y-70499141D01*
X97560858Y-70660045D01*
X97560861Y-70660047D01*
X97747266Y-70790568D01*
X97805275Y-70817618D01*
X97857714Y-70863791D01*
X97876866Y-70930984D01*
X97856650Y-70997865D01*
X97805275Y-71042382D01*
X97747267Y-71069431D01*
X97747265Y-71069432D01*
X97560858Y-71199954D01*
X97399954Y-71360858D01*
X97269432Y-71547265D01*
X97269431Y-71547267D01*
X97173261Y-71753502D01*
X97173258Y-71753511D01*
X97114366Y-71973302D01*
X97114364Y-71973313D01*
X97094532Y-72199998D01*
X97094532Y-72200001D01*
X97114364Y-72426686D01*
X97114366Y-72426697D01*
X97173258Y-72646488D01*
X97173261Y-72646497D01*
X97269431Y-72852732D01*
X97269432Y-72852734D01*
X97399954Y-73039141D01*
X97560858Y-73200045D01*
X97560861Y-73200047D01*
X97747266Y-73330568D01*
X97805275Y-73357618D01*
X97857714Y-73403791D01*
X97876866Y-73470984D01*
X97856650Y-73537865D01*
X97805275Y-73582382D01*
X97747267Y-73609431D01*
X97747265Y-73609432D01*
X97560858Y-73739954D01*
X97399954Y-73900858D01*
X97269432Y-74087265D01*
X97269431Y-74087267D01*
X97173261Y-74293502D01*
X97173258Y-74293511D01*
X97114366Y-74513302D01*
X97114364Y-74513313D01*
X97094532Y-74739998D01*
X97094532Y-74740001D01*
X97114364Y-74966686D01*
X97114366Y-74966697D01*
X97173258Y-75186488D01*
X97173261Y-75186497D01*
X97269431Y-75392732D01*
X97269432Y-75392734D01*
X97399954Y-75579141D01*
X97560858Y-75740045D01*
X97560861Y-75740047D01*
X97747266Y-75870568D01*
X97805275Y-75897618D01*
X97857714Y-75943791D01*
X97876866Y-76010984D01*
X97856650Y-76077865D01*
X97805275Y-76122382D01*
X97747267Y-76149431D01*
X97747265Y-76149432D01*
X97560858Y-76279954D01*
X97399954Y-76440858D01*
X97269432Y-76627265D01*
X97269431Y-76627267D01*
X97173261Y-76833502D01*
X97173258Y-76833511D01*
X97114366Y-77053302D01*
X97114364Y-77053313D01*
X97094532Y-77279998D01*
X97094532Y-77280001D01*
X97114364Y-77506686D01*
X97114366Y-77506697D01*
X97173258Y-77726488D01*
X97173261Y-77726497D01*
X97269431Y-77932732D01*
X97269432Y-77932734D01*
X97399954Y-78119141D01*
X97560858Y-78280045D01*
X97560861Y-78280047D01*
X97747266Y-78410568D01*
X97805275Y-78437618D01*
X97857714Y-78483791D01*
X97876866Y-78550984D01*
X97856650Y-78617865D01*
X97805275Y-78662382D01*
X97747267Y-78689431D01*
X97747265Y-78689432D01*
X97560858Y-78819954D01*
X97399954Y-78980858D01*
X97269432Y-79167265D01*
X97269431Y-79167267D01*
X97173261Y-79373502D01*
X97173258Y-79373511D01*
X97114366Y-79593302D01*
X97114364Y-79593313D01*
X97094532Y-79819998D01*
X97094532Y-79820001D01*
X97114364Y-80046686D01*
X97114366Y-80046697D01*
X97173258Y-80266488D01*
X97173261Y-80266497D01*
X97269431Y-80472732D01*
X97269432Y-80472734D01*
X97399954Y-80659141D01*
X97560858Y-80820045D01*
X97560861Y-80820047D01*
X97747266Y-80950568D01*
X97805275Y-80977618D01*
X97857714Y-81023791D01*
X97876866Y-81090984D01*
X97856650Y-81157865D01*
X97805275Y-81202382D01*
X97747267Y-81229431D01*
X97747265Y-81229432D01*
X97560858Y-81359954D01*
X97399954Y-81520858D01*
X97328495Y-81622914D01*
X97269432Y-81707266D01*
X97242761Y-81764461D01*
X97173261Y-81913502D01*
X97173258Y-81913511D01*
X97114366Y-82133302D01*
X97114364Y-82133313D01*
X97094532Y-82359998D01*
X97094532Y-82360001D01*
X97114364Y-82586686D01*
X97114366Y-82586697D01*
X97173258Y-82806488D01*
X97173261Y-82806497D01*
X97269431Y-83012732D01*
X97269432Y-83012734D01*
X97399954Y-83199141D01*
X97560858Y-83360045D01*
X97560861Y-83360047D01*
X97747266Y-83490568D01*
X97805275Y-83517618D01*
X97857714Y-83563791D01*
X97876866Y-83630984D01*
X97856650Y-83697865D01*
X97805275Y-83742382D01*
X97747267Y-83769431D01*
X97747265Y-83769432D01*
X97560858Y-83899954D01*
X97399954Y-84060858D01*
X97269432Y-84247265D01*
X97269431Y-84247267D01*
X97173261Y-84453502D01*
X97173258Y-84453511D01*
X97114366Y-84673302D01*
X97114364Y-84673313D01*
X97094532Y-84899998D01*
X97094532Y-84900001D01*
X97114364Y-85126686D01*
X97114366Y-85126697D01*
X97173258Y-85346488D01*
X97173261Y-85346497D01*
X97269431Y-85552732D01*
X97269432Y-85552734D01*
X97399954Y-85739141D01*
X97560858Y-85900045D01*
X97607693Y-85932839D01*
X97747266Y-86030568D01*
X97805865Y-86057893D01*
X97858305Y-86104065D01*
X97877457Y-86171258D01*
X97857242Y-86238139D01*
X97805867Y-86282657D01*
X97747513Y-86309868D01*
X97747512Y-86309868D01*
X97674526Y-86360973D01*
X97674526Y-86360974D01*
X98229765Y-86916212D01*
X98187708Y-86927482D01*
X98062292Y-86999890D01*
X97959890Y-87102292D01*
X97887482Y-87227708D01*
X97876212Y-87269765D01*
X97320974Y-86714526D01*
X97320973Y-86714526D01*
X97269868Y-86787512D01*
X97269866Y-86787516D01*
X97173734Y-86993673D01*
X97173730Y-86993682D01*
X97114860Y-87213389D01*
X97114858Y-87213399D01*
X97108819Y-87282430D01*
X97083366Y-87347499D01*
X97026775Y-87388477D01*
X96957013Y-87392355D01*
X96932887Y-87384004D01*
X96773284Y-87309580D01*
X96773270Y-87309575D01*
X96559986Y-87252426D01*
X96559976Y-87252424D01*
X96340001Y-87233179D01*
X96339999Y-87233179D01*
X96120023Y-87252424D01*
X96120013Y-87252426D01*
X95906729Y-87309575D01*
X95906720Y-87309579D01*
X95706590Y-87402901D01*
X95641811Y-87448258D01*
X96312553Y-88119000D01*
X96289840Y-88119000D01*
X96192939Y-88144964D01*
X96106060Y-88195124D01*
X96035124Y-88266060D01*
X95984964Y-88352939D01*
X95959000Y-88449840D01*
X95959000Y-88472553D01*
X95288258Y-87801811D01*
X95242901Y-87866590D01*
X95182658Y-87995781D01*
X95136485Y-88048220D01*
X95069292Y-88067372D01*
X95002411Y-88047156D01*
X94957894Y-87995781D01*
X94906850Y-87886317D01*
X94897534Y-87866339D01*
X94770826Y-87685380D01*
X94614620Y-87529174D01*
X94614616Y-87529171D01*
X94614615Y-87529170D01*
X94433666Y-87402468D01*
X94433662Y-87402466D01*
X94358872Y-87367591D01*
X94233450Y-87309106D01*
X94233447Y-87309105D01*
X94233445Y-87309104D01*
X94020070Y-87251930D01*
X94020062Y-87251929D01*
X93800002Y-87232677D01*
X93799998Y-87232677D01*
X93579937Y-87251929D01*
X93579929Y-87251930D01*
X93366554Y-87309104D01*
X93366548Y-87309107D01*
X93306905Y-87336919D01*
X93237827Y-87347411D01*
X93174043Y-87318891D01*
X93135804Y-87260414D01*
X93130500Y-87224537D01*
X93130500Y-86570945D01*
X93130500Y-86570943D01*
X93109397Y-86492184D01*
X93089577Y-86418215D01*
X93060639Y-86368095D01*
X93010520Y-86281284D01*
X92898716Y-86169480D01*
X92898715Y-86169479D01*
X92894385Y-86165149D01*
X92894374Y-86165139D01*
X90099235Y-83370000D01*
X93923505Y-83370000D01*
X93976239Y-83555349D01*
X94075368Y-83754425D01*
X94209391Y-83931900D01*
X94373738Y-84081721D01*
X94562820Y-84198797D01*
X94562822Y-84198798D01*
X94770195Y-84279135D01*
X94850000Y-84294052D01*
X95350000Y-84294052D01*
X95429804Y-84279135D01*
X95637177Y-84198798D01*
X95637179Y-84198797D01*
X95826261Y-84081721D01*
X95990608Y-83931900D01*
X96124631Y-83754425D01*
X96223760Y-83555349D01*
X96276495Y-83370000D01*
X95350000Y-83370000D01*
X95350000Y-84294052D01*
X94850000Y-84294052D01*
X94850000Y-83370000D01*
X93923505Y-83370000D01*
X90099235Y-83370000D01*
X89803157Y-83073922D01*
X94750000Y-83073922D01*
X94750000Y-83166078D01*
X94773852Y-83255095D01*
X94819930Y-83334905D01*
X94885095Y-83400070D01*
X94964905Y-83446148D01*
X95053922Y-83470000D01*
X95146078Y-83470000D01*
X95235095Y-83446148D01*
X95314905Y-83400070D01*
X95380070Y-83334905D01*
X95426148Y-83255095D01*
X95450000Y-83166078D01*
X95450000Y-83073922D01*
X95426148Y-82984905D01*
X95380070Y-82905095D01*
X95344975Y-82870000D01*
X95350000Y-82870000D01*
X96276495Y-82870000D01*
X96223760Y-82684650D01*
X96124631Y-82485574D01*
X95990608Y-82308099D01*
X95826261Y-82158278D01*
X95637179Y-82041202D01*
X95637177Y-82041201D01*
X95429799Y-81960864D01*
X95350000Y-81945946D01*
X95350000Y-82870000D01*
X95344975Y-82870000D01*
X95314905Y-82839930D01*
X95235095Y-82793852D01*
X95146078Y-82770000D01*
X95053922Y-82770000D01*
X94964905Y-82793852D01*
X94885095Y-82839930D01*
X94819930Y-82905095D01*
X94773852Y-82984905D01*
X94750000Y-83073922D01*
X89803157Y-83073922D01*
X89599235Y-82870000D01*
X93923505Y-82870000D01*
X94850000Y-82870000D01*
X94850000Y-81945946D01*
X94770200Y-81960864D01*
X94562822Y-82041201D01*
X94562820Y-82041202D01*
X94373738Y-82158278D01*
X94209391Y-82308099D01*
X94075368Y-82485574D01*
X93976239Y-82684650D01*
X93923505Y-82870000D01*
X89599235Y-82870000D01*
X87234113Y-80504878D01*
X87200628Y-80443555D01*
X87205612Y-80373863D01*
X87247484Y-80317930D01*
X87299002Y-80295310D01*
X87489940Y-80259618D01*
X87697401Y-80179247D01*
X87886562Y-80062124D01*
X88050981Y-79912236D01*
X88185058Y-79734689D01*
X88284229Y-79535528D01*
X88345115Y-79321536D01*
X88365643Y-79100000D01*
X88365643Y-79099999D01*
X91034357Y-79099999D01*
X91034357Y-79100000D01*
X91054884Y-79321535D01*
X91054885Y-79321537D01*
X91115769Y-79535523D01*
X91115775Y-79535538D01*
X91214938Y-79734683D01*
X91214943Y-79734691D01*
X91349020Y-79912238D01*
X91513437Y-80062123D01*
X91513439Y-80062125D01*
X91702595Y-80179245D01*
X91702596Y-80179245D01*
X91702599Y-80179247D01*
X91910060Y-80259618D01*
X92128757Y-80300500D01*
X92128759Y-80300500D01*
X92351241Y-80300500D01*
X92351243Y-80300500D01*
X92569940Y-80259618D01*
X92777401Y-80179247D01*
X92966562Y-80062124D01*
X93130981Y-79912236D01*
X93265058Y-79734689D01*
X93364229Y-79535528D01*
X93425115Y-79321536D01*
X93445643Y-79100000D01*
X93444316Y-79085684D01*
X93425115Y-78878464D01*
X93425114Y-78878462D01*
X93424915Y-78877764D01*
X93364229Y-78664472D01*
X93364224Y-78664461D01*
X93265061Y-78465316D01*
X93265056Y-78465308D01*
X93130979Y-78287761D01*
X92966562Y-78137876D01*
X92966560Y-78137874D01*
X92777404Y-78020754D01*
X92777398Y-78020752D01*
X92569940Y-77940382D01*
X92351243Y-77899500D01*
X92128757Y-77899500D01*
X91910060Y-77940382D01*
X91872487Y-77954938D01*
X91702601Y-78020752D01*
X91702595Y-78020754D01*
X91513439Y-78137874D01*
X91513437Y-78137876D01*
X91349020Y-78287761D01*
X91214943Y-78465308D01*
X91214938Y-78465316D01*
X91115775Y-78664461D01*
X91115769Y-78664476D01*
X91054885Y-78878462D01*
X91054884Y-78878464D01*
X91034357Y-79099999D01*
X88365643Y-79099999D01*
X88364316Y-79085684D01*
X88345115Y-78878464D01*
X88345114Y-78878462D01*
X88344915Y-78877764D01*
X88284229Y-78664472D01*
X88284224Y-78664461D01*
X88185061Y-78465316D01*
X88185056Y-78465308D01*
X88050979Y-78287761D01*
X87886562Y-78137876D01*
X87886560Y-78137874D01*
X87697404Y-78020754D01*
X87697398Y-78020752D01*
X87489940Y-77940382D01*
X87271243Y-77899500D01*
X87048757Y-77899500D01*
X86830060Y-77940382D01*
X86792487Y-77954938D01*
X86622601Y-78020752D01*
X86622595Y-78020754D01*
X86433439Y-78137874D01*
X86433437Y-78137876D01*
X86269020Y-78287761D01*
X86134943Y-78465308D01*
X86134938Y-78465316D01*
X86035775Y-78664461D01*
X86035769Y-78664476D01*
X85974885Y-78878462D01*
X85974884Y-78878464D01*
X85968118Y-78951491D01*
X85942332Y-79016429D01*
X85885531Y-79057116D01*
X85815750Y-79060636D01*
X85756966Y-79027731D01*
X84451941Y-77722706D01*
X84418456Y-77661383D01*
X84419847Y-77602931D01*
X84441644Y-77521585D01*
X84445635Y-77506692D01*
X84465468Y-77280000D01*
X84464492Y-77268849D01*
X84456337Y-77175628D01*
X84445635Y-77053308D01*
X84390744Y-76848451D01*
X84386741Y-76833511D01*
X84386738Y-76833502D01*
X84385714Y-76831305D01*
X84365008Y-76786903D01*
X84354517Y-76717828D01*
X84383036Y-76654044D01*
X84441513Y-76615804D01*
X84477391Y-76610500D01*
X89423331Y-76610500D01*
X89423347Y-76610501D01*
X89430943Y-76610501D01*
X89589054Y-76610501D01*
X89589057Y-76610501D01*
X89741785Y-76569577D01*
X89826021Y-76520943D01*
X89878716Y-76490520D01*
X89990520Y-76378716D01*
X89990520Y-76378714D01*
X90000724Y-76368511D01*
X90000727Y-76368506D01*
X94287821Y-72081413D01*
X94349142Y-72047930D01*
X94418834Y-72052914D01*
X94474767Y-72094786D01*
X94499184Y-72160250D01*
X94499500Y-72169096D01*
X94499500Y-74390754D01*
X94479815Y-74457793D01*
X94440778Y-74496181D01*
X94373436Y-74537877D01*
X94209020Y-74687761D01*
X94074943Y-74865308D01*
X94074938Y-74865316D01*
X93975775Y-75064461D01*
X93975769Y-75064476D01*
X93914885Y-75278462D01*
X93914884Y-75278464D01*
X93894357Y-75499999D01*
X93894357Y-75500000D01*
X93914884Y-75721535D01*
X93914885Y-75721537D01*
X93975769Y-75935523D01*
X93975775Y-75935538D01*
X94074938Y-76134683D01*
X94074943Y-76134691D01*
X94209020Y-76312238D01*
X94373437Y-76462123D01*
X94373439Y-76462125D01*
X94562595Y-76579245D01*
X94562596Y-76579245D01*
X94562599Y-76579247D01*
X94770060Y-76659618D01*
X94988757Y-76700500D01*
X94988759Y-76700500D01*
X95211241Y-76700500D01*
X95211243Y-76700500D01*
X95429940Y-76659618D01*
X95637401Y-76579247D01*
X95826562Y-76462124D01*
X95990981Y-76312236D01*
X96125058Y-76134689D01*
X96224229Y-75935528D01*
X96285115Y-75721536D01*
X96305643Y-75500000D01*
X96296994Y-75406666D01*
X96285115Y-75278464D01*
X96285114Y-75278462D01*
X96282095Y-75267853D01*
X96224229Y-75064472D01*
X96224224Y-75064461D01*
X96125061Y-74865316D01*
X96125056Y-74865308D01*
X95990979Y-74687761D01*
X95826563Y-74537877D01*
X95826562Y-74537876D01*
X95759221Y-74496180D01*
X95712587Y-74444153D01*
X95700500Y-74390754D01*
X95700500Y-71692396D01*
X95720185Y-71625357D01*
X95736814Y-71604720D01*
X97067687Y-70273846D01*
X97129008Y-70240363D01*
X97198700Y-70245347D01*
G37*
%TD.AperFunction*%
%TD*%
M02*
