%TF.GenerationSoftware,KiCad,Pcbnew,(5.1.12)-1*%
%TF.CreationDate,2023-05-17T18:58:12-04:00*%
%TF.ProjectId,Final_Design,46696e61-6c5f-4446-9573-69676e2e6b69,rev?*%
%TF.SameCoordinates,Original*%
%TF.FileFunction,Copper,L2,Bot*%
%TF.FilePolarity,Positive*%
%FSLAX46Y46*%
G04 Gerber Fmt 4.6, Leading zero omitted, Abs format (unit mm)*
G04 Created by KiCad (PCBNEW (5.1.12)-1) date 2023-05-17 18:58:12*
%MOMM*%
%LPD*%
G01*
G04 APERTURE LIST*
%TA.AperFunction,ComponentPad*%
%ADD10C,2.000000*%
%TD*%
%TA.AperFunction,ComponentPad*%
%ADD11R,2.000000X2.000000*%
%TD*%
%TA.AperFunction,SMDPad,CuDef*%
%ADD12R,3.500000X3.500000*%
%TD*%
%TA.AperFunction,SMDPad,CuDef*%
%ADD13C,8.000000*%
%TD*%
%TA.AperFunction,ComponentPad*%
%ADD14C,1.800000*%
%TD*%
%TA.AperFunction,ComponentPad*%
%ADD15R,1.800000X1.800000*%
%TD*%
%TA.AperFunction,ComponentPad*%
%ADD16C,1.324000*%
%TD*%
%TA.AperFunction,ComponentPad*%
%ADD17O,1.424000X2.524000*%
%TD*%
%TA.AperFunction,ComponentPad*%
%ADD18O,1.600000X1.600000*%
%TD*%
%TA.AperFunction,ComponentPad*%
%ADD19R,1.600000X1.600000*%
%TD*%
%TA.AperFunction,ComponentPad*%
%ADD20C,1.524000*%
%TD*%
%TA.AperFunction,ViaPad*%
%ADD21C,0.800000*%
%TD*%
%TA.AperFunction,Conductor*%
%ADD22C,0.250000*%
%TD*%
%TA.AperFunction,Conductor*%
%ADD23C,0.254000*%
%TD*%
%TA.AperFunction,Conductor*%
%ADD24C,0.100000*%
%TD*%
G04 APERTURE END LIST*
D10*
%TO.P,U1,1*%
%TO.N,Net-(U1-Pad1)*%
X109510000Y-30530000D03*
D11*
%TO.P,U1,2*%
%TO.N,GND*%
X104700000Y-30530000D03*
%TD*%
D12*
%TO.P,BT1,1*%
%TO.N,Net-(BT1-Pad1)*%
X122600000Y-56945000D03*
X122600000Y-73455000D03*
D13*
%TO.P,BT1,2*%
%TO.N,GND*%
X122600000Y-65200000D03*
%TD*%
D14*
%TO.P,LED,2*%
%TO.N,Net-(A1-Pad8)*%
X119760000Y-51300000D03*
D15*
%TO.P,LED,1*%
%TO.N,Net-(D1-Pad1)*%
X122300000Y-51300000D03*
%TD*%
D16*
%TO.P,U3,1*%
%TO.N,Net-(U3-Pad1)*%
X124732000Y-30120000D03*
%TO.P,U3,2*%
%TO.N,Net-(U1-Pad1)*%
X122700000Y-30120000D03*
%TO.P,U3,3*%
%TO.N,Net-(A1-Pad30)*%
X120668000Y-30120000D03*
D17*
%TO.P,U3,4*%
%TO.N,N/C*%
X126891000Y-30120000D03*
%TO.P,U3,5*%
X118509000Y-30120000D03*
%TD*%
D18*
%TO.P,A1,16*%
%TO.N,Net-(A1-Pad16)*%
X99360000Y-37040000D03*
%TO.P,A1,15*%
%TO.N,Net-(A1-Pad15)*%
X114600000Y-37040000D03*
%TO.P,A1,30*%
%TO.N,Net-(A1-Pad30)*%
X99360000Y-72600000D03*
%TO.P,A1,14*%
%TO.N,Net-(A1-Pad14)*%
X114600000Y-39580000D03*
%TO.P,A1,29*%
%TO.N,GND*%
X99360000Y-70060000D03*
%TO.P,A1,13*%
%TO.N,Net-(A1-Pad13)*%
X114600000Y-42120000D03*
%TO.P,A1,28*%
%TO.N,Net-(A1-Pad28)*%
X99360000Y-67520000D03*
%TO.P,A1,12*%
%TO.N,Net-(A1-Pad12)*%
X114600000Y-44660000D03*
%TO.P,A1,27*%
%TO.N,Net-(A1-Pad27)*%
X99360000Y-64980000D03*
%TO.P,A1,11*%
%TO.N,Net-(A1-Pad11)*%
X114600000Y-47200000D03*
%TO.P,A1,26*%
%TO.N,Net-(A1-Pad26)*%
X99360000Y-62440000D03*
%TO.P,A1,10*%
%TO.N,Net-(A1-Pad10)*%
X114600000Y-49740000D03*
%TO.P,A1,25*%
%TO.N,Net-(A1-Pad25)*%
X99360000Y-59900000D03*
%TO.P,A1,9*%
%TO.N,Net-(A1-Pad9)*%
X114600000Y-52280000D03*
%TO.P,A1,24*%
%TO.N,Net-(A1-Pad24)*%
X99360000Y-57360000D03*
%TO.P,A1,8*%
%TO.N,Net-(A1-Pad8)*%
X114600000Y-54820000D03*
%TO.P,A1,23*%
%TO.N,Net-(A1-Pad23)*%
X99360000Y-54820000D03*
%TO.P,A1,7*%
%TO.N,Net-(A1-Pad7)*%
X114600000Y-57360000D03*
%TO.P,A1,22*%
%TO.N,Net-(A1-Pad22)*%
X99360000Y-52280000D03*
%TO.P,A1,6*%
%TO.N,Net-(A1-Pad6)*%
X114600000Y-59900000D03*
%TO.P,A1,21*%
%TO.N,Net-(A1-Pad21)*%
X99360000Y-49740000D03*
%TO.P,A1,5*%
%TO.N,Net-(A1-Pad5)*%
X114600000Y-62440000D03*
%TO.P,A1,20*%
%TO.N,Net-(A1-Pad20)*%
X99360000Y-47200000D03*
%TO.P,A1,4*%
%TO.N,GND*%
X114600000Y-64980000D03*
%TO.P,A1,19*%
%TO.N,Net-(A1-Pad19)*%
X99360000Y-44660000D03*
%TO.P,A1,3*%
%TO.N,Net-(A1-Pad3)*%
X114600000Y-67520000D03*
%TO.P,A1,18*%
%TO.N,Net-(A1-Pad18)*%
X99360000Y-42120000D03*
%TO.P,A1,2*%
%TO.N,Net-(A1-Pad2)*%
X114600000Y-70060000D03*
%TO.P,A1,17*%
%TO.N,Net-(A1-Pad17)*%
X99360000Y-39580000D03*
D19*
%TO.P,A1,1*%
%TO.N,Net-(A1-Pad1)*%
X114600000Y-72600000D03*
%TD*%
%TO.P,C1,2*%
%TO.N,GND*%
%TA.AperFunction,SMDPad,CuDef*%
G36*
G01*
X105500000Y-35149999D02*
X105500000Y-36450001D01*
G75*
G02*
X105250001Y-36700000I-249999J0D01*
G01*
X104424999Y-36700000D01*
G75*
G02*
X104175000Y-36450001I0J249999D01*
G01*
X104175000Y-35149999D01*
G75*
G02*
X104424999Y-34900000I249999J0D01*
G01*
X105250001Y-34900000D01*
G75*
G02*
X105500000Y-35149999I0J-249999D01*
G01*
G37*
%TD.AperFunction*%
%TO.P,C1,1*%
%TO.N,Net-(A1-Pad30)*%
%TA.AperFunction,SMDPad,CuDef*%
G36*
G01*
X108625000Y-35149999D02*
X108625000Y-36450001D01*
G75*
G02*
X108375001Y-36700000I-249999J0D01*
G01*
X107549999Y-36700000D01*
G75*
G02*
X107300000Y-36450001I0J249999D01*
G01*
X107300000Y-35149999D01*
G75*
G02*
X107549999Y-34900000I249999J0D01*
G01*
X108375001Y-34900000D01*
G75*
G02*
X108625000Y-35149999I0J-249999D01*
G01*
G37*
%TD.AperFunction*%
%TD*%
%TO.P,4.7K,2*%
%TO.N,Net-(A1-Pad27)*%
%TA.AperFunction,SMDPad,CuDef*%
G36*
G01*
X101425000Y-105100000D02*
X100175000Y-105100000D01*
G75*
G02*
X99925000Y-104850000I0J250000D01*
G01*
X99925000Y-104050000D01*
G75*
G02*
X100175000Y-103800000I250000J0D01*
G01*
X101425000Y-103800000D01*
G75*
G02*
X101675000Y-104050000I0J-250000D01*
G01*
X101675000Y-104850000D01*
G75*
G02*
X101425000Y-105100000I-250000J0D01*
G01*
G37*
%TD.AperFunction*%
%TO.P,4.7K,1*%
%TO.N,Net-(A1-Pad10)*%
%TA.AperFunction,SMDPad,CuDef*%
G36*
G01*
X101425000Y-108200000D02*
X100175000Y-108200000D01*
G75*
G02*
X99925000Y-107950000I0J250000D01*
G01*
X99925000Y-107150000D01*
G75*
G02*
X100175000Y-106900000I250000J0D01*
G01*
X101425000Y-106900000D01*
G75*
G02*
X101675000Y-107150000I0J-250000D01*
G01*
X101675000Y-107950000D01*
G75*
G02*
X101425000Y-108200000I-250000J0D01*
G01*
G37*
%TD.AperFunction*%
%TD*%
%TO.P,220,2*%
%TO.N,GND*%
%TA.AperFunction,SMDPad,CuDef*%
G36*
G01*
X125775000Y-52600000D02*
X127025000Y-52600000D01*
G75*
G02*
X127275000Y-52850000I0J-250000D01*
G01*
X127275000Y-53650000D01*
G75*
G02*
X127025000Y-53900000I-250000J0D01*
G01*
X125775000Y-53900000D01*
G75*
G02*
X125525000Y-53650000I0J250000D01*
G01*
X125525000Y-52850000D01*
G75*
G02*
X125775000Y-52600000I250000J0D01*
G01*
G37*
%TD.AperFunction*%
%TO.P,220,1*%
%TO.N,Net-(D1-Pad1)*%
%TA.AperFunction,SMDPad,CuDef*%
G36*
G01*
X125775000Y-49500000D02*
X127025000Y-49500000D01*
G75*
G02*
X127275000Y-49750000I0J-250000D01*
G01*
X127275000Y-50550000D01*
G75*
G02*
X127025000Y-50800000I-250000J0D01*
G01*
X125775000Y-50800000D01*
G75*
G02*
X125525000Y-50550000I0J250000D01*
G01*
X125525000Y-49750000D01*
G75*
G02*
X125775000Y-49500000I250000J0D01*
G01*
G37*
%TD.AperFunction*%
%TD*%
D14*
%TO.P,U2,6*%
%TO.N,GND*%
X119930000Y-92230000D03*
%TO.P,U2,5*%
%TO.N,Net-(A1-Pad15)*%
X117390000Y-92230000D03*
%TO.P,U2,4*%
%TO.N,Net-(A1-Pad16)*%
X114850000Y-92230000D03*
%TO.P,U2,3*%
%TO.N,Net-(A1-Pad14)*%
X112310000Y-92230000D03*
%TO.P,U2,2*%
%TO.N,Net-(A1-Pad13)*%
X109770000Y-92230000D03*
%TO.P,U2,1*%
%TO.N,Net-(A1-Pad17)*%
X107230000Y-92230000D03*
%TD*%
D20*
%TO.P,U4,3*%
%TO.N,Net-(A1-Pad19)*%
X106900000Y-78610000D03*
%TO.P,U4,2*%
%TO.N,Net-(A1-Pad27)*%
X104360000Y-78610000D03*
%TO.P,U4,1*%
%TO.N,GND*%
X101820000Y-78610000D03*
%TD*%
%TO.P,U5,3*%
%TO.N,Net-(A1-Pad20)*%
X125200000Y-78610000D03*
%TO.P,U5,2*%
%TO.N,Net-(A1-Pad27)*%
X122660000Y-78610000D03*
%TO.P,U5,1*%
%TO.N,GND*%
X120120000Y-78610000D03*
%TD*%
%TO.P,U6,16*%
%TO.N,Net-(A1-Pad24)*%
%TA.AperFunction,SMDPad,CuDef*%
G36*
G01*
X118505000Y-44825000D02*
X118805000Y-44825000D01*
G75*
G02*
X118955000Y-44975000I0J-150000D01*
G01*
X118955000Y-46725000D01*
G75*
G02*
X118805000Y-46875000I-150000J0D01*
G01*
X118505000Y-46875000D01*
G75*
G02*
X118355000Y-46725000I0J150000D01*
G01*
X118355000Y-44975000D01*
G75*
G02*
X118505000Y-44825000I150000J0D01*
G01*
G37*
%TD.AperFunction*%
%TO.P,U6,15*%
%TO.N,Net-(A1-Pad23)*%
%TA.AperFunction,SMDPad,CuDef*%
G36*
G01*
X119775000Y-44825000D02*
X120075000Y-44825000D01*
G75*
G02*
X120225000Y-44975000I0J-150000D01*
G01*
X120225000Y-46725000D01*
G75*
G02*
X120075000Y-46875000I-150000J0D01*
G01*
X119775000Y-46875000D01*
G75*
G02*
X119625000Y-46725000I0J150000D01*
G01*
X119625000Y-44975000D01*
G75*
G02*
X119775000Y-44825000I150000J0D01*
G01*
G37*
%TD.AperFunction*%
%TO.P,U6,14*%
%TO.N,Net-(BT1-Pad1)*%
%TA.AperFunction,SMDPad,CuDef*%
G36*
G01*
X121045000Y-44825000D02*
X121345000Y-44825000D01*
G75*
G02*
X121495000Y-44975000I0J-150000D01*
G01*
X121495000Y-46725000D01*
G75*
G02*
X121345000Y-46875000I-150000J0D01*
G01*
X121045000Y-46875000D01*
G75*
G02*
X120895000Y-46725000I0J150000D01*
G01*
X120895000Y-44975000D01*
G75*
G02*
X121045000Y-44825000I150000J0D01*
G01*
G37*
%TD.AperFunction*%
%TO.P,U6,13*%
%TO.N,GND*%
%TA.AperFunction,SMDPad,CuDef*%
G36*
G01*
X122315000Y-44825000D02*
X122615000Y-44825000D01*
G75*
G02*
X122765000Y-44975000I0J-150000D01*
G01*
X122765000Y-46725000D01*
G75*
G02*
X122615000Y-46875000I-150000J0D01*
G01*
X122315000Y-46875000D01*
G75*
G02*
X122165000Y-46725000I0J150000D01*
G01*
X122165000Y-44975000D01*
G75*
G02*
X122315000Y-44825000I150000J0D01*
G01*
G37*
%TD.AperFunction*%
%TO.P,U6,12*%
%TA.AperFunction,SMDPad,CuDef*%
G36*
G01*
X123585000Y-44825000D02*
X123885000Y-44825000D01*
G75*
G02*
X124035000Y-44975000I0J-150000D01*
G01*
X124035000Y-46725000D01*
G75*
G02*
X123885000Y-46875000I-150000J0D01*
G01*
X123585000Y-46875000D01*
G75*
G02*
X123435000Y-46725000I0J150000D01*
G01*
X123435000Y-44975000D01*
G75*
G02*
X123585000Y-44825000I150000J0D01*
G01*
G37*
%TD.AperFunction*%
%TO.P,U6,11*%
%TA.AperFunction,SMDPad,CuDef*%
G36*
G01*
X124855000Y-44825000D02*
X125155000Y-44825000D01*
G75*
G02*
X125305000Y-44975000I0J-150000D01*
G01*
X125305000Y-46725000D01*
G75*
G02*
X125155000Y-46875000I-150000J0D01*
G01*
X124855000Y-46875000D01*
G75*
G02*
X124705000Y-46725000I0J150000D01*
G01*
X124705000Y-44975000D01*
G75*
G02*
X124855000Y-44825000I150000J0D01*
G01*
G37*
%TD.AperFunction*%
%TO.P,U6,10*%
%TA.AperFunction,SMDPad,CuDef*%
G36*
G01*
X126125000Y-44825000D02*
X126425000Y-44825000D01*
G75*
G02*
X126575000Y-44975000I0J-150000D01*
G01*
X126575000Y-46725000D01*
G75*
G02*
X126425000Y-46875000I-150000J0D01*
G01*
X126125000Y-46875000D01*
G75*
G02*
X125975000Y-46725000I0J150000D01*
G01*
X125975000Y-44975000D01*
G75*
G02*
X126125000Y-44825000I150000J0D01*
G01*
G37*
%TD.AperFunction*%
%TO.P,U6,9*%
%TA.AperFunction,SMDPad,CuDef*%
G36*
G01*
X127395000Y-44825000D02*
X127695000Y-44825000D01*
G75*
G02*
X127845000Y-44975000I0J-150000D01*
G01*
X127845000Y-46725000D01*
G75*
G02*
X127695000Y-46875000I-150000J0D01*
G01*
X127395000Y-46875000D01*
G75*
G02*
X127245000Y-46725000I0J150000D01*
G01*
X127245000Y-44975000D01*
G75*
G02*
X127395000Y-44825000I150000J0D01*
G01*
G37*
%TD.AperFunction*%
%TO.P,U6,8*%
%TA.AperFunction,SMDPad,CuDef*%
G36*
G01*
X127395000Y-35525000D02*
X127695000Y-35525000D01*
G75*
G02*
X127845000Y-35675000I0J-150000D01*
G01*
X127845000Y-37425000D01*
G75*
G02*
X127695000Y-37575000I-150000J0D01*
G01*
X127395000Y-37575000D01*
G75*
G02*
X127245000Y-37425000I0J150000D01*
G01*
X127245000Y-35675000D01*
G75*
G02*
X127395000Y-35525000I150000J0D01*
G01*
G37*
%TD.AperFunction*%
%TO.P,U6,7*%
%TA.AperFunction,SMDPad,CuDef*%
G36*
G01*
X126125000Y-35525000D02*
X126425000Y-35525000D01*
G75*
G02*
X126575000Y-35675000I0J-150000D01*
G01*
X126575000Y-37425000D01*
G75*
G02*
X126425000Y-37575000I-150000J0D01*
G01*
X126125000Y-37575000D01*
G75*
G02*
X125975000Y-37425000I0J150000D01*
G01*
X125975000Y-35675000D01*
G75*
G02*
X126125000Y-35525000I150000J0D01*
G01*
G37*
%TD.AperFunction*%
%TO.P,U6,6*%
%TA.AperFunction,SMDPad,CuDef*%
G36*
G01*
X124855000Y-35525000D02*
X125155000Y-35525000D01*
G75*
G02*
X125305000Y-35675000I0J-150000D01*
G01*
X125305000Y-37425000D01*
G75*
G02*
X125155000Y-37575000I-150000J0D01*
G01*
X124855000Y-37575000D01*
G75*
G02*
X124705000Y-37425000I0J150000D01*
G01*
X124705000Y-35675000D01*
G75*
G02*
X124855000Y-35525000I150000J0D01*
G01*
G37*
%TD.AperFunction*%
%TO.P,U6,5*%
%TA.AperFunction,SMDPad,CuDef*%
G36*
G01*
X123585000Y-35525000D02*
X123885000Y-35525000D01*
G75*
G02*
X124035000Y-35675000I0J-150000D01*
G01*
X124035000Y-37425000D01*
G75*
G02*
X123885000Y-37575000I-150000J0D01*
G01*
X123585000Y-37575000D01*
G75*
G02*
X123435000Y-37425000I0J150000D01*
G01*
X123435000Y-35675000D01*
G75*
G02*
X123585000Y-35525000I150000J0D01*
G01*
G37*
%TD.AperFunction*%
%TO.P,U6,4*%
%TO.N,Net-(U6-Pad4)*%
%TA.AperFunction,SMDPad,CuDef*%
G36*
G01*
X122315000Y-35525000D02*
X122615000Y-35525000D01*
G75*
G02*
X122765000Y-35675000I0J-150000D01*
G01*
X122765000Y-37425000D01*
G75*
G02*
X122615000Y-37575000I-150000J0D01*
G01*
X122315000Y-37575000D01*
G75*
G02*
X122165000Y-37425000I0J150000D01*
G01*
X122165000Y-35675000D01*
G75*
G02*
X122315000Y-35525000I150000J0D01*
G01*
G37*
%TD.AperFunction*%
%TO.P,U6,3*%
%TO.N,Net-(U6-Pad3)*%
%TA.AperFunction,SMDPad,CuDef*%
G36*
G01*
X121045000Y-35525000D02*
X121345000Y-35525000D01*
G75*
G02*
X121495000Y-35675000I0J-150000D01*
G01*
X121495000Y-37425000D01*
G75*
G02*
X121345000Y-37575000I-150000J0D01*
G01*
X121045000Y-37575000D01*
G75*
G02*
X120895000Y-37425000I0J150000D01*
G01*
X120895000Y-35675000D01*
G75*
G02*
X121045000Y-35525000I150000J0D01*
G01*
G37*
%TD.AperFunction*%
%TO.P,U6,2*%
%TO.N,Net-(A1-Pad27)*%
%TA.AperFunction,SMDPad,CuDef*%
G36*
G01*
X119775000Y-35525000D02*
X120075000Y-35525000D01*
G75*
G02*
X120225000Y-35675000I0J-150000D01*
G01*
X120225000Y-37425000D01*
G75*
G02*
X120075000Y-37575000I-150000J0D01*
G01*
X119775000Y-37575000D01*
G75*
G02*
X119625000Y-37425000I0J150000D01*
G01*
X119625000Y-35675000D01*
G75*
G02*
X119775000Y-35525000I150000J0D01*
G01*
G37*
%TD.AperFunction*%
%TO.P,U6,1*%
%TO.N,Net-(U6-Pad1)*%
%TA.AperFunction,SMDPad,CuDef*%
G36*
G01*
X118505000Y-35525000D02*
X118805000Y-35525000D01*
G75*
G02*
X118955000Y-35675000I0J-150000D01*
G01*
X118955000Y-37425000D01*
G75*
G02*
X118805000Y-37575000I-150000J0D01*
G01*
X118505000Y-37575000D01*
G75*
G02*
X118355000Y-37425000I0J150000D01*
G01*
X118355000Y-35675000D01*
G75*
G02*
X118505000Y-35525000I150000J0D01*
G01*
G37*
%TD.AperFunction*%
%TD*%
%TO.P,U7,3*%
%TO.N,Net-(A1-Pad26)*%
X116000000Y-78610000D03*
%TO.P,U7,2*%
%TO.N,Net-(A1-Pad27)*%
X113460000Y-78610000D03*
%TO.P,U7,1*%
%TO.N,GND*%
X110920000Y-78610000D03*
%TD*%
%TO.P,U8,3*%
%TO.N,Net-(A1-Pad10)*%
X115400000Y-121410000D03*
%TO.P,U8,2*%
%TO.N,Net-(A1-Pad27)*%
X112860000Y-121410000D03*
%TO.P,U8,1*%
%TO.N,GND*%
X110320000Y-121410000D03*
%TD*%
D21*
%TO.N,Net-(A1-Pad17)*%
X100900000Y-81800000D03*
X103100000Y-71400000D03*
X107800000Y-55100000D03*
%TO.N,Net-(A1-Pad19)*%
X105100000Y-60700000D03*
%TO.N,GND*%
X101700000Y-29000000D03*
X106600000Y-31800000D03*
X101500000Y-34500000D03*
X114000000Y-28800000D03*
X101700000Y-44100000D03*
X114100000Y-31200000D03*
X126500000Y-57400000D03*
X118100000Y-71800000D03*
X109100000Y-74600000D03*
X113600000Y-84800000D03*
X107800000Y-86000000D03*
X125800000Y-96200000D03*
X101600000Y-94500000D03*
X118800000Y-107100000D03*
X99400000Y-118500000D03*
X123300000Y-119500000D03*
X120700000Y-121900000D03*
X126800000Y-117100000D03*
X112100000Y-61600000D03*
X126100000Y-75200000D03*
X127700000Y-48300000D03*
X99600000Y-32100000D03*
%TO.N,Net-(A1-Pad20)*%
X108900000Y-69200000D03*
X108800000Y-57800000D03*
X108700000Y-53800000D03*
%TO.N,Net-(A1-Pad23)*%
X111500000Y-49400000D03*
X106500000Y-54500000D03*
%TO.N,Net-(A1-Pad24)*%
X111400000Y-47400000D03*
X104300000Y-56800000D03*
%TO.N,Net-(A1-Pad10)*%
X103700000Y-106700000D03*
%TO.N,Net-(A1-Pad26)*%
X105800000Y-68300000D03*
X105800000Y-74100000D03*
%TO.N,Net-(A1-Pad13)*%
X118200000Y-83700000D03*
X112600000Y-45600000D03*
%TO.N,Net-(A1-Pad14)*%
X103800000Y-52200000D03*
X101600000Y-53600000D03*
X104000000Y-65000000D03*
X104600000Y-75900000D03*
X108800000Y-80700000D03*
%TO.N,Net-(A1-Pad16)*%
X101300000Y-100500000D03*
%TD*%
D22*
%TO.N,Net-(A1-Pad17)*%
X100900000Y-81800000D02*
X99100000Y-80000000D01*
X99100000Y-75400000D02*
X103100000Y-71400000D01*
X99100000Y-80000000D02*
X99100000Y-75400000D01*
X108473002Y-55100000D02*
X109700000Y-53873002D01*
X107800000Y-55100000D02*
X108473002Y-55100000D01*
X109700000Y-53873002D02*
X109700000Y-44600000D01*
X104680000Y-39580000D02*
X99360000Y-39580000D01*
X109700000Y-44600000D02*
X104680000Y-39580000D01*
%TO.N,Net-(A1-Pad19)*%
X106900000Y-62500000D02*
X105100000Y-60700000D01*
X106900000Y-78610000D02*
X106900000Y-62500000D01*
%TO.N,Net-(A1-Pad20)*%
X108900000Y-57900000D02*
X108800000Y-57800000D01*
X108900000Y-69200000D02*
X108900000Y-57900000D01*
X99360000Y-47200000D02*
X102360000Y-50200000D01*
X105100000Y-50200000D02*
X108700000Y-53800000D01*
X102360000Y-50200000D02*
X105100000Y-50200000D01*
%TO.N,Net-(A1-Pad23)*%
X119925000Y-46875000D02*
X119200000Y-47600000D01*
X119925000Y-45850000D02*
X119925000Y-46875000D01*
X119200000Y-47600000D02*
X116600000Y-47600000D01*
X112285001Y-48614999D02*
X111500000Y-49400000D01*
X115585001Y-48614999D02*
X112285001Y-48614999D01*
X116600000Y-47600000D02*
X115585001Y-48614999D01*
X99680000Y-54500000D02*
X99360000Y-54820000D01*
X106500000Y-54500000D02*
X99680000Y-54500000D01*
%TO.N,Net-(A1-Pad24)*%
X104300000Y-56800000D02*
X103500000Y-57600000D01*
X99600000Y-57600000D02*
X99360000Y-57360000D01*
X103500000Y-57600000D02*
X99600000Y-57600000D01*
X111400000Y-47400000D02*
X111400000Y-44700000D01*
X111400000Y-44700000D02*
X112800000Y-43300000D01*
X116105000Y-43300000D02*
X118655000Y-45850000D01*
X112800000Y-43300000D02*
X116105000Y-43300000D01*
%TO.N,Net-(A1-Pad10)*%
X115400000Y-121410000D02*
X115400000Y-123100000D01*
X115400000Y-123100000D02*
X115000000Y-123500000D01*
X115000000Y-123500000D02*
X107300000Y-123500000D01*
X100800000Y-117000000D02*
X100800000Y-107550000D01*
X107300000Y-123500000D02*
X100800000Y-117000000D01*
X102850000Y-107550000D02*
X103700000Y-106700000D01*
X100800000Y-107550000D02*
X102850000Y-107550000D01*
%TO.N,Net-(A1-Pad26)*%
X105800000Y-68300000D02*
X105800000Y-74100000D01*
%TO.N,Net-(A1-Pad27)*%
X99360000Y-64980000D02*
X110300000Y-54040000D01*
X110300000Y-34600000D02*
X110900000Y-34000000D01*
X110300000Y-54040000D02*
X110300000Y-34600000D01*
X119925000Y-35525000D02*
X119925000Y-36550000D01*
X118400000Y-34000000D02*
X119925000Y-35525000D01*
X110900000Y-34000000D02*
X118400000Y-34000000D01*
X122660000Y-81460000D02*
X122660000Y-78610000D01*
X123900000Y-82700000D02*
X122660000Y-81460000D01*
X129200000Y-82700000D02*
X123900000Y-82700000D01*
X128600000Y-34000000D02*
X129200000Y-34600000D01*
X129200000Y-34600000D02*
X129200000Y-82700000D01*
X121450000Y-34000000D02*
X128600000Y-34000000D01*
X119925000Y-35525000D02*
X121450000Y-34000000D01*
X104360000Y-78610000D02*
X104360000Y-80140000D01*
X104360000Y-80140000D02*
X98100000Y-86400000D01*
X98100000Y-101750000D02*
X100800000Y-104450000D01*
X98100000Y-86400000D02*
X98100000Y-101750000D01*
X100800000Y-104450000D02*
X103350000Y-104450000D01*
X112860000Y-113960000D02*
X112860000Y-121410000D01*
X103350000Y-104450000D02*
X112860000Y-113960000D01*
%TO.N,Net-(A1-Pad13)*%
X118200000Y-83700000D02*
X118200000Y-76300000D01*
X118200000Y-76300000D02*
X117100000Y-75200000D01*
X117100000Y-75200000D02*
X112800000Y-75200000D01*
X112600000Y-47226998D02*
X112600000Y-45600000D01*
X110774999Y-49051999D02*
X112600000Y-47226998D01*
X110774999Y-73174999D02*
X110774999Y-49051999D01*
X112800000Y-75200000D02*
X110774999Y-73174999D01*
%TO.N,Net-(A1-Pad14)*%
X103800000Y-52200000D02*
X102400000Y-52200000D01*
X101600000Y-53000000D02*
X101600000Y-53600000D01*
X102400000Y-52200000D02*
X101600000Y-53000000D01*
X104000000Y-65000000D02*
X104000000Y-70900000D01*
X104000000Y-75300000D02*
X104600000Y-75900000D01*
X104000000Y-70900000D02*
X104000000Y-75300000D01*
X108800000Y-80700000D02*
X108800000Y-83600000D01*
X112310000Y-87110000D02*
X112310000Y-92230000D01*
X108800000Y-83600000D02*
X112310000Y-87110000D01*
%TO.N,Net-(A1-Pad30)*%
X120668000Y-30120000D02*
X120668000Y-31732000D01*
X120668000Y-31732000D02*
X119300000Y-33100000D01*
X110662500Y-33100000D02*
X107962500Y-35800000D01*
X119300000Y-33100000D02*
X110662500Y-33100000D01*
X99360000Y-72600000D02*
X97600000Y-70840000D01*
X97600000Y-70840000D02*
X97600000Y-33400000D01*
X97600000Y-33400000D02*
X97800000Y-33200000D01*
X105362500Y-33200000D02*
X107962500Y-35800000D01*
X97800000Y-33200000D02*
X105362500Y-33200000D01*
%TO.N,Net-(A1-Pad16)*%
X101300000Y-100500000D02*
X114700000Y-100500000D01*
X114850000Y-100350000D02*
X114850000Y-92230000D01*
X114700000Y-100500000D02*
X114850000Y-100350000D01*
%TO.N,Net-(D1-Pad1)*%
X125250000Y-51300000D02*
X126400000Y-50150000D01*
X122300000Y-51300000D02*
X125250000Y-51300000D01*
%TO.N,Net-(BT1-Pad1)*%
X117400000Y-48800000D02*
X118000000Y-48200000D01*
X121195000Y-46875000D02*
X121195000Y-45850000D01*
X119870000Y-48200000D02*
X121195000Y-46875000D01*
X118000000Y-48200000D02*
X119870000Y-48200000D01*
X117400000Y-51745000D02*
X122600000Y-56945000D01*
X117400000Y-48800000D02*
X117400000Y-51745000D01*
X122600000Y-73455000D02*
X123745000Y-73455000D01*
X123745000Y-73455000D02*
X128400000Y-68800000D01*
X128400000Y-68800000D02*
X128400000Y-60900000D01*
X124445000Y-56945000D02*
X122600000Y-56945000D01*
X128400000Y-60900000D02*
X124445000Y-56945000D01*
%TD*%
D23*
%TO.N,GND*%
X116650997Y-48651015D02*
X116640000Y-48762668D01*
X116640000Y-48762678D01*
X116636324Y-48800000D01*
X116640000Y-48837323D01*
X116640001Y-51707668D01*
X116636324Y-51745000D01*
X116640001Y-51782333D01*
X116650998Y-51893986D01*
X116663431Y-51934974D01*
X116694454Y-52037246D01*
X116765026Y-52169276D01*
X116836201Y-52256002D01*
X116860000Y-52285001D01*
X116888998Y-52308799D01*
X120211928Y-55631730D01*
X120211928Y-58695000D01*
X120224188Y-58819482D01*
X120260498Y-58939180D01*
X120319463Y-59049494D01*
X120398815Y-59146185D01*
X120495506Y-59225537D01*
X120605820Y-59284502D01*
X120725518Y-59320812D01*
X120850000Y-59333072D01*
X124350000Y-59333072D01*
X124474482Y-59320812D01*
X124594180Y-59284502D01*
X124704494Y-59225537D01*
X124801185Y-59146185D01*
X124880537Y-59049494D01*
X124939502Y-58939180D01*
X124975812Y-58819482D01*
X124988072Y-58695000D01*
X124988072Y-58562873D01*
X127640001Y-61214803D01*
X127640000Y-68485198D01*
X124832827Y-71292371D01*
X124801185Y-71253815D01*
X124704494Y-71174463D01*
X124594180Y-71115498D01*
X124474482Y-71079188D01*
X124350000Y-71066928D01*
X120850000Y-71066928D01*
X120725518Y-71079188D01*
X120605820Y-71115498D01*
X120495506Y-71174463D01*
X120398815Y-71253815D01*
X120319463Y-71350506D01*
X120260498Y-71460820D01*
X120224188Y-71580518D01*
X120211928Y-71705000D01*
X120211928Y-75205000D01*
X120224188Y-75329482D01*
X120260498Y-75449180D01*
X120319463Y-75559494D01*
X120398815Y-75656185D01*
X120495506Y-75735537D01*
X120605820Y-75794502D01*
X120725518Y-75830812D01*
X120850000Y-75843072D01*
X124350000Y-75843072D01*
X124474482Y-75830812D01*
X124594180Y-75794502D01*
X124704494Y-75735537D01*
X124801185Y-75656185D01*
X124880537Y-75559494D01*
X124939502Y-75449180D01*
X124975812Y-75329482D01*
X124988072Y-75205000D01*
X124988072Y-73286729D01*
X128440001Y-69834801D01*
X128440001Y-81940000D01*
X124214802Y-81940000D01*
X123420000Y-81145199D01*
X123420000Y-79782341D01*
X123550535Y-79695120D01*
X123745120Y-79500535D01*
X123898005Y-79271727D01*
X123930000Y-79194485D01*
X123961995Y-79271727D01*
X124114880Y-79500535D01*
X124309465Y-79695120D01*
X124538273Y-79848005D01*
X124792510Y-79953314D01*
X125062408Y-80007000D01*
X125337592Y-80007000D01*
X125607490Y-79953314D01*
X125861727Y-79848005D01*
X126090535Y-79695120D01*
X126285120Y-79500535D01*
X126438005Y-79271727D01*
X126543314Y-79017490D01*
X126597000Y-78747592D01*
X126597000Y-78472408D01*
X126543314Y-78202510D01*
X126438005Y-77948273D01*
X126285120Y-77719465D01*
X126090535Y-77524880D01*
X125861727Y-77371995D01*
X125607490Y-77266686D01*
X125337592Y-77213000D01*
X125062408Y-77213000D01*
X124792510Y-77266686D01*
X124538273Y-77371995D01*
X124309465Y-77524880D01*
X124114880Y-77719465D01*
X123961995Y-77948273D01*
X123930000Y-78025515D01*
X123898005Y-77948273D01*
X123745120Y-77719465D01*
X123550535Y-77524880D01*
X123321727Y-77371995D01*
X123067490Y-77266686D01*
X122797592Y-77213000D01*
X122522408Y-77213000D01*
X122252510Y-77266686D01*
X121998273Y-77371995D01*
X121769465Y-77524880D01*
X121574880Y-77719465D01*
X121421995Y-77948273D01*
X121392308Y-78019943D01*
X121387636Y-78006977D01*
X121325656Y-77891020D01*
X121085565Y-77824040D01*
X120299605Y-78610000D01*
X121085565Y-79395960D01*
X121325656Y-79328980D01*
X121389485Y-79193240D01*
X121421995Y-79271727D01*
X121574880Y-79500535D01*
X121769465Y-79695120D01*
X121900001Y-79782341D01*
X121900000Y-81422677D01*
X121896324Y-81460000D01*
X121900000Y-81497322D01*
X121900000Y-81497332D01*
X121910997Y-81608985D01*
X121949223Y-81735000D01*
X121954454Y-81752246D01*
X122025026Y-81884276D01*
X122039522Y-81901939D01*
X122119999Y-82000001D01*
X122149003Y-82023804D01*
X123336201Y-83211003D01*
X123359999Y-83240001D01*
X123475724Y-83334974D01*
X123607753Y-83405546D01*
X123751014Y-83449003D01*
X123862667Y-83460000D01*
X123862677Y-83460000D01*
X123900000Y-83463676D01*
X123937323Y-83460000D01*
X129140001Y-83460000D01*
X129140001Y-123540000D01*
X126875738Y-123540000D01*
X126882977Y-123535163D01*
X127185163Y-123232977D01*
X127422588Y-122877645D01*
X127586130Y-122482821D01*
X127669503Y-122063677D01*
X127669503Y-121636323D01*
X127586130Y-121217179D01*
X127422588Y-120822355D01*
X127185163Y-120467023D01*
X126882977Y-120164837D01*
X126527645Y-119927412D01*
X126132821Y-119763870D01*
X125713677Y-119680497D01*
X125286323Y-119680497D01*
X124867179Y-119763870D01*
X124472355Y-119927412D01*
X124117023Y-120164837D01*
X123814837Y-120467023D01*
X123577412Y-120822355D01*
X123413870Y-121217179D01*
X123330497Y-121636323D01*
X123330497Y-122063677D01*
X123413870Y-122482821D01*
X123577412Y-122877645D01*
X123814837Y-123232977D01*
X124117023Y-123535163D01*
X124124262Y-123540000D01*
X116022070Y-123540000D01*
X116034974Y-123524276D01*
X116105546Y-123392247D01*
X116149003Y-123248986D01*
X116160000Y-123137333D01*
X116160000Y-123137324D01*
X116163676Y-123100001D01*
X116160000Y-123062678D01*
X116160000Y-122582341D01*
X116290535Y-122495120D01*
X116485120Y-122300535D01*
X116638005Y-122071727D01*
X116743314Y-121817490D01*
X116797000Y-121547592D01*
X116797000Y-121272408D01*
X116743314Y-121002510D01*
X116638005Y-120748273D01*
X116485120Y-120519465D01*
X116290535Y-120324880D01*
X116061727Y-120171995D01*
X115807490Y-120066686D01*
X115537592Y-120013000D01*
X115262408Y-120013000D01*
X114992510Y-120066686D01*
X114738273Y-120171995D01*
X114509465Y-120324880D01*
X114314880Y-120519465D01*
X114161995Y-120748273D01*
X114130000Y-120825515D01*
X114098005Y-120748273D01*
X113945120Y-120519465D01*
X113750535Y-120324880D01*
X113620000Y-120237659D01*
X113620000Y-113997323D01*
X113623676Y-113960000D01*
X113620000Y-113922677D01*
X113620000Y-113922667D01*
X113609003Y-113811014D01*
X113565546Y-113667753D01*
X113494975Y-113535725D01*
X113494974Y-113535723D01*
X113423799Y-113448997D01*
X113400001Y-113419999D01*
X113371004Y-113396202D01*
X103913804Y-103939003D01*
X103890001Y-103909999D01*
X103774276Y-103815026D01*
X103642247Y-103744454D01*
X103498986Y-103700997D01*
X103387333Y-103690000D01*
X103387322Y-103690000D01*
X103350000Y-103686324D01*
X103312678Y-103690000D01*
X102234702Y-103690000D01*
X102163405Y-103556614D01*
X102052962Y-103422038D01*
X101918386Y-103311595D01*
X101764850Y-103229528D01*
X101598254Y-103178992D01*
X101425000Y-103161928D01*
X100586730Y-103161928D01*
X98860000Y-101435199D01*
X98860000Y-100398061D01*
X100265000Y-100398061D01*
X100265000Y-100601939D01*
X100304774Y-100801898D01*
X100382795Y-100990256D01*
X100496063Y-101159774D01*
X100640226Y-101303937D01*
X100809744Y-101417205D01*
X100998102Y-101495226D01*
X101198061Y-101535000D01*
X101401939Y-101535000D01*
X101601898Y-101495226D01*
X101790256Y-101417205D01*
X101959774Y-101303937D01*
X102003711Y-101260000D01*
X114662678Y-101260000D01*
X114700000Y-101263676D01*
X114737322Y-101260000D01*
X114737333Y-101260000D01*
X114848986Y-101249003D01*
X114992247Y-101205546D01*
X115124276Y-101134974D01*
X115240001Y-101040001D01*
X115263804Y-101010997D01*
X115360998Y-100913803D01*
X115390001Y-100890001D01*
X115484974Y-100774276D01*
X115555546Y-100642247D01*
X115599003Y-100498986D01*
X115610000Y-100387333D01*
X115610000Y-100387324D01*
X115613676Y-100350001D01*
X115610000Y-100312678D01*
X115610000Y-93568313D01*
X115828505Y-93422312D01*
X116042312Y-93208505D01*
X116120000Y-93092237D01*
X116197688Y-93208505D01*
X116411495Y-93422312D01*
X116662905Y-93590299D01*
X116942257Y-93706011D01*
X117238816Y-93765000D01*
X117541184Y-93765000D01*
X117837743Y-93706011D01*
X118117095Y-93590299D01*
X118368505Y-93422312D01*
X118496737Y-93294080D01*
X119045525Y-93294080D01*
X119129208Y-93548261D01*
X119401775Y-93679158D01*
X119694642Y-93754365D01*
X119996553Y-93770991D01*
X120295907Y-93728397D01*
X120581199Y-93628222D01*
X120730792Y-93548261D01*
X120814475Y-93294080D01*
X119930000Y-92409605D01*
X119045525Y-93294080D01*
X118496737Y-93294080D01*
X118582312Y-93208505D01*
X118684951Y-93054895D01*
X118865920Y-93114475D01*
X119750395Y-92230000D01*
X120109605Y-92230000D01*
X120994080Y-93114475D01*
X121248261Y-93030792D01*
X121379158Y-92758225D01*
X121454365Y-92465358D01*
X121470991Y-92163447D01*
X121428397Y-91864093D01*
X121328222Y-91578801D01*
X121248261Y-91429208D01*
X120994080Y-91345525D01*
X120109605Y-92230000D01*
X119750395Y-92230000D01*
X118865920Y-91345525D01*
X118684951Y-91405105D01*
X118582312Y-91251495D01*
X118496737Y-91165920D01*
X119045525Y-91165920D01*
X119930000Y-92050395D01*
X120814475Y-91165920D01*
X120730792Y-90911739D01*
X120458225Y-90780842D01*
X120165358Y-90705635D01*
X119863447Y-90689009D01*
X119564093Y-90731603D01*
X119278801Y-90831778D01*
X119129208Y-90911739D01*
X119045525Y-91165920D01*
X118496737Y-91165920D01*
X118368505Y-91037688D01*
X118117095Y-90869701D01*
X117837743Y-90753989D01*
X117541184Y-90695000D01*
X117238816Y-90695000D01*
X116942257Y-90753989D01*
X116662905Y-90869701D01*
X116411495Y-91037688D01*
X116197688Y-91251495D01*
X116120000Y-91367763D01*
X116042312Y-91251495D01*
X115828505Y-91037688D01*
X115577095Y-90869701D01*
X115297743Y-90753989D01*
X115001184Y-90695000D01*
X114698816Y-90695000D01*
X114402257Y-90753989D01*
X114122905Y-90869701D01*
X113871495Y-91037688D01*
X113657688Y-91251495D01*
X113580000Y-91367763D01*
X113502312Y-91251495D01*
X113288505Y-91037688D01*
X113070000Y-90891687D01*
X113070000Y-87636323D01*
X123330497Y-87636323D01*
X123330497Y-88063677D01*
X123413870Y-88482821D01*
X123577412Y-88877645D01*
X123814837Y-89232977D01*
X124117023Y-89535163D01*
X124472355Y-89772588D01*
X124867179Y-89936130D01*
X125286323Y-90019503D01*
X125713677Y-90019503D01*
X126132821Y-89936130D01*
X126527645Y-89772588D01*
X126882977Y-89535163D01*
X127185163Y-89232977D01*
X127422588Y-88877645D01*
X127586130Y-88482821D01*
X127669503Y-88063677D01*
X127669503Y-87636323D01*
X127586130Y-87217179D01*
X127422588Y-86822355D01*
X127185163Y-86467023D01*
X126882977Y-86164837D01*
X126527645Y-85927412D01*
X126132821Y-85763870D01*
X125713677Y-85680497D01*
X125286323Y-85680497D01*
X124867179Y-85763870D01*
X124472355Y-85927412D01*
X124117023Y-86164837D01*
X123814837Y-86467023D01*
X123577412Y-86822355D01*
X123413870Y-87217179D01*
X123330497Y-87636323D01*
X113070000Y-87636323D01*
X113070000Y-87147333D01*
X113073677Y-87110000D01*
X113059003Y-86961014D01*
X113015546Y-86817753D01*
X112944974Y-86685724D01*
X112873799Y-86598997D01*
X112850001Y-86569999D01*
X112821004Y-86546202D01*
X109560000Y-83285199D01*
X109560000Y-81403711D01*
X109603937Y-81359774D01*
X109717205Y-81190256D01*
X109795226Y-81001898D01*
X109835000Y-80801939D01*
X109835000Y-80598061D01*
X109795226Y-80398102D01*
X109717205Y-80209744D01*
X109603937Y-80040226D01*
X109459774Y-79896063D01*
X109290256Y-79782795D01*
X109101898Y-79704774D01*
X108901939Y-79665000D01*
X108698061Y-79665000D01*
X108498102Y-79704774D01*
X108309744Y-79782795D01*
X108140226Y-79896063D01*
X107996063Y-80040226D01*
X107882795Y-80209744D01*
X107804774Y-80398102D01*
X107765000Y-80598061D01*
X107765000Y-80801939D01*
X107804774Y-81001898D01*
X107882795Y-81190256D01*
X107996063Y-81359774D01*
X108040000Y-81403711D01*
X108040001Y-83562668D01*
X108036324Y-83600000D01*
X108050998Y-83748985D01*
X108094454Y-83892246D01*
X108165026Y-84024276D01*
X108236201Y-84111002D01*
X108260000Y-84140001D01*
X108288998Y-84163799D01*
X111550000Y-87424802D01*
X111550001Y-90891687D01*
X111331495Y-91037688D01*
X111117688Y-91251495D01*
X111040000Y-91367763D01*
X110962312Y-91251495D01*
X110748505Y-91037688D01*
X110497095Y-90869701D01*
X110217743Y-90753989D01*
X109921184Y-90695000D01*
X109618816Y-90695000D01*
X109322257Y-90753989D01*
X109042905Y-90869701D01*
X108791495Y-91037688D01*
X108577688Y-91251495D01*
X108500000Y-91367763D01*
X108422312Y-91251495D01*
X108208505Y-91037688D01*
X107957095Y-90869701D01*
X107677743Y-90753989D01*
X107381184Y-90695000D01*
X107078816Y-90695000D01*
X106782257Y-90753989D01*
X106502905Y-90869701D01*
X106251495Y-91037688D01*
X106037688Y-91251495D01*
X105869701Y-91502905D01*
X105753989Y-91782257D01*
X105695000Y-92078816D01*
X105695000Y-92381184D01*
X105753989Y-92677743D01*
X105869701Y-92957095D01*
X106037688Y-93208505D01*
X106251495Y-93422312D01*
X106502905Y-93590299D01*
X106782257Y-93706011D01*
X107078816Y-93765000D01*
X107381184Y-93765000D01*
X107677743Y-93706011D01*
X107957095Y-93590299D01*
X108208505Y-93422312D01*
X108422312Y-93208505D01*
X108500000Y-93092237D01*
X108577688Y-93208505D01*
X108791495Y-93422312D01*
X109042905Y-93590299D01*
X109322257Y-93706011D01*
X109618816Y-93765000D01*
X109921184Y-93765000D01*
X110217743Y-93706011D01*
X110497095Y-93590299D01*
X110748505Y-93422312D01*
X110962312Y-93208505D01*
X111040000Y-93092237D01*
X111117688Y-93208505D01*
X111331495Y-93422312D01*
X111582905Y-93590299D01*
X111862257Y-93706011D01*
X112158816Y-93765000D01*
X112461184Y-93765000D01*
X112757743Y-93706011D01*
X113037095Y-93590299D01*
X113288505Y-93422312D01*
X113502312Y-93208505D01*
X113580000Y-93092237D01*
X113657688Y-93208505D01*
X113871495Y-93422312D01*
X114090001Y-93568313D01*
X114090000Y-99740000D01*
X102003711Y-99740000D01*
X101959774Y-99696063D01*
X101790256Y-99582795D01*
X101601898Y-99504774D01*
X101401939Y-99465000D01*
X101198061Y-99465000D01*
X100998102Y-99504774D01*
X100809744Y-99582795D01*
X100640226Y-99696063D01*
X100496063Y-99840226D01*
X100382795Y-100009744D01*
X100304774Y-100198102D01*
X100265000Y-100398061D01*
X98860000Y-100398061D01*
X98860000Y-87636323D01*
X99330497Y-87636323D01*
X99330497Y-88063677D01*
X99413870Y-88482821D01*
X99577412Y-88877645D01*
X99814837Y-89232977D01*
X100117023Y-89535163D01*
X100472355Y-89772588D01*
X100867179Y-89936130D01*
X101286323Y-90019503D01*
X101713677Y-90019503D01*
X102132821Y-89936130D01*
X102527645Y-89772588D01*
X102882977Y-89535163D01*
X103185163Y-89232977D01*
X103422588Y-88877645D01*
X103586130Y-88482821D01*
X103669503Y-88063677D01*
X103669503Y-87636323D01*
X103586130Y-87217179D01*
X103422588Y-86822355D01*
X103185163Y-86467023D01*
X102882977Y-86164837D01*
X102527645Y-85927412D01*
X102132821Y-85763870D01*
X101713677Y-85680497D01*
X101286323Y-85680497D01*
X100867179Y-85763870D01*
X100472355Y-85927412D01*
X100117023Y-86164837D01*
X99814837Y-86467023D01*
X99577412Y-86822355D01*
X99413870Y-87217179D01*
X99330497Y-87636323D01*
X98860000Y-87636323D01*
X98860000Y-86714801D01*
X104871003Y-80703799D01*
X104900001Y-80680001D01*
X104936954Y-80634974D01*
X104994974Y-80564277D01*
X105065546Y-80432247D01*
X105072976Y-80407753D01*
X105109003Y-80288986D01*
X105120000Y-80177333D01*
X105120000Y-80177323D01*
X105123676Y-80140000D01*
X105120000Y-80102677D01*
X105120000Y-79782341D01*
X105250535Y-79695120D01*
X105445120Y-79500535D01*
X105598005Y-79271727D01*
X105630000Y-79194485D01*
X105661995Y-79271727D01*
X105814880Y-79500535D01*
X106009465Y-79695120D01*
X106238273Y-79848005D01*
X106492510Y-79953314D01*
X106762408Y-80007000D01*
X107037592Y-80007000D01*
X107307490Y-79953314D01*
X107561727Y-79848005D01*
X107790535Y-79695120D01*
X107910090Y-79575565D01*
X110134040Y-79575565D01*
X110201020Y-79815656D01*
X110450048Y-79932756D01*
X110717135Y-79999023D01*
X110992017Y-80011910D01*
X111264133Y-79970922D01*
X111523023Y-79877636D01*
X111638980Y-79815656D01*
X111705960Y-79575565D01*
X110920000Y-78789605D01*
X110134040Y-79575565D01*
X107910090Y-79575565D01*
X107985120Y-79500535D01*
X108138005Y-79271727D01*
X108243314Y-79017490D01*
X108297000Y-78747592D01*
X108297000Y-78682017D01*
X109518090Y-78682017D01*
X109559078Y-78954133D01*
X109652364Y-79213023D01*
X109714344Y-79328980D01*
X109954435Y-79395960D01*
X110740395Y-78610000D01*
X111099605Y-78610000D01*
X111885565Y-79395960D01*
X112125656Y-79328980D01*
X112189485Y-79193240D01*
X112221995Y-79271727D01*
X112374880Y-79500535D01*
X112569465Y-79695120D01*
X112798273Y-79848005D01*
X113052510Y-79953314D01*
X113322408Y-80007000D01*
X113597592Y-80007000D01*
X113867490Y-79953314D01*
X114121727Y-79848005D01*
X114350535Y-79695120D01*
X114545120Y-79500535D01*
X114698005Y-79271727D01*
X114730000Y-79194485D01*
X114761995Y-79271727D01*
X114914880Y-79500535D01*
X115109465Y-79695120D01*
X115338273Y-79848005D01*
X115592510Y-79953314D01*
X115862408Y-80007000D01*
X116137592Y-80007000D01*
X116407490Y-79953314D01*
X116661727Y-79848005D01*
X116890535Y-79695120D01*
X117085120Y-79500535D01*
X117238005Y-79271727D01*
X117343314Y-79017490D01*
X117397000Y-78747592D01*
X117397000Y-78472408D01*
X117343314Y-78202510D01*
X117238005Y-77948273D01*
X117085120Y-77719465D01*
X116890535Y-77524880D01*
X116661727Y-77371995D01*
X116407490Y-77266686D01*
X116137592Y-77213000D01*
X115862408Y-77213000D01*
X115592510Y-77266686D01*
X115338273Y-77371995D01*
X115109465Y-77524880D01*
X114914880Y-77719465D01*
X114761995Y-77948273D01*
X114730000Y-78025515D01*
X114698005Y-77948273D01*
X114545120Y-77719465D01*
X114350535Y-77524880D01*
X114121727Y-77371995D01*
X113867490Y-77266686D01*
X113597592Y-77213000D01*
X113322408Y-77213000D01*
X113052510Y-77266686D01*
X112798273Y-77371995D01*
X112569465Y-77524880D01*
X112374880Y-77719465D01*
X112221995Y-77948273D01*
X112192308Y-78019943D01*
X112187636Y-78006977D01*
X112125656Y-77891020D01*
X111885565Y-77824040D01*
X111099605Y-78610000D01*
X110740395Y-78610000D01*
X109954435Y-77824040D01*
X109714344Y-77891020D01*
X109597244Y-78140048D01*
X109530977Y-78407135D01*
X109518090Y-78682017D01*
X108297000Y-78682017D01*
X108297000Y-78472408D01*
X108243314Y-78202510D01*
X108138005Y-77948273D01*
X107985120Y-77719465D01*
X107910090Y-77644435D01*
X110134040Y-77644435D01*
X110920000Y-78430395D01*
X111705960Y-77644435D01*
X111638980Y-77404344D01*
X111389952Y-77287244D01*
X111122865Y-77220977D01*
X110847983Y-77208090D01*
X110575867Y-77249078D01*
X110316977Y-77342364D01*
X110201020Y-77404344D01*
X110134040Y-77644435D01*
X107910090Y-77644435D01*
X107790535Y-77524880D01*
X107660000Y-77437659D01*
X107660000Y-62537322D01*
X107663676Y-62499999D01*
X107660000Y-62462676D01*
X107660000Y-62462667D01*
X107649003Y-62351014D01*
X107605546Y-62207753D01*
X107534974Y-62075724D01*
X107490413Y-62021426D01*
X107463799Y-61988996D01*
X107463795Y-61988992D01*
X107440001Y-61959999D01*
X107411008Y-61936205D01*
X106135000Y-60660198D01*
X106135000Y-60598061D01*
X106095226Y-60398102D01*
X106017205Y-60209744D01*
X105903937Y-60040226D01*
X105759774Y-59896063D01*
X105615284Y-59799518D01*
X107776983Y-57637819D01*
X107765000Y-57698061D01*
X107765000Y-57901939D01*
X107804774Y-58101898D01*
X107882795Y-58290256D01*
X107996063Y-58459774D01*
X108140001Y-58603712D01*
X108140000Y-68496289D01*
X108096063Y-68540226D01*
X107982795Y-68709744D01*
X107904774Y-68898102D01*
X107865000Y-69098061D01*
X107865000Y-69301939D01*
X107904774Y-69501898D01*
X107982795Y-69690256D01*
X108096063Y-69859774D01*
X108240226Y-70003937D01*
X108409744Y-70117205D01*
X108598102Y-70195226D01*
X108798061Y-70235000D01*
X109001939Y-70235000D01*
X109201898Y-70195226D01*
X109390256Y-70117205D01*
X109559774Y-70003937D01*
X109703937Y-69859774D01*
X109817205Y-69690256D01*
X109895226Y-69501898D01*
X109935000Y-69301939D01*
X109935000Y-69098061D01*
X109895226Y-68898102D01*
X109817205Y-68709744D01*
X109703937Y-68540226D01*
X109660000Y-68496289D01*
X109660000Y-58375870D01*
X109717205Y-58290256D01*
X109795226Y-58101898D01*
X109835000Y-57901939D01*
X109835000Y-57698061D01*
X109795226Y-57498102D01*
X109717205Y-57309744D01*
X109603937Y-57140226D01*
X109459774Y-56996063D01*
X109290256Y-56882795D01*
X109101898Y-56804774D01*
X108901939Y-56765000D01*
X108698061Y-56765000D01*
X108637819Y-56776983D01*
X110015000Y-55399802D01*
X110014999Y-73137677D01*
X110011323Y-73174999D01*
X110014999Y-73212321D01*
X110014999Y-73212331D01*
X110025996Y-73323984D01*
X110049055Y-73400000D01*
X110069453Y-73467245D01*
X110140025Y-73599275D01*
X110148617Y-73609744D01*
X110234998Y-73715000D01*
X110264002Y-73738803D01*
X112236200Y-75711002D01*
X112259999Y-75740001D01*
X112288997Y-75763799D01*
X112375723Y-75834974D01*
X112497375Y-75899999D01*
X112507753Y-75905546D01*
X112651014Y-75949003D01*
X112762667Y-75960000D01*
X112762677Y-75960000D01*
X112800000Y-75963676D01*
X112837323Y-75960000D01*
X116785199Y-75960000D01*
X117440001Y-76614803D01*
X117440000Y-82996289D01*
X117396063Y-83040226D01*
X117282795Y-83209744D01*
X117204774Y-83398102D01*
X117165000Y-83598061D01*
X117165000Y-83801939D01*
X117204774Y-84001898D01*
X117282795Y-84190256D01*
X117396063Y-84359774D01*
X117540226Y-84503937D01*
X117709744Y-84617205D01*
X117898102Y-84695226D01*
X118098061Y-84735000D01*
X118301939Y-84735000D01*
X118501898Y-84695226D01*
X118690256Y-84617205D01*
X118859774Y-84503937D01*
X119003937Y-84359774D01*
X119117205Y-84190256D01*
X119195226Y-84001898D01*
X119235000Y-83801939D01*
X119235000Y-83598061D01*
X119195226Y-83398102D01*
X119117205Y-83209744D01*
X119003937Y-83040226D01*
X118960000Y-82996289D01*
X118960000Y-79575565D01*
X119334040Y-79575565D01*
X119401020Y-79815656D01*
X119650048Y-79932756D01*
X119917135Y-79999023D01*
X120192017Y-80011910D01*
X120464133Y-79970922D01*
X120723023Y-79877636D01*
X120838980Y-79815656D01*
X120905960Y-79575565D01*
X120120000Y-78789605D01*
X119334040Y-79575565D01*
X118960000Y-79575565D01*
X118960000Y-79341717D01*
X119154435Y-79395960D01*
X119940395Y-78610000D01*
X119154435Y-77824040D01*
X118960000Y-77878283D01*
X118960000Y-77644435D01*
X119334040Y-77644435D01*
X120120000Y-78430395D01*
X120905960Y-77644435D01*
X120838980Y-77404344D01*
X120589952Y-77287244D01*
X120322865Y-77220977D01*
X120047983Y-77208090D01*
X119775867Y-77249078D01*
X119516977Y-77342364D01*
X119401020Y-77404344D01*
X119334040Y-77644435D01*
X118960000Y-77644435D01*
X118960000Y-76337323D01*
X118963676Y-76300000D01*
X118960000Y-76262677D01*
X118960000Y-76262667D01*
X118949003Y-76151014D01*
X118905546Y-76007753D01*
X118874143Y-75949003D01*
X118834974Y-75875723D01*
X118763799Y-75788997D01*
X118740001Y-75759999D01*
X118711003Y-75736201D01*
X117663804Y-74689002D01*
X117640001Y-74659999D01*
X117524276Y-74565026D01*
X117392247Y-74494454D01*
X117248986Y-74450997D01*
X117137333Y-74440000D01*
X117137322Y-74440000D01*
X117100000Y-74436324D01*
X117062678Y-74440000D01*
X113114802Y-74440000D01*
X111534999Y-72860198D01*
X111534999Y-71800000D01*
X113161928Y-71800000D01*
X113161928Y-73400000D01*
X113174188Y-73524482D01*
X113210498Y-73644180D01*
X113269463Y-73754494D01*
X113348815Y-73851185D01*
X113445506Y-73930537D01*
X113555820Y-73989502D01*
X113675518Y-74025812D01*
X113800000Y-74038072D01*
X115400000Y-74038072D01*
X115524482Y-74025812D01*
X115644180Y-73989502D01*
X115754494Y-73930537D01*
X115851185Y-73851185D01*
X115930537Y-73754494D01*
X115989502Y-73644180D01*
X116025812Y-73524482D01*
X116038072Y-73400000D01*
X116038072Y-71800000D01*
X116025812Y-71675518D01*
X115989502Y-71555820D01*
X115930537Y-71445506D01*
X115851185Y-71348815D01*
X115754494Y-71269463D01*
X115644180Y-71210498D01*
X115524482Y-71174188D01*
X115516039Y-71173357D01*
X115714637Y-70974759D01*
X115871680Y-70739727D01*
X115979853Y-70478574D01*
X116035000Y-70201335D01*
X116035000Y-69918665D01*
X115979853Y-69641426D01*
X115871680Y-69380273D01*
X115714637Y-69145241D01*
X115514759Y-68945363D01*
X115282241Y-68790000D01*
X115514759Y-68634637D01*
X115679816Y-68469580D01*
X119510025Y-68469580D01*
X119966197Y-69041185D01*
X120766183Y-69481207D01*
X121636641Y-69756704D01*
X122544121Y-69857091D01*
X123453748Y-69778508D01*
X124330566Y-69523975D01*
X125140879Y-69103275D01*
X125233803Y-69041185D01*
X125689975Y-68469580D01*
X122600000Y-65379605D01*
X119510025Y-68469580D01*
X115679816Y-68469580D01*
X115714637Y-68434759D01*
X115871680Y-68199727D01*
X115979853Y-67938574D01*
X116035000Y-67661335D01*
X116035000Y-67378665D01*
X115979853Y-67101426D01*
X115871680Y-66840273D01*
X115714637Y-66605241D01*
X115514759Y-66405363D01*
X115279727Y-66248320D01*
X115269135Y-66243933D01*
X115455131Y-66132385D01*
X115663519Y-65943414D01*
X115831037Y-65717420D01*
X115951246Y-65463087D01*
X115991904Y-65329039D01*
X115890310Y-65144121D01*
X117942909Y-65144121D01*
X118021492Y-66053748D01*
X118276025Y-66930566D01*
X118696725Y-67740879D01*
X118758815Y-67833803D01*
X119330420Y-68289975D01*
X122420395Y-65200000D01*
X122779605Y-65200000D01*
X125869580Y-68289975D01*
X126441185Y-67833803D01*
X126881207Y-67033817D01*
X127156704Y-66163359D01*
X127257091Y-65255879D01*
X127178508Y-64346252D01*
X126923975Y-63469434D01*
X126503275Y-62659121D01*
X126441185Y-62566197D01*
X125869580Y-62110025D01*
X122779605Y-65200000D01*
X122420395Y-65200000D01*
X119330420Y-62110025D01*
X118758815Y-62566197D01*
X118318793Y-63366183D01*
X118043296Y-64236641D01*
X117942909Y-65144121D01*
X115890310Y-65144121D01*
X115869915Y-65107000D01*
X114727000Y-65107000D01*
X114727000Y-65127000D01*
X114473000Y-65127000D01*
X114473000Y-65107000D01*
X113330085Y-65107000D01*
X113208096Y-65329039D01*
X113248754Y-65463087D01*
X113368963Y-65717420D01*
X113536481Y-65943414D01*
X113744869Y-66132385D01*
X113930865Y-66243933D01*
X113920273Y-66248320D01*
X113685241Y-66405363D01*
X113485363Y-66605241D01*
X113328320Y-66840273D01*
X113220147Y-67101426D01*
X113165000Y-67378665D01*
X113165000Y-67661335D01*
X113220147Y-67938574D01*
X113328320Y-68199727D01*
X113485363Y-68434759D01*
X113685241Y-68634637D01*
X113917759Y-68790000D01*
X113685241Y-68945363D01*
X113485363Y-69145241D01*
X113328320Y-69380273D01*
X113220147Y-69641426D01*
X113165000Y-69918665D01*
X113165000Y-70201335D01*
X113220147Y-70478574D01*
X113328320Y-70739727D01*
X113485363Y-70974759D01*
X113683961Y-71173357D01*
X113675518Y-71174188D01*
X113555820Y-71210498D01*
X113445506Y-71269463D01*
X113348815Y-71348815D01*
X113269463Y-71445506D01*
X113210498Y-71555820D01*
X113174188Y-71675518D01*
X113161928Y-71800000D01*
X111534999Y-71800000D01*
X111534999Y-50435000D01*
X111601939Y-50435000D01*
X111801898Y-50395226D01*
X111990256Y-50317205D01*
X112159774Y-50203937D01*
X112303937Y-50059774D01*
X112417205Y-49890256D01*
X112495226Y-49701898D01*
X112535000Y-49501939D01*
X112535000Y-49439802D01*
X112599803Y-49374999D01*
X113209491Y-49374999D01*
X113165000Y-49598665D01*
X113165000Y-49881335D01*
X113220147Y-50158574D01*
X113328320Y-50419727D01*
X113485363Y-50654759D01*
X113685241Y-50854637D01*
X113917759Y-51010000D01*
X113685241Y-51165363D01*
X113485363Y-51365241D01*
X113328320Y-51600273D01*
X113220147Y-51861426D01*
X113165000Y-52138665D01*
X113165000Y-52421335D01*
X113220147Y-52698574D01*
X113328320Y-52959727D01*
X113485363Y-53194759D01*
X113685241Y-53394637D01*
X113917759Y-53550000D01*
X113685241Y-53705363D01*
X113485363Y-53905241D01*
X113328320Y-54140273D01*
X113220147Y-54401426D01*
X113165000Y-54678665D01*
X113165000Y-54961335D01*
X113220147Y-55238574D01*
X113328320Y-55499727D01*
X113485363Y-55734759D01*
X113685241Y-55934637D01*
X113917759Y-56090000D01*
X113685241Y-56245363D01*
X113485363Y-56445241D01*
X113328320Y-56680273D01*
X113220147Y-56941426D01*
X113165000Y-57218665D01*
X113165000Y-57501335D01*
X113220147Y-57778574D01*
X113328320Y-58039727D01*
X113485363Y-58274759D01*
X113685241Y-58474637D01*
X113917759Y-58630000D01*
X113685241Y-58785363D01*
X113485363Y-58985241D01*
X113328320Y-59220273D01*
X113220147Y-59481426D01*
X113165000Y-59758665D01*
X113165000Y-60041335D01*
X113220147Y-60318574D01*
X113328320Y-60579727D01*
X113485363Y-60814759D01*
X113685241Y-61014637D01*
X113917759Y-61170000D01*
X113685241Y-61325363D01*
X113485363Y-61525241D01*
X113328320Y-61760273D01*
X113220147Y-62021426D01*
X113165000Y-62298665D01*
X113165000Y-62581335D01*
X113220147Y-62858574D01*
X113328320Y-63119727D01*
X113485363Y-63354759D01*
X113685241Y-63554637D01*
X113920273Y-63711680D01*
X113930865Y-63716067D01*
X113744869Y-63827615D01*
X113536481Y-64016586D01*
X113368963Y-64242580D01*
X113248754Y-64496913D01*
X113208096Y-64630961D01*
X113330085Y-64853000D01*
X114473000Y-64853000D01*
X114473000Y-64833000D01*
X114727000Y-64833000D01*
X114727000Y-64853000D01*
X115869915Y-64853000D01*
X115991904Y-64630961D01*
X115951246Y-64496913D01*
X115831037Y-64242580D01*
X115663519Y-64016586D01*
X115455131Y-63827615D01*
X115269135Y-63716067D01*
X115279727Y-63711680D01*
X115514759Y-63554637D01*
X115714637Y-63354759D01*
X115871680Y-63119727D01*
X115979853Y-62858574D01*
X116035000Y-62581335D01*
X116035000Y-62298665D01*
X115979853Y-62021426D01*
X115942158Y-61930420D01*
X119510025Y-61930420D01*
X122600000Y-65020395D01*
X125689975Y-61930420D01*
X125233803Y-61358815D01*
X124433817Y-60918793D01*
X123563359Y-60643296D01*
X122655879Y-60542909D01*
X121746252Y-60621492D01*
X120869434Y-60876025D01*
X120059121Y-61296725D01*
X119966197Y-61358815D01*
X119510025Y-61930420D01*
X115942158Y-61930420D01*
X115871680Y-61760273D01*
X115714637Y-61525241D01*
X115514759Y-61325363D01*
X115282241Y-61170000D01*
X115514759Y-61014637D01*
X115714637Y-60814759D01*
X115871680Y-60579727D01*
X115979853Y-60318574D01*
X116035000Y-60041335D01*
X116035000Y-59758665D01*
X115979853Y-59481426D01*
X115871680Y-59220273D01*
X115714637Y-58985241D01*
X115514759Y-58785363D01*
X115282241Y-58630000D01*
X115514759Y-58474637D01*
X115714637Y-58274759D01*
X115871680Y-58039727D01*
X115979853Y-57778574D01*
X116035000Y-57501335D01*
X116035000Y-57218665D01*
X115979853Y-56941426D01*
X115871680Y-56680273D01*
X115714637Y-56445241D01*
X115514759Y-56245363D01*
X115282241Y-56090000D01*
X115514759Y-55934637D01*
X115714637Y-55734759D01*
X115871680Y-55499727D01*
X115979853Y-55238574D01*
X116035000Y-54961335D01*
X116035000Y-54678665D01*
X115979853Y-54401426D01*
X115871680Y-54140273D01*
X115714637Y-53905241D01*
X115514759Y-53705363D01*
X115282241Y-53550000D01*
X115514759Y-53394637D01*
X115714637Y-53194759D01*
X115871680Y-52959727D01*
X115979853Y-52698574D01*
X116035000Y-52421335D01*
X116035000Y-52138665D01*
X115979853Y-51861426D01*
X115871680Y-51600273D01*
X115714637Y-51365241D01*
X115514759Y-51165363D01*
X115282241Y-51010000D01*
X115514759Y-50854637D01*
X115714637Y-50654759D01*
X115871680Y-50419727D01*
X115979853Y-50158574D01*
X116035000Y-49881335D01*
X116035000Y-49598665D01*
X115979853Y-49321426D01*
X115960955Y-49275802D01*
X116009277Y-49249973D01*
X116125002Y-49155000D01*
X116148805Y-49125997D01*
X116662845Y-48611956D01*
X116650997Y-48651015D01*
%TA.AperFunction,Conductor*%
D24*
G36*
X116650997Y-48651015D02*
G01*
X116640000Y-48762668D01*
X116640000Y-48762678D01*
X116636324Y-48800000D01*
X116640000Y-48837323D01*
X116640001Y-51707668D01*
X116636324Y-51745000D01*
X116640001Y-51782333D01*
X116650998Y-51893986D01*
X116663431Y-51934974D01*
X116694454Y-52037246D01*
X116765026Y-52169276D01*
X116836201Y-52256002D01*
X116860000Y-52285001D01*
X116888998Y-52308799D01*
X120211928Y-55631730D01*
X120211928Y-58695000D01*
X120224188Y-58819482D01*
X120260498Y-58939180D01*
X120319463Y-59049494D01*
X120398815Y-59146185D01*
X120495506Y-59225537D01*
X120605820Y-59284502D01*
X120725518Y-59320812D01*
X120850000Y-59333072D01*
X124350000Y-59333072D01*
X124474482Y-59320812D01*
X124594180Y-59284502D01*
X124704494Y-59225537D01*
X124801185Y-59146185D01*
X124880537Y-59049494D01*
X124939502Y-58939180D01*
X124975812Y-58819482D01*
X124988072Y-58695000D01*
X124988072Y-58562873D01*
X127640001Y-61214803D01*
X127640000Y-68485198D01*
X124832827Y-71292371D01*
X124801185Y-71253815D01*
X124704494Y-71174463D01*
X124594180Y-71115498D01*
X124474482Y-71079188D01*
X124350000Y-71066928D01*
X120850000Y-71066928D01*
X120725518Y-71079188D01*
X120605820Y-71115498D01*
X120495506Y-71174463D01*
X120398815Y-71253815D01*
X120319463Y-71350506D01*
X120260498Y-71460820D01*
X120224188Y-71580518D01*
X120211928Y-71705000D01*
X120211928Y-75205000D01*
X120224188Y-75329482D01*
X120260498Y-75449180D01*
X120319463Y-75559494D01*
X120398815Y-75656185D01*
X120495506Y-75735537D01*
X120605820Y-75794502D01*
X120725518Y-75830812D01*
X120850000Y-75843072D01*
X124350000Y-75843072D01*
X124474482Y-75830812D01*
X124594180Y-75794502D01*
X124704494Y-75735537D01*
X124801185Y-75656185D01*
X124880537Y-75559494D01*
X124939502Y-75449180D01*
X124975812Y-75329482D01*
X124988072Y-75205000D01*
X124988072Y-73286729D01*
X128440001Y-69834801D01*
X128440001Y-81940000D01*
X124214802Y-81940000D01*
X123420000Y-81145199D01*
X123420000Y-79782341D01*
X123550535Y-79695120D01*
X123745120Y-79500535D01*
X123898005Y-79271727D01*
X123930000Y-79194485D01*
X123961995Y-79271727D01*
X124114880Y-79500535D01*
X124309465Y-79695120D01*
X124538273Y-79848005D01*
X124792510Y-79953314D01*
X125062408Y-80007000D01*
X125337592Y-80007000D01*
X125607490Y-79953314D01*
X125861727Y-79848005D01*
X126090535Y-79695120D01*
X126285120Y-79500535D01*
X126438005Y-79271727D01*
X126543314Y-79017490D01*
X126597000Y-78747592D01*
X126597000Y-78472408D01*
X126543314Y-78202510D01*
X126438005Y-77948273D01*
X126285120Y-77719465D01*
X126090535Y-77524880D01*
X125861727Y-77371995D01*
X125607490Y-77266686D01*
X125337592Y-77213000D01*
X125062408Y-77213000D01*
X124792510Y-77266686D01*
X124538273Y-77371995D01*
X124309465Y-77524880D01*
X124114880Y-77719465D01*
X123961995Y-77948273D01*
X123930000Y-78025515D01*
X123898005Y-77948273D01*
X123745120Y-77719465D01*
X123550535Y-77524880D01*
X123321727Y-77371995D01*
X123067490Y-77266686D01*
X122797592Y-77213000D01*
X122522408Y-77213000D01*
X122252510Y-77266686D01*
X121998273Y-77371995D01*
X121769465Y-77524880D01*
X121574880Y-77719465D01*
X121421995Y-77948273D01*
X121392308Y-78019943D01*
X121387636Y-78006977D01*
X121325656Y-77891020D01*
X121085565Y-77824040D01*
X120299605Y-78610000D01*
X121085565Y-79395960D01*
X121325656Y-79328980D01*
X121389485Y-79193240D01*
X121421995Y-79271727D01*
X121574880Y-79500535D01*
X121769465Y-79695120D01*
X121900001Y-79782341D01*
X121900000Y-81422677D01*
X121896324Y-81460000D01*
X121900000Y-81497322D01*
X121900000Y-81497332D01*
X121910997Y-81608985D01*
X121949223Y-81735000D01*
X121954454Y-81752246D01*
X122025026Y-81884276D01*
X122039522Y-81901939D01*
X122119999Y-82000001D01*
X122149003Y-82023804D01*
X123336201Y-83211003D01*
X123359999Y-83240001D01*
X123475724Y-83334974D01*
X123607753Y-83405546D01*
X123751014Y-83449003D01*
X123862667Y-83460000D01*
X123862677Y-83460000D01*
X123900000Y-83463676D01*
X123937323Y-83460000D01*
X129140001Y-83460000D01*
X129140001Y-123540000D01*
X126875738Y-123540000D01*
X126882977Y-123535163D01*
X127185163Y-123232977D01*
X127422588Y-122877645D01*
X127586130Y-122482821D01*
X127669503Y-122063677D01*
X127669503Y-121636323D01*
X127586130Y-121217179D01*
X127422588Y-120822355D01*
X127185163Y-120467023D01*
X126882977Y-120164837D01*
X126527645Y-119927412D01*
X126132821Y-119763870D01*
X125713677Y-119680497D01*
X125286323Y-119680497D01*
X124867179Y-119763870D01*
X124472355Y-119927412D01*
X124117023Y-120164837D01*
X123814837Y-120467023D01*
X123577412Y-120822355D01*
X123413870Y-121217179D01*
X123330497Y-121636323D01*
X123330497Y-122063677D01*
X123413870Y-122482821D01*
X123577412Y-122877645D01*
X123814837Y-123232977D01*
X124117023Y-123535163D01*
X124124262Y-123540000D01*
X116022070Y-123540000D01*
X116034974Y-123524276D01*
X116105546Y-123392247D01*
X116149003Y-123248986D01*
X116160000Y-123137333D01*
X116160000Y-123137324D01*
X116163676Y-123100001D01*
X116160000Y-123062678D01*
X116160000Y-122582341D01*
X116290535Y-122495120D01*
X116485120Y-122300535D01*
X116638005Y-122071727D01*
X116743314Y-121817490D01*
X116797000Y-121547592D01*
X116797000Y-121272408D01*
X116743314Y-121002510D01*
X116638005Y-120748273D01*
X116485120Y-120519465D01*
X116290535Y-120324880D01*
X116061727Y-120171995D01*
X115807490Y-120066686D01*
X115537592Y-120013000D01*
X115262408Y-120013000D01*
X114992510Y-120066686D01*
X114738273Y-120171995D01*
X114509465Y-120324880D01*
X114314880Y-120519465D01*
X114161995Y-120748273D01*
X114130000Y-120825515D01*
X114098005Y-120748273D01*
X113945120Y-120519465D01*
X113750535Y-120324880D01*
X113620000Y-120237659D01*
X113620000Y-113997323D01*
X113623676Y-113960000D01*
X113620000Y-113922677D01*
X113620000Y-113922667D01*
X113609003Y-113811014D01*
X113565546Y-113667753D01*
X113494975Y-113535725D01*
X113494974Y-113535723D01*
X113423799Y-113448997D01*
X113400001Y-113419999D01*
X113371004Y-113396202D01*
X103913804Y-103939003D01*
X103890001Y-103909999D01*
X103774276Y-103815026D01*
X103642247Y-103744454D01*
X103498986Y-103700997D01*
X103387333Y-103690000D01*
X103387322Y-103690000D01*
X103350000Y-103686324D01*
X103312678Y-103690000D01*
X102234702Y-103690000D01*
X102163405Y-103556614D01*
X102052962Y-103422038D01*
X101918386Y-103311595D01*
X101764850Y-103229528D01*
X101598254Y-103178992D01*
X101425000Y-103161928D01*
X100586730Y-103161928D01*
X98860000Y-101435199D01*
X98860000Y-100398061D01*
X100265000Y-100398061D01*
X100265000Y-100601939D01*
X100304774Y-100801898D01*
X100382795Y-100990256D01*
X100496063Y-101159774D01*
X100640226Y-101303937D01*
X100809744Y-101417205D01*
X100998102Y-101495226D01*
X101198061Y-101535000D01*
X101401939Y-101535000D01*
X101601898Y-101495226D01*
X101790256Y-101417205D01*
X101959774Y-101303937D01*
X102003711Y-101260000D01*
X114662678Y-101260000D01*
X114700000Y-101263676D01*
X114737322Y-101260000D01*
X114737333Y-101260000D01*
X114848986Y-101249003D01*
X114992247Y-101205546D01*
X115124276Y-101134974D01*
X115240001Y-101040001D01*
X115263804Y-101010997D01*
X115360998Y-100913803D01*
X115390001Y-100890001D01*
X115484974Y-100774276D01*
X115555546Y-100642247D01*
X115599003Y-100498986D01*
X115610000Y-100387333D01*
X115610000Y-100387324D01*
X115613676Y-100350001D01*
X115610000Y-100312678D01*
X115610000Y-93568313D01*
X115828505Y-93422312D01*
X116042312Y-93208505D01*
X116120000Y-93092237D01*
X116197688Y-93208505D01*
X116411495Y-93422312D01*
X116662905Y-93590299D01*
X116942257Y-93706011D01*
X117238816Y-93765000D01*
X117541184Y-93765000D01*
X117837743Y-93706011D01*
X118117095Y-93590299D01*
X118368505Y-93422312D01*
X118496737Y-93294080D01*
X119045525Y-93294080D01*
X119129208Y-93548261D01*
X119401775Y-93679158D01*
X119694642Y-93754365D01*
X119996553Y-93770991D01*
X120295907Y-93728397D01*
X120581199Y-93628222D01*
X120730792Y-93548261D01*
X120814475Y-93294080D01*
X119930000Y-92409605D01*
X119045525Y-93294080D01*
X118496737Y-93294080D01*
X118582312Y-93208505D01*
X118684951Y-93054895D01*
X118865920Y-93114475D01*
X119750395Y-92230000D01*
X120109605Y-92230000D01*
X120994080Y-93114475D01*
X121248261Y-93030792D01*
X121379158Y-92758225D01*
X121454365Y-92465358D01*
X121470991Y-92163447D01*
X121428397Y-91864093D01*
X121328222Y-91578801D01*
X121248261Y-91429208D01*
X120994080Y-91345525D01*
X120109605Y-92230000D01*
X119750395Y-92230000D01*
X118865920Y-91345525D01*
X118684951Y-91405105D01*
X118582312Y-91251495D01*
X118496737Y-91165920D01*
X119045525Y-91165920D01*
X119930000Y-92050395D01*
X120814475Y-91165920D01*
X120730792Y-90911739D01*
X120458225Y-90780842D01*
X120165358Y-90705635D01*
X119863447Y-90689009D01*
X119564093Y-90731603D01*
X119278801Y-90831778D01*
X119129208Y-90911739D01*
X119045525Y-91165920D01*
X118496737Y-91165920D01*
X118368505Y-91037688D01*
X118117095Y-90869701D01*
X117837743Y-90753989D01*
X117541184Y-90695000D01*
X117238816Y-90695000D01*
X116942257Y-90753989D01*
X116662905Y-90869701D01*
X116411495Y-91037688D01*
X116197688Y-91251495D01*
X116120000Y-91367763D01*
X116042312Y-91251495D01*
X115828505Y-91037688D01*
X115577095Y-90869701D01*
X115297743Y-90753989D01*
X115001184Y-90695000D01*
X114698816Y-90695000D01*
X114402257Y-90753989D01*
X114122905Y-90869701D01*
X113871495Y-91037688D01*
X113657688Y-91251495D01*
X113580000Y-91367763D01*
X113502312Y-91251495D01*
X113288505Y-91037688D01*
X113070000Y-90891687D01*
X113070000Y-87636323D01*
X123330497Y-87636323D01*
X123330497Y-88063677D01*
X123413870Y-88482821D01*
X123577412Y-88877645D01*
X123814837Y-89232977D01*
X124117023Y-89535163D01*
X124472355Y-89772588D01*
X124867179Y-89936130D01*
X125286323Y-90019503D01*
X125713677Y-90019503D01*
X126132821Y-89936130D01*
X126527645Y-89772588D01*
X126882977Y-89535163D01*
X127185163Y-89232977D01*
X127422588Y-88877645D01*
X127586130Y-88482821D01*
X127669503Y-88063677D01*
X127669503Y-87636323D01*
X127586130Y-87217179D01*
X127422588Y-86822355D01*
X127185163Y-86467023D01*
X126882977Y-86164837D01*
X126527645Y-85927412D01*
X126132821Y-85763870D01*
X125713677Y-85680497D01*
X125286323Y-85680497D01*
X124867179Y-85763870D01*
X124472355Y-85927412D01*
X124117023Y-86164837D01*
X123814837Y-86467023D01*
X123577412Y-86822355D01*
X123413870Y-87217179D01*
X123330497Y-87636323D01*
X113070000Y-87636323D01*
X113070000Y-87147333D01*
X113073677Y-87110000D01*
X113059003Y-86961014D01*
X113015546Y-86817753D01*
X112944974Y-86685724D01*
X112873799Y-86598997D01*
X112850001Y-86569999D01*
X112821004Y-86546202D01*
X109560000Y-83285199D01*
X109560000Y-81403711D01*
X109603937Y-81359774D01*
X109717205Y-81190256D01*
X109795226Y-81001898D01*
X109835000Y-80801939D01*
X109835000Y-80598061D01*
X109795226Y-80398102D01*
X109717205Y-80209744D01*
X109603937Y-80040226D01*
X109459774Y-79896063D01*
X109290256Y-79782795D01*
X109101898Y-79704774D01*
X108901939Y-79665000D01*
X108698061Y-79665000D01*
X108498102Y-79704774D01*
X108309744Y-79782795D01*
X108140226Y-79896063D01*
X107996063Y-80040226D01*
X107882795Y-80209744D01*
X107804774Y-80398102D01*
X107765000Y-80598061D01*
X107765000Y-80801939D01*
X107804774Y-81001898D01*
X107882795Y-81190256D01*
X107996063Y-81359774D01*
X108040000Y-81403711D01*
X108040001Y-83562668D01*
X108036324Y-83600000D01*
X108050998Y-83748985D01*
X108094454Y-83892246D01*
X108165026Y-84024276D01*
X108236201Y-84111002D01*
X108260000Y-84140001D01*
X108288998Y-84163799D01*
X111550000Y-87424802D01*
X111550001Y-90891687D01*
X111331495Y-91037688D01*
X111117688Y-91251495D01*
X111040000Y-91367763D01*
X110962312Y-91251495D01*
X110748505Y-91037688D01*
X110497095Y-90869701D01*
X110217743Y-90753989D01*
X109921184Y-90695000D01*
X109618816Y-90695000D01*
X109322257Y-90753989D01*
X109042905Y-90869701D01*
X108791495Y-91037688D01*
X108577688Y-91251495D01*
X108500000Y-91367763D01*
X108422312Y-91251495D01*
X108208505Y-91037688D01*
X107957095Y-90869701D01*
X107677743Y-90753989D01*
X107381184Y-90695000D01*
X107078816Y-90695000D01*
X106782257Y-90753989D01*
X106502905Y-90869701D01*
X106251495Y-91037688D01*
X106037688Y-91251495D01*
X105869701Y-91502905D01*
X105753989Y-91782257D01*
X105695000Y-92078816D01*
X105695000Y-92381184D01*
X105753989Y-92677743D01*
X105869701Y-92957095D01*
X106037688Y-93208505D01*
X106251495Y-93422312D01*
X106502905Y-93590299D01*
X106782257Y-93706011D01*
X107078816Y-93765000D01*
X107381184Y-93765000D01*
X107677743Y-93706011D01*
X107957095Y-93590299D01*
X108208505Y-93422312D01*
X108422312Y-93208505D01*
X108500000Y-93092237D01*
X108577688Y-93208505D01*
X108791495Y-93422312D01*
X109042905Y-93590299D01*
X109322257Y-93706011D01*
X109618816Y-93765000D01*
X109921184Y-93765000D01*
X110217743Y-93706011D01*
X110497095Y-93590299D01*
X110748505Y-93422312D01*
X110962312Y-93208505D01*
X111040000Y-93092237D01*
X111117688Y-93208505D01*
X111331495Y-93422312D01*
X111582905Y-93590299D01*
X111862257Y-93706011D01*
X112158816Y-93765000D01*
X112461184Y-93765000D01*
X112757743Y-93706011D01*
X113037095Y-93590299D01*
X113288505Y-93422312D01*
X113502312Y-93208505D01*
X113580000Y-93092237D01*
X113657688Y-93208505D01*
X113871495Y-93422312D01*
X114090001Y-93568313D01*
X114090000Y-99740000D01*
X102003711Y-99740000D01*
X101959774Y-99696063D01*
X101790256Y-99582795D01*
X101601898Y-99504774D01*
X101401939Y-99465000D01*
X101198061Y-99465000D01*
X100998102Y-99504774D01*
X100809744Y-99582795D01*
X100640226Y-99696063D01*
X100496063Y-99840226D01*
X100382795Y-100009744D01*
X100304774Y-100198102D01*
X100265000Y-100398061D01*
X98860000Y-100398061D01*
X98860000Y-87636323D01*
X99330497Y-87636323D01*
X99330497Y-88063677D01*
X99413870Y-88482821D01*
X99577412Y-88877645D01*
X99814837Y-89232977D01*
X100117023Y-89535163D01*
X100472355Y-89772588D01*
X100867179Y-89936130D01*
X101286323Y-90019503D01*
X101713677Y-90019503D01*
X102132821Y-89936130D01*
X102527645Y-89772588D01*
X102882977Y-89535163D01*
X103185163Y-89232977D01*
X103422588Y-88877645D01*
X103586130Y-88482821D01*
X103669503Y-88063677D01*
X103669503Y-87636323D01*
X103586130Y-87217179D01*
X103422588Y-86822355D01*
X103185163Y-86467023D01*
X102882977Y-86164837D01*
X102527645Y-85927412D01*
X102132821Y-85763870D01*
X101713677Y-85680497D01*
X101286323Y-85680497D01*
X100867179Y-85763870D01*
X100472355Y-85927412D01*
X100117023Y-86164837D01*
X99814837Y-86467023D01*
X99577412Y-86822355D01*
X99413870Y-87217179D01*
X99330497Y-87636323D01*
X98860000Y-87636323D01*
X98860000Y-86714801D01*
X104871003Y-80703799D01*
X104900001Y-80680001D01*
X104936954Y-80634974D01*
X104994974Y-80564277D01*
X105065546Y-80432247D01*
X105072976Y-80407753D01*
X105109003Y-80288986D01*
X105120000Y-80177333D01*
X105120000Y-80177323D01*
X105123676Y-80140000D01*
X105120000Y-80102677D01*
X105120000Y-79782341D01*
X105250535Y-79695120D01*
X105445120Y-79500535D01*
X105598005Y-79271727D01*
X105630000Y-79194485D01*
X105661995Y-79271727D01*
X105814880Y-79500535D01*
X106009465Y-79695120D01*
X106238273Y-79848005D01*
X106492510Y-79953314D01*
X106762408Y-80007000D01*
X107037592Y-80007000D01*
X107307490Y-79953314D01*
X107561727Y-79848005D01*
X107790535Y-79695120D01*
X107910090Y-79575565D01*
X110134040Y-79575565D01*
X110201020Y-79815656D01*
X110450048Y-79932756D01*
X110717135Y-79999023D01*
X110992017Y-80011910D01*
X111264133Y-79970922D01*
X111523023Y-79877636D01*
X111638980Y-79815656D01*
X111705960Y-79575565D01*
X110920000Y-78789605D01*
X110134040Y-79575565D01*
X107910090Y-79575565D01*
X107985120Y-79500535D01*
X108138005Y-79271727D01*
X108243314Y-79017490D01*
X108297000Y-78747592D01*
X108297000Y-78682017D01*
X109518090Y-78682017D01*
X109559078Y-78954133D01*
X109652364Y-79213023D01*
X109714344Y-79328980D01*
X109954435Y-79395960D01*
X110740395Y-78610000D01*
X111099605Y-78610000D01*
X111885565Y-79395960D01*
X112125656Y-79328980D01*
X112189485Y-79193240D01*
X112221995Y-79271727D01*
X112374880Y-79500535D01*
X112569465Y-79695120D01*
X112798273Y-79848005D01*
X113052510Y-79953314D01*
X113322408Y-80007000D01*
X113597592Y-80007000D01*
X113867490Y-79953314D01*
X114121727Y-79848005D01*
X114350535Y-79695120D01*
X114545120Y-79500535D01*
X114698005Y-79271727D01*
X114730000Y-79194485D01*
X114761995Y-79271727D01*
X114914880Y-79500535D01*
X115109465Y-79695120D01*
X115338273Y-79848005D01*
X115592510Y-79953314D01*
X115862408Y-80007000D01*
X116137592Y-80007000D01*
X116407490Y-79953314D01*
X116661727Y-79848005D01*
X116890535Y-79695120D01*
X117085120Y-79500535D01*
X117238005Y-79271727D01*
X117343314Y-79017490D01*
X117397000Y-78747592D01*
X117397000Y-78472408D01*
X117343314Y-78202510D01*
X117238005Y-77948273D01*
X117085120Y-77719465D01*
X116890535Y-77524880D01*
X116661727Y-77371995D01*
X116407490Y-77266686D01*
X116137592Y-77213000D01*
X115862408Y-77213000D01*
X115592510Y-77266686D01*
X115338273Y-77371995D01*
X115109465Y-77524880D01*
X114914880Y-77719465D01*
X114761995Y-77948273D01*
X114730000Y-78025515D01*
X114698005Y-77948273D01*
X114545120Y-77719465D01*
X114350535Y-77524880D01*
X114121727Y-77371995D01*
X113867490Y-77266686D01*
X113597592Y-77213000D01*
X113322408Y-77213000D01*
X113052510Y-77266686D01*
X112798273Y-77371995D01*
X112569465Y-77524880D01*
X112374880Y-77719465D01*
X112221995Y-77948273D01*
X112192308Y-78019943D01*
X112187636Y-78006977D01*
X112125656Y-77891020D01*
X111885565Y-77824040D01*
X111099605Y-78610000D01*
X110740395Y-78610000D01*
X109954435Y-77824040D01*
X109714344Y-77891020D01*
X109597244Y-78140048D01*
X109530977Y-78407135D01*
X109518090Y-78682017D01*
X108297000Y-78682017D01*
X108297000Y-78472408D01*
X108243314Y-78202510D01*
X108138005Y-77948273D01*
X107985120Y-77719465D01*
X107910090Y-77644435D01*
X110134040Y-77644435D01*
X110920000Y-78430395D01*
X111705960Y-77644435D01*
X111638980Y-77404344D01*
X111389952Y-77287244D01*
X111122865Y-77220977D01*
X110847983Y-77208090D01*
X110575867Y-77249078D01*
X110316977Y-77342364D01*
X110201020Y-77404344D01*
X110134040Y-77644435D01*
X107910090Y-77644435D01*
X107790535Y-77524880D01*
X107660000Y-77437659D01*
X107660000Y-62537322D01*
X107663676Y-62499999D01*
X107660000Y-62462676D01*
X107660000Y-62462667D01*
X107649003Y-62351014D01*
X107605546Y-62207753D01*
X107534974Y-62075724D01*
X107490413Y-62021426D01*
X107463799Y-61988996D01*
X107463795Y-61988992D01*
X107440001Y-61959999D01*
X107411008Y-61936205D01*
X106135000Y-60660198D01*
X106135000Y-60598061D01*
X106095226Y-60398102D01*
X106017205Y-60209744D01*
X105903937Y-60040226D01*
X105759774Y-59896063D01*
X105615284Y-59799518D01*
X107776983Y-57637819D01*
X107765000Y-57698061D01*
X107765000Y-57901939D01*
X107804774Y-58101898D01*
X107882795Y-58290256D01*
X107996063Y-58459774D01*
X108140001Y-58603712D01*
X108140000Y-68496289D01*
X108096063Y-68540226D01*
X107982795Y-68709744D01*
X107904774Y-68898102D01*
X107865000Y-69098061D01*
X107865000Y-69301939D01*
X107904774Y-69501898D01*
X107982795Y-69690256D01*
X108096063Y-69859774D01*
X108240226Y-70003937D01*
X108409744Y-70117205D01*
X108598102Y-70195226D01*
X108798061Y-70235000D01*
X109001939Y-70235000D01*
X109201898Y-70195226D01*
X109390256Y-70117205D01*
X109559774Y-70003937D01*
X109703937Y-69859774D01*
X109817205Y-69690256D01*
X109895226Y-69501898D01*
X109935000Y-69301939D01*
X109935000Y-69098061D01*
X109895226Y-68898102D01*
X109817205Y-68709744D01*
X109703937Y-68540226D01*
X109660000Y-68496289D01*
X109660000Y-58375870D01*
X109717205Y-58290256D01*
X109795226Y-58101898D01*
X109835000Y-57901939D01*
X109835000Y-57698061D01*
X109795226Y-57498102D01*
X109717205Y-57309744D01*
X109603937Y-57140226D01*
X109459774Y-56996063D01*
X109290256Y-56882795D01*
X109101898Y-56804774D01*
X108901939Y-56765000D01*
X108698061Y-56765000D01*
X108637819Y-56776983D01*
X110015000Y-55399802D01*
X110014999Y-73137677D01*
X110011323Y-73174999D01*
X110014999Y-73212321D01*
X110014999Y-73212331D01*
X110025996Y-73323984D01*
X110049055Y-73400000D01*
X110069453Y-73467245D01*
X110140025Y-73599275D01*
X110148617Y-73609744D01*
X110234998Y-73715000D01*
X110264002Y-73738803D01*
X112236200Y-75711002D01*
X112259999Y-75740001D01*
X112288997Y-75763799D01*
X112375723Y-75834974D01*
X112497375Y-75899999D01*
X112507753Y-75905546D01*
X112651014Y-75949003D01*
X112762667Y-75960000D01*
X112762677Y-75960000D01*
X112800000Y-75963676D01*
X112837323Y-75960000D01*
X116785199Y-75960000D01*
X117440001Y-76614803D01*
X117440000Y-82996289D01*
X117396063Y-83040226D01*
X117282795Y-83209744D01*
X117204774Y-83398102D01*
X117165000Y-83598061D01*
X117165000Y-83801939D01*
X117204774Y-84001898D01*
X117282795Y-84190256D01*
X117396063Y-84359774D01*
X117540226Y-84503937D01*
X117709744Y-84617205D01*
X117898102Y-84695226D01*
X118098061Y-84735000D01*
X118301939Y-84735000D01*
X118501898Y-84695226D01*
X118690256Y-84617205D01*
X118859774Y-84503937D01*
X119003937Y-84359774D01*
X119117205Y-84190256D01*
X119195226Y-84001898D01*
X119235000Y-83801939D01*
X119235000Y-83598061D01*
X119195226Y-83398102D01*
X119117205Y-83209744D01*
X119003937Y-83040226D01*
X118960000Y-82996289D01*
X118960000Y-79575565D01*
X119334040Y-79575565D01*
X119401020Y-79815656D01*
X119650048Y-79932756D01*
X119917135Y-79999023D01*
X120192017Y-80011910D01*
X120464133Y-79970922D01*
X120723023Y-79877636D01*
X120838980Y-79815656D01*
X120905960Y-79575565D01*
X120120000Y-78789605D01*
X119334040Y-79575565D01*
X118960000Y-79575565D01*
X118960000Y-79341717D01*
X119154435Y-79395960D01*
X119940395Y-78610000D01*
X119154435Y-77824040D01*
X118960000Y-77878283D01*
X118960000Y-77644435D01*
X119334040Y-77644435D01*
X120120000Y-78430395D01*
X120905960Y-77644435D01*
X120838980Y-77404344D01*
X120589952Y-77287244D01*
X120322865Y-77220977D01*
X120047983Y-77208090D01*
X119775867Y-77249078D01*
X119516977Y-77342364D01*
X119401020Y-77404344D01*
X119334040Y-77644435D01*
X118960000Y-77644435D01*
X118960000Y-76337323D01*
X118963676Y-76300000D01*
X118960000Y-76262677D01*
X118960000Y-76262667D01*
X118949003Y-76151014D01*
X118905546Y-76007753D01*
X118874143Y-75949003D01*
X118834974Y-75875723D01*
X118763799Y-75788997D01*
X118740001Y-75759999D01*
X118711003Y-75736201D01*
X117663804Y-74689002D01*
X117640001Y-74659999D01*
X117524276Y-74565026D01*
X117392247Y-74494454D01*
X117248986Y-74450997D01*
X117137333Y-74440000D01*
X117137322Y-74440000D01*
X117100000Y-74436324D01*
X117062678Y-74440000D01*
X113114802Y-74440000D01*
X111534999Y-72860198D01*
X111534999Y-71800000D01*
X113161928Y-71800000D01*
X113161928Y-73400000D01*
X113174188Y-73524482D01*
X113210498Y-73644180D01*
X113269463Y-73754494D01*
X113348815Y-73851185D01*
X113445506Y-73930537D01*
X113555820Y-73989502D01*
X113675518Y-74025812D01*
X113800000Y-74038072D01*
X115400000Y-74038072D01*
X115524482Y-74025812D01*
X115644180Y-73989502D01*
X115754494Y-73930537D01*
X115851185Y-73851185D01*
X115930537Y-73754494D01*
X115989502Y-73644180D01*
X116025812Y-73524482D01*
X116038072Y-73400000D01*
X116038072Y-71800000D01*
X116025812Y-71675518D01*
X115989502Y-71555820D01*
X115930537Y-71445506D01*
X115851185Y-71348815D01*
X115754494Y-71269463D01*
X115644180Y-71210498D01*
X115524482Y-71174188D01*
X115516039Y-71173357D01*
X115714637Y-70974759D01*
X115871680Y-70739727D01*
X115979853Y-70478574D01*
X116035000Y-70201335D01*
X116035000Y-69918665D01*
X115979853Y-69641426D01*
X115871680Y-69380273D01*
X115714637Y-69145241D01*
X115514759Y-68945363D01*
X115282241Y-68790000D01*
X115514759Y-68634637D01*
X115679816Y-68469580D01*
X119510025Y-68469580D01*
X119966197Y-69041185D01*
X120766183Y-69481207D01*
X121636641Y-69756704D01*
X122544121Y-69857091D01*
X123453748Y-69778508D01*
X124330566Y-69523975D01*
X125140879Y-69103275D01*
X125233803Y-69041185D01*
X125689975Y-68469580D01*
X122600000Y-65379605D01*
X119510025Y-68469580D01*
X115679816Y-68469580D01*
X115714637Y-68434759D01*
X115871680Y-68199727D01*
X115979853Y-67938574D01*
X116035000Y-67661335D01*
X116035000Y-67378665D01*
X115979853Y-67101426D01*
X115871680Y-66840273D01*
X115714637Y-66605241D01*
X115514759Y-66405363D01*
X115279727Y-66248320D01*
X115269135Y-66243933D01*
X115455131Y-66132385D01*
X115663519Y-65943414D01*
X115831037Y-65717420D01*
X115951246Y-65463087D01*
X115991904Y-65329039D01*
X115890310Y-65144121D01*
X117942909Y-65144121D01*
X118021492Y-66053748D01*
X118276025Y-66930566D01*
X118696725Y-67740879D01*
X118758815Y-67833803D01*
X119330420Y-68289975D01*
X122420395Y-65200000D01*
X122779605Y-65200000D01*
X125869580Y-68289975D01*
X126441185Y-67833803D01*
X126881207Y-67033817D01*
X127156704Y-66163359D01*
X127257091Y-65255879D01*
X127178508Y-64346252D01*
X126923975Y-63469434D01*
X126503275Y-62659121D01*
X126441185Y-62566197D01*
X125869580Y-62110025D01*
X122779605Y-65200000D01*
X122420395Y-65200000D01*
X119330420Y-62110025D01*
X118758815Y-62566197D01*
X118318793Y-63366183D01*
X118043296Y-64236641D01*
X117942909Y-65144121D01*
X115890310Y-65144121D01*
X115869915Y-65107000D01*
X114727000Y-65107000D01*
X114727000Y-65127000D01*
X114473000Y-65127000D01*
X114473000Y-65107000D01*
X113330085Y-65107000D01*
X113208096Y-65329039D01*
X113248754Y-65463087D01*
X113368963Y-65717420D01*
X113536481Y-65943414D01*
X113744869Y-66132385D01*
X113930865Y-66243933D01*
X113920273Y-66248320D01*
X113685241Y-66405363D01*
X113485363Y-66605241D01*
X113328320Y-66840273D01*
X113220147Y-67101426D01*
X113165000Y-67378665D01*
X113165000Y-67661335D01*
X113220147Y-67938574D01*
X113328320Y-68199727D01*
X113485363Y-68434759D01*
X113685241Y-68634637D01*
X113917759Y-68790000D01*
X113685241Y-68945363D01*
X113485363Y-69145241D01*
X113328320Y-69380273D01*
X113220147Y-69641426D01*
X113165000Y-69918665D01*
X113165000Y-70201335D01*
X113220147Y-70478574D01*
X113328320Y-70739727D01*
X113485363Y-70974759D01*
X113683961Y-71173357D01*
X113675518Y-71174188D01*
X113555820Y-71210498D01*
X113445506Y-71269463D01*
X113348815Y-71348815D01*
X113269463Y-71445506D01*
X113210498Y-71555820D01*
X113174188Y-71675518D01*
X113161928Y-71800000D01*
X111534999Y-71800000D01*
X111534999Y-50435000D01*
X111601939Y-50435000D01*
X111801898Y-50395226D01*
X111990256Y-50317205D01*
X112159774Y-50203937D01*
X112303937Y-50059774D01*
X112417205Y-49890256D01*
X112495226Y-49701898D01*
X112535000Y-49501939D01*
X112535000Y-49439802D01*
X112599803Y-49374999D01*
X113209491Y-49374999D01*
X113165000Y-49598665D01*
X113165000Y-49881335D01*
X113220147Y-50158574D01*
X113328320Y-50419727D01*
X113485363Y-50654759D01*
X113685241Y-50854637D01*
X113917759Y-51010000D01*
X113685241Y-51165363D01*
X113485363Y-51365241D01*
X113328320Y-51600273D01*
X113220147Y-51861426D01*
X113165000Y-52138665D01*
X113165000Y-52421335D01*
X113220147Y-52698574D01*
X113328320Y-52959727D01*
X113485363Y-53194759D01*
X113685241Y-53394637D01*
X113917759Y-53550000D01*
X113685241Y-53705363D01*
X113485363Y-53905241D01*
X113328320Y-54140273D01*
X113220147Y-54401426D01*
X113165000Y-54678665D01*
X113165000Y-54961335D01*
X113220147Y-55238574D01*
X113328320Y-55499727D01*
X113485363Y-55734759D01*
X113685241Y-55934637D01*
X113917759Y-56090000D01*
X113685241Y-56245363D01*
X113485363Y-56445241D01*
X113328320Y-56680273D01*
X113220147Y-56941426D01*
X113165000Y-57218665D01*
X113165000Y-57501335D01*
X113220147Y-57778574D01*
X113328320Y-58039727D01*
X113485363Y-58274759D01*
X113685241Y-58474637D01*
X113917759Y-58630000D01*
X113685241Y-58785363D01*
X113485363Y-58985241D01*
X113328320Y-59220273D01*
X113220147Y-59481426D01*
X113165000Y-59758665D01*
X113165000Y-60041335D01*
X113220147Y-60318574D01*
X113328320Y-60579727D01*
X113485363Y-60814759D01*
X113685241Y-61014637D01*
X113917759Y-61170000D01*
X113685241Y-61325363D01*
X113485363Y-61525241D01*
X113328320Y-61760273D01*
X113220147Y-62021426D01*
X113165000Y-62298665D01*
X113165000Y-62581335D01*
X113220147Y-62858574D01*
X113328320Y-63119727D01*
X113485363Y-63354759D01*
X113685241Y-63554637D01*
X113920273Y-63711680D01*
X113930865Y-63716067D01*
X113744869Y-63827615D01*
X113536481Y-64016586D01*
X113368963Y-64242580D01*
X113248754Y-64496913D01*
X113208096Y-64630961D01*
X113330085Y-64853000D01*
X114473000Y-64853000D01*
X114473000Y-64833000D01*
X114727000Y-64833000D01*
X114727000Y-64853000D01*
X115869915Y-64853000D01*
X115991904Y-64630961D01*
X115951246Y-64496913D01*
X115831037Y-64242580D01*
X115663519Y-64016586D01*
X115455131Y-63827615D01*
X115269135Y-63716067D01*
X115279727Y-63711680D01*
X115514759Y-63554637D01*
X115714637Y-63354759D01*
X115871680Y-63119727D01*
X115979853Y-62858574D01*
X116035000Y-62581335D01*
X116035000Y-62298665D01*
X115979853Y-62021426D01*
X115942158Y-61930420D01*
X119510025Y-61930420D01*
X122600000Y-65020395D01*
X125689975Y-61930420D01*
X125233803Y-61358815D01*
X124433817Y-60918793D01*
X123563359Y-60643296D01*
X122655879Y-60542909D01*
X121746252Y-60621492D01*
X120869434Y-60876025D01*
X120059121Y-61296725D01*
X119966197Y-61358815D01*
X119510025Y-61930420D01*
X115942158Y-61930420D01*
X115871680Y-61760273D01*
X115714637Y-61525241D01*
X115514759Y-61325363D01*
X115282241Y-61170000D01*
X115514759Y-61014637D01*
X115714637Y-60814759D01*
X115871680Y-60579727D01*
X115979853Y-60318574D01*
X116035000Y-60041335D01*
X116035000Y-59758665D01*
X115979853Y-59481426D01*
X115871680Y-59220273D01*
X115714637Y-58985241D01*
X115514759Y-58785363D01*
X115282241Y-58630000D01*
X115514759Y-58474637D01*
X115714637Y-58274759D01*
X115871680Y-58039727D01*
X115979853Y-57778574D01*
X116035000Y-57501335D01*
X116035000Y-57218665D01*
X115979853Y-56941426D01*
X115871680Y-56680273D01*
X115714637Y-56445241D01*
X115514759Y-56245363D01*
X115282241Y-56090000D01*
X115514759Y-55934637D01*
X115714637Y-55734759D01*
X115871680Y-55499727D01*
X115979853Y-55238574D01*
X116035000Y-54961335D01*
X116035000Y-54678665D01*
X115979853Y-54401426D01*
X115871680Y-54140273D01*
X115714637Y-53905241D01*
X115514759Y-53705363D01*
X115282241Y-53550000D01*
X115514759Y-53394637D01*
X115714637Y-53194759D01*
X115871680Y-52959727D01*
X115979853Y-52698574D01*
X116035000Y-52421335D01*
X116035000Y-52138665D01*
X115979853Y-51861426D01*
X115871680Y-51600273D01*
X115714637Y-51365241D01*
X115514759Y-51165363D01*
X115282241Y-51010000D01*
X115514759Y-50854637D01*
X115714637Y-50654759D01*
X115871680Y-50419727D01*
X115979853Y-50158574D01*
X116035000Y-49881335D01*
X116035000Y-49598665D01*
X115979853Y-49321426D01*
X115960955Y-49275802D01*
X116009277Y-49249973D01*
X116125002Y-49155000D01*
X116148805Y-49125997D01*
X116662845Y-48611956D01*
X116650997Y-48651015D01*
G37*
%TD.AperFunction*%
D23*
X112100000Y-114274802D02*
X112100001Y-120237659D01*
X111969465Y-120324880D01*
X111774880Y-120519465D01*
X111621995Y-120748273D01*
X111592308Y-120819943D01*
X111587636Y-120806977D01*
X111525656Y-120691020D01*
X111285565Y-120624040D01*
X110499605Y-121410000D01*
X111285565Y-122195960D01*
X111525656Y-122128980D01*
X111589485Y-121993240D01*
X111621995Y-122071727D01*
X111774880Y-122300535D01*
X111969465Y-122495120D01*
X112198273Y-122648005D01*
X112420367Y-122740000D01*
X110749949Y-122740000D01*
X110923023Y-122677636D01*
X111038980Y-122615656D01*
X111105960Y-122375565D01*
X110320000Y-121589605D01*
X109534040Y-122375565D01*
X109601020Y-122615656D01*
X109850048Y-122732756D01*
X109879245Y-122740000D01*
X107614802Y-122740000D01*
X106356819Y-121482017D01*
X108918090Y-121482017D01*
X108959078Y-121754133D01*
X109052364Y-122013023D01*
X109114344Y-122128980D01*
X109354435Y-122195960D01*
X110140395Y-121410000D01*
X109354435Y-120624040D01*
X109114344Y-120691020D01*
X108997244Y-120940048D01*
X108930977Y-121207135D01*
X108918090Y-121482017D01*
X106356819Y-121482017D01*
X105319237Y-120444435D01*
X109534040Y-120444435D01*
X110320000Y-121230395D01*
X111105960Y-120444435D01*
X111038980Y-120204344D01*
X110789952Y-120087244D01*
X110522865Y-120020977D01*
X110247983Y-120008090D01*
X109975867Y-120049078D01*
X109716977Y-120142364D01*
X109601020Y-120204344D01*
X109534040Y-120444435D01*
X105319237Y-120444435D01*
X101560000Y-116685199D01*
X101560000Y-108824776D01*
X101598254Y-108821008D01*
X101764850Y-108770472D01*
X101918386Y-108688405D01*
X102052962Y-108577962D01*
X102163405Y-108443386D01*
X102234702Y-108310000D01*
X102812678Y-108310000D01*
X102850000Y-108313676D01*
X102887322Y-108310000D01*
X102887333Y-108310000D01*
X102998986Y-108299003D01*
X103142247Y-108255546D01*
X103274276Y-108184974D01*
X103390001Y-108090001D01*
X103413803Y-108060998D01*
X103739801Y-107735000D01*
X103801939Y-107735000D01*
X104001898Y-107695226D01*
X104190256Y-107617205D01*
X104359774Y-107503937D01*
X104503937Y-107359774D01*
X104617205Y-107190256D01*
X104695226Y-107001898D01*
X104717105Y-106891906D01*
X112100000Y-114274802D01*
%TA.AperFunction,Conductor*%
D24*
G36*
X112100000Y-114274802D02*
G01*
X112100001Y-120237659D01*
X111969465Y-120324880D01*
X111774880Y-120519465D01*
X111621995Y-120748273D01*
X111592308Y-120819943D01*
X111587636Y-120806977D01*
X111525656Y-120691020D01*
X111285565Y-120624040D01*
X110499605Y-121410000D01*
X111285565Y-122195960D01*
X111525656Y-122128980D01*
X111589485Y-121993240D01*
X111621995Y-122071727D01*
X111774880Y-122300535D01*
X111969465Y-122495120D01*
X112198273Y-122648005D01*
X112420367Y-122740000D01*
X110749949Y-122740000D01*
X110923023Y-122677636D01*
X111038980Y-122615656D01*
X111105960Y-122375565D01*
X110320000Y-121589605D01*
X109534040Y-122375565D01*
X109601020Y-122615656D01*
X109850048Y-122732756D01*
X109879245Y-122740000D01*
X107614802Y-122740000D01*
X106356819Y-121482017D01*
X108918090Y-121482017D01*
X108959078Y-121754133D01*
X109052364Y-122013023D01*
X109114344Y-122128980D01*
X109354435Y-122195960D01*
X110140395Y-121410000D01*
X109354435Y-120624040D01*
X109114344Y-120691020D01*
X108997244Y-120940048D01*
X108930977Y-121207135D01*
X108918090Y-121482017D01*
X106356819Y-121482017D01*
X105319237Y-120444435D01*
X109534040Y-120444435D01*
X110320000Y-121230395D01*
X111105960Y-120444435D01*
X111038980Y-120204344D01*
X110789952Y-120087244D01*
X110522865Y-120020977D01*
X110247983Y-120008090D01*
X109975867Y-120049078D01*
X109716977Y-120142364D01*
X109601020Y-120204344D01*
X109534040Y-120444435D01*
X105319237Y-120444435D01*
X101560000Y-116685199D01*
X101560000Y-108824776D01*
X101598254Y-108821008D01*
X101764850Y-108770472D01*
X101918386Y-108688405D01*
X102052962Y-108577962D01*
X102163405Y-108443386D01*
X102234702Y-108310000D01*
X102812678Y-108310000D01*
X102850000Y-108313676D01*
X102887322Y-108310000D01*
X102887333Y-108310000D01*
X102998986Y-108299003D01*
X103142247Y-108255546D01*
X103274276Y-108184974D01*
X103390001Y-108090001D01*
X103413803Y-108060998D01*
X103739801Y-107735000D01*
X103801939Y-107735000D01*
X104001898Y-107695226D01*
X104190256Y-107617205D01*
X104359774Y-107503937D01*
X104503937Y-107359774D01*
X104617205Y-107190256D01*
X104695226Y-107001898D01*
X104717105Y-106891906D01*
X112100000Y-114274802D01*
G37*
%TD.AperFunction*%
D23*
X104296063Y-61359774D02*
X104440226Y-61503937D01*
X104609744Y-61617205D01*
X104798102Y-61695226D01*
X104998061Y-61735000D01*
X105060198Y-61735000D01*
X106140001Y-62814804D01*
X106140001Y-67320557D01*
X106101898Y-67304774D01*
X105901939Y-67265000D01*
X105698061Y-67265000D01*
X105498102Y-67304774D01*
X105309744Y-67382795D01*
X105140226Y-67496063D01*
X104996063Y-67640226D01*
X104882795Y-67809744D01*
X104804774Y-67998102D01*
X104765000Y-68198061D01*
X104765000Y-68401939D01*
X104804774Y-68601898D01*
X104882795Y-68790256D01*
X104996063Y-68959774D01*
X105040000Y-69003711D01*
X105040001Y-73396288D01*
X104996063Y-73440226D01*
X104882795Y-73609744D01*
X104804774Y-73798102D01*
X104765000Y-73998061D01*
X104765000Y-74201939D01*
X104804774Y-74401898D01*
X104882795Y-74590256D01*
X104996063Y-74759774D01*
X105140226Y-74903937D01*
X105309744Y-75017205D01*
X105498102Y-75095226D01*
X105698061Y-75135000D01*
X105901939Y-75135000D01*
X106101898Y-75095226D01*
X106140000Y-75079443D01*
X106140000Y-77437659D01*
X106009465Y-77524880D01*
X105814880Y-77719465D01*
X105661995Y-77948273D01*
X105630000Y-78025515D01*
X105598005Y-77948273D01*
X105445120Y-77719465D01*
X105250535Y-77524880D01*
X105021727Y-77371995D01*
X104767490Y-77266686D01*
X104497592Y-77213000D01*
X104222408Y-77213000D01*
X103952510Y-77266686D01*
X103698273Y-77371995D01*
X103469465Y-77524880D01*
X103274880Y-77719465D01*
X103121995Y-77948273D01*
X103092308Y-78019943D01*
X103087636Y-78006977D01*
X103025656Y-77891020D01*
X102785565Y-77824040D01*
X101999605Y-78610000D01*
X102785565Y-79395960D01*
X103025656Y-79328980D01*
X103089485Y-79193240D01*
X103121995Y-79271727D01*
X103274880Y-79500535D01*
X103469465Y-79695120D01*
X103600001Y-79782341D01*
X103600001Y-79825197D01*
X101900514Y-81524685D01*
X101895226Y-81498102D01*
X101817205Y-81309744D01*
X101703937Y-81140226D01*
X101559774Y-80996063D01*
X101390256Y-80882795D01*
X101201898Y-80804774D01*
X101001939Y-80765000D01*
X100939802Y-80765000D01*
X99860000Y-79685199D01*
X99860000Y-79575565D01*
X101034040Y-79575565D01*
X101101020Y-79815656D01*
X101350048Y-79932756D01*
X101617135Y-79999023D01*
X101892017Y-80011910D01*
X102164133Y-79970922D01*
X102423023Y-79877636D01*
X102538980Y-79815656D01*
X102605960Y-79575565D01*
X101820000Y-78789605D01*
X101034040Y-79575565D01*
X99860000Y-79575565D01*
X99860000Y-78682017D01*
X100418090Y-78682017D01*
X100459078Y-78954133D01*
X100552364Y-79213023D01*
X100614344Y-79328980D01*
X100854435Y-79395960D01*
X101640395Y-78610000D01*
X100854435Y-77824040D01*
X100614344Y-77891020D01*
X100497244Y-78140048D01*
X100430977Y-78407135D01*
X100418090Y-78682017D01*
X99860000Y-78682017D01*
X99860000Y-77644435D01*
X101034040Y-77644435D01*
X101820000Y-78430395D01*
X102605960Y-77644435D01*
X102538980Y-77404344D01*
X102289952Y-77287244D01*
X102022865Y-77220977D01*
X101747983Y-77208090D01*
X101475867Y-77249078D01*
X101216977Y-77342364D01*
X101101020Y-77404344D01*
X101034040Y-77644435D01*
X99860000Y-77644435D01*
X99860000Y-75714801D01*
X103139802Y-72435000D01*
X103201939Y-72435000D01*
X103240000Y-72427429D01*
X103240001Y-75262668D01*
X103236324Y-75300000D01*
X103240001Y-75337333D01*
X103250998Y-75448986D01*
X103264121Y-75492246D01*
X103294454Y-75592246D01*
X103365026Y-75724276D01*
X103436201Y-75811002D01*
X103460000Y-75840001D01*
X103488998Y-75863799D01*
X103565000Y-75939801D01*
X103565000Y-76001939D01*
X103604774Y-76201898D01*
X103682795Y-76390256D01*
X103796063Y-76559774D01*
X103940226Y-76703937D01*
X104109744Y-76817205D01*
X104298102Y-76895226D01*
X104498061Y-76935000D01*
X104701939Y-76935000D01*
X104901898Y-76895226D01*
X105090256Y-76817205D01*
X105259774Y-76703937D01*
X105403937Y-76559774D01*
X105517205Y-76390256D01*
X105595226Y-76201898D01*
X105635000Y-76001939D01*
X105635000Y-75798061D01*
X105595226Y-75598102D01*
X105517205Y-75409744D01*
X105403937Y-75240226D01*
X105259774Y-75096063D01*
X105090256Y-74982795D01*
X104901898Y-74904774D01*
X104760000Y-74876549D01*
X104760000Y-65703711D01*
X104803937Y-65659774D01*
X104917205Y-65490256D01*
X104995226Y-65301898D01*
X105035000Y-65101939D01*
X105035000Y-64898061D01*
X104995226Y-64698102D01*
X104917205Y-64509744D01*
X104803937Y-64340226D01*
X104659774Y-64196063D01*
X104490256Y-64082795D01*
X104301898Y-64004774D01*
X104101939Y-63965000D01*
X103898061Y-63965000D01*
X103698102Y-64004774D01*
X103509744Y-64082795D01*
X103340226Y-64196063D01*
X103196063Y-64340226D01*
X103082795Y-64509744D01*
X103004774Y-64698102D01*
X102965000Y-64898061D01*
X102965000Y-65101939D01*
X103004774Y-65301898D01*
X103082795Y-65490256D01*
X103196063Y-65659774D01*
X103240000Y-65703711D01*
X103240001Y-70372571D01*
X103201939Y-70365000D01*
X102998061Y-70365000D01*
X102798102Y-70404774D01*
X102609744Y-70482795D01*
X102440226Y-70596063D01*
X102296063Y-70740226D01*
X102182795Y-70909744D01*
X102104774Y-71098102D01*
X102065000Y-71298061D01*
X102065000Y-71360198D01*
X100795000Y-72630198D01*
X100795000Y-72458665D01*
X100739853Y-72181426D01*
X100631680Y-71920273D01*
X100474637Y-71685241D01*
X100274759Y-71485363D01*
X100039727Y-71328320D01*
X100029135Y-71323933D01*
X100215131Y-71212385D01*
X100423519Y-71023414D01*
X100591037Y-70797420D01*
X100711246Y-70543087D01*
X100751904Y-70409039D01*
X100629915Y-70187000D01*
X99487000Y-70187000D01*
X99487000Y-70207000D01*
X99233000Y-70207000D01*
X99233000Y-70187000D01*
X99213000Y-70187000D01*
X99213000Y-69933000D01*
X99233000Y-69933000D01*
X99233000Y-69913000D01*
X99487000Y-69913000D01*
X99487000Y-69933000D01*
X100629915Y-69933000D01*
X100751904Y-69710961D01*
X100711246Y-69576913D01*
X100591037Y-69322580D01*
X100423519Y-69096586D01*
X100215131Y-68907615D01*
X100029135Y-68796067D01*
X100039727Y-68791680D01*
X100274759Y-68634637D01*
X100474637Y-68434759D01*
X100631680Y-68199727D01*
X100739853Y-67938574D01*
X100795000Y-67661335D01*
X100795000Y-67378665D01*
X100739853Y-67101426D01*
X100631680Y-66840273D01*
X100474637Y-66605241D01*
X100274759Y-66405363D01*
X100042241Y-66250000D01*
X100274759Y-66094637D01*
X100474637Y-65894759D01*
X100631680Y-65659727D01*
X100739853Y-65398574D01*
X100795000Y-65121335D01*
X100795000Y-64838665D01*
X100758688Y-64656113D01*
X104199518Y-61215284D01*
X104296063Y-61359774D01*
%TA.AperFunction,Conductor*%
D24*
G36*
X104296063Y-61359774D02*
G01*
X104440226Y-61503937D01*
X104609744Y-61617205D01*
X104798102Y-61695226D01*
X104998061Y-61735000D01*
X105060198Y-61735000D01*
X106140001Y-62814804D01*
X106140001Y-67320557D01*
X106101898Y-67304774D01*
X105901939Y-67265000D01*
X105698061Y-67265000D01*
X105498102Y-67304774D01*
X105309744Y-67382795D01*
X105140226Y-67496063D01*
X104996063Y-67640226D01*
X104882795Y-67809744D01*
X104804774Y-67998102D01*
X104765000Y-68198061D01*
X104765000Y-68401939D01*
X104804774Y-68601898D01*
X104882795Y-68790256D01*
X104996063Y-68959774D01*
X105040000Y-69003711D01*
X105040001Y-73396288D01*
X104996063Y-73440226D01*
X104882795Y-73609744D01*
X104804774Y-73798102D01*
X104765000Y-73998061D01*
X104765000Y-74201939D01*
X104804774Y-74401898D01*
X104882795Y-74590256D01*
X104996063Y-74759774D01*
X105140226Y-74903937D01*
X105309744Y-75017205D01*
X105498102Y-75095226D01*
X105698061Y-75135000D01*
X105901939Y-75135000D01*
X106101898Y-75095226D01*
X106140000Y-75079443D01*
X106140000Y-77437659D01*
X106009465Y-77524880D01*
X105814880Y-77719465D01*
X105661995Y-77948273D01*
X105630000Y-78025515D01*
X105598005Y-77948273D01*
X105445120Y-77719465D01*
X105250535Y-77524880D01*
X105021727Y-77371995D01*
X104767490Y-77266686D01*
X104497592Y-77213000D01*
X104222408Y-77213000D01*
X103952510Y-77266686D01*
X103698273Y-77371995D01*
X103469465Y-77524880D01*
X103274880Y-77719465D01*
X103121995Y-77948273D01*
X103092308Y-78019943D01*
X103087636Y-78006977D01*
X103025656Y-77891020D01*
X102785565Y-77824040D01*
X101999605Y-78610000D01*
X102785565Y-79395960D01*
X103025656Y-79328980D01*
X103089485Y-79193240D01*
X103121995Y-79271727D01*
X103274880Y-79500535D01*
X103469465Y-79695120D01*
X103600001Y-79782341D01*
X103600001Y-79825197D01*
X101900514Y-81524685D01*
X101895226Y-81498102D01*
X101817205Y-81309744D01*
X101703937Y-81140226D01*
X101559774Y-80996063D01*
X101390256Y-80882795D01*
X101201898Y-80804774D01*
X101001939Y-80765000D01*
X100939802Y-80765000D01*
X99860000Y-79685199D01*
X99860000Y-79575565D01*
X101034040Y-79575565D01*
X101101020Y-79815656D01*
X101350048Y-79932756D01*
X101617135Y-79999023D01*
X101892017Y-80011910D01*
X102164133Y-79970922D01*
X102423023Y-79877636D01*
X102538980Y-79815656D01*
X102605960Y-79575565D01*
X101820000Y-78789605D01*
X101034040Y-79575565D01*
X99860000Y-79575565D01*
X99860000Y-78682017D01*
X100418090Y-78682017D01*
X100459078Y-78954133D01*
X100552364Y-79213023D01*
X100614344Y-79328980D01*
X100854435Y-79395960D01*
X101640395Y-78610000D01*
X100854435Y-77824040D01*
X100614344Y-77891020D01*
X100497244Y-78140048D01*
X100430977Y-78407135D01*
X100418090Y-78682017D01*
X99860000Y-78682017D01*
X99860000Y-77644435D01*
X101034040Y-77644435D01*
X101820000Y-78430395D01*
X102605960Y-77644435D01*
X102538980Y-77404344D01*
X102289952Y-77287244D01*
X102022865Y-77220977D01*
X101747983Y-77208090D01*
X101475867Y-77249078D01*
X101216977Y-77342364D01*
X101101020Y-77404344D01*
X101034040Y-77644435D01*
X99860000Y-77644435D01*
X99860000Y-75714801D01*
X103139802Y-72435000D01*
X103201939Y-72435000D01*
X103240000Y-72427429D01*
X103240001Y-75262668D01*
X103236324Y-75300000D01*
X103240001Y-75337333D01*
X103250998Y-75448986D01*
X103264121Y-75492246D01*
X103294454Y-75592246D01*
X103365026Y-75724276D01*
X103436201Y-75811002D01*
X103460000Y-75840001D01*
X103488998Y-75863799D01*
X103565000Y-75939801D01*
X103565000Y-76001939D01*
X103604774Y-76201898D01*
X103682795Y-76390256D01*
X103796063Y-76559774D01*
X103940226Y-76703937D01*
X104109744Y-76817205D01*
X104298102Y-76895226D01*
X104498061Y-76935000D01*
X104701939Y-76935000D01*
X104901898Y-76895226D01*
X105090256Y-76817205D01*
X105259774Y-76703937D01*
X105403937Y-76559774D01*
X105517205Y-76390256D01*
X105595226Y-76201898D01*
X105635000Y-76001939D01*
X105635000Y-75798061D01*
X105595226Y-75598102D01*
X105517205Y-75409744D01*
X105403937Y-75240226D01*
X105259774Y-75096063D01*
X105090256Y-74982795D01*
X104901898Y-74904774D01*
X104760000Y-74876549D01*
X104760000Y-65703711D01*
X104803937Y-65659774D01*
X104917205Y-65490256D01*
X104995226Y-65301898D01*
X105035000Y-65101939D01*
X105035000Y-64898061D01*
X104995226Y-64698102D01*
X104917205Y-64509744D01*
X104803937Y-64340226D01*
X104659774Y-64196063D01*
X104490256Y-64082795D01*
X104301898Y-64004774D01*
X104101939Y-63965000D01*
X103898061Y-63965000D01*
X103698102Y-64004774D01*
X103509744Y-64082795D01*
X103340226Y-64196063D01*
X103196063Y-64340226D01*
X103082795Y-64509744D01*
X103004774Y-64698102D01*
X102965000Y-64898061D01*
X102965000Y-65101939D01*
X103004774Y-65301898D01*
X103082795Y-65490256D01*
X103196063Y-65659774D01*
X103240000Y-65703711D01*
X103240001Y-70372571D01*
X103201939Y-70365000D01*
X102998061Y-70365000D01*
X102798102Y-70404774D01*
X102609744Y-70482795D01*
X102440226Y-70596063D01*
X102296063Y-70740226D01*
X102182795Y-70909744D01*
X102104774Y-71098102D01*
X102065000Y-71298061D01*
X102065000Y-71360198D01*
X100795000Y-72630198D01*
X100795000Y-72458665D01*
X100739853Y-72181426D01*
X100631680Y-71920273D01*
X100474637Y-71685241D01*
X100274759Y-71485363D01*
X100039727Y-71328320D01*
X100029135Y-71323933D01*
X100215131Y-71212385D01*
X100423519Y-71023414D01*
X100591037Y-70797420D01*
X100711246Y-70543087D01*
X100751904Y-70409039D01*
X100629915Y-70187000D01*
X99487000Y-70187000D01*
X99487000Y-70207000D01*
X99233000Y-70207000D01*
X99233000Y-70187000D01*
X99213000Y-70187000D01*
X99213000Y-69933000D01*
X99233000Y-69933000D01*
X99233000Y-69913000D01*
X99487000Y-69913000D01*
X99487000Y-69933000D01*
X100629915Y-69933000D01*
X100751904Y-69710961D01*
X100711246Y-69576913D01*
X100591037Y-69322580D01*
X100423519Y-69096586D01*
X100215131Y-68907615D01*
X100029135Y-68796067D01*
X100039727Y-68791680D01*
X100274759Y-68634637D01*
X100474637Y-68434759D01*
X100631680Y-68199727D01*
X100739853Y-67938574D01*
X100795000Y-67661335D01*
X100795000Y-67378665D01*
X100739853Y-67101426D01*
X100631680Y-66840273D01*
X100474637Y-66605241D01*
X100274759Y-66405363D01*
X100042241Y-66250000D01*
X100274759Y-66094637D01*
X100474637Y-65894759D01*
X100631680Y-65659727D01*
X100739853Y-65398574D01*
X100795000Y-65121335D01*
X100795000Y-64838665D01*
X100758688Y-64656113D01*
X104199518Y-61215284D01*
X104296063Y-61359774D01*
G37*
%TD.AperFunction*%
D23*
X118256126Y-34930927D02*
X118203418Y-34946916D01*
X118067171Y-35019742D01*
X117947749Y-35117749D01*
X117849742Y-35237171D01*
X117776916Y-35373418D01*
X117732071Y-35521255D01*
X117716928Y-35675000D01*
X117716928Y-37425000D01*
X117732071Y-37578745D01*
X117776916Y-37726582D01*
X117849742Y-37862829D01*
X117947749Y-37982251D01*
X118067171Y-38080258D01*
X118203418Y-38153084D01*
X118351255Y-38197929D01*
X118505000Y-38213072D01*
X118805000Y-38213072D01*
X118958745Y-38197929D01*
X119106582Y-38153084D01*
X119242829Y-38080258D01*
X119290000Y-38041546D01*
X119337171Y-38080258D01*
X119473418Y-38153084D01*
X119621255Y-38197929D01*
X119775000Y-38213072D01*
X120075000Y-38213072D01*
X120228745Y-38197929D01*
X120376582Y-38153084D01*
X120512829Y-38080258D01*
X120560000Y-38041546D01*
X120607171Y-38080258D01*
X120743418Y-38153084D01*
X120891255Y-38197929D01*
X121045000Y-38213072D01*
X121345000Y-38213072D01*
X121498745Y-38197929D01*
X121646582Y-38153084D01*
X121782829Y-38080258D01*
X121830000Y-38041546D01*
X121877171Y-38080258D01*
X122013418Y-38153084D01*
X122161255Y-38197929D01*
X122315000Y-38213072D01*
X122615000Y-38213072D01*
X122768745Y-38197929D01*
X122916582Y-38153084D01*
X123050936Y-38081270D01*
X123080506Y-38105537D01*
X123190820Y-38164502D01*
X123310518Y-38200812D01*
X123435000Y-38213072D01*
X123449250Y-38210000D01*
X123608000Y-38051250D01*
X123608000Y-36677000D01*
X123862000Y-36677000D01*
X123862000Y-38051250D01*
X124020750Y-38210000D01*
X124035000Y-38213072D01*
X124159482Y-38200812D01*
X124279180Y-38164502D01*
X124370000Y-38115957D01*
X124460820Y-38164502D01*
X124580518Y-38200812D01*
X124705000Y-38213072D01*
X124719250Y-38210000D01*
X124878000Y-38051250D01*
X124878000Y-36677000D01*
X125132000Y-36677000D01*
X125132000Y-38051250D01*
X125290750Y-38210000D01*
X125305000Y-38213072D01*
X125429482Y-38200812D01*
X125549180Y-38164502D01*
X125640000Y-38115957D01*
X125730820Y-38164502D01*
X125850518Y-38200812D01*
X125975000Y-38213072D01*
X125989250Y-38210000D01*
X126148000Y-38051250D01*
X126148000Y-36677000D01*
X126402000Y-36677000D01*
X126402000Y-38051250D01*
X126560750Y-38210000D01*
X126575000Y-38213072D01*
X126699482Y-38200812D01*
X126819180Y-38164502D01*
X126910000Y-38115957D01*
X127000820Y-38164502D01*
X127120518Y-38200812D01*
X127245000Y-38213072D01*
X127259250Y-38210000D01*
X127418000Y-38051250D01*
X127418000Y-36677000D01*
X126402000Y-36677000D01*
X126148000Y-36677000D01*
X125132000Y-36677000D01*
X124878000Y-36677000D01*
X123862000Y-36677000D01*
X123608000Y-36677000D01*
X123588000Y-36677000D01*
X123588000Y-36423000D01*
X123608000Y-36423000D01*
X123608000Y-35048750D01*
X123862000Y-35048750D01*
X123862000Y-36423000D01*
X124878000Y-36423000D01*
X124878000Y-35048750D01*
X125132000Y-35048750D01*
X125132000Y-36423000D01*
X126148000Y-36423000D01*
X126148000Y-35048750D01*
X126402000Y-35048750D01*
X126402000Y-36423000D01*
X127418000Y-36423000D01*
X127418000Y-35048750D01*
X127259250Y-34890000D01*
X127245000Y-34886928D01*
X127120518Y-34899188D01*
X127000820Y-34935498D01*
X126910000Y-34984043D01*
X126819180Y-34935498D01*
X126699482Y-34899188D01*
X126575000Y-34886928D01*
X126560750Y-34890000D01*
X126402000Y-35048750D01*
X126148000Y-35048750D01*
X125989250Y-34890000D01*
X125975000Y-34886928D01*
X125850518Y-34899188D01*
X125730820Y-34935498D01*
X125640000Y-34984043D01*
X125549180Y-34935498D01*
X125429482Y-34899188D01*
X125305000Y-34886928D01*
X125290750Y-34890000D01*
X125132000Y-35048750D01*
X124878000Y-35048750D01*
X124719250Y-34890000D01*
X124705000Y-34886928D01*
X124580518Y-34899188D01*
X124460820Y-34935498D01*
X124370000Y-34984043D01*
X124279180Y-34935498D01*
X124159482Y-34899188D01*
X124035000Y-34886928D01*
X124020750Y-34890000D01*
X123862000Y-35048750D01*
X123608000Y-35048750D01*
X123449250Y-34890000D01*
X123435000Y-34886928D01*
X123310518Y-34899188D01*
X123190820Y-34935498D01*
X123080506Y-34994463D01*
X123050936Y-35018730D01*
X122916582Y-34946916D01*
X122768745Y-34902071D01*
X122615000Y-34886928D01*
X122315000Y-34886928D01*
X122161255Y-34902071D01*
X122013418Y-34946916D01*
X121877171Y-35019742D01*
X121830000Y-35058454D01*
X121782829Y-35019742D01*
X121646582Y-34946916D01*
X121593874Y-34930928D01*
X121764802Y-34760000D01*
X128285199Y-34760000D01*
X128440000Y-34914802D01*
X128440000Y-35298945D01*
X128434502Y-35280820D01*
X128375537Y-35170506D01*
X128296185Y-35073815D01*
X128199494Y-34994463D01*
X128089180Y-34935498D01*
X127969482Y-34899188D01*
X127845000Y-34886928D01*
X127830750Y-34890000D01*
X127672000Y-35048750D01*
X127672000Y-36423000D01*
X127692000Y-36423000D01*
X127692000Y-36677000D01*
X127672000Y-36677000D01*
X127672000Y-38051250D01*
X127830750Y-38210000D01*
X127845000Y-38213072D01*
X127969482Y-38200812D01*
X128089180Y-38164502D01*
X128199494Y-38105537D01*
X128296185Y-38026185D01*
X128375537Y-37929494D01*
X128434502Y-37819180D01*
X128440000Y-37801055D01*
X128440000Y-44598945D01*
X128434502Y-44580820D01*
X128375537Y-44470506D01*
X128296185Y-44373815D01*
X128199494Y-44294463D01*
X128089180Y-44235498D01*
X127969482Y-44199188D01*
X127845000Y-44186928D01*
X127830750Y-44190000D01*
X127672000Y-44348750D01*
X127672000Y-45723000D01*
X127692000Y-45723000D01*
X127692000Y-45977000D01*
X127672000Y-45977000D01*
X127672000Y-47351250D01*
X127830750Y-47510000D01*
X127845000Y-47513072D01*
X127969482Y-47500812D01*
X128089180Y-47464502D01*
X128199494Y-47405537D01*
X128296185Y-47326185D01*
X128375537Y-47229494D01*
X128434502Y-47119180D01*
X128440000Y-47101055D01*
X128440001Y-59865199D01*
X125008804Y-56434003D01*
X124988072Y-56408741D01*
X124988072Y-55195000D01*
X124975812Y-55070518D01*
X124939502Y-54950820D01*
X124880537Y-54840506D01*
X124801185Y-54743815D01*
X124704494Y-54664463D01*
X124594180Y-54605498D01*
X124474482Y-54569188D01*
X124350000Y-54556928D01*
X121286730Y-54556928D01*
X120629802Y-53900000D01*
X124886928Y-53900000D01*
X124899188Y-54024482D01*
X124935498Y-54144180D01*
X124994463Y-54254494D01*
X125073815Y-54351185D01*
X125170506Y-54430537D01*
X125280820Y-54489502D01*
X125400518Y-54525812D01*
X125525000Y-54538072D01*
X126114250Y-54535000D01*
X126273000Y-54376250D01*
X126273000Y-53377000D01*
X126527000Y-53377000D01*
X126527000Y-54376250D01*
X126685750Y-54535000D01*
X127275000Y-54538072D01*
X127399482Y-54525812D01*
X127519180Y-54489502D01*
X127629494Y-54430537D01*
X127726185Y-54351185D01*
X127805537Y-54254494D01*
X127864502Y-54144180D01*
X127900812Y-54024482D01*
X127913072Y-53900000D01*
X127910000Y-53535750D01*
X127751250Y-53377000D01*
X126527000Y-53377000D01*
X126273000Y-53377000D01*
X125048750Y-53377000D01*
X124890000Y-53535750D01*
X124886928Y-53900000D01*
X120629802Y-53900000D01*
X119553872Y-52824071D01*
X119608816Y-52835000D01*
X119911184Y-52835000D01*
X120207743Y-52776011D01*
X120487095Y-52660299D01*
X120738505Y-52492312D01*
X120804944Y-52425873D01*
X120810498Y-52444180D01*
X120869463Y-52554494D01*
X120948815Y-52651185D01*
X121045506Y-52730537D01*
X121155820Y-52789502D01*
X121275518Y-52825812D01*
X121400000Y-52838072D01*
X123200000Y-52838072D01*
X123324482Y-52825812D01*
X123444180Y-52789502D01*
X123554494Y-52730537D01*
X123651185Y-52651185D01*
X123730537Y-52554494D01*
X123789502Y-52444180D01*
X123825812Y-52324482D01*
X123838072Y-52200000D01*
X123838072Y-52060000D01*
X125188210Y-52060000D01*
X125170506Y-52069463D01*
X125073815Y-52148815D01*
X124994463Y-52245506D01*
X124935498Y-52355820D01*
X124899188Y-52475518D01*
X124886928Y-52600000D01*
X124890000Y-52964250D01*
X125048750Y-53123000D01*
X126273000Y-53123000D01*
X126273000Y-52123750D01*
X126527000Y-52123750D01*
X126527000Y-53123000D01*
X127751250Y-53123000D01*
X127910000Y-52964250D01*
X127913072Y-52600000D01*
X127900812Y-52475518D01*
X127864502Y-52355820D01*
X127805537Y-52245506D01*
X127726185Y-52148815D01*
X127629494Y-52069463D01*
X127519180Y-52010498D01*
X127399482Y-51974188D01*
X127275000Y-51961928D01*
X126685750Y-51965000D01*
X126527000Y-52123750D01*
X126273000Y-52123750D01*
X126114250Y-51965000D01*
X125622895Y-51962438D01*
X125674276Y-51934974D01*
X125790001Y-51840001D01*
X125813804Y-51810997D01*
X126186729Y-51438072D01*
X127025000Y-51438072D01*
X127198254Y-51421008D01*
X127364850Y-51370472D01*
X127518386Y-51288405D01*
X127652962Y-51177962D01*
X127763405Y-51043386D01*
X127845472Y-50889850D01*
X127896008Y-50723254D01*
X127913072Y-50550000D01*
X127913072Y-49750000D01*
X127896008Y-49576746D01*
X127845472Y-49410150D01*
X127763405Y-49256614D01*
X127652962Y-49122038D01*
X127518386Y-49011595D01*
X127364850Y-48929528D01*
X127198254Y-48878992D01*
X127025000Y-48861928D01*
X125775000Y-48861928D01*
X125601746Y-48878992D01*
X125435150Y-48929528D01*
X125281614Y-49011595D01*
X125147038Y-49122038D01*
X125036595Y-49256614D01*
X124954528Y-49410150D01*
X124903992Y-49576746D01*
X124886928Y-49750000D01*
X124886928Y-50540000D01*
X123838072Y-50540000D01*
X123838072Y-50400000D01*
X123825812Y-50275518D01*
X123789502Y-50155820D01*
X123730537Y-50045506D01*
X123651185Y-49948815D01*
X123554494Y-49869463D01*
X123444180Y-49810498D01*
X123324482Y-49774188D01*
X123200000Y-49761928D01*
X121400000Y-49761928D01*
X121275518Y-49774188D01*
X121155820Y-49810498D01*
X121045506Y-49869463D01*
X120948815Y-49948815D01*
X120869463Y-50045506D01*
X120810498Y-50155820D01*
X120804944Y-50174127D01*
X120738505Y-50107688D01*
X120487095Y-49939701D01*
X120207743Y-49823989D01*
X119911184Y-49765000D01*
X119608816Y-49765000D01*
X119312257Y-49823989D01*
X119032905Y-49939701D01*
X118781495Y-50107688D01*
X118567688Y-50321495D01*
X118399701Y-50572905D01*
X118283989Y-50852257D01*
X118225000Y-51148816D01*
X118225000Y-51451184D01*
X118235929Y-51506128D01*
X118160000Y-51430199D01*
X118160000Y-49114801D01*
X118314802Y-48960000D01*
X119832678Y-48960000D01*
X119870000Y-48963676D01*
X119907322Y-48960000D01*
X119907333Y-48960000D01*
X120018986Y-48949003D01*
X120162247Y-48905546D01*
X120294276Y-48834974D01*
X120410001Y-48740001D01*
X120433804Y-48710997D01*
X121706004Y-47438798D01*
X121735001Y-47415001D01*
X121748420Y-47398650D01*
X121780936Y-47381270D01*
X121810506Y-47405537D01*
X121920820Y-47464502D01*
X122040518Y-47500812D01*
X122165000Y-47513072D01*
X122179250Y-47510000D01*
X122338000Y-47351250D01*
X122338000Y-45977000D01*
X122592000Y-45977000D01*
X122592000Y-47351250D01*
X122750750Y-47510000D01*
X122765000Y-47513072D01*
X122889482Y-47500812D01*
X123009180Y-47464502D01*
X123100000Y-47415957D01*
X123190820Y-47464502D01*
X123310518Y-47500812D01*
X123435000Y-47513072D01*
X123449250Y-47510000D01*
X123608000Y-47351250D01*
X123608000Y-45977000D01*
X123862000Y-45977000D01*
X123862000Y-47351250D01*
X124020750Y-47510000D01*
X124035000Y-47513072D01*
X124159482Y-47500812D01*
X124279180Y-47464502D01*
X124370000Y-47415957D01*
X124460820Y-47464502D01*
X124580518Y-47500812D01*
X124705000Y-47513072D01*
X124719250Y-47510000D01*
X124878000Y-47351250D01*
X124878000Y-45977000D01*
X125132000Y-45977000D01*
X125132000Y-47351250D01*
X125290750Y-47510000D01*
X125305000Y-47513072D01*
X125429482Y-47500812D01*
X125549180Y-47464502D01*
X125640000Y-47415957D01*
X125730820Y-47464502D01*
X125850518Y-47500812D01*
X125975000Y-47513072D01*
X125989250Y-47510000D01*
X126148000Y-47351250D01*
X126148000Y-45977000D01*
X126402000Y-45977000D01*
X126402000Y-47351250D01*
X126560750Y-47510000D01*
X126575000Y-47513072D01*
X126699482Y-47500812D01*
X126819180Y-47464502D01*
X126910000Y-47415957D01*
X127000820Y-47464502D01*
X127120518Y-47500812D01*
X127245000Y-47513072D01*
X127259250Y-47510000D01*
X127418000Y-47351250D01*
X127418000Y-45977000D01*
X126402000Y-45977000D01*
X126148000Y-45977000D01*
X125132000Y-45977000D01*
X124878000Y-45977000D01*
X123862000Y-45977000D01*
X123608000Y-45977000D01*
X122592000Y-45977000D01*
X122338000Y-45977000D01*
X122318000Y-45977000D01*
X122318000Y-45723000D01*
X122338000Y-45723000D01*
X122338000Y-44348750D01*
X122592000Y-44348750D01*
X122592000Y-45723000D01*
X123608000Y-45723000D01*
X123608000Y-44348750D01*
X123862000Y-44348750D01*
X123862000Y-45723000D01*
X124878000Y-45723000D01*
X124878000Y-44348750D01*
X125132000Y-44348750D01*
X125132000Y-45723000D01*
X126148000Y-45723000D01*
X126148000Y-44348750D01*
X126402000Y-44348750D01*
X126402000Y-45723000D01*
X127418000Y-45723000D01*
X127418000Y-44348750D01*
X127259250Y-44190000D01*
X127245000Y-44186928D01*
X127120518Y-44199188D01*
X127000820Y-44235498D01*
X126910000Y-44284043D01*
X126819180Y-44235498D01*
X126699482Y-44199188D01*
X126575000Y-44186928D01*
X126560750Y-44190000D01*
X126402000Y-44348750D01*
X126148000Y-44348750D01*
X125989250Y-44190000D01*
X125975000Y-44186928D01*
X125850518Y-44199188D01*
X125730820Y-44235498D01*
X125640000Y-44284043D01*
X125549180Y-44235498D01*
X125429482Y-44199188D01*
X125305000Y-44186928D01*
X125290750Y-44190000D01*
X125132000Y-44348750D01*
X124878000Y-44348750D01*
X124719250Y-44190000D01*
X124705000Y-44186928D01*
X124580518Y-44199188D01*
X124460820Y-44235498D01*
X124370000Y-44284043D01*
X124279180Y-44235498D01*
X124159482Y-44199188D01*
X124035000Y-44186928D01*
X124020750Y-44190000D01*
X123862000Y-44348750D01*
X123608000Y-44348750D01*
X123449250Y-44190000D01*
X123435000Y-44186928D01*
X123310518Y-44199188D01*
X123190820Y-44235498D01*
X123100000Y-44284043D01*
X123009180Y-44235498D01*
X122889482Y-44199188D01*
X122765000Y-44186928D01*
X122750750Y-44190000D01*
X122592000Y-44348750D01*
X122338000Y-44348750D01*
X122179250Y-44190000D01*
X122165000Y-44186928D01*
X122040518Y-44199188D01*
X121920820Y-44235498D01*
X121810506Y-44294463D01*
X121780936Y-44318730D01*
X121646582Y-44246916D01*
X121498745Y-44202071D01*
X121345000Y-44186928D01*
X121045000Y-44186928D01*
X120891255Y-44202071D01*
X120743418Y-44246916D01*
X120607171Y-44319742D01*
X120560000Y-44358454D01*
X120512829Y-44319742D01*
X120376582Y-44246916D01*
X120228745Y-44202071D01*
X120075000Y-44186928D01*
X119775000Y-44186928D01*
X119621255Y-44202071D01*
X119473418Y-44246916D01*
X119337171Y-44319742D01*
X119290000Y-44358454D01*
X119242829Y-44319742D01*
X119106582Y-44246916D01*
X118958745Y-44202071D01*
X118805000Y-44186928D01*
X118505000Y-44186928D01*
X118351255Y-44202071D01*
X118203418Y-44246916D01*
X118153434Y-44273633D01*
X116668804Y-42789003D01*
X116645001Y-42759999D01*
X116529276Y-42665026D01*
X116397247Y-42594454D01*
X116253986Y-42550997D01*
X116142333Y-42540000D01*
X116142322Y-42540000D01*
X116105000Y-42536324D01*
X116067678Y-42540000D01*
X115979262Y-42540000D01*
X115979853Y-42538574D01*
X116035000Y-42261335D01*
X116035000Y-41978665D01*
X115979853Y-41701426D01*
X115871680Y-41440273D01*
X115714637Y-41205241D01*
X115514759Y-41005363D01*
X115282241Y-40850000D01*
X115514759Y-40694637D01*
X115714637Y-40494759D01*
X115871680Y-40259727D01*
X115979853Y-39998574D01*
X116035000Y-39721335D01*
X116035000Y-39438665D01*
X115979853Y-39161426D01*
X115871680Y-38900273D01*
X115714637Y-38665241D01*
X115514759Y-38465363D01*
X115282241Y-38310000D01*
X115514759Y-38154637D01*
X115714637Y-37954759D01*
X115871680Y-37719727D01*
X115979853Y-37458574D01*
X116035000Y-37181335D01*
X116035000Y-36898665D01*
X115979853Y-36621426D01*
X115871680Y-36360273D01*
X115714637Y-36125241D01*
X115514759Y-35925363D01*
X115279727Y-35768320D01*
X115018574Y-35660147D01*
X114741335Y-35605000D01*
X114458665Y-35605000D01*
X114181426Y-35660147D01*
X113920273Y-35768320D01*
X113685241Y-35925363D01*
X113485363Y-36125241D01*
X113328320Y-36360273D01*
X113220147Y-36621426D01*
X113165000Y-36898665D01*
X113165000Y-37181335D01*
X113220147Y-37458574D01*
X113328320Y-37719727D01*
X113485363Y-37954759D01*
X113685241Y-38154637D01*
X113917759Y-38310000D01*
X113685241Y-38465363D01*
X113485363Y-38665241D01*
X113328320Y-38900273D01*
X113220147Y-39161426D01*
X113165000Y-39438665D01*
X113165000Y-39721335D01*
X113220147Y-39998574D01*
X113328320Y-40259727D01*
X113485363Y-40494759D01*
X113685241Y-40694637D01*
X113917759Y-40850000D01*
X113685241Y-41005363D01*
X113485363Y-41205241D01*
X113328320Y-41440273D01*
X113220147Y-41701426D01*
X113165000Y-41978665D01*
X113165000Y-42261335D01*
X113220147Y-42538574D01*
X113220738Y-42540000D01*
X112837322Y-42540000D01*
X112800000Y-42536324D01*
X112762677Y-42540000D01*
X112762667Y-42540000D01*
X112651014Y-42550997D01*
X112507753Y-42594454D01*
X112375723Y-42665026D01*
X112292083Y-42733668D01*
X112259999Y-42759999D01*
X112236201Y-42788997D01*
X111060000Y-43965199D01*
X111060000Y-34914801D01*
X111214802Y-34760000D01*
X118085199Y-34760000D01*
X118256126Y-34930927D01*
%TA.AperFunction,Conductor*%
D24*
G36*
X118256126Y-34930927D02*
G01*
X118203418Y-34946916D01*
X118067171Y-35019742D01*
X117947749Y-35117749D01*
X117849742Y-35237171D01*
X117776916Y-35373418D01*
X117732071Y-35521255D01*
X117716928Y-35675000D01*
X117716928Y-37425000D01*
X117732071Y-37578745D01*
X117776916Y-37726582D01*
X117849742Y-37862829D01*
X117947749Y-37982251D01*
X118067171Y-38080258D01*
X118203418Y-38153084D01*
X118351255Y-38197929D01*
X118505000Y-38213072D01*
X118805000Y-38213072D01*
X118958745Y-38197929D01*
X119106582Y-38153084D01*
X119242829Y-38080258D01*
X119290000Y-38041546D01*
X119337171Y-38080258D01*
X119473418Y-38153084D01*
X119621255Y-38197929D01*
X119775000Y-38213072D01*
X120075000Y-38213072D01*
X120228745Y-38197929D01*
X120376582Y-38153084D01*
X120512829Y-38080258D01*
X120560000Y-38041546D01*
X120607171Y-38080258D01*
X120743418Y-38153084D01*
X120891255Y-38197929D01*
X121045000Y-38213072D01*
X121345000Y-38213072D01*
X121498745Y-38197929D01*
X121646582Y-38153084D01*
X121782829Y-38080258D01*
X121830000Y-38041546D01*
X121877171Y-38080258D01*
X122013418Y-38153084D01*
X122161255Y-38197929D01*
X122315000Y-38213072D01*
X122615000Y-38213072D01*
X122768745Y-38197929D01*
X122916582Y-38153084D01*
X123050936Y-38081270D01*
X123080506Y-38105537D01*
X123190820Y-38164502D01*
X123310518Y-38200812D01*
X123435000Y-38213072D01*
X123449250Y-38210000D01*
X123608000Y-38051250D01*
X123608000Y-36677000D01*
X123862000Y-36677000D01*
X123862000Y-38051250D01*
X124020750Y-38210000D01*
X124035000Y-38213072D01*
X124159482Y-38200812D01*
X124279180Y-38164502D01*
X124370000Y-38115957D01*
X124460820Y-38164502D01*
X124580518Y-38200812D01*
X124705000Y-38213072D01*
X124719250Y-38210000D01*
X124878000Y-38051250D01*
X124878000Y-36677000D01*
X125132000Y-36677000D01*
X125132000Y-38051250D01*
X125290750Y-38210000D01*
X125305000Y-38213072D01*
X125429482Y-38200812D01*
X125549180Y-38164502D01*
X125640000Y-38115957D01*
X125730820Y-38164502D01*
X125850518Y-38200812D01*
X125975000Y-38213072D01*
X125989250Y-38210000D01*
X126148000Y-38051250D01*
X126148000Y-36677000D01*
X126402000Y-36677000D01*
X126402000Y-38051250D01*
X126560750Y-38210000D01*
X126575000Y-38213072D01*
X126699482Y-38200812D01*
X126819180Y-38164502D01*
X126910000Y-38115957D01*
X127000820Y-38164502D01*
X127120518Y-38200812D01*
X127245000Y-38213072D01*
X127259250Y-38210000D01*
X127418000Y-38051250D01*
X127418000Y-36677000D01*
X126402000Y-36677000D01*
X126148000Y-36677000D01*
X125132000Y-36677000D01*
X124878000Y-36677000D01*
X123862000Y-36677000D01*
X123608000Y-36677000D01*
X123588000Y-36677000D01*
X123588000Y-36423000D01*
X123608000Y-36423000D01*
X123608000Y-35048750D01*
X123862000Y-35048750D01*
X123862000Y-36423000D01*
X124878000Y-36423000D01*
X124878000Y-35048750D01*
X125132000Y-35048750D01*
X125132000Y-36423000D01*
X126148000Y-36423000D01*
X126148000Y-35048750D01*
X126402000Y-35048750D01*
X126402000Y-36423000D01*
X127418000Y-36423000D01*
X127418000Y-35048750D01*
X127259250Y-34890000D01*
X127245000Y-34886928D01*
X127120518Y-34899188D01*
X127000820Y-34935498D01*
X126910000Y-34984043D01*
X126819180Y-34935498D01*
X126699482Y-34899188D01*
X126575000Y-34886928D01*
X126560750Y-34890000D01*
X126402000Y-35048750D01*
X126148000Y-35048750D01*
X125989250Y-34890000D01*
X125975000Y-34886928D01*
X125850518Y-34899188D01*
X125730820Y-34935498D01*
X125640000Y-34984043D01*
X125549180Y-34935498D01*
X125429482Y-34899188D01*
X125305000Y-34886928D01*
X125290750Y-34890000D01*
X125132000Y-35048750D01*
X124878000Y-35048750D01*
X124719250Y-34890000D01*
X124705000Y-34886928D01*
X124580518Y-34899188D01*
X124460820Y-34935498D01*
X124370000Y-34984043D01*
X124279180Y-34935498D01*
X124159482Y-34899188D01*
X124035000Y-34886928D01*
X124020750Y-34890000D01*
X123862000Y-35048750D01*
X123608000Y-35048750D01*
X123449250Y-34890000D01*
X123435000Y-34886928D01*
X123310518Y-34899188D01*
X123190820Y-34935498D01*
X123080506Y-34994463D01*
X123050936Y-35018730D01*
X122916582Y-34946916D01*
X122768745Y-34902071D01*
X122615000Y-34886928D01*
X122315000Y-34886928D01*
X122161255Y-34902071D01*
X122013418Y-34946916D01*
X121877171Y-35019742D01*
X121830000Y-35058454D01*
X121782829Y-35019742D01*
X121646582Y-34946916D01*
X121593874Y-34930928D01*
X121764802Y-34760000D01*
X128285199Y-34760000D01*
X128440000Y-34914802D01*
X128440000Y-35298945D01*
X128434502Y-35280820D01*
X128375537Y-35170506D01*
X128296185Y-35073815D01*
X128199494Y-34994463D01*
X128089180Y-34935498D01*
X127969482Y-34899188D01*
X127845000Y-34886928D01*
X127830750Y-34890000D01*
X127672000Y-35048750D01*
X127672000Y-36423000D01*
X127692000Y-36423000D01*
X127692000Y-36677000D01*
X127672000Y-36677000D01*
X127672000Y-38051250D01*
X127830750Y-38210000D01*
X127845000Y-38213072D01*
X127969482Y-38200812D01*
X128089180Y-38164502D01*
X128199494Y-38105537D01*
X128296185Y-38026185D01*
X128375537Y-37929494D01*
X128434502Y-37819180D01*
X128440000Y-37801055D01*
X128440000Y-44598945D01*
X128434502Y-44580820D01*
X128375537Y-44470506D01*
X128296185Y-44373815D01*
X128199494Y-44294463D01*
X128089180Y-44235498D01*
X127969482Y-44199188D01*
X127845000Y-44186928D01*
X127830750Y-44190000D01*
X127672000Y-44348750D01*
X127672000Y-45723000D01*
X127692000Y-45723000D01*
X127692000Y-45977000D01*
X127672000Y-45977000D01*
X127672000Y-47351250D01*
X127830750Y-47510000D01*
X127845000Y-47513072D01*
X127969482Y-47500812D01*
X128089180Y-47464502D01*
X128199494Y-47405537D01*
X128296185Y-47326185D01*
X128375537Y-47229494D01*
X128434502Y-47119180D01*
X128440000Y-47101055D01*
X128440001Y-59865199D01*
X125008804Y-56434003D01*
X124988072Y-56408741D01*
X124988072Y-55195000D01*
X124975812Y-55070518D01*
X124939502Y-54950820D01*
X124880537Y-54840506D01*
X124801185Y-54743815D01*
X124704494Y-54664463D01*
X124594180Y-54605498D01*
X124474482Y-54569188D01*
X124350000Y-54556928D01*
X121286730Y-54556928D01*
X120629802Y-53900000D01*
X124886928Y-53900000D01*
X124899188Y-54024482D01*
X124935498Y-54144180D01*
X124994463Y-54254494D01*
X125073815Y-54351185D01*
X125170506Y-54430537D01*
X125280820Y-54489502D01*
X125400518Y-54525812D01*
X125525000Y-54538072D01*
X126114250Y-54535000D01*
X126273000Y-54376250D01*
X126273000Y-53377000D01*
X126527000Y-53377000D01*
X126527000Y-54376250D01*
X126685750Y-54535000D01*
X127275000Y-54538072D01*
X127399482Y-54525812D01*
X127519180Y-54489502D01*
X127629494Y-54430537D01*
X127726185Y-54351185D01*
X127805537Y-54254494D01*
X127864502Y-54144180D01*
X127900812Y-54024482D01*
X127913072Y-53900000D01*
X127910000Y-53535750D01*
X127751250Y-53377000D01*
X126527000Y-53377000D01*
X126273000Y-53377000D01*
X125048750Y-53377000D01*
X124890000Y-53535750D01*
X124886928Y-53900000D01*
X120629802Y-53900000D01*
X119553872Y-52824071D01*
X119608816Y-52835000D01*
X119911184Y-52835000D01*
X120207743Y-52776011D01*
X120487095Y-52660299D01*
X120738505Y-52492312D01*
X120804944Y-52425873D01*
X120810498Y-52444180D01*
X120869463Y-52554494D01*
X120948815Y-52651185D01*
X121045506Y-52730537D01*
X121155820Y-52789502D01*
X121275518Y-52825812D01*
X121400000Y-52838072D01*
X123200000Y-52838072D01*
X123324482Y-52825812D01*
X123444180Y-52789502D01*
X123554494Y-52730537D01*
X123651185Y-52651185D01*
X123730537Y-52554494D01*
X123789502Y-52444180D01*
X123825812Y-52324482D01*
X123838072Y-52200000D01*
X123838072Y-52060000D01*
X125188210Y-52060000D01*
X125170506Y-52069463D01*
X125073815Y-52148815D01*
X124994463Y-52245506D01*
X124935498Y-52355820D01*
X124899188Y-52475518D01*
X124886928Y-52600000D01*
X124890000Y-52964250D01*
X125048750Y-53123000D01*
X126273000Y-53123000D01*
X126273000Y-52123750D01*
X126527000Y-52123750D01*
X126527000Y-53123000D01*
X127751250Y-53123000D01*
X127910000Y-52964250D01*
X127913072Y-52600000D01*
X127900812Y-52475518D01*
X127864502Y-52355820D01*
X127805537Y-52245506D01*
X127726185Y-52148815D01*
X127629494Y-52069463D01*
X127519180Y-52010498D01*
X127399482Y-51974188D01*
X127275000Y-51961928D01*
X126685750Y-51965000D01*
X126527000Y-52123750D01*
X126273000Y-52123750D01*
X126114250Y-51965000D01*
X125622895Y-51962438D01*
X125674276Y-51934974D01*
X125790001Y-51840001D01*
X125813804Y-51810997D01*
X126186729Y-51438072D01*
X127025000Y-51438072D01*
X127198254Y-51421008D01*
X127364850Y-51370472D01*
X127518386Y-51288405D01*
X127652962Y-51177962D01*
X127763405Y-51043386D01*
X127845472Y-50889850D01*
X127896008Y-50723254D01*
X127913072Y-50550000D01*
X127913072Y-49750000D01*
X127896008Y-49576746D01*
X127845472Y-49410150D01*
X127763405Y-49256614D01*
X127652962Y-49122038D01*
X127518386Y-49011595D01*
X127364850Y-48929528D01*
X127198254Y-48878992D01*
X127025000Y-48861928D01*
X125775000Y-48861928D01*
X125601746Y-48878992D01*
X125435150Y-48929528D01*
X125281614Y-49011595D01*
X125147038Y-49122038D01*
X125036595Y-49256614D01*
X124954528Y-49410150D01*
X124903992Y-49576746D01*
X124886928Y-49750000D01*
X124886928Y-50540000D01*
X123838072Y-50540000D01*
X123838072Y-50400000D01*
X123825812Y-50275518D01*
X123789502Y-50155820D01*
X123730537Y-50045506D01*
X123651185Y-49948815D01*
X123554494Y-49869463D01*
X123444180Y-49810498D01*
X123324482Y-49774188D01*
X123200000Y-49761928D01*
X121400000Y-49761928D01*
X121275518Y-49774188D01*
X121155820Y-49810498D01*
X121045506Y-49869463D01*
X120948815Y-49948815D01*
X120869463Y-50045506D01*
X120810498Y-50155820D01*
X120804944Y-50174127D01*
X120738505Y-50107688D01*
X120487095Y-49939701D01*
X120207743Y-49823989D01*
X119911184Y-49765000D01*
X119608816Y-49765000D01*
X119312257Y-49823989D01*
X119032905Y-49939701D01*
X118781495Y-50107688D01*
X118567688Y-50321495D01*
X118399701Y-50572905D01*
X118283989Y-50852257D01*
X118225000Y-51148816D01*
X118225000Y-51451184D01*
X118235929Y-51506128D01*
X118160000Y-51430199D01*
X118160000Y-49114801D01*
X118314802Y-48960000D01*
X119832678Y-48960000D01*
X119870000Y-48963676D01*
X119907322Y-48960000D01*
X119907333Y-48960000D01*
X120018986Y-48949003D01*
X120162247Y-48905546D01*
X120294276Y-48834974D01*
X120410001Y-48740001D01*
X120433804Y-48710997D01*
X121706004Y-47438798D01*
X121735001Y-47415001D01*
X121748420Y-47398650D01*
X121780936Y-47381270D01*
X121810506Y-47405537D01*
X121920820Y-47464502D01*
X122040518Y-47500812D01*
X122165000Y-47513072D01*
X122179250Y-47510000D01*
X122338000Y-47351250D01*
X122338000Y-45977000D01*
X122592000Y-45977000D01*
X122592000Y-47351250D01*
X122750750Y-47510000D01*
X122765000Y-47513072D01*
X122889482Y-47500812D01*
X123009180Y-47464502D01*
X123100000Y-47415957D01*
X123190820Y-47464502D01*
X123310518Y-47500812D01*
X123435000Y-47513072D01*
X123449250Y-47510000D01*
X123608000Y-47351250D01*
X123608000Y-45977000D01*
X123862000Y-45977000D01*
X123862000Y-47351250D01*
X124020750Y-47510000D01*
X124035000Y-47513072D01*
X124159482Y-47500812D01*
X124279180Y-47464502D01*
X124370000Y-47415957D01*
X124460820Y-47464502D01*
X124580518Y-47500812D01*
X124705000Y-47513072D01*
X124719250Y-47510000D01*
X124878000Y-47351250D01*
X124878000Y-45977000D01*
X125132000Y-45977000D01*
X125132000Y-47351250D01*
X125290750Y-47510000D01*
X125305000Y-47513072D01*
X125429482Y-47500812D01*
X125549180Y-47464502D01*
X125640000Y-47415957D01*
X125730820Y-47464502D01*
X125850518Y-47500812D01*
X125975000Y-47513072D01*
X125989250Y-47510000D01*
X126148000Y-47351250D01*
X126148000Y-45977000D01*
X126402000Y-45977000D01*
X126402000Y-47351250D01*
X126560750Y-47510000D01*
X126575000Y-47513072D01*
X126699482Y-47500812D01*
X126819180Y-47464502D01*
X126910000Y-47415957D01*
X127000820Y-47464502D01*
X127120518Y-47500812D01*
X127245000Y-47513072D01*
X127259250Y-47510000D01*
X127418000Y-47351250D01*
X127418000Y-45977000D01*
X126402000Y-45977000D01*
X126148000Y-45977000D01*
X125132000Y-45977000D01*
X124878000Y-45977000D01*
X123862000Y-45977000D01*
X123608000Y-45977000D01*
X122592000Y-45977000D01*
X122338000Y-45977000D01*
X122318000Y-45977000D01*
X122318000Y-45723000D01*
X122338000Y-45723000D01*
X122338000Y-44348750D01*
X122592000Y-44348750D01*
X122592000Y-45723000D01*
X123608000Y-45723000D01*
X123608000Y-44348750D01*
X123862000Y-44348750D01*
X123862000Y-45723000D01*
X124878000Y-45723000D01*
X124878000Y-44348750D01*
X125132000Y-44348750D01*
X125132000Y-45723000D01*
X126148000Y-45723000D01*
X126148000Y-44348750D01*
X126402000Y-44348750D01*
X126402000Y-45723000D01*
X127418000Y-45723000D01*
X127418000Y-44348750D01*
X127259250Y-44190000D01*
X127245000Y-44186928D01*
X127120518Y-44199188D01*
X127000820Y-44235498D01*
X126910000Y-44284043D01*
X126819180Y-44235498D01*
X126699482Y-44199188D01*
X126575000Y-44186928D01*
X126560750Y-44190000D01*
X126402000Y-44348750D01*
X126148000Y-44348750D01*
X125989250Y-44190000D01*
X125975000Y-44186928D01*
X125850518Y-44199188D01*
X125730820Y-44235498D01*
X125640000Y-44284043D01*
X125549180Y-44235498D01*
X125429482Y-44199188D01*
X125305000Y-44186928D01*
X125290750Y-44190000D01*
X125132000Y-44348750D01*
X124878000Y-44348750D01*
X124719250Y-44190000D01*
X124705000Y-44186928D01*
X124580518Y-44199188D01*
X124460820Y-44235498D01*
X124370000Y-44284043D01*
X124279180Y-44235498D01*
X124159482Y-44199188D01*
X124035000Y-44186928D01*
X124020750Y-44190000D01*
X123862000Y-44348750D01*
X123608000Y-44348750D01*
X123449250Y-44190000D01*
X123435000Y-44186928D01*
X123310518Y-44199188D01*
X123190820Y-44235498D01*
X123100000Y-44284043D01*
X123009180Y-44235498D01*
X122889482Y-44199188D01*
X122765000Y-44186928D01*
X122750750Y-44190000D01*
X122592000Y-44348750D01*
X122338000Y-44348750D01*
X122179250Y-44190000D01*
X122165000Y-44186928D01*
X122040518Y-44199188D01*
X121920820Y-44235498D01*
X121810506Y-44294463D01*
X121780936Y-44318730D01*
X121646582Y-44246916D01*
X121498745Y-44202071D01*
X121345000Y-44186928D01*
X121045000Y-44186928D01*
X120891255Y-44202071D01*
X120743418Y-44246916D01*
X120607171Y-44319742D01*
X120560000Y-44358454D01*
X120512829Y-44319742D01*
X120376582Y-44246916D01*
X120228745Y-44202071D01*
X120075000Y-44186928D01*
X119775000Y-44186928D01*
X119621255Y-44202071D01*
X119473418Y-44246916D01*
X119337171Y-44319742D01*
X119290000Y-44358454D01*
X119242829Y-44319742D01*
X119106582Y-44246916D01*
X118958745Y-44202071D01*
X118805000Y-44186928D01*
X118505000Y-44186928D01*
X118351255Y-44202071D01*
X118203418Y-44246916D01*
X118153434Y-44273633D01*
X116668804Y-42789003D01*
X116645001Y-42759999D01*
X116529276Y-42665026D01*
X116397247Y-42594454D01*
X116253986Y-42550997D01*
X116142333Y-42540000D01*
X116142322Y-42540000D01*
X116105000Y-42536324D01*
X116067678Y-42540000D01*
X115979262Y-42540000D01*
X115979853Y-42538574D01*
X116035000Y-42261335D01*
X116035000Y-41978665D01*
X115979853Y-41701426D01*
X115871680Y-41440273D01*
X115714637Y-41205241D01*
X115514759Y-41005363D01*
X115282241Y-40850000D01*
X115514759Y-40694637D01*
X115714637Y-40494759D01*
X115871680Y-40259727D01*
X115979853Y-39998574D01*
X116035000Y-39721335D01*
X116035000Y-39438665D01*
X115979853Y-39161426D01*
X115871680Y-38900273D01*
X115714637Y-38665241D01*
X115514759Y-38465363D01*
X115282241Y-38310000D01*
X115514759Y-38154637D01*
X115714637Y-37954759D01*
X115871680Y-37719727D01*
X115979853Y-37458574D01*
X116035000Y-37181335D01*
X116035000Y-36898665D01*
X115979853Y-36621426D01*
X115871680Y-36360273D01*
X115714637Y-36125241D01*
X115514759Y-35925363D01*
X115279727Y-35768320D01*
X115018574Y-35660147D01*
X114741335Y-35605000D01*
X114458665Y-35605000D01*
X114181426Y-35660147D01*
X113920273Y-35768320D01*
X113685241Y-35925363D01*
X113485363Y-36125241D01*
X113328320Y-36360273D01*
X113220147Y-36621426D01*
X113165000Y-36898665D01*
X113165000Y-37181335D01*
X113220147Y-37458574D01*
X113328320Y-37719727D01*
X113485363Y-37954759D01*
X113685241Y-38154637D01*
X113917759Y-38310000D01*
X113685241Y-38465363D01*
X113485363Y-38665241D01*
X113328320Y-38900273D01*
X113220147Y-39161426D01*
X113165000Y-39438665D01*
X113165000Y-39721335D01*
X113220147Y-39998574D01*
X113328320Y-40259727D01*
X113485363Y-40494759D01*
X113685241Y-40694637D01*
X113917759Y-40850000D01*
X113685241Y-41005363D01*
X113485363Y-41205241D01*
X113328320Y-41440273D01*
X113220147Y-41701426D01*
X113165000Y-41978665D01*
X113165000Y-42261335D01*
X113220147Y-42538574D01*
X113220738Y-42540000D01*
X112837322Y-42540000D01*
X112800000Y-42536324D01*
X112762677Y-42540000D01*
X112762667Y-42540000D01*
X112651014Y-42550997D01*
X112507753Y-42594454D01*
X112375723Y-42665026D01*
X112292083Y-42733668D01*
X112259999Y-42759999D01*
X112236201Y-42788997D01*
X111060000Y-43965199D01*
X111060000Y-34914801D01*
X111214802Y-34760000D01*
X118085199Y-34760000D01*
X118256126Y-34930927D01*
G37*
%TD.AperFunction*%
D23*
X105350843Y-34263144D02*
X105123250Y-34265000D01*
X104964500Y-34423750D01*
X104964500Y-35673000D01*
X105976250Y-35673000D01*
X106135000Y-35514250D01*
X106137324Y-35049625D01*
X106661928Y-35574230D01*
X106661928Y-36450001D01*
X106678992Y-36623255D01*
X106729528Y-36789851D01*
X106811595Y-36943387D01*
X106922038Y-37077962D01*
X107056613Y-37188405D01*
X107210149Y-37270472D01*
X107376745Y-37321008D01*
X107549999Y-37338072D01*
X108375001Y-37338072D01*
X108548255Y-37321008D01*
X108714851Y-37270472D01*
X108868387Y-37188405D01*
X109002962Y-37077962D01*
X109113405Y-36943387D01*
X109195472Y-36789851D01*
X109246008Y-36623255D01*
X109263072Y-36450001D01*
X109263072Y-35574229D01*
X109540001Y-35297300D01*
X109540001Y-43365199D01*
X105243804Y-39069003D01*
X105220001Y-39039999D01*
X105104276Y-38945026D01*
X104972247Y-38874454D01*
X104828986Y-38830997D01*
X104717333Y-38820000D01*
X104717322Y-38820000D01*
X104680000Y-38816324D01*
X104642678Y-38820000D01*
X100578043Y-38820000D01*
X100474637Y-38665241D01*
X100274759Y-38465363D01*
X100042241Y-38310000D01*
X100274759Y-38154637D01*
X100474637Y-37954759D01*
X100631680Y-37719727D01*
X100739853Y-37458574D01*
X100795000Y-37181335D01*
X100795000Y-36898665D01*
X100755483Y-36700000D01*
X103536928Y-36700000D01*
X103549188Y-36824482D01*
X103585498Y-36944180D01*
X103644463Y-37054494D01*
X103723815Y-37151185D01*
X103820506Y-37230537D01*
X103930820Y-37289502D01*
X104050518Y-37325812D01*
X104175000Y-37338072D01*
X104551750Y-37335000D01*
X104710500Y-37176250D01*
X104710500Y-35927000D01*
X104964500Y-35927000D01*
X104964500Y-37176250D01*
X105123250Y-37335000D01*
X105500000Y-37338072D01*
X105624482Y-37325812D01*
X105744180Y-37289502D01*
X105854494Y-37230537D01*
X105951185Y-37151185D01*
X106030537Y-37054494D01*
X106089502Y-36944180D01*
X106125812Y-36824482D01*
X106138072Y-36700000D01*
X106135000Y-36085750D01*
X105976250Y-35927000D01*
X104964500Y-35927000D01*
X104710500Y-35927000D01*
X103698750Y-35927000D01*
X103540000Y-36085750D01*
X103536928Y-36700000D01*
X100755483Y-36700000D01*
X100739853Y-36621426D01*
X100631680Y-36360273D01*
X100474637Y-36125241D01*
X100274759Y-35925363D01*
X100039727Y-35768320D01*
X99778574Y-35660147D01*
X99501335Y-35605000D01*
X99218665Y-35605000D01*
X98941426Y-35660147D01*
X98680273Y-35768320D01*
X98445241Y-35925363D01*
X98360000Y-36010604D01*
X98360000Y-34900000D01*
X103536928Y-34900000D01*
X103540000Y-35514250D01*
X103698750Y-35673000D01*
X104710500Y-35673000D01*
X104710500Y-34423750D01*
X104551750Y-34265000D01*
X104175000Y-34261928D01*
X104050518Y-34274188D01*
X103930820Y-34310498D01*
X103820506Y-34369463D01*
X103723815Y-34448815D01*
X103644463Y-34545506D01*
X103585498Y-34655820D01*
X103549188Y-34775518D01*
X103536928Y-34900000D01*
X98360000Y-34900000D01*
X98360000Y-33960000D01*
X105047699Y-33960000D01*
X105350843Y-34263144D01*
%TA.AperFunction,Conductor*%
D24*
G36*
X105350843Y-34263144D02*
G01*
X105123250Y-34265000D01*
X104964500Y-34423750D01*
X104964500Y-35673000D01*
X105976250Y-35673000D01*
X106135000Y-35514250D01*
X106137324Y-35049625D01*
X106661928Y-35574230D01*
X106661928Y-36450001D01*
X106678992Y-36623255D01*
X106729528Y-36789851D01*
X106811595Y-36943387D01*
X106922038Y-37077962D01*
X107056613Y-37188405D01*
X107210149Y-37270472D01*
X107376745Y-37321008D01*
X107549999Y-37338072D01*
X108375001Y-37338072D01*
X108548255Y-37321008D01*
X108714851Y-37270472D01*
X108868387Y-37188405D01*
X109002962Y-37077962D01*
X109113405Y-36943387D01*
X109195472Y-36789851D01*
X109246008Y-36623255D01*
X109263072Y-36450001D01*
X109263072Y-35574229D01*
X109540001Y-35297300D01*
X109540001Y-43365199D01*
X105243804Y-39069003D01*
X105220001Y-39039999D01*
X105104276Y-38945026D01*
X104972247Y-38874454D01*
X104828986Y-38830997D01*
X104717333Y-38820000D01*
X104717322Y-38820000D01*
X104680000Y-38816324D01*
X104642678Y-38820000D01*
X100578043Y-38820000D01*
X100474637Y-38665241D01*
X100274759Y-38465363D01*
X100042241Y-38310000D01*
X100274759Y-38154637D01*
X100474637Y-37954759D01*
X100631680Y-37719727D01*
X100739853Y-37458574D01*
X100795000Y-37181335D01*
X100795000Y-36898665D01*
X100755483Y-36700000D01*
X103536928Y-36700000D01*
X103549188Y-36824482D01*
X103585498Y-36944180D01*
X103644463Y-37054494D01*
X103723815Y-37151185D01*
X103820506Y-37230537D01*
X103930820Y-37289502D01*
X104050518Y-37325812D01*
X104175000Y-37338072D01*
X104551750Y-37335000D01*
X104710500Y-37176250D01*
X104710500Y-35927000D01*
X104964500Y-35927000D01*
X104964500Y-37176250D01*
X105123250Y-37335000D01*
X105500000Y-37338072D01*
X105624482Y-37325812D01*
X105744180Y-37289502D01*
X105854494Y-37230537D01*
X105951185Y-37151185D01*
X106030537Y-37054494D01*
X106089502Y-36944180D01*
X106125812Y-36824482D01*
X106138072Y-36700000D01*
X106135000Y-36085750D01*
X105976250Y-35927000D01*
X104964500Y-35927000D01*
X104710500Y-35927000D01*
X103698750Y-35927000D01*
X103540000Y-36085750D01*
X103536928Y-36700000D01*
X100755483Y-36700000D01*
X100739853Y-36621426D01*
X100631680Y-36360273D01*
X100474637Y-36125241D01*
X100274759Y-35925363D01*
X100039727Y-35768320D01*
X99778574Y-35660147D01*
X99501335Y-35605000D01*
X99218665Y-35605000D01*
X98941426Y-35660147D01*
X98680273Y-35768320D01*
X98445241Y-35925363D01*
X98360000Y-36010604D01*
X98360000Y-34900000D01*
X103536928Y-34900000D01*
X103540000Y-35514250D01*
X103698750Y-35673000D01*
X104710500Y-35673000D01*
X104710500Y-34423750D01*
X104551750Y-34265000D01*
X104175000Y-34261928D01*
X104050518Y-34274188D01*
X103930820Y-34310498D01*
X103820506Y-34369463D01*
X103723815Y-34448815D01*
X103644463Y-34545506D01*
X103585498Y-34655820D01*
X103549188Y-34775518D01*
X103536928Y-34900000D01*
X98360000Y-34900000D01*
X98360000Y-33960000D01*
X105047699Y-33960000D01*
X105350843Y-34263144D01*
G37*
%TD.AperFunction*%
D23*
X129140000Y-29767581D02*
X129140000Y-33459998D01*
X129024276Y-33365026D01*
X128892247Y-33294454D01*
X128748986Y-33250997D01*
X128637333Y-33240000D01*
X128637322Y-33240000D01*
X128600000Y-33236324D01*
X128562678Y-33240000D01*
X121487325Y-33240000D01*
X121450000Y-33236324D01*
X121412675Y-33240000D01*
X121412667Y-33240000D01*
X121301014Y-33250997D01*
X121157753Y-33294454D01*
X121025724Y-33365026D01*
X120909999Y-33459999D01*
X120886201Y-33488997D01*
X119925000Y-34450198D01*
X119335027Y-33860226D01*
X119337322Y-33860000D01*
X119337333Y-33860000D01*
X119448986Y-33849003D01*
X119592247Y-33805546D01*
X119724276Y-33734974D01*
X119840001Y-33640001D01*
X119863804Y-33610997D01*
X121179003Y-32295799D01*
X121208001Y-32272001D01*
X121234332Y-32239917D01*
X121302974Y-32156277D01*
X121373546Y-32024247D01*
X121387296Y-31978918D01*
X121417003Y-31880986D01*
X121428000Y-31769333D01*
X121428000Y-31769324D01*
X121431676Y-31732001D01*
X121428000Y-31694678D01*
X121428000Y-31172074D01*
X121494790Y-31127446D01*
X121675446Y-30946790D01*
X121684000Y-30933988D01*
X121692554Y-30946790D01*
X121873210Y-31127446D01*
X122085640Y-31269387D01*
X122321679Y-31367157D01*
X122572257Y-31417000D01*
X122827743Y-31417000D01*
X123078321Y-31367157D01*
X123314360Y-31269387D01*
X123526790Y-31127446D01*
X123707446Y-30946790D01*
X123716000Y-30933988D01*
X123724554Y-30946790D01*
X123905210Y-31127446D01*
X124117640Y-31269387D01*
X124353679Y-31367157D01*
X124604257Y-31417000D01*
X124859743Y-31417000D01*
X125110321Y-31367157D01*
X125346360Y-31269387D01*
X125558790Y-31127446D01*
X125607406Y-31078830D01*
X125640513Y-31187968D01*
X125765592Y-31421973D01*
X125933919Y-31627080D01*
X126139026Y-31795408D01*
X126373031Y-31920487D01*
X126626942Y-31997510D01*
X126891000Y-32023517D01*
X127155057Y-31997510D01*
X127408968Y-31920487D01*
X127642973Y-31795408D01*
X127848080Y-31627081D01*
X128016408Y-31421974D01*
X128141487Y-31187969D01*
X128218510Y-30934058D01*
X128238000Y-30736169D01*
X128238000Y-29503831D01*
X128218510Y-29305942D01*
X128141487Y-29052031D01*
X128016408Y-28818026D01*
X127848081Y-28612919D01*
X127642974Y-28444592D01*
X127408969Y-28319513D01*
X127155058Y-28242490D01*
X126891000Y-28216483D01*
X126626943Y-28242490D01*
X126373032Y-28319513D01*
X126139027Y-28444592D01*
X125933920Y-28612919D01*
X125765592Y-28818026D01*
X125640513Y-29052031D01*
X125607406Y-29161170D01*
X125558790Y-29112554D01*
X125346360Y-28970613D01*
X125110321Y-28872843D01*
X124859743Y-28823000D01*
X124604257Y-28823000D01*
X124353679Y-28872843D01*
X124117640Y-28970613D01*
X123905210Y-29112554D01*
X123724554Y-29293210D01*
X123716000Y-29306012D01*
X123707446Y-29293210D01*
X123526790Y-29112554D01*
X123314360Y-28970613D01*
X123078321Y-28872843D01*
X122827743Y-28823000D01*
X122572257Y-28823000D01*
X122321679Y-28872843D01*
X122085640Y-28970613D01*
X121873210Y-29112554D01*
X121692554Y-29293210D01*
X121684000Y-29306012D01*
X121675446Y-29293210D01*
X121494790Y-29112554D01*
X121282360Y-28970613D01*
X121046321Y-28872843D01*
X120795743Y-28823000D01*
X120540257Y-28823000D01*
X120289679Y-28872843D01*
X120053640Y-28970613D01*
X119841210Y-29112554D01*
X119792594Y-29161170D01*
X119759487Y-29052031D01*
X119634408Y-28818026D01*
X119466081Y-28612919D01*
X119260974Y-28444592D01*
X119026969Y-28319513D01*
X118773058Y-28242490D01*
X118509000Y-28216483D01*
X118244943Y-28242490D01*
X117991032Y-28319513D01*
X117757027Y-28444592D01*
X117551920Y-28612919D01*
X117383592Y-28818026D01*
X117258513Y-29052031D01*
X117181490Y-29305942D01*
X117162000Y-29503831D01*
X117162000Y-30736168D01*
X117181490Y-30934057D01*
X117258513Y-31187968D01*
X117383592Y-31421973D01*
X117551919Y-31627080D01*
X117757026Y-31795408D01*
X117991031Y-31920487D01*
X118244942Y-31997510D01*
X118509000Y-32023517D01*
X118773057Y-31997510D01*
X119026968Y-31920487D01*
X119260973Y-31795408D01*
X119466080Y-31627081D01*
X119634408Y-31421974D01*
X119759487Y-31187969D01*
X119792594Y-31078830D01*
X119841210Y-31127446D01*
X119908001Y-31172074D01*
X119908001Y-31417197D01*
X118985199Y-32340000D01*
X110699833Y-32340000D01*
X110662500Y-32336323D01*
X110625167Y-32340000D01*
X110513514Y-32350997D01*
X110370253Y-32394454D01*
X110238224Y-32465026D01*
X110122499Y-32559999D01*
X110098701Y-32588997D01*
X108421219Y-34266480D01*
X108375001Y-34261928D01*
X107549999Y-34261928D01*
X107503782Y-34266480D01*
X105926304Y-32689003D01*
X105902501Y-32659999D01*
X105786776Y-32565026D01*
X105654747Y-32494454D01*
X105511486Y-32450997D01*
X105399833Y-32440000D01*
X105399822Y-32440000D01*
X105362500Y-32436324D01*
X105325178Y-32440000D01*
X97860000Y-32440000D01*
X97860000Y-31530000D01*
X103061928Y-31530000D01*
X103074188Y-31654482D01*
X103110498Y-31774180D01*
X103169463Y-31884494D01*
X103248815Y-31981185D01*
X103345506Y-32060537D01*
X103455820Y-32119502D01*
X103575518Y-32155812D01*
X103700000Y-32168072D01*
X104414250Y-32165000D01*
X104573000Y-32006250D01*
X104573000Y-30657000D01*
X104827000Y-30657000D01*
X104827000Y-32006250D01*
X104985750Y-32165000D01*
X105700000Y-32168072D01*
X105824482Y-32155812D01*
X105944180Y-32119502D01*
X106054494Y-32060537D01*
X106151185Y-31981185D01*
X106230537Y-31884494D01*
X106289502Y-31774180D01*
X106325812Y-31654482D01*
X106338072Y-31530000D01*
X106335000Y-30815750D01*
X106176250Y-30657000D01*
X104827000Y-30657000D01*
X104573000Y-30657000D01*
X103223750Y-30657000D01*
X103065000Y-30815750D01*
X103061928Y-31530000D01*
X97860000Y-31530000D01*
X97860000Y-29530000D01*
X103061928Y-29530000D01*
X103065000Y-30244250D01*
X103223750Y-30403000D01*
X104573000Y-30403000D01*
X104573000Y-29053750D01*
X104827000Y-29053750D01*
X104827000Y-30403000D01*
X106176250Y-30403000D01*
X106210283Y-30368967D01*
X107875000Y-30368967D01*
X107875000Y-30691033D01*
X107937832Y-31006912D01*
X108061082Y-31304463D01*
X108240013Y-31572252D01*
X108467748Y-31799987D01*
X108735537Y-31978918D01*
X109033088Y-32102168D01*
X109348967Y-32165000D01*
X109671033Y-32165000D01*
X109986912Y-32102168D01*
X110284463Y-31978918D01*
X110552252Y-31799987D01*
X110779987Y-31572252D01*
X110958918Y-31304463D01*
X111082168Y-31006912D01*
X111145000Y-30691033D01*
X111145000Y-30368967D01*
X111082168Y-30053088D01*
X110958918Y-29755537D01*
X110779987Y-29487748D01*
X110552252Y-29260013D01*
X110284463Y-29081082D01*
X109986912Y-28957832D01*
X109671033Y-28895000D01*
X109348967Y-28895000D01*
X109033088Y-28957832D01*
X108735537Y-29081082D01*
X108467748Y-29260013D01*
X108240013Y-29487748D01*
X108061082Y-29755537D01*
X107937832Y-30053088D01*
X107875000Y-30368967D01*
X106210283Y-30368967D01*
X106335000Y-30244250D01*
X106338072Y-29530000D01*
X106325812Y-29405518D01*
X106289502Y-29285820D01*
X106230537Y-29175506D01*
X106151185Y-29078815D01*
X106054494Y-28999463D01*
X105944180Y-28940498D01*
X105824482Y-28904188D01*
X105700000Y-28891928D01*
X104985750Y-28895000D01*
X104827000Y-29053750D01*
X104573000Y-29053750D01*
X104414250Y-28895000D01*
X103700000Y-28891928D01*
X103575518Y-28904188D01*
X103455820Y-28940498D01*
X103345506Y-28999463D01*
X103248815Y-29078815D01*
X103169463Y-29175506D01*
X103110498Y-29285820D01*
X103074188Y-29405518D01*
X103061928Y-29530000D01*
X97860000Y-29530000D01*
X97860000Y-27660000D01*
X129140001Y-27660000D01*
X129140000Y-29767581D01*
%TA.AperFunction,Conductor*%
D24*
G36*
X129140000Y-29767581D02*
G01*
X129140000Y-33459998D01*
X129024276Y-33365026D01*
X128892247Y-33294454D01*
X128748986Y-33250997D01*
X128637333Y-33240000D01*
X128637322Y-33240000D01*
X128600000Y-33236324D01*
X128562678Y-33240000D01*
X121487325Y-33240000D01*
X121450000Y-33236324D01*
X121412675Y-33240000D01*
X121412667Y-33240000D01*
X121301014Y-33250997D01*
X121157753Y-33294454D01*
X121025724Y-33365026D01*
X120909999Y-33459999D01*
X120886201Y-33488997D01*
X119925000Y-34450198D01*
X119335027Y-33860226D01*
X119337322Y-33860000D01*
X119337333Y-33860000D01*
X119448986Y-33849003D01*
X119592247Y-33805546D01*
X119724276Y-33734974D01*
X119840001Y-33640001D01*
X119863804Y-33610997D01*
X121179003Y-32295799D01*
X121208001Y-32272001D01*
X121234332Y-32239917D01*
X121302974Y-32156277D01*
X121373546Y-32024247D01*
X121387296Y-31978918D01*
X121417003Y-31880986D01*
X121428000Y-31769333D01*
X121428000Y-31769324D01*
X121431676Y-31732001D01*
X121428000Y-31694678D01*
X121428000Y-31172074D01*
X121494790Y-31127446D01*
X121675446Y-30946790D01*
X121684000Y-30933988D01*
X121692554Y-30946790D01*
X121873210Y-31127446D01*
X122085640Y-31269387D01*
X122321679Y-31367157D01*
X122572257Y-31417000D01*
X122827743Y-31417000D01*
X123078321Y-31367157D01*
X123314360Y-31269387D01*
X123526790Y-31127446D01*
X123707446Y-30946790D01*
X123716000Y-30933988D01*
X123724554Y-30946790D01*
X123905210Y-31127446D01*
X124117640Y-31269387D01*
X124353679Y-31367157D01*
X124604257Y-31417000D01*
X124859743Y-31417000D01*
X125110321Y-31367157D01*
X125346360Y-31269387D01*
X125558790Y-31127446D01*
X125607406Y-31078830D01*
X125640513Y-31187968D01*
X125765592Y-31421973D01*
X125933919Y-31627080D01*
X126139026Y-31795408D01*
X126373031Y-31920487D01*
X126626942Y-31997510D01*
X126891000Y-32023517D01*
X127155057Y-31997510D01*
X127408968Y-31920487D01*
X127642973Y-31795408D01*
X127848080Y-31627081D01*
X128016408Y-31421974D01*
X128141487Y-31187969D01*
X128218510Y-30934058D01*
X128238000Y-30736169D01*
X128238000Y-29503831D01*
X128218510Y-29305942D01*
X128141487Y-29052031D01*
X128016408Y-28818026D01*
X127848081Y-28612919D01*
X127642974Y-28444592D01*
X127408969Y-28319513D01*
X127155058Y-28242490D01*
X126891000Y-28216483D01*
X126626943Y-28242490D01*
X126373032Y-28319513D01*
X126139027Y-28444592D01*
X125933920Y-28612919D01*
X125765592Y-28818026D01*
X125640513Y-29052031D01*
X125607406Y-29161170D01*
X125558790Y-29112554D01*
X125346360Y-28970613D01*
X125110321Y-28872843D01*
X124859743Y-28823000D01*
X124604257Y-28823000D01*
X124353679Y-28872843D01*
X124117640Y-28970613D01*
X123905210Y-29112554D01*
X123724554Y-29293210D01*
X123716000Y-29306012D01*
X123707446Y-29293210D01*
X123526790Y-29112554D01*
X123314360Y-28970613D01*
X123078321Y-28872843D01*
X122827743Y-28823000D01*
X122572257Y-28823000D01*
X122321679Y-28872843D01*
X122085640Y-28970613D01*
X121873210Y-29112554D01*
X121692554Y-29293210D01*
X121684000Y-29306012D01*
X121675446Y-29293210D01*
X121494790Y-29112554D01*
X121282360Y-28970613D01*
X121046321Y-28872843D01*
X120795743Y-28823000D01*
X120540257Y-28823000D01*
X120289679Y-28872843D01*
X120053640Y-28970613D01*
X119841210Y-29112554D01*
X119792594Y-29161170D01*
X119759487Y-29052031D01*
X119634408Y-28818026D01*
X119466081Y-28612919D01*
X119260974Y-28444592D01*
X119026969Y-28319513D01*
X118773058Y-28242490D01*
X118509000Y-28216483D01*
X118244943Y-28242490D01*
X117991032Y-28319513D01*
X117757027Y-28444592D01*
X117551920Y-28612919D01*
X117383592Y-28818026D01*
X117258513Y-29052031D01*
X117181490Y-29305942D01*
X117162000Y-29503831D01*
X117162000Y-30736168D01*
X117181490Y-30934057D01*
X117258513Y-31187968D01*
X117383592Y-31421973D01*
X117551919Y-31627080D01*
X117757026Y-31795408D01*
X117991031Y-31920487D01*
X118244942Y-31997510D01*
X118509000Y-32023517D01*
X118773057Y-31997510D01*
X119026968Y-31920487D01*
X119260973Y-31795408D01*
X119466080Y-31627081D01*
X119634408Y-31421974D01*
X119759487Y-31187969D01*
X119792594Y-31078830D01*
X119841210Y-31127446D01*
X119908001Y-31172074D01*
X119908001Y-31417197D01*
X118985199Y-32340000D01*
X110699833Y-32340000D01*
X110662500Y-32336323D01*
X110625167Y-32340000D01*
X110513514Y-32350997D01*
X110370253Y-32394454D01*
X110238224Y-32465026D01*
X110122499Y-32559999D01*
X110098701Y-32588997D01*
X108421219Y-34266480D01*
X108375001Y-34261928D01*
X107549999Y-34261928D01*
X107503782Y-34266480D01*
X105926304Y-32689003D01*
X105902501Y-32659999D01*
X105786776Y-32565026D01*
X105654747Y-32494454D01*
X105511486Y-32450997D01*
X105399833Y-32440000D01*
X105399822Y-32440000D01*
X105362500Y-32436324D01*
X105325178Y-32440000D01*
X97860000Y-32440000D01*
X97860000Y-31530000D01*
X103061928Y-31530000D01*
X103074188Y-31654482D01*
X103110498Y-31774180D01*
X103169463Y-31884494D01*
X103248815Y-31981185D01*
X103345506Y-32060537D01*
X103455820Y-32119502D01*
X103575518Y-32155812D01*
X103700000Y-32168072D01*
X104414250Y-32165000D01*
X104573000Y-32006250D01*
X104573000Y-30657000D01*
X104827000Y-30657000D01*
X104827000Y-32006250D01*
X104985750Y-32165000D01*
X105700000Y-32168072D01*
X105824482Y-32155812D01*
X105944180Y-32119502D01*
X106054494Y-32060537D01*
X106151185Y-31981185D01*
X106230537Y-31884494D01*
X106289502Y-31774180D01*
X106325812Y-31654482D01*
X106338072Y-31530000D01*
X106335000Y-30815750D01*
X106176250Y-30657000D01*
X104827000Y-30657000D01*
X104573000Y-30657000D01*
X103223750Y-30657000D01*
X103065000Y-30815750D01*
X103061928Y-31530000D01*
X97860000Y-31530000D01*
X97860000Y-29530000D01*
X103061928Y-29530000D01*
X103065000Y-30244250D01*
X103223750Y-30403000D01*
X104573000Y-30403000D01*
X104573000Y-29053750D01*
X104827000Y-29053750D01*
X104827000Y-30403000D01*
X106176250Y-30403000D01*
X106210283Y-30368967D01*
X107875000Y-30368967D01*
X107875000Y-30691033D01*
X107937832Y-31006912D01*
X108061082Y-31304463D01*
X108240013Y-31572252D01*
X108467748Y-31799987D01*
X108735537Y-31978918D01*
X109033088Y-32102168D01*
X109348967Y-32165000D01*
X109671033Y-32165000D01*
X109986912Y-32102168D01*
X110284463Y-31978918D01*
X110552252Y-31799987D01*
X110779987Y-31572252D01*
X110958918Y-31304463D01*
X111082168Y-31006912D01*
X111145000Y-30691033D01*
X111145000Y-30368967D01*
X111082168Y-30053088D01*
X110958918Y-29755537D01*
X110779987Y-29487748D01*
X110552252Y-29260013D01*
X110284463Y-29081082D01*
X109986912Y-28957832D01*
X109671033Y-28895000D01*
X109348967Y-28895000D01*
X109033088Y-28957832D01*
X108735537Y-29081082D01*
X108467748Y-29260013D01*
X108240013Y-29487748D01*
X108061082Y-29755537D01*
X107937832Y-30053088D01*
X107875000Y-30368967D01*
X106210283Y-30368967D01*
X106335000Y-30244250D01*
X106338072Y-29530000D01*
X106325812Y-29405518D01*
X106289502Y-29285820D01*
X106230537Y-29175506D01*
X106151185Y-29078815D01*
X106054494Y-28999463D01*
X105944180Y-28940498D01*
X105824482Y-28904188D01*
X105700000Y-28891928D01*
X104985750Y-28895000D01*
X104827000Y-29053750D01*
X104573000Y-29053750D01*
X104414250Y-28895000D01*
X103700000Y-28891928D01*
X103575518Y-28904188D01*
X103455820Y-28940498D01*
X103345506Y-28999463D01*
X103248815Y-29078815D01*
X103169463Y-29175506D01*
X103110498Y-29285820D01*
X103074188Y-29405518D01*
X103061928Y-29530000D01*
X97860000Y-29530000D01*
X97860000Y-27660000D01*
X129140001Y-27660000D01*
X129140000Y-29767581D01*
G37*
%TD.AperFunction*%
%TD*%
M02*
