%TF.GenerationSoftware,KiCad,Pcbnew,(5.1.10)-1*%
%TF.CreationDate,2021-09-08T13:12:46-04:00*%
%TF.ProjectId,Water_sensor,57617465-725f-4736-956e-736f722e6b69,rev?*%
%TF.SameCoordinates,Original*%
%TF.FileFunction,Legend,Top*%
%TF.FilePolarity,Positive*%
%FSLAX46Y46*%
G04 Gerber Fmt 4.6, Leading zero omitted, Abs format (unit mm)*
G04 Created by KiCad (PCBNEW (5.1.10)-1) date 2021-09-08 13:12:46*
%MOMM*%
%LPD*%
G01*
G04 APERTURE LIST*
%ADD10C,0.150000*%
%ADD11C,0.120000*%
G04 APERTURE END LIST*
D10*
X130954190Y-160171380D02*
X130954190Y-160980904D01*
X131001809Y-161076142D01*
X131049428Y-161123761D01*
X131144666Y-161171380D01*
X131335142Y-161171380D01*
X131430380Y-161123761D01*
X131478000Y-161076142D01*
X131525619Y-160980904D01*
X131525619Y-160171380D01*
X132001809Y-160504714D02*
X132001809Y-161171380D01*
X132001809Y-160599952D02*
X132049428Y-160552333D01*
X132144666Y-160504714D01*
X132287523Y-160504714D01*
X132382761Y-160552333D01*
X132430380Y-160647571D01*
X132430380Y-161171380D01*
X132906571Y-161171380D02*
X132906571Y-160504714D01*
X132906571Y-160171380D02*
X132858952Y-160219000D01*
X132906571Y-160266619D01*
X132954190Y-160219000D01*
X132906571Y-160171380D01*
X132906571Y-160266619D01*
X133287523Y-160504714D02*
X133525619Y-161171380D01*
X133763714Y-160504714D01*
X134525619Y-161123761D02*
X134430380Y-161171380D01*
X134239904Y-161171380D01*
X134144666Y-161123761D01*
X134097047Y-161028523D01*
X134097047Y-160647571D01*
X134144666Y-160552333D01*
X134239904Y-160504714D01*
X134430380Y-160504714D01*
X134525619Y-160552333D01*
X134573238Y-160647571D01*
X134573238Y-160742809D01*
X134097047Y-160838047D01*
X135001809Y-161171380D02*
X135001809Y-160504714D01*
X135001809Y-160695190D02*
X135049428Y-160599952D01*
X135097047Y-160552333D01*
X135192285Y-160504714D01*
X135287523Y-160504714D01*
X135573238Y-161123761D02*
X135668476Y-161171380D01*
X135858952Y-161171380D01*
X135954190Y-161123761D01*
X136001809Y-161028523D01*
X136001809Y-160980904D01*
X135954190Y-160885666D01*
X135858952Y-160838047D01*
X135716095Y-160838047D01*
X135620857Y-160790428D01*
X135573238Y-160695190D01*
X135573238Y-160647571D01*
X135620857Y-160552333D01*
X135716095Y-160504714D01*
X135858952Y-160504714D01*
X135954190Y-160552333D01*
X136430380Y-161171380D02*
X136430380Y-160504714D01*
X136430380Y-160171380D02*
X136382761Y-160219000D01*
X136430380Y-160266619D01*
X136478000Y-160219000D01*
X136430380Y-160171380D01*
X136430380Y-160266619D01*
X136763714Y-160504714D02*
X137144666Y-160504714D01*
X136906571Y-160171380D02*
X136906571Y-161028523D01*
X136954190Y-161123761D01*
X137049428Y-161171380D01*
X137144666Y-161171380D01*
X137382761Y-160504714D02*
X137620857Y-161171380D01*
X137858952Y-160504714D02*
X137620857Y-161171380D01*
X137525619Y-161409476D01*
X137478000Y-161457095D01*
X137382761Y-161504714D01*
X139144666Y-161171380D02*
X139049428Y-161123761D01*
X139001809Y-161076142D01*
X138954190Y-160980904D01*
X138954190Y-160695190D01*
X139001809Y-160599952D01*
X139049428Y-160552333D01*
X139144666Y-160504714D01*
X139287523Y-160504714D01*
X139382761Y-160552333D01*
X139430380Y-160599952D01*
X139478000Y-160695190D01*
X139478000Y-160980904D01*
X139430380Y-161076142D01*
X139382761Y-161123761D01*
X139287523Y-161171380D01*
X139144666Y-161171380D01*
X139763714Y-160504714D02*
X140144666Y-160504714D01*
X139906571Y-161171380D02*
X139906571Y-160314238D01*
X139954190Y-160219000D01*
X140049428Y-160171380D01*
X140144666Y-160171380D01*
X141192285Y-161123761D02*
X141335142Y-161171380D01*
X141573238Y-161171380D01*
X141668476Y-161123761D01*
X141716095Y-161076142D01*
X141763714Y-160980904D01*
X141763714Y-160885666D01*
X141716095Y-160790428D01*
X141668476Y-160742809D01*
X141573238Y-160695190D01*
X141382761Y-160647571D01*
X141287523Y-160599952D01*
X141239904Y-160552333D01*
X141192285Y-160457095D01*
X141192285Y-160361857D01*
X141239904Y-160266619D01*
X141287523Y-160219000D01*
X141382761Y-160171380D01*
X141620857Y-160171380D01*
X141763714Y-160219000D01*
X142335142Y-161171380D02*
X142239904Y-161123761D01*
X142192285Y-161076142D01*
X142144666Y-160980904D01*
X142144666Y-160695190D01*
X142192285Y-160599952D01*
X142239904Y-160552333D01*
X142335142Y-160504714D01*
X142478000Y-160504714D01*
X142573238Y-160552333D01*
X142620857Y-160599952D01*
X142668476Y-160695190D01*
X142668476Y-160980904D01*
X142620857Y-161076142D01*
X142573238Y-161123761D01*
X142478000Y-161171380D01*
X142335142Y-161171380D01*
X143525619Y-160504714D02*
X143525619Y-161171380D01*
X143097047Y-160504714D02*
X143097047Y-161028523D01*
X143144666Y-161123761D01*
X143239904Y-161171380D01*
X143382761Y-161171380D01*
X143478000Y-161123761D01*
X143525619Y-161076142D01*
X143858952Y-160504714D02*
X144239904Y-160504714D01*
X144001809Y-160171380D02*
X144001809Y-161028523D01*
X144049428Y-161123761D01*
X144144666Y-161171380D01*
X144239904Y-161171380D01*
X144573238Y-161171380D02*
X144573238Y-160171380D01*
X145001809Y-161171380D02*
X145001809Y-160647571D01*
X144954190Y-160552333D01*
X144858952Y-160504714D01*
X144716095Y-160504714D01*
X144620857Y-160552333D01*
X144573238Y-160599952D01*
X146811333Y-161076142D02*
X146763714Y-161123761D01*
X146620857Y-161171380D01*
X146525619Y-161171380D01*
X146382761Y-161123761D01*
X146287523Y-161028523D01*
X146239904Y-160933285D01*
X146192285Y-160742809D01*
X146192285Y-160599952D01*
X146239904Y-160409476D01*
X146287523Y-160314238D01*
X146382761Y-160219000D01*
X146525619Y-160171380D01*
X146620857Y-160171380D01*
X146763714Y-160219000D01*
X146811333Y-160266619D01*
X147668476Y-161171380D02*
X147668476Y-160647571D01*
X147620857Y-160552333D01*
X147525619Y-160504714D01*
X147335142Y-160504714D01*
X147239904Y-160552333D01*
X147668476Y-161123761D02*
X147573238Y-161171380D01*
X147335142Y-161171380D01*
X147239904Y-161123761D01*
X147192285Y-161028523D01*
X147192285Y-160933285D01*
X147239904Y-160838047D01*
X147335142Y-160790428D01*
X147573238Y-160790428D01*
X147668476Y-160742809D01*
X148144666Y-161171380D02*
X148144666Y-160504714D01*
X148144666Y-160695190D02*
X148192285Y-160599952D01*
X148239904Y-160552333D01*
X148335142Y-160504714D01*
X148430380Y-160504714D01*
X148906571Y-161171380D02*
X148811333Y-161123761D01*
X148763714Y-161076142D01*
X148716095Y-160980904D01*
X148716095Y-160695190D01*
X148763714Y-160599952D01*
X148811333Y-160552333D01*
X148906571Y-160504714D01*
X149049428Y-160504714D01*
X149144666Y-160552333D01*
X149192285Y-160599952D01*
X149239904Y-160695190D01*
X149239904Y-160980904D01*
X149192285Y-161076142D01*
X149144666Y-161123761D01*
X149049428Y-161171380D01*
X148906571Y-161171380D01*
X149811333Y-161171380D02*
X149716095Y-161123761D01*
X149668476Y-161028523D01*
X149668476Y-160171380D01*
X150192285Y-161171380D02*
X150192285Y-160504714D01*
X150192285Y-160171380D02*
X150144666Y-160219000D01*
X150192285Y-160266619D01*
X150239904Y-160219000D01*
X150192285Y-160171380D01*
X150192285Y-160266619D01*
X150668476Y-160504714D02*
X150668476Y-161171380D01*
X150668476Y-160599952D02*
X150716095Y-160552333D01*
X150811333Y-160504714D01*
X150954190Y-160504714D01*
X151049428Y-160552333D01*
X151097047Y-160647571D01*
X151097047Y-161171380D01*
X152001809Y-161171380D02*
X152001809Y-160647571D01*
X151954190Y-160552333D01*
X151858952Y-160504714D01*
X151668476Y-160504714D01*
X151573238Y-160552333D01*
X152001809Y-161123761D02*
X151906571Y-161171380D01*
X151668476Y-161171380D01*
X151573238Y-161123761D01*
X151525619Y-161028523D01*
X151525619Y-160933285D01*
X151573238Y-160838047D01*
X151668476Y-160790428D01*
X151906571Y-160790428D01*
X152001809Y-160742809D01*
X135263714Y-161869000D02*
X135168476Y-161821380D01*
X135025619Y-161821380D01*
X134882761Y-161869000D01*
X134787523Y-161964238D01*
X134739904Y-162059476D01*
X134692285Y-162249952D01*
X134692285Y-162392809D01*
X134739904Y-162583285D01*
X134787523Y-162678523D01*
X134882761Y-162773761D01*
X135025619Y-162821380D01*
X135120857Y-162821380D01*
X135263714Y-162773761D01*
X135311333Y-162726142D01*
X135311333Y-162392809D01*
X135120857Y-162392809D01*
X135739904Y-162821380D02*
X135739904Y-162154714D01*
X135739904Y-161821380D02*
X135692285Y-161869000D01*
X135739904Y-161916619D01*
X135787523Y-161869000D01*
X135739904Y-161821380D01*
X135739904Y-161916619D01*
X136216095Y-162821380D02*
X136216095Y-161821380D01*
X136216095Y-162202333D02*
X136311333Y-162154714D01*
X136501809Y-162154714D01*
X136597047Y-162202333D01*
X136644666Y-162249952D01*
X136692285Y-162345190D01*
X136692285Y-162630904D01*
X136644666Y-162726142D01*
X136597047Y-162773761D01*
X136501809Y-162821380D01*
X136311333Y-162821380D01*
X136216095Y-162773761D01*
X137073238Y-162773761D02*
X137168476Y-162821380D01*
X137358952Y-162821380D01*
X137454190Y-162773761D01*
X137501809Y-162678523D01*
X137501809Y-162630904D01*
X137454190Y-162535666D01*
X137358952Y-162488047D01*
X137216095Y-162488047D01*
X137120857Y-162440428D01*
X137073238Y-162345190D01*
X137073238Y-162297571D01*
X137120857Y-162202333D01*
X137216095Y-162154714D01*
X137358952Y-162154714D01*
X137454190Y-162202333D01*
X138073238Y-162821380D02*
X137978000Y-162773761D01*
X137930380Y-162726142D01*
X137882761Y-162630904D01*
X137882761Y-162345190D01*
X137930380Y-162249952D01*
X137978000Y-162202333D01*
X138073238Y-162154714D01*
X138216095Y-162154714D01*
X138311333Y-162202333D01*
X138358952Y-162249952D01*
X138406571Y-162345190D01*
X138406571Y-162630904D01*
X138358952Y-162726142D01*
X138311333Y-162773761D01*
X138216095Y-162821380D01*
X138073238Y-162821380D01*
X138835142Y-162154714D02*
X138835142Y-162821380D01*
X138835142Y-162249952D02*
X138882761Y-162202333D01*
X138978000Y-162154714D01*
X139120857Y-162154714D01*
X139216095Y-162202333D01*
X139263714Y-162297571D01*
X139263714Y-162821380D01*
X139787523Y-162773761D02*
X139787523Y-162821380D01*
X139739904Y-162916619D01*
X139692285Y-162964238D01*
X140978000Y-162821380D02*
X140978000Y-161821380D01*
X141216095Y-161821380D01*
X141358952Y-161869000D01*
X141454190Y-161964238D01*
X141501809Y-162059476D01*
X141549428Y-162249952D01*
X141549428Y-162392809D01*
X141501809Y-162583285D01*
X141454190Y-162678523D01*
X141358952Y-162773761D01*
X141216095Y-162821380D01*
X140978000Y-162821380D01*
X142406571Y-162821380D02*
X142406571Y-162297571D01*
X142358952Y-162202333D01*
X142263714Y-162154714D01*
X142073238Y-162154714D01*
X141978000Y-162202333D01*
X142406571Y-162773761D02*
X142311333Y-162821380D01*
X142073238Y-162821380D01*
X141978000Y-162773761D01*
X141930380Y-162678523D01*
X141930380Y-162583285D01*
X141978000Y-162488047D01*
X142073238Y-162440428D01*
X142311333Y-162440428D01*
X142406571Y-162392809D01*
X142882761Y-162154714D02*
X142882761Y-162821380D01*
X142882761Y-162249952D02*
X142930380Y-162202333D01*
X143025619Y-162154714D01*
X143168476Y-162154714D01*
X143263714Y-162202333D01*
X143311333Y-162297571D01*
X143311333Y-162821380D01*
X143787523Y-162821380D02*
X143787523Y-162154714D01*
X143787523Y-161821380D02*
X143739904Y-161869000D01*
X143787523Y-161916619D01*
X143835142Y-161869000D01*
X143787523Y-161821380D01*
X143787523Y-161916619D01*
X144644666Y-162773761D02*
X144549428Y-162821380D01*
X144358952Y-162821380D01*
X144263714Y-162773761D01*
X144216095Y-162678523D01*
X144216095Y-162297571D01*
X144263714Y-162202333D01*
X144358952Y-162154714D01*
X144549428Y-162154714D01*
X144644666Y-162202333D01*
X144692285Y-162297571D01*
X144692285Y-162392809D01*
X144216095Y-162488047D01*
X145263714Y-162821380D02*
X145168476Y-162773761D01*
X145120857Y-162678523D01*
X145120857Y-161821380D01*
X146263714Y-161821380D02*
X146597047Y-162821380D01*
X146930380Y-161821380D01*
X147263714Y-162726142D02*
X147311333Y-162773761D01*
X147263714Y-162821380D01*
X147216095Y-162773761D01*
X147263714Y-162726142D01*
X147263714Y-162821380D01*
X148263714Y-162821380D02*
X147692285Y-162821380D01*
X147978000Y-162821380D02*
X147978000Y-161821380D01*
X147882761Y-161964238D01*
X147787523Y-162059476D01*
X147692285Y-162107095D01*
D11*
%TO.C,10K1*%
X146410000Y-143602064D02*
X146410000Y-142147936D01*
X148230000Y-143602064D02*
X148230000Y-142147936D01*
%TO.C,4.7k1*%
X137435000Y-143602064D02*
X137435000Y-142147936D01*
X135615000Y-143602064D02*
X135615000Y-142147936D01*
%TO.C,A1*%
X127130000Y-114170000D02*
X109090000Y-114170000D01*
X127130000Y-157610000D02*
X127130000Y-114170000D01*
X109090000Y-157610000D02*
X127130000Y-157610000D01*
X111760000Y-154940000D02*
X109090000Y-154940000D01*
X111760000Y-119380000D02*
X111760000Y-154940000D01*
X111760000Y-119380000D02*
X109090000Y-119380000D01*
X124460000Y-154940000D02*
X127130000Y-154940000D01*
X124460000Y-116840000D02*
X124460000Y-154940000D01*
X124460000Y-116840000D02*
X127130000Y-116840000D01*
X109090000Y-114170000D02*
X109090000Y-116840000D01*
X109090000Y-119380000D02*
X109090000Y-157610000D01*
X111760000Y-116840000D02*
X109090000Y-116840000D01*
X111760000Y-119380000D02*
X111760000Y-116840000D01*
%TO.C,C1*%
X142515000Y-143586252D02*
X142515000Y-142163748D01*
X140695000Y-143586252D02*
X140695000Y-142163748D01*
%TO.C,R4*%
X131277500Y-143602064D02*
X131277500Y-142147936D01*
X129457500Y-143602064D02*
X129457500Y-142147936D01*
%TO.C,U1*%
X137235000Y-134670000D02*
X137235000Y-136485000D01*
X136980000Y-134670000D02*
X137235000Y-134670000D01*
X136980000Y-130810000D02*
X136980000Y-134670000D01*
X136980000Y-126950000D02*
X137235000Y-126950000D01*
X136980000Y-130810000D02*
X136980000Y-126950000D01*
X147500000Y-134670000D02*
X147245000Y-134670000D01*
X147500000Y-130810000D02*
X147500000Y-134670000D01*
X147500000Y-126950000D02*
X147245000Y-126950000D01*
X147500000Y-130810000D02*
X147500000Y-126950000D01*
%TO.C,U2*%
X146558000Y-139446000D02*
X146558000Y-157734000D01*
X128270000Y-139446000D02*
X146558000Y-139446000D01*
X128270000Y-139446000D02*
X128270000Y-157734000D01*
X146558000Y-157734000D02*
X128270000Y-157734000D01*
%TO.C,U3*%
X107442000Y-110490000D02*
X107950000Y-110490000D01*
X107442000Y-68326000D02*
X107442000Y-110490000D01*
X139446000Y-110490000D02*
X139446000Y-107950000D01*
X139446000Y-110490000D02*
X136906000Y-110490000D01*
X123190000Y-110490000D02*
X139446000Y-110490000D01*
X139446000Y-110490000D02*
X139446000Y-68326000D01*
X139446000Y-68326000D02*
X107442000Y-68326000D01*
X107950000Y-110490000D02*
X123190000Y-110490000D01*
X107442000Y-110490000D02*
X109474000Y-110490000D01*
X110998000Y-108458000D02*
G75*
G03*
X110998000Y-108458000I-1524000J0D01*
G01*
X138938000Y-108458000D02*
G75*
G03*
X138938000Y-108458000I-1524000J0D01*
G01*
X110998000Y-70358000D02*
G75*
G03*
X110998000Y-70358000I-1524000J0D01*
G01*
X138938000Y-70358000D02*
G75*
G03*
X138938000Y-70358000I-1524000J0D01*
G01*
%TO.C,U6*%
X123190000Y-165100000D02*
X123190000Y-162560000D01*
X133350000Y-165100000D02*
X123190000Y-165100000D01*
X133350000Y-162560000D02*
X133350000Y-165100000D01*
X123190000Y-162560000D02*
X133350000Y-162560000D01*
%TO.C,U7*%
X148590000Y-97790000D02*
X153670000Y-97790000D01*
X140970000Y-97790000D02*
X146050000Y-97790000D01*
X146050000Y-93980000D02*
X146050000Y-97790000D01*
X148590000Y-93980000D02*
X146050000Y-93980000D01*
X148590000Y-97790000D02*
X148590000Y-93980000D01*
X148590000Y-110490000D02*
X153670000Y-110490000D01*
X140970000Y-110490000D02*
X146050000Y-110490000D01*
X146050000Y-114300000D02*
X146050000Y-110490000D01*
X147320000Y-114300000D02*
X146050000Y-114300000D01*
X148590000Y-114300000D02*
X148590000Y-110490000D01*
X147320000Y-114300000D02*
X148590000Y-114300000D01*
X153670000Y-97790000D02*
X153670000Y-110490000D01*
X140970000Y-110490000D02*
X140970000Y-97790000D01*
%TO.C,10K1*%
D10*
X145952380Y-144041666D02*
X145952380Y-144613095D01*
X145952380Y-144327380D02*
X144952380Y-144327380D01*
X145095238Y-144422619D01*
X145190476Y-144517857D01*
X145238095Y-144613095D01*
X144952380Y-143422619D02*
X144952380Y-143327380D01*
X145000000Y-143232142D01*
X145047619Y-143184523D01*
X145142857Y-143136904D01*
X145333333Y-143089285D01*
X145571428Y-143089285D01*
X145761904Y-143136904D01*
X145857142Y-143184523D01*
X145904761Y-143232142D01*
X145952380Y-143327380D01*
X145952380Y-143422619D01*
X145904761Y-143517857D01*
X145857142Y-143565476D01*
X145761904Y-143613095D01*
X145571428Y-143660714D01*
X145333333Y-143660714D01*
X145142857Y-143613095D01*
X145047619Y-143565476D01*
X145000000Y-143517857D01*
X144952380Y-143422619D01*
X145952380Y-142660714D02*
X144952380Y-142660714D01*
X145952380Y-142089285D02*
X145380952Y-142517857D01*
X144952380Y-142089285D02*
X145523809Y-142660714D01*
X145952380Y-141136904D02*
X145952380Y-141708333D01*
X145952380Y-141422619D02*
X144952380Y-141422619D01*
X145095238Y-141517857D01*
X145190476Y-141613095D01*
X145238095Y-141708333D01*
%TO.C,4.7k1*%
X134490714Y-144279761D02*
X135157380Y-144279761D01*
X134109761Y-144517857D02*
X134824047Y-144755952D01*
X134824047Y-144136904D01*
X135062142Y-143755952D02*
X135109761Y-143708333D01*
X135157380Y-143755952D01*
X135109761Y-143803571D01*
X135062142Y-143755952D01*
X135157380Y-143755952D01*
X134157380Y-143375000D02*
X134157380Y-142708333D01*
X135157380Y-143136904D01*
X135157380Y-142327380D02*
X134157380Y-142327380D01*
X134776428Y-142232142D02*
X135157380Y-141946428D01*
X134490714Y-141946428D02*
X134871666Y-142327380D01*
X135157380Y-140994047D02*
X135157380Y-141565476D01*
X135157380Y-141279761D02*
X134157380Y-141279761D01*
X134300238Y-141375000D01*
X134395476Y-141470238D01*
X134443095Y-141565476D01*
%TO.C,A1*%
X117395714Y-113196666D02*
X117871904Y-113196666D01*
X117300476Y-113482380D02*
X117633809Y-112482380D01*
X117967142Y-113482380D01*
X118824285Y-113482380D02*
X118252857Y-113482380D01*
X118538571Y-113482380D02*
X118538571Y-112482380D01*
X118443333Y-112625238D01*
X118348095Y-112720476D01*
X118252857Y-112768095D01*
%TO.C,C1*%
X140112142Y-143041666D02*
X140159761Y-143089285D01*
X140207380Y-143232142D01*
X140207380Y-143327380D01*
X140159761Y-143470238D01*
X140064523Y-143565476D01*
X139969285Y-143613095D01*
X139778809Y-143660714D01*
X139635952Y-143660714D01*
X139445476Y-143613095D01*
X139350238Y-143565476D01*
X139255000Y-143470238D01*
X139207380Y-143327380D01*
X139207380Y-143232142D01*
X139255000Y-143089285D01*
X139302619Y-143041666D01*
X140207380Y-142089285D02*
X140207380Y-142660714D01*
X140207380Y-142375000D02*
X139207380Y-142375000D01*
X139350238Y-142470238D01*
X139445476Y-142565476D01*
X139493095Y-142660714D01*
%TO.C,R4*%
X128999880Y-143041666D02*
X128523690Y-143375000D01*
X128999880Y-143613095D02*
X127999880Y-143613095D01*
X127999880Y-143232142D01*
X128047500Y-143136904D01*
X128095119Y-143089285D01*
X128190357Y-143041666D01*
X128333214Y-143041666D01*
X128428452Y-143089285D01*
X128476071Y-143136904D01*
X128523690Y-143232142D01*
X128523690Y-143613095D01*
X128333214Y-142184523D02*
X128999880Y-142184523D01*
X127952261Y-142422619D02*
X128666547Y-142660714D01*
X128666547Y-142041666D01*
%TO.C,U1*%
X135592380Y-131571904D02*
X136401904Y-131571904D01*
X136497142Y-131524285D01*
X136544761Y-131476666D01*
X136592380Y-131381428D01*
X136592380Y-131190952D01*
X136544761Y-131095714D01*
X136497142Y-131048095D01*
X136401904Y-131000476D01*
X135592380Y-131000476D01*
X136592380Y-130000476D02*
X136592380Y-130571904D01*
X136592380Y-130286190D02*
X135592380Y-130286190D01*
X135735238Y-130381428D01*
X135830476Y-130476666D01*
X135878095Y-130571904D01*
%TO.C,U2*%
X137160095Y-147018380D02*
X137160095Y-147827904D01*
X137207714Y-147923142D01*
X137255333Y-147970761D01*
X137350571Y-148018380D01*
X137541047Y-148018380D01*
X137636285Y-147970761D01*
X137683904Y-147923142D01*
X137731523Y-147827904D01*
X137731523Y-147018380D01*
X138160095Y-147113619D02*
X138207714Y-147066000D01*
X138302952Y-147018380D01*
X138541047Y-147018380D01*
X138636285Y-147066000D01*
X138683904Y-147113619D01*
X138731523Y-147208857D01*
X138731523Y-147304095D01*
X138683904Y-147446952D01*
X138112476Y-148018380D01*
X138731523Y-148018380D01*
X130262380Y-154860476D02*
X130262380Y-154241428D01*
X130643333Y-154574761D01*
X130643333Y-154431904D01*
X130690952Y-154336666D01*
X130738571Y-154289047D01*
X130833809Y-154241428D01*
X131071904Y-154241428D01*
X131167142Y-154289047D01*
X131214761Y-154336666D01*
X131262380Y-154431904D01*
X131262380Y-154717619D01*
X131214761Y-154812857D01*
X131167142Y-154860476D01*
X130595714Y-153908095D02*
X131262380Y-153670000D01*
X130595714Y-153431904D01*
X130262380Y-153146190D02*
X130262380Y-152527142D01*
X130643333Y-152860476D01*
X130643333Y-152717619D01*
X130690952Y-152622380D01*
X130738571Y-152574761D01*
X130833809Y-152527142D01*
X131071904Y-152527142D01*
X131167142Y-152574761D01*
X131214761Y-152622380D01*
X131262380Y-152717619D01*
X131262380Y-153003333D01*
X131214761Y-153098571D01*
X131167142Y-153146190D01*
X133707142Y-153836666D02*
X133754761Y-153884285D01*
X133802380Y-154027142D01*
X133802380Y-154122380D01*
X133754761Y-154265238D01*
X133659523Y-154360476D01*
X133564285Y-154408095D01*
X133373809Y-154455714D01*
X133230952Y-154455714D01*
X133040476Y-154408095D01*
X132945238Y-154360476D01*
X132850000Y-154265238D01*
X132802380Y-154122380D01*
X132802380Y-154027142D01*
X132850000Y-153884285D01*
X132897619Y-153836666D01*
X133754761Y-153455714D02*
X133802380Y-153312857D01*
X133802380Y-153074761D01*
X133754761Y-152979523D01*
X133707142Y-152931904D01*
X133611904Y-152884285D01*
X133516666Y-152884285D01*
X133421428Y-152931904D01*
X133373809Y-152979523D01*
X133326190Y-153074761D01*
X133278571Y-153265238D01*
X133230952Y-153360476D01*
X133183333Y-153408095D01*
X133088095Y-153455714D01*
X132992857Y-153455714D01*
X132897619Y-153408095D01*
X132850000Y-153360476D01*
X132802380Y-153265238D01*
X132802380Y-153027142D01*
X132850000Y-152884285D01*
X136342380Y-155193809D02*
X135675714Y-155193809D01*
X135770952Y-155193809D02*
X135723333Y-155146190D01*
X135675714Y-155050952D01*
X135675714Y-154908095D01*
X135723333Y-154812857D01*
X135818571Y-154765238D01*
X136342380Y-154765238D01*
X135818571Y-154765238D02*
X135723333Y-154717619D01*
X135675714Y-154622380D01*
X135675714Y-154479523D01*
X135723333Y-154384285D01*
X135818571Y-154336666D01*
X136342380Y-154336666D01*
X136342380Y-153717619D02*
X136294761Y-153812857D01*
X136247142Y-153860476D01*
X136151904Y-153908095D01*
X135866190Y-153908095D01*
X135770952Y-153860476D01*
X135723333Y-153812857D01*
X135675714Y-153717619D01*
X135675714Y-153574761D01*
X135723333Y-153479523D01*
X135770952Y-153431904D01*
X135866190Y-153384285D01*
X136151904Y-153384285D01*
X136247142Y-153431904D01*
X136294761Y-153479523D01*
X136342380Y-153574761D01*
X136342380Y-153717619D01*
X136294761Y-153003333D02*
X136342380Y-152908095D01*
X136342380Y-152717619D01*
X136294761Y-152622380D01*
X136199523Y-152574761D01*
X136151904Y-152574761D01*
X136056666Y-152622380D01*
X136009047Y-152717619D01*
X136009047Y-152860476D01*
X135961428Y-152955714D01*
X135866190Y-153003333D01*
X135818571Y-153003333D01*
X135723333Y-152955714D01*
X135675714Y-152860476D01*
X135675714Y-152717619D01*
X135723333Y-152622380D01*
X136342380Y-152146190D02*
X135675714Y-152146190D01*
X135342380Y-152146190D02*
X135390000Y-152193809D01*
X135437619Y-152146190D01*
X135390000Y-152098571D01*
X135342380Y-152146190D01*
X135437619Y-152146190D01*
X138834761Y-154098571D02*
X138882380Y-154193809D01*
X138882380Y-154384285D01*
X138834761Y-154479523D01*
X138787142Y-154527142D01*
X138691904Y-154574761D01*
X138406190Y-154574761D01*
X138310952Y-154527142D01*
X138263333Y-154479523D01*
X138215714Y-154384285D01*
X138215714Y-154193809D01*
X138263333Y-154098571D01*
X138882380Y-153527142D02*
X138834761Y-153622380D01*
X138739523Y-153670000D01*
X137882380Y-153670000D01*
X138882380Y-153146190D02*
X137882380Y-153146190D01*
X138501428Y-153050952D02*
X138882380Y-152765238D01*
X138215714Y-152765238D02*
X138596666Y-153146190D01*
X141422380Y-155241428D02*
X140422380Y-155241428D01*
X141136666Y-154908095D01*
X140422380Y-154574761D01*
X141422380Y-154574761D01*
X141422380Y-154098571D02*
X140422380Y-154098571D01*
X141374761Y-153670000D02*
X141422380Y-153527142D01*
X141422380Y-153289047D01*
X141374761Y-153193809D01*
X141327142Y-153146190D01*
X141231904Y-153098571D01*
X141136666Y-153098571D01*
X141041428Y-153146190D01*
X140993809Y-153193809D01*
X140946190Y-153289047D01*
X140898571Y-153479523D01*
X140850952Y-153574761D01*
X140803333Y-153622380D01*
X140708095Y-153670000D01*
X140612857Y-153670000D01*
X140517619Y-153622380D01*
X140470000Y-153574761D01*
X140422380Y-153479523D01*
X140422380Y-153241428D01*
X140470000Y-153098571D01*
X140422380Y-152479523D02*
X140422380Y-152289047D01*
X140470000Y-152193809D01*
X140565238Y-152098571D01*
X140755714Y-152050952D01*
X141089047Y-152050952D01*
X141279523Y-152098571D01*
X141374761Y-152193809D01*
X141422380Y-152289047D01*
X141422380Y-152479523D01*
X141374761Y-152574761D01*
X141279523Y-152670000D01*
X141089047Y-152717619D01*
X140755714Y-152717619D01*
X140565238Y-152670000D01*
X140470000Y-152574761D01*
X140422380Y-152479523D01*
X143295714Y-154360476D02*
X144105238Y-154360476D01*
X144200476Y-154408095D01*
X144248095Y-154455714D01*
X144295714Y-154550952D01*
X144295714Y-154693809D01*
X144248095Y-154789047D01*
X143914761Y-154360476D02*
X143962380Y-154455714D01*
X143962380Y-154646190D01*
X143914761Y-154741428D01*
X143867142Y-154789047D01*
X143771904Y-154836666D01*
X143486190Y-154836666D01*
X143390952Y-154789047D01*
X143343333Y-154741428D01*
X143295714Y-154646190D01*
X143295714Y-154455714D01*
X143343333Y-154360476D01*
X143295714Y-153884285D02*
X143962380Y-153884285D01*
X143390952Y-153884285D02*
X143343333Y-153836666D01*
X143295714Y-153741428D01*
X143295714Y-153598571D01*
X143343333Y-153503333D01*
X143438571Y-153455714D01*
X143962380Y-153455714D01*
X143962380Y-152550952D02*
X142962380Y-152550952D01*
X143914761Y-152550952D02*
X143962380Y-152646190D01*
X143962380Y-152836666D01*
X143914761Y-152931904D01*
X143867142Y-152979523D01*
X143771904Y-153027142D01*
X143486190Y-153027142D01*
X143390952Y-152979523D01*
X143343333Y-152931904D01*
X143295714Y-152836666D01*
X143295714Y-152646190D01*
X143343333Y-152550952D01*
%TO.C,U3*%
X122428095Y-97742380D02*
X122428095Y-98551904D01*
X122475714Y-98647142D01*
X122523333Y-98694761D01*
X122618571Y-98742380D01*
X122809047Y-98742380D01*
X122904285Y-98694761D01*
X122951904Y-98647142D01*
X122999523Y-98551904D01*
X122999523Y-97742380D01*
X123380476Y-97742380D02*
X123999523Y-97742380D01*
X123666190Y-98123333D01*
X123809047Y-98123333D01*
X123904285Y-98170952D01*
X123951904Y-98218571D01*
X123999523Y-98313809D01*
X123999523Y-98551904D01*
X123951904Y-98647142D01*
X123904285Y-98694761D01*
X123809047Y-98742380D01*
X123523333Y-98742380D01*
X123428095Y-98694761D01*
X123380476Y-98647142D01*
X120308666Y-103108095D02*
X120308666Y-102631904D01*
X120594380Y-103203333D02*
X119594380Y-102870000D01*
X120594380Y-102536666D01*
X122809047Y-102941428D02*
X123570952Y-102941428D01*
X123190000Y-103322380D02*
X123190000Y-102560476D01*
X126309428Y-103250952D02*
X126309428Y-102489047D01*
%TO.C,U6*%
X127508095Y-161242380D02*
X127508095Y-162051904D01*
X127555714Y-162147142D01*
X127603333Y-162194761D01*
X127698571Y-162242380D01*
X127889047Y-162242380D01*
X127984285Y-162194761D01*
X128031904Y-162147142D01*
X128079523Y-162051904D01*
X128079523Y-161242380D01*
X128984285Y-161242380D02*
X128793809Y-161242380D01*
X128698571Y-161290000D01*
X128650952Y-161337619D01*
X128555714Y-161480476D01*
X128508095Y-161670952D01*
X128508095Y-162051904D01*
X128555714Y-162147142D01*
X128603333Y-162194761D01*
X128698571Y-162242380D01*
X128889047Y-162242380D01*
X128984285Y-162194761D01*
X129031904Y-162147142D01*
X129079523Y-162051904D01*
X129079523Y-161813809D01*
X129031904Y-161718571D01*
X128984285Y-161670952D01*
X128889047Y-161623333D01*
X128698571Y-161623333D01*
X128603333Y-161670952D01*
X128555714Y-161718571D01*
X128508095Y-161813809D01*
X123721904Y-166822380D02*
X123721904Y-165822380D01*
X123960000Y-165822380D01*
X124102857Y-165870000D01*
X124198095Y-165965238D01*
X124245714Y-166060476D01*
X124293333Y-166250952D01*
X124293333Y-166393809D01*
X124245714Y-166584285D01*
X124198095Y-166679523D01*
X124102857Y-166774761D01*
X123960000Y-166822380D01*
X123721904Y-166822380D01*
X125198095Y-165822380D02*
X124721904Y-165822380D01*
X124674285Y-166298571D01*
X124721904Y-166250952D01*
X124817142Y-166203333D01*
X125055238Y-166203333D01*
X125150476Y-166250952D01*
X125198095Y-166298571D01*
X125245714Y-166393809D01*
X125245714Y-166631904D01*
X125198095Y-166727142D01*
X125150476Y-166774761D01*
X125055238Y-166822380D01*
X124817142Y-166822380D01*
X124721904Y-166774761D01*
X124674285Y-166727142D01*
X126261904Y-166822380D02*
X126261904Y-165822380D01*
X126500000Y-165822380D01*
X126642857Y-165870000D01*
X126738095Y-165965238D01*
X126785714Y-166060476D01*
X126833333Y-166250952D01*
X126833333Y-166393809D01*
X126785714Y-166584285D01*
X126738095Y-166679523D01*
X126642857Y-166774761D01*
X126500000Y-166822380D01*
X126261904Y-166822380D01*
X127690476Y-165822380D02*
X127500000Y-165822380D01*
X127404761Y-165870000D01*
X127357142Y-165917619D01*
X127261904Y-166060476D01*
X127214285Y-166250952D01*
X127214285Y-166631904D01*
X127261904Y-166727142D01*
X127309523Y-166774761D01*
X127404761Y-166822380D01*
X127595238Y-166822380D01*
X127690476Y-166774761D01*
X127738095Y-166727142D01*
X127785714Y-166631904D01*
X127785714Y-166393809D01*
X127738095Y-166298571D01*
X127690476Y-166250952D01*
X127595238Y-166203333D01*
X127404761Y-166203333D01*
X127309523Y-166250952D01*
X127261904Y-166298571D01*
X127214285Y-166393809D01*
X128825714Y-166536666D02*
X129301904Y-166536666D01*
X128730476Y-166822380D02*
X129063809Y-165822380D01*
X129397142Y-166822380D01*
X129920952Y-165822380D02*
X130016190Y-165822380D01*
X130111428Y-165870000D01*
X130159047Y-165917619D01*
X130206666Y-166012857D01*
X130254285Y-166203333D01*
X130254285Y-166441428D01*
X130206666Y-166631904D01*
X130159047Y-166727142D01*
X130111428Y-166774761D01*
X130016190Y-166822380D01*
X129920952Y-166822380D01*
X129825714Y-166774761D01*
X129778095Y-166727142D01*
X129730476Y-166631904D01*
X129682857Y-166441428D01*
X129682857Y-166203333D01*
X129730476Y-166012857D01*
X129778095Y-165917619D01*
X129825714Y-165870000D01*
X129920952Y-165822380D01*
X131318095Y-165870000D02*
X131222857Y-165822380D01*
X131080000Y-165822380D01*
X130937142Y-165870000D01*
X130841904Y-165965238D01*
X130794285Y-166060476D01*
X130746666Y-166250952D01*
X130746666Y-166393809D01*
X130794285Y-166584285D01*
X130841904Y-166679523D01*
X130937142Y-166774761D01*
X131080000Y-166822380D01*
X131175238Y-166822380D01*
X131318095Y-166774761D01*
X131365714Y-166727142D01*
X131365714Y-166393809D01*
X131175238Y-166393809D01*
X131794285Y-166822380D02*
X131794285Y-165822380D01*
X132365714Y-166822380D01*
X132365714Y-165822380D01*
X132841904Y-166822380D02*
X132841904Y-165822380D01*
X133080000Y-165822380D01*
X133222857Y-165870000D01*
X133318095Y-165965238D01*
X133365714Y-166060476D01*
X133413333Y-166250952D01*
X133413333Y-166393809D01*
X133365714Y-166584285D01*
X133318095Y-166679523D01*
X133222857Y-166774761D01*
X133080000Y-166822380D01*
X132841904Y-166822380D01*
%TO.C,U7*%
X146558095Y-107402380D02*
X146558095Y-108211904D01*
X146605714Y-108307142D01*
X146653333Y-108354761D01*
X146748571Y-108402380D01*
X146939047Y-108402380D01*
X147034285Y-108354761D01*
X147081904Y-108307142D01*
X147129523Y-108211904D01*
X147129523Y-107402380D01*
X147510476Y-107402380D02*
X148177142Y-107402380D01*
X147748571Y-108402380D01*
%TD*%
M02*
