%TF.GenerationSoftware,KiCad,Pcbnew,(5.1.10)-1*%
%TF.CreationDate,2021-09-08T13:12:46-04:00*%
%TF.ProjectId,Water_sensor,57617465-725f-4736-956e-736f722e6b69,rev?*%
%TF.SameCoordinates,Original*%
%TF.FileFunction,Profile,NP*%
%FSLAX46Y46*%
G04 Gerber Fmt 4.6, Leading zero omitted, Abs format (unit mm)*
G04 Created by KiCad (PCBNEW (5.1.10)-1) date 2021-09-08 13:12:46*
%MOMM*%
%LPD*%
G01*
G04 APERTURE LIST*
%TA.AperFunction,Profile*%
%ADD10C,0.050000*%
%TD*%
G04 APERTURE END LIST*
D10*
X122449022Y-156210000D02*
G75*
G03*
X122449022Y-156210000I-1545022J0D01*
G01*
X150368000Y-156210000D02*
G75*
G03*
X150368000Y-156210000I-1524000J0D01*
G01*
X122449022Y-118110000D02*
G75*
G03*
X122449022Y-118110000I-1545022J0D01*
G01*
X138938000Y-70612000D02*
G75*
G03*
X138938000Y-70612000I-1524000J0D01*
G01*
X110998000Y-70612000D02*
G75*
G03*
X110998000Y-70612000I-1524000J0D01*
G01*
X111080437Y-108458000D02*
G75*
G03*
X111080437Y-108458000I-1606437J0D01*
G01*
X138938000Y-108712000D02*
G75*
G03*
X138938000Y-108712000I-1524000J0D01*
G01*
X150389022Y-118110000D02*
G75*
G03*
X150389022Y-118110000I-1545022J0D01*
G01*
X154940000Y-92710000D02*
X140970000Y-92710000D01*
X106680000Y-66040000D02*
X106680000Y-66675000D01*
X140970000Y-66040000D02*
X106680000Y-66040000D01*
X154940000Y-115570000D02*
X154940000Y-92710000D01*
X140970000Y-92710000D02*
X140970000Y-66040000D01*
X152400000Y-167640000D02*
X152400000Y-159385000D01*
X135890000Y-167640000D02*
X152400000Y-167640000D01*
X106680000Y-167640000D02*
X106680000Y-163195000D01*
X121285000Y-167640000D02*
X106680000Y-167640000D01*
X106680000Y-112395000D02*
X106680000Y-163195000D01*
X106680000Y-66675000D02*
X106680000Y-112395000D01*
X152400000Y-115570000D02*
X154940000Y-115570000D01*
X152400000Y-159385000D02*
X152400000Y-115570000D01*
X121285000Y-167640000D02*
X135890000Y-167640000D01*
M02*
