%TF.GenerationSoftware,KiCad,Pcbnew,(5.1.10)-1*%
%TF.CreationDate,2021-09-08T13:12:46-04:00*%
%TF.ProjectId,Water_sensor,57617465-725f-4736-956e-736f722e6b69,rev?*%
%TF.SameCoordinates,Original*%
%TF.FileFunction,Legend,Bot*%
%TF.FilePolarity,Positive*%
%FSLAX46Y46*%
G04 Gerber Fmt 4.6, Leading zero omitted, Abs format (unit mm)*
G04 Created by KiCad (PCBNEW (5.1.10)-1) date 2021-09-08 13:12:46*
%MOMM*%
%LPD*%
G01*
G04 APERTURE LIST*
%ADD10C,0.120000*%
%ADD11C,0.150000*%
G04 APERTURE END LIST*
D10*
%TO.C,U4*%
X150368000Y-156210000D02*
G75*
G03*
X150368000Y-156210000I-1524000J0D01*
G01*
X122428000Y-156210000D02*
G75*
G03*
X122428000Y-156210000I-1524000J0D01*
G01*
X122428000Y-118110000D02*
G75*
G03*
X122428000Y-118110000I-1524000J0D01*
G01*
X150368000Y-118110000D02*
G75*
G03*
X150368000Y-118110000I-1524000J0D01*
G01*
X150876000Y-116078000D02*
X150876000Y-118110000D01*
X118872000Y-116078000D02*
X150876000Y-116078000D01*
X150876000Y-158242000D02*
X150876000Y-116078000D01*
X118872000Y-158242000D02*
X150876000Y-158242000D01*
X118872000Y-116078000D02*
X118872000Y-158242000D01*
X150876000Y-116078000D02*
X148844000Y-116078000D01*
%TO.C,U5*%
X138938000Y-108712000D02*
G75*
G03*
X138938000Y-108712000I-1524000J0D01*
G01*
X110998000Y-108712000D02*
G75*
G03*
X110998000Y-108712000I-1524000J0D01*
G01*
X138938000Y-70612000D02*
G75*
G03*
X138938000Y-70612000I-1524000J0D01*
G01*
X110998000Y-70612000D02*
G75*
G03*
X110998000Y-70612000I-1524000J0D01*
G01*
X139446000Y-110744000D02*
X139446000Y-68580000D01*
X107442000Y-110744000D02*
X139446000Y-110744000D01*
X107442000Y-68580000D02*
X107442000Y-110744000D01*
X139446000Y-68580000D02*
X107442000Y-68580000D01*
X123190000Y-68580000D02*
X139446000Y-68580000D01*
%TO.C,U4*%
D11*
X135381904Y-133572380D02*
X135381904Y-134381904D01*
X135334285Y-134477142D01*
X135286666Y-134524761D01*
X135191428Y-134572380D01*
X135000952Y-134572380D01*
X134905714Y-134524761D01*
X134858095Y-134477142D01*
X134810476Y-134381904D01*
X134810476Y-133572380D01*
X133905714Y-133905714D02*
X133905714Y-134572380D01*
X134143809Y-133524761D02*
X134381904Y-134239047D01*
X133762857Y-134239047D01*
X132318095Y-123356666D02*
X131841904Y-123356666D01*
X132413333Y-123642380D02*
X132080000Y-122642380D01*
X131746666Y-123642380D01*
X135000952Y-123261428D02*
X134239047Y-123261428D01*
X134620000Y-123642380D02*
X134620000Y-122880476D01*
X137540952Y-123261428D02*
X136779047Y-123261428D01*
%TO.C,U5*%
X123951904Y-81248380D02*
X123951904Y-82057904D01*
X123904285Y-82153142D01*
X123856666Y-82200761D01*
X123761428Y-82248380D01*
X123570952Y-82248380D01*
X123475714Y-82200761D01*
X123428095Y-82153142D01*
X123380476Y-82057904D01*
X123380476Y-81248380D01*
X122428095Y-81248380D02*
X122904285Y-81248380D01*
X122951904Y-81724571D01*
X122904285Y-81676952D01*
X122809047Y-81629333D01*
X122570952Y-81629333D01*
X122475714Y-81676952D01*
X122428095Y-81724571D01*
X122380476Y-81819809D01*
X122380476Y-82057904D01*
X122428095Y-82153142D01*
X122475714Y-82200761D01*
X122570952Y-82248380D01*
X122809047Y-82248380D01*
X122904285Y-82200761D01*
X122951904Y-82153142D01*
X119975333Y-76946095D02*
X119975333Y-76469904D01*
X119689619Y-77041333D02*
X120689619Y-76708000D01*
X119689619Y-76374666D01*
X123570952Y-76779428D02*
X122809047Y-76779428D01*
X123190000Y-77160380D02*
X123190000Y-76398476D01*
X126166571Y-77088952D02*
X126166571Y-76327047D01*
%TD*%
M02*
