%TF.GenerationSoftware,KiCad,Pcbnew,(5.1.10)-1*%
%TF.CreationDate,2021-09-08T13:12:46-04:00*%
%TF.ProjectId,Water_sensor,57617465-725f-4736-956e-736f722e6b69,rev?*%
%TF.SameCoordinates,Original*%
%TF.FileFunction,Paste,Top*%
%TF.FilePolarity,Positive*%
%FSLAX46Y46*%
G04 Gerber Fmt 4.6, Leading zero omitted, Abs format (unit mm)*
G04 Created by KiCad (PCBNEW (5.1.10)-1) date 2021-09-08 13:12:46*
%MOMM*%
%LPD*%
G01*
G04 APERTURE LIST*
%ADD10R,1.524000X1.524000*%
%ADD11C,1.524000*%
G04 APERTURE END LIST*
%TO.C,10K1*%
G36*
G01*
X147945001Y-141975000D02*
X146694999Y-141975000D01*
G75*
G02*
X146445000Y-141725001I0J249999D01*
G01*
X146445000Y-141099999D01*
G75*
G02*
X146694999Y-140850000I249999J0D01*
G01*
X147945001Y-140850000D01*
G75*
G02*
X148195000Y-141099999I0J-249999D01*
G01*
X148195000Y-141725001D01*
G75*
G02*
X147945001Y-141975000I-249999J0D01*
G01*
G37*
G36*
G01*
X147945001Y-144900000D02*
X146694999Y-144900000D01*
G75*
G02*
X146445000Y-144650001I0J249999D01*
G01*
X146445000Y-144024999D01*
G75*
G02*
X146694999Y-143775000I249999J0D01*
G01*
X147945001Y-143775000D01*
G75*
G02*
X148195000Y-144024999I0J-249999D01*
G01*
X148195000Y-144650001D01*
G75*
G02*
X147945001Y-144900000I-249999J0D01*
G01*
G37*
%TD*%
%TO.C,4.7k1*%
G36*
G01*
X137150001Y-144900000D02*
X135899999Y-144900000D01*
G75*
G02*
X135650000Y-144650001I0J249999D01*
G01*
X135650000Y-144024999D01*
G75*
G02*
X135899999Y-143775000I249999J0D01*
G01*
X137150001Y-143775000D01*
G75*
G02*
X137400000Y-144024999I0J-249999D01*
G01*
X137400000Y-144650001D01*
G75*
G02*
X137150001Y-144900000I-249999J0D01*
G01*
G37*
G36*
G01*
X137150001Y-141975000D02*
X135899999Y-141975000D01*
G75*
G02*
X135650000Y-141725001I0J249999D01*
G01*
X135650000Y-141099999D01*
G75*
G02*
X135899999Y-140850000I249999J0D01*
G01*
X137150001Y-140850000D01*
G75*
G02*
X137400000Y-141099999I0J-249999D01*
G01*
X137400000Y-141725001D01*
G75*
G02*
X137150001Y-141975000I-249999J0D01*
G01*
G37*
%TD*%
%TO.C,C1*%
G36*
G01*
X142255001Y-144925000D02*
X140954999Y-144925000D01*
G75*
G02*
X140705000Y-144675001I0J249999D01*
G01*
X140705000Y-144024999D01*
G75*
G02*
X140954999Y-143775000I249999J0D01*
G01*
X142255001Y-143775000D01*
G75*
G02*
X142505000Y-144024999I0J-249999D01*
G01*
X142505000Y-144675001D01*
G75*
G02*
X142255001Y-144925000I-249999J0D01*
G01*
G37*
G36*
G01*
X142255001Y-141975000D02*
X140954999Y-141975000D01*
G75*
G02*
X140705000Y-141725001I0J249999D01*
G01*
X140705000Y-141074999D01*
G75*
G02*
X140954999Y-140825000I249999J0D01*
G01*
X142255001Y-140825000D01*
G75*
G02*
X142505000Y-141074999I0J-249999D01*
G01*
X142505000Y-141725001D01*
G75*
G02*
X142255001Y-141975000I-249999J0D01*
G01*
G37*
%TD*%
%TO.C,R4*%
G36*
G01*
X130992501Y-144900000D02*
X129742499Y-144900000D01*
G75*
G02*
X129492500Y-144650001I0J249999D01*
G01*
X129492500Y-144024999D01*
G75*
G02*
X129742499Y-143775000I249999J0D01*
G01*
X130992501Y-143775000D01*
G75*
G02*
X131242500Y-144024999I0J-249999D01*
G01*
X131242500Y-144650001D01*
G75*
G02*
X130992501Y-144900000I-249999J0D01*
G01*
G37*
G36*
G01*
X130992501Y-141975000D02*
X129742499Y-141975000D01*
G75*
G02*
X129492500Y-141725001I0J249999D01*
G01*
X129492500Y-141099999D01*
G75*
G02*
X129742499Y-140850000I249999J0D01*
G01*
X130992501Y-140850000D01*
G75*
G02*
X131242500Y-141099999I0J-249999D01*
G01*
X131242500Y-141725001D01*
G75*
G02*
X130992501Y-141975000I-249999J0D01*
G01*
G37*
%TD*%
%TO.C,U1*%
G36*
G01*
X137945000Y-136485000D02*
X137645000Y-136485000D01*
G75*
G02*
X137495000Y-136335000I0J150000D01*
G01*
X137495000Y-134585000D01*
G75*
G02*
X137645000Y-134435000I150000J0D01*
G01*
X137945000Y-134435000D01*
G75*
G02*
X138095000Y-134585000I0J-150000D01*
G01*
X138095000Y-136335000D01*
G75*
G02*
X137945000Y-136485000I-150000J0D01*
G01*
G37*
G36*
G01*
X139215000Y-136485000D02*
X138915000Y-136485000D01*
G75*
G02*
X138765000Y-136335000I0J150000D01*
G01*
X138765000Y-134585000D01*
G75*
G02*
X138915000Y-134435000I150000J0D01*
G01*
X139215000Y-134435000D01*
G75*
G02*
X139365000Y-134585000I0J-150000D01*
G01*
X139365000Y-136335000D01*
G75*
G02*
X139215000Y-136485000I-150000J0D01*
G01*
G37*
G36*
G01*
X140485000Y-136485000D02*
X140185000Y-136485000D01*
G75*
G02*
X140035000Y-136335000I0J150000D01*
G01*
X140035000Y-134585000D01*
G75*
G02*
X140185000Y-134435000I150000J0D01*
G01*
X140485000Y-134435000D01*
G75*
G02*
X140635000Y-134585000I0J-150000D01*
G01*
X140635000Y-136335000D01*
G75*
G02*
X140485000Y-136485000I-150000J0D01*
G01*
G37*
G36*
G01*
X141755000Y-136485000D02*
X141455000Y-136485000D01*
G75*
G02*
X141305000Y-136335000I0J150000D01*
G01*
X141305000Y-134585000D01*
G75*
G02*
X141455000Y-134435000I150000J0D01*
G01*
X141755000Y-134435000D01*
G75*
G02*
X141905000Y-134585000I0J-150000D01*
G01*
X141905000Y-136335000D01*
G75*
G02*
X141755000Y-136485000I-150000J0D01*
G01*
G37*
G36*
G01*
X143025000Y-136485000D02*
X142725000Y-136485000D01*
G75*
G02*
X142575000Y-136335000I0J150000D01*
G01*
X142575000Y-134585000D01*
G75*
G02*
X142725000Y-134435000I150000J0D01*
G01*
X143025000Y-134435000D01*
G75*
G02*
X143175000Y-134585000I0J-150000D01*
G01*
X143175000Y-136335000D01*
G75*
G02*
X143025000Y-136485000I-150000J0D01*
G01*
G37*
G36*
G01*
X144295000Y-136485000D02*
X143995000Y-136485000D01*
G75*
G02*
X143845000Y-136335000I0J150000D01*
G01*
X143845000Y-134585000D01*
G75*
G02*
X143995000Y-134435000I150000J0D01*
G01*
X144295000Y-134435000D01*
G75*
G02*
X144445000Y-134585000I0J-150000D01*
G01*
X144445000Y-136335000D01*
G75*
G02*
X144295000Y-136485000I-150000J0D01*
G01*
G37*
G36*
G01*
X145565000Y-136485000D02*
X145265000Y-136485000D01*
G75*
G02*
X145115000Y-136335000I0J150000D01*
G01*
X145115000Y-134585000D01*
G75*
G02*
X145265000Y-134435000I150000J0D01*
G01*
X145565000Y-134435000D01*
G75*
G02*
X145715000Y-134585000I0J-150000D01*
G01*
X145715000Y-136335000D01*
G75*
G02*
X145565000Y-136485000I-150000J0D01*
G01*
G37*
G36*
G01*
X146835000Y-136485000D02*
X146535000Y-136485000D01*
G75*
G02*
X146385000Y-136335000I0J150000D01*
G01*
X146385000Y-134585000D01*
G75*
G02*
X146535000Y-134435000I150000J0D01*
G01*
X146835000Y-134435000D01*
G75*
G02*
X146985000Y-134585000I0J-150000D01*
G01*
X146985000Y-136335000D01*
G75*
G02*
X146835000Y-136485000I-150000J0D01*
G01*
G37*
G36*
G01*
X146835000Y-127185000D02*
X146535000Y-127185000D01*
G75*
G02*
X146385000Y-127035000I0J150000D01*
G01*
X146385000Y-125285000D01*
G75*
G02*
X146535000Y-125135000I150000J0D01*
G01*
X146835000Y-125135000D01*
G75*
G02*
X146985000Y-125285000I0J-150000D01*
G01*
X146985000Y-127035000D01*
G75*
G02*
X146835000Y-127185000I-150000J0D01*
G01*
G37*
G36*
G01*
X145565000Y-127185000D02*
X145265000Y-127185000D01*
G75*
G02*
X145115000Y-127035000I0J150000D01*
G01*
X145115000Y-125285000D01*
G75*
G02*
X145265000Y-125135000I150000J0D01*
G01*
X145565000Y-125135000D01*
G75*
G02*
X145715000Y-125285000I0J-150000D01*
G01*
X145715000Y-127035000D01*
G75*
G02*
X145565000Y-127185000I-150000J0D01*
G01*
G37*
G36*
G01*
X144295000Y-127185000D02*
X143995000Y-127185000D01*
G75*
G02*
X143845000Y-127035000I0J150000D01*
G01*
X143845000Y-125285000D01*
G75*
G02*
X143995000Y-125135000I150000J0D01*
G01*
X144295000Y-125135000D01*
G75*
G02*
X144445000Y-125285000I0J-150000D01*
G01*
X144445000Y-127035000D01*
G75*
G02*
X144295000Y-127185000I-150000J0D01*
G01*
G37*
G36*
G01*
X143025000Y-127185000D02*
X142725000Y-127185000D01*
G75*
G02*
X142575000Y-127035000I0J150000D01*
G01*
X142575000Y-125285000D01*
G75*
G02*
X142725000Y-125135000I150000J0D01*
G01*
X143025000Y-125135000D01*
G75*
G02*
X143175000Y-125285000I0J-150000D01*
G01*
X143175000Y-127035000D01*
G75*
G02*
X143025000Y-127185000I-150000J0D01*
G01*
G37*
G36*
G01*
X141755000Y-127185000D02*
X141455000Y-127185000D01*
G75*
G02*
X141305000Y-127035000I0J150000D01*
G01*
X141305000Y-125285000D01*
G75*
G02*
X141455000Y-125135000I150000J0D01*
G01*
X141755000Y-125135000D01*
G75*
G02*
X141905000Y-125285000I0J-150000D01*
G01*
X141905000Y-127035000D01*
G75*
G02*
X141755000Y-127185000I-150000J0D01*
G01*
G37*
G36*
G01*
X140485000Y-127185000D02*
X140185000Y-127185000D01*
G75*
G02*
X140035000Y-127035000I0J150000D01*
G01*
X140035000Y-125285000D01*
G75*
G02*
X140185000Y-125135000I150000J0D01*
G01*
X140485000Y-125135000D01*
G75*
G02*
X140635000Y-125285000I0J-150000D01*
G01*
X140635000Y-127035000D01*
G75*
G02*
X140485000Y-127185000I-150000J0D01*
G01*
G37*
G36*
G01*
X139215000Y-127185000D02*
X138915000Y-127185000D01*
G75*
G02*
X138765000Y-127035000I0J150000D01*
G01*
X138765000Y-125285000D01*
G75*
G02*
X138915000Y-125135000I150000J0D01*
G01*
X139215000Y-125135000D01*
G75*
G02*
X139365000Y-125285000I0J-150000D01*
G01*
X139365000Y-127035000D01*
G75*
G02*
X139215000Y-127185000I-150000J0D01*
G01*
G37*
G36*
G01*
X137945000Y-127185000D02*
X137645000Y-127185000D01*
G75*
G02*
X137495000Y-127035000I0J150000D01*
G01*
X137495000Y-125285000D01*
G75*
G02*
X137645000Y-125135000I150000J0D01*
G01*
X137945000Y-125135000D01*
G75*
G02*
X138095000Y-125285000I0J-150000D01*
G01*
X138095000Y-127035000D01*
G75*
G02*
X137945000Y-127185000I-150000J0D01*
G01*
G37*
%TD*%
D10*
%TO.C,U7*%
X147320000Y-95250000D03*
X147320000Y-113030000D03*
D11*
X147320000Y-103886000D03*
%TD*%
M02*
