%TF.GenerationSoftware,KiCad,Pcbnew,(5.1.10)-1*%
%TF.CreationDate,2021-09-08T13:12:46-04:00*%
%TF.ProjectId,Water_sensor,57617465-725f-4736-956e-736f722e6b69,rev?*%
%TF.SameCoordinates,Original*%
%TF.FileFunction,Soldermask,Bot*%
%TF.FilePolarity,Negative*%
%FSLAX46Y46*%
G04 Gerber Fmt 4.6, Leading zero omitted, Abs format (unit mm)*
G04 Created by KiCad (PCBNEW (5.1.10)-1) date 2021-09-08 13:12:46*
%MOMM*%
%LPD*%
G01*
G04 APERTURE LIST*
%ADD10R,1.600000X1.600000*%
%ADD11O,1.600000X1.600000*%
%ADD12C,1.524000*%
G04 APERTURE END LIST*
D10*
%TO.C,A1*%
X110490000Y-118110000D03*
D11*
X125730000Y-151130000D03*
X110490000Y-120650000D03*
X125730000Y-148590000D03*
X110490000Y-123190000D03*
X125730000Y-146050000D03*
X110490000Y-125730000D03*
X125730000Y-143510000D03*
X110490000Y-128270000D03*
X125730000Y-140970000D03*
X110490000Y-130810000D03*
X125730000Y-138430000D03*
X110490000Y-133350000D03*
X125730000Y-135890000D03*
X110490000Y-135890000D03*
X125730000Y-133350000D03*
X110490000Y-138430000D03*
X125730000Y-130810000D03*
X110490000Y-140970000D03*
X125730000Y-128270000D03*
X110490000Y-143510000D03*
X125730000Y-125730000D03*
X110490000Y-146050000D03*
X125730000Y-123190000D03*
X110490000Y-148590000D03*
X125730000Y-120650000D03*
X110490000Y-151130000D03*
X125730000Y-118110000D03*
X110490000Y-153670000D03*
X125730000Y-153670000D03*
%TD*%
D12*
%TO.C,U2*%
X130810000Y-156210000D03*
X133350000Y-156210000D03*
X135890000Y-156210000D03*
X138430000Y-156210000D03*
X140970000Y-156210000D03*
X143510000Y-156210000D03*
%TD*%
%TO.C,U3*%
X120142000Y-104394000D03*
X123190000Y-104394000D03*
X126238000Y-104394000D03*
%TD*%
%TO.C,U4*%
X132080000Y-120650000D03*
X134620000Y-120650000D03*
X137160000Y-120650000D03*
%TD*%
%TO.C,U5*%
X120142000Y-74676000D03*
X123190000Y-74676000D03*
X126238000Y-74676000D03*
%TD*%
%TO.C,U6*%
X124460000Y-163830000D03*
X127000000Y-163830000D03*
X129540000Y-163830000D03*
X132080000Y-163830000D03*
%TD*%
M02*
