%TF.GenerationSoftware,KiCad,Pcbnew,(5.1.10)-1*%
%TF.CreationDate,2021-10-20T12:04:40-04:00*%
%TF.ProjectId,mainboard,6d61696e-626f-4617-9264-2e6b69636164,rev?*%
%TF.SameCoordinates,Original*%
%TF.FileFunction,Copper,L1,Top*%
%TF.FilePolarity,Positive*%
%FSLAX46Y46*%
G04 Gerber Fmt 4.6, Leading zero omitted, Abs format (unit mm)*
G04 Created by KiCad (PCBNEW (5.1.10)-1) date 2021-10-20 12:04:40*
%MOMM*%
%LPD*%
G01*
G04 APERTURE LIST*
%TA.AperFunction,ComponentPad*%
%ADD10R,1.600000X1.600000*%
%TD*%
%TA.AperFunction,ComponentPad*%
%ADD11O,1.600000X1.600000*%
%TD*%
%TA.AperFunction,ComponentPad*%
%ADD12C,1.524000*%
%TD*%
%TA.AperFunction,ViaPad*%
%ADD13C,0.800000*%
%TD*%
%TA.AperFunction,Conductor*%
%ADD14C,0.250000*%
%TD*%
G04 APERTURE END LIST*
D10*
%TO.P,A1,1*%
%TO.N,Net-(A1-Pad1)*%
X90932000Y-57912000D03*
D11*
%TO.P,A1,17*%
%TO.N,Net-(10K1-Pad1)*%
X106172000Y-90932000D03*
%TO.P,A1,2*%
%TO.N,Net-(A1-Pad2)*%
X90932000Y-60452000D03*
%TO.P,A1,18*%
%TO.N,Net-(A1-Pad18)*%
X106172000Y-88392000D03*
%TO.P,A1,3*%
%TO.N,Net-(A1-Pad3)*%
X90932000Y-62992000D03*
%TO.P,A1,19*%
%TO.N,Net-(A1-Pad19)*%
X106172000Y-85852000D03*
%TO.P,A1,4*%
%TO.N,GND*%
X90932000Y-65532000D03*
%TO.P,A1,20*%
%TO.N,Net-(A1-Pad20)*%
X106172000Y-83312000D03*
%TO.P,A1,5*%
%TO.N,Net-(A1-Pad5)*%
X90932000Y-68072000D03*
%TO.P,A1,21*%
%TO.N,Net-(A1-Pad21)*%
X106172000Y-80772000D03*
%TO.P,A1,6*%
%TO.N,Net-(A1-Pad6)*%
X90932000Y-70612000D03*
%TO.P,A1,22*%
%TO.N,Net-(A1-Pad22)*%
X106172000Y-78232000D03*
%TO.P,A1,7*%
%TO.N,Net-(A1-Pad7)*%
X90932000Y-73152000D03*
%TO.P,A1,23*%
%TO.N,Net-(10K1-Pad2)*%
X106172000Y-75692000D03*
%TO.P,A1,8*%
%TO.N,Net-(A1-Pad8)*%
X90932000Y-75692000D03*
%TO.P,A1,24*%
%TO.N,Net-(4.7k1-Pad2)*%
X106172000Y-73152000D03*
%TO.P,A1,9*%
%TO.N,Net-(A1-Pad9)*%
X90932000Y-78232000D03*
%TO.P,A1,25*%
%TO.N,Net-(A1-Pad25)*%
X106172000Y-70612000D03*
%TO.P,A1,10*%
%TO.N,Net-(A1-Pad10)*%
X90932000Y-80772000D03*
%TO.P,A1,26*%
%TO.N,Net-(A1-Pad26)*%
X106172000Y-68072000D03*
%TO.P,A1,11*%
%TO.N,Net-(A1-Pad11)*%
X90932000Y-83312000D03*
%TO.P,A1,27*%
%TO.N,Net-(A1-Pad27)*%
X106172000Y-65532000D03*
%TO.P,A1,12*%
%TO.N,Net-(A1-Pad12)*%
X90932000Y-85852000D03*
%TO.P,A1,28*%
%TO.N,Net-(A1-Pad28)*%
X106172000Y-62992000D03*
%TO.P,A1,13*%
%TO.N,Net-(A1-Pad13)*%
X90932000Y-88392000D03*
%TO.P,A1,29*%
%TO.N,GND*%
X106172000Y-60452000D03*
%TO.P,A1,14*%
%TO.N,Net-(A1-Pad14)*%
X90932000Y-90932000D03*
%TO.P,A1,30*%
%TO.N,Net-(A1-Pad30)*%
X106172000Y-57912000D03*
%TO.P,A1,15*%
%TO.N,Net-(A1-Pad15)*%
X90932000Y-93472000D03*
%TO.P,A1,16*%
%TO.N,Net-(A1-Pad16)*%
X106172000Y-93472000D03*
%TD*%
%TO.P,U1,1*%
%TO.N,Net-(U1-Pad1)*%
%TA.AperFunction,SMDPad,CuDef*%
G36*
G01*
X115085000Y-81367000D02*
X114785000Y-81367000D01*
G75*
G02*
X114635000Y-81217000I0J150000D01*
G01*
X114635000Y-79467000D01*
G75*
G02*
X114785000Y-79317000I150000J0D01*
G01*
X115085000Y-79317000D01*
G75*
G02*
X115235000Y-79467000I0J-150000D01*
G01*
X115235000Y-81217000D01*
G75*
G02*
X115085000Y-81367000I-150000J0D01*
G01*
G37*
%TD.AperFunction*%
%TO.P,U1,2*%
%TO.N,Net-(10K1-Pad1)*%
%TA.AperFunction,SMDPad,CuDef*%
G36*
G01*
X116355000Y-81367000D02*
X116055000Y-81367000D01*
G75*
G02*
X115905000Y-81217000I0J150000D01*
G01*
X115905000Y-79467000D01*
G75*
G02*
X116055000Y-79317000I150000J0D01*
G01*
X116355000Y-79317000D01*
G75*
G02*
X116505000Y-79467000I0J-150000D01*
G01*
X116505000Y-81217000D01*
G75*
G02*
X116355000Y-81367000I-150000J0D01*
G01*
G37*
%TD.AperFunction*%
%TO.P,U1,3*%
%TO.N,Net-(A1-Pad5)*%
%TA.AperFunction,SMDPad,CuDef*%
G36*
G01*
X117625000Y-81367000D02*
X117325000Y-81367000D01*
G75*
G02*
X117175000Y-81217000I0J150000D01*
G01*
X117175000Y-79467000D01*
G75*
G02*
X117325000Y-79317000I150000J0D01*
G01*
X117625000Y-79317000D01*
G75*
G02*
X117775000Y-79467000I0J-150000D01*
G01*
X117775000Y-81217000D01*
G75*
G02*
X117625000Y-81367000I-150000J0D01*
G01*
G37*
%TD.AperFunction*%
%TO.P,U1,4*%
%TO.N,Net-(U1-Pad4)*%
%TA.AperFunction,SMDPad,CuDef*%
G36*
G01*
X118895000Y-81367000D02*
X118595000Y-81367000D01*
G75*
G02*
X118445000Y-81217000I0J150000D01*
G01*
X118445000Y-79467000D01*
G75*
G02*
X118595000Y-79317000I150000J0D01*
G01*
X118895000Y-79317000D01*
G75*
G02*
X119045000Y-79467000I0J-150000D01*
G01*
X119045000Y-81217000D01*
G75*
G02*
X118895000Y-81367000I-150000J0D01*
G01*
G37*
%TD.AperFunction*%
%TO.P,U1,5*%
%TO.N,GND*%
%TA.AperFunction,SMDPad,CuDef*%
G36*
G01*
X120165000Y-81367000D02*
X119865000Y-81367000D01*
G75*
G02*
X119715000Y-81217000I0J150000D01*
G01*
X119715000Y-79467000D01*
G75*
G02*
X119865000Y-79317000I150000J0D01*
G01*
X120165000Y-79317000D01*
G75*
G02*
X120315000Y-79467000I0J-150000D01*
G01*
X120315000Y-81217000D01*
G75*
G02*
X120165000Y-81367000I-150000J0D01*
G01*
G37*
%TD.AperFunction*%
%TO.P,U1,6*%
%TA.AperFunction,SMDPad,CuDef*%
G36*
G01*
X121435000Y-81367000D02*
X121135000Y-81367000D01*
G75*
G02*
X120985000Y-81217000I0J150000D01*
G01*
X120985000Y-79467000D01*
G75*
G02*
X121135000Y-79317000I150000J0D01*
G01*
X121435000Y-79317000D01*
G75*
G02*
X121585000Y-79467000I0J-150000D01*
G01*
X121585000Y-81217000D01*
G75*
G02*
X121435000Y-81367000I-150000J0D01*
G01*
G37*
%TD.AperFunction*%
%TO.P,U1,7*%
%TA.AperFunction,SMDPad,CuDef*%
G36*
G01*
X122705000Y-81367000D02*
X122405000Y-81367000D01*
G75*
G02*
X122255000Y-81217000I0J150000D01*
G01*
X122255000Y-79467000D01*
G75*
G02*
X122405000Y-79317000I150000J0D01*
G01*
X122705000Y-79317000D01*
G75*
G02*
X122855000Y-79467000I0J-150000D01*
G01*
X122855000Y-81217000D01*
G75*
G02*
X122705000Y-81367000I-150000J0D01*
G01*
G37*
%TD.AperFunction*%
%TO.P,U1,8*%
%TA.AperFunction,SMDPad,CuDef*%
G36*
G01*
X123975000Y-81367000D02*
X123675000Y-81367000D01*
G75*
G02*
X123525000Y-81217000I0J150000D01*
G01*
X123525000Y-79467000D01*
G75*
G02*
X123675000Y-79317000I150000J0D01*
G01*
X123975000Y-79317000D01*
G75*
G02*
X124125000Y-79467000I0J-150000D01*
G01*
X124125000Y-81217000D01*
G75*
G02*
X123975000Y-81367000I-150000J0D01*
G01*
G37*
%TD.AperFunction*%
%TO.P,U1,9*%
%TA.AperFunction,SMDPad,CuDef*%
G36*
G01*
X123975000Y-72067000D02*
X123675000Y-72067000D01*
G75*
G02*
X123525000Y-71917000I0J150000D01*
G01*
X123525000Y-70167000D01*
G75*
G02*
X123675000Y-70017000I150000J0D01*
G01*
X123975000Y-70017000D01*
G75*
G02*
X124125000Y-70167000I0J-150000D01*
G01*
X124125000Y-71917000D01*
G75*
G02*
X123975000Y-72067000I-150000J0D01*
G01*
G37*
%TD.AperFunction*%
%TO.P,U1,10*%
%TA.AperFunction,SMDPad,CuDef*%
G36*
G01*
X122705000Y-72067000D02*
X122405000Y-72067000D01*
G75*
G02*
X122255000Y-71917000I0J150000D01*
G01*
X122255000Y-70167000D01*
G75*
G02*
X122405000Y-70017000I150000J0D01*
G01*
X122705000Y-70017000D01*
G75*
G02*
X122855000Y-70167000I0J-150000D01*
G01*
X122855000Y-71917000D01*
G75*
G02*
X122705000Y-72067000I-150000J0D01*
G01*
G37*
%TD.AperFunction*%
%TO.P,U1,11*%
%TA.AperFunction,SMDPad,CuDef*%
G36*
G01*
X121435000Y-72067000D02*
X121135000Y-72067000D01*
G75*
G02*
X120985000Y-71917000I0J150000D01*
G01*
X120985000Y-70167000D01*
G75*
G02*
X121135000Y-70017000I150000J0D01*
G01*
X121435000Y-70017000D01*
G75*
G02*
X121585000Y-70167000I0J-150000D01*
G01*
X121585000Y-71917000D01*
G75*
G02*
X121435000Y-72067000I-150000J0D01*
G01*
G37*
%TD.AperFunction*%
%TO.P,U1,12*%
%TA.AperFunction,SMDPad,CuDef*%
G36*
G01*
X120165000Y-72067000D02*
X119865000Y-72067000D01*
G75*
G02*
X119715000Y-71917000I0J150000D01*
G01*
X119715000Y-70167000D01*
G75*
G02*
X119865000Y-70017000I150000J0D01*
G01*
X120165000Y-70017000D01*
G75*
G02*
X120315000Y-70167000I0J-150000D01*
G01*
X120315000Y-71917000D01*
G75*
G02*
X120165000Y-72067000I-150000J0D01*
G01*
G37*
%TD.AperFunction*%
%TO.P,U1,13*%
%TA.AperFunction,SMDPad,CuDef*%
G36*
G01*
X118895000Y-72067000D02*
X118595000Y-72067000D01*
G75*
G02*
X118445000Y-71917000I0J150000D01*
G01*
X118445000Y-70167000D01*
G75*
G02*
X118595000Y-70017000I150000J0D01*
G01*
X118895000Y-70017000D01*
G75*
G02*
X119045000Y-70167000I0J-150000D01*
G01*
X119045000Y-71917000D01*
G75*
G02*
X118895000Y-72067000I-150000J0D01*
G01*
G37*
%TD.AperFunction*%
%TO.P,U1,14*%
%TO.N,Net-(U1-Pad14)*%
%TA.AperFunction,SMDPad,CuDef*%
G36*
G01*
X117625000Y-72067000D02*
X117325000Y-72067000D01*
G75*
G02*
X117175000Y-71917000I0J150000D01*
G01*
X117175000Y-70167000D01*
G75*
G02*
X117325000Y-70017000I150000J0D01*
G01*
X117625000Y-70017000D01*
G75*
G02*
X117775000Y-70167000I0J-150000D01*
G01*
X117775000Y-71917000D01*
G75*
G02*
X117625000Y-72067000I-150000J0D01*
G01*
G37*
%TD.AperFunction*%
%TO.P,U1,15*%
%TO.N,Net-(10K1-Pad2)*%
%TA.AperFunction,SMDPad,CuDef*%
G36*
G01*
X116355000Y-72067000D02*
X116055000Y-72067000D01*
G75*
G02*
X115905000Y-71917000I0J150000D01*
G01*
X115905000Y-70167000D01*
G75*
G02*
X116055000Y-70017000I150000J0D01*
G01*
X116355000Y-70017000D01*
G75*
G02*
X116505000Y-70167000I0J-150000D01*
G01*
X116505000Y-71917000D01*
G75*
G02*
X116355000Y-72067000I-150000J0D01*
G01*
G37*
%TD.AperFunction*%
%TO.P,U1,16*%
%TO.N,Net-(4.7k1-Pad2)*%
%TA.AperFunction,SMDPad,CuDef*%
G36*
G01*
X115085000Y-72067000D02*
X114785000Y-72067000D01*
G75*
G02*
X114635000Y-71917000I0J150000D01*
G01*
X114635000Y-70167000D01*
G75*
G02*
X114785000Y-70017000I150000J0D01*
G01*
X115085000Y-70017000D01*
G75*
G02*
X115235000Y-70167000I0J-150000D01*
G01*
X115235000Y-71917000D01*
G75*
G02*
X115085000Y-72067000I-150000J0D01*
G01*
G37*
%TD.AperFunction*%
%TD*%
D12*
%TO.P,U4,1*%
%TO.N,Net-(10K1-Pad1)*%
X111760000Y-93980000D03*
%TO.P,U4,2*%
%TO.N,Net-(A1-Pad13)*%
X114300000Y-93980000D03*
%TO.P,U4,3*%
%TO.N,Net-(A1-Pad14)*%
X116840000Y-93980000D03*
%TO.P,U4,4*%
%TO.N,Net-(A1-Pad16)*%
X119380000Y-93980000D03*
%TO.P,U4,5*%
%TO.N,Net-(A1-Pad15)*%
X121920000Y-93980000D03*
%TO.P,U4,6*%
%TO.N,GND*%
X124460000Y-93980000D03*
%TD*%
%TO.P,U3,1*%
%TO.N,Net-(A1-Pad8)*%
X100330000Y-104140000D03*
%TO.P,U3,2*%
%TO.N,Net-(A1-Pad7)*%
X102870000Y-104140000D03*
%TO.P,U3,3*%
%TO.N,Net-(A1-Pad19)*%
X105410000Y-104140000D03*
%TO.P,U3,4*%
%TO.N,GND*%
X107950000Y-104140000D03*
%TD*%
%TO.P,U7,1*%
%TO.N,Net-(U6-Pad5)*%
X110490000Y-59690000D03*
%TO.P,U7,2*%
%TO.N,Net-(U6-Pad6)*%
X110490000Y-64770000D03*
%TD*%
%TO.P,U6,1*%
%TO.N,GND*%
X96520000Y-80010000D03*
%TO.P,U6,2*%
%TO.N,Net-(A1-Pad9)*%
X99060000Y-80010000D03*
%TO.P,U6,3*%
%TO.N,Net-(A1-Pad10)*%
X101600000Y-80010000D03*
%TO.P,U6,4*%
%TO.N,Net-(A1-Pad27)*%
X96520000Y-64770000D03*
%TO.P,U6,5*%
%TO.N,Net-(U6-Pad5)*%
X99060000Y-64770000D03*
%TO.P,U6,6*%
%TO.N,Net-(U6-Pad6)*%
X101600000Y-64770000D03*
%TD*%
%TO.P,U5,2*%
%TO.N,GND*%
X112776000Y-55880000D03*
%TO.P,U5,1*%
%TO.N,Net-(A1-Pad30)*%
X109728000Y-55880000D03*
%TD*%
D13*
%TO.N,Net-(10K1-Pad2)*%
X116205000Y-71042000D03*
%TO.N,Net-(10K1-Pad1)*%
X111506000Y-87314500D03*
X115570000Y-87314500D03*
%TO.N,Net-(4.7k1-Pad2)*%
X115570000Y-84389500D03*
%TO.N,GND*%
X120142000Y-84377000D03*
X121920000Y-63754000D03*
X118618000Y-73406000D03*
%TO.N,Net-(A1-Pad5)*%
X117475000Y-80342000D03*
%TO.N,Net-(U1-Pad14)*%
X117475000Y-71042000D03*
%TD*%
D14*
%TO.N,Net-(10K1-Pad1)*%
X109220000Y-93980000D02*
X106172000Y-90932000D01*
X111760000Y-93980000D02*
X109220000Y-93980000D01*
X107888500Y-90932000D02*
X111506000Y-87314500D01*
X106172000Y-90932000D02*
X107888500Y-90932000D01*
X116205000Y-80342000D02*
X116205000Y-82423000D01*
X116205000Y-82423000D02*
X117602000Y-83820000D01*
X117602000Y-83820000D02*
X117602000Y-86106000D01*
X116778500Y-86106000D02*
X115570000Y-87314500D01*
X117602000Y-86106000D02*
X116778500Y-86106000D01*
%TO.N,Net-(4.7k1-Pad2)*%
X114935000Y-71042000D02*
X109552000Y-71042000D01*
X107442000Y-73152000D02*
X106172000Y-73152000D01*
X109552000Y-71042000D02*
X107442000Y-73152000D01*
X114309990Y-71667010D02*
X114309990Y-78730010D01*
X114935000Y-71042000D02*
X114309990Y-71667010D01*
X114309990Y-78730010D02*
X113792000Y-79248000D01*
X113792000Y-82611500D02*
X115570000Y-84389500D01*
X113792000Y-79248000D02*
X113792000Y-82611500D01*
%TO.N,GND*%
X100838000Y-59944000D02*
X100838000Y-62738000D01*
X100838000Y-62738000D02*
X99822000Y-62738000D01*
X99822000Y-62738000D02*
X99568000Y-62484000D01*
X93980000Y-62484000D02*
X90932000Y-65532000D01*
X124460000Y-93980000D02*
X124460000Y-90932000D01*
X124460000Y-90932000D02*
X122174000Y-88646000D01*
X122174000Y-86409000D02*
X120142000Y-84377000D01*
X122174000Y-88646000D02*
X122174000Y-86409000D01*
X120142000Y-80469000D02*
X120015000Y-80342000D01*
X118618000Y-71169000D02*
X118745000Y-71042000D01*
X118745000Y-71042000D02*
X118745000Y-70017000D01*
X99568000Y-62484000D02*
X93980000Y-62484000D01*
X96520000Y-71120000D02*
X90932000Y-65532000D01*
X96520000Y-80010000D02*
X96520000Y-71120000D01*
X120142000Y-84377000D02*
X120142000Y-80469000D01*
X122555000Y-80342000D02*
X123825000Y-80342000D01*
X121285000Y-80342000D02*
X122555000Y-80342000D01*
X120015000Y-80342000D02*
X121285000Y-80342000D01*
X120015000Y-80342000D02*
X120015000Y-74803000D01*
X120015000Y-74803000D02*
X118618000Y-73406000D01*
X118618000Y-73406000D02*
X118618000Y-71169000D01*
X122555000Y-71042000D02*
X123825000Y-71042000D01*
X121285000Y-71042000D02*
X122555000Y-71042000D01*
X120015000Y-71042000D02*
X121285000Y-71042000D01*
X118745000Y-71042000D02*
X120015000Y-71042000D01*
X118745000Y-71042000D02*
X118745000Y-66929000D01*
X118745000Y-66929000D02*
X121920000Y-63754000D01*
X118745000Y-70017000D02*
X109180000Y-60452000D01*
X105664000Y-59944000D02*
X106172000Y-60452000D01*
X100838000Y-59944000D02*
X105664000Y-59944000D01*
X106172000Y-60452000D02*
X109180000Y-60452000D01*
X109180000Y-60452000D02*
X109180000Y-58460000D01*
X109180000Y-58460000D02*
X110236000Y-57404000D01*
X111252000Y-57404000D02*
X112776000Y-55880000D01*
X110236000Y-57404000D02*
X111252000Y-57404000D01*
%TO.N,Net-(A1-Pad8)*%
X88900000Y-77724000D02*
X88900000Y-95504000D01*
X90932000Y-75692000D02*
X88900000Y-77724000D01*
X91694000Y-95504000D02*
X100330000Y-104140000D01*
X88900000Y-95504000D02*
X91694000Y-95504000D01*
%TO.N,Net-(A1-Pad9)*%
X99060000Y-80010000D02*
X99060000Y-81280000D01*
X99060000Y-81280000D02*
X98552000Y-81788000D01*
X98552000Y-81788000D02*
X93980000Y-81788000D01*
X93980000Y-81280000D02*
X90932000Y-78232000D01*
X93980000Y-81788000D02*
X93980000Y-81280000D01*
%TO.N,Net-(A1-Pad10)*%
X92964000Y-82804000D02*
X90932000Y-80772000D01*
X100584000Y-82804000D02*
X92964000Y-82804000D01*
X101600000Y-81788000D02*
X100584000Y-82804000D01*
X101600000Y-80010000D02*
X101600000Y-81788000D01*
%TO.N,Net-(A1-Pad27)*%
X96520000Y-64770000D02*
X99060000Y-67310000D01*
X104394000Y-67310000D02*
X106172000Y-65532000D01*
X99060000Y-67310000D02*
X104394000Y-67310000D01*
%TO.N,Net-(A1-Pad13)*%
X113792000Y-93980000D02*
X114300000Y-93980000D01*
X111252000Y-96520000D02*
X113792000Y-93980000D01*
X105410000Y-96520000D02*
X111252000Y-96520000D01*
X97536000Y-88646000D02*
X105410000Y-96520000D01*
X97536000Y-88392000D02*
X97536000Y-88646000D01*
X90932000Y-88392000D02*
X97536000Y-88392000D01*
%TO.N,Net-(A1-Pad14)*%
X116840000Y-97536000D02*
X116840000Y-93980000D01*
X114046000Y-100330000D02*
X116840000Y-97536000D01*
X106934000Y-100584000D02*
X107188000Y-100330000D01*
X98044000Y-91694000D02*
X106934000Y-100584000D01*
X107188000Y-100330000D02*
X114046000Y-100330000D01*
X98044000Y-90932000D02*
X98044000Y-91694000D01*
X90932000Y-90932000D02*
X98044000Y-90932000D01*
%TO.N,Net-(A1-Pad30)*%
X107696000Y-57912000D02*
X109728000Y-55880000D01*
X106172000Y-57912000D02*
X107696000Y-57912000D01*
%TO.N,Net-(A1-Pad15)*%
X98552000Y-93472000D02*
X90932000Y-93472000D01*
X98552000Y-93472000D02*
X98552000Y-94234000D01*
X98552000Y-94234000D02*
X106172000Y-101854000D01*
X106172000Y-101854000D02*
X113792000Y-101854000D01*
X121666000Y-93980000D02*
X121920000Y-93980000D01*
X113792000Y-101854000D02*
X121666000Y-93980000D01*
%TO.N,Net-(U6-Pad6)*%
X110126999Y-64406999D02*
X110490000Y-64770000D01*
X101963001Y-64406999D02*
X110126999Y-64406999D01*
X101600000Y-64770000D02*
X101963001Y-64406999D01*
%TD*%
M02*
