%TF.GenerationSoftware,KiCad,Pcbnew,(5.1.10)-1*%
%TF.CreationDate,2021-10-20T12:04:40-04:00*%
%TF.ProjectId,mainboard,6d61696e-626f-4617-9264-2e6b69636164,rev?*%
%TF.SameCoordinates,Original*%
%TF.FileFunction,Paste,Top*%
%TF.FilePolarity,Positive*%
%FSLAX46Y46*%
G04 Gerber Fmt 4.6, Leading zero omitted, Abs format (unit mm)*
G04 Created by KiCad (PCBNEW (5.1.10)-1) date 2021-10-20 12:04:40*
%MOMM*%
%LPD*%
G01*
G04 APERTURE LIST*
G04 APERTURE END LIST*
%TO.C,U1*%
G36*
G01*
X115085000Y-81367000D02*
X114785000Y-81367000D01*
G75*
G02*
X114635000Y-81217000I0J150000D01*
G01*
X114635000Y-79467000D01*
G75*
G02*
X114785000Y-79317000I150000J0D01*
G01*
X115085000Y-79317000D01*
G75*
G02*
X115235000Y-79467000I0J-150000D01*
G01*
X115235000Y-81217000D01*
G75*
G02*
X115085000Y-81367000I-150000J0D01*
G01*
G37*
G36*
G01*
X116355000Y-81367000D02*
X116055000Y-81367000D01*
G75*
G02*
X115905000Y-81217000I0J150000D01*
G01*
X115905000Y-79467000D01*
G75*
G02*
X116055000Y-79317000I150000J0D01*
G01*
X116355000Y-79317000D01*
G75*
G02*
X116505000Y-79467000I0J-150000D01*
G01*
X116505000Y-81217000D01*
G75*
G02*
X116355000Y-81367000I-150000J0D01*
G01*
G37*
G36*
G01*
X117625000Y-81367000D02*
X117325000Y-81367000D01*
G75*
G02*
X117175000Y-81217000I0J150000D01*
G01*
X117175000Y-79467000D01*
G75*
G02*
X117325000Y-79317000I150000J0D01*
G01*
X117625000Y-79317000D01*
G75*
G02*
X117775000Y-79467000I0J-150000D01*
G01*
X117775000Y-81217000D01*
G75*
G02*
X117625000Y-81367000I-150000J0D01*
G01*
G37*
G36*
G01*
X118895000Y-81367000D02*
X118595000Y-81367000D01*
G75*
G02*
X118445000Y-81217000I0J150000D01*
G01*
X118445000Y-79467000D01*
G75*
G02*
X118595000Y-79317000I150000J0D01*
G01*
X118895000Y-79317000D01*
G75*
G02*
X119045000Y-79467000I0J-150000D01*
G01*
X119045000Y-81217000D01*
G75*
G02*
X118895000Y-81367000I-150000J0D01*
G01*
G37*
G36*
G01*
X120165000Y-81367000D02*
X119865000Y-81367000D01*
G75*
G02*
X119715000Y-81217000I0J150000D01*
G01*
X119715000Y-79467000D01*
G75*
G02*
X119865000Y-79317000I150000J0D01*
G01*
X120165000Y-79317000D01*
G75*
G02*
X120315000Y-79467000I0J-150000D01*
G01*
X120315000Y-81217000D01*
G75*
G02*
X120165000Y-81367000I-150000J0D01*
G01*
G37*
G36*
G01*
X121435000Y-81367000D02*
X121135000Y-81367000D01*
G75*
G02*
X120985000Y-81217000I0J150000D01*
G01*
X120985000Y-79467000D01*
G75*
G02*
X121135000Y-79317000I150000J0D01*
G01*
X121435000Y-79317000D01*
G75*
G02*
X121585000Y-79467000I0J-150000D01*
G01*
X121585000Y-81217000D01*
G75*
G02*
X121435000Y-81367000I-150000J0D01*
G01*
G37*
G36*
G01*
X122705000Y-81367000D02*
X122405000Y-81367000D01*
G75*
G02*
X122255000Y-81217000I0J150000D01*
G01*
X122255000Y-79467000D01*
G75*
G02*
X122405000Y-79317000I150000J0D01*
G01*
X122705000Y-79317000D01*
G75*
G02*
X122855000Y-79467000I0J-150000D01*
G01*
X122855000Y-81217000D01*
G75*
G02*
X122705000Y-81367000I-150000J0D01*
G01*
G37*
G36*
G01*
X123975000Y-81367000D02*
X123675000Y-81367000D01*
G75*
G02*
X123525000Y-81217000I0J150000D01*
G01*
X123525000Y-79467000D01*
G75*
G02*
X123675000Y-79317000I150000J0D01*
G01*
X123975000Y-79317000D01*
G75*
G02*
X124125000Y-79467000I0J-150000D01*
G01*
X124125000Y-81217000D01*
G75*
G02*
X123975000Y-81367000I-150000J0D01*
G01*
G37*
G36*
G01*
X123975000Y-72067000D02*
X123675000Y-72067000D01*
G75*
G02*
X123525000Y-71917000I0J150000D01*
G01*
X123525000Y-70167000D01*
G75*
G02*
X123675000Y-70017000I150000J0D01*
G01*
X123975000Y-70017000D01*
G75*
G02*
X124125000Y-70167000I0J-150000D01*
G01*
X124125000Y-71917000D01*
G75*
G02*
X123975000Y-72067000I-150000J0D01*
G01*
G37*
G36*
G01*
X122705000Y-72067000D02*
X122405000Y-72067000D01*
G75*
G02*
X122255000Y-71917000I0J150000D01*
G01*
X122255000Y-70167000D01*
G75*
G02*
X122405000Y-70017000I150000J0D01*
G01*
X122705000Y-70017000D01*
G75*
G02*
X122855000Y-70167000I0J-150000D01*
G01*
X122855000Y-71917000D01*
G75*
G02*
X122705000Y-72067000I-150000J0D01*
G01*
G37*
G36*
G01*
X121435000Y-72067000D02*
X121135000Y-72067000D01*
G75*
G02*
X120985000Y-71917000I0J150000D01*
G01*
X120985000Y-70167000D01*
G75*
G02*
X121135000Y-70017000I150000J0D01*
G01*
X121435000Y-70017000D01*
G75*
G02*
X121585000Y-70167000I0J-150000D01*
G01*
X121585000Y-71917000D01*
G75*
G02*
X121435000Y-72067000I-150000J0D01*
G01*
G37*
G36*
G01*
X120165000Y-72067000D02*
X119865000Y-72067000D01*
G75*
G02*
X119715000Y-71917000I0J150000D01*
G01*
X119715000Y-70167000D01*
G75*
G02*
X119865000Y-70017000I150000J0D01*
G01*
X120165000Y-70017000D01*
G75*
G02*
X120315000Y-70167000I0J-150000D01*
G01*
X120315000Y-71917000D01*
G75*
G02*
X120165000Y-72067000I-150000J0D01*
G01*
G37*
G36*
G01*
X118895000Y-72067000D02*
X118595000Y-72067000D01*
G75*
G02*
X118445000Y-71917000I0J150000D01*
G01*
X118445000Y-70167000D01*
G75*
G02*
X118595000Y-70017000I150000J0D01*
G01*
X118895000Y-70017000D01*
G75*
G02*
X119045000Y-70167000I0J-150000D01*
G01*
X119045000Y-71917000D01*
G75*
G02*
X118895000Y-72067000I-150000J0D01*
G01*
G37*
G36*
G01*
X117625000Y-72067000D02*
X117325000Y-72067000D01*
G75*
G02*
X117175000Y-71917000I0J150000D01*
G01*
X117175000Y-70167000D01*
G75*
G02*
X117325000Y-70017000I150000J0D01*
G01*
X117625000Y-70017000D01*
G75*
G02*
X117775000Y-70167000I0J-150000D01*
G01*
X117775000Y-71917000D01*
G75*
G02*
X117625000Y-72067000I-150000J0D01*
G01*
G37*
G36*
G01*
X116355000Y-72067000D02*
X116055000Y-72067000D01*
G75*
G02*
X115905000Y-71917000I0J150000D01*
G01*
X115905000Y-70167000D01*
G75*
G02*
X116055000Y-70017000I150000J0D01*
G01*
X116355000Y-70017000D01*
G75*
G02*
X116505000Y-70167000I0J-150000D01*
G01*
X116505000Y-71917000D01*
G75*
G02*
X116355000Y-72067000I-150000J0D01*
G01*
G37*
G36*
G01*
X115085000Y-72067000D02*
X114785000Y-72067000D01*
G75*
G02*
X114635000Y-71917000I0J150000D01*
G01*
X114635000Y-70167000D01*
G75*
G02*
X114785000Y-70017000I150000J0D01*
G01*
X115085000Y-70017000D01*
G75*
G02*
X115235000Y-70167000I0J-150000D01*
G01*
X115235000Y-71917000D01*
G75*
G02*
X115085000Y-72067000I-150000J0D01*
G01*
G37*
%TD*%
M02*
