%TF.GenerationSoftware,KiCad,Pcbnew,(5.1.10)-1*%
%TF.CreationDate,2021-10-20T12:04:40-04:00*%
%TF.ProjectId,mainboard,6d61696e-626f-4617-9264-2e6b69636164,rev?*%
%TF.SameCoordinates,Original*%
%TF.FileFunction,Legend,Top*%
%TF.FilePolarity,Positive*%
%FSLAX46Y46*%
G04 Gerber Fmt 4.6, Leading zero omitted, Abs format (unit mm)*
G04 Created by KiCad (PCBNEW (5.1.10)-1) date 2021-10-20 12:04:40*
%MOMM*%
%LPD*%
G01*
G04 APERTURE LIST*
%ADD10C,0.150000*%
%ADD11C,0.120000*%
G04 APERTURE END LIST*
D10*
X112230952Y-104296904D02*
X112230952Y-104944523D01*
X112269047Y-105020714D01*
X112307142Y-105058809D01*
X112383333Y-105096904D01*
X112535714Y-105096904D01*
X112611904Y-105058809D01*
X112650000Y-105020714D01*
X112688095Y-104944523D01*
X112688095Y-104296904D01*
X113069047Y-104563571D02*
X113069047Y-105096904D01*
X113069047Y-104639761D02*
X113107142Y-104601666D01*
X113183333Y-104563571D01*
X113297619Y-104563571D01*
X113373809Y-104601666D01*
X113411904Y-104677857D01*
X113411904Y-105096904D01*
X113792857Y-105096904D02*
X113792857Y-104563571D01*
X113792857Y-104296904D02*
X113754761Y-104335000D01*
X113792857Y-104373095D01*
X113830952Y-104335000D01*
X113792857Y-104296904D01*
X113792857Y-104373095D01*
X114097619Y-104563571D02*
X114288095Y-105096904D01*
X114478571Y-104563571D01*
X115088095Y-105058809D02*
X115011904Y-105096904D01*
X114859523Y-105096904D01*
X114783333Y-105058809D01*
X114745238Y-104982619D01*
X114745238Y-104677857D01*
X114783333Y-104601666D01*
X114859523Y-104563571D01*
X115011904Y-104563571D01*
X115088095Y-104601666D01*
X115126190Y-104677857D01*
X115126190Y-104754047D01*
X114745238Y-104830238D01*
X115469047Y-105096904D02*
X115469047Y-104563571D01*
X115469047Y-104715952D02*
X115507142Y-104639761D01*
X115545238Y-104601666D01*
X115621428Y-104563571D01*
X115697619Y-104563571D01*
X115926190Y-105058809D02*
X116002380Y-105096904D01*
X116154761Y-105096904D01*
X116230952Y-105058809D01*
X116269047Y-104982619D01*
X116269047Y-104944523D01*
X116230952Y-104868333D01*
X116154761Y-104830238D01*
X116040476Y-104830238D01*
X115964285Y-104792142D01*
X115926190Y-104715952D01*
X115926190Y-104677857D01*
X115964285Y-104601666D01*
X116040476Y-104563571D01*
X116154761Y-104563571D01*
X116230952Y-104601666D01*
X116611904Y-105096904D02*
X116611904Y-104563571D01*
X116611904Y-104296904D02*
X116573809Y-104335000D01*
X116611904Y-104373095D01*
X116650000Y-104335000D01*
X116611904Y-104296904D01*
X116611904Y-104373095D01*
X116878571Y-104563571D02*
X117183333Y-104563571D01*
X116992857Y-104296904D02*
X116992857Y-104982619D01*
X117030952Y-105058809D01*
X117107142Y-105096904D01*
X117183333Y-105096904D01*
X117373809Y-104563571D02*
X117564285Y-105096904D01*
X117754761Y-104563571D02*
X117564285Y-105096904D01*
X117488095Y-105287380D01*
X117450000Y-105325476D01*
X117373809Y-105363571D01*
X118783333Y-105096904D02*
X118707142Y-105058809D01*
X118669047Y-105020714D01*
X118630952Y-104944523D01*
X118630952Y-104715952D01*
X118669047Y-104639761D01*
X118707142Y-104601666D01*
X118783333Y-104563571D01*
X118897619Y-104563571D01*
X118973809Y-104601666D01*
X119011904Y-104639761D01*
X119050000Y-104715952D01*
X119050000Y-104944523D01*
X119011904Y-105020714D01*
X118973809Y-105058809D01*
X118897619Y-105096904D01*
X118783333Y-105096904D01*
X119278571Y-104563571D02*
X119583333Y-104563571D01*
X119392857Y-105096904D02*
X119392857Y-104411190D01*
X119430952Y-104335000D01*
X119507142Y-104296904D01*
X119583333Y-104296904D01*
X120421428Y-105058809D02*
X120535714Y-105096904D01*
X120726190Y-105096904D01*
X120802380Y-105058809D01*
X120840476Y-105020714D01*
X120878571Y-104944523D01*
X120878571Y-104868333D01*
X120840476Y-104792142D01*
X120802380Y-104754047D01*
X120726190Y-104715952D01*
X120573809Y-104677857D01*
X120497619Y-104639761D01*
X120459523Y-104601666D01*
X120421428Y-104525476D01*
X120421428Y-104449285D01*
X120459523Y-104373095D01*
X120497619Y-104335000D01*
X120573809Y-104296904D01*
X120764285Y-104296904D01*
X120878571Y-104335000D01*
X121335714Y-105096904D02*
X121259523Y-105058809D01*
X121221428Y-105020714D01*
X121183333Y-104944523D01*
X121183333Y-104715952D01*
X121221428Y-104639761D01*
X121259523Y-104601666D01*
X121335714Y-104563571D01*
X121450000Y-104563571D01*
X121526190Y-104601666D01*
X121564285Y-104639761D01*
X121602380Y-104715952D01*
X121602380Y-104944523D01*
X121564285Y-105020714D01*
X121526190Y-105058809D01*
X121450000Y-105096904D01*
X121335714Y-105096904D01*
X122288095Y-104563571D02*
X122288095Y-105096904D01*
X121945238Y-104563571D02*
X121945238Y-104982619D01*
X121983333Y-105058809D01*
X122059523Y-105096904D01*
X122173809Y-105096904D01*
X122250000Y-105058809D01*
X122288095Y-105020714D01*
X122554761Y-104563571D02*
X122859523Y-104563571D01*
X122669047Y-104296904D02*
X122669047Y-104982619D01*
X122707142Y-105058809D01*
X122783333Y-105096904D01*
X122859523Y-105096904D01*
X123126190Y-105096904D02*
X123126190Y-104296904D01*
X123469047Y-105096904D02*
X123469047Y-104677857D01*
X123430952Y-104601666D01*
X123354761Y-104563571D01*
X123240476Y-104563571D01*
X123164285Y-104601666D01*
X123126190Y-104639761D01*
X124916666Y-105020714D02*
X124878571Y-105058809D01*
X124764285Y-105096904D01*
X124688095Y-105096904D01*
X124573809Y-105058809D01*
X124497619Y-104982619D01*
X124459523Y-104906428D01*
X124421428Y-104754047D01*
X124421428Y-104639761D01*
X124459523Y-104487380D01*
X124497619Y-104411190D01*
X124573809Y-104335000D01*
X124688095Y-104296904D01*
X124764285Y-104296904D01*
X124878571Y-104335000D01*
X124916666Y-104373095D01*
X125602380Y-105096904D02*
X125602380Y-104677857D01*
X125564285Y-104601666D01*
X125488095Y-104563571D01*
X125335714Y-104563571D01*
X125259523Y-104601666D01*
X125602380Y-105058809D02*
X125526190Y-105096904D01*
X125335714Y-105096904D01*
X125259523Y-105058809D01*
X125221428Y-104982619D01*
X125221428Y-104906428D01*
X125259523Y-104830238D01*
X125335714Y-104792142D01*
X125526190Y-104792142D01*
X125602380Y-104754047D01*
X125983333Y-105096904D02*
X125983333Y-104563571D01*
X125983333Y-104715952D02*
X126021428Y-104639761D01*
X126059523Y-104601666D01*
X126135714Y-104563571D01*
X126211904Y-104563571D01*
X126592857Y-105096904D02*
X126516666Y-105058809D01*
X126478571Y-105020714D01*
X126440476Y-104944523D01*
X126440476Y-104715952D01*
X126478571Y-104639761D01*
X126516666Y-104601666D01*
X126592857Y-104563571D01*
X126707142Y-104563571D01*
X126783333Y-104601666D01*
X126821428Y-104639761D01*
X126859523Y-104715952D01*
X126859523Y-104944523D01*
X126821428Y-105020714D01*
X126783333Y-105058809D01*
X126707142Y-105096904D01*
X126592857Y-105096904D01*
X127316666Y-105096904D02*
X127240476Y-105058809D01*
X127202380Y-104982619D01*
X127202380Y-104296904D01*
X127621428Y-105096904D02*
X127621428Y-104563571D01*
X127621428Y-104296904D02*
X127583333Y-104335000D01*
X127621428Y-104373095D01*
X127659523Y-104335000D01*
X127621428Y-104296904D01*
X127621428Y-104373095D01*
X128002380Y-104563571D02*
X128002380Y-105096904D01*
X128002380Y-104639761D02*
X128040476Y-104601666D01*
X128116666Y-104563571D01*
X128230952Y-104563571D01*
X128307142Y-104601666D01*
X128345238Y-104677857D01*
X128345238Y-105096904D01*
X129069047Y-105096904D02*
X129069047Y-104677857D01*
X129030952Y-104601666D01*
X128954761Y-104563571D01*
X128802380Y-104563571D01*
X128726190Y-104601666D01*
X129069047Y-105058809D02*
X128992857Y-105096904D01*
X128802380Y-105096904D01*
X128726190Y-105058809D01*
X128688095Y-104982619D01*
X128688095Y-104906428D01*
X128726190Y-104830238D01*
X128802380Y-104792142D01*
X128992857Y-104792142D01*
X129069047Y-104754047D01*
X115678571Y-105685000D02*
X115602380Y-105646904D01*
X115488095Y-105646904D01*
X115373809Y-105685000D01*
X115297619Y-105761190D01*
X115259523Y-105837380D01*
X115221428Y-105989761D01*
X115221428Y-106104047D01*
X115259523Y-106256428D01*
X115297619Y-106332619D01*
X115373809Y-106408809D01*
X115488095Y-106446904D01*
X115564285Y-106446904D01*
X115678571Y-106408809D01*
X115716666Y-106370714D01*
X115716666Y-106104047D01*
X115564285Y-106104047D01*
X116059523Y-106446904D02*
X116059523Y-105913571D01*
X116059523Y-105646904D02*
X116021428Y-105685000D01*
X116059523Y-105723095D01*
X116097619Y-105685000D01*
X116059523Y-105646904D01*
X116059523Y-105723095D01*
X116440476Y-106446904D02*
X116440476Y-105646904D01*
X116440476Y-105951666D02*
X116516666Y-105913571D01*
X116669047Y-105913571D01*
X116745238Y-105951666D01*
X116783333Y-105989761D01*
X116821428Y-106065952D01*
X116821428Y-106294523D01*
X116783333Y-106370714D01*
X116745238Y-106408809D01*
X116669047Y-106446904D01*
X116516666Y-106446904D01*
X116440476Y-106408809D01*
X117126190Y-106408809D02*
X117202380Y-106446904D01*
X117354761Y-106446904D01*
X117430952Y-106408809D01*
X117469047Y-106332619D01*
X117469047Y-106294523D01*
X117430952Y-106218333D01*
X117354761Y-106180238D01*
X117240476Y-106180238D01*
X117164285Y-106142142D01*
X117126190Y-106065952D01*
X117126190Y-106027857D01*
X117164285Y-105951666D01*
X117240476Y-105913571D01*
X117354761Y-105913571D01*
X117430952Y-105951666D01*
X117926190Y-106446904D02*
X117850000Y-106408809D01*
X117811904Y-106370714D01*
X117773809Y-106294523D01*
X117773809Y-106065952D01*
X117811904Y-105989761D01*
X117850000Y-105951666D01*
X117926190Y-105913571D01*
X118040476Y-105913571D01*
X118116666Y-105951666D01*
X118154761Y-105989761D01*
X118192857Y-106065952D01*
X118192857Y-106294523D01*
X118154761Y-106370714D01*
X118116666Y-106408809D01*
X118040476Y-106446904D01*
X117926190Y-106446904D01*
X118535714Y-105913571D02*
X118535714Y-106446904D01*
X118535714Y-105989761D02*
X118573809Y-105951666D01*
X118650000Y-105913571D01*
X118764285Y-105913571D01*
X118840476Y-105951666D01*
X118878571Y-106027857D01*
X118878571Y-106446904D01*
X119297619Y-106408809D02*
X119297619Y-106446904D01*
X119259523Y-106523095D01*
X119221428Y-106561190D01*
X120250000Y-106446904D02*
X120250000Y-105646904D01*
X120440476Y-105646904D01*
X120554761Y-105685000D01*
X120630952Y-105761190D01*
X120669047Y-105837380D01*
X120707142Y-105989761D01*
X120707142Y-106104047D01*
X120669047Y-106256428D01*
X120630952Y-106332619D01*
X120554761Y-106408809D01*
X120440476Y-106446904D01*
X120250000Y-106446904D01*
X121392857Y-106446904D02*
X121392857Y-106027857D01*
X121354761Y-105951666D01*
X121278571Y-105913571D01*
X121126190Y-105913571D01*
X121050000Y-105951666D01*
X121392857Y-106408809D02*
X121316666Y-106446904D01*
X121126190Y-106446904D01*
X121050000Y-106408809D01*
X121011904Y-106332619D01*
X121011904Y-106256428D01*
X121050000Y-106180238D01*
X121126190Y-106142142D01*
X121316666Y-106142142D01*
X121392857Y-106104047D01*
X121773809Y-105913571D02*
X121773809Y-106446904D01*
X121773809Y-105989761D02*
X121811904Y-105951666D01*
X121888095Y-105913571D01*
X122002380Y-105913571D01*
X122078571Y-105951666D01*
X122116666Y-106027857D01*
X122116666Y-106446904D01*
X122497619Y-106446904D02*
X122497619Y-105913571D01*
X122497619Y-105646904D02*
X122459523Y-105685000D01*
X122497619Y-105723095D01*
X122535714Y-105685000D01*
X122497619Y-105646904D01*
X122497619Y-105723095D01*
X123183333Y-106408809D02*
X123107142Y-106446904D01*
X122954761Y-106446904D01*
X122878571Y-106408809D01*
X122840476Y-106332619D01*
X122840476Y-106027857D01*
X122878571Y-105951666D01*
X122954761Y-105913571D01*
X123107142Y-105913571D01*
X123183333Y-105951666D01*
X123221428Y-106027857D01*
X123221428Y-106104047D01*
X122840476Y-106180238D01*
X123678571Y-106446904D02*
X123602380Y-106408809D01*
X123564285Y-106332619D01*
X123564285Y-105646904D01*
X124478571Y-105646904D02*
X124745238Y-106446904D01*
X125011904Y-105646904D01*
X125278571Y-106370714D02*
X125316666Y-106408809D01*
X125278571Y-106446904D01*
X125240476Y-106408809D01*
X125278571Y-106370714D01*
X125278571Y-106446904D01*
X125621428Y-105723095D02*
X125659523Y-105685000D01*
X125735714Y-105646904D01*
X125926190Y-105646904D01*
X126002380Y-105685000D01*
X126040476Y-105723095D01*
X126078571Y-105799285D01*
X126078571Y-105875476D01*
X126040476Y-105989761D01*
X125583333Y-106446904D01*
X126078571Y-106446904D01*
D11*
%TO.C,A1*%
X92202000Y-59182000D02*
X92202000Y-56642000D01*
X92202000Y-56642000D02*
X89532000Y-56642000D01*
X89532000Y-59182000D02*
X89532000Y-97412000D01*
X89532000Y-53972000D02*
X89532000Y-56642000D01*
X104902000Y-56642000D02*
X107572000Y-56642000D01*
X104902000Y-56642000D02*
X104902000Y-94742000D01*
X104902000Y-94742000D02*
X107572000Y-94742000D01*
X92202000Y-59182000D02*
X89532000Y-59182000D01*
X92202000Y-59182000D02*
X92202000Y-94742000D01*
X92202000Y-94742000D02*
X89532000Y-94742000D01*
X89532000Y-97412000D02*
X107572000Y-97412000D01*
X107572000Y-97412000D02*
X107572000Y-53972000D01*
X107572000Y-53972000D02*
X89532000Y-53972000D01*
%TO.C,U1*%
X124640000Y-75692000D02*
X124640000Y-71832000D01*
X124640000Y-71832000D02*
X124385000Y-71832000D01*
X124640000Y-75692000D02*
X124640000Y-79552000D01*
X124640000Y-79552000D02*
X124385000Y-79552000D01*
X114120000Y-75692000D02*
X114120000Y-71832000D01*
X114120000Y-71832000D02*
X114375000Y-71832000D01*
X114120000Y-75692000D02*
X114120000Y-79552000D01*
X114120000Y-79552000D02*
X114375000Y-79552000D01*
X114375000Y-79552000D02*
X114375000Y-81367000D01*
%TO.C,U4*%
X127508000Y-77216000D02*
X127508000Y-95504000D01*
X109220000Y-77216000D02*
X127508000Y-77216000D01*
X109220000Y-77216000D02*
X109220000Y-95504000D01*
X127508000Y-95504000D02*
X109220000Y-95504000D01*
%TO.C,U3*%
X99060000Y-105410000D02*
X99060000Y-102870000D01*
X109220000Y-105410000D02*
X99060000Y-105410000D01*
X109220000Y-102870000D02*
X109220000Y-105410000D01*
X99060000Y-102870000D02*
X109220000Y-102870000D01*
%TO.C,U7*%
X107950000Y-57150000D02*
X115570000Y-57150000D01*
X107950000Y-67310000D02*
X107950000Y-57150000D01*
X115570000Y-67310000D02*
X107950000Y-67310000D01*
X115570000Y-57150000D02*
X115570000Y-67310000D01*
%TO.C,U5*%
X108204000Y-52324000D02*
X114300000Y-52324000D01*
X114300000Y-52324000D02*
X114300000Y-55880000D01*
X108204000Y-55880000D02*
X108204000Y-52324000D01*
X108204000Y-55880000D02*
X108204000Y-56896000D01*
X108204000Y-56896000D02*
X114300000Y-56896000D01*
X114300000Y-56896000D02*
X114300000Y-55880000D01*
%TO.C,A1*%
D10*
X97837714Y-52998666D02*
X98313904Y-52998666D01*
X97742476Y-53284380D02*
X98075809Y-52284380D01*
X98409142Y-53284380D01*
X99266285Y-53284380D02*
X98694857Y-53284380D01*
X98980571Y-53284380D02*
X98980571Y-52284380D01*
X98885333Y-52427238D01*
X98790095Y-52522476D01*
X98694857Y-52570095D01*
%TO.C,U1*%
X112732380Y-76453904D02*
X113541904Y-76453904D01*
X113637142Y-76406285D01*
X113684761Y-76358666D01*
X113732380Y-76263428D01*
X113732380Y-76072952D01*
X113684761Y-75977714D01*
X113637142Y-75930095D01*
X113541904Y-75882476D01*
X112732380Y-75882476D01*
X113732380Y-74882476D02*
X113732380Y-75453904D01*
X113732380Y-75168190D02*
X112732380Y-75168190D01*
X112875238Y-75263428D01*
X112970476Y-75358666D01*
X113018095Y-75453904D01*
%TO.C,U4*%
X118110095Y-84788380D02*
X118110095Y-85597904D01*
X118157714Y-85693142D01*
X118205333Y-85740761D01*
X118300571Y-85788380D01*
X118491047Y-85788380D01*
X118586285Y-85740761D01*
X118633904Y-85693142D01*
X118681523Y-85597904D01*
X118681523Y-84788380D01*
X119586285Y-85121714D02*
X119586285Y-85788380D01*
X119348190Y-84740761D02*
X119110095Y-85455047D01*
X119729142Y-85455047D01*
X111212380Y-92630476D02*
X111212380Y-92011428D01*
X111593333Y-92344761D01*
X111593333Y-92201904D01*
X111640952Y-92106666D01*
X111688571Y-92059047D01*
X111783809Y-92011428D01*
X112021904Y-92011428D01*
X112117142Y-92059047D01*
X112164761Y-92106666D01*
X112212380Y-92201904D01*
X112212380Y-92487619D01*
X112164761Y-92582857D01*
X112117142Y-92630476D01*
X111545714Y-91678095D02*
X112212380Y-91440000D01*
X111545714Y-91201904D01*
X111212380Y-90916190D02*
X111212380Y-90297142D01*
X111593333Y-90630476D01*
X111593333Y-90487619D01*
X111640952Y-90392380D01*
X111688571Y-90344761D01*
X111783809Y-90297142D01*
X112021904Y-90297142D01*
X112117142Y-90344761D01*
X112164761Y-90392380D01*
X112212380Y-90487619D01*
X112212380Y-90773333D01*
X112164761Y-90868571D01*
X112117142Y-90916190D01*
X114657142Y-91606666D02*
X114704761Y-91654285D01*
X114752380Y-91797142D01*
X114752380Y-91892380D01*
X114704761Y-92035238D01*
X114609523Y-92130476D01*
X114514285Y-92178095D01*
X114323809Y-92225714D01*
X114180952Y-92225714D01*
X113990476Y-92178095D01*
X113895238Y-92130476D01*
X113800000Y-92035238D01*
X113752380Y-91892380D01*
X113752380Y-91797142D01*
X113800000Y-91654285D01*
X113847619Y-91606666D01*
X114704761Y-91225714D02*
X114752380Y-91082857D01*
X114752380Y-90844761D01*
X114704761Y-90749523D01*
X114657142Y-90701904D01*
X114561904Y-90654285D01*
X114466666Y-90654285D01*
X114371428Y-90701904D01*
X114323809Y-90749523D01*
X114276190Y-90844761D01*
X114228571Y-91035238D01*
X114180952Y-91130476D01*
X114133333Y-91178095D01*
X114038095Y-91225714D01*
X113942857Y-91225714D01*
X113847619Y-91178095D01*
X113800000Y-91130476D01*
X113752380Y-91035238D01*
X113752380Y-90797142D01*
X113800000Y-90654285D01*
X117292380Y-92963809D02*
X116625714Y-92963809D01*
X116720952Y-92963809D02*
X116673333Y-92916190D01*
X116625714Y-92820952D01*
X116625714Y-92678095D01*
X116673333Y-92582857D01*
X116768571Y-92535238D01*
X117292380Y-92535238D01*
X116768571Y-92535238D02*
X116673333Y-92487619D01*
X116625714Y-92392380D01*
X116625714Y-92249523D01*
X116673333Y-92154285D01*
X116768571Y-92106666D01*
X117292380Y-92106666D01*
X117292380Y-91487619D02*
X117244761Y-91582857D01*
X117197142Y-91630476D01*
X117101904Y-91678095D01*
X116816190Y-91678095D01*
X116720952Y-91630476D01*
X116673333Y-91582857D01*
X116625714Y-91487619D01*
X116625714Y-91344761D01*
X116673333Y-91249523D01*
X116720952Y-91201904D01*
X116816190Y-91154285D01*
X117101904Y-91154285D01*
X117197142Y-91201904D01*
X117244761Y-91249523D01*
X117292380Y-91344761D01*
X117292380Y-91487619D01*
X117244761Y-90773333D02*
X117292380Y-90678095D01*
X117292380Y-90487619D01*
X117244761Y-90392380D01*
X117149523Y-90344761D01*
X117101904Y-90344761D01*
X117006666Y-90392380D01*
X116959047Y-90487619D01*
X116959047Y-90630476D01*
X116911428Y-90725714D01*
X116816190Y-90773333D01*
X116768571Y-90773333D01*
X116673333Y-90725714D01*
X116625714Y-90630476D01*
X116625714Y-90487619D01*
X116673333Y-90392380D01*
X117292380Y-89916190D02*
X116625714Y-89916190D01*
X116292380Y-89916190D02*
X116340000Y-89963809D01*
X116387619Y-89916190D01*
X116340000Y-89868571D01*
X116292380Y-89916190D01*
X116387619Y-89916190D01*
X119784761Y-91868571D02*
X119832380Y-91963809D01*
X119832380Y-92154285D01*
X119784761Y-92249523D01*
X119737142Y-92297142D01*
X119641904Y-92344761D01*
X119356190Y-92344761D01*
X119260952Y-92297142D01*
X119213333Y-92249523D01*
X119165714Y-92154285D01*
X119165714Y-91963809D01*
X119213333Y-91868571D01*
X119832380Y-91297142D02*
X119784761Y-91392380D01*
X119689523Y-91440000D01*
X118832380Y-91440000D01*
X119832380Y-90916190D02*
X118832380Y-90916190D01*
X119451428Y-90820952D02*
X119832380Y-90535238D01*
X119165714Y-90535238D02*
X119546666Y-90916190D01*
X122372380Y-93011428D02*
X121372380Y-93011428D01*
X122086666Y-92678095D01*
X121372380Y-92344761D01*
X122372380Y-92344761D01*
X122372380Y-91868571D02*
X121372380Y-91868571D01*
X122324761Y-91440000D02*
X122372380Y-91297142D01*
X122372380Y-91059047D01*
X122324761Y-90963809D01*
X122277142Y-90916190D01*
X122181904Y-90868571D01*
X122086666Y-90868571D01*
X121991428Y-90916190D01*
X121943809Y-90963809D01*
X121896190Y-91059047D01*
X121848571Y-91249523D01*
X121800952Y-91344761D01*
X121753333Y-91392380D01*
X121658095Y-91440000D01*
X121562857Y-91440000D01*
X121467619Y-91392380D01*
X121420000Y-91344761D01*
X121372380Y-91249523D01*
X121372380Y-91011428D01*
X121420000Y-90868571D01*
X121372380Y-90249523D02*
X121372380Y-90059047D01*
X121420000Y-89963809D01*
X121515238Y-89868571D01*
X121705714Y-89820952D01*
X122039047Y-89820952D01*
X122229523Y-89868571D01*
X122324761Y-89963809D01*
X122372380Y-90059047D01*
X122372380Y-90249523D01*
X122324761Y-90344761D01*
X122229523Y-90440000D01*
X122039047Y-90487619D01*
X121705714Y-90487619D01*
X121515238Y-90440000D01*
X121420000Y-90344761D01*
X121372380Y-90249523D01*
X124245714Y-92130476D02*
X125055238Y-92130476D01*
X125150476Y-92178095D01*
X125198095Y-92225714D01*
X125245714Y-92320952D01*
X125245714Y-92463809D01*
X125198095Y-92559047D01*
X124864761Y-92130476D02*
X124912380Y-92225714D01*
X124912380Y-92416190D01*
X124864761Y-92511428D01*
X124817142Y-92559047D01*
X124721904Y-92606666D01*
X124436190Y-92606666D01*
X124340952Y-92559047D01*
X124293333Y-92511428D01*
X124245714Y-92416190D01*
X124245714Y-92225714D01*
X124293333Y-92130476D01*
X124245714Y-91654285D02*
X124912380Y-91654285D01*
X124340952Y-91654285D02*
X124293333Y-91606666D01*
X124245714Y-91511428D01*
X124245714Y-91368571D01*
X124293333Y-91273333D01*
X124388571Y-91225714D01*
X124912380Y-91225714D01*
X124912380Y-90320952D02*
X123912380Y-90320952D01*
X124864761Y-90320952D02*
X124912380Y-90416190D01*
X124912380Y-90606666D01*
X124864761Y-90701904D01*
X124817142Y-90749523D01*
X124721904Y-90797142D01*
X124436190Y-90797142D01*
X124340952Y-90749523D01*
X124293333Y-90701904D01*
X124245714Y-90606666D01*
X124245714Y-90416190D01*
X124293333Y-90320952D01*
%TO.C,U3*%
X103378095Y-101552380D02*
X103378095Y-102361904D01*
X103425714Y-102457142D01*
X103473333Y-102504761D01*
X103568571Y-102552380D01*
X103759047Y-102552380D01*
X103854285Y-102504761D01*
X103901904Y-102457142D01*
X103949523Y-102361904D01*
X103949523Y-101552380D01*
X104330476Y-101552380D02*
X104949523Y-101552380D01*
X104616190Y-101933333D01*
X104759047Y-101933333D01*
X104854285Y-101980952D01*
X104901904Y-102028571D01*
X104949523Y-102123809D01*
X104949523Y-102361904D01*
X104901904Y-102457142D01*
X104854285Y-102504761D01*
X104759047Y-102552380D01*
X104473333Y-102552380D01*
X104378095Y-102504761D01*
X104330476Y-102457142D01*
X99591904Y-107132380D02*
X99591904Y-106132380D01*
X99830000Y-106132380D01*
X99972857Y-106180000D01*
X100068095Y-106275238D01*
X100115714Y-106370476D01*
X100163333Y-106560952D01*
X100163333Y-106703809D01*
X100115714Y-106894285D01*
X100068095Y-106989523D01*
X99972857Y-107084761D01*
X99830000Y-107132380D01*
X99591904Y-107132380D01*
X101020476Y-106465714D02*
X101020476Y-107132380D01*
X100782380Y-106084761D02*
X100544285Y-106799047D01*
X101163333Y-106799047D01*
X102131904Y-107132380D02*
X102131904Y-106132380D01*
X102370000Y-106132380D01*
X102512857Y-106180000D01*
X102608095Y-106275238D01*
X102655714Y-106370476D01*
X102703333Y-106560952D01*
X102703333Y-106703809D01*
X102655714Y-106894285D01*
X102608095Y-106989523D01*
X102512857Y-107084761D01*
X102370000Y-107132380D01*
X102131904Y-107132380D01*
X103608095Y-106132380D02*
X103131904Y-106132380D01*
X103084285Y-106608571D01*
X103131904Y-106560952D01*
X103227142Y-106513333D01*
X103465238Y-106513333D01*
X103560476Y-106560952D01*
X103608095Y-106608571D01*
X103655714Y-106703809D01*
X103655714Y-106941904D01*
X103608095Y-107037142D01*
X103560476Y-107084761D01*
X103465238Y-107132380D01*
X103227142Y-107132380D01*
X103131904Y-107084761D01*
X103084285Y-107037142D01*
X104695714Y-106846666D02*
X105171904Y-106846666D01*
X104600476Y-107132380D02*
X104933809Y-106132380D01*
X105267142Y-107132380D01*
X105790952Y-106132380D02*
X105886190Y-106132380D01*
X105981428Y-106180000D01*
X106029047Y-106227619D01*
X106076666Y-106322857D01*
X106124285Y-106513333D01*
X106124285Y-106751428D01*
X106076666Y-106941904D01*
X106029047Y-107037142D01*
X105981428Y-107084761D01*
X105886190Y-107132380D01*
X105790952Y-107132380D01*
X105695714Y-107084761D01*
X105648095Y-107037142D01*
X105600476Y-106941904D01*
X105552857Y-106751428D01*
X105552857Y-106513333D01*
X105600476Y-106322857D01*
X105648095Y-106227619D01*
X105695714Y-106180000D01*
X105790952Y-106132380D01*
X107188095Y-106180000D02*
X107092857Y-106132380D01*
X106950000Y-106132380D01*
X106807142Y-106180000D01*
X106711904Y-106275238D01*
X106664285Y-106370476D01*
X106616666Y-106560952D01*
X106616666Y-106703809D01*
X106664285Y-106894285D01*
X106711904Y-106989523D01*
X106807142Y-107084761D01*
X106950000Y-107132380D01*
X107045238Y-107132380D01*
X107188095Y-107084761D01*
X107235714Y-107037142D01*
X107235714Y-106703809D01*
X107045238Y-106703809D01*
X107664285Y-107132380D02*
X107664285Y-106132380D01*
X108235714Y-107132380D01*
X108235714Y-106132380D01*
X108711904Y-107132380D02*
X108711904Y-106132380D01*
X108950000Y-106132380D01*
X109092857Y-106180000D01*
X109188095Y-106275238D01*
X109235714Y-106370476D01*
X109283333Y-106560952D01*
X109283333Y-106703809D01*
X109235714Y-106894285D01*
X109188095Y-106989523D01*
X109092857Y-107084761D01*
X108950000Y-107132380D01*
X108711904Y-107132380D01*
%TO.C,U7*%
X111982380Y-62991904D02*
X112791904Y-62991904D01*
X112887142Y-62944285D01*
X112934761Y-62896666D01*
X112982380Y-62801428D01*
X112982380Y-62610952D01*
X112934761Y-62515714D01*
X112887142Y-62468095D01*
X112791904Y-62420476D01*
X111982380Y-62420476D01*
X111982380Y-62039523D02*
X111982380Y-61372857D01*
X112982380Y-61801428D01*
%TO.C,U5*%
X110490095Y-53800380D02*
X110490095Y-54609904D01*
X110537714Y-54705142D01*
X110585333Y-54752761D01*
X110680571Y-54800380D01*
X110871047Y-54800380D01*
X110966285Y-54752761D01*
X111013904Y-54705142D01*
X111061523Y-54609904D01*
X111061523Y-53800380D01*
X112013904Y-53800380D02*
X111537714Y-53800380D01*
X111490095Y-54276571D01*
X111537714Y-54228952D01*
X111632952Y-54181333D01*
X111871047Y-54181333D01*
X111966285Y-54228952D01*
X112013904Y-54276571D01*
X112061523Y-54371809D01*
X112061523Y-54609904D01*
X112013904Y-54705142D01*
X111966285Y-54752761D01*
X111871047Y-54800380D01*
X111632952Y-54800380D01*
X111537714Y-54752761D01*
X111490095Y-54705142D01*
%TD*%
M02*
