M48
; DRILL file {KiCad (5.1.10)-1} date 10/20/21 12:04:45
; FORMAT={-:-/ absolute / inch / decimal}
; #@! TF.CreationDate,2021-10-20T12:04:45-04:00
; #@! TF.GenerationSoftware,Kicad,Pcbnew,(5.1.10)-1
; #@! TF.FileFunction,Plated,1,2,PTH
FMAT,2
INCH
T1C0.0157
T2C0.0300
T3C0.0394
%
G90
G05
T1
X4.39Y-3.4376
X4.55Y-3.3224
X4.55Y-3.4376
X4.575Y-2.7969
X4.625Y-2.7969
X4.625Y-3.1631
X4.67Y-2.89
X4.73Y-3.3219
X4.8Y-2.51
T2
X3.95Y-4.1
X4.05Y-4.1
X4.15Y-4.1
X4.25Y-4.1
X4.32Y-2.2
X4.44Y-2.2
T3
X3.58Y-2.28
X3.58Y-2.38
X3.58Y-2.48
X3.58Y-2.58
X3.58Y-2.68
X3.58Y-2.78
X3.58Y-2.88
X3.58Y-2.98
X3.58Y-3.08
X3.58Y-3.18
X3.58Y-3.28
X3.58Y-3.38
X3.58Y-3.48
X3.58Y-3.58
X3.58Y-3.68
X3.8Y-2.55
X3.8Y-3.15
X3.9Y-2.55
X3.9Y-3.15
X4.0Y-2.55
X4.0Y-3.15
X4.18Y-2.28
X4.18Y-2.38
X4.18Y-2.48
X4.18Y-2.58
X4.18Y-2.68
X4.18Y-2.78
X4.18Y-2.88
X4.18Y-2.98
X4.18Y-3.08
X4.18Y-3.18
X4.18Y-3.28
X4.18Y-3.38
X4.18Y-3.48
X4.18Y-3.58
X4.18Y-3.68
X4.35Y-2.35
X4.35Y-2.55
X4.4Y-3.7
X4.5Y-3.7
X4.6Y-3.7
X4.7Y-3.7
X4.8Y-3.7
X4.9Y-3.7
T0
M30
