%TF.GenerationSoftware,KiCad,Pcbnew,(5.1.12)-1*%
%TF.CreationDate,2023-05-17T18:58:12-04:00*%
%TF.ProjectId,Final_Design,46696e61-6c5f-4446-9573-69676e2e6b69,rev?*%
%TF.SameCoordinates,Original*%
%TF.FileFunction,Soldermask,Bot*%
%TF.FilePolarity,Negative*%
%FSLAX46Y46*%
G04 Gerber Fmt 4.6, Leading zero omitted, Abs format (unit mm)*
G04 Created by KiCad (PCBNEW (5.1.12)-1) date 2023-05-17 18:58:12*
%MOMM*%
%LPD*%
G01*
G04 APERTURE LIST*
%ADD10C,2.000000*%
%ADD11R,2.000000X2.000000*%
%ADD12R,3.500000X3.500000*%
%ADD13C,8.000000*%
%ADD14C,1.800000*%
%ADD15R,1.800000X1.800000*%
%ADD16C,1.324000*%
%ADD17O,1.424000X2.524000*%
%ADD18O,1.600000X1.600000*%
%ADD19R,1.600000X1.600000*%
%ADD20C,1.524000*%
G04 APERTURE END LIST*
D10*
%TO.C,U1*%
X109510000Y-30530000D03*
D11*
X104700000Y-30530000D03*
%TD*%
D12*
%TO.C,BT1*%
X122600000Y-56945000D03*
X122600000Y-73455000D03*
D13*
X122600000Y-65200000D03*
%TD*%
D14*
%TO.C,LED*%
X119760000Y-51300000D03*
D15*
X122300000Y-51300000D03*
%TD*%
D16*
%TO.C,U3*%
X124732000Y-30120000D03*
X122700000Y-30120000D03*
X120668000Y-30120000D03*
D17*
X126891000Y-30120000D03*
X118509000Y-30120000D03*
%TD*%
D18*
%TO.C,A1*%
X99360000Y-37040000D03*
X114600000Y-37040000D03*
X99360000Y-72600000D03*
X114600000Y-39580000D03*
X99360000Y-70060000D03*
X114600000Y-42120000D03*
X99360000Y-67520000D03*
X114600000Y-44660000D03*
X99360000Y-64980000D03*
X114600000Y-47200000D03*
X99360000Y-62440000D03*
X114600000Y-49740000D03*
X99360000Y-59900000D03*
X114600000Y-52280000D03*
X99360000Y-57360000D03*
X114600000Y-54820000D03*
X99360000Y-54820000D03*
X114600000Y-57360000D03*
X99360000Y-52280000D03*
X114600000Y-59900000D03*
X99360000Y-49740000D03*
X114600000Y-62440000D03*
X99360000Y-47200000D03*
X114600000Y-64980000D03*
X99360000Y-44660000D03*
X114600000Y-67520000D03*
X99360000Y-42120000D03*
X114600000Y-70060000D03*
X99360000Y-39580000D03*
D19*
X114600000Y-72600000D03*
%TD*%
%TO.C,C1*%
G36*
G01*
X105500000Y-35149999D02*
X105500000Y-36450001D01*
G75*
G02*
X105250001Y-36700000I-249999J0D01*
G01*
X104424999Y-36700000D01*
G75*
G02*
X104175000Y-36450001I0J249999D01*
G01*
X104175000Y-35149999D01*
G75*
G02*
X104424999Y-34900000I249999J0D01*
G01*
X105250001Y-34900000D01*
G75*
G02*
X105500000Y-35149999I0J-249999D01*
G01*
G37*
G36*
G01*
X108625000Y-35149999D02*
X108625000Y-36450001D01*
G75*
G02*
X108375001Y-36700000I-249999J0D01*
G01*
X107549999Y-36700000D01*
G75*
G02*
X107300000Y-36450001I0J249999D01*
G01*
X107300000Y-35149999D01*
G75*
G02*
X107549999Y-34900000I249999J0D01*
G01*
X108375001Y-34900000D01*
G75*
G02*
X108625000Y-35149999I0J-249999D01*
G01*
G37*
%TD*%
%TO.C,4.7K*%
G36*
G01*
X101425000Y-105100000D02*
X100175000Y-105100000D01*
G75*
G02*
X99925000Y-104850000I0J250000D01*
G01*
X99925000Y-104050000D01*
G75*
G02*
X100175000Y-103800000I250000J0D01*
G01*
X101425000Y-103800000D01*
G75*
G02*
X101675000Y-104050000I0J-250000D01*
G01*
X101675000Y-104850000D01*
G75*
G02*
X101425000Y-105100000I-250000J0D01*
G01*
G37*
G36*
G01*
X101425000Y-108200000D02*
X100175000Y-108200000D01*
G75*
G02*
X99925000Y-107950000I0J250000D01*
G01*
X99925000Y-107150000D01*
G75*
G02*
X100175000Y-106900000I250000J0D01*
G01*
X101425000Y-106900000D01*
G75*
G02*
X101675000Y-107150000I0J-250000D01*
G01*
X101675000Y-107950000D01*
G75*
G02*
X101425000Y-108200000I-250000J0D01*
G01*
G37*
%TD*%
%TO.C,220*%
G36*
G01*
X125775000Y-52600000D02*
X127025000Y-52600000D01*
G75*
G02*
X127275000Y-52850000I0J-250000D01*
G01*
X127275000Y-53650000D01*
G75*
G02*
X127025000Y-53900000I-250000J0D01*
G01*
X125775000Y-53900000D01*
G75*
G02*
X125525000Y-53650000I0J250000D01*
G01*
X125525000Y-52850000D01*
G75*
G02*
X125775000Y-52600000I250000J0D01*
G01*
G37*
G36*
G01*
X125775000Y-49500000D02*
X127025000Y-49500000D01*
G75*
G02*
X127275000Y-49750000I0J-250000D01*
G01*
X127275000Y-50550000D01*
G75*
G02*
X127025000Y-50800000I-250000J0D01*
G01*
X125775000Y-50800000D01*
G75*
G02*
X125525000Y-50550000I0J250000D01*
G01*
X125525000Y-49750000D01*
G75*
G02*
X125775000Y-49500000I250000J0D01*
G01*
G37*
%TD*%
D14*
%TO.C,U2*%
X119930000Y-92230000D03*
X117390000Y-92230000D03*
X114850000Y-92230000D03*
X112310000Y-92230000D03*
X109770000Y-92230000D03*
X107230000Y-92230000D03*
%TD*%
D20*
%TO.C,U4*%
X106900000Y-78610000D03*
X104360000Y-78610000D03*
X101820000Y-78610000D03*
%TD*%
%TO.C,U5*%
X125200000Y-78610000D03*
X122660000Y-78610000D03*
X120120000Y-78610000D03*
%TD*%
%TO.C,U6*%
G36*
G01*
X118505000Y-44825000D02*
X118805000Y-44825000D01*
G75*
G02*
X118955000Y-44975000I0J-150000D01*
G01*
X118955000Y-46725000D01*
G75*
G02*
X118805000Y-46875000I-150000J0D01*
G01*
X118505000Y-46875000D01*
G75*
G02*
X118355000Y-46725000I0J150000D01*
G01*
X118355000Y-44975000D01*
G75*
G02*
X118505000Y-44825000I150000J0D01*
G01*
G37*
G36*
G01*
X119775000Y-44825000D02*
X120075000Y-44825000D01*
G75*
G02*
X120225000Y-44975000I0J-150000D01*
G01*
X120225000Y-46725000D01*
G75*
G02*
X120075000Y-46875000I-150000J0D01*
G01*
X119775000Y-46875000D01*
G75*
G02*
X119625000Y-46725000I0J150000D01*
G01*
X119625000Y-44975000D01*
G75*
G02*
X119775000Y-44825000I150000J0D01*
G01*
G37*
G36*
G01*
X121045000Y-44825000D02*
X121345000Y-44825000D01*
G75*
G02*
X121495000Y-44975000I0J-150000D01*
G01*
X121495000Y-46725000D01*
G75*
G02*
X121345000Y-46875000I-150000J0D01*
G01*
X121045000Y-46875000D01*
G75*
G02*
X120895000Y-46725000I0J150000D01*
G01*
X120895000Y-44975000D01*
G75*
G02*
X121045000Y-44825000I150000J0D01*
G01*
G37*
G36*
G01*
X122315000Y-44825000D02*
X122615000Y-44825000D01*
G75*
G02*
X122765000Y-44975000I0J-150000D01*
G01*
X122765000Y-46725000D01*
G75*
G02*
X122615000Y-46875000I-150000J0D01*
G01*
X122315000Y-46875000D01*
G75*
G02*
X122165000Y-46725000I0J150000D01*
G01*
X122165000Y-44975000D01*
G75*
G02*
X122315000Y-44825000I150000J0D01*
G01*
G37*
G36*
G01*
X123585000Y-44825000D02*
X123885000Y-44825000D01*
G75*
G02*
X124035000Y-44975000I0J-150000D01*
G01*
X124035000Y-46725000D01*
G75*
G02*
X123885000Y-46875000I-150000J0D01*
G01*
X123585000Y-46875000D01*
G75*
G02*
X123435000Y-46725000I0J150000D01*
G01*
X123435000Y-44975000D01*
G75*
G02*
X123585000Y-44825000I150000J0D01*
G01*
G37*
G36*
G01*
X124855000Y-44825000D02*
X125155000Y-44825000D01*
G75*
G02*
X125305000Y-44975000I0J-150000D01*
G01*
X125305000Y-46725000D01*
G75*
G02*
X125155000Y-46875000I-150000J0D01*
G01*
X124855000Y-46875000D01*
G75*
G02*
X124705000Y-46725000I0J150000D01*
G01*
X124705000Y-44975000D01*
G75*
G02*
X124855000Y-44825000I150000J0D01*
G01*
G37*
G36*
G01*
X126125000Y-44825000D02*
X126425000Y-44825000D01*
G75*
G02*
X126575000Y-44975000I0J-150000D01*
G01*
X126575000Y-46725000D01*
G75*
G02*
X126425000Y-46875000I-150000J0D01*
G01*
X126125000Y-46875000D01*
G75*
G02*
X125975000Y-46725000I0J150000D01*
G01*
X125975000Y-44975000D01*
G75*
G02*
X126125000Y-44825000I150000J0D01*
G01*
G37*
G36*
G01*
X127395000Y-44825000D02*
X127695000Y-44825000D01*
G75*
G02*
X127845000Y-44975000I0J-150000D01*
G01*
X127845000Y-46725000D01*
G75*
G02*
X127695000Y-46875000I-150000J0D01*
G01*
X127395000Y-46875000D01*
G75*
G02*
X127245000Y-46725000I0J150000D01*
G01*
X127245000Y-44975000D01*
G75*
G02*
X127395000Y-44825000I150000J0D01*
G01*
G37*
G36*
G01*
X127395000Y-35525000D02*
X127695000Y-35525000D01*
G75*
G02*
X127845000Y-35675000I0J-150000D01*
G01*
X127845000Y-37425000D01*
G75*
G02*
X127695000Y-37575000I-150000J0D01*
G01*
X127395000Y-37575000D01*
G75*
G02*
X127245000Y-37425000I0J150000D01*
G01*
X127245000Y-35675000D01*
G75*
G02*
X127395000Y-35525000I150000J0D01*
G01*
G37*
G36*
G01*
X126125000Y-35525000D02*
X126425000Y-35525000D01*
G75*
G02*
X126575000Y-35675000I0J-150000D01*
G01*
X126575000Y-37425000D01*
G75*
G02*
X126425000Y-37575000I-150000J0D01*
G01*
X126125000Y-37575000D01*
G75*
G02*
X125975000Y-37425000I0J150000D01*
G01*
X125975000Y-35675000D01*
G75*
G02*
X126125000Y-35525000I150000J0D01*
G01*
G37*
G36*
G01*
X124855000Y-35525000D02*
X125155000Y-35525000D01*
G75*
G02*
X125305000Y-35675000I0J-150000D01*
G01*
X125305000Y-37425000D01*
G75*
G02*
X125155000Y-37575000I-150000J0D01*
G01*
X124855000Y-37575000D01*
G75*
G02*
X124705000Y-37425000I0J150000D01*
G01*
X124705000Y-35675000D01*
G75*
G02*
X124855000Y-35525000I150000J0D01*
G01*
G37*
G36*
G01*
X123585000Y-35525000D02*
X123885000Y-35525000D01*
G75*
G02*
X124035000Y-35675000I0J-150000D01*
G01*
X124035000Y-37425000D01*
G75*
G02*
X123885000Y-37575000I-150000J0D01*
G01*
X123585000Y-37575000D01*
G75*
G02*
X123435000Y-37425000I0J150000D01*
G01*
X123435000Y-35675000D01*
G75*
G02*
X123585000Y-35525000I150000J0D01*
G01*
G37*
G36*
G01*
X122315000Y-35525000D02*
X122615000Y-35525000D01*
G75*
G02*
X122765000Y-35675000I0J-150000D01*
G01*
X122765000Y-37425000D01*
G75*
G02*
X122615000Y-37575000I-150000J0D01*
G01*
X122315000Y-37575000D01*
G75*
G02*
X122165000Y-37425000I0J150000D01*
G01*
X122165000Y-35675000D01*
G75*
G02*
X122315000Y-35525000I150000J0D01*
G01*
G37*
G36*
G01*
X121045000Y-35525000D02*
X121345000Y-35525000D01*
G75*
G02*
X121495000Y-35675000I0J-150000D01*
G01*
X121495000Y-37425000D01*
G75*
G02*
X121345000Y-37575000I-150000J0D01*
G01*
X121045000Y-37575000D01*
G75*
G02*
X120895000Y-37425000I0J150000D01*
G01*
X120895000Y-35675000D01*
G75*
G02*
X121045000Y-35525000I150000J0D01*
G01*
G37*
G36*
G01*
X119775000Y-35525000D02*
X120075000Y-35525000D01*
G75*
G02*
X120225000Y-35675000I0J-150000D01*
G01*
X120225000Y-37425000D01*
G75*
G02*
X120075000Y-37575000I-150000J0D01*
G01*
X119775000Y-37575000D01*
G75*
G02*
X119625000Y-37425000I0J150000D01*
G01*
X119625000Y-35675000D01*
G75*
G02*
X119775000Y-35525000I150000J0D01*
G01*
G37*
G36*
G01*
X118505000Y-35525000D02*
X118805000Y-35525000D01*
G75*
G02*
X118955000Y-35675000I0J-150000D01*
G01*
X118955000Y-37425000D01*
G75*
G02*
X118805000Y-37575000I-150000J0D01*
G01*
X118505000Y-37575000D01*
G75*
G02*
X118355000Y-37425000I0J150000D01*
G01*
X118355000Y-35675000D01*
G75*
G02*
X118505000Y-35525000I150000J0D01*
G01*
G37*
%TD*%
%TO.C,U7*%
X116000000Y-78610000D03*
X113460000Y-78610000D03*
X110920000Y-78610000D03*
%TD*%
%TO.C,U8*%
X115400000Y-121410000D03*
X112860000Y-121410000D03*
X110320000Y-121410000D03*
%TD*%
M02*
